G04 MADE WITH FRITZING*
G04 WWW.FRITZING.ORG*
G04 DOUBLE SIDED*
G04 HOLES PLATED*
G04 CONTOUR ON CENTER OF CONTOUR VECTOR*
%ASAXBY*%
%FSLAX23Y23*%
%MOIN*%
%OFA0B0*%
%SFA1.0B1.0*%
%ADD10C,0.075000*%
%ADD11C,0.055433*%
%ADD12C,0.039370*%
%ADD13C,0.062992*%
%ADD14C,0.078000*%
%ADD15C,0.075722*%
%ADD16C,0.075695*%
%ADD17C,0.074000*%
%ADD18R,0.062992X0.062992*%
%ADD19C,0.008000*%
%LNCOPPER0*%
G90*
G70*
G54D10*
X518Y1050D03*
X346Y1088D03*
X562Y1590D03*
X116Y189D03*
G54D11*
X243Y1529D03*
X499Y1529D03*
G54D12*
X885Y154D03*
G54D13*
X1322Y1579D03*
X1224Y1579D03*
G54D10*
X924Y1704D03*
X724Y1704D03*
X1349Y1704D03*
X1149Y1704D03*
G54D14*
X199Y1154D03*
X199Y1054D03*
X199Y954D03*
G54D15*
X1324Y1429D03*
G54D16*
X1324Y1329D03*
X1324Y1229D03*
X1324Y1129D03*
X1324Y1029D03*
G54D15*
X1324Y929D03*
X1324Y829D03*
G54D16*
X1324Y729D03*
X1324Y629D03*
X1324Y529D03*
X1324Y429D03*
G54D15*
X1324Y329D03*
G54D16*
X1324Y229D03*
G54D15*
X1224Y1429D03*
X1224Y1330D03*
G54D16*
X1224Y1229D03*
X1224Y1129D03*
X1224Y1029D03*
G54D15*
X1224Y929D03*
G54D16*
X1224Y829D03*
X1224Y729D03*
X1224Y629D03*
X1224Y529D03*
X1224Y429D03*
G54D15*
X1224Y329D03*
G54D16*
X1224Y229D03*
G54D17*
X224Y754D03*
X224Y498D03*
X46Y754D03*
X46Y498D03*
X224Y304D03*
X224Y48D03*
X46Y304D03*
X46Y48D03*
X524Y304D03*
X524Y48D03*
X346Y304D03*
X346Y48D03*
X524Y754D03*
X524Y498D03*
X346Y754D03*
X346Y498D03*
X524Y1204D03*
X524Y948D03*
X346Y1204D03*
X346Y948D03*
X824Y304D03*
X824Y48D03*
X646Y304D03*
X646Y48D03*
X824Y754D03*
X824Y498D03*
X646Y754D03*
X646Y498D03*
X824Y1204D03*
X824Y948D03*
X646Y1204D03*
X646Y948D03*
X1124Y304D03*
X1124Y48D03*
X946Y304D03*
X946Y48D03*
X1124Y754D03*
X1124Y498D03*
X946Y754D03*
X946Y498D03*
X1124Y1204D03*
X1124Y948D03*
X946Y1204D03*
X946Y948D03*
G54D18*
X1322Y1579D03*
G54D19*
X1324Y176D02*
X1324Y203D01*
D02*
X1124Y176D02*
X1324Y176D01*
D02*
X1124Y279D02*
X1124Y176D01*
D02*
X524Y102D02*
X1398Y102D01*
D02*
X1398Y428D02*
X1350Y429D01*
D02*
X1398Y102D02*
X1398Y428D01*
D02*
X524Y279D02*
X524Y102D01*
D02*
X124Y428D02*
X1198Y429D01*
D02*
X124Y754D02*
X124Y428D01*
D02*
X198Y754D02*
X124Y754D01*
D02*
X1224Y554D02*
X1224Y555D01*
D02*
X524Y554D02*
X1224Y554D01*
D02*
X524Y729D02*
X524Y554D01*
D02*
X824Y702D02*
X1224Y702D01*
D02*
X1224Y702D02*
X1224Y703D01*
D02*
X824Y729D02*
X824Y702D01*
D02*
X1124Y828D02*
X1198Y829D01*
D02*
X1124Y780D02*
X1124Y828D01*
D02*
X424Y880D02*
X1224Y880D01*
D02*
X1224Y880D02*
X1224Y902D01*
D02*
X424Y902D02*
X424Y880D01*
D02*
X1224Y902D02*
X1224Y903D01*
D02*
X424Y1202D02*
X424Y902D01*
D02*
X498Y1204D02*
X424Y1202D01*
D02*
X824Y1128D02*
X1198Y1129D01*
D02*
X824Y1179D02*
X824Y1128D01*
D02*
X1124Y1228D02*
X1198Y1229D01*
D02*
X1124Y1230D02*
X1124Y1228D01*
D02*
X1124Y1280D02*
X1124Y1480D01*
D02*
X1124Y1480D02*
X1376Y1480D01*
D02*
X124Y1054D02*
X124Y1280D01*
D02*
X124Y1280D02*
X1124Y1280D01*
D02*
X1376Y1480D02*
X1376Y1128D01*
D02*
X1376Y1128D02*
X1350Y1129D01*
D02*
X174Y1054D02*
X124Y1054D01*
D02*
X1150Y1254D02*
X1150Y1428D01*
D02*
X1150Y1428D02*
X1198Y1429D01*
D02*
X276Y954D02*
X276Y1254D01*
D02*
X276Y1254D02*
X1150Y1254D01*
D02*
X223Y954D02*
X276Y954D01*
D02*
X872Y302D02*
X884Y168D01*
D02*
X849Y303D02*
X872Y302D01*
D02*
X1324Y1702D02*
X1326Y1702D01*
D02*
X1323Y1600D02*
X1324Y1702D01*
D02*
X1400Y1504D02*
X1400Y1026D01*
D02*
X924Y1681D02*
X921Y1504D01*
D02*
X921Y1504D02*
X1400Y1504D01*
D02*
X1400Y1026D02*
X1350Y1028D01*
G36*
X968Y1736D02*
X968Y1716D01*
X970Y1716D01*
X970Y1710D01*
X972Y1710D01*
X972Y1700D01*
X970Y1700D01*
X970Y1692D01*
X968Y1692D01*
X968Y1686D01*
X966Y1686D01*
X966Y1684D01*
X964Y1684D01*
X964Y1680D01*
X962Y1680D01*
X962Y1678D01*
X960Y1678D01*
X960Y1674D01*
X958Y1674D01*
X958Y1672D01*
X956Y1672D01*
X956Y1670D01*
X954Y1670D01*
X954Y1668D01*
X950Y1668D01*
X950Y1666D01*
X948Y1666D01*
X948Y1664D01*
X944Y1664D01*
X944Y1662D01*
X942Y1662D01*
X942Y1660D01*
X938Y1660D01*
X938Y1656D01*
X1148Y1656D01*
X1148Y1658D01*
X1138Y1658D01*
X1138Y1660D01*
X1132Y1660D01*
X1132Y1662D01*
X1128Y1662D01*
X1128Y1664D01*
X1124Y1664D01*
X1124Y1666D01*
X1122Y1666D01*
X1122Y1668D01*
X1120Y1668D01*
X1120Y1670D01*
X1118Y1670D01*
X1118Y1672D01*
X1116Y1672D01*
X1116Y1674D01*
X1114Y1674D01*
X1114Y1676D01*
X1112Y1676D01*
X1112Y1678D01*
X1110Y1678D01*
X1110Y1682D01*
X1108Y1682D01*
X1108Y1684D01*
X1106Y1684D01*
X1106Y1688D01*
X1104Y1688D01*
X1104Y1694D01*
X1102Y1694D01*
X1102Y1714D01*
X1104Y1714D01*
X1104Y1736D01*
X968Y1736D01*
G37*
D02*
G36*
X1194Y1736D02*
X1194Y1714D01*
X1196Y1714D01*
X1196Y1694D01*
X1194Y1694D01*
X1194Y1690D01*
X1192Y1690D01*
X1192Y1684D01*
X1190Y1684D01*
X1190Y1682D01*
X1188Y1682D01*
X1188Y1678D01*
X1186Y1678D01*
X1186Y1676D01*
X1184Y1676D01*
X1184Y1674D01*
X1182Y1674D01*
X1182Y1672D01*
X1180Y1672D01*
X1180Y1670D01*
X1178Y1670D01*
X1178Y1668D01*
X1176Y1668D01*
X1176Y1666D01*
X1172Y1666D01*
X1172Y1664D01*
X1170Y1664D01*
X1170Y1662D01*
X1166Y1662D01*
X1166Y1660D01*
X1160Y1660D01*
X1160Y1658D01*
X1150Y1658D01*
X1150Y1656D01*
X1310Y1656D01*
X1310Y1682D01*
X1308Y1682D01*
X1308Y1684D01*
X1306Y1684D01*
X1306Y1688D01*
X1304Y1688D01*
X1304Y1694D01*
X1302Y1694D01*
X1302Y1714D01*
X1304Y1714D01*
X1304Y1736D01*
X1194Y1736D01*
G37*
D02*
G36*
X938Y1656D02*
X938Y1654D01*
X1310Y1654D01*
X1310Y1656D01*
X938Y1656D01*
G37*
D02*
G36*
X938Y1656D02*
X938Y1654D01*
X1310Y1654D01*
X1310Y1656D01*
X938Y1656D01*
G37*
D02*
G36*
X938Y1654D02*
X938Y1640D01*
X936Y1640D01*
X936Y1620D01*
X1234Y1620D01*
X1234Y1618D01*
X1240Y1618D01*
X1240Y1616D01*
X1242Y1616D01*
X1242Y1614D01*
X1246Y1614D01*
X1246Y1612D01*
X1248Y1612D01*
X1248Y1610D01*
X1250Y1610D01*
X1250Y1608D01*
X1252Y1608D01*
X1252Y1606D01*
X1254Y1606D01*
X1254Y1604D01*
X1256Y1604D01*
X1256Y1602D01*
X1258Y1602D01*
X1258Y1600D01*
X1260Y1600D01*
X1260Y1596D01*
X1280Y1596D01*
X1280Y1620D01*
X1308Y1620D01*
X1308Y1636D01*
X1310Y1636D01*
X1310Y1654D01*
X938Y1654D01*
G37*
D02*
G36*
X936Y1620D02*
X936Y1538D01*
X1216Y1538D01*
X1216Y1540D01*
X1210Y1540D01*
X1210Y1542D01*
X1206Y1542D01*
X1206Y1544D01*
X1202Y1544D01*
X1202Y1546D01*
X1200Y1546D01*
X1200Y1548D01*
X1198Y1548D01*
X1198Y1550D01*
X1196Y1550D01*
X1196Y1552D01*
X1194Y1552D01*
X1194Y1554D01*
X1192Y1554D01*
X1192Y1556D01*
X1190Y1556D01*
X1190Y1560D01*
X1188Y1560D01*
X1188Y1562D01*
X1186Y1562D01*
X1186Y1566D01*
X1184Y1566D01*
X1184Y1574D01*
X1182Y1574D01*
X1182Y1586D01*
X1184Y1586D01*
X1184Y1592D01*
X1186Y1592D01*
X1186Y1596D01*
X1188Y1596D01*
X1188Y1600D01*
X1190Y1600D01*
X1190Y1602D01*
X1192Y1602D01*
X1192Y1604D01*
X1194Y1604D01*
X1194Y1608D01*
X1196Y1608D01*
X1196Y1610D01*
X1200Y1610D01*
X1200Y1612D01*
X1202Y1612D01*
X1202Y1614D01*
X1204Y1614D01*
X1204Y1616D01*
X1208Y1616D01*
X1208Y1618D01*
X1214Y1618D01*
X1214Y1620D01*
X936Y1620D01*
G37*
D02*
G36*
X1260Y1564D02*
X1260Y1560D01*
X1258Y1560D01*
X1258Y1556D01*
X1256Y1556D01*
X1256Y1554D01*
X1254Y1554D01*
X1254Y1552D01*
X1252Y1552D01*
X1252Y1550D01*
X1250Y1550D01*
X1250Y1548D01*
X1248Y1548D01*
X1248Y1546D01*
X1244Y1546D01*
X1244Y1544D01*
X1242Y1544D01*
X1242Y1542D01*
X1238Y1542D01*
X1238Y1540D01*
X1232Y1540D01*
X1232Y1538D01*
X1280Y1538D01*
X1280Y1564D01*
X1260Y1564D01*
G37*
D02*
G36*
X936Y1538D02*
X936Y1536D01*
X1382Y1536D01*
X1382Y1538D01*
X936Y1538D01*
G37*
D02*
G36*
X936Y1538D02*
X936Y1536D01*
X1382Y1536D01*
X1382Y1538D01*
X936Y1538D01*
G37*
D02*
G36*
X936Y1536D02*
X936Y1518D01*
X1382Y1518D01*
X1382Y1536D01*
X936Y1536D01*
G37*
D02*
G36*
X1164Y1406D02*
X1164Y1352D01*
X1184Y1352D01*
X1184Y1356D01*
X1186Y1356D01*
X1186Y1358D01*
X1188Y1358D01*
X1188Y1360D01*
X1190Y1360D01*
X1190Y1364D01*
X1192Y1364D01*
X1192Y1366D01*
X1196Y1366D01*
X1196Y1368D01*
X1198Y1368D01*
X1198Y1370D01*
X1200Y1370D01*
X1200Y1390D01*
X1198Y1390D01*
X1198Y1392D01*
X1196Y1392D01*
X1196Y1394D01*
X1192Y1394D01*
X1192Y1396D01*
X1190Y1396D01*
X1190Y1398D01*
X1188Y1398D01*
X1188Y1402D01*
X1186Y1402D01*
X1186Y1404D01*
X1184Y1404D01*
X1184Y1406D01*
X1164Y1406D01*
G37*
D02*
G36*
X1264Y1406D02*
X1264Y1404D01*
X1262Y1404D01*
X1262Y1402D01*
X1260Y1402D01*
X1260Y1400D01*
X1258Y1400D01*
X1258Y1396D01*
X1254Y1396D01*
X1254Y1394D01*
X1252Y1394D01*
X1252Y1392D01*
X1250Y1392D01*
X1250Y1390D01*
X1248Y1390D01*
X1248Y1370D01*
X1250Y1370D01*
X1250Y1368D01*
X1252Y1368D01*
X1252Y1366D01*
X1254Y1366D01*
X1254Y1364D01*
X1258Y1364D01*
X1258Y1360D01*
X1260Y1360D01*
X1260Y1358D01*
X1262Y1358D01*
X1262Y1356D01*
X1264Y1356D01*
X1264Y1352D01*
X1284Y1352D01*
X1284Y1356D01*
X1286Y1356D01*
X1286Y1358D01*
X1288Y1358D01*
X1288Y1360D01*
X1290Y1360D01*
X1290Y1362D01*
X1292Y1362D01*
X1292Y1364D01*
X1294Y1364D01*
X1294Y1366D01*
X1296Y1366D01*
X1296Y1368D01*
X1300Y1368D01*
X1300Y1390D01*
X1298Y1390D01*
X1298Y1392D01*
X1296Y1392D01*
X1296Y1394D01*
X1292Y1394D01*
X1292Y1396D01*
X1290Y1396D01*
X1290Y1398D01*
X1288Y1398D01*
X1288Y1402D01*
X1286Y1402D01*
X1286Y1404D01*
X1284Y1404D01*
X1284Y1406D01*
X1264Y1406D01*
G37*
D02*
G36*
X1164Y1308D02*
X1164Y1252D01*
X1184Y1252D01*
X1184Y1254D01*
X1186Y1254D01*
X1186Y1258D01*
X1188Y1258D01*
X1188Y1260D01*
X1190Y1260D01*
X1190Y1262D01*
X1192Y1262D01*
X1192Y1264D01*
X1194Y1264D01*
X1194Y1266D01*
X1196Y1266D01*
X1196Y1268D01*
X1200Y1268D01*
X1200Y1270D01*
X1202Y1270D01*
X1202Y1290D01*
X1200Y1290D01*
X1200Y1292D01*
X1196Y1292D01*
X1196Y1294D01*
X1194Y1294D01*
X1194Y1296D01*
X1192Y1296D01*
X1192Y1298D01*
X1190Y1298D01*
X1190Y1300D01*
X1188Y1300D01*
X1188Y1302D01*
X1186Y1302D01*
X1186Y1304D01*
X1184Y1304D01*
X1184Y1308D01*
X1164Y1308D01*
G37*
D02*
G36*
X1262Y1306D02*
X1262Y1302D01*
X1260Y1302D01*
X1260Y1300D01*
X1258Y1300D01*
X1258Y1298D01*
X1256Y1298D01*
X1256Y1296D01*
X1254Y1296D01*
X1254Y1294D01*
X1252Y1294D01*
X1252Y1292D01*
X1248Y1292D01*
X1248Y1290D01*
X1246Y1290D01*
X1246Y1270D01*
X1248Y1270D01*
X1248Y1268D01*
X1252Y1268D01*
X1252Y1266D01*
X1254Y1266D01*
X1254Y1264D01*
X1256Y1264D01*
X1256Y1262D01*
X1258Y1262D01*
X1258Y1260D01*
X1260Y1260D01*
X1260Y1258D01*
X1262Y1258D01*
X1262Y1254D01*
X1264Y1254D01*
X1264Y1252D01*
X1284Y1252D01*
X1284Y1256D01*
X1286Y1256D01*
X1286Y1258D01*
X1288Y1258D01*
X1288Y1260D01*
X1290Y1260D01*
X1290Y1262D01*
X1292Y1262D01*
X1292Y1264D01*
X1294Y1264D01*
X1294Y1266D01*
X1296Y1266D01*
X1296Y1268D01*
X1300Y1268D01*
X1300Y1290D01*
X1298Y1290D01*
X1298Y1292D01*
X1296Y1292D01*
X1296Y1294D01*
X1292Y1294D01*
X1292Y1296D01*
X1290Y1296D01*
X1290Y1298D01*
X1288Y1298D01*
X1288Y1302D01*
X1286Y1302D01*
X1286Y1304D01*
X1284Y1304D01*
X1284Y1306D01*
X1262Y1306D01*
G37*
D02*
G36*
X138Y1266D02*
X138Y1204D01*
X204Y1204D01*
X204Y1202D01*
X212Y1202D01*
X212Y1200D01*
X218Y1200D01*
X218Y1198D01*
X220Y1198D01*
X220Y1196D01*
X224Y1196D01*
X224Y1194D01*
X226Y1194D01*
X226Y1192D01*
X228Y1192D01*
X228Y1190D01*
X232Y1190D01*
X232Y1188D01*
X234Y1188D01*
X234Y1186D01*
X236Y1186D01*
X236Y1182D01*
X238Y1182D01*
X238Y1180D01*
X240Y1180D01*
X240Y1176D01*
X242Y1176D01*
X242Y1174D01*
X262Y1174D01*
X262Y1266D01*
X138Y1266D01*
G37*
D02*
G36*
X138Y1204D02*
X138Y1178D01*
X158Y1178D01*
X158Y1180D01*
X160Y1180D01*
X160Y1184D01*
X162Y1184D01*
X162Y1186D01*
X164Y1186D01*
X164Y1188D01*
X166Y1188D01*
X166Y1190D01*
X168Y1190D01*
X168Y1192D01*
X172Y1192D01*
X172Y1194D01*
X174Y1194D01*
X174Y1196D01*
X178Y1196D01*
X178Y1198D01*
X180Y1198D01*
X180Y1200D01*
X186Y1200D01*
X186Y1202D01*
X194Y1202D01*
X194Y1204D01*
X138Y1204D01*
G37*
D02*
G36*
X390Y1240D02*
X390Y1216D01*
X392Y1216D01*
X392Y1208D01*
X412Y1208D01*
X412Y1212D01*
X414Y1212D01*
X414Y1214D01*
X418Y1214D01*
X418Y1216D01*
X446Y1216D01*
X446Y1218D01*
X480Y1218D01*
X480Y1240D01*
X390Y1240D01*
G37*
D02*
G36*
X868Y1240D02*
X868Y1216D01*
X870Y1216D01*
X870Y1194D01*
X868Y1194D01*
X868Y1188D01*
X866Y1188D01*
X866Y1184D01*
X864Y1184D01*
X864Y1180D01*
X862Y1180D01*
X862Y1178D01*
X860Y1178D01*
X860Y1176D01*
X858Y1176D01*
X858Y1174D01*
X856Y1174D01*
X856Y1172D01*
X854Y1172D01*
X854Y1170D01*
X852Y1170D01*
X852Y1168D01*
X850Y1168D01*
X850Y1166D01*
X848Y1166D01*
X848Y1164D01*
X844Y1164D01*
X844Y1162D01*
X840Y1162D01*
X840Y1142D01*
X930Y1142D01*
X930Y1162D01*
X926Y1162D01*
X926Y1164D01*
X922Y1164D01*
X922Y1166D01*
X920Y1166D01*
X920Y1168D01*
X918Y1168D01*
X918Y1170D01*
X914Y1170D01*
X914Y1172D01*
X912Y1172D01*
X912Y1176D01*
X910Y1176D01*
X910Y1178D01*
X908Y1178D01*
X908Y1180D01*
X906Y1180D01*
X906Y1184D01*
X904Y1184D01*
X904Y1188D01*
X902Y1188D01*
X902Y1192D01*
X900Y1192D01*
X900Y1202D01*
X898Y1202D01*
X898Y1206D01*
X900Y1206D01*
X900Y1216D01*
X902Y1216D01*
X902Y1240D01*
X868Y1240D01*
G37*
D02*
G36*
X990Y1240D02*
X990Y1216D01*
X992Y1216D01*
X992Y1194D01*
X990Y1194D01*
X990Y1188D01*
X988Y1188D01*
X988Y1184D01*
X986Y1184D01*
X986Y1180D01*
X984Y1180D01*
X984Y1178D01*
X982Y1178D01*
X982Y1176D01*
X980Y1176D01*
X980Y1174D01*
X978Y1174D01*
X978Y1172D01*
X976Y1172D01*
X976Y1170D01*
X974Y1170D01*
X974Y1168D01*
X972Y1168D01*
X972Y1166D01*
X970Y1166D01*
X970Y1164D01*
X966Y1164D01*
X966Y1162D01*
X962Y1162D01*
X962Y1142D01*
X1054Y1142D01*
X1054Y1144D01*
X1104Y1144D01*
X1104Y1164D01*
X1100Y1164D01*
X1100Y1166D01*
X1098Y1166D01*
X1098Y1168D01*
X1096Y1168D01*
X1096Y1170D01*
X1092Y1170D01*
X1092Y1172D01*
X1090Y1172D01*
X1090Y1176D01*
X1088Y1176D01*
X1088Y1178D01*
X1086Y1178D01*
X1086Y1180D01*
X1084Y1180D01*
X1084Y1184D01*
X1082Y1184D01*
X1082Y1188D01*
X1080Y1188D01*
X1080Y1192D01*
X1078Y1192D01*
X1078Y1202D01*
X1076Y1202D01*
X1076Y1206D01*
X1078Y1206D01*
X1078Y1216D01*
X1080Y1216D01*
X1080Y1240D01*
X990Y1240D01*
G37*
D02*
G36*
X1264Y1206D02*
X1264Y1204D01*
X1262Y1204D01*
X1262Y1202D01*
X1260Y1202D01*
X1260Y1200D01*
X1258Y1200D01*
X1258Y1196D01*
X1256Y1196D01*
X1256Y1194D01*
X1252Y1194D01*
X1252Y1192D01*
X1250Y1192D01*
X1250Y1190D01*
X1248Y1190D01*
X1248Y1168D01*
X1252Y1168D01*
X1252Y1166D01*
X1254Y1166D01*
X1254Y1164D01*
X1256Y1164D01*
X1256Y1162D01*
X1258Y1162D01*
X1258Y1160D01*
X1260Y1160D01*
X1260Y1158D01*
X1262Y1158D01*
X1262Y1154D01*
X1264Y1154D01*
X1264Y1152D01*
X1284Y1152D01*
X1284Y1156D01*
X1286Y1156D01*
X1286Y1158D01*
X1288Y1158D01*
X1288Y1160D01*
X1290Y1160D01*
X1290Y1162D01*
X1292Y1162D01*
X1292Y1164D01*
X1294Y1164D01*
X1294Y1166D01*
X1296Y1166D01*
X1296Y1168D01*
X1300Y1168D01*
X1300Y1190D01*
X1298Y1190D01*
X1298Y1192D01*
X1296Y1192D01*
X1296Y1194D01*
X1292Y1194D01*
X1292Y1196D01*
X1290Y1196D01*
X1290Y1198D01*
X1288Y1198D01*
X1288Y1202D01*
X1286Y1202D01*
X1286Y1204D01*
X1284Y1204D01*
X1284Y1206D01*
X1264Y1206D01*
G37*
D02*
G36*
X1170Y1198D02*
X1170Y1194D01*
X1168Y1194D01*
X1168Y1188D01*
X1166Y1188D01*
X1166Y1184D01*
X1164Y1184D01*
X1164Y1180D01*
X1162Y1180D01*
X1162Y1178D01*
X1160Y1178D01*
X1160Y1176D01*
X1158Y1176D01*
X1158Y1174D01*
X1156Y1174D01*
X1156Y1172D01*
X1154Y1172D01*
X1154Y1170D01*
X1152Y1170D01*
X1152Y1168D01*
X1150Y1168D01*
X1150Y1166D01*
X1148Y1166D01*
X1148Y1164D01*
X1144Y1164D01*
X1144Y1144D01*
X1180Y1144D01*
X1180Y1148D01*
X1182Y1148D01*
X1182Y1152D01*
X1184Y1152D01*
X1184Y1154D01*
X1186Y1154D01*
X1186Y1158D01*
X1188Y1158D01*
X1188Y1160D01*
X1190Y1160D01*
X1190Y1162D01*
X1192Y1162D01*
X1192Y1164D01*
X1194Y1164D01*
X1194Y1166D01*
X1196Y1166D01*
X1196Y1168D01*
X1200Y1168D01*
X1200Y1190D01*
X1198Y1190D01*
X1198Y1192D01*
X1196Y1192D01*
X1196Y1194D01*
X1192Y1194D01*
X1192Y1196D01*
X1190Y1196D01*
X1190Y1198D01*
X1170Y1198D01*
G37*
D02*
G36*
X568Y1240D02*
X568Y1216D01*
X570Y1216D01*
X570Y1194D01*
X568Y1194D01*
X568Y1188D01*
X566Y1188D01*
X566Y1184D01*
X564Y1184D01*
X564Y1180D01*
X562Y1180D01*
X562Y1178D01*
X560Y1178D01*
X560Y1176D01*
X558Y1176D01*
X558Y1174D01*
X556Y1174D01*
X556Y1172D01*
X554Y1172D01*
X554Y1170D01*
X552Y1170D01*
X552Y1168D01*
X550Y1168D01*
X550Y1166D01*
X548Y1166D01*
X548Y1164D01*
X544Y1164D01*
X544Y1162D01*
X540Y1162D01*
X540Y1160D01*
X534Y1160D01*
X534Y1158D01*
X636Y1158D01*
X636Y1160D01*
X630Y1160D01*
X630Y1162D01*
X626Y1162D01*
X626Y1164D01*
X622Y1164D01*
X622Y1166D01*
X620Y1166D01*
X620Y1168D01*
X618Y1168D01*
X618Y1170D01*
X614Y1170D01*
X614Y1172D01*
X612Y1172D01*
X612Y1176D01*
X610Y1176D01*
X610Y1178D01*
X608Y1178D01*
X608Y1180D01*
X606Y1180D01*
X606Y1184D01*
X604Y1184D01*
X604Y1188D01*
X602Y1188D01*
X602Y1192D01*
X600Y1192D01*
X600Y1202D01*
X598Y1202D01*
X598Y1206D01*
X600Y1206D01*
X600Y1216D01*
X602Y1216D01*
X602Y1240D01*
X568Y1240D01*
G37*
D02*
G36*
X690Y1240D02*
X690Y1216D01*
X692Y1216D01*
X692Y1194D01*
X690Y1194D01*
X690Y1188D01*
X688Y1188D01*
X688Y1184D01*
X686Y1184D01*
X686Y1180D01*
X684Y1180D01*
X684Y1178D01*
X682Y1178D01*
X682Y1176D01*
X680Y1176D01*
X680Y1174D01*
X678Y1174D01*
X678Y1172D01*
X676Y1172D01*
X676Y1170D01*
X674Y1170D01*
X674Y1168D01*
X672Y1168D01*
X672Y1166D01*
X670Y1166D01*
X670Y1164D01*
X666Y1164D01*
X666Y1162D01*
X662Y1162D01*
X662Y1160D01*
X656Y1160D01*
X656Y1158D01*
X810Y1158D01*
X810Y1160D01*
X808Y1160D01*
X808Y1162D01*
X804Y1162D01*
X804Y1164D01*
X800Y1164D01*
X800Y1166D01*
X798Y1166D01*
X798Y1168D01*
X796Y1168D01*
X796Y1170D01*
X792Y1170D01*
X792Y1172D01*
X790Y1172D01*
X790Y1176D01*
X788Y1176D01*
X788Y1178D01*
X786Y1178D01*
X786Y1180D01*
X784Y1180D01*
X784Y1184D01*
X782Y1184D01*
X782Y1188D01*
X780Y1188D01*
X780Y1192D01*
X778Y1192D01*
X778Y1202D01*
X776Y1202D01*
X776Y1206D01*
X778Y1206D01*
X778Y1216D01*
X780Y1216D01*
X780Y1240D01*
X690Y1240D01*
G37*
D02*
G36*
X448Y1190D02*
X448Y1188D01*
X438Y1188D01*
X438Y1158D01*
X514Y1158D01*
X514Y1160D01*
X508Y1160D01*
X508Y1162D01*
X504Y1162D01*
X504Y1164D01*
X500Y1164D01*
X500Y1166D01*
X498Y1166D01*
X498Y1168D01*
X496Y1168D01*
X496Y1170D01*
X492Y1170D01*
X492Y1172D01*
X490Y1172D01*
X490Y1176D01*
X488Y1176D01*
X488Y1178D01*
X486Y1178D01*
X486Y1180D01*
X484Y1180D01*
X484Y1184D01*
X482Y1184D01*
X482Y1188D01*
X480Y1188D01*
X480Y1190D01*
X448Y1190D01*
G37*
D02*
G36*
X438Y1158D02*
X438Y1156D01*
X810Y1156D01*
X810Y1158D01*
X438Y1158D01*
G37*
D02*
G36*
X438Y1158D02*
X438Y1156D01*
X810Y1156D01*
X810Y1158D01*
X438Y1158D01*
G37*
D02*
G36*
X438Y1158D02*
X438Y1156D01*
X810Y1156D01*
X810Y1158D01*
X438Y1158D01*
G37*
D02*
G36*
X438Y1156D02*
X438Y1114D01*
X820Y1114D01*
X820Y1116D01*
X816Y1116D01*
X816Y1118D01*
X814Y1118D01*
X814Y1120D01*
X812Y1120D01*
X812Y1124D01*
X810Y1124D01*
X810Y1156D01*
X438Y1156D01*
G37*
D02*
G36*
X1060Y1116D02*
X1060Y1114D01*
X1180Y1114D01*
X1180Y1116D01*
X1060Y1116D01*
G37*
D02*
G36*
X438Y1114D02*
X438Y1112D01*
X1180Y1112D01*
X1180Y1114D01*
X438Y1114D01*
G37*
D02*
G36*
X438Y1114D02*
X438Y1112D01*
X1180Y1112D01*
X1180Y1114D01*
X438Y1114D01*
G37*
D02*
G36*
X438Y1112D02*
X438Y996D01*
X1128Y996D01*
X1128Y994D01*
X1136Y994D01*
X1136Y992D01*
X1142Y992D01*
X1142Y990D01*
X1146Y990D01*
X1146Y988D01*
X1148Y988D01*
X1148Y986D01*
X1152Y986D01*
X1152Y984D01*
X1154Y984D01*
X1154Y982D01*
X1156Y982D01*
X1156Y980D01*
X1158Y980D01*
X1158Y978D01*
X1160Y978D01*
X1160Y974D01*
X1162Y974D01*
X1162Y972D01*
X1164Y972D01*
X1164Y968D01*
X1166Y968D01*
X1166Y966D01*
X1168Y966D01*
X1168Y960D01*
X1190Y960D01*
X1190Y962D01*
X1192Y962D01*
X1192Y964D01*
X1194Y964D01*
X1194Y966D01*
X1196Y966D01*
X1196Y968D01*
X1200Y968D01*
X1200Y990D01*
X1198Y990D01*
X1198Y992D01*
X1196Y992D01*
X1196Y994D01*
X1192Y994D01*
X1192Y996D01*
X1190Y996D01*
X1190Y998D01*
X1188Y998D01*
X1188Y1002D01*
X1186Y1002D01*
X1186Y1004D01*
X1184Y1004D01*
X1184Y1008D01*
X1182Y1008D01*
X1182Y1010D01*
X1180Y1010D01*
X1180Y1016D01*
X1178Y1016D01*
X1178Y1022D01*
X1176Y1022D01*
X1176Y1038D01*
X1178Y1038D01*
X1178Y1044D01*
X1180Y1044D01*
X1180Y1048D01*
X1182Y1048D01*
X1182Y1052D01*
X1184Y1052D01*
X1184Y1054D01*
X1186Y1054D01*
X1186Y1058D01*
X1188Y1058D01*
X1188Y1060D01*
X1190Y1060D01*
X1190Y1062D01*
X1192Y1062D01*
X1192Y1064D01*
X1194Y1064D01*
X1194Y1066D01*
X1196Y1066D01*
X1196Y1068D01*
X1200Y1068D01*
X1200Y1090D01*
X1198Y1090D01*
X1198Y1092D01*
X1196Y1092D01*
X1196Y1094D01*
X1192Y1094D01*
X1192Y1096D01*
X1190Y1096D01*
X1190Y1098D01*
X1188Y1098D01*
X1188Y1102D01*
X1186Y1102D01*
X1186Y1104D01*
X1184Y1104D01*
X1184Y1108D01*
X1182Y1108D01*
X1182Y1110D01*
X1180Y1110D01*
X1180Y1112D01*
X438Y1112D01*
G37*
D02*
G36*
X438Y996D02*
X438Y894D01*
X496Y894D01*
X496Y914D01*
X492Y914D01*
X492Y916D01*
X490Y916D01*
X490Y920D01*
X488Y920D01*
X488Y922D01*
X486Y922D01*
X486Y924D01*
X484Y924D01*
X484Y928D01*
X482Y928D01*
X482Y932D01*
X480Y932D01*
X480Y936D01*
X478Y936D01*
X478Y946D01*
X476Y946D01*
X476Y950D01*
X478Y950D01*
X478Y960D01*
X480Y960D01*
X480Y966D01*
X482Y966D01*
X482Y970D01*
X484Y970D01*
X484Y972D01*
X486Y972D01*
X486Y976D01*
X488Y976D01*
X488Y978D01*
X490Y978D01*
X490Y980D01*
X492Y980D01*
X492Y982D01*
X494Y982D01*
X494Y984D01*
X496Y984D01*
X496Y986D01*
X500Y986D01*
X500Y988D01*
X502Y988D01*
X502Y990D01*
X506Y990D01*
X506Y992D01*
X512Y992D01*
X512Y994D01*
X518Y994D01*
X518Y996D01*
X438Y996D01*
G37*
D02*
G36*
X528Y996D02*
X528Y994D01*
X536Y994D01*
X536Y992D01*
X542Y992D01*
X542Y990D01*
X546Y990D01*
X546Y988D01*
X548Y988D01*
X548Y986D01*
X552Y986D01*
X552Y984D01*
X554Y984D01*
X554Y982D01*
X556Y982D01*
X556Y980D01*
X558Y980D01*
X558Y978D01*
X560Y978D01*
X560Y974D01*
X562Y974D01*
X562Y972D01*
X564Y972D01*
X564Y968D01*
X566Y968D01*
X566Y966D01*
X568Y966D01*
X568Y960D01*
X570Y960D01*
X570Y938D01*
X568Y938D01*
X568Y932D01*
X566Y932D01*
X566Y928D01*
X564Y928D01*
X564Y924D01*
X562Y924D01*
X562Y922D01*
X560Y922D01*
X560Y920D01*
X558Y920D01*
X558Y918D01*
X556Y918D01*
X556Y916D01*
X554Y916D01*
X554Y914D01*
X552Y914D01*
X552Y894D01*
X618Y894D01*
X618Y914D01*
X614Y914D01*
X614Y916D01*
X612Y916D01*
X612Y920D01*
X610Y920D01*
X610Y922D01*
X608Y922D01*
X608Y924D01*
X606Y924D01*
X606Y928D01*
X604Y928D01*
X604Y932D01*
X602Y932D01*
X602Y936D01*
X600Y936D01*
X600Y946D01*
X598Y946D01*
X598Y950D01*
X600Y950D01*
X600Y960D01*
X602Y960D01*
X602Y966D01*
X604Y966D01*
X604Y970D01*
X606Y970D01*
X606Y972D01*
X608Y972D01*
X608Y976D01*
X610Y976D01*
X610Y978D01*
X612Y978D01*
X612Y980D01*
X614Y980D01*
X614Y982D01*
X616Y982D01*
X616Y984D01*
X618Y984D01*
X618Y986D01*
X622Y986D01*
X622Y988D01*
X624Y988D01*
X624Y990D01*
X628Y990D01*
X628Y992D01*
X634Y992D01*
X634Y994D01*
X640Y994D01*
X640Y996D01*
X528Y996D01*
G37*
D02*
G36*
X650Y996D02*
X650Y994D01*
X658Y994D01*
X658Y992D01*
X664Y992D01*
X664Y990D01*
X668Y990D01*
X668Y988D01*
X670Y988D01*
X670Y986D01*
X674Y986D01*
X674Y984D01*
X676Y984D01*
X676Y982D01*
X678Y982D01*
X678Y980D01*
X680Y980D01*
X680Y978D01*
X682Y978D01*
X682Y974D01*
X684Y974D01*
X684Y972D01*
X686Y972D01*
X686Y968D01*
X688Y968D01*
X688Y966D01*
X690Y966D01*
X690Y960D01*
X692Y960D01*
X692Y938D01*
X690Y938D01*
X690Y932D01*
X688Y932D01*
X688Y928D01*
X686Y928D01*
X686Y924D01*
X684Y924D01*
X684Y922D01*
X682Y922D01*
X682Y920D01*
X680Y920D01*
X680Y918D01*
X678Y918D01*
X678Y916D01*
X676Y916D01*
X676Y914D01*
X674Y914D01*
X674Y894D01*
X796Y894D01*
X796Y914D01*
X792Y914D01*
X792Y916D01*
X790Y916D01*
X790Y920D01*
X788Y920D01*
X788Y922D01*
X786Y922D01*
X786Y924D01*
X784Y924D01*
X784Y928D01*
X782Y928D01*
X782Y932D01*
X780Y932D01*
X780Y936D01*
X778Y936D01*
X778Y946D01*
X776Y946D01*
X776Y950D01*
X778Y950D01*
X778Y960D01*
X780Y960D01*
X780Y966D01*
X782Y966D01*
X782Y970D01*
X784Y970D01*
X784Y972D01*
X786Y972D01*
X786Y976D01*
X788Y976D01*
X788Y978D01*
X790Y978D01*
X790Y980D01*
X792Y980D01*
X792Y982D01*
X794Y982D01*
X794Y984D01*
X796Y984D01*
X796Y986D01*
X800Y986D01*
X800Y988D01*
X802Y988D01*
X802Y990D01*
X806Y990D01*
X806Y992D01*
X812Y992D01*
X812Y994D01*
X818Y994D01*
X818Y996D01*
X650Y996D01*
G37*
D02*
G36*
X828Y996D02*
X828Y994D01*
X836Y994D01*
X836Y992D01*
X842Y992D01*
X842Y990D01*
X846Y990D01*
X846Y988D01*
X848Y988D01*
X848Y986D01*
X852Y986D01*
X852Y984D01*
X854Y984D01*
X854Y982D01*
X856Y982D01*
X856Y980D01*
X858Y980D01*
X858Y978D01*
X860Y978D01*
X860Y974D01*
X862Y974D01*
X862Y972D01*
X864Y972D01*
X864Y968D01*
X866Y968D01*
X866Y966D01*
X868Y966D01*
X868Y960D01*
X870Y960D01*
X870Y938D01*
X868Y938D01*
X868Y932D01*
X866Y932D01*
X866Y928D01*
X864Y928D01*
X864Y924D01*
X862Y924D01*
X862Y922D01*
X860Y922D01*
X860Y920D01*
X858Y920D01*
X858Y918D01*
X856Y918D01*
X856Y916D01*
X854Y916D01*
X854Y914D01*
X852Y914D01*
X852Y894D01*
X918Y894D01*
X918Y914D01*
X914Y914D01*
X914Y916D01*
X912Y916D01*
X912Y920D01*
X910Y920D01*
X910Y922D01*
X908Y922D01*
X908Y924D01*
X906Y924D01*
X906Y928D01*
X904Y928D01*
X904Y932D01*
X902Y932D01*
X902Y936D01*
X900Y936D01*
X900Y946D01*
X898Y946D01*
X898Y950D01*
X900Y950D01*
X900Y960D01*
X902Y960D01*
X902Y966D01*
X904Y966D01*
X904Y970D01*
X906Y970D01*
X906Y972D01*
X908Y972D01*
X908Y976D01*
X910Y976D01*
X910Y978D01*
X912Y978D01*
X912Y980D01*
X914Y980D01*
X914Y982D01*
X916Y982D01*
X916Y984D01*
X918Y984D01*
X918Y986D01*
X922Y986D01*
X922Y988D01*
X924Y988D01*
X924Y990D01*
X928Y990D01*
X928Y992D01*
X934Y992D01*
X934Y994D01*
X940Y994D01*
X940Y996D01*
X828Y996D01*
G37*
D02*
G36*
X950Y996D02*
X950Y994D01*
X958Y994D01*
X958Y992D01*
X964Y992D01*
X964Y990D01*
X968Y990D01*
X968Y988D01*
X970Y988D01*
X970Y986D01*
X974Y986D01*
X974Y984D01*
X976Y984D01*
X976Y982D01*
X978Y982D01*
X978Y980D01*
X980Y980D01*
X980Y978D01*
X982Y978D01*
X982Y974D01*
X984Y974D01*
X984Y972D01*
X986Y972D01*
X986Y968D01*
X988Y968D01*
X988Y966D01*
X990Y966D01*
X990Y960D01*
X992Y960D01*
X992Y938D01*
X990Y938D01*
X990Y932D01*
X988Y932D01*
X988Y928D01*
X986Y928D01*
X986Y924D01*
X984Y924D01*
X984Y922D01*
X982Y922D01*
X982Y920D01*
X980Y920D01*
X980Y918D01*
X978Y918D01*
X978Y916D01*
X976Y916D01*
X976Y914D01*
X974Y914D01*
X974Y894D01*
X1096Y894D01*
X1096Y914D01*
X1092Y914D01*
X1092Y916D01*
X1090Y916D01*
X1090Y920D01*
X1088Y920D01*
X1088Y922D01*
X1086Y922D01*
X1086Y924D01*
X1084Y924D01*
X1084Y928D01*
X1082Y928D01*
X1082Y932D01*
X1080Y932D01*
X1080Y936D01*
X1078Y936D01*
X1078Y946D01*
X1076Y946D01*
X1076Y950D01*
X1078Y950D01*
X1078Y960D01*
X1080Y960D01*
X1080Y966D01*
X1082Y966D01*
X1082Y970D01*
X1084Y970D01*
X1084Y972D01*
X1086Y972D01*
X1086Y976D01*
X1088Y976D01*
X1088Y978D01*
X1090Y978D01*
X1090Y980D01*
X1092Y980D01*
X1092Y982D01*
X1094Y982D01*
X1094Y984D01*
X1096Y984D01*
X1096Y986D01*
X1100Y986D01*
X1100Y988D01*
X1102Y988D01*
X1102Y990D01*
X1106Y990D01*
X1106Y992D01*
X1112Y992D01*
X1112Y994D01*
X1118Y994D01*
X1118Y996D01*
X950Y996D01*
G37*
D02*
G36*
X390Y1194D02*
X390Y1188D01*
X388Y1188D01*
X388Y1184D01*
X386Y1184D01*
X386Y1180D01*
X384Y1180D01*
X384Y1178D01*
X382Y1178D01*
X382Y1176D01*
X380Y1176D01*
X380Y1174D01*
X378Y1174D01*
X378Y1172D01*
X376Y1172D01*
X376Y1170D01*
X374Y1170D01*
X374Y1168D01*
X372Y1168D01*
X372Y1166D01*
X370Y1166D01*
X370Y1164D01*
X366Y1164D01*
X366Y1162D01*
X362Y1162D01*
X362Y1160D01*
X356Y1160D01*
X356Y1158D01*
X410Y1158D01*
X410Y1194D01*
X390Y1194D01*
G37*
D02*
G36*
X290Y1178D02*
X290Y1158D01*
X336Y1158D01*
X336Y1160D01*
X330Y1160D01*
X330Y1162D01*
X326Y1162D01*
X326Y1164D01*
X322Y1164D01*
X322Y1166D01*
X320Y1166D01*
X320Y1168D01*
X318Y1168D01*
X318Y1170D01*
X314Y1170D01*
X314Y1172D01*
X312Y1172D01*
X312Y1176D01*
X310Y1176D01*
X310Y1178D01*
X290Y1178D01*
G37*
D02*
G36*
X290Y1158D02*
X290Y1156D01*
X410Y1156D01*
X410Y1158D01*
X290Y1158D01*
G37*
D02*
G36*
X290Y1158D02*
X290Y1156D01*
X410Y1156D01*
X410Y1158D01*
X290Y1158D01*
G37*
D02*
G36*
X290Y1156D02*
X290Y996D01*
X350Y996D01*
X350Y994D01*
X358Y994D01*
X358Y992D01*
X364Y992D01*
X364Y990D01*
X368Y990D01*
X368Y988D01*
X370Y988D01*
X370Y986D01*
X374Y986D01*
X374Y984D01*
X376Y984D01*
X376Y982D01*
X378Y982D01*
X378Y980D01*
X380Y980D01*
X380Y978D01*
X382Y978D01*
X382Y974D01*
X384Y974D01*
X384Y972D01*
X386Y972D01*
X386Y968D01*
X388Y968D01*
X388Y966D01*
X390Y966D01*
X390Y960D01*
X410Y960D01*
X410Y1156D01*
X290Y1156D01*
G37*
D02*
G36*
X290Y996D02*
X290Y976D01*
X310Y976D01*
X310Y978D01*
X312Y978D01*
X312Y980D01*
X314Y980D01*
X314Y982D01*
X316Y982D01*
X316Y984D01*
X318Y984D01*
X318Y986D01*
X322Y986D01*
X322Y988D01*
X324Y988D01*
X324Y990D01*
X328Y990D01*
X328Y992D01*
X334Y992D01*
X334Y994D01*
X340Y994D01*
X340Y996D01*
X290Y996D01*
G37*
D02*
G36*
X242Y1136D02*
X242Y1132D01*
X240Y1132D01*
X240Y1128D01*
X238Y1128D01*
X238Y1126D01*
X236Y1126D01*
X236Y1124D01*
X234Y1124D01*
X234Y1122D01*
X232Y1122D01*
X232Y1120D01*
X230Y1120D01*
X230Y1118D01*
X228Y1118D01*
X228Y1116D01*
X226Y1116D01*
X226Y1114D01*
X224Y1114D01*
X224Y1094D01*
X226Y1094D01*
X226Y1092D01*
X228Y1092D01*
X228Y1090D01*
X232Y1090D01*
X232Y1088D01*
X234Y1088D01*
X234Y1086D01*
X236Y1086D01*
X236Y1082D01*
X238Y1082D01*
X238Y1080D01*
X240Y1080D01*
X240Y1076D01*
X242Y1076D01*
X242Y1074D01*
X262Y1074D01*
X262Y1136D01*
X242Y1136D01*
G37*
D02*
G36*
X138Y1132D02*
X138Y1078D01*
X158Y1078D01*
X158Y1080D01*
X160Y1080D01*
X160Y1084D01*
X162Y1084D01*
X162Y1086D01*
X164Y1086D01*
X164Y1088D01*
X166Y1088D01*
X166Y1090D01*
X168Y1090D01*
X168Y1092D01*
X172Y1092D01*
X172Y1094D01*
X174Y1094D01*
X174Y1114D01*
X172Y1114D01*
X172Y1116D01*
X170Y1116D01*
X170Y1118D01*
X168Y1118D01*
X168Y1120D01*
X166Y1120D01*
X166Y1122D01*
X164Y1122D01*
X164Y1124D01*
X162Y1124D01*
X162Y1126D01*
X160Y1126D01*
X160Y1128D01*
X158Y1128D01*
X158Y1132D01*
X138Y1132D01*
G37*
D02*
G36*
X1264Y1106D02*
X1264Y1104D01*
X1262Y1104D01*
X1262Y1102D01*
X1260Y1102D01*
X1260Y1100D01*
X1258Y1100D01*
X1258Y1096D01*
X1256Y1096D01*
X1256Y1094D01*
X1252Y1094D01*
X1252Y1092D01*
X1250Y1092D01*
X1250Y1090D01*
X1248Y1090D01*
X1248Y1068D01*
X1252Y1068D01*
X1252Y1066D01*
X1254Y1066D01*
X1254Y1064D01*
X1256Y1064D01*
X1256Y1062D01*
X1258Y1062D01*
X1258Y1060D01*
X1260Y1060D01*
X1260Y1058D01*
X1262Y1058D01*
X1262Y1054D01*
X1264Y1054D01*
X1264Y1052D01*
X1284Y1052D01*
X1284Y1056D01*
X1286Y1056D01*
X1286Y1058D01*
X1288Y1058D01*
X1288Y1060D01*
X1290Y1060D01*
X1290Y1062D01*
X1292Y1062D01*
X1292Y1064D01*
X1294Y1064D01*
X1294Y1066D01*
X1296Y1066D01*
X1296Y1068D01*
X1300Y1068D01*
X1300Y1090D01*
X1298Y1090D01*
X1298Y1092D01*
X1296Y1092D01*
X1296Y1094D01*
X1292Y1094D01*
X1292Y1096D01*
X1290Y1096D01*
X1290Y1098D01*
X1288Y1098D01*
X1288Y1102D01*
X1286Y1102D01*
X1286Y1104D01*
X1284Y1104D01*
X1284Y1106D01*
X1264Y1106D01*
G37*
D02*
G36*
X1362Y1104D02*
X1362Y1102D01*
X1360Y1102D01*
X1360Y1100D01*
X1358Y1100D01*
X1358Y1096D01*
X1354Y1096D01*
X1354Y1094D01*
X1352Y1094D01*
X1352Y1092D01*
X1350Y1092D01*
X1350Y1090D01*
X1348Y1090D01*
X1348Y1068D01*
X1352Y1068D01*
X1352Y1066D01*
X1354Y1066D01*
X1354Y1064D01*
X1356Y1064D01*
X1356Y1062D01*
X1358Y1062D01*
X1358Y1060D01*
X1360Y1060D01*
X1360Y1058D01*
X1362Y1058D01*
X1362Y1054D01*
X1382Y1054D01*
X1382Y1104D01*
X1362Y1104D01*
G37*
D02*
G36*
X242Y1036D02*
X242Y1032D01*
X240Y1032D01*
X240Y1028D01*
X238Y1028D01*
X238Y1026D01*
X236Y1026D01*
X236Y1024D01*
X234Y1024D01*
X234Y1022D01*
X232Y1022D01*
X232Y1020D01*
X230Y1020D01*
X230Y1018D01*
X228Y1018D01*
X228Y1016D01*
X226Y1016D01*
X226Y1014D01*
X224Y1014D01*
X224Y994D01*
X226Y994D01*
X226Y992D01*
X228Y992D01*
X228Y990D01*
X232Y990D01*
X232Y988D01*
X234Y988D01*
X234Y986D01*
X236Y986D01*
X236Y982D01*
X238Y982D01*
X238Y980D01*
X240Y980D01*
X240Y976D01*
X242Y976D01*
X242Y974D01*
X262Y974D01*
X262Y1036D01*
X242Y1036D01*
G37*
D02*
G36*
X1264Y1006D02*
X1264Y1004D01*
X1262Y1004D01*
X1262Y1002D01*
X1260Y1002D01*
X1260Y1000D01*
X1258Y1000D01*
X1258Y996D01*
X1256Y996D01*
X1256Y994D01*
X1252Y994D01*
X1252Y992D01*
X1250Y992D01*
X1250Y990D01*
X1248Y990D01*
X1248Y968D01*
X1252Y968D01*
X1252Y966D01*
X1254Y966D01*
X1254Y964D01*
X1256Y964D01*
X1256Y962D01*
X1258Y962D01*
X1258Y960D01*
X1260Y960D01*
X1260Y958D01*
X1262Y958D01*
X1262Y954D01*
X1264Y954D01*
X1264Y952D01*
X1284Y952D01*
X1284Y956D01*
X1286Y956D01*
X1286Y958D01*
X1288Y958D01*
X1288Y960D01*
X1290Y960D01*
X1290Y962D01*
X1292Y962D01*
X1292Y964D01*
X1294Y964D01*
X1294Y966D01*
X1296Y966D01*
X1296Y968D01*
X1300Y968D01*
X1300Y990D01*
X1298Y990D01*
X1298Y992D01*
X1296Y992D01*
X1296Y994D01*
X1292Y994D01*
X1292Y996D01*
X1290Y996D01*
X1290Y998D01*
X1288Y998D01*
X1288Y1002D01*
X1286Y1002D01*
X1286Y1004D01*
X1284Y1004D01*
X1284Y1006D01*
X1264Y1006D01*
G37*
D02*
G36*
X1362Y1004D02*
X1362Y1002D01*
X1360Y1002D01*
X1360Y1000D01*
X1358Y1000D01*
X1358Y996D01*
X1354Y996D01*
X1354Y994D01*
X1352Y994D01*
X1352Y992D01*
X1350Y992D01*
X1350Y990D01*
X1348Y990D01*
X1348Y968D01*
X1352Y968D01*
X1352Y966D01*
X1354Y966D01*
X1354Y964D01*
X1356Y964D01*
X1356Y962D01*
X1358Y962D01*
X1358Y960D01*
X1360Y960D01*
X1360Y958D01*
X1362Y958D01*
X1362Y954D01*
X1382Y954D01*
X1382Y1004D01*
X1362Y1004D01*
G37*
D02*
G36*
X1264Y906D02*
X1264Y904D01*
X1262Y904D01*
X1262Y902D01*
X1260Y902D01*
X1260Y900D01*
X1258Y900D01*
X1258Y896D01*
X1256Y896D01*
X1256Y894D01*
X1252Y894D01*
X1252Y892D01*
X1250Y892D01*
X1250Y890D01*
X1248Y890D01*
X1248Y868D01*
X1252Y868D01*
X1252Y866D01*
X1254Y866D01*
X1254Y864D01*
X1256Y864D01*
X1256Y862D01*
X1258Y862D01*
X1258Y860D01*
X1260Y860D01*
X1260Y858D01*
X1262Y858D01*
X1262Y854D01*
X1264Y854D01*
X1264Y852D01*
X1284Y852D01*
X1284Y856D01*
X1286Y856D01*
X1286Y858D01*
X1288Y858D01*
X1288Y860D01*
X1290Y860D01*
X1290Y862D01*
X1292Y862D01*
X1292Y864D01*
X1294Y864D01*
X1294Y866D01*
X1296Y866D01*
X1296Y868D01*
X1300Y868D01*
X1300Y890D01*
X1298Y890D01*
X1298Y892D01*
X1296Y892D01*
X1296Y894D01*
X1292Y894D01*
X1292Y896D01*
X1290Y896D01*
X1290Y898D01*
X1288Y898D01*
X1288Y902D01*
X1286Y902D01*
X1286Y904D01*
X1284Y904D01*
X1284Y906D01*
X1264Y906D01*
G37*
D02*
G36*
X1362Y904D02*
X1362Y902D01*
X1360Y902D01*
X1360Y900D01*
X1358Y900D01*
X1358Y896D01*
X1356Y896D01*
X1356Y894D01*
X1352Y894D01*
X1352Y892D01*
X1350Y892D01*
X1350Y890D01*
X1348Y890D01*
X1348Y868D01*
X1352Y868D01*
X1352Y866D01*
X1354Y866D01*
X1354Y864D01*
X1356Y864D01*
X1356Y862D01*
X1358Y862D01*
X1358Y860D01*
X1360Y860D01*
X1360Y858D01*
X1362Y858D01*
X1362Y854D01*
X1382Y854D01*
X1382Y904D01*
X1362Y904D01*
G37*
D02*
G36*
X1146Y814D02*
X1146Y794D01*
X1148Y794D01*
X1148Y792D01*
X1152Y792D01*
X1152Y790D01*
X1154Y790D01*
X1154Y788D01*
X1156Y788D01*
X1156Y786D01*
X1158Y786D01*
X1158Y784D01*
X1160Y784D01*
X1160Y780D01*
X1162Y780D01*
X1162Y778D01*
X1164Y778D01*
X1164Y774D01*
X1166Y774D01*
X1166Y772D01*
X1168Y772D01*
X1168Y766D01*
X1170Y766D01*
X1170Y760D01*
X1190Y760D01*
X1190Y762D01*
X1192Y762D01*
X1192Y764D01*
X1194Y764D01*
X1194Y766D01*
X1196Y766D01*
X1196Y768D01*
X1200Y768D01*
X1200Y790D01*
X1198Y790D01*
X1198Y792D01*
X1196Y792D01*
X1196Y794D01*
X1192Y794D01*
X1192Y796D01*
X1190Y796D01*
X1190Y798D01*
X1188Y798D01*
X1188Y802D01*
X1186Y802D01*
X1186Y804D01*
X1184Y804D01*
X1184Y808D01*
X1182Y808D01*
X1182Y810D01*
X1180Y810D01*
X1180Y814D01*
X1146Y814D01*
G37*
D02*
G36*
X1264Y806D02*
X1264Y804D01*
X1262Y804D01*
X1262Y802D01*
X1260Y802D01*
X1260Y800D01*
X1258Y800D01*
X1258Y796D01*
X1256Y796D01*
X1256Y794D01*
X1252Y794D01*
X1252Y792D01*
X1250Y792D01*
X1250Y790D01*
X1248Y790D01*
X1248Y768D01*
X1252Y768D01*
X1252Y766D01*
X1254Y766D01*
X1254Y764D01*
X1256Y764D01*
X1256Y762D01*
X1258Y762D01*
X1258Y760D01*
X1260Y760D01*
X1260Y758D01*
X1262Y758D01*
X1262Y754D01*
X1264Y754D01*
X1264Y752D01*
X1284Y752D01*
X1284Y756D01*
X1286Y756D01*
X1286Y758D01*
X1288Y758D01*
X1288Y760D01*
X1290Y760D01*
X1290Y762D01*
X1292Y762D01*
X1292Y764D01*
X1294Y764D01*
X1294Y766D01*
X1296Y766D01*
X1296Y768D01*
X1300Y768D01*
X1300Y790D01*
X1298Y790D01*
X1298Y792D01*
X1296Y792D01*
X1296Y794D01*
X1292Y794D01*
X1292Y796D01*
X1290Y796D01*
X1290Y798D01*
X1288Y798D01*
X1288Y802D01*
X1286Y802D01*
X1286Y804D01*
X1284Y804D01*
X1284Y806D01*
X1264Y806D01*
G37*
D02*
G36*
X1362Y804D02*
X1362Y802D01*
X1360Y802D01*
X1360Y800D01*
X1358Y800D01*
X1358Y796D01*
X1356Y796D01*
X1356Y794D01*
X1352Y794D01*
X1352Y792D01*
X1350Y792D01*
X1350Y790D01*
X1348Y790D01*
X1348Y768D01*
X1352Y768D01*
X1352Y766D01*
X1354Y766D01*
X1354Y764D01*
X1356Y764D01*
X1356Y762D01*
X1358Y762D01*
X1358Y760D01*
X1360Y760D01*
X1360Y758D01*
X1362Y758D01*
X1362Y754D01*
X1382Y754D01*
X1382Y804D01*
X1362Y804D01*
G37*
D02*
G36*
X90Y744D02*
X90Y738D01*
X88Y738D01*
X88Y734D01*
X86Y734D01*
X86Y730D01*
X84Y730D01*
X84Y728D01*
X82Y728D01*
X82Y726D01*
X80Y726D01*
X80Y724D01*
X78Y724D01*
X78Y722D01*
X76Y722D01*
X76Y720D01*
X74Y720D01*
X74Y718D01*
X72Y718D01*
X72Y716D01*
X70Y716D01*
X70Y714D01*
X66Y714D01*
X66Y712D01*
X62Y712D01*
X62Y710D01*
X56Y710D01*
X56Y708D01*
X40Y708D01*
X40Y546D01*
X50Y546D01*
X50Y544D01*
X58Y544D01*
X58Y542D01*
X64Y542D01*
X64Y540D01*
X68Y540D01*
X68Y538D01*
X70Y538D01*
X70Y536D01*
X74Y536D01*
X74Y534D01*
X76Y534D01*
X76Y532D01*
X78Y532D01*
X78Y530D01*
X80Y530D01*
X80Y528D01*
X82Y528D01*
X82Y524D01*
X84Y524D01*
X84Y522D01*
X86Y522D01*
X86Y518D01*
X88Y518D01*
X88Y516D01*
X90Y516D01*
X90Y510D01*
X110Y510D01*
X110Y744D01*
X90Y744D01*
G37*
D02*
G36*
X40Y1736D02*
X40Y1656D01*
X722Y1656D01*
X722Y1658D01*
X712Y1658D01*
X712Y1660D01*
X706Y1660D01*
X706Y1662D01*
X704Y1662D01*
X704Y1664D01*
X700Y1664D01*
X700Y1666D01*
X698Y1666D01*
X698Y1668D01*
X694Y1668D01*
X694Y1670D01*
X692Y1670D01*
X692Y1672D01*
X690Y1672D01*
X690Y1674D01*
X688Y1674D01*
X688Y1676D01*
X686Y1676D01*
X686Y1680D01*
X684Y1680D01*
X684Y1682D01*
X682Y1682D01*
X682Y1686D01*
X680Y1686D01*
X680Y1692D01*
X678Y1692D01*
X678Y1698D01*
X676Y1698D01*
X676Y1710D01*
X678Y1710D01*
X678Y1736D01*
X40Y1736D01*
G37*
D02*
G36*
X768Y1736D02*
X768Y1716D01*
X770Y1716D01*
X770Y1710D01*
X772Y1710D01*
X772Y1700D01*
X770Y1700D01*
X770Y1692D01*
X768Y1692D01*
X768Y1686D01*
X766Y1686D01*
X766Y1684D01*
X764Y1684D01*
X764Y1680D01*
X762Y1680D01*
X762Y1678D01*
X760Y1678D01*
X760Y1674D01*
X758Y1674D01*
X758Y1672D01*
X756Y1672D01*
X756Y1670D01*
X754Y1670D01*
X754Y1668D01*
X750Y1668D01*
X750Y1666D01*
X748Y1666D01*
X748Y1664D01*
X744Y1664D01*
X744Y1662D01*
X742Y1662D01*
X742Y1660D01*
X736Y1660D01*
X736Y1658D01*
X726Y1658D01*
X726Y1656D01*
X908Y1656D01*
X908Y1660D01*
X906Y1660D01*
X906Y1662D01*
X904Y1662D01*
X904Y1664D01*
X900Y1664D01*
X900Y1666D01*
X898Y1666D01*
X898Y1668D01*
X894Y1668D01*
X894Y1670D01*
X892Y1670D01*
X892Y1672D01*
X890Y1672D01*
X890Y1674D01*
X888Y1674D01*
X888Y1676D01*
X886Y1676D01*
X886Y1680D01*
X884Y1680D01*
X884Y1682D01*
X882Y1682D01*
X882Y1686D01*
X880Y1686D01*
X880Y1692D01*
X878Y1692D01*
X878Y1698D01*
X876Y1698D01*
X876Y1710D01*
X878Y1710D01*
X878Y1736D01*
X768Y1736D01*
G37*
D02*
G36*
X40Y1656D02*
X40Y1654D01*
X908Y1654D01*
X908Y1656D01*
X40Y1656D01*
G37*
D02*
G36*
X40Y1656D02*
X40Y1654D01*
X908Y1654D01*
X908Y1656D01*
X40Y1656D01*
G37*
D02*
G36*
X40Y1654D02*
X40Y1568D01*
X500Y1568D01*
X500Y1566D01*
X510Y1566D01*
X510Y1564D01*
X514Y1564D01*
X514Y1562D01*
X518Y1562D01*
X518Y1560D01*
X520Y1560D01*
X520Y1558D01*
X522Y1558D01*
X522Y1556D01*
X526Y1556D01*
X526Y1552D01*
X528Y1552D01*
X528Y1550D01*
X530Y1550D01*
X530Y1548D01*
X532Y1548D01*
X532Y1544D01*
X534Y1544D01*
X534Y1538D01*
X536Y1538D01*
X536Y1520D01*
X534Y1520D01*
X534Y1516D01*
X532Y1516D01*
X532Y1512D01*
X530Y1512D01*
X530Y1508D01*
X528Y1508D01*
X528Y1506D01*
X526Y1506D01*
X526Y1504D01*
X524Y1504D01*
X524Y1502D01*
X522Y1502D01*
X522Y1500D01*
X520Y1500D01*
X520Y1498D01*
X516Y1498D01*
X516Y1496D01*
X512Y1496D01*
X512Y1494D01*
X508Y1494D01*
X508Y1492D01*
X914Y1492D01*
X914Y1494D01*
X912Y1494D01*
X912Y1496D01*
X910Y1496D01*
X910Y1498D01*
X908Y1498D01*
X908Y1654D01*
X40Y1654D01*
G37*
D02*
G36*
X40Y1568D02*
X40Y1492D01*
X234Y1492D01*
X234Y1494D01*
X230Y1494D01*
X230Y1496D01*
X226Y1496D01*
X226Y1498D01*
X222Y1498D01*
X222Y1500D01*
X220Y1500D01*
X220Y1502D01*
X218Y1502D01*
X218Y1504D01*
X216Y1504D01*
X216Y1506D01*
X214Y1506D01*
X214Y1508D01*
X212Y1508D01*
X212Y1512D01*
X210Y1512D01*
X210Y1514D01*
X208Y1514D01*
X208Y1520D01*
X206Y1520D01*
X206Y1538D01*
X208Y1538D01*
X208Y1544D01*
X210Y1544D01*
X210Y1548D01*
X212Y1548D01*
X212Y1550D01*
X214Y1550D01*
X214Y1552D01*
X216Y1552D01*
X216Y1556D01*
X220Y1556D01*
X220Y1558D01*
X222Y1558D01*
X222Y1560D01*
X224Y1560D01*
X224Y1562D01*
X228Y1562D01*
X228Y1564D01*
X232Y1564D01*
X232Y1566D01*
X242Y1566D01*
X242Y1568D01*
X40Y1568D01*
G37*
D02*
G36*
X244Y1568D02*
X244Y1566D01*
X254Y1566D01*
X254Y1564D01*
X258Y1564D01*
X258Y1562D01*
X262Y1562D01*
X262Y1560D01*
X264Y1560D01*
X264Y1558D01*
X266Y1558D01*
X266Y1556D01*
X270Y1556D01*
X270Y1552D01*
X272Y1552D01*
X272Y1550D01*
X274Y1550D01*
X274Y1548D01*
X276Y1548D01*
X276Y1544D01*
X278Y1544D01*
X278Y1538D01*
X280Y1538D01*
X280Y1520D01*
X278Y1520D01*
X278Y1514D01*
X276Y1514D01*
X276Y1512D01*
X274Y1512D01*
X274Y1508D01*
X272Y1508D01*
X272Y1506D01*
X270Y1506D01*
X270Y1504D01*
X268Y1504D01*
X268Y1502D01*
X266Y1502D01*
X266Y1500D01*
X264Y1500D01*
X264Y1498D01*
X260Y1498D01*
X260Y1496D01*
X256Y1496D01*
X256Y1494D01*
X252Y1494D01*
X252Y1492D01*
X490Y1492D01*
X490Y1494D01*
X486Y1494D01*
X486Y1496D01*
X482Y1496D01*
X482Y1498D01*
X478Y1498D01*
X478Y1500D01*
X476Y1500D01*
X476Y1502D01*
X474Y1502D01*
X474Y1504D01*
X472Y1504D01*
X472Y1506D01*
X470Y1506D01*
X470Y1508D01*
X468Y1508D01*
X468Y1512D01*
X466Y1512D01*
X466Y1514D01*
X464Y1514D01*
X464Y1520D01*
X462Y1520D01*
X462Y1540D01*
X464Y1540D01*
X464Y1544D01*
X466Y1544D01*
X466Y1548D01*
X468Y1548D01*
X468Y1550D01*
X470Y1550D01*
X470Y1552D01*
X472Y1552D01*
X472Y1556D01*
X474Y1556D01*
X474Y1558D01*
X478Y1558D01*
X478Y1560D01*
X480Y1560D01*
X480Y1562D01*
X484Y1562D01*
X484Y1564D01*
X488Y1564D01*
X488Y1566D01*
X498Y1566D01*
X498Y1568D01*
X244Y1568D01*
G37*
D02*
G36*
X40Y1492D02*
X40Y1490D01*
X918Y1490D01*
X918Y1492D01*
X40Y1492D01*
G37*
D02*
G36*
X40Y1492D02*
X40Y1490D01*
X918Y1490D01*
X918Y1492D01*
X40Y1492D01*
G37*
D02*
G36*
X40Y1492D02*
X40Y1490D01*
X918Y1490D01*
X918Y1492D01*
X40Y1492D01*
G37*
D02*
G36*
X40Y1490D02*
X40Y906D01*
X188Y906D01*
X188Y908D01*
X182Y908D01*
X182Y910D01*
X178Y910D01*
X178Y912D01*
X176Y912D01*
X176Y914D01*
X172Y914D01*
X172Y916D01*
X170Y916D01*
X170Y918D01*
X168Y918D01*
X168Y920D01*
X166Y920D01*
X166Y922D01*
X164Y922D01*
X164Y924D01*
X162Y924D01*
X162Y926D01*
X160Y926D01*
X160Y928D01*
X158Y928D01*
X158Y932D01*
X156Y932D01*
X156Y934D01*
X154Y934D01*
X154Y940D01*
X152Y940D01*
X152Y946D01*
X150Y946D01*
X150Y964D01*
X152Y964D01*
X152Y970D01*
X154Y970D01*
X154Y974D01*
X156Y974D01*
X156Y978D01*
X158Y978D01*
X158Y980D01*
X160Y980D01*
X160Y984D01*
X162Y984D01*
X162Y986D01*
X164Y986D01*
X164Y988D01*
X166Y988D01*
X166Y990D01*
X168Y990D01*
X168Y992D01*
X172Y992D01*
X172Y994D01*
X174Y994D01*
X174Y1014D01*
X172Y1014D01*
X172Y1016D01*
X170Y1016D01*
X170Y1018D01*
X168Y1018D01*
X168Y1020D01*
X166Y1020D01*
X166Y1022D01*
X164Y1022D01*
X164Y1024D01*
X162Y1024D01*
X162Y1026D01*
X160Y1026D01*
X160Y1028D01*
X158Y1028D01*
X158Y1032D01*
X156Y1032D01*
X156Y1034D01*
X154Y1034D01*
X154Y1040D01*
X120Y1040D01*
X120Y1042D01*
X116Y1042D01*
X116Y1044D01*
X114Y1044D01*
X114Y1046D01*
X112Y1046D01*
X112Y1050D01*
X110Y1050D01*
X110Y1286D01*
X112Y1286D01*
X112Y1288D01*
X114Y1288D01*
X114Y1290D01*
X116Y1290D01*
X116Y1292D01*
X118Y1292D01*
X118Y1294D01*
X1110Y1294D01*
X1110Y1490D01*
X40Y1490D01*
G37*
D02*
G36*
X280Y942D02*
X280Y940D01*
X244Y940D01*
X244Y936D01*
X242Y936D01*
X242Y932D01*
X240Y932D01*
X240Y928D01*
X238Y928D01*
X238Y926D01*
X236Y926D01*
X236Y924D01*
X234Y924D01*
X234Y922D01*
X232Y922D01*
X232Y920D01*
X230Y920D01*
X230Y918D01*
X228Y918D01*
X228Y916D01*
X226Y916D01*
X226Y914D01*
X222Y914D01*
X222Y912D01*
X220Y912D01*
X220Y910D01*
X214Y910D01*
X214Y908D01*
X210Y908D01*
X210Y906D01*
X326Y906D01*
X326Y908D01*
X322Y908D01*
X322Y910D01*
X320Y910D01*
X320Y912D01*
X318Y912D01*
X318Y914D01*
X314Y914D01*
X314Y916D01*
X312Y916D01*
X312Y920D01*
X310Y920D01*
X310Y922D01*
X308Y922D01*
X308Y924D01*
X306Y924D01*
X306Y928D01*
X304Y928D01*
X304Y932D01*
X302Y932D01*
X302Y936D01*
X300Y936D01*
X300Y942D01*
X280Y942D01*
G37*
D02*
G36*
X390Y938D02*
X390Y932D01*
X388Y932D01*
X388Y928D01*
X386Y928D01*
X386Y924D01*
X384Y924D01*
X384Y922D01*
X382Y922D01*
X382Y920D01*
X380Y920D01*
X380Y918D01*
X378Y918D01*
X378Y916D01*
X376Y916D01*
X376Y914D01*
X374Y914D01*
X374Y912D01*
X372Y912D01*
X372Y910D01*
X370Y910D01*
X370Y908D01*
X366Y908D01*
X366Y906D01*
X362Y906D01*
X362Y904D01*
X356Y904D01*
X356Y902D01*
X410Y902D01*
X410Y938D01*
X390Y938D01*
G37*
D02*
G36*
X40Y906D02*
X40Y904D01*
X330Y904D01*
X330Y906D01*
X40Y906D01*
G37*
D02*
G36*
X40Y906D02*
X40Y904D01*
X330Y904D01*
X330Y906D01*
X40Y906D01*
G37*
D02*
G36*
X40Y904D02*
X40Y902D01*
X336Y902D01*
X336Y904D01*
X40Y904D01*
G37*
D02*
G36*
X40Y902D02*
X40Y900D01*
X410Y900D01*
X410Y902D01*
X40Y902D01*
G37*
D02*
G36*
X40Y902D02*
X40Y900D01*
X410Y900D01*
X410Y902D01*
X40Y902D01*
G37*
D02*
G36*
X40Y900D02*
X40Y802D01*
X950Y802D01*
X950Y800D01*
X958Y800D01*
X958Y798D01*
X964Y798D01*
X964Y796D01*
X968Y796D01*
X968Y794D01*
X970Y794D01*
X970Y792D01*
X974Y792D01*
X974Y790D01*
X976Y790D01*
X976Y788D01*
X978Y788D01*
X978Y786D01*
X980Y786D01*
X980Y784D01*
X982Y784D01*
X982Y780D01*
X984Y780D01*
X984Y778D01*
X986Y778D01*
X986Y774D01*
X988Y774D01*
X988Y772D01*
X990Y772D01*
X990Y766D01*
X992Y766D01*
X992Y744D01*
X990Y744D01*
X990Y738D01*
X988Y738D01*
X988Y716D01*
X1082Y716D01*
X1082Y738D01*
X1080Y738D01*
X1080Y742D01*
X1078Y742D01*
X1078Y752D01*
X1076Y752D01*
X1076Y756D01*
X1078Y756D01*
X1078Y766D01*
X1080Y766D01*
X1080Y772D01*
X1082Y772D01*
X1082Y776D01*
X1084Y776D01*
X1084Y778D01*
X1086Y778D01*
X1086Y782D01*
X1088Y782D01*
X1088Y784D01*
X1090Y784D01*
X1090Y786D01*
X1092Y786D01*
X1092Y788D01*
X1094Y788D01*
X1094Y790D01*
X1096Y790D01*
X1096Y792D01*
X1100Y792D01*
X1100Y794D01*
X1102Y794D01*
X1102Y796D01*
X1106Y796D01*
X1106Y798D01*
X1110Y798D01*
X1110Y834D01*
X1112Y834D01*
X1112Y836D01*
X1114Y836D01*
X1114Y840D01*
X1118Y840D01*
X1118Y842D01*
X1178Y842D01*
X1178Y844D01*
X1180Y844D01*
X1180Y866D01*
X420Y866D01*
X420Y868D01*
X416Y868D01*
X416Y870D01*
X414Y870D01*
X414Y872D01*
X412Y872D01*
X412Y874D01*
X410Y874D01*
X410Y900D01*
X40Y900D01*
G37*
D02*
G36*
X50Y802D02*
X50Y800D01*
X58Y800D01*
X58Y798D01*
X64Y798D01*
X64Y796D01*
X68Y796D01*
X68Y794D01*
X70Y794D01*
X70Y792D01*
X74Y792D01*
X74Y790D01*
X76Y790D01*
X76Y788D01*
X78Y788D01*
X78Y786D01*
X80Y786D01*
X80Y784D01*
X82Y784D01*
X82Y780D01*
X84Y780D01*
X84Y778D01*
X86Y778D01*
X86Y774D01*
X88Y774D01*
X88Y772D01*
X90Y772D01*
X90Y766D01*
X92Y766D01*
X92Y760D01*
X112Y760D01*
X112Y762D01*
X114Y762D01*
X114Y766D01*
X118Y766D01*
X118Y768D01*
X180Y768D01*
X180Y772D01*
X182Y772D01*
X182Y776D01*
X184Y776D01*
X184Y778D01*
X186Y778D01*
X186Y782D01*
X188Y782D01*
X188Y784D01*
X190Y784D01*
X190Y786D01*
X192Y786D01*
X192Y788D01*
X194Y788D01*
X194Y790D01*
X196Y790D01*
X196Y792D01*
X200Y792D01*
X200Y794D01*
X202Y794D01*
X202Y796D01*
X206Y796D01*
X206Y798D01*
X212Y798D01*
X212Y800D01*
X218Y800D01*
X218Y802D01*
X50Y802D01*
G37*
D02*
G36*
X228Y802D02*
X228Y800D01*
X236Y800D01*
X236Y798D01*
X242Y798D01*
X242Y796D01*
X246Y796D01*
X246Y794D01*
X248Y794D01*
X248Y792D01*
X252Y792D01*
X252Y790D01*
X254Y790D01*
X254Y788D01*
X256Y788D01*
X256Y786D01*
X258Y786D01*
X258Y784D01*
X260Y784D01*
X260Y780D01*
X262Y780D01*
X262Y778D01*
X264Y778D01*
X264Y774D01*
X266Y774D01*
X266Y772D01*
X268Y772D01*
X268Y766D01*
X270Y766D01*
X270Y744D01*
X268Y744D01*
X268Y738D01*
X266Y738D01*
X266Y734D01*
X264Y734D01*
X264Y730D01*
X262Y730D01*
X262Y728D01*
X260Y728D01*
X260Y726D01*
X258Y726D01*
X258Y724D01*
X256Y724D01*
X256Y722D01*
X254Y722D01*
X254Y720D01*
X252Y720D01*
X252Y718D01*
X250Y718D01*
X250Y716D01*
X248Y716D01*
X248Y714D01*
X244Y714D01*
X244Y712D01*
X240Y712D01*
X240Y710D01*
X234Y710D01*
X234Y708D01*
X336Y708D01*
X336Y710D01*
X330Y710D01*
X330Y712D01*
X326Y712D01*
X326Y714D01*
X322Y714D01*
X322Y716D01*
X320Y716D01*
X320Y718D01*
X318Y718D01*
X318Y720D01*
X314Y720D01*
X314Y722D01*
X312Y722D01*
X312Y726D01*
X310Y726D01*
X310Y728D01*
X308Y728D01*
X308Y730D01*
X306Y730D01*
X306Y734D01*
X304Y734D01*
X304Y738D01*
X302Y738D01*
X302Y742D01*
X300Y742D01*
X300Y752D01*
X298Y752D01*
X298Y756D01*
X300Y756D01*
X300Y766D01*
X302Y766D01*
X302Y772D01*
X304Y772D01*
X304Y776D01*
X306Y776D01*
X306Y778D01*
X308Y778D01*
X308Y782D01*
X310Y782D01*
X310Y784D01*
X312Y784D01*
X312Y786D01*
X314Y786D01*
X314Y788D01*
X316Y788D01*
X316Y790D01*
X318Y790D01*
X318Y792D01*
X322Y792D01*
X322Y794D01*
X324Y794D01*
X324Y796D01*
X328Y796D01*
X328Y798D01*
X334Y798D01*
X334Y800D01*
X340Y800D01*
X340Y802D01*
X228Y802D01*
G37*
D02*
G36*
X350Y802D02*
X350Y800D01*
X358Y800D01*
X358Y798D01*
X364Y798D01*
X364Y796D01*
X368Y796D01*
X368Y794D01*
X370Y794D01*
X370Y792D01*
X374Y792D01*
X374Y790D01*
X376Y790D01*
X376Y788D01*
X378Y788D01*
X378Y786D01*
X380Y786D01*
X380Y784D01*
X382Y784D01*
X382Y780D01*
X384Y780D01*
X384Y778D01*
X386Y778D01*
X386Y774D01*
X388Y774D01*
X388Y772D01*
X390Y772D01*
X390Y766D01*
X392Y766D01*
X392Y744D01*
X390Y744D01*
X390Y738D01*
X388Y738D01*
X388Y734D01*
X386Y734D01*
X386Y730D01*
X384Y730D01*
X384Y728D01*
X382Y728D01*
X382Y726D01*
X380Y726D01*
X380Y724D01*
X378Y724D01*
X378Y722D01*
X376Y722D01*
X376Y720D01*
X374Y720D01*
X374Y718D01*
X372Y718D01*
X372Y716D01*
X370Y716D01*
X370Y714D01*
X366Y714D01*
X366Y712D01*
X362Y712D01*
X362Y710D01*
X356Y710D01*
X356Y708D01*
X510Y708D01*
X510Y710D01*
X508Y710D01*
X508Y712D01*
X504Y712D01*
X504Y714D01*
X500Y714D01*
X500Y716D01*
X498Y716D01*
X498Y718D01*
X496Y718D01*
X496Y720D01*
X492Y720D01*
X492Y722D01*
X490Y722D01*
X490Y726D01*
X488Y726D01*
X488Y728D01*
X486Y728D01*
X486Y730D01*
X484Y730D01*
X484Y734D01*
X482Y734D01*
X482Y738D01*
X480Y738D01*
X480Y742D01*
X478Y742D01*
X478Y752D01*
X476Y752D01*
X476Y756D01*
X478Y756D01*
X478Y766D01*
X480Y766D01*
X480Y772D01*
X482Y772D01*
X482Y776D01*
X484Y776D01*
X484Y778D01*
X486Y778D01*
X486Y782D01*
X488Y782D01*
X488Y784D01*
X490Y784D01*
X490Y786D01*
X492Y786D01*
X492Y788D01*
X494Y788D01*
X494Y790D01*
X496Y790D01*
X496Y792D01*
X500Y792D01*
X500Y794D01*
X502Y794D01*
X502Y796D01*
X506Y796D01*
X506Y798D01*
X512Y798D01*
X512Y800D01*
X518Y800D01*
X518Y802D01*
X350Y802D01*
G37*
D02*
G36*
X528Y802D02*
X528Y800D01*
X536Y800D01*
X536Y798D01*
X542Y798D01*
X542Y796D01*
X546Y796D01*
X546Y794D01*
X548Y794D01*
X548Y792D01*
X552Y792D01*
X552Y790D01*
X554Y790D01*
X554Y788D01*
X556Y788D01*
X556Y786D01*
X558Y786D01*
X558Y784D01*
X560Y784D01*
X560Y780D01*
X562Y780D01*
X562Y778D01*
X564Y778D01*
X564Y774D01*
X566Y774D01*
X566Y772D01*
X568Y772D01*
X568Y766D01*
X570Y766D01*
X570Y744D01*
X568Y744D01*
X568Y738D01*
X566Y738D01*
X566Y734D01*
X564Y734D01*
X564Y730D01*
X562Y730D01*
X562Y728D01*
X560Y728D01*
X560Y726D01*
X558Y726D01*
X558Y724D01*
X556Y724D01*
X556Y722D01*
X554Y722D01*
X554Y720D01*
X552Y720D01*
X552Y718D01*
X550Y718D01*
X550Y716D01*
X548Y716D01*
X548Y714D01*
X544Y714D01*
X544Y712D01*
X540Y712D01*
X540Y710D01*
X538Y710D01*
X538Y708D01*
X636Y708D01*
X636Y710D01*
X630Y710D01*
X630Y712D01*
X626Y712D01*
X626Y714D01*
X622Y714D01*
X622Y716D01*
X620Y716D01*
X620Y718D01*
X618Y718D01*
X618Y720D01*
X614Y720D01*
X614Y722D01*
X612Y722D01*
X612Y726D01*
X610Y726D01*
X610Y728D01*
X608Y728D01*
X608Y730D01*
X606Y730D01*
X606Y734D01*
X604Y734D01*
X604Y738D01*
X602Y738D01*
X602Y742D01*
X600Y742D01*
X600Y752D01*
X598Y752D01*
X598Y756D01*
X600Y756D01*
X600Y766D01*
X602Y766D01*
X602Y772D01*
X604Y772D01*
X604Y776D01*
X606Y776D01*
X606Y778D01*
X608Y778D01*
X608Y782D01*
X610Y782D01*
X610Y784D01*
X612Y784D01*
X612Y786D01*
X614Y786D01*
X614Y788D01*
X616Y788D01*
X616Y790D01*
X618Y790D01*
X618Y792D01*
X622Y792D01*
X622Y794D01*
X624Y794D01*
X624Y796D01*
X628Y796D01*
X628Y798D01*
X634Y798D01*
X634Y800D01*
X640Y800D01*
X640Y802D01*
X528Y802D01*
G37*
D02*
G36*
X650Y802D02*
X650Y800D01*
X658Y800D01*
X658Y798D01*
X664Y798D01*
X664Y796D01*
X668Y796D01*
X668Y794D01*
X670Y794D01*
X670Y792D01*
X674Y792D01*
X674Y790D01*
X676Y790D01*
X676Y788D01*
X678Y788D01*
X678Y786D01*
X680Y786D01*
X680Y784D01*
X682Y784D01*
X682Y780D01*
X684Y780D01*
X684Y778D01*
X686Y778D01*
X686Y774D01*
X688Y774D01*
X688Y772D01*
X690Y772D01*
X690Y766D01*
X692Y766D01*
X692Y744D01*
X690Y744D01*
X690Y738D01*
X688Y738D01*
X688Y734D01*
X686Y734D01*
X686Y730D01*
X684Y730D01*
X684Y728D01*
X682Y728D01*
X682Y726D01*
X680Y726D01*
X680Y724D01*
X678Y724D01*
X678Y722D01*
X676Y722D01*
X676Y720D01*
X674Y720D01*
X674Y718D01*
X672Y718D01*
X672Y716D01*
X670Y716D01*
X670Y714D01*
X666Y714D01*
X666Y712D01*
X662Y712D01*
X662Y710D01*
X656Y710D01*
X656Y708D01*
X810Y708D01*
X810Y710D01*
X808Y710D01*
X808Y712D01*
X804Y712D01*
X804Y714D01*
X800Y714D01*
X800Y716D01*
X798Y716D01*
X798Y718D01*
X796Y718D01*
X796Y720D01*
X792Y720D01*
X792Y722D01*
X790Y722D01*
X790Y726D01*
X788Y726D01*
X788Y728D01*
X786Y728D01*
X786Y730D01*
X784Y730D01*
X784Y734D01*
X782Y734D01*
X782Y738D01*
X780Y738D01*
X780Y742D01*
X778Y742D01*
X778Y752D01*
X776Y752D01*
X776Y756D01*
X778Y756D01*
X778Y766D01*
X780Y766D01*
X780Y772D01*
X782Y772D01*
X782Y776D01*
X784Y776D01*
X784Y778D01*
X786Y778D01*
X786Y782D01*
X788Y782D01*
X788Y784D01*
X790Y784D01*
X790Y786D01*
X792Y786D01*
X792Y788D01*
X794Y788D01*
X794Y790D01*
X796Y790D01*
X796Y792D01*
X800Y792D01*
X800Y794D01*
X802Y794D01*
X802Y796D01*
X806Y796D01*
X806Y798D01*
X812Y798D01*
X812Y800D01*
X818Y800D01*
X818Y802D01*
X650Y802D01*
G37*
D02*
G36*
X828Y802D02*
X828Y800D01*
X836Y800D01*
X836Y798D01*
X842Y798D01*
X842Y796D01*
X846Y796D01*
X846Y794D01*
X848Y794D01*
X848Y792D01*
X852Y792D01*
X852Y790D01*
X854Y790D01*
X854Y788D01*
X856Y788D01*
X856Y786D01*
X858Y786D01*
X858Y784D01*
X860Y784D01*
X860Y780D01*
X862Y780D01*
X862Y778D01*
X864Y778D01*
X864Y774D01*
X866Y774D01*
X866Y772D01*
X868Y772D01*
X868Y766D01*
X870Y766D01*
X870Y744D01*
X868Y744D01*
X868Y738D01*
X866Y738D01*
X866Y716D01*
X904Y716D01*
X904Y738D01*
X902Y738D01*
X902Y742D01*
X900Y742D01*
X900Y752D01*
X898Y752D01*
X898Y756D01*
X900Y756D01*
X900Y766D01*
X902Y766D01*
X902Y772D01*
X904Y772D01*
X904Y776D01*
X906Y776D01*
X906Y778D01*
X908Y778D01*
X908Y782D01*
X910Y782D01*
X910Y784D01*
X912Y784D01*
X912Y786D01*
X914Y786D01*
X914Y788D01*
X916Y788D01*
X916Y790D01*
X918Y790D01*
X918Y792D01*
X922Y792D01*
X922Y794D01*
X924Y794D01*
X924Y796D01*
X928Y796D01*
X928Y798D01*
X934Y798D01*
X934Y800D01*
X940Y800D01*
X940Y802D01*
X828Y802D01*
G37*
D02*
G36*
X138Y740D02*
X138Y708D01*
X214Y708D01*
X214Y710D01*
X208Y710D01*
X208Y712D01*
X204Y712D01*
X204Y714D01*
X200Y714D01*
X200Y716D01*
X198Y716D01*
X198Y718D01*
X196Y718D01*
X196Y720D01*
X192Y720D01*
X192Y722D01*
X190Y722D01*
X190Y726D01*
X188Y726D01*
X188Y728D01*
X186Y728D01*
X186Y730D01*
X184Y730D01*
X184Y734D01*
X182Y734D01*
X182Y738D01*
X180Y738D01*
X180Y740D01*
X138Y740D01*
G37*
D02*
G36*
X138Y708D02*
X138Y706D01*
X510Y706D01*
X510Y708D01*
X138Y708D01*
G37*
D02*
G36*
X138Y708D02*
X138Y706D01*
X510Y706D01*
X510Y708D01*
X138Y708D01*
G37*
D02*
G36*
X138Y708D02*
X138Y706D01*
X510Y706D01*
X510Y708D01*
X138Y708D01*
G37*
D02*
G36*
X538Y708D02*
X538Y706D01*
X810Y706D01*
X810Y708D01*
X538Y708D01*
G37*
D02*
G36*
X538Y708D02*
X538Y706D01*
X810Y706D01*
X810Y708D01*
X538Y708D01*
G37*
D02*
G36*
X138Y706D02*
X138Y546D01*
X350Y546D01*
X350Y544D01*
X358Y544D01*
X358Y542D01*
X364Y542D01*
X364Y540D01*
X368Y540D01*
X368Y538D01*
X370Y538D01*
X370Y536D01*
X374Y536D01*
X374Y534D01*
X376Y534D01*
X376Y532D01*
X378Y532D01*
X378Y530D01*
X380Y530D01*
X380Y528D01*
X382Y528D01*
X382Y524D01*
X384Y524D01*
X384Y522D01*
X386Y522D01*
X386Y518D01*
X388Y518D01*
X388Y516D01*
X390Y516D01*
X390Y510D01*
X392Y510D01*
X392Y488D01*
X390Y488D01*
X390Y482D01*
X388Y482D01*
X388Y478D01*
X386Y478D01*
X386Y474D01*
X384Y474D01*
X384Y472D01*
X382Y472D01*
X382Y470D01*
X380Y470D01*
X380Y468D01*
X378Y468D01*
X378Y466D01*
X376Y466D01*
X376Y464D01*
X374Y464D01*
X374Y462D01*
X372Y462D01*
X372Y442D01*
X498Y442D01*
X498Y462D01*
X496Y462D01*
X496Y464D01*
X492Y464D01*
X492Y466D01*
X490Y466D01*
X490Y470D01*
X488Y470D01*
X488Y472D01*
X486Y472D01*
X486Y474D01*
X484Y474D01*
X484Y478D01*
X482Y478D01*
X482Y482D01*
X480Y482D01*
X480Y486D01*
X478Y486D01*
X478Y496D01*
X476Y496D01*
X476Y500D01*
X478Y500D01*
X478Y510D01*
X480Y510D01*
X480Y516D01*
X482Y516D01*
X482Y520D01*
X484Y520D01*
X484Y522D01*
X486Y522D01*
X486Y526D01*
X488Y526D01*
X488Y528D01*
X490Y528D01*
X490Y530D01*
X492Y530D01*
X492Y532D01*
X494Y532D01*
X494Y534D01*
X496Y534D01*
X496Y536D01*
X500Y536D01*
X500Y538D01*
X502Y538D01*
X502Y540D01*
X506Y540D01*
X506Y542D01*
X510Y542D01*
X510Y706D01*
X138Y706D01*
G37*
D02*
G36*
X538Y706D02*
X538Y568D01*
X1200Y568D01*
X1200Y590D01*
X1198Y590D01*
X1198Y592D01*
X1196Y592D01*
X1196Y594D01*
X1192Y594D01*
X1192Y596D01*
X1190Y596D01*
X1190Y598D01*
X1188Y598D01*
X1188Y602D01*
X1186Y602D01*
X1186Y604D01*
X1184Y604D01*
X1184Y608D01*
X1182Y608D01*
X1182Y610D01*
X1180Y610D01*
X1180Y616D01*
X1178Y616D01*
X1178Y622D01*
X1176Y622D01*
X1176Y638D01*
X1178Y638D01*
X1178Y644D01*
X1180Y644D01*
X1180Y648D01*
X1182Y648D01*
X1182Y652D01*
X1184Y652D01*
X1184Y654D01*
X1186Y654D01*
X1186Y658D01*
X1188Y658D01*
X1188Y660D01*
X1190Y660D01*
X1190Y662D01*
X1192Y662D01*
X1192Y664D01*
X1194Y664D01*
X1194Y666D01*
X1196Y666D01*
X1196Y668D01*
X1200Y668D01*
X1200Y688D01*
X820Y688D01*
X820Y690D01*
X816Y690D01*
X816Y692D01*
X814Y692D01*
X814Y694D01*
X812Y694D01*
X812Y698D01*
X810Y698D01*
X810Y706D01*
X538Y706D01*
G37*
D02*
G36*
X138Y546D02*
X138Y442D01*
X198Y442D01*
X198Y462D01*
X196Y462D01*
X196Y464D01*
X192Y464D01*
X192Y466D01*
X190Y466D01*
X190Y470D01*
X188Y470D01*
X188Y472D01*
X186Y472D01*
X186Y474D01*
X184Y474D01*
X184Y478D01*
X182Y478D01*
X182Y482D01*
X180Y482D01*
X180Y486D01*
X178Y486D01*
X178Y496D01*
X176Y496D01*
X176Y500D01*
X178Y500D01*
X178Y510D01*
X180Y510D01*
X180Y516D01*
X182Y516D01*
X182Y520D01*
X184Y520D01*
X184Y522D01*
X186Y522D01*
X186Y526D01*
X188Y526D01*
X188Y528D01*
X190Y528D01*
X190Y530D01*
X192Y530D01*
X192Y532D01*
X194Y532D01*
X194Y534D01*
X196Y534D01*
X196Y536D01*
X200Y536D01*
X200Y538D01*
X202Y538D01*
X202Y540D01*
X206Y540D01*
X206Y542D01*
X212Y542D01*
X212Y544D01*
X218Y544D01*
X218Y546D01*
X138Y546D01*
G37*
D02*
G36*
X228Y546D02*
X228Y544D01*
X236Y544D01*
X236Y542D01*
X242Y542D01*
X242Y540D01*
X246Y540D01*
X246Y538D01*
X248Y538D01*
X248Y536D01*
X252Y536D01*
X252Y534D01*
X254Y534D01*
X254Y532D01*
X256Y532D01*
X256Y530D01*
X258Y530D01*
X258Y528D01*
X260Y528D01*
X260Y524D01*
X262Y524D01*
X262Y522D01*
X264Y522D01*
X264Y518D01*
X266Y518D01*
X266Y516D01*
X268Y516D01*
X268Y510D01*
X270Y510D01*
X270Y488D01*
X268Y488D01*
X268Y482D01*
X266Y482D01*
X266Y478D01*
X264Y478D01*
X264Y474D01*
X262Y474D01*
X262Y472D01*
X260Y472D01*
X260Y470D01*
X258Y470D01*
X258Y468D01*
X256Y468D01*
X256Y466D01*
X254Y466D01*
X254Y464D01*
X252Y464D01*
X252Y462D01*
X250Y462D01*
X250Y442D01*
X320Y442D01*
X320Y462D01*
X318Y462D01*
X318Y464D01*
X314Y464D01*
X314Y466D01*
X312Y466D01*
X312Y470D01*
X310Y470D01*
X310Y472D01*
X308Y472D01*
X308Y474D01*
X306Y474D01*
X306Y478D01*
X304Y478D01*
X304Y482D01*
X302Y482D01*
X302Y486D01*
X300Y486D01*
X300Y496D01*
X298Y496D01*
X298Y500D01*
X300Y500D01*
X300Y510D01*
X302Y510D01*
X302Y516D01*
X304Y516D01*
X304Y520D01*
X306Y520D01*
X306Y522D01*
X308Y522D01*
X308Y526D01*
X310Y526D01*
X310Y528D01*
X312Y528D01*
X312Y530D01*
X314Y530D01*
X314Y532D01*
X316Y532D01*
X316Y534D01*
X318Y534D01*
X318Y536D01*
X322Y536D01*
X322Y538D01*
X324Y538D01*
X324Y540D01*
X328Y540D01*
X328Y542D01*
X334Y542D01*
X334Y544D01*
X340Y544D01*
X340Y546D01*
X228Y546D01*
G37*
D02*
G36*
X1264Y706D02*
X1264Y704D01*
X1262Y704D01*
X1262Y702D01*
X1260Y702D01*
X1260Y700D01*
X1258Y700D01*
X1258Y696D01*
X1256Y696D01*
X1256Y694D01*
X1252Y694D01*
X1252Y692D01*
X1250Y692D01*
X1250Y690D01*
X1248Y690D01*
X1248Y668D01*
X1252Y668D01*
X1252Y666D01*
X1254Y666D01*
X1254Y664D01*
X1256Y664D01*
X1256Y662D01*
X1258Y662D01*
X1258Y660D01*
X1260Y660D01*
X1260Y658D01*
X1262Y658D01*
X1262Y654D01*
X1264Y654D01*
X1264Y652D01*
X1284Y652D01*
X1284Y656D01*
X1286Y656D01*
X1286Y658D01*
X1288Y658D01*
X1288Y660D01*
X1290Y660D01*
X1290Y662D01*
X1292Y662D01*
X1292Y664D01*
X1294Y664D01*
X1294Y666D01*
X1296Y666D01*
X1296Y668D01*
X1300Y668D01*
X1300Y690D01*
X1298Y690D01*
X1298Y692D01*
X1296Y692D01*
X1296Y694D01*
X1292Y694D01*
X1292Y696D01*
X1290Y696D01*
X1290Y698D01*
X1288Y698D01*
X1288Y702D01*
X1286Y702D01*
X1286Y704D01*
X1284Y704D01*
X1284Y706D01*
X1264Y706D01*
G37*
D02*
G36*
X1362Y704D02*
X1362Y702D01*
X1360Y702D01*
X1360Y700D01*
X1358Y700D01*
X1358Y696D01*
X1354Y696D01*
X1354Y694D01*
X1352Y694D01*
X1352Y692D01*
X1350Y692D01*
X1350Y690D01*
X1348Y690D01*
X1348Y668D01*
X1352Y668D01*
X1352Y666D01*
X1354Y666D01*
X1354Y664D01*
X1356Y664D01*
X1356Y662D01*
X1358Y662D01*
X1358Y660D01*
X1360Y660D01*
X1360Y658D01*
X1362Y658D01*
X1362Y654D01*
X1382Y654D01*
X1382Y704D01*
X1362Y704D01*
G37*
D02*
G36*
X1264Y606D02*
X1264Y604D01*
X1262Y604D01*
X1262Y602D01*
X1260Y602D01*
X1260Y600D01*
X1258Y600D01*
X1258Y596D01*
X1256Y596D01*
X1256Y594D01*
X1252Y594D01*
X1252Y592D01*
X1250Y592D01*
X1250Y590D01*
X1248Y590D01*
X1248Y568D01*
X1252Y568D01*
X1252Y566D01*
X1254Y566D01*
X1254Y564D01*
X1256Y564D01*
X1256Y562D01*
X1258Y562D01*
X1258Y560D01*
X1260Y560D01*
X1260Y558D01*
X1262Y558D01*
X1262Y554D01*
X1264Y554D01*
X1264Y552D01*
X1284Y552D01*
X1284Y556D01*
X1286Y556D01*
X1286Y558D01*
X1288Y558D01*
X1288Y560D01*
X1290Y560D01*
X1290Y562D01*
X1292Y562D01*
X1292Y564D01*
X1294Y564D01*
X1294Y566D01*
X1296Y566D01*
X1296Y568D01*
X1300Y568D01*
X1300Y590D01*
X1298Y590D01*
X1298Y592D01*
X1296Y592D01*
X1296Y594D01*
X1292Y594D01*
X1292Y596D01*
X1290Y596D01*
X1290Y598D01*
X1288Y598D01*
X1288Y602D01*
X1286Y602D01*
X1286Y604D01*
X1284Y604D01*
X1284Y606D01*
X1264Y606D01*
G37*
D02*
G36*
X1362Y604D02*
X1362Y602D01*
X1360Y602D01*
X1360Y600D01*
X1358Y600D01*
X1358Y596D01*
X1354Y596D01*
X1354Y594D01*
X1352Y594D01*
X1352Y592D01*
X1350Y592D01*
X1350Y590D01*
X1348Y590D01*
X1348Y568D01*
X1352Y568D01*
X1352Y566D01*
X1354Y566D01*
X1354Y564D01*
X1356Y564D01*
X1356Y562D01*
X1358Y562D01*
X1358Y560D01*
X1360Y560D01*
X1360Y558D01*
X1362Y558D01*
X1362Y554D01*
X1382Y554D01*
X1382Y604D01*
X1362Y604D01*
G37*
D02*
G36*
X564Y540D02*
X564Y518D01*
X566Y518D01*
X566Y516D01*
X568Y516D01*
X568Y510D01*
X570Y510D01*
X570Y488D01*
X568Y488D01*
X568Y482D01*
X566Y482D01*
X566Y478D01*
X564Y478D01*
X564Y474D01*
X562Y474D01*
X562Y472D01*
X560Y472D01*
X560Y470D01*
X558Y470D01*
X558Y468D01*
X556Y468D01*
X556Y466D01*
X554Y466D01*
X554Y464D01*
X552Y464D01*
X552Y462D01*
X550Y462D01*
X550Y442D01*
X620Y442D01*
X620Y462D01*
X618Y462D01*
X618Y464D01*
X614Y464D01*
X614Y466D01*
X612Y466D01*
X612Y470D01*
X610Y470D01*
X610Y472D01*
X608Y472D01*
X608Y474D01*
X606Y474D01*
X606Y478D01*
X604Y478D01*
X604Y482D01*
X602Y482D01*
X602Y486D01*
X600Y486D01*
X600Y496D01*
X598Y496D01*
X598Y500D01*
X600Y500D01*
X600Y510D01*
X602Y510D01*
X602Y516D01*
X604Y516D01*
X604Y520D01*
X606Y520D01*
X606Y540D01*
X564Y540D01*
G37*
D02*
G36*
X686Y540D02*
X686Y518D01*
X688Y518D01*
X688Y516D01*
X690Y516D01*
X690Y510D01*
X692Y510D01*
X692Y488D01*
X690Y488D01*
X690Y482D01*
X688Y482D01*
X688Y478D01*
X686Y478D01*
X686Y474D01*
X684Y474D01*
X684Y472D01*
X682Y472D01*
X682Y470D01*
X680Y470D01*
X680Y468D01*
X678Y468D01*
X678Y466D01*
X676Y466D01*
X676Y464D01*
X674Y464D01*
X674Y462D01*
X672Y462D01*
X672Y442D01*
X774Y442D01*
X774Y444D01*
X796Y444D01*
X796Y464D01*
X792Y464D01*
X792Y466D01*
X790Y466D01*
X790Y470D01*
X788Y470D01*
X788Y472D01*
X786Y472D01*
X786Y474D01*
X784Y474D01*
X784Y478D01*
X782Y478D01*
X782Y482D01*
X780Y482D01*
X780Y486D01*
X778Y486D01*
X778Y496D01*
X776Y496D01*
X776Y500D01*
X778Y500D01*
X778Y510D01*
X780Y510D01*
X780Y516D01*
X782Y516D01*
X782Y520D01*
X784Y520D01*
X784Y540D01*
X686Y540D01*
G37*
D02*
G36*
X864Y540D02*
X864Y518D01*
X866Y518D01*
X866Y516D01*
X868Y516D01*
X868Y510D01*
X870Y510D01*
X870Y488D01*
X868Y488D01*
X868Y482D01*
X866Y482D01*
X866Y478D01*
X864Y478D01*
X864Y474D01*
X862Y474D01*
X862Y472D01*
X860Y472D01*
X860Y470D01*
X858Y470D01*
X858Y468D01*
X856Y468D01*
X856Y466D01*
X854Y466D01*
X854Y464D01*
X852Y464D01*
X852Y444D01*
X918Y444D01*
X918Y464D01*
X914Y464D01*
X914Y466D01*
X912Y466D01*
X912Y470D01*
X910Y470D01*
X910Y472D01*
X908Y472D01*
X908Y474D01*
X906Y474D01*
X906Y478D01*
X904Y478D01*
X904Y482D01*
X902Y482D01*
X902Y486D01*
X900Y486D01*
X900Y496D01*
X898Y496D01*
X898Y500D01*
X900Y500D01*
X900Y510D01*
X902Y510D01*
X902Y516D01*
X904Y516D01*
X904Y520D01*
X906Y520D01*
X906Y540D01*
X864Y540D01*
G37*
D02*
G36*
X986Y540D02*
X986Y518D01*
X988Y518D01*
X988Y516D01*
X990Y516D01*
X990Y510D01*
X992Y510D01*
X992Y488D01*
X990Y488D01*
X990Y482D01*
X988Y482D01*
X988Y478D01*
X986Y478D01*
X986Y474D01*
X984Y474D01*
X984Y472D01*
X982Y472D01*
X982Y470D01*
X980Y470D01*
X980Y468D01*
X978Y468D01*
X978Y466D01*
X976Y466D01*
X976Y464D01*
X974Y464D01*
X974Y444D01*
X1096Y444D01*
X1096Y464D01*
X1092Y464D01*
X1092Y466D01*
X1090Y466D01*
X1090Y470D01*
X1088Y470D01*
X1088Y472D01*
X1086Y472D01*
X1086Y474D01*
X1084Y474D01*
X1084Y478D01*
X1082Y478D01*
X1082Y482D01*
X1080Y482D01*
X1080Y486D01*
X1078Y486D01*
X1078Y496D01*
X1076Y496D01*
X1076Y500D01*
X1078Y500D01*
X1078Y510D01*
X1080Y510D01*
X1080Y516D01*
X1082Y516D01*
X1082Y520D01*
X1084Y520D01*
X1084Y540D01*
X986Y540D01*
G37*
D02*
G36*
X1264Y506D02*
X1264Y504D01*
X1262Y504D01*
X1262Y502D01*
X1260Y502D01*
X1260Y500D01*
X1258Y500D01*
X1258Y496D01*
X1256Y496D01*
X1256Y494D01*
X1252Y494D01*
X1252Y492D01*
X1250Y492D01*
X1250Y490D01*
X1248Y490D01*
X1248Y468D01*
X1252Y468D01*
X1252Y466D01*
X1254Y466D01*
X1254Y464D01*
X1256Y464D01*
X1256Y462D01*
X1258Y462D01*
X1258Y460D01*
X1260Y460D01*
X1260Y458D01*
X1262Y458D01*
X1262Y456D01*
X1264Y456D01*
X1264Y452D01*
X1284Y452D01*
X1284Y454D01*
X1286Y454D01*
X1286Y456D01*
X1288Y456D01*
X1288Y460D01*
X1290Y460D01*
X1290Y462D01*
X1292Y462D01*
X1292Y464D01*
X1294Y464D01*
X1294Y466D01*
X1298Y466D01*
X1298Y468D01*
X1300Y468D01*
X1300Y490D01*
X1298Y490D01*
X1298Y492D01*
X1296Y492D01*
X1296Y494D01*
X1292Y494D01*
X1292Y496D01*
X1290Y496D01*
X1290Y498D01*
X1288Y498D01*
X1288Y502D01*
X1286Y502D01*
X1286Y504D01*
X1284Y504D01*
X1284Y506D01*
X1264Y506D01*
G37*
D02*
G36*
X1170Y498D02*
X1170Y488D01*
X1168Y488D01*
X1168Y482D01*
X1166Y482D01*
X1166Y478D01*
X1164Y478D01*
X1164Y474D01*
X1162Y474D01*
X1162Y472D01*
X1160Y472D01*
X1160Y470D01*
X1158Y470D01*
X1158Y468D01*
X1156Y468D01*
X1156Y466D01*
X1154Y466D01*
X1154Y464D01*
X1152Y464D01*
X1152Y444D01*
X1180Y444D01*
X1180Y448D01*
X1182Y448D01*
X1182Y450D01*
X1184Y450D01*
X1184Y454D01*
X1186Y454D01*
X1186Y456D01*
X1188Y456D01*
X1188Y460D01*
X1190Y460D01*
X1190Y462D01*
X1192Y462D01*
X1192Y464D01*
X1194Y464D01*
X1194Y466D01*
X1198Y466D01*
X1198Y468D01*
X1200Y468D01*
X1200Y490D01*
X1198Y490D01*
X1198Y492D01*
X1196Y492D01*
X1196Y494D01*
X1192Y494D01*
X1192Y496D01*
X1190Y496D01*
X1190Y498D01*
X1170Y498D01*
G37*
D02*
G36*
X1264Y406D02*
X1264Y404D01*
X1262Y404D01*
X1262Y400D01*
X1260Y400D01*
X1260Y398D01*
X1258Y398D01*
X1258Y396D01*
X1256Y396D01*
X1256Y394D01*
X1254Y394D01*
X1254Y392D01*
X1250Y392D01*
X1250Y390D01*
X1248Y390D01*
X1248Y368D01*
X1252Y368D01*
X1252Y366D01*
X1254Y366D01*
X1254Y364D01*
X1256Y364D01*
X1256Y362D01*
X1258Y362D01*
X1258Y360D01*
X1260Y360D01*
X1260Y358D01*
X1262Y358D01*
X1262Y356D01*
X1264Y356D01*
X1264Y352D01*
X1284Y352D01*
X1284Y354D01*
X1286Y354D01*
X1286Y356D01*
X1288Y356D01*
X1288Y360D01*
X1290Y360D01*
X1290Y362D01*
X1292Y362D01*
X1292Y364D01*
X1294Y364D01*
X1294Y366D01*
X1298Y366D01*
X1298Y368D01*
X1300Y368D01*
X1300Y370D01*
X1302Y370D01*
X1302Y390D01*
X1298Y390D01*
X1298Y392D01*
X1296Y392D01*
X1296Y394D01*
X1294Y394D01*
X1294Y396D01*
X1292Y396D01*
X1292Y398D01*
X1290Y398D01*
X1290Y400D01*
X1288Y400D01*
X1288Y402D01*
X1286Y402D01*
X1286Y404D01*
X1284Y404D01*
X1284Y406D01*
X1264Y406D01*
G37*
D02*
G36*
X1264Y306D02*
X1264Y304D01*
X1262Y304D01*
X1262Y300D01*
X1260Y300D01*
X1260Y298D01*
X1258Y298D01*
X1258Y296D01*
X1256Y296D01*
X1256Y294D01*
X1254Y294D01*
X1254Y292D01*
X1250Y292D01*
X1250Y290D01*
X1248Y290D01*
X1248Y268D01*
X1252Y268D01*
X1252Y266D01*
X1254Y266D01*
X1254Y264D01*
X1256Y264D01*
X1256Y262D01*
X1258Y262D01*
X1258Y260D01*
X1260Y260D01*
X1260Y258D01*
X1262Y258D01*
X1262Y256D01*
X1264Y256D01*
X1264Y252D01*
X1284Y252D01*
X1284Y254D01*
X1286Y254D01*
X1286Y256D01*
X1288Y256D01*
X1288Y260D01*
X1290Y260D01*
X1290Y262D01*
X1292Y262D01*
X1292Y264D01*
X1294Y264D01*
X1294Y266D01*
X1298Y266D01*
X1298Y268D01*
X1300Y268D01*
X1300Y270D01*
X1302Y270D01*
X1302Y290D01*
X1298Y290D01*
X1298Y292D01*
X1296Y292D01*
X1296Y294D01*
X1294Y294D01*
X1294Y296D01*
X1292Y296D01*
X1292Y298D01*
X1290Y298D01*
X1290Y300D01*
X1288Y300D01*
X1288Y302D01*
X1286Y302D01*
X1286Y304D01*
X1284Y304D01*
X1284Y306D01*
X1264Y306D01*
G37*
D02*
G36*
X1170Y300D02*
X1170Y294D01*
X1168Y294D01*
X1168Y288D01*
X1166Y288D01*
X1166Y284D01*
X1164Y284D01*
X1164Y280D01*
X1162Y280D01*
X1162Y278D01*
X1160Y278D01*
X1160Y276D01*
X1158Y276D01*
X1158Y274D01*
X1156Y274D01*
X1156Y272D01*
X1154Y272D01*
X1154Y270D01*
X1152Y270D01*
X1152Y268D01*
X1150Y268D01*
X1150Y266D01*
X1148Y266D01*
X1148Y264D01*
X1144Y264D01*
X1144Y262D01*
X1140Y262D01*
X1140Y260D01*
X1138Y260D01*
X1138Y190D01*
X1182Y190D01*
X1182Y212D01*
X1180Y212D01*
X1180Y216D01*
X1178Y216D01*
X1178Y224D01*
X1176Y224D01*
X1176Y234D01*
X1178Y234D01*
X1178Y242D01*
X1180Y242D01*
X1180Y248D01*
X1182Y248D01*
X1182Y250D01*
X1184Y250D01*
X1184Y254D01*
X1186Y254D01*
X1186Y256D01*
X1188Y256D01*
X1188Y260D01*
X1190Y260D01*
X1190Y262D01*
X1192Y262D01*
X1192Y264D01*
X1194Y264D01*
X1194Y266D01*
X1198Y266D01*
X1198Y268D01*
X1200Y268D01*
X1200Y270D01*
X1202Y270D01*
X1202Y290D01*
X1198Y290D01*
X1198Y292D01*
X1196Y292D01*
X1196Y294D01*
X1194Y294D01*
X1194Y296D01*
X1192Y296D01*
X1192Y298D01*
X1190Y298D01*
X1190Y300D01*
X1170Y300D01*
G37*
D02*
G36*
X90Y488D02*
X90Y482D01*
X88Y482D01*
X88Y478D01*
X86Y478D01*
X86Y474D01*
X84Y474D01*
X84Y472D01*
X82Y472D01*
X82Y470D01*
X80Y470D01*
X80Y468D01*
X78Y468D01*
X78Y466D01*
X76Y466D01*
X76Y464D01*
X74Y464D01*
X74Y462D01*
X72Y462D01*
X72Y460D01*
X70Y460D01*
X70Y458D01*
X66Y458D01*
X66Y456D01*
X62Y456D01*
X62Y454D01*
X56Y454D01*
X56Y452D01*
X40Y452D01*
X40Y414D01*
X120Y414D01*
X120Y416D01*
X116Y416D01*
X116Y418D01*
X114Y418D01*
X114Y420D01*
X112Y420D01*
X112Y424D01*
X110Y424D01*
X110Y488D01*
X90Y488D01*
G37*
D02*
G36*
X786Y416D02*
X786Y414D01*
X1180Y414D01*
X1180Y416D01*
X786Y416D01*
G37*
D02*
G36*
X40Y414D02*
X40Y412D01*
X1180Y412D01*
X1180Y414D01*
X40Y414D01*
G37*
D02*
G36*
X40Y414D02*
X40Y412D01*
X1180Y412D01*
X1180Y414D01*
X40Y414D01*
G37*
D02*
G36*
X40Y412D02*
X40Y352D01*
X1128Y352D01*
X1128Y350D01*
X1136Y350D01*
X1136Y348D01*
X1142Y348D01*
X1142Y346D01*
X1146Y346D01*
X1146Y344D01*
X1148Y344D01*
X1148Y342D01*
X1152Y342D01*
X1152Y340D01*
X1154Y340D01*
X1154Y338D01*
X1156Y338D01*
X1156Y336D01*
X1158Y336D01*
X1158Y334D01*
X1178Y334D01*
X1178Y342D01*
X1180Y342D01*
X1180Y348D01*
X1182Y348D01*
X1182Y350D01*
X1184Y350D01*
X1184Y354D01*
X1186Y354D01*
X1186Y356D01*
X1188Y356D01*
X1188Y360D01*
X1190Y360D01*
X1190Y362D01*
X1192Y362D01*
X1192Y364D01*
X1194Y364D01*
X1194Y366D01*
X1198Y366D01*
X1198Y368D01*
X1200Y368D01*
X1200Y370D01*
X1202Y370D01*
X1202Y390D01*
X1198Y390D01*
X1198Y392D01*
X1196Y392D01*
X1196Y394D01*
X1194Y394D01*
X1194Y396D01*
X1192Y396D01*
X1192Y398D01*
X1190Y398D01*
X1190Y400D01*
X1188Y400D01*
X1188Y402D01*
X1186Y402D01*
X1186Y404D01*
X1184Y404D01*
X1184Y408D01*
X1182Y408D01*
X1182Y412D01*
X40Y412D01*
G37*
D02*
G36*
X50Y352D02*
X50Y350D01*
X58Y350D01*
X58Y348D01*
X64Y348D01*
X64Y346D01*
X68Y346D01*
X68Y344D01*
X70Y344D01*
X70Y342D01*
X74Y342D01*
X74Y340D01*
X76Y340D01*
X76Y338D01*
X78Y338D01*
X78Y336D01*
X80Y336D01*
X80Y334D01*
X82Y334D01*
X82Y330D01*
X84Y330D01*
X84Y328D01*
X86Y328D01*
X86Y324D01*
X88Y324D01*
X88Y322D01*
X90Y322D01*
X90Y316D01*
X92Y316D01*
X92Y294D01*
X90Y294D01*
X90Y288D01*
X88Y288D01*
X88Y284D01*
X86Y284D01*
X86Y280D01*
X84Y280D01*
X84Y278D01*
X82Y278D01*
X82Y276D01*
X80Y276D01*
X80Y274D01*
X78Y274D01*
X78Y272D01*
X76Y272D01*
X76Y270D01*
X74Y270D01*
X74Y268D01*
X72Y268D01*
X72Y266D01*
X70Y266D01*
X70Y264D01*
X66Y264D01*
X66Y262D01*
X62Y262D01*
X62Y260D01*
X56Y260D01*
X56Y258D01*
X214Y258D01*
X214Y260D01*
X208Y260D01*
X208Y262D01*
X204Y262D01*
X204Y264D01*
X200Y264D01*
X200Y266D01*
X198Y266D01*
X198Y268D01*
X196Y268D01*
X196Y270D01*
X192Y270D01*
X192Y272D01*
X190Y272D01*
X190Y276D01*
X188Y276D01*
X188Y278D01*
X186Y278D01*
X186Y280D01*
X184Y280D01*
X184Y284D01*
X182Y284D01*
X182Y288D01*
X180Y288D01*
X180Y292D01*
X178Y292D01*
X178Y302D01*
X176Y302D01*
X176Y306D01*
X178Y306D01*
X178Y316D01*
X180Y316D01*
X180Y322D01*
X182Y322D01*
X182Y326D01*
X184Y326D01*
X184Y328D01*
X186Y328D01*
X186Y332D01*
X188Y332D01*
X188Y334D01*
X190Y334D01*
X190Y336D01*
X192Y336D01*
X192Y338D01*
X194Y338D01*
X194Y340D01*
X196Y340D01*
X196Y342D01*
X200Y342D01*
X200Y344D01*
X202Y344D01*
X202Y346D01*
X206Y346D01*
X206Y348D01*
X212Y348D01*
X212Y350D01*
X218Y350D01*
X218Y352D01*
X50Y352D01*
G37*
D02*
G36*
X228Y352D02*
X228Y350D01*
X236Y350D01*
X236Y348D01*
X242Y348D01*
X242Y346D01*
X246Y346D01*
X246Y344D01*
X248Y344D01*
X248Y342D01*
X252Y342D01*
X252Y340D01*
X254Y340D01*
X254Y338D01*
X256Y338D01*
X256Y336D01*
X258Y336D01*
X258Y334D01*
X260Y334D01*
X260Y330D01*
X262Y330D01*
X262Y328D01*
X264Y328D01*
X264Y324D01*
X266Y324D01*
X266Y322D01*
X268Y322D01*
X268Y316D01*
X270Y316D01*
X270Y294D01*
X268Y294D01*
X268Y288D01*
X266Y288D01*
X266Y284D01*
X264Y284D01*
X264Y280D01*
X262Y280D01*
X262Y278D01*
X260Y278D01*
X260Y276D01*
X258Y276D01*
X258Y274D01*
X256Y274D01*
X256Y272D01*
X254Y272D01*
X254Y270D01*
X252Y270D01*
X252Y268D01*
X250Y268D01*
X250Y266D01*
X248Y266D01*
X248Y264D01*
X244Y264D01*
X244Y262D01*
X240Y262D01*
X240Y260D01*
X234Y260D01*
X234Y258D01*
X336Y258D01*
X336Y260D01*
X330Y260D01*
X330Y262D01*
X326Y262D01*
X326Y264D01*
X322Y264D01*
X322Y266D01*
X320Y266D01*
X320Y268D01*
X318Y268D01*
X318Y270D01*
X314Y270D01*
X314Y272D01*
X312Y272D01*
X312Y276D01*
X310Y276D01*
X310Y278D01*
X308Y278D01*
X308Y280D01*
X306Y280D01*
X306Y284D01*
X304Y284D01*
X304Y288D01*
X302Y288D01*
X302Y292D01*
X300Y292D01*
X300Y302D01*
X298Y302D01*
X298Y306D01*
X300Y306D01*
X300Y316D01*
X302Y316D01*
X302Y322D01*
X304Y322D01*
X304Y326D01*
X306Y326D01*
X306Y328D01*
X308Y328D01*
X308Y332D01*
X310Y332D01*
X310Y334D01*
X312Y334D01*
X312Y336D01*
X314Y336D01*
X314Y338D01*
X316Y338D01*
X316Y340D01*
X318Y340D01*
X318Y342D01*
X322Y342D01*
X322Y344D01*
X324Y344D01*
X324Y346D01*
X328Y346D01*
X328Y348D01*
X334Y348D01*
X334Y350D01*
X340Y350D01*
X340Y352D01*
X228Y352D01*
G37*
D02*
G36*
X350Y352D02*
X350Y350D01*
X358Y350D01*
X358Y348D01*
X364Y348D01*
X364Y346D01*
X368Y346D01*
X368Y344D01*
X370Y344D01*
X370Y342D01*
X374Y342D01*
X374Y340D01*
X376Y340D01*
X376Y338D01*
X378Y338D01*
X378Y336D01*
X380Y336D01*
X380Y334D01*
X382Y334D01*
X382Y330D01*
X384Y330D01*
X384Y328D01*
X386Y328D01*
X386Y324D01*
X388Y324D01*
X388Y322D01*
X390Y322D01*
X390Y316D01*
X392Y316D01*
X392Y294D01*
X390Y294D01*
X390Y288D01*
X388Y288D01*
X388Y284D01*
X386Y284D01*
X386Y280D01*
X384Y280D01*
X384Y278D01*
X382Y278D01*
X382Y276D01*
X380Y276D01*
X380Y274D01*
X378Y274D01*
X378Y272D01*
X376Y272D01*
X376Y270D01*
X374Y270D01*
X374Y268D01*
X372Y268D01*
X372Y266D01*
X370Y266D01*
X370Y264D01*
X366Y264D01*
X366Y262D01*
X362Y262D01*
X362Y260D01*
X356Y260D01*
X356Y258D01*
X510Y258D01*
X510Y260D01*
X508Y260D01*
X508Y262D01*
X504Y262D01*
X504Y264D01*
X500Y264D01*
X500Y266D01*
X498Y266D01*
X498Y268D01*
X496Y268D01*
X496Y270D01*
X492Y270D01*
X492Y272D01*
X490Y272D01*
X490Y276D01*
X488Y276D01*
X488Y278D01*
X486Y278D01*
X486Y280D01*
X484Y280D01*
X484Y284D01*
X482Y284D01*
X482Y288D01*
X480Y288D01*
X480Y292D01*
X478Y292D01*
X478Y302D01*
X476Y302D01*
X476Y306D01*
X478Y306D01*
X478Y316D01*
X480Y316D01*
X480Y322D01*
X482Y322D01*
X482Y326D01*
X484Y326D01*
X484Y328D01*
X486Y328D01*
X486Y332D01*
X488Y332D01*
X488Y334D01*
X490Y334D01*
X490Y336D01*
X492Y336D01*
X492Y338D01*
X494Y338D01*
X494Y340D01*
X496Y340D01*
X496Y342D01*
X500Y342D01*
X500Y344D01*
X502Y344D01*
X502Y346D01*
X506Y346D01*
X506Y348D01*
X512Y348D01*
X512Y350D01*
X518Y350D01*
X518Y352D01*
X350Y352D01*
G37*
D02*
G36*
X528Y352D02*
X528Y350D01*
X536Y350D01*
X536Y348D01*
X542Y348D01*
X542Y346D01*
X546Y346D01*
X546Y344D01*
X548Y344D01*
X548Y342D01*
X552Y342D01*
X552Y340D01*
X554Y340D01*
X554Y338D01*
X556Y338D01*
X556Y336D01*
X558Y336D01*
X558Y334D01*
X560Y334D01*
X560Y330D01*
X562Y330D01*
X562Y328D01*
X564Y328D01*
X564Y324D01*
X566Y324D01*
X566Y322D01*
X568Y322D01*
X568Y316D01*
X570Y316D01*
X570Y294D01*
X568Y294D01*
X568Y288D01*
X566Y288D01*
X566Y284D01*
X564Y284D01*
X564Y280D01*
X562Y280D01*
X562Y278D01*
X560Y278D01*
X560Y276D01*
X558Y276D01*
X558Y274D01*
X556Y274D01*
X556Y272D01*
X554Y272D01*
X554Y270D01*
X552Y270D01*
X552Y268D01*
X550Y268D01*
X550Y266D01*
X548Y266D01*
X548Y264D01*
X544Y264D01*
X544Y262D01*
X540Y262D01*
X540Y260D01*
X538Y260D01*
X538Y258D01*
X636Y258D01*
X636Y260D01*
X630Y260D01*
X630Y262D01*
X626Y262D01*
X626Y264D01*
X622Y264D01*
X622Y266D01*
X620Y266D01*
X620Y268D01*
X618Y268D01*
X618Y270D01*
X614Y270D01*
X614Y272D01*
X612Y272D01*
X612Y276D01*
X610Y276D01*
X610Y278D01*
X608Y278D01*
X608Y280D01*
X606Y280D01*
X606Y284D01*
X604Y284D01*
X604Y288D01*
X602Y288D01*
X602Y292D01*
X600Y292D01*
X600Y302D01*
X598Y302D01*
X598Y306D01*
X600Y306D01*
X600Y316D01*
X602Y316D01*
X602Y322D01*
X604Y322D01*
X604Y326D01*
X606Y326D01*
X606Y328D01*
X608Y328D01*
X608Y332D01*
X610Y332D01*
X610Y334D01*
X612Y334D01*
X612Y336D01*
X614Y336D01*
X614Y338D01*
X616Y338D01*
X616Y340D01*
X618Y340D01*
X618Y342D01*
X622Y342D01*
X622Y344D01*
X624Y344D01*
X624Y346D01*
X628Y346D01*
X628Y348D01*
X634Y348D01*
X634Y350D01*
X640Y350D01*
X640Y352D01*
X528Y352D01*
G37*
D02*
G36*
X650Y352D02*
X650Y350D01*
X658Y350D01*
X658Y348D01*
X664Y348D01*
X664Y346D01*
X668Y346D01*
X668Y344D01*
X670Y344D01*
X670Y342D01*
X674Y342D01*
X674Y340D01*
X676Y340D01*
X676Y338D01*
X678Y338D01*
X678Y336D01*
X680Y336D01*
X680Y334D01*
X682Y334D01*
X682Y330D01*
X684Y330D01*
X684Y328D01*
X686Y328D01*
X686Y324D01*
X688Y324D01*
X688Y322D01*
X690Y322D01*
X690Y316D01*
X692Y316D01*
X692Y294D01*
X690Y294D01*
X690Y288D01*
X688Y288D01*
X688Y284D01*
X686Y284D01*
X686Y280D01*
X684Y280D01*
X684Y278D01*
X682Y278D01*
X682Y276D01*
X680Y276D01*
X680Y274D01*
X678Y274D01*
X678Y272D01*
X676Y272D01*
X676Y270D01*
X674Y270D01*
X674Y268D01*
X672Y268D01*
X672Y266D01*
X670Y266D01*
X670Y264D01*
X666Y264D01*
X666Y262D01*
X662Y262D01*
X662Y260D01*
X656Y260D01*
X656Y258D01*
X814Y258D01*
X814Y260D01*
X808Y260D01*
X808Y262D01*
X804Y262D01*
X804Y264D01*
X800Y264D01*
X800Y266D01*
X798Y266D01*
X798Y268D01*
X796Y268D01*
X796Y270D01*
X792Y270D01*
X792Y272D01*
X790Y272D01*
X790Y276D01*
X788Y276D01*
X788Y278D01*
X786Y278D01*
X786Y280D01*
X784Y280D01*
X784Y284D01*
X782Y284D01*
X782Y288D01*
X780Y288D01*
X780Y292D01*
X778Y292D01*
X778Y302D01*
X776Y302D01*
X776Y306D01*
X778Y306D01*
X778Y316D01*
X780Y316D01*
X780Y322D01*
X782Y322D01*
X782Y326D01*
X784Y326D01*
X784Y328D01*
X786Y328D01*
X786Y332D01*
X788Y332D01*
X788Y334D01*
X790Y334D01*
X790Y336D01*
X792Y336D01*
X792Y338D01*
X794Y338D01*
X794Y340D01*
X796Y340D01*
X796Y342D01*
X800Y342D01*
X800Y344D01*
X802Y344D01*
X802Y346D01*
X806Y346D01*
X806Y348D01*
X812Y348D01*
X812Y350D01*
X818Y350D01*
X818Y352D01*
X650Y352D01*
G37*
D02*
G36*
X828Y352D02*
X828Y350D01*
X836Y350D01*
X836Y348D01*
X842Y348D01*
X842Y346D01*
X846Y346D01*
X846Y344D01*
X848Y344D01*
X848Y342D01*
X852Y342D01*
X852Y340D01*
X854Y340D01*
X854Y338D01*
X856Y338D01*
X856Y336D01*
X858Y336D01*
X858Y334D01*
X860Y334D01*
X860Y330D01*
X862Y330D01*
X862Y328D01*
X864Y328D01*
X864Y324D01*
X866Y324D01*
X866Y322D01*
X868Y322D01*
X868Y316D01*
X878Y316D01*
X878Y314D01*
X900Y314D01*
X900Y316D01*
X902Y316D01*
X902Y322D01*
X904Y322D01*
X904Y326D01*
X906Y326D01*
X906Y328D01*
X908Y328D01*
X908Y332D01*
X910Y332D01*
X910Y334D01*
X912Y334D01*
X912Y336D01*
X914Y336D01*
X914Y338D01*
X916Y338D01*
X916Y340D01*
X918Y340D01*
X918Y342D01*
X922Y342D01*
X922Y344D01*
X924Y344D01*
X924Y346D01*
X928Y346D01*
X928Y348D01*
X934Y348D01*
X934Y350D01*
X940Y350D01*
X940Y352D01*
X828Y352D01*
G37*
D02*
G36*
X950Y352D02*
X950Y350D01*
X958Y350D01*
X958Y348D01*
X964Y348D01*
X964Y346D01*
X968Y346D01*
X968Y344D01*
X970Y344D01*
X970Y342D01*
X974Y342D01*
X974Y340D01*
X976Y340D01*
X976Y338D01*
X978Y338D01*
X978Y336D01*
X980Y336D01*
X980Y334D01*
X982Y334D01*
X982Y330D01*
X984Y330D01*
X984Y328D01*
X986Y328D01*
X986Y324D01*
X988Y324D01*
X988Y322D01*
X990Y322D01*
X990Y316D01*
X992Y316D01*
X992Y294D01*
X990Y294D01*
X990Y288D01*
X988Y288D01*
X988Y284D01*
X986Y284D01*
X986Y280D01*
X984Y280D01*
X984Y278D01*
X982Y278D01*
X982Y276D01*
X980Y276D01*
X980Y274D01*
X978Y274D01*
X978Y272D01*
X976Y272D01*
X976Y270D01*
X974Y270D01*
X974Y268D01*
X972Y268D01*
X972Y266D01*
X970Y266D01*
X970Y264D01*
X966Y264D01*
X966Y262D01*
X962Y262D01*
X962Y260D01*
X956Y260D01*
X956Y258D01*
X1110Y258D01*
X1110Y260D01*
X1108Y260D01*
X1108Y262D01*
X1104Y262D01*
X1104Y264D01*
X1100Y264D01*
X1100Y266D01*
X1098Y266D01*
X1098Y268D01*
X1096Y268D01*
X1096Y270D01*
X1092Y270D01*
X1092Y272D01*
X1090Y272D01*
X1090Y276D01*
X1088Y276D01*
X1088Y278D01*
X1086Y278D01*
X1086Y280D01*
X1084Y280D01*
X1084Y284D01*
X1082Y284D01*
X1082Y288D01*
X1080Y288D01*
X1080Y292D01*
X1078Y292D01*
X1078Y302D01*
X1076Y302D01*
X1076Y306D01*
X1078Y306D01*
X1078Y316D01*
X1080Y316D01*
X1080Y322D01*
X1082Y322D01*
X1082Y326D01*
X1084Y326D01*
X1084Y328D01*
X1086Y328D01*
X1086Y332D01*
X1088Y332D01*
X1088Y334D01*
X1090Y334D01*
X1090Y336D01*
X1092Y336D01*
X1092Y338D01*
X1094Y338D01*
X1094Y340D01*
X1096Y340D01*
X1096Y342D01*
X1100Y342D01*
X1100Y344D01*
X1102Y344D01*
X1102Y346D01*
X1106Y346D01*
X1106Y348D01*
X1112Y348D01*
X1112Y350D01*
X1118Y350D01*
X1118Y352D01*
X950Y352D01*
G37*
D02*
G36*
X888Y280D02*
X888Y270D01*
X890Y270D01*
X890Y258D01*
X936Y258D01*
X936Y260D01*
X930Y260D01*
X930Y262D01*
X926Y262D01*
X926Y264D01*
X922Y264D01*
X922Y266D01*
X920Y266D01*
X920Y268D01*
X918Y268D01*
X918Y270D01*
X914Y270D01*
X914Y272D01*
X912Y272D01*
X912Y276D01*
X910Y276D01*
X910Y278D01*
X908Y278D01*
X908Y280D01*
X888Y280D01*
G37*
D02*
G36*
X840Y262D02*
X840Y260D01*
X834Y260D01*
X834Y258D01*
X862Y258D01*
X862Y262D01*
X840Y262D01*
G37*
D02*
G36*
X40Y258D02*
X40Y256D01*
X510Y256D01*
X510Y258D01*
X40Y258D01*
G37*
D02*
G36*
X40Y258D02*
X40Y256D01*
X510Y256D01*
X510Y258D01*
X40Y258D01*
G37*
D02*
G36*
X40Y258D02*
X40Y256D01*
X510Y256D01*
X510Y258D01*
X40Y258D01*
G37*
D02*
G36*
X538Y258D02*
X538Y256D01*
X862Y256D01*
X862Y258D01*
X538Y258D01*
G37*
D02*
G36*
X538Y258D02*
X538Y256D01*
X862Y256D01*
X862Y258D01*
X538Y258D01*
G37*
D02*
G36*
X538Y258D02*
X538Y256D01*
X862Y256D01*
X862Y258D01*
X538Y258D01*
G37*
D02*
G36*
X890Y258D02*
X890Y256D01*
X1110Y256D01*
X1110Y258D01*
X890Y258D01*
G37*
D02*
G36*
X890Y258D02*
X890Y256D01*
X1110Y256D01*
X1110Y258D01*
X890Y258D01*
G37*
D02*
G36*
X40Y256D02*
X40Y96D01*
X350Y96D01*
X350Y94D01*
X358Y94D01*
X358Y92D01*
X364Y92D01*
X364Y90D01*
X368Y90D01*
X368Y88D01*
X370Y88D01*
X370Y86D01*
X374Y86D01*
X374Y84D01*
X376Y84D01*
X376Y82D01*
X378Y82D01*
X378Y80D01*
X380Y80D01*
X380Y78D01*
X382Y78D01*
X382Y74D01*
X384Y74D01*
X384Y72D01*
X386Y72D01*
X386Y68D01*
X388Y68D01*
X388Y66D01*
X390Y66D01*
X390Y60D01*
X392Y60D01*
X392Y42D01*
X476Y42D01*
X476Y50D01*
X478Y50D01*
X478Y60D01*
X480Y60D01*
X480Y66D01*
X482Y66D01*
X482Y70D01*
X484Y70D01*
X484Y72D01*
X486Y72D01*
X486Y76D01*
X488Y76D01*
X488Y78D01*
X490Y78D01*
X490Y80D01*
X492Y80D01*
X492Y82D01*
X494Y82D01*
X494Y84D01*
X496Y84D01*
X496Y86D01*
X500Y86D01*
X500Y88D01*
X502Y88D01*
X502Y90D01*
X506Y90D01*
X506Y92D01*
X510Y92D01*
X510Y256D01*
X40Y256D01*
G37*
D02*
G36*
X538Y256D02*
X538Y116D01*
X864Y116D01*
X864Y136D01*
X862Y136D01*
X862Y138D01*
X860Y138D01*
X860Y142D01*
X858Y142D01*
X858Y146D01*
X856Y146D01*
X856Y162D01*
X858Y162D01*
X858Y166D01*
X860Y166D01*
X860Y170D01*
X862Y170D01*
X862Y172D01*
X864Y172D01*
X864Y174D01*
X866Y174D01*
X866Y176D01*
X868Y176D01*
X868Y200D01*
X866Y200D01*
X866Y222D01*
X864Y222D01*
X864Y244D01*
X862Y244D01*
X862Y256D01*
X538Y256D01*
G37*
D02*
G36*
X890Y256D02*
X890Y246D01*
X892Y246D01*
X892Y224D01*
X894Y224D01*
X894Y200D01*
X896Y200D01*
X896Y180D01*
X900Y180D01*
X900Y178D01*
X902Y178D01*
X902Y176D01*
X904Y176D01*
X904Y174D01*
X906Y174D01*
X906Y172D01*
X908Y172D01*
X908Y170D01*
X910Y170D01*
X910Y166D01*
X912Y166D01*
X912Y162D01*
X1120Y162D01*
X1120Y164D01*
X1116Y164D01*
X1116Y166D01*
X1114Y166D01*
X1114Y168D01*
X1112Y168D01*
X1112Y172D01*
X1110Y172D01*
X1110Y256D01*
X890Y256D01*
G37*
D02*
G36*
X1362Y204D02*
X1362Y200D01*
X1360Y200D01*
X1360Y198D01*
X1358Y198D01*
X1358Y196D01*
X1356Y196D01*
X1356Y194D01*
X1354Y194D01*
X1354Y192D01*
X1350Y192D01*
X1350Y190D01*
X1348Y190D01*
X1348Y188D01*
X1344Y188D01*
X1344Y186D01*
X1340Y186D01*
X1340Y184D01*
X1338Y184D01*
X1338Y172D01*
X1336Y172D01*
X1336Y168D01*
X1334Y168D01*
X1334Y166D01*
X1332Y166D01*
X1332Y164D01*
X1326Y164D01*
X1326Y162D01*
X1382Y162D01*
X1382Y204D01*
X1362Y204D01*
G37*
D02*
G36*
X914Y162D02*
X914Y160D01*
X1382Y160D01*
X1382Y162D01*
X914Y162D01*
G37*
D02*
G36*
X914Y162D02*
X914Y160D01*
X1382Y160D01*
X1382Y162D01*
X914Y162D01*
G37*
D02*
G36*
X914Y160D02*
X914Y146D01*
X912Y146D01*
X912Y142D01*
X910Y142D01*
X910Y138D01*
X908Y138D01*
X908Y136D01*
X906Y136D01*
X906Y116D01*
X1382Y116D01*
X1382Y160D01*
X914Y160D01*
G37*
D02*
G36*
X50Y96D02*
X50Y94D01*
X58Y94D01*
X58Y92D01*
X64Y92D01*
X64Y90D01*
X68Y90D01*
X68Y88D01*
X70Y88D01*
X70Y86D01*
X74Y86D01*
X74Y84D01*
X76Y84D01*
X76Y82D01*
X78Y82D01*
X78Y80D01*
X80Y80D01*
X80Y78D01*
X82Y78D01*
X82Y74D01*
X84Y74D01*
X84Y72D01*
X86Y72D01*
X86Y68D01*
X88Y68D01*
X88Y66D01*
X90Y66D01*
X90Y60D01*
X92Y60D01*
X92Y42D01*
X176Y42D01*
X176Y50D01*
X178Y50D01*
X178Y60D01*
X180Y60D01*
X180Y66D01*
X182Y66D01*
X182Y70D01*
X184Y70D01*
X184Y72D01*
X186Y72D01*
X186Y76D01*
X188Y76D01*
X188Y78D01*
X190Y78D01*
X190Y80D01*
X192Y80D01*
X192Y82D01*
X194Y82D01*
X194Y84D01*
X196Y84D01*
X196Y86D01*
X200Y86D01*
X200Y88D01*
X202Y88D01*
X202Y90D01*
X206Y90D01*
X206Y92D01*
X212Y92D01*
X212Y94D01*
X218Y94D01*
X218Y96D01*
X50Y96D01*
G37*
D02*
G36*
X228Y96D02*
X228Y94D01*
X236Y94D01*
X236Y92D01*
X242Y92D01*
X242Y90D01*
X246Y90D01*
X246Y88D01*
X248Y88D01*
X248Y86D01*
X252Y86D01*
X252Y84D01*
X254Y84D01*
X254Y82D01*
X256Y82D01*
X256Y80D01*
X258Y80D01*
X258Y78D01*
X260Y78D01*
X260Y74D01*
X262Y74D01*
X262Y72D01*
X264Y72D01*
X264Y68D01*
X266Y68D01*
X266Y66D01*
X268Y66D01*
X268Y60D01*
X270Y60D01*
X270Y42D01*
X298Y42D01*
X298Y50D01*
X300Y50D01*
X300Y60D01*
X302Y60D01*
X302Y66D01*
X304Y66D01*
X304Y70D01*
X306Y70D01*
X306Y72D01*
X308Y72D01*
X308Y76D01*
X310Y76D01*
X310Y78D01*
X312Y78D01*
X312Y80D01*
X314Y80D01*
X314Y82D01*
X316Y82D01*
X316Y84D01*
X318Y84D01*
X318Y86D01*
X322Y86D01*
X322Y88D01*
X324Y88D01*
X324Y90D01*
X328Y90D01*
X328Y92D01*
X334Y92D01*
X334Y94D01*
X340Y94D01*
X340Y96D01*
X228Y96D01*
G37*
D02*
G36*
X686Y88D02*
X686Y68D01*
X688Y68D01*
X688Y66D01*
X690Y66D01*
X690Y60D01*
X692Y60D01*
X692Y42D01*
X776Y42D01*
X776Y50D01*
X778Y50D01*
X778Y60D01*
X780Y60D01*
X780Y66D01*
X782Y66D01*
X782Y88D01*
X686Y88D01*
G37*
D02*
G36*
X986Y88D02*
X986Y68D01*
X988Y68D01*
X988Y66D01*
X990Y66D01*
X990Y60D01*
X992Y60D01*
X992Y42D01*
X1076Y42D01*
X1076Y50D01*
X1078Y50D01*
X1078Y60D01*
X1080Y60D01*
X1080Y66D01*
X1082Y66D01*
X1082Y88D01*
X986Y88D01*
G37*
D02*
G36*
X1164Y88D02*
X1164Y68D01*
X1166Y68D01*
X1166Y66D01*
X1168Y66D01*
X1168Y60D01*
X1170Y60D01*
X1170Y42D01*
X1382Y42D01*
X1382Y88D01*
X1164Y88D01*
G37*
D02*
G36*
X1342Y554D02*
X1372Y554D01*
X1372Y511D01*
X1342Y511D01*
X1342Y554D01*
G37*
D02*
G36*
X1172Y1054D02*
X1200Y1054D01*
X1200Y1011D01*
X1172Y1011D01*
X1172Y1054D01*
G37*
D02*
G36*
X1342Y854D02*
X1372Y854D01*
X1372Y811D01*
X1342Y811D01*
X1342Y854D01*
G37*
D02*
G36*
X922Y288D02*
X965Y288D01*
X965Y258D01*
X922Y258D01*
X922Y288D01*
G37*
D02*
G36*
X962Y328D02*
X992Y328D01*
X992Y285D01*
X962Y285D01*
X962Y328D01*
G37*
D02*
G36*
X622Y288D02*
X665Y288D01*
X665Y258D01*
X622Y258D01*
X622Y288D01*
G37*
D02*
G36*
X662Y328D02*
X692Y328D01*
X692Y285D01*
X662Y285D01*
X662Y328D01*
G37*
D02*
G36*
X322Y288D02*
X365Y288D01*
X365Y258D01*
X322Y258D01*
X322Y288D01*
G37*
D02*
G36*
X362Y328D02*
X392Y328D01*
X392Y285D01*
X362Y285D01*
X362Y328D01*
G37*
D02*
G36*
X22Y356D02*
X65Y356D01*
X65Y326D01*
X22Y326D01*
X22Y356D01*
G37*
D02*
G36*
X22Y288D02*
X65Y288D01*
X65Y258D01*
X22Y258D01*
X22Y288D01*
G37*
D02*
G36*
X0Y328D02*
X24Y328D01*
X24Y285D01*
X0Y285D01*
X0Y328D01*
G37*
D02*
G36*
X62Y328D02*
X92Y328D01*
X92Y285D01*
X62Y285D01*
X62Y328D01*
G37*
D02*
G36*
X22Y806D02*
X65Y806D01*
X65Y776D01*
X22Y776D01*
X22Y806D01*
G37*
D02*
G36*
X22Y738D02*
X65Y738D01*
X65Y708D01*
X22Y708D01*
X22Y738D01*
G37*
D02*
G36*
X0Y778D02*
X24Y778D01*
X24Y735D01*
X0Y735D01*
X0Y778D01*
G37*
D02*
G36*
X322Y806D02*
X365Y806D01*
X365Y776D01*
X322Y776D01*
X322Y806D01*
G37*
D02*
G36*
X322Y738D02*
X365Y738D01*
X365Y708D01*
X322Y708D01*
X322Y738D01*
G37*
D02*
G36*
X362Y778D02*
X392Y778D01*
X392Y735D01*
X362Y735D01*
X362Y778D01*
G37*
D02*
G36*
X622Y738D02*
X665Y738D01*
X665Y708D01*
X622Y708D01*
X622Y738D01*
G37*
D02*
G36*
X662Y778D02*
X692Y778D01*
X692Y735D01*
X662Y735D01*
X662Y778D01*
G37*
D02*
G36*
X962Y778D02*
X992Y778D01*
X992Y735D01*
X962Y735D01*
X962Y778D01*
G37*
D02*
G36*
X322Y1188D02*
X365Y1188D01*
X365Y1158D01*
X322Y1158D01*
X322Y1188D01*
G37*
D02*
G36*
X622Y1188D02*
X665Y1188D01*
X665Y1158D01*
X622Y1158D01*
X622Y1188D01*
G37*
D02*
G36*
X662Y1228D02*
X692Y1228D01*
X692Y1185D01*
X662Y1185D01*
X662Y1228D01*
G37*
D02*
G36*
X962Y1228D02*
X992Y1228D01*
X992Y1185D01*
X962Y1185D01*
X962Y1228D01*
G37*
D02*
G36*
X225Y1572D02*
X258Y1572D01*
X258Y1548D01*
X225Y1548D01*
X225Y1572D01*
G37*
D02*
G36*
X225Y1514D02*
X258Y1514D01*
X258Y1492D01*
X225Y1492D01*
X225Y1514D01*
G37*
D02*
G36*
X202Y1547D02*
X224Y1547D01*
X224Y1514D01*
X202Y1514D01*
X202Y1547D01*
G37*
D02*
G36*
X258Y1547D02*
X280Y1547D01*
X280Y1514D01*
X258Y1514D01*
X258Y1547D01*
G37*
D02*
G36*
X1178Y1599D02*
X1206Y1599D01*
X1206Y1562D01*
X1178Y1562D01*
X1178Y1599D01*
G37*
D02*
G04 End of Copper0*
M02*