G04 MADE WITH FRITZING*
G04 WWW.FRITZING.ORG*
G04 DOUBLE SIDED*
G04 HOLES PLATED*
G04 CONTOUR ON CENTER OF CONTOUR VECTOR*
%ASAXBY*%
%FSLAX23Y23*%
%MOIN*%
%OFA0B0*%
%SFA1.0B1.0*%
%ADD10C,0.472568X0.456568*%
%ADD11C,0.108000X0.092*%
%ADD12C,0.148000X0.132*%
%ADD13C,0.010000*%
%ADD14C,0.005000*%
%ADD15C,0.008000*%
%ADD16R,0.001000X0.001000*%
%LNSILK1*%
G90*
G70*
G54D10*
X371Y1529D03*
G54D11*
X371Y1529D03*
G54D12*
X135Y626D03*
X135Y176D03*
X435Y176D03*
X435Y626D03*
X435Y1076D03*
X735Y176D03*
X735Y626D03*
X735Y1076D03*
X1035Y176D03*
X1035Y626D03*
X1035Y1076D03*
G54D13*
X1274Y1680D02*
X1224Y1680D01*
D02*
X1224Y1680D02*
X1224Y1730D01*
D02*
X1224Y1730D02*
X1274Y1730D01*
D02*
X1274Y1730D02*
X1274Y1680D01*
D02*
X149Y1204D02*
X149Y904D01*
D02*
X149Y904D02*
X249Y904D01*
D02*
X249Y904D02*
X249Y1204D01*
D02*
X249Y1204D02*
X149Y1204D01*
G54D14*
D02*
X149Y1169D02*
X184Y1204D01*
G54D15*
D02*
X255Y541D02*
X255Y711D01*
D02*
X15Y711D02*
X15Y541D01*
D02*
X174Y506D02*
X95Y506D01*
D02*
X175Y746D02*
X95Y746D01*
D02*
X255Y91D02*
X255Y261D01*
D02*
X15Y261D02*
X15Y91D01*
D02*
X174Y56D02*
X95Y56D01*
D02*
X175Y296D02*
X95Y296D01*
D02*
X555Y91D02*
X555Y261D01*
D02*
X315Y261D02*
X315Y91D01*
D02*
X474Y56D02*
X395Y56D01*
D02*
X475Y296D02*
X395Y296D01*
D02*
X555Y541D02*
X555Y711D01*
D02*
X315Y711D02*
X315Y541D01*
D02*
X474Y506D02*
X395Y506D01*
D02*
X475Y746D02*
X395Y746D01*
D02*
X555Y991D02*
X555Y1161D01*
D02*
X315Y1161D02*
X315Y991D01*
D02*
X474Y956D02*
X395Y956D01*
D02*
X475Y1196D02*
X395Y1196D01*
D02*
X855Y91D02*
X855Y261D01*
D02*
X615Y261D02*
X615Y91D01*
D02*
X774Y56D02*
X695Y56D01*
D02*
X775Y296D02*
X695Y296D01*
D02*
X855Y541D02*
X855Y711D01*
D02*
X615Y711D02*
X615Y541D01*
D02*
X774Y506D02*
X695Y506D01*
D02*
X775Y746D02*
X695Y746D01*
D02*
X855Y991D02*
X855Y1161D01*
D02*
X615Y1161D02*
X615Y991D01*
D02*
X774Y956D02*
X695Y956D01*
D02*
X775Y1196D02*
X695Y1196D01*
D02*
X1155Y91D02*
X1155Y261D01*
D02*
X915Y261D02*
X915Y91D01*
D02*
X1074Y56D02*
X995Y56D01*
D02*
X1075Y296D02*
X995Y296D01*
D02*
X1155Y541D02*
X1155Y711D01*
D02*
X915Y711D02*
X915Y541D01*
D02*
X1074Y506D02*
X995Y506D01*
D02*
X1075Y746D02*
X995Y746D01*
D02*
X1155Y991D02*
X1155Y1161D01*
D02*
X915Y1161D02*
X915Y991D01*
D02*
X1074Y956D02*
X995Y956D01*
D02*
X1075Y1196D02*
X995Y1196D01*
G36*
X978Y1526D02*
X976Y1526D01*
X976Y1531D01*
X975Y1531D01*
X975Y1534D01*
X973Y1534D01*
X973Y1537D01*
X972Y1537D01*
X972Y1538D01*
X970Y1538D01*
X970Y1540D01*
X969Y1540D01*
X969Y1541D01*
X967Y1541D01*
X967Y1543D01*
X965Y1543D01*
X965Y1544D01*
X964Y1544D01*
X964Y1546D01*
X961Y1546D01*
X961Y1547D01*
X956Y1547D01*
X956Y1549D01*
X952Y1549D01*
X952Y1550D01*
X950Y1550D01*
X950Y1553D01*
X949Y1553D01*
X949Y1556D01*
X947Y1556D01*
X947Y1559D01*
X946Y1559D01*
X946Y1564D01*
X944Y1564D01*
X944Y1567D01*
X943Y1567D01*
X943Y1568D01*
X941Y1568D01*
X941Y1571D01*
X940Y1571D01*
X940Y1573D01*
X938Y1573D01*
X938Y1575D01*
X937Y1575D01*
X937Y1578D01*
X935Y1578D01*
X935Y1579D01*
X934Y1579D01*
X934Y1582D01*
X932Y1582D01*
X932Y1584D01*
X931Y1584D01*
X931Y1585D01*
X929Y1585D01*
X929Y1587D01*
X928Y1587D01*
X928Y1588D01*
X926Y1588D01*
X926Y1505D01*
X925Y1505D01*
X925Y1501D01*
X923Y1501D01*
X923Y1498D01*
X922Y1498D01*
X922Y1490D01*
X920Y1490D01*
X920Y1487D01*
X919Y1487D01*
X919Y1485D01*
X917Y1485D01*
X917Y1482D01*
X916Y1482D01*
X916Y1481D01*
X914Y1481D01*
X914Y1479D01*
X913Y1479D01*
X913Y1476D01*
X911Y1476D01*
X911Y1475D01*
X910Y1475D01*
X910Y1473D01*
X908Y1473D01*
X908Y1472D01*
X907Y1472D01*
X907Y1470D01*
X905Y1470D01*
X905Y1469D01*
X904Y1469D01*
X904Y1467D01*
X901Y1467D01*
X901Y1466D01*
X899Y1466D01*
X899Y1464D01*
X898Y1464D01*
X898Y1463D01*
X895Y1463D01*
X895Y1461D01*
X892Y1461D01*
X892Y1460D01*
X887Y1460D01*
X887Y1458D01*
X884Y1458D01*
X884Y1457D01*
X879Y1457D01*
X879Y1455D01*
X875Y1455D01*
X875Y1454D01*
X861Y1454D01*
X861Y1452D01*
X833Y1452D01*
X833Y1451D01*
X819Y1451D01*
X819Y1449D01*
X810Y1449D01*
X810Y1448D01*
X795Y1448D01*
X795Y1446D01*
X790Y1446D01*
X790Y1445D01*
X784Y1445D01*
X784Y1443D01*
X780Y1443D01*
X780Y1442D01*
X775Y1442D01*
X775Y1440D01*
X771Y1440D01*
X771Y1439D01*
X768Y1439D01*
X768Y1437D01*
X763Y1437D01*
X763Y1436D01*
X759Y1436D01*
X759Y1434D01*
X754Y1434D01*
X754Y1433D01*
X751Y1433D01*
X751Y1431D01*
X748Y1431D01*
X748Y1430D01*
X745Y1430D01*
X745Y1428D01*
X744Y1428D01*
X744Y1427D01*
X741Y1427D01*
X741Y1425D01*
X739Y1425D01*
X739Y1424D01*
X736Y1424D01*
X736Y1422D01*
X732Y1422D01*
X732Y1421D01*
X730Y1421D01*
X730Y1419D01*
X729Y1419D01*
X729Y1418D01*
X727Y1418D01*
X727Y1416D01*
X726Y1416D01*
X726Y1415D01*
X724Y1415D01*
X724Y1413D01*
X721Y1413D01*
X721Y1411D01*
X719Y1411D01*
X719Y1410D01*
X718Y1410D01*
X718Y1408D01*
X716Y1408D01*
X716Y1405D01*
X713Y1405D01*
X713Y1404D01*
X712Y1404D01*
X712Y1402D01*
X710Y1402D01*
X710Y1401D01*
X706Y1401D01*
X706Y1399D01*
X698Y1399D01*
X698Y1371D01*
X710Y1371D01*
X710Y1372D01*
X718Y1372D01*
X718Y1374D01*
X721Y1374D01*
X721Y1375D01*
X722Y1375D01*
X722Y1377D01*
X726Y1377D01*
X726Y1378D01*
X729Y1378D01*
X729Y1380D01*
X730Y1380D01*
X730Y1381D01*
X732Y1381D01*
X732Y1383D01*
X733Y1383D01*
X733Y1384D01*
X735Y1384D01*
X735Y1386D01*
X738Y1386D01*
X738Y1387D01*
X739Y1387D01*
X739Y1389D01*
X741Y1389D01*
X741Y1390D01*
X742Y1390D01*
X742Y1392D01*
X744Y1392D01*
X744Y1395D01*
X747Y1395D01*
X747Y1396D01*
X748Y1396D01*
X748Y1398D01*
X753Y1398D01*
X753Y1399D01*
X754Y1399D01*
X754Y1401D01*
X756Y1401D01*
X756Y1402D01*
X759Y1402D01*
X759Y1404D01*
X762Y1404D01*
X762Y1405D01*
X765Y1405D01*
X765Y1407D01*
X768Y1407D01*
X768Y1408D01*
X771Y1408D01*
X771Y1410D01*
X778Y1410D01*
X778Y1411D01*
X783Y1411D01*
X783Y1413D01*
X787Y1413D01*
X787Y1415D01*
X793Y1415D01*
X793Y1416D01*
X798Y1416D01*
X798Y1418D01*
X804Y1418D01*
X804Y1419D01*
X812Y1419D01*
X812Y1421D01*
X821Y1421D01*
X821Y1422D01*
X836Y1422D01*
X836Y1424D01*
X876Y1424D01*
X876Y1425D01*
X882Y1425D01*
X882Y1427D01*
X887Y1427D01*
X887Y1428D01*
X892Y1428D01*
X892Y1430D01*
X896Y1430D01*
X896Y1431D01*
X898Y1431D01*
X898Y1433D01*
X902Y1433D01*
X902Y1434D01*
X905Y1434D01*
X905Y1436D01*
X908Y1436D01*
X908Y1437D01*
X911Y1437D01*
X911Y1439D01*
X913Y1439D01*
X913Y1440D01*
X916Y1440D01*
X916Y1442D01*
X917Y1442D01*
X917Y1443D01*
X919Y1443D01*
X919Y1445D01*
X920Y1445D01*
X920Y1446D01*
X922Y1446D01*
X922Y1448D01*
X925Y1448D01*
X925Y1449D01*
X926Y1449D01*
X926Y1451D01*
X928Y1451D01*
X928Y1452D01*
X929Y1452D01*
X929Y1454D01*
X931Y1454D01*
X931Y1455D01*
X932Y1455D01*
X932Y1457D01*
X934Y1457D01*
X934Y1460D01*
X935Y1460D01*
X935Y1461D01*
X937Y1461D01*
X937Y1463D01*
X938Y1463D01*
X938Y1464D01*
X940Y1464D01*
X940Y1467D01*
X941Y1467D01*
X941Y1469D01*
X943Y1469D01*
X943Y1472D01*
X944Y1472D01*
X944Y1473D01*
X946Y1473D01*
X946Y1478D01*
X947Y1478D01*
X947Y1482D01*
X949Y1482D01*
X949Y1485D01*
X950Y1485D01*
X950Y1488D01*
X955Y1488D01*
X955Y1490D01*
X959Y1490D01*
X959Y1491D01*
X961Y1491D01*
X961Y1493D01*
X964Y1493D01*
X964Y1495D01*
X965Y1495D01*
X965Y1496D01*
X969Y1496D01*
X969Y1498D01*
X970Y1498D01*
X970Y1499D01*
X972Y1499D01*
X972Y1502D01*
X973Y1502D01*
X973Y1505D01*
X975Y1505D01*
X975Y1508D01*
X976Y1508D01*
X976Y1511D01*
X978Y1511D01*
X978Y1526D01*
G37*
D02*
G36*
X926Y1588D02*
X925Y1588D01*
X925Y1590D01*
X923Y1590D01*
X923Y1591D01*
X922Y1591D01*
X922Y1593D01*
X920Y1593D01*
X920Y1594D01*
X919Y1594D01*
X919Y1596D01*
X917Y1596D01*
X917Y1597D01*
X914Y1597D01*
X914Y1599D01*
X911Y1599D01*
X911Y1600D01*
X910Y1600D01*
X910Y1602D01*
X907Y1602D01*
X907Y1603D01*
X905Y1603D01*
X905Y1605D01*
X901Y1605D01*
X901Y1606D01*
X898Y1606D01*
X898Y1608D01*
X895Y1608D01*
X895Y1609D01*
X892Y1609D01*
X892Y1611D01*
X882Y1611D01*
X882Y1612D01*
X876Y1612D01*
X876Y1614D01*
X860Y1614D01*
X860Y1615D01*
X834Y1615D01*
X834Y1617D01*
X821Y1617D01*
X821Y1618D01*
X812Y1618D01*
X812Y1620D01*
X804Y1620D01*
X804Y1621D01*
X798Y1621D01*
X798Y1623D01*
X787Y1623D01*
X787Y1624D01*
X783Y1624D01*
X783Y1626D01*
X780Y1626D01*
X780Y1627D01*
X775Y1627D01*
X775Y1629D01*
X771Y1629D01*
X771Y1630D01*
X768Y1630D01*
X768Y1632D01*
X765Y1632D01*
X765Y1633D01*
X762Y1633D01*
X762Y1635D01*
X759Y1635D01*
X759Y1636D01*
X756Y1636D01*
X756Y1638D01*
X753Y1638D01*
X753Y1639D01*
X750Y1639D01*
X750Y1641D01*
X748Y1641D01*
X748Y1642D01*
X745Y1642D01*
X745Y1644D01*
X744Y1644D01*
X744Y1647D01*
X742Y1647D01*
X742Y1648D01*
X739Y1648D01*
X739Y1650D01*
X738Y1650D01*
X738Y1651D01*
X736Y1651D01*
X736Y1653D01*
X735Y1653D01*
X735Y1655D01*
X733Y1655D01*
X733Y1656D01*
X732Y1656D01*
X732Y1658D01*
X730Y1658D01*
X730Y1659D01*
X729Y1659D01*
X729Y1661D01*
X724Y1661D01*
X724Y1662D01*
X721Y1662D01*
X721Y1664D01*
X718Y1664D01*
X718Y1665D01*
X713Y1665D01*
X713Y1667D01*
X710Y1667D01*
X710Y1668D01*
X698Y1668D01*
X698Y1638D01*
X706Y1638D01*
X706Y1636D01*
X712Y1636D01*
X712Y1635D01*
X713Y1635D01*
X713Y1633D01*
X715Y1633D01*
X715Y1632D01*
X716Y1632D01*
X716Y1630D01*
X718Y1630D01*
X718Y1627D01*
X719Y1627D01*
X719Y1626D01*
X722Y1626D01*
X722Y1624D01*
X724Y1624D01*
X724Y1623D01*
X727Y1623D01*
X727Y1621D01*
X729Y1621D01*
X729Y1620D01*
X730Y1620D01*
X730Y1618D01*
X732Y1618D01*
X732Y1617D01*
X735Y1617D01*
X735Y1615D01*
X736Y1615D01*
X736Y1614D01*
X739Y1614D01*
X739Y1612D01*
X742Y1612D01*
X742Y1611D01*
X745Y1611D01*
X745Y1609D01*
X748Y1609D01*
X748Y1608D01*
X751Y1608D01*
X751Y1606D01*
X754Y1606D01*
X754Y1605D01*
X756Y1605D01*
X756Y1603D01*
X760Y1603D01*
X760Y1602D01*
X765Y1602D01*
X765Y1600D01*
X768Y1600D01*
X768Y1599D01*
X775Y1599D01*
X775Y1597D01*
X780Y1597D01*
X780Y1596D01*
X784Y1596D01*
X784Y1594D01*
X790Y1594D01*
X790Y1593D01*
X795Y1593D01*
X795Y1591D01*
X804Y1591D01*
X804Y1590D01*
X810Y1590D01*
X810Y1588D01*
X819Y1588D01*
X819Y1587D01*
X858Y1587D01*
X858Y1585D01*
X875Y1585D01*
X875Y1584D01*
X879Y1584D01*
X879Y1582D01*
X882Y1582D01*
X882Y1581D01*
X887Y1581D01*
X887Y1579D01*
X890Y1579D01*
X890Y1578D01*
X893Y1578D01*
X893Y1576D01*
X896Y1576D01*
X896Y1575D01*
X899Y1575D01*
X899Y1573D01*
X901Y1573D01*
X901Y1571D01*
X902Y1571D01*
X902Y1570D01*
X905Y1570D01*
X905Y1568D01*
X907Y1568D01*
X907Y1567D01*
X908Y1567D01*
X908Y1565D01*
X910Y1565D01*
X910Y1562D01*
X911Y1562D01*
X911Y1561D01*
X913Y1561D01*
X913Y1559D01*
X914Y1559D01*
X914Y1558D01*
X916Y1558D01*
X916Y1556D01*
X917Y1556D01*
X917Y1553D01*
X919Y1553D01*
X919Y1550D01*
X920Y1550D01*
X920Y1547D01*
X922Y1547D01*
X922Y1541D01*
X923Y1541D01*
X923Y1537D01*
X925Y1537D01*
X925Y1534D01*
X926Y1534D01*
X926Y1588D01*
G37*
D02*
G36*
X698Y1668D02*
X697Y1668D01*
X697Y1371D01*
X698Y1371D01*
X698Y1668D01*
G37*
D02*
G36*
X698Y1668D02*
X697Y1668D01*
X697Y1371D01*
X698Y1371D01*
X698Y1668D01*
G37*
D02*
G36*
X697Y1668D02*
X691Y1668D01*
X691Y1667D01*
X688Y1667D01*
X688Y1665D01*
X685Y1665D01*
X685Y1664D01*
X682Y1664D01*
X682Y1662D01*
X680Y1662D01*
X680Y1661D01*
X677Y1661D01*
X677Y1658D01*
X676Y1658D01*
X676Y1656D01*
X674Y1656D01*
X674Y1655D01*
X673Y1655D01*
X673Y1651D01*
X671Y1651D01*
X671Y1650D01*
X670Y1650D01*
X670Y1645D01*
X668Y1645D01*
X668Y1550D01*
X667Y1550D01*
X667Y1549D01*
X658Y1549D01*
X658Y1547D01*
X653Y1547D01*
X653Y1546D01*
X650Y1546D01*
X650Y1544D01*
X649Y1544D01*
X649Y1543D01*
X647Y1543D01*
X647Y1541D01*
X644Y1541D01*
X644Y1538D01*
X642Y1538D01*
X642Y1537D01*
X641Y1537D01*
X641Y1534D01*
X639Y1534D01*
X639Y1531D01*
X638Y1531D01*
X638Y1526D01*
X636Y1526D01*
X636Y1511D01*
X638Y1511D01*
X638Y1507D01*
X639Y1507D01*
X639Y1505D01*
X641Y1505D01*
X641Y1502D01*
X642Y1502D01*
X642Y1499D01*
X644Y1499D01*
X644Y1498D01*
X646Y1498D01*
X646Y1496D01*
X649Y1496D01*
X649Y1495D01*
X650Y1495D01*
X650Y1493D01*
X653Y1493D01*
X653Y1491D01*
X655Y1491D01*
X655Y1490D01*
X659Y1490D01*
X659Y1488D01*
X667Y1488D01*
X667Y1487D01*
X668Y1487D01*
X668Y1393D01*
X670Y1393D01*
X670Y1389D01*
X671Y1389D01*
X671Y1386D01*
X673Y1386D01*
X673Y1384D01*
X674Y1384D01*
X674Y1383D01*
X676Y1383D01*
X676Y1380D01*
X677Y1380D01*
X677Y1378D01*
X679Y1378D01*
X679Y1377D01*
X680Y1377D01*
X680Y1375D01*
X682Y1375D01*
X682Y1374D01*
X685Y1374D01*
X685Y1372D01*
X691Y1372D01*
X691Y1371D01*
X697Y1371D01*
X697Y1668D01*
G37*
D02*
G36*
X824Y1540D02*
X822Y1540D01*
X822Y1555D01*
X821Y1555D01*
X821Y1559D01*
X819Y1559D01*
X819Y1565D01*
X818Y1565D01*
X818Y1567D01*
X816Y1567D01*
X816Y1568D01*
X815Y1568D01*
X815Y1570D01*
X813Y1570D01*
X813Y1571D01*
X809Y1571D01*
X809Y1547D01*
X807Y1547D01*
X807Y1505D01*
X793Y1505D01*
X793Y1507D01*
X775Y1507D01*
X775Y1508D01*
X765Y1508D01*
X765Y1510D01*
X727Y1510D01*
X727Y1485D01*
X729Y1485D01*
X729Y1487D01*
X730Y1487D01*
X730Y1490D01*
X732Y1490D01*
X732Y1491D01*
X735Y1491D01*
X735Y1493D01*
X741Y1493D01*
X741Y1495D01*
X766Y1495D01*
X766Y1493D01*
X783Y1493D01*
X783Y1491D01*
X796Y1491D01*
X796Y1490D01*
X807Y1490D01*
X807Y1461D01*
X824Y1461D01*
X824Y1540D01*
G37*
D02*
G36*
X809Y1573D02*
X804Y1573D01*
X804Y1575D01*
X799Y1575D01*
X799Y1576D01*
X796Y1576D01*
X796Y1578D01*
X793Y1578D01*
X793Y1579D01*
X790Y1579D01*
X790Y1578D01*
X792Y1578D01*
X792Y1576D01*
X793Y1576D01*
X793Y1575D01*
X798Y1575D01*
X798Y1573D01*
X799Y1573D01*
X799Y1571D01*
X801Y1571D01*
X801Y1570D01*
X802Y1570D01*
X802Y1568D01*
X804Y1568D01*
X804Y1567D01*
X806Y1567D01*
X806Y1564D01*
X807Y1564D01*
X807Y1553D01*
X809Y1553D01*
X809Y1573D01*
G37*
D02*
G36*
X807Y1543D02*
X790Y1543D01*
X790Y1544D01*
X778Y1544D01*
X778Y1546D01*
X772Y1546D01*
X772Y1547D01*
X763Y1547D01*
X763Y1549D01*
X759Y1549D01*
X759Y1550D01*
X756Y1550D01*
X756Y1552D01*
X753Y1552D01*
X753Y1553D01*
X750Y1553D01*
X750Y1555D01*
X747Y1555D01*
X747Y1556D01*
X744Y1556D01*
X744Y1558D01*
X742Y1558D01*
X742Y1559D01*
X741Y1559D01*
X741Y1561D01*
X736Y1561D01*
X736Y1562D01*
X735Y1562D01*
X735Y1564D01*
X733Y1564D01*
X733Y1565D01*
X730Y1565D01*
X730Y1568D01*
X727Y1568D01*
X727Y1570D01*
X724Y1570D01*
X724Y1571D01*
X721Y1571D01*
X721Y1570D01*
X718Y1570D01*
X718Y1568D01*
X715Y1568D01*
X715Y1567D01*
X713Y1567D01*
X713Y1565D01*
X712Y1565D01*
X712Y1562D01*
X710Y1562D01*
X710Y1552D01*
X712Y1552D01*
X712Y1550D01*
X713Y1550D01*
X713Y1549D01*
X715Y1549D01*
X715Y1547D01*
X718Y1547D01*
X718Y1546D01*
X719Y1546D01*
X719Y1544D01*
X722Y1544D01*
X722Y1543D01*
X729Y1543D01*
X729Y1541D01*
X733Y1541D01*
X733Y1540D01*
X744Y1540D01*
X744Y1538D01*
X756Y1538D01*
X756Y1537D01*
X784Y1537D01*
X784Y1535D01*
X802Y1535D01*
X802Y1534D01*
X807Y1534D01*
X807Y1543D01*
G37*
D02*
G36*
X742Y1464D02*
X736Y1464D01*
X736Y1466D01*
X733Y1466D01*
X733Y1467D01*
X732Y1467D01*
X732Y1469D01*
X730Y1469D01*
X730Y1472D01*
X729Y1472D01*
X729Y1473D01*
X727Y1473D01*
X727Y1466D01*
X729Y1466D01*
X729Y1464D01*
X733Y1464D01*
X733Y1463D01*
X738Y1463D01*
X738Y1461D01*
X742Y1461D01*
X742Y1464D01*
G37*
D02*
G36*
X727Y1510D02*
X726Y1510D01*
X726Y1466D01*
X727Y1466D01*
X727Y1510D01*
G37*
D02*
G36*
X727Y1510D02*
X726Y1510D01*
X726Y1466D01*
X727Y1466D01*
X727Y1510D01*
G37*
D02*
G36*
X726Y1510D02*
X724Y1510D01*
X724Y1508D01*
X721Y1508D01*
X721Y1507D01*
X718Y1507D01*
X718Y1504D01*
X716Y1504D01*
X716Y1502D01*
X715Y1502D01*
X715Y1501D01*
X713Y1501D01*
X713Y1499D01*
X712Y1499D01*
X712Y1496D01*
X710Y1496D01*
X710Y1481D01*
X712Y1481D01*
X712Y1478D01*
X713Y1478D01*
X713Y1475D01*
X715Y1475D01*
X715Y1473D01*
X716Y1473D01*
X716Y1472D01*
X718Y1472D01*
X718Y1470D01*
X721Y1470D01*
X721Y1469D01*
X722Y1469D01*
X722Y1467D01*
X726Y1467D01*
X726Y1510D01*
G37*
D02*
G54D16*
X0Y1776D02*
X1414Y1776D01*
X0Y1775D02*
X1414Y1775D01*
X0Y1774D02*
X1414Y1774D01*
X0Y1773D02*
X1414Y1773D01*
X0Y1772D02*
X1414Y1772D01*
X0Y1771D02*
X1414Y1771D01*
X0Y1770D02*
X1414Y1770D01*
X0Y1769D02*
X1414Y1769D01*
X0Y1768D02*
X7Y1768D01*
X1407Y1768D02*
X1414Y1768D01*
X0Y1767D02*
X7Y1767D01*
X1407Y1767D02*
X1414Y1767D01*
X0Y1766D02*
X7Y1766D01*
X1407Y1766D02*
X1414Y1766D01*
X0Y1765D02*
X7Y1765D01*
X1407Y1765D02*
X1414Y1765D01*
X0Y1764D02*
X7Y1764D01*
X1407Y1764D02*
X1414Y1764D01*
X0Y1763D02*
X7Y1763D01*
X1407Y1763D02*
X1414Y1763D01*
X0Y1762D02*
X7Y1762D01*
X1407Y1762D02*
X1414Y1762D01*
X0Y1761D02*
X7Y1761D01*
X1407Y1761D02*
X1414Y1761D01*
X0Y1760D02*
X7Y1760D01*
X1407Y1760D02*
X1414Y1760D01*
X0Y1759D02*
X7Y1759D01*
X1407Y1759D02*
X1414Y1759D01*
X0Y1758D02*
X7Y1758D01*
X1407Y1758D02*
X1414Y1758D01*
X0Y1757D02*
X7Y1757D01*
X1407Y1757D02*
X1414Y1757D01*
X0Y1756D02*
X7Y1756D01*
X1407Y1756D02*
X1414Y1756D01*
X0Y1755D02*
X7Y1755D01*
X996Y1755D02*
X1070Y1755D01*
X1407Y1755D02*
X1414Y1755D01*
X0Y1754D02*
X7Y1754D01*
X994Y1754D02*
X1070Y1754D01*
X1407Y1754D02*
X1414Y1754D01*
X0Y1753D02*
X7Y1753D01*
X993Y1753D02*
X1070Y1753D01*
X1407Y1753D02*
X1414Y1753D01*
X0Y1752D02*
X7Y1752D01*
X993Y1752D02*
X1070Y1752D01*
X1407Y1752D02*
X1414Y1752D01*
X0Y1751D02*
X7Y1751D01*
X89Y1751D02*
X111Y1751D01*
X993Y1751D02*
X1070Y1751D01*
X1407Y1751D02*
X1414Y1751D01*
X0Y1750D02*
X7Y1750D01*
X87Y1750D02*
X114Y1750D01*
X993Y1750D02*
X1070Y1750D01*
X1407Y1750D02*
X1414Y1750D01*
X0Y1749D02*
X7Y1749D01*
X86Y1749D02*
X115Y1749D01*
X993Y1749D02*
X1070Y1749D01*
X1407Y1749D02*
X1414Y1749D01*
X0Y1748D02*
X7Y1748D01*
X84Y1748D02*
X116Y1748D01*
X993Y1748D02*
X1070Y1748D01*
X1407Y1748D02*
X1414Y1748D01*
X0Y1747D02*
X7Y1747D01*
X83Y1747D02*
X118Y1747D01*
X994Y1747D02*
X1070Y1747D01*
X1407Y1747D02*
X1414Y1747D01*
X0Y1746D02*
X7Y1746D01*
X82Y1746D02*
X119Y1746D01*
X995Y1746D02*
X1070Y1746D01*
X1407Y1746D02*
X1414Y1746D01*
X0Y1745D02*
X7Y1745D01*
X81Y1745D02*
X120Y1745D01*
X1022Y1745D02*
X1032Y1745D01*
X1060Y1745D02*
X1070Y1745D01*
X1407Y1745D02*
X1414Y1745D01*
X0Y1744D02*
X7Y1744D01*
X79Y1744D02*
X90Y1744D01*
X111Y1744D02*
X122Y1744D01*
X1022Y1744D02*
X1031Y1744D01*
X1061Y1744D02*
X1070Y1744D01*
X1407Y1744D02*
X1414Y1744D01*
X0Y1743D02*
X7Y1743D01*
X78Y1743D02*
X89Y1743D01*
X112Y1743D02*
X123Y1743D01*
X1022Y1743D02*
X1031Y1743D01*
X1061Y1743D02*
X1070Y1743D01*
X1407Y1743D02*
X1414Y1743D01*
X0Y1742D02*
X7Y1742D01*
X77Y1742D02*
X87Y1742D01*
X114Y1742D02*
X124Y1742D01*
X1022Y1742D02*
X1031Y1742D01*
X1061Y1742D02*
X1070Y1742D01*
X1407Y1742D02*
X1414Y1742D01*
X0Y1741D02*
X7Y1741D01*
X76Y1741D02*
X86Y1741D01*
X115Y1741D02*
X125Y1741D01*
X1022Y1741D02*
X1031Y1741D01*
X1061Y1741D02*
X1070Y1741D01*
X1407Y1741D02*
X1414Y1741D01*
X0Y1740D02*
X7Y1740D01*
X75Y1740D02*
X85Y1740D01*
X116Y1740D02*
X126Y1740D01*
X1022Y1740D02*
X1031Y1740D01*
X1061Y1740D02*
X1070Y1740D01*
X1407Y1740D02*
X1414Y1740D01*
X0Y1739D02*
X7Y1739D01*
X74Y1739D02*
X83Y1739D01*
X117Y1739D02*
X127Y1739D01*
X1022Y1739D02*
X1031Y1739D01*
X1061Y1739D02*
X1070Y1739D01*
X1407Y1739D02*
X1414Y1739D01*
X0Y1738D02*
X7Y1738D01*
X74Y1738D02*
X82Y1738D01*
X119Y1738D02*
X127Y1738D01*
X1022Y1738D02*
X1031Y1738D01*
X1061Y1738D02*
X1070Y1738D01*
X1407Y1738D02*
X1414Y1738D01*
X0Y1737D02*
X7Y1737D01*
X74Y1737D02*
X81Y1737D01*
X120Y1737D02*
X127Y1737D01*
X1022Y1737D02*
X1031Y1737D01*
X1061Y1737D02*
X1070Y1737D01*
X1407Y1737D02*
X1414Y1737D01*
X0Y1736D02*
X7Y1736D01*
X75Y1736D02*
X80Y1736D01*
X121Y1736D02*
X126Y1736D01*
X1022Y1736D02*
X1031Y1736D01*
X1061Y1736D02*
X1070Y1736D01*
X1407Y1736D02*
X1414Y1736D01*
X0Y1735D02*
X7Y1735D01*
X76Y1735D02*
X78Y1735D01*
X123Y1735D02*
X125Y1735D01*
X1022Y1735D02*
X1031Y1735D01*
X1061Y1735D02*
X1070Y1735D01*
X1407Y1735D02*
X1414Y1735D01*
X0Y1734D02*
X7Y1734D01*
X1022Y1734D02*
X1031Y1734D01*
X1061Y1734D02*
X1070Y1734D01*
X1407Y1734D02*
X1414Y1734D01*
X0Y1733D02*
X7Y1733D01*
X1022Y1733D02*
X1031Y1733D01*
X1061Y1733D02*
X1070Y1733D01*
X1407Y1733D02*
X1414Y1733D01*
X0Y1732D02*
X7Y1732D01*
X1022Y1732D02*
X1031Y1732D01*
X1061Y1732D02*
X1070Y1732D01*
X1407Y1732D02*
X1414Y1732D01*
X0Y1731D02*
X7Y1731D01*
X1022Y1731D02*
X1031Y1731D01*
X1061Y1731D02*
X1070Y1731D01*
X1407Y1731D02*
X1414Y1731D01*
X0Y1730D02*
X7Y1730D01*
X1022Y1730D02*
X1031Y1730D01*
X1061Y1730D02*
X1070Y1730D01*
X1407Y1730D02*
X1414Y1730D01*
X0Y1729D02*
X7Y1729D01*
X1022Y1729D02*
X1031Y1729D01*
X1061Y1729D02*
X1070Y1729D01*
X1407Y1729D02*
X1414Y1729D01*
X0Y1728D02*
X7Y1728D01*
X1022Y1728D02*
X1031Y1728D01*
X1061Y1728D02*
X1070Y1728D01*
X1407Y1728D02*
X1414Y1728D01*
X0Y1727D02*
X7Y1727D01*
X1022Y1727D02*
X1031Y1727D01*
X1061Y1727D02*
X1070Y1727D01*
X1407Y1727D02*
X1414Y1727D01*
X0Y1726D02*
X7Y1726D01*
X1022Y1726D02*
X1031Y1726D01*
X1061Y1726D02*
X1070Y1726D01*
X1407Y1726D02*
X1414Y1726D01*
X0Y1725D02*
X7Y1725D01*
X1022Y1725D02*
X1031Y1725D01*
X1061Y1725D02*
X1070Y1725D01*
X1407Y1725D02*
X1414Y1725D01*
X0Y1724D02*
X7Y1724D01*
X1022Y1724D02*
X1031Y1724D01*
X1061Y1724D02*
X1070Y1724D01*
X1407Y1724D02*
X1414Y1724D01*
X0Y1723D02*
X7Y1723D01*
X1022Y1723D02*
X1031Y1723D01*
X1061Y1723D02*
X1070Y1723D01*
X1407Y1723D02*
X1414Y1723D01*
X0Y1722D02*
X7Y1722D01*
X1022Y1722D02*
X1031Y1722D01*
X1061Y1722D02*
X1070Y1722D01*
X1407Y1722D02*
X1414Y1722D01*
X0Y1721D02*
X7Y1721D01*
X1022Y1721D02*
X1031Y1721D01*
X1061Y1721D02*
X1070Y1721D01*
X1407Y1721D02*
X1414Y1721D01*
X0Y1720D02*
X7Y1720D01*
X1022Y1720D02*
X1032Y1720D01*
X1060Y1720D02*
X1070Y1720D01*
X1407Y1720D02*
X1414Y1720D01*
X0Y1719D02*
X7Y1719D01*
X1023Y1719D02*
X1032Y1719D01*
X1060Y1719D02*
X1069Y1719D01*
X1407Y1719D02*
X1414Y1719D01*
X0Y1718D02*
X7Y1718D01*
X1023Y1718D02*
X1032Y1718D01*
X1060Y1718D02*
X1069Y1718D01*
X1407Y1718D02*
X1414Y1718D01*
X0Y1717D02*
X7Y1717D01*
X1023Y1717D02*
X1033Y1717D01*
X1059Y1717D02*
X1069Y1717D01*
X1407Y1717D02*
X1414Y1717D01*
X0Y1716D02*
X7Y1716D01*
X1023Y1716D02*
X1035Y1716D01*
X1057Y1716D02*
X1069Y1716D01*
X1407Y1716D02*
X1414Y1716D01*
X0Y1715D02*
X7Y1715D01*
X1024Y1715D02*
X1068Y1715D01*
X1407Y1715D02*
X1414Y1715D01*
X0Y1714D02*
X7Y1714D01*
X1024Y1714D02*
X1068Y1714D01*
X1407Y1714D02*
X1414Y1714D01*
X0Y1713D02*
X7Y1713D01*
X1025Y1713D02*
X1067Y1713D01*
X1407Y1713D02*
X1414Y1713D01*
X0Y1712D02*
X7Y1712D01*
X1025Y1712D02*
X1067Y1712D01*
X1407Y1712D02*
X1414Y1712D01*
X0Y1711D02*
X7Y1711D01*
X85Y1711D02*
X101Y1711D01*
X1026Y1711D02*
X1066Y1711D01*
X1407Y1711D02*
X1414Y1711D01*
X0Y1710D02*
X7Y1710D01*
X83Y1710D02*
X103Y1710D01*
X1027Y1710D02*
X1065Y1710D01*
X1190Y1710D02*
X1223Y1710D01*
X1274Y1710D02*
X1305Y1710D01*
X1407Y1710D02*
X1414Y1710D01*
X0Y1709D02*
X7Y1709D01*
X82Y1709D02*
X104Y1709D01*
X1028Y1709D02*
X1064Y1709D01*
X1190Y1709D02*
X1223Y1709D01*
X1274Y1709D02*
X1305Y1709D01*
X1407Y1709D02*
X1414Y1709D01*
X0Y1708D02*
X7Y1708D01*
X81Y1708D02*
X105Y1708D01*
X1030Y1708D02*
X1063Y1708D01*
X1191Y1708D02*
X1223Y1708D01*
X1274Y1708D02*
X1305Y1708D01*
X1407Y1708D02*
X1414Y1708D01*
X0Y1707D02*
X7Y1707D01*
X80Y1707D02*
X106Y1707D01*
X1031Y1707D02*
X1061Y1707D01*
X1191Y1707D02*
X1223Y1707D01*
X1274Y1707D02*
X1305Y1707D01*
X1407Y1707D02*
X1414Y1707D01*
X0Y1706D02*
X7Y1706D01*
X79Y1706D02*
X107Y1706D01*
X1034Y1706D02*
X1058Y1706D01*
X1191Y1706D02*
X1223Y1706D01*
X1274Y1706D02*
X1305Y1706D01*
X1407Y1706D02*
X1414Y1706D01*
X0Y1705D02*
X7Y1705D01*
X79Y1705D02*
X108Y1705D01*
X1191Y1705D02*
X1223Y1705D01*
X1274Y1705D02*
X1305Y1705D01*
X1407Y1705D02*
X1414Y1705D01*
X0Y1704D02*
X7Y1704D01*
X78Y1704D02*
X86Y1704D01*
X100Y1704D02*
X109Y1704D01*
X1191Y1704D02*
X1223Y1704D01*
X1274Y1704D02*
X1305Y1704D01*
X1407Y1704D02*
X1414Y1704D01*
X0Y1703D02*
X7Y1703D01*
X77Y1703D02*
X85Y1703D01*
X101Y1703D02*
X110Y1703D01*
X1191Y1703D02*
X1223Y1703D01*
X1274Y1703D02*
X1305Y1703D01*
X1407Y1703D02*
X1414Y1703D01*
X0Y1702D02*
X7Y1702D01*
X76Y1702D02*
X84Y1702D01*
X102Y1702D02*
X110Y1702D01*
X1191Y1702D02*
X1223Y1702D01*
X1274Y1702D02*
X1305Y1702D01*
X1407Y1702D02*
X1414Y1702D01*
X0Y1701D02*
X7Y1701D01*
X75Y1701D02*
X83Y1701D01*
X103Y1701D02*
X111Y1701D01*
X1190Y1701D02*
X1223Y1701D01*
X1274Y1701D02*
X1305Y1701D01*
X1407Y1701D02*
X1414Y1701D01*
X0Y1700D02*
X7Y1700D01*
X75Y1700D02*
X83Y1700D01*
X104Y1700D02*
X111Y1700D01*
X1407Y1700D02*
X1414Y1700D01*
X0Y1699D02*
X7Y1699D01*
X74Y1699D02*
X82Y1699D01*
X104Y1699D02*
X112Y1699D01*
X1407Y1699D02*
X1414Y1699D01*
X0Y1698D02*
X7Y1698D01*
X74Y1698D02*
X81Y1698D01*
X105Y1698D02*
X112Y1698D01*
X1407Y1698D02*
X1414Y1698D01*
X0Y1697D02*
X7Y1697D01*
X74Y1697D02*
X80Y1697D01*
X106Y1697D02*
X112Y1697D01*
X1407Y1697D02*
X1414Y1697D01*
X0Y1696D02*
X7Y1696D01*
X74Y1696D02*
X80Y1696D01*
X106Y1696D02*
X112Y1696D01*
X1407Y1696D02*
X1414Y1696D01*
X0Y1695D02*
X7Y1695D01*
X74Y1695D02*
X80Y1695D01*
X106Y1695D02*
X112Y1695D01*
X1407Y1695D02*
X1414Y1695D01*
X0Y1694D02*
X7Y1694D01*
X74Y1694D02*
X80Y1694D01*
X106Y1694D02*
X112Y1694D01*
X1407Y1694D02*
X1414Y1694D01*
X0Y1693D02*
X7Y1693D01*
X74Y1693D02*
X80Y1693D01*
X106Y1693D02*
X112Y1693D01*
X1407Y1693D02*
X1414Y1693D01*
X0Y1692D02*
X7Y1692D01*
X74Y1692D02*
X80Y1692D01*
X106Y1692D02*
X112Y1692D01*
X1407Y1692D02*
X1414Y1692D01*
X0Y1691D02*
X7Y1691D01*
X74Y1691D02*
X80Y1691D01*
X106Y1691D02*
X112Y1691D01*
X1407Y1691D02*
X1414Y1691D01*
X0Y1690D02*
X7Y1690D01*
X74Y1690D02*
X80Y1690D01*
X106Y1690D02*
X112Y1690D01*
X1407Y1690D02*
X1414Y1690D01*
X0Y1689D02*
X7Y1689D01*
X74Y1689D02*
X80Y1689D01*
X106Y1689D02*
X112Y1689D01*
X1407Y1689D02*
X1414Y1689D01*
X0Y1688D02*
X7Y1688D01*
X74Y1688D02*
X80Y1688D01*
X106Y1688D02*
X112Y1688D01*
X1407Y1688D02*
X1414Y1688D01*
X0Y1687D02*
X7Y1687D01*
X74Y1687D02*
X80Y1687D01*
X106Y1687D02*
X112Y1687D01*
X1407Y1687D02*
X1414Y1687D01*
X0Y1686D02*
X7Y1686D01*
X74Y1686D02*
X80Y1686D01*
X106Y1686D02*
X112Y1686D01*
X1407Y1686D02*
X1414Y1686D01*
X0Y1685D02*
X7Y1685D01*
X74Y1685D02*
X80Y1685D01*
X106Y1685D02*
X112Y1685D01*
X1407Y1685D02*
X1414Y1685D01*
X0Y1684D02*
X7Y1684D01*
X74Y1684D02*
X80Y1684D01*
X106Y1684D02*
X112Y1684D01*
X1407Y1684D02*
X1414Y1684D01*
X0Y1683D02*
X7Y1683D01*
X74Y1683D02*
X80Y1683D01*
X106Y1683D02*
X112Y1683D01*
X1407Y1683D02*
X1414Y1683D01*
X0Y1682D02*
X7Y1682D01*
X74Y1682D02*
X80Y1682D01*
X106Y1682D02*
X112Y1682D01*
X1407Y1682D02*
X1414Y1682D01*
X0Y1681D02*
X7Y1681D01*
X74Y1681D02*
X80Y1681D01*
X106Y1681D02*
X112Y1681D01*
X1407Y1681D02*
X1414Y1681D01*
X0Y1680D02*
X7Y1680D01*
X74Y1680D02*
X80Y1680D01*
X106Y1680D02*
X112Y1680D01*
X1407Y1680D02*
X1414Y1680D01*
X0Y1679D02*
X7Y1679D01*
X75Y1679D02*
X79Y1679D01*
X107Y1679D02*
X112Y1679D01*
X1407Y1679D02*
X1414Y1679D01*
X0Y1678D02*
X7Y1678D01*
X76Y1678D02*
X78Y1678D01*
X108Y1678D02*
X111Y1678D01*
X996Y1678D02*
X998Y1678D01*
X1043Y1678D02*
X1045Y1678D01*
X1407Y1678D02*
X1414Y1678D01*
X0Y1677D02*
X7Y1677D01*
X995Y1677D02*
X1000Y1677D01*
X1041Y1677D02*
X1047Y1677D01*
X1407Y1677D02*
X1414Y1677D01*
X0Y1676D02*
X7Y1676D01*
X994Y1676D02*
X1001Y1676D01*
X1040Y1676D02*
X1047Y1676D01*
X1407Y1676D02*
X1414Y1676D01*
X0Y1675D02*
X7Y1675D01*
X993Y1675D02*
X1001Y1675D01*
X1040Y1675D02*
X1048Y1675D01*
X1407Y1675D02*
X1414Y1675D01*
X0Y1674D02*
X7Y1674D01*
X993Y1674D02*
X1002Y1674D01*
X1040Y1674D02*
X1048Y1674D01*
X1407Y1674D02*
X1414Y1674D01*
X0Y1673D02*
X7Y1673D01*
X993Y1673D02*
X1002Y1673D01*
X1039Y1673D02*
X1048Y1673D01*
X1407Y1673D02*
X1414Y1673D01*
X0Y1672D02*
X7Y1672D01*
X993Y1672D02*
X1002Y1672D01*
X1039Y1672D02*
X1048Y1672D01*
X1407Y1672D02*
X1414Y1672D01*
X0Y1671D02*
X7Y1671D01*
X993Y1671D02*
X1002Y1671D01*
X1039Y1671D02*
X1048Y1671D01*
X1407Y1671D02*
X1414Y1671D01*
X0Y1670D02*
X7Y1670D01*
X993Y1670D02*
X1002Y1670D01*
X1039Y1670D02*
X1048Y1670D01*
X1407Y1670D02*
X1414Y1670D01*
X0Y1669D02*
X7Y1669D01*
X993Y1669D02*
X1002Y1669D01*
X1039Y1669D02*
X1048Y1669D01*
X1407Y1669D02*
X1414Y1669D01*
X0Y1668D02*
X7Y1668D01*
X993Y1668D02*
X1002Y1668D01*
X1039Y1668D02*
X1048Y1668D01*
X1064Y1668D02*
X1071Y1668D01*
X1407Y1668D02*
X1414Y1668D01*
X0Y1667D02*
X7Y1667D01*
X993Y1667D02*
X1002Y1667D01*
X1039Y1667D02*
X1048Y1667D01*
X1062Y1667D02*
X1072Y1667D01*
X1407Y1667D02*
X1414Y1667D01*
X0Y1666D02*
X7Y1666D01*
X993Y1666D02*
X1002Y1666D01*
X1039Y1666D02*
X1048Y1666D01*
X1061Y1666D02*
X1073Y1666D01*
X1407Y1666D02*
X1414Y1666D01*
X0Y1665D02*
X7Y1665D01*
X993Y1665D02*
X1002Y1665D01*
X1039Y1665D02*
X1048Y1665D01*
X1061Y1665D02*
X1073Y1665D01*
X1407Y1665D02*
X1414Y1665D01*
X0Y1664D02*
X7Y1664D01*
X993Y1664D02*
X1002Y1664D01*
X1039Y1664D02*
X1048Y1664D01*
X1061Y1664D02*
X1074Y1664D01*
X1407Y1664D02*
X1414Y1664D01*
X0Y1663D02*
X7Y1663D01*
X993Y1663D02*
X1048Y1663D01*
X1061Y1663D02*
X1074Y1663D01*
X1407Y1663D02*
X1414Y1663D01*
X0Y1662D02*
X7Y1662D01*
X993Y1662D02*
X1048Y1662D01*
X1061Y1662D02*
X1074Y1662D01*
X1407Y1662D02*
X1414Y1662D01*
X0Y1661D02*
X7Y1661D01*
X993Y1661D02*
X1048Y1661D01*
X1061Y1661D02*
X1074Y1661D01*
X1407Y1661D02*
X1414Y1661D01*
X0Y1660D02*
X7Y1660D01*
X993Y1660D02*
X1048Y1660D01*
X1061Y1660D02*
X1074Y1660D01*
X1407Y1660D02*
X1414Y1660D01*
X0Y1659D02*
X7Y1659D01*
X993Y1659D02*
X1048Y1659D01*
X1061Y1659D02*
X1074Y1659D01*
X1265Y1659D02*
X1272Y1659D01*
X1407Y1659D02*
X1414Y1659D01*
X0Y1658D02*
X7Y1658D01*
X993Y1658D02*
X1048Y1658D01*
X1061Y1658D02*
X1074Y1658D01*
X1256Y1658D02*
X1281Y1658D01*
X1407Y1658D02*
X1414Y1658D01*
X0Y1657D02*
X7Y1657D01*
X993Y1657D02*
X1048Y1657D01*
X1061Y1657D02*
X1074Y1657D01*
X1250Y1657D02*
X1286Y1657D01*
X1407Y1657D02*
X1414Y1657D01*
X0Y1656D02*
X7Y1656D01*
X993Y1656D02*
X1048Y1656D01*
X1061Y1656D02*
X1073Y1656D01*
X1247Y1656D02*
X1290Y1656D01*
X1407Y1656D02*
X1414Y1656D01*
X0Y1655D02*
X7Y1655D01*
X993Y1655D02*
X1047Y1655D01*
X1062Y1655D02*
X1073Y1655D01*
X1243Y1655D02*
X1293Y1655D01*
X1407Y1655D02*
X1414Y1655D01*
X0Y1654D02*
X7Y1654D01*
X75Y1654D02*
X79Y1654D01*
X122Y1654D02*
X126Y1654D01*
X993Y1654D02*
X1046Y1654D01*
X1063Y1654D02*
X1071Y1654D01*
X1241Y1654D02*
X1261Y1654D01*
X1275Y1654D02*
X1296Y1654D01*
X1407Y1654D02*
X1414Y1654D01*
X0Y1653D02*
X7Y1653D01*
X74Y1653D02*
X80Y1653D01*
X121Y1653D02*
X127Y1653D01*
X993Y1653D02*
X1002Y1653D01*
X1238Y1653D02*
X1254Y1653D01*
X1282Y1653D02*
X1298Y1653D01*
X1407Y1653D02*
X1414Y1653D01*
X0Y1652D02*
X7Y1652D01*
X74Y1652D02*
X81Y1652D01*
X120Y1652D02*
X127Y1652D01*
X993Y1652D02*
X1002Y1652D01*
X1236Y1652D02*
X1249Y1652D01*
X1287Y1652D02*
X1301Y1652D01*
X1407Y1652D02*
X1414Y1652D01*
X0Y1651D02*
X7Y1651D01*
X74Y1651D02*
X83Y1651D01*
X118Y1651D02*
X127Y1651D01*
X993Y1651D02*
X1002Y1651D01*
X1234Y1651D02*
X1246Y1651D01*
X1290Y1651D02*
X1303Y1651D01*
X1407Y1651D02*
X1414Y1651D01*
X0Y1650D02*
X7Y1650D01*
X74Y1650D02*
X84Y1650D01*
X117Y1650D02*
X127Y1650D01*
X993Y1650D02*
X1002Y1650D01*
X1232Y1650D02*
X1243Y1650D01*
X1293Y1650D02*
X1305Y1650D01*
X1407Y1650D02*
X1414Y1650D01*
X0Y1649D02*
X7Y1649D01*
X75Y1649D02*
X85Y1649D01*
X116Y1649D02*
X126Y1649D01*
X993Y1649D02*
X1002Y1649D01*
X1230Y1649D02*
X1240Y1649D01*
X1296Y1649D02*
X1306Y1649D01*
X1407Y1649D02*
X1414Y1649D01*
X0Y1648D02*
X7Y1648D01*
X76Y1648D02*
X86Y1648D01*
X114Y1648D02*
X125Y1648D01*
X993Y1648D02*
X1002Y1648D01*
X1228Y1648D02*
X1238Y1648D01*
X1298Y1648D02*
X1308Y1648D01*
X1407Y1648D02*
X1414Y1648D01*
X0Y1647D02*
X7Y1647D01*
X77Y1647D02*
X88Y1647D01*
X113Y1647D02*
X124Y1647D01*
X993Y1647D02*
X1002Y1647D01*
X1226Y1647D02*
X1235Y1647D01*
X1300Y1647D02*
X1310Y1647D01*
X1407Y1647D02*
X1414Y1647D01*
X0Y1646D02*
X7Y1646D01*
X79Y1646D02*
X89Y1646D01*
X112Y1646D02*
X122Y1646D01*
X993Y1646D02*
X1002Y1646D01*
X1225Y1646D02*
X1234Y1646D01*
X1302Y1646D02*
X1311Y1646D01*
X1407Y1646D02*
X1414Y1646D01*
X0Y1645D02*
X7Y1645D01*
X80Y1645D02*
X91Y1645D01*
X110Y1645D02*
X121Y1645D01*
X993Y1645D02*
X1002Y1645D01*
X1223Y1645D02*
X1232Y1645D01*
X1304Y1645D02*
X1313Y1645D01*
X1407Y1645D02*
X1414Y1645D01*
X0Y1644D02*
X7Y1644D01*
X81Y1644D02*
X120Y1644D01*
X993Y1644D02*
X1002Y1644D01*
X1222Y1644D02*
X1230Y1644D01*
X1306Y1644D02*
X1314Y1644D01*
X1407Y1644D02*
X1414Y1644D01*
X0Y1643D02*
X7Y1643D01*
X82Y1643D02*
X118Y1643D01*
X993Y1643D02*
X1002Y1643D01*
X1221Y1643D02*
X1228Y1643D01*
X1308Y1643D02*
X1316Y1643D01*
X1407Y1643D02*
X1414Y1643D01*
X0Y1642D02*
X7Y1642D01*
X84Y1642D02*
X117Y1642D01*
X993Y1642D02*
X1001Y1642D01*
X1219Y1642D02*
X1227Y1642D01*
X1309Y1642D02*
X1317Y1642D01*
X1407Y1642D02*
X1414Y1642D01*
X0Y1641D02*
X7Y1641D01*
X85Y1641D02*
X116Y1641D01*
X993Y1641D02*
X1001Y1641D01*
X1218Y1641D02*
X1225Y1641D01*
X1311Y1641D02*
X1318Y1641D01*
X1407Y1641D02*
X1414Y1641D01*
X0Y1640D02*
X7Y1640D01*
X86Y1640D02*
X114Y1640D01*
X994Y1640D02*
X1000Y1640D01*
X1217Y1640D02*
X1224Y1640D01*
X1312Y1640D02*
X1319Y1640D01*
X1407Y1640D02*
X1414Y1640D01*
X0Y1639D02*
X7Y1639D01*
X88Y1639D02*
X113Y1639D01*
X995Y1639D02*
X999Y1639D01*
X1216Y1639D02*
X1223Y1639D01*
X1313Y1639D02*
X1320Y1639D01*
X1407Y1639D02*
X1414Y1639D01*
X0Y1638D02*
X7Y1638D01*
X91Y1638D02*
X110Y1638D01*
X1215Y1638D02*
X1221Y1638D01*
X1315Y1638D02*
X1322Y1638D01*
X1407Y1638D02*
X1414Y1638D01*
X0Y1637D02*
X7Y1637D01*
X1214Y1637D02*
X1220Y1637D01*
X1316Y1637D02*
X1323Y1637D01*
X1407Y1637D02*
X1414Y1637D01*
X0Y1636D02*
X7Y1636D01*
X1213Y1636D02*
X1219Y1636D01*
X1317Y1636D02*
X1324Y1636D01*
X1407Y1636D02*
X1414Y1636D01*
X0Y1635D02*
X7Y1635D01*
X1211Y1635D02*
X1218Y1635D01*
X1318Y1635D02*
X1325Y1635D01*
X1407Y1635D02*
X1414Y1635D01*
X0Y1634D02*
X7Y1634D01*
X1210Y1634D02*
X1217Y1634D01*
X1319Y1634D02*
X1326Y1634D01*
X1407Y1634D02*
X1414Y1634D01*
X0Y1633D02*
X7Y1633D01*
X508Y1633D02*
X508Y1633D01*
X1210Y1633D02*
X1216Y1633D01*
X1320Y1633D02*
X1327Y1633D01*
X1407Y1633D02*
X1414Y1633D01*
X0Y1632D02*
X7Y1632D01*
X506Y1632D02*
X510Y1632D01*
X1209Y1632D02*
X1215Y1632D01*
X1321Y1632D02*
X1327Y1632D01*
X1407Y1632D02*
X1414Y1632D01*
X0Y1631D02*
X7Y1631D01*
X505Y1631D02*
X511Y1631D01*
X1208Y1631D02*
X1214Y1631D01*
X1322Y1631D02*
X1328Y1631D01*
X1407Y1631D02*
X1414Y1631D01*
X0Y1630D02*
X7Y1630D01*
X504Y1630D02*
X512Y1630D01*
X1207Y1630D02*
X1213Y1630D01*
X1323Y1630D02*
X1329Y1630D01*
X1407Y1630D02*
X1414Y1630D01*
X0Y1629D02*
X7Y1629D01*
X504Y1629D02*
X512Y1629D01*
X1206Y1629D02*
X1212Y1629D01*
X1324Y1629D02*
X1330Y1629D01*
X1407Y1629D02*
X1414Y1629D01*
X0Y1628D02*
X7Y1628D01*
X504Y1628D02*
X512Y1628D01*
X1205Y1628D02*
X1211Y1628D01*
X1325Y1628D02*
X1331Y1628D01*
X1407Y1628D02*
X1414Y1628D01*
X0Y1627D02*
X7Y1627D01*
X504Y1627D02*
X512Y1627D01*
X1205Y1627D02*
X1210Y1627D01*
X1326Y1627D02*
X1331Y1627D01*
X1407Y1627D02*
X1414Y1627D01*
X0Y1626D02*
X7Y1626D01*
X504Y1626D02*
X512Y1626D01*
X1205Y1626D02*
X1209Y1626D01*
X1327Y1626D02*
X1332Y1626D01*
X1407Y1626D02*
X1414Y1626D01*
X0Y1625D02*
X7Y1625D01*
X504Y1625D02*
X512Y1625D01*
X1205Y1625D02*
X1209Y1625D01*
X1327Y1625D02*
X1333Y1625D01*
X1407Y1625D02*
X1414Y1625D01*
X0Y1624D02*
X7Y1624D01*
X504Y1624D02*
X512Y1624D01*
X1205Y1624D02*
X1209Y1624D01*
X1328Y1624D02*
X1333Y1624D01*
X1407Y1624D02*
X1414Y1624D01*
X0Y1623D02*
X7Y1623D01*
X504Y1623D02*
X512Y1623D01*
X1205Y1623D02*
X1209Y1623D01*
X1329Y1623D02*
X1334Y1623D01*
X1407Y1623D02*
X1414Y1623D01*
X0Y1622D02*
X7Y1622D01*
X504Y1622D02*
X512Y1622D01*
X1205Y1622D02*
X1209Y1622D01*
X1330Y1622D02*
X1335Y1622D01*
X1407Y1622D02*
X1414Y1622D01*
X0Y1621D02*
X7Y1621D01*
X504Y1621D02*
X512Y1621D01*
X1205Y1621D02*
X1209Y1621D01*
X1330Y1621D02*
X1335Y1621D01*
X1407Y1621D02*
X1414Y1621D01*
X0Y1620D02*
X7Y1620D01*
X504Y1620D02*
X512Y1620D01*
X1205Y1620D02*
X1209Y1620D01*
X1331Y1620D02*
X1336Y1620D01*
X1407Y1620D02*
X1414Y1620D01*
X0Y1619D02*
X7Y1619D01*
X504Y1619D02*
X512Y1619D01*
X1205Y1619D02*
X1209Y1619D01*
X1332Y1619D02*
X1336Y1619D01*
X1407Y1619D02*
X1414Y1619D01*
X0Y1618D02*
X7Y1618D01*
X504Y1618D02*
X512Y1618D01*
X1205Y1618D02*
X1209Y1618D01*
X1332Y1618D02*
X1335Y1618D01*
X1407Y1618D02*
X1414Y1618D01*
X0Y1617D02*
X7Y1617D01*
X504Y1617D02*
X512Y1617D01*
X1205Y1617D02*
X1209Y1617D01*
X1334Y1617D02*
X1334Y1617D01*
X1407Y1617D02*
X1414Y1617D01*
X0Y1616D02*
X7Y1616D01*
X504Y1616D02*
X512Y1616D01*
X1205Y1616D02*
X1209Y1616D01*
X1407Y1616D02*
X1414Y1616D01*
X0Y1615D02*
X7Y1615D01*
X490Y1615D02*
X526Y1615D01*
X1205Y1615D02*
X1209Y1615D01*
X1407Y1615D02*
X1414Y1615D01*
X0Y1614D02*
X7Y1614D01*
X488Y1614D02*
X529Y1614D01*
X1205Y1614D02*
X1209Y1614D01*
X1407Y1614D02*
X1414Y1614D01*
X0Y1613D02*
X7Y1613D01*
X487Y1613D02*
X529Y1613D01*
X1205Y1613D02*
X1208Y1613D01*
X1407Y1613D02*
X1414Y1613D01*
X0Y1612D02*
X7Y1612D01*
X486Y1612D02*
X530Y1612D01*
X1205Y1612D02*
X1206Y1612D01*
X1407Y1612D02*
X1414Y1612D01*
X0Y1611D02*
X7Y1611D01*
X74Y1611D02*
X78Y1611D01*
X123Y1611D02*
X125Y1611D01*
X486Y1611D02*
X530Y1611D01*
X1407Y1611D02*
X1414Y1611D01*
X0Y1610D02*
X7Y1610D01*
X74Y1610D02*
X80Y1610D01*
X122Y1610D02*
X126Y1610D01*
X486Y1610D02*
X530Y1610D01*
X993Y1610D02*
X1067Y1610D01*
X1407Y1610D02*
X1414Y1610D01*
X0Y1609D02*
X7Y1609D01*
X74Y1609D02*
X82Y1609D01*
X121Y1609D02*
X127Y1609D01*
X486Y1609D02*
X530Y1609D01*
X993Y1609D02*
X1068Y1609D01*
X1407Y1609D02*
X1414Y1609D01*
X0Y1608D02*
X7Y1608D01*
X74Y1608D02*
X84Y1608D01*
X121Y1608D02*
X127Y1608D01*
X487Y1608D02*
X529Y1608D01*
X993Y1608D02*
X1069Y1608D01*
X1407Y1608D02*
X1414Y1608D01*
X0Y1607D02*
X7Y1607D01*
X74Y1607D02*
X85Y1607D01*
X121Y1607D02*
X127Y1607D01*
X488Y1607D02*
X528Y1607D01*
X993Y1607D02*
X1069Y1607D01*
X1407Y1607D02*
X1414Y1607D01*
X0Y1606D02*
X7Y1606D01*
X74Y1606D02*
X87Y1606D01*
X121Y1606D02*
X127Y1606D01*
X490Y1606D02*
X526Y1606D01*
X993Y1606D02*
X1070Y1606D01*
X1407Y1606D02*
X1414Y1606D01*
X0Y1605D02*
X7Y1605D01*
X74Y1605D02*
X89Y1605D01*
X121Y1605D02*
X127Y1605D01*
X504Y1605D02*
X512Y1605D01*
X993Y1605D02*
X1069Y1605D01*
X1407Y1605D02*
X1414Y1605D01*
X0Y1604D02*
X7Y1604D01*
X74Y1604D02*
X90Y1604D01*
X121Y1604D02*
X127Y1604D01*
X504Y1604D02*
X512Y1604D01*
X993Y1604D02*
X1069Y1604D01*
X1407Y1604D02*
X1414Y1604D01*
X0Y1603D02*
X7Y1603D01*
X74Y1603D02*
X92Y1603D01*
X121Y1603D02*
X127Y1603D01*
X504Y1603D02*
X512Y1603D01*
X993Y1603D02*
X1069Y1603D01*
X1407Y1603D02*
X1414Y1603D01*
X0Y1602D02*
X7Y1602D01*
X74Y1602D02*
X94Y1602D01*
X121Y1602D02*
X127Y1602D01*
X504Y1602D02*
X512Y1602D01*
X993Y1602D02*
X1068Y1602D01*
X1407Y1602D02*
X1414Y1602D01*
X0Y1601D02*
X7Y1601D01*
X74Y1601D02*
X80Y1601D01*
X83Y1601D02*
X96Y1601D01*
X121Y1601D02*
X127Y1601D01*
X504Y1601D02*
X512Y1601D01*
X993Y1601D02*
X1066Y1601D01*
X1407Y1601D02*
X1414Y1601D01*
X0Y1600D02*
X7Y1600D01*
X74Y1600D02*
X80Y1600D01*
X84Y1600D02*
X97Y1600D01*
X121Y1600D02*
X127Y1600D01*
X504Y1600D02*
X512Y1600D01*
X993Y1600D02*
X1002Y1600D01*
X1407Y1600D02*
X1414Y1600D01*
X0Y1599D02*
X7Y1599D01*
X74Y1599D02*
X80Y1599D01*
X86Y1599D02*
X99Y1599D01*
X121Y1599D02*
X127Y1599D01*
X504Y1599D02*
X512Y1599D01*
X993Y1599D02*
X1002Y1599D01*
X1407Y1599D02*
X1414Y1599D01*
X0Y1598D02*
X7Y1598D01*
X24Y1598D02*
X36Y1598D01*
X74Y1598D02*
X80Y1598D01*
X88Y1598D02*
X101Y1598D01*
X121Y1598D02*
X127Y1598D01*
X504Y1598D02*
X512Y1598D01*
X993Y1598D02*
X1002Y1598D01*
X1407Y1598D02*
X1414Y1598D01*
X0Y1597D02*
X7Y1597D01*
X21Y1597D02*
X38Y1597D01*
X74Y1597D02*
X80Y1597D01*
X89Y1597D02*
X102Y1597D01*
X121Y1597D02*
X127Y1597D01*
X504Y1597D02*
X512Y1597D01*
X993Y1597D02*
X1002Y1597D01*
X1407Y1597D02*
X1414Y1597D01*
X0Y1596D02*
X7Y1596D01*
X19Y1596D02*
X39Y1596D01*
X74Y1596D02*
X80Y1596D01*
X91Y1596D02*
X104Y1596D01*
X121Y1596D02*
X127Y1596D01*
X504Y1596D02*
X512Y1596D01*
X993Y1596D02*
X1002Y1596D01*
X1407Y1596D02*
X1414Y1596D01*
X0Y1595D02*
X7Y1595D01*
X18Y1595D02*
X39Y1595D01*
X74Y1595D02*
X80Y1595D01*
X93Y1595D02*
X106Y1595D01*
X121Y1595D02*
X127Y1595D01*
X504Y1595D02*
X512Y1595D01*
X993Y1595D02*
X1002Y1595D01*
X1407Y1595D02*
X1414Y1595D01*
X0Y1594D02*
X7Y1594D01*
X17Y1594D02*
X39Y1594D01*
X74Y1594D02*
X80Y1594D01*
X95Y1594D02*
X107Y1594D01*
X121Y1594D02*
X127Y1594D01*
X504Y1594D02*
X512Y1594D01*
X993Y1594D02*
X1002Y1594D01*
X1407Y1594D02*
X1414Y1594D01*
X0Y1593D02*
X7Y1593D01*
X17Y1593D02*
X38Y1593D01*
X74Y1593D02*
X80Y1593D01*
X96Y1593D02*
X109Y1593D01*
X121Y1593D02*
X127Y1593D01*
X504Y1593D02*
X512Y1593D01*
X993Y1593D02*
X1002Y1593D01*
X1407Y1593D02*
X1414Y1593D01*
X0Y1592D02*
X7Y1592D01*
X16Y1592D02*
X37Y1592D01*
X74Y1592D02*
X80Y1592D01*
X98Y1592D02*
X111Y1592D01*
X121Y1592D02*
X127Y1592D01*
X504Y1592D02*
X512Y1592D01*
X993Y1592D02*
X1002Y1592D01*
X1407Y1592D02*
X1414Y1592D01*
X0Y1591D02*
X7Y1591D01*
X16Y1591D02*
X24Y1591D01*
X74Y1591D02*
X80Y1591D01*
X100Y1591D02*
X113Y1591D01*
X121Y1591D02*
X127Y1591D01*
X504Y1591D02*
X512Y1591D01*
X993Y1591D02*
X1002Y1591D01*
X1407Y1591D02*
X1414Y1591D01*
X0Y1590D02*
X7Y1590D01*
X15Y1590D02*
X22Y1590D01*
X74Y1590D02*
X80Y1590D01*
X101Y1590D02*
X114Y1590D01*
X121Y1590D02*
X127Y1590D01*
X505Y1590D02*
X511Y1590D01*
X993Y1590D02*
X1002Y1590D01*
X1407Y1590D02*
X1414Y1590D01*
X0Y1589D02*
X7Y1589D01*
X15Y1589D02*
X21Y1589D01*
X74Y1589D02*
X80Y1589D01*
X103Y1589D02*
X116Y1589D01*
X121Y1589D02*
X127Y1589D01*
X506Y1589D02*
X510Y1589D01*
X993Y1589D02*
X1002Y1589D01*
X1407Y1589D02*
X1414Y1589D01*
X0Y1588D02*
X7Y1588D01*
X15Y1588D02*
X21Y1588D01*
X74Y1588D02*
X80Y1588D01*
X105Y1588D02*
X118Y1588D01*
X121Y1588D02*
X127Y1588D01*
X508Y1588D02*
X508Y1588D01*
X993Y1588D02*
X1002Y1588D01*
X1407Y1588D02*
X1414Y1588D01*
X0Y1587D02*
X7Y1587D01*
X15Y1587D02*
X21Y1587D01*
X74Y1587D02*
X80Y1587D01*
X107Y1587D02*
X119Y1587D01*
X121Y1587D02*
X127Y1587D01*
X993Y1587D02*
X1002Y1587D01*
X1407Y1587D02*
X1414Y1587D01*
X0Y1586D02*
X7Y1586D01*
X15Y1586D02*
X21Y1586D01*
X74Y1586D02*
X80Y1586D01*
X108Y1586D02*
X127Y1586D01*
X993Y1586D02*
X1002Y1586D01*
X1407Y1586D02*
X1414Y1586D01*
X0Y1585D02*
X7Y1585D01*
X15Y1585D02*
X21Y1585D01*
X74Y1585D02*
X80Y1585D01*
X110Y1585D02*
X127Y1585D01*
X993Y1585D02*
X1002Y1585D01*
X1407Y1585D02*
X1414Y1585D01*
X0Y1584D02*
X7Y1584D01*
X15Y1584D02*
X21Y1584D01*
X74Y1584D02*
X80Y1584D01*
X112Y1584D02*
X127Y1584D01*
X993Y1584D02*
X1002Y1584D01*
X1407Y1584D02*
X1414Y1584D01*
X0Y1583D02*
X7Y1583D01*
X15Y1583D02*
X21Y1583D01*
X74Y1583D02*
X80Y1583D01*
X113Y1583D02*
X127Y1583D01*
X993Y1583D02*
X1002Y1583D01*
X1407Y1583D02*
X1414Y1583D01*
X0Y1582D02*
X7Y1582D01*
X15Y1582D02*
X21Y1582D01*
X74Y1582D02*
X80Y1582D01*
X115Y1582D02*
X127Y1582D01*
X993Y1582D02*
X1002Y1582D01*
X1407Y1582D02*
X1414Y1582D01*
X0Y1581D02*
X7Y1581D01*
X15Y1581D02*
X21Y1581D01*
X74Y1581D02*
X80Y1581D01*
X117Y1581D02*
X127Y1581D01*
X993Y1581D02*
X1002Y1581D01*
X1407Y1581D02*
X1414Y1581D01*
X0Y1580D02*
X7Y1580D01*
X15Y1580D02*
X21Y1580D01*
X74Y1580D02*
X80Y1580D01*
X118Y1580D02*
X127Y1580D01*
X993Y1580D02*
X1002Y1580D01*
X1407Y1580D02*
X1414Y1580D01*
X0Y1579D02*
X7Y1579D01*
X15Y1579D02*
X22Y1579D01*
X74Y1579D02*
X79Y1579D01*
X120Y1579D02*
X127Y1579D01*
X993Y1579D02*
X1002Y1579D01*
X1407Y1579D02*
X1414Y1579D01*
X0Y1578D02*
X7Y1578D01*
X16Y1578D02*
X23Y1578D01*
X75Y1578D02*
X79Y1578D01*
X122Y1578D02*
X127Y1578D01*
X993Y1578D02*
X1002Y1578D01*
X1407Y1578D02*
X1414Y1578D01*
X0Y1577D02*
X7Y1577D01*
X16Y1577D02*
X66Y1577D01*
X124Y1577D02*
X127Y1577D01*
X993Y1577D02*
X1002Y1577D01*
X1407Y1577D02*
X1414Y1577D01*
X0Y1576D02*
X7Y1576D01*
X16Y1576D02*
X68Y1576D01*
X993Y1576D02*
X1002Y1576D01*
X1407Y1576D02*
X1414Y1576D01*
X0Y1575D02*
X7Y1575D01*
X17Y1575D02*
X68Y1575D01*
X993Y1575D02*
X1002Y1575D01*
X1407Y1575D02*
X1414Y1575D01*
X0Y1574D02*
X7Y1574D01*
X18Y1574D02*
X68Y1574D01*
X993Y1574D02*
X1002Y1574D01*
X1407Y1574D02*
X1414Y1574D01*
X0Y1573D02*
X7Y1573D01*
X19Y1573D02*
X68Y1573D01*
X993Y1573D02*
X1002Y1573D01*
X1407Y1573D02*
X1414Y1573D01*
X0Y1572D02*
X7Y1572D01*
X20Y1572D02*
X68Y1572D01*
X993Y1572D02*
X1002Y1572D01*
X1407Y1572D02*
X1414Y1572D01*
X0Y1571D02*
X7Y1571D01*
X22Y1571D02*
X66Y1571D01*
X993Y1571D02*
X1002Y1571D01*
X1407Y1571D02*
X1414Y1571D01*
X0Y1570D02*
X7Y1570D01*
X993Y1570D02*
X1002Y1570D01*
X1407Y1570D02*
X1414Y1570D01*
X0Y1569D02*
X7Y1569D01*
X993Y1569D02*
X1002Y1569D01*
X1407Y1569D02*
X1414Y1569D01*
X0Y1568D02*
X7Y1568D01*
X993Y1568D02*
X1002Y1568D01*
X1407Y1568D02*
X1414Y1568D01*
X0Y1567D02*
X7Y1567D01*
X993Y1567D02*
X1002Y1567D01*
X1407Y1567D02*
X1414Y1567D01*
X0Y1566D02*
X7Y1566D01*
X993Y1566D02*
X1002Y1566D01*
X1407Y1566D02*
X1414Y1566D01*
X0Y1565D02*
X7Y1565D01*
X993Y1565D02*
X1002Y1565D01*
X1407Y1565D02*
X1414Y1565D01*
X0Y1564D02*
X7Y1564D01*
X993Y1564D02*
X1001Y1564D01*
X1407Y1564D02*
X1414Y1564D01*
X0Y1563D02*
X7Y1563D01*
X994Y1563D02*
X1001Y1563D01*
X1407Y1563D02*
X1414Y1563D01*
X0Y1562D02*
X7Y1562D01*
X995Y1562D02*
X999Y1562D01*
X1407Y1562D02*
X1414Y1562D01*
X0Y1561D02*
X7Y1561D01*
X1407Y1561D02*
X1414Y1561D01*
X0Y1560D02*
X7Y1560D01*
X1407Y1560D02*
X1414Y1560D01*
X0Y1559D02*
X7Y1559D01*
X1407Y1559D02*
X1414Y1559D01*
X0Y1558D02*
X7Y1558D01*
X1407Y1558D02*
X1414Y1558D01*
X0Y1557D02*
X7Y1557D01*
X1407Y1557D02*
X1414Y1557D01*
X0Y1556D02*
X7Y1556D01*
X1407Y1556D02*
X1414Y1556D01*
X0Y1555D02*
X7Y1555D01*
X1407Y1555D02*
X1414Y1555D01*
X0Y1554D02*
X7Y1554D01*
X1407Y1554D02*
X1414Y1554D01*
X0Y1553D02*
X7Y1553D01*
X1407Y1553D02*
X1414Y1553D01*
X0Y1552D02*
X7Y1552D01*
X1407Y1552D02*
X1414Y1552D01*
X0Y1551D02*
X7Y1551D01*
X86Y1551D02*
X92Y1551D01*
X1407Y1551D02*
X1414Y1551D01*
X0Y1550D02*
X7Y1550D01*
X84Y1550D02*
X94Y1550D01*
X1407Y1550D02*
X1414Y1550D01*
X0Y1549D02*
X7Y1549D01*
X83Y1549D02*
X94Y1549D01*
X1407Y1549D02*
X1414Y1549D01*
X0Y1548D02*
X7Y1548D01*
X83Y1548D02*
X95Y1548D01*
X1205Y1548D02*
X1206Y1548D01*
X1407Y1548D02*
X1414Y1548D01*
X0Y1547D02*
X7Y1547D01*
X83Y1547D02*
X95Y1547D01*
X1205Y1547D02*
X1208Y1547D01*
X1407Y1547D02*
X1414Y1547D01*
X0Y1546D02*
X7Y1546D01*
X83Y1546D02*
X95Y1546D01*
X1205Y1546D02*
X1209Y1546D01*
X1407Y1546D02*
X1414Y1546D01*
X0Y1545D02*
X7Y1545D01*
X83Y1545D02*
X95Y1545D01*
X1205Y1545D02*
X1209Y1545D01*
X1407Y1545D02*
X1414Y1545D01*
X0Y1544D02*
X7Y1544D01*
X83Y1544D02*
X95Y1544D01*
X1205Y1544D02*
X1209Y1544D01*
X1407Y1544D02*
X1414Y1544D01*
X0Y1543D02*
X7Y1543D01*
X83Y1543D02*
X95Y1543D01*
X1205Y1543D02*
X1209Y1543D01*
X1333Y1543D02*
X1336Y1543D01*
X1407Y1543D02*
X1414Y1543D01*
X0Y1542D02*
X7Y1542D01*
X83Y1542D02*
X95Y1542D01*
X1205Y1542D02*
X1209Y1542D01*
X1332Y1542D02*
X1337Y1542D01*
X1407Y1542D02*
X1414Y1542D01*
X0Y1541D02*
X7Y1541D01*
X27Y1541D02*
X33Y1541D01*
X83Y1541D02*
X95Y1541D01*
X1205Y1541D02*
X1209Y1541D01*
X1332Y1541D02*
X1336Y1541D01*
X1407Y1541D02*
X1414Y1541D01*
X0Y1540D02*
X7Y1540D01*
X25Y1540D02*
X35Y1540D01*
X83Y1540D02*
X94Y1540D01*
X1205Y1540D02*
X1209Y1540D01*
X1331Y1540D02*
X1336Y1540D01*
X1407Y1540D02*
X1414Y1540D01*
X0Y1539D02*
X7Y1539D01*
X24Y1539D02*
X36Y1539D01*
X83Y1539D02*
X94Y1539D01*
X1205Y1539D02*
X1209Y1539D01*
X1330Y1539D02*
X1335Y1539D01*
X1407Y1539D02*
X1414Y1539D01*
X0Y1538D02*
X7Y1538D01*
X24Y1538D02*
X36Y1538D01*
X84Y1538D02*
X93Y1538D01*
X1004Y1538D02*
X1016Y1538D01*
X1205Y1538D02*
X1209Y1538D01*
X1330Y1538D02*
X1335Y1538D01*
X1407Y1538D02*
X1414Y1538D01*
X0Y1537D02*
X7Y1537D01*
X24Y1537D02*
X36Y1537D01*
X1001Y1537D02*
X1019Y1537D01*
X1205Y1537D02*
X1209Y1537D01*
X1329Y1537D02*
X1334Y1537D01*
X1407Y1537D02*
X1414Y1537D01*
X0Y1536D02*
X7Y1536D01*
X24Y1536D02*
X36Y1536D01*
X999Y1536D02*
X1021Y1536D01*
X1205Y1536D02*
X1209Y1536D01*
X1328Y1536D02*
X1334Y1536D01*
X1407Y1536D02*
X1414Y1536D01*
X0Y1535D02*
X7Y1535D01*
X24Y1535D02*
X36Y1535D01*
X998Y1535D02*
X1022Y1535D01*
X1205Y1535D02*
X1209Y1535D01*
X1328Y1535D02*
X1333Y1535D01*
X1407Y1535D02*
X1414Y1535D01*
X0Y1534D02*
X7Y1534D01*
X24Y1534D02*
X36Y1534D01*
X997Y1534D02*
X1023Y1534D01*
X1205Y1534D02*
X1209Y1534D01*
X1327Y1534D02*
X1332Y1534D01*
X1407Y1534D02*
X1414Y1534D01*
X0Y1533D02*
X7Y1533D01*
X24Y1533D02*
X36Y1533D01*
X996Y1533D02*
X1024Y1533D01*
X1205Y1533D02*
X1210Y1533D01*
X1326Y1533D02*
X1331Y1533D01*
X1407Y1533D02*
X1414Y1533D01*
X0Y1532D02*
X7Y1532D01*
X24Y1532D02*
X36Y1532D01*
X995Y1532D02*
X1025Y1532D01*
X1205Y1532D02*
X1211Y1532D01*
X1325Y1532D02*
X1331Y1532D01*
X1407Y1532D02*
X1414Y1532D01*
X0Y1531D02*
X7Y1531D01*
X24Y1531D02*
X36Y1531D01*
X995Y1531D02*
X1025Y1531D01*
X1206Y1531D02*
X1212Y1531D01*
X1324Y1531D02*
X1330Y1531D01*
X1407Y1531D02*
X1414Y1531D01*
X0Y1530D02*
X7Y1530D01*
X24Y1530D02*
X36Y1530D01*
X994Y1530D02*
X1026Y1530D01*
X1207Y1530D02*
X1213Y1530D01*
X1323Y1530D02*
X1329Y1530D01*
X1407Y1530D02*
X1414Y1530D01*
X0Y1529D02*
X7Y1529D01*
X24Y1529D02*
X35Y1529D01*
X994Y1529D02*
X1026Y1529D01*
X1208Y1529D02*
X1214Y1529D01*
X1322Y1529D02*
X1328Y1529D01*
X1407Y1529D02*
X1414Y1529D01*
X0Y1528D02*
X7Y1528D01*
X25Y1528D02*
X35Y1528D01*
X993Y1528D02*
X1005Y1528D01*
X1015Y1528D02*
X1027Y1528D01*
X1042Y1528D02*
X1046Y1528D01*
X1209Y1528D02*
X1215Y1528D01*
X1321Y1528D02*
X1327Y1528D01*
X1407Y1528D02*
X1414Y1528D01*
X0Y1527D02*
X7Y1527D01*
X993Y1527D02*
X1003Y1527D01*
X1017Y1527D02*
X1027Y1527D01*
X1041Y1527D02*
X1047Y1527D01*
X1210Y1527D02*
X1216Y1527D01*
X1320Y1527D02*
X1326Y1527D01*
X1407Y1527D02*
X1414Y1527D01*
X0Y1526D02*
X7Y1526D01*
X993Y1526D02*
X1002Y1526D01*
X1017Y1526D02*
X1027Y1526D01*
X1040Y1526D02*
X1048Y1526D01*
X1210Y1526D02*
X1217Y1526D01*
X1319Y1526D02*
X1326Y1526D01*
X1407Y1526D02*
X1414Y1526D01*
X0Y1525D02*
X7Y1525D01*
X993Y1525D02*
X1002Y1525D01*
X1018Y1525D02*
X1027Y1525D01*
X1040Y1525D02*
X1048Y1525D01*
X1211Y1525D02*
X1218Y1525D01*
X1318Y1525D02*
X1325Y1525D01*
X1407Y1525D02*
X1414Y1525D01*
X0Y1524D02*
X7Y1524D01*
X993Y1524D02*
X1002Y1524D01*
X1018Y1524D02*
X1027Y1524D01*
X1039Y1524D02*
X1048Y1524D01*
X1212Y1524D02*
X1219Y1524D01*
X1317Y1524D02*
X1324Y1524D01*
X1407Y1524D02*
X1414Y1524D01*
X0Y1523D02*
X7Y1523D01*
X993Y1523D02*
X1002Y1523D01*
X1018Y1523D02*
X1027Y1523D01*
X1039Y1523D02*
X1048Y1523D01*
X1213Y1523D02*
X1220Y1523D01*
X1316Y1523D02*
X1323Y1523D01*
X1407Y1523D02*
X1414Y1523D01*
X0Y1522D02*
X7Y1522D01*
X993Y1522D02*
X1002Y1522D01*
X1018Y1522D02*
X1027Y1522D01*
X1039Y1522D02*
X1048Y1522D01*
X1214Y1522D02*
X1221Y1522D01*
X1315Y1522D02*
X1322Y1522D01*
X1407Y1522D02*
X1414Y1522D01*
X0Y1521D02*
X7Y1521D01*
X993Y1521D02*
X1002Y1521D01*
X1018Y1521D02*
X1027Y1521D01*
X1039Y1521D02*
X1048Y1521D01*
X1216Y1521D02*
X1223Y1521D01*
X1314Y1521D02*
X1321Y1521D01*
X1407Y1521D02*
X1414Y1521D01*
X0Y1520D02*
X211Y1520D01*
X274Y1520D02*
X467Y1520D01*
X529Y1520D02*
X1414Y1520D01*
X0Y1519D02*
X7Y1519D01*
X993Y1519D02*
X1002Y1519D01*
X1018Y1519D02*
X1027Y1519D01*
X1039Y1519D02*
X1048Y1519D01*
X1218Y1519D02*
X1225Y1519D01*
X1311Y1519D02*
X1318Y1519D01*
X1407Y1519D02*
X1414Y1519D01*
X0Y1518D02*
X7Y1518D01*
X993Y1518D02*
X1002Y1518D01*
X1018Y1518D02*
X1027Y1518D01*
X1039Y1518D02*
X1048Y1518D01*
X1219Y1518D02*
X1227Y1518D01*
X1309Y1518D02*
X1317Y1518D01*
X1407Y1518D02*
X1414Y1518D01*
X0Y1517D02*
X7Y1517D01*
X993Y1517D02*
X1002Y1517D01*
X1018Y1517D02*
X1027Y1517D01*
X1039Y1517D02*
X1048Y1517D01*
X1220Y1517D02*
X1228Y1517D01*
X1308Y1517D02*
X1316Y1517D01*
X1407Y1517D02*
X1414Y1517D01*
X0Y1516D02*
X7Y1516D01*
X993Y1516D02*
X1002Y1516D01*
X1018Y1516D02*
X1027Y1516D01*
X1039Y1516D02*
X1048Y1516D01*
X1222Y1516D02*
X1230Y1516D01*
X1306Y1516D02*
X1314Y1516D01*
X1407Y1516D02*
X1414Y1516D01*
X0Y1515D02*
X7Y1515D01*
X993Y1515D02*
X1002Y1515D01*
X1018Y1515D02*
X1027Y1515D01*
X1039Y1515D02*
X1048Y1515D01*
X1223Y1515D02*
X1232Y1515D01*
X1305Y1515D02*
X1313Y1515D01*
X1407Y1515D02*
X1414Y1515D01*
X0Y1514D02*
X7Y1514D01*
X993Y1514D02*
X1002Y1514D01*
X1018Y1514D02*
X1027Y1514D01*
X1039Y1514D02*
X1048Y1514D01*
X1225Y1514D02*
X1234Y1514D01*
X1303Y1514D02*
X1311Y1514D01*
X1407Y1514D02*
X1414Y1514D01*
X0Y1513D02*
X7Y1513D01*
X993Y1513D02*
X1002Y1513D01*
X1018Y1513D02*
X1027Y1513D01*
X1039Y1513D02*
X1048Y1513D01*
X1226Y1513D02*
X1236Y1513D01*
X1301Y1513D02*
X1310Y1513D01*
X1407Y1513D02*
X1414Y1513D01*
X0Y1512D02*
X7Y1512D01*
X993Y1512D02*
X1002Y1512D01*
X1018Y1512D02*
X1027Y1512D01*
X1039Y1512D02*
X1048Y1512D01*
X1228Y1512D02*
X1238Y1512D01*
X1299Y1512D02*
X1308Y1512D01*
X1407Y1512D02*
X1414Y1512D01*
X0Y1511D02*
X7Y1511D01*
X993Y1511D02*
X1002Y1511D01*
X1018Y1511D02*
X1027Y1511D01*
X1039Y1511D02*
X1048Y1511D01*
X1230Y1511D02*
X1240Y1511D01*
X1296Y1511D02*
X1306Y1511D01*
X1407Y1511D02*
X1414Y1511D01*
X0Y1510D02*
X7Y1510D01*
X993Y1510D02*
X1002Y1510D01*
X1018Y1510D02*
X1027Y1510D01*
X1039Y1510D02*
X1048Y1510D01*
X1231Y1510D02*
X1243Y1510D01*
X1294Y1510D02*
X1305Y1510D01*
X1407Y1510D02*
X1414Y1510D01*
X0Y1509D02*
X7Y1509D01*
X993Y1509D02*
X1002Y1509D01*
X1018Y1509D02*
X1027Y1509D01*
X1039Y1509D02*
X1048Y1509D01*
X1233Y1509D02*
X1246Y1509D01*
X1291Y1509D02*
X1303Y1509D01*
X1407Y1509D02*
X1414Y1509D01*
X0Y1508D02*
X7Y1508D01*
X993Y1508D02*
X1003Y1508D01*
X1018Y1508D02*
X1027Y1508D01*
X1039Y1508D02*
X1048Y1508D01*
X1235Y1508D02*
X1249Y1508D01*
X1287Y1508D02*
X1301Y1508D01*
X1407Y1508D02*
X1414Y1508D01*
X0Y1507D02*
X7Y1507D01*
X993Y1507D02*
X1004Y1507D01*
X1018Y1507D02*
X1027Y1507D01*
X1039Y1507D02*
X1048Y1507D01*
X1238Y1507D02*
X1254Y1507D01*
X1283Y1507D02*
X1298Y1507D01*
X1407Y1507D02*
X1414Y1507D01*
X0Y1506D02*
X7Y1506D01*
X994Y1506D02*
X1004Y1506D01*
X1018Y1506D02*
X1027Y1506D01*
X1039Y1506D02*
X1048Y1506D01*
X1240Y1506D02*
X1261Y1506D01*
X1275Y1506D02*
X1296Y1506D01*
X1407Y1506D02*
X1414Y1506D01*
X0Y1505D02*
X7Y1505D01*
X994Y1505D02*
X1005Y1505D01*
X1018Y1505D02*
X1027Y1505D01*
X1039Y1505D02*
X1048Y1505D01*
X1243Y1505D02*
X1293Y1505D01*
X1407Y1505D02*
X1414Y1505D01*
X0Y1504D02*
X7Y1504D01*
X995Y1504D02*
X1005Y1504D01*
X1018Y1504D02*
X1027Y1504D01*
X1039Y1504D02*
X1048Y1504D01*
X1246Y1504D02*
X1289Y1504D01*
X1407Y1504D02*
X1414Y1504D01*
X0Y1503D02*
X7Y1503D01*
X995Y1503D02*
X1006Y1503D01*
X1018Y1503D02*
X1027Y1503D01*
X1039Y1503D02*
X1048Y1503D01*
X1250Y1503D02*
X1286Y1503D01*
X1407Y1503D02*
X1414Y1503D01*
X0Y1502D02*
X7Y1502D01*
X996Y1502D02*
X1007Y1502D01*
X1017Y1502D02*
X1027Y1502D01*
X1038Y1502D02*
X1048Y1502D01*
X1255Y1502D02*
X1281Y1502D01*
X1407Y1502D02*
X1414Y1502D01*
X0Y1501D02*
X7Y1501D01*
X996Y1501D02*
X1007Y1501D01*
X1017Y1501D02*
X1027Y1501D01*
X1037Y1501D02*
X1048Y1501D01*
X1263Y1501D02*
X1272Y1501D01*
X1407Y1501D02*
X1414Y1501D01*
X0Y1500D02*
X7Y1500D01*
X997Y1500D02*
X1008Y1500D01*
X1015Y1500D02*
X1048Y1500D01*
X1407Y1500D02*
X1414Y1500D01*
X0Y1499D02*
X7Y1499D01*
X997Y1499D02*
X1047Y1499D01*
X1407Y1499D02*
X1414Y1499D01*
X0Y1498D02*
X7Y1498D01*
X995Y1498D02*
X1047Y1498D01*
X1407Y1498D02*
X1414Y1498D01*
X0Y1497D02*
X7Y1497D01*
X994Y1497D02*
X1046Y1497D01*
X1407Y1497D02*
X1414Y1497D01*
X0Y1496D02*
X7Y1496D01*
X993Y1496D02*
X1045Y1496D01*
X1407Y1496D02*
X1414Y1496D01*
X0Y1495D02*
X7Y1495D01*
X993Y1495D02*
X1044Y1495D01*
X1407Y1495D02*
X1414Y1495D01*
X0Y1494D02*
X7Y1494D01*
X993Y1494D02*
X1043Y1494D01*
X1407Y1494D02*
X1414Y1494D01*
X0Y1493D02*
X7Y1493D01*
X993Y1493D02*
X1042Y1493D01*
X1407Y1493D02*
X1414Y1493D01*
X0Y1492D02*
X7Y1492D01*
X993Y1492D02*
X1041Y1492D01*
X1407Y1492D02*
X1414Y1492D01*
X0Y1491D02*
X7Y1491D01*
X994Y1491D02*
X1038Y1491D01*
X1407Y1491D02*
X1414Y1491D01*
X0Y1490D02*
X7Y1490D01*
X995Y1490D02*
X1030Y1490D01*
X1407Y1490D02*
X1414Y1490D01*
X0Y1489D02*
X7Y1489D01*
X997Y1489D02*
X1002Y1489D01*
X1407Y1489D02*
X1414Y1489D01*
X0Y1488D02*
X7Y1488D01*
X1407Y1488D02*
X1414Y1488D01*
X0Y1487D02*
X7Y1487D01*
X1407Y1487D02*
X1414Y1487D01*
X0Y1486D02*
X7Y1486D01*
X1407Y1486D02*
X1414Y1486D01*
X0Y1485D02*
X7Y1485D01*
X1407Y1485D02*
X1414Y1485D01*
X0Y1484D02*
X7Y1484D01*
X1407Y1484D02*
X1414Y1484D01*
X0Y1483D02*
X7Y1483D01*
X1407Y1483D02*
X1414Y1483D01*
X0Y1482D02*
X7Y1482D01*
X1407Y1482D02*
X1414Y1482D01*
X0Y1481D02*
X7Y1481D01*
X1407Y1481D02*
X1414Y1481D01*
X0Y1480D02*
X7Y1480D01*
X1407Y1480D02*
X1414Y1480D01*
X0Y1479D02*
X7Y1479D01*
X1407Y1479D02*
X1414Y1479D01*
X0Y1478D02*
X7Y1478D01*
X1407Y1478D02*
X1414Y1478D01*
X0Y1477D02*
X7Y1477D01*
X1407Y1477D02*
X1414Y1477D01*
X0Y1476D02*
X7Y1476D01*
X1407Y1476D02*
X1414Y1476D01*
X0Y1475D02*
X7Y1475D01*
X1407Y1475D02*
X1414Y1475D01*
X0Y1474D02*
X7Y1474D01*
X1407Y1474D02*
X1414Y1474D01*
X0Y1473D02*
X7Y1473D01*
X1407Y1473D02*
X1414Y1473D01*
X0Y1472D02*
X7Y1472D01*
X1407Y1472D02*
X1414Y1472D01*
X0Y1471D02*
X7Y1471D01*
X1407Y1471D02*
X1414Y1471D01*
X0Y1470D02*
X7Y1470D01*
X1407Y1470D02*
X1414Y1470D01*
X0Y1469D02*
X7Y1469D01*
X1407Y1469D02*
X1414Y1469D01*
X0Y1468D02*
X7Y1468D01*
X1407Y1468D02*
X1414Y1468D01*
X0Y1467D02*
X7Y1467D01*
X1407Y1467D02*
X1414Y1467D01*
X0Y1466D02*
X7Y1466D01*
X996Y1466D02*
X1045Y1466D01*
X1407Y1466D02*
X1414Y1466D01*
X0Y1465D02*
X7Y1465D01*
X994Y1465D02*
X1047Y1465D01*
X1407Y1465D02*
X1414Y1465D01*
X0Y1464D02*
X7Y1464D01*
X994Y1464D02*
X1048Y1464D01*
X1407Y1464D02*
X1414Y1464D01*
X0Y1463D02*
X7Y1463D01*
X993Y1463D02*
X1048Y1463D01*
X1407Y1463D02*
X1414Y1463D01*
X0Y1462D02*
X7Y1462D01*
X993Y1462D02*
X1048Y1462D01*
X1407Y1462D02*
X1414Y1462D01*
X0Y1461D02*
X7Y1461D01*
X993Y1461D02*
X1048Y1461D01*
X1407Y1461D02*
X1414Y1461D01*
X0Y1460D02*
X7Y1460D01*
X75Y1460D02*
X79Y1460D01*
X122Y1460D02*
X126Y1460D01*
X993Y1460D02*
X1048Y1460D01*
X1407Y1460D02*
X1414Y1460D01*
X0Y1459D02*
X7Y1459D01*
X74Y1459D02*
X80Y1459D01*
X121Y1459D02*
X127Y1459D01*
X993Y1459D02*
X1048Y1459D01*
X1407Y1459D02*
X1414Y1459D01*
X0Y1458D02*
X7Y1458D01*
X74Y1458D02*
X80Y1458D01*
X121Y1458D02*
X127Y1458D01*
X994Y1458D02*
X1047Y1458D01*
X1407Y1458D02*
X1414Y1458D01*
X0Y1457D02*
X7Y1457D01*
X74Y1457D02*
X80Y1457D01*
X121Y1457D02*
X127Y1457D01*
X995Y1457D02*
X1046Y1457D01*
X1407Y1457D02*
X1414Y1457D01*
X0Y1456D02*
X7Y1456D01*
X74Y1456D02*
X80Y1456D01*
X121Y1456D02*
X127Y1456D01*
X1025Y1456D02*
X1038Y1456D01*
X1407Y1456D02*
X1414Y1456D01*
X0Y1455D02*
X7Y1455D01*
X74Y1455D02*
X80Y1455D01*
X121Y1455D02*
X127Y1455D01*
X1026Y1455D02*
X1039Y1455D01*
X1407Y1455D02*
X1414Y1455D01*
X0Y1454D02*
X7Y1454D01*
X74Y1454D02*
X80Y1454D01*
X121Y1454D02*
X127Y1454D01*
X1027Y1454D02*
X1039Y1454D01*
X1407Y1454D02*
X1414Y1454D01*
X0Y1453D02*
X7Y1453D01*
X74Y1453D02*
X80Y1453D01*
X121Y1453D02*
X127Y1453D01*
X1028Y1453D02*
X1040Y1453D01*
X1407Y1453D02*
X1414Y1453D01*
X0Y1452D02*
X7Y1452D01*
X74Y1452D02*
X80Y1452D01*
X121Y1452D02*
X127Y1452D01*
X1029Y1452D02*
X1041Y1452D01*
X1407Y1452D02*
X1414Y1452D01*
X0Y1451D02*
X7Y1451D01*
X16Y1451D02*
X68Y1451D01*
X74Y1451D02*
X80Y1451D01*
X121Y1451D02*
X127Y1451D01*
X1030Y1451D02*
X1042Y1451D01*
X1407Y1451D02*
X1414Y1451D01*
X0Y1450D02*
X7Y1450D01*
X15Y1450D02*
X68Y1450D01*
X74Y1450D02*
X80Y1450D01*
X121Y1450D02*
X127Y1450D01*
X1030Y1450D02*
X1043Y1450D01*
X1407Y1450D02*
X1414Y1450D01*
X0Y1449D02*
X7Y1449D01*
X15Y1449D02*
X68Y1449D01*
X74Y1449D02*
X80Y1449D01*
X121Y1449D02*
X127Y1449D01*
X1031Y1449D02*
X1044Y1449D01*
X1407Y1449D02*
X1414Y1449D01*
X0Y1448D02*
X7Y1448D01*
X15Y1448D02*
X68Y1448D01*
X74Y1448D02*
X80Y1448D01*
X121Y1448D02*
X127Y1448D01*
X1032Y1448D02*
X1045Y1448D01*
X1407Y1448D02*
X1414Y1448D01*
X0Y1447D02*
X7Y1447D01*
X15Y1447D02*
X68Y1447D01*
X74Y1447D02*
X127Y1447D01*
X1033Y1447D02*
X1045Y1447D01*
X1407Y1447D02*
X1414Y1447D01*
X0Y1446D02*
X7Y1446D01*
X15Y1446D02*
X68Y1446D01*
X74Y1446D02*
X127Y1446D01*
X1034Y1446D02*
X1046Y1446D01*
X1407Y1446D02*
X1414Y1446D01*
X0Y1445D02*
X7Y1445D01*
X15Y1445D02*
X68Y1445D01*
X74Y1445D02*
X127Y1445D01*
X1035Y1445D02*
X1047Y1445D01*
X1407Y1445D02*
X1414Y1445D01*
X0Y1444D02*
X7Y1444D01*
X15Y1444D02*
X22Y1444D01*
X38Y1444D02*
X45Y1444D01*
X62Y1444D02*
X68Y1444D01*
X74Y1444D02*
X127Y1444D01*
X1036Y1444D02*
X1048Y1444D01*
X1407Y1444D02*
X1414Y1444D01*
X0Y1443D02*
X7Y1443D01*
X15Y1443D02*
X21Y1443D01*
X39Y1443D02*
X45Y1443D01*
X62Y1443D02*
X68Y1443D01*
X74Y1443D02*
X127Y1443D01*
X1036Y1443D02*
X1048Y1443D01*
X1407Y1443D02*
X1414Y1443D01*
X0Y1442D02*
X7Y1442D01*
X15Y1442D02*
X21Y1442D01*
X39Y1442D02*
X45Y1442D01*
X62Y1442D02*
X68Y1442D01*
X74Y1442D02*
X127Y1442D01*
X1037Y1442D02*
X1048Y1442D01*
X1407Y1442D02*
X1414Y1442D01*
X0Y1441D02*
X7Y1441D01*
X15Y1441D02*
X21Y1441D01*
X39Y1441D02*
X45Y1441D01*
X62Y1441D02*
X68Y1441D01*
X74Y1441D02*
X127Y1441D01*
X1038Y1441D02*
X1048Y1441D01*
X1407Y1441D02*
X1414Y1441D01*
X0Y1440D02*
X7Y1440D01*
X15Y1440D02*
X21Y1440D01*
X39Y1440D02*
X45Y1440D01*
X62Y1440D02*
X68Y1440D01*
X74Y1440D02*
X80Y1440D01*
X121Y1440D02*
X127Y1440D01*
X1039Y1440D02*
X1048Y1440D01*
X1407Y1440D02*
X1414Y1440D01*
X0Y1439D02*
X7Y1439D01*
X15Y1439D02*
X21Y1439D01*
X39Y1439D02*
X45Y1439D01*
X62Y1439D02*
X68Y1439D01*
X74Y1439D02*
X80Y1439D01*
X121Y1439D02*
X127Y1439D01*
X1039Y1439D02*
X1048Y1439D01*
X1407Y1439D02*
X1414Y1439D01*
X0Y1438D02*
X7Y1438D01*
X15Y1438D02*
X21Y1438D01*
X39Y1438D02*
X45Y1438D01*
X62Y1438D02*
X68Y1438D01*
X74Y1438D02*
X80Y1438D01*
X121Y1438D02*
X127Y1438D01*
X1039Y1438D02*
X1048Y1438D01*
X1407Y1438D02*
X1414Y1438D01*
X0Y1437D02*
X7Y1437D01*
X15Y1437D02*
X21Y1437D01*
X39Y1437D02*
X45Y1437D01*
X62Y1437D02*
X68Y1437D01*
X74Y1437D02*
X80Y1437D01*
X121Y1437D02*
X127Y1437D01*
X1039Y1437D02*
X1048Y1437D01*
X1407Y1437D02*
X1414Y1437D01*
X0Y1436D02*
X7Y1436D01*
X15Y1436D02*
X21Y1436D01*
X39Y1436D02*
X45Y1436D01*
X62Y1436D02*
X68Y1436D01*
X74Y1436D02*
X80Y1436D01*
X121Y1436D02*
X127Y1436D01*
X1039Y1436D02*
X1048Y1436D01*
X1407Y1436D02*
X1414Y1436D01*
X0Y1435D02*
X7Y1435D01*
X15Y1435D02*
X21Y1435D01*
X39Y1435D02*
X45Y1435D01*
X62Y1435D02*
X68Y1435D01*
X74Y1435D02*
X80Y1435D01*
X121Y1435D02*
X127Y1435D01*
X1039Y1435D02*
X1048Y1435D01*
X1407Y1435D02*
X1414Y1435D01*
X0Y1434D02*
X7Y1434D01*
X15Y1434D02*
X21Y1434D01*
X39Y1434D02*
X45Y1434D01*
X62Y1434D02*
X68Y1434D01*
X74Y1434D02*
X80Y1434D01*
X121Y1434D02*
X127Y1434D01*
X1039Y1434D02*
X1048Y1434D01*
X1407Y1434D02*
X1414Y1434D01*
X0Y1433D02*
X7Y1433D01*
X15Y1433D02*
X21Y1433D01*
X39Y1433D02*
X45Y1433D01*
X62Y1433D02*
X68Y1433D01*
X74Y1433D02*
X80Y1433D01*
X121Y1433D02*
X127Y1433D01*
X1039Y1433D02*
X1048Y1433D01*
X1407Y1433D02*
X1414Y1433D01*
X0Y1432D02*
X7Y1432D01*
X15Y1432D02*
X21Y1432D01*
X39Y1432D02*
X45Y1432D01*
X62Y1432D02*
X68Y1432D01*
X74Y1432D02*
X80Y1432D01*
X121Y1432D02*
X127Y1432D01*
X1039Y1432D02*
X1048Y1432D01*
X1407Y1432D02*
X1414Y1432D01*
X0Y1431D02*
X7Y1431D01*
X15Y1431D02*
X21Y1431D01*
X39Y1431D02*
X45Y1431D01*
X62Y1431D02*
X68Y1431D01*
X74Y1431D02*
X80Y1431D01*
X121Y1431D02*
X127Y1431D01*
X1039Y1431D02*
X1048Y1431D01*
X1407Y1431D02*
X1414Y1431D01*
X0Y1430D02*
X7Y1430D01*
X15Y1430D02*
X21Y1430D01*
X39Y1430D02*
X45Y1430D01*
X62Y1430D02*
X68Y1430D01*
X74Y1430D02*
X80Y1430D01*
X121Y1430D02*
X127Y1430D01*
X1039Y1430D02*
X1048Y1430D01*
X1407Y1430D02*
X1414Y1430D01*
X0Y1429D02*
X7Y1429D01*
X15Y1429D02*
X21Y1429D01*
X39Y1429D02*
X45Y1429D01*
X62Y1429D02*
X68Y1429D01*
X74Y1429D02*
X80Y1429D01*
X121Y1429D02*
X127Y1429D01*
X1039Y1429D02*
X1048Y1429D01*
X1407Y1429D02*
X1414Y1429D01*
X0Y1428D02*
X7Y1428D01*
X15Y1428D02*
X22Y1428D01*
X38Y1428D02*
X45Y1428D01*
X62Y1428D02*
X68Y1428D01*
X75Y1428D02*
X79Y1428D01*
X122Y1428D02*
X126Y1428D01*
X1038Y1428D02*
X1048Y1428D01*
X1407Y1428D02*
X1414Y1428D01*
X0Y1427D02*
X7Y1427D01*
X16Y1427D02*
X22Y1427D01*
X38Y1427D02*
X46Y1427D01*
X61Y1427D02*
X68Y1427D01*
X76Y1427D02*
X78Y1427D01*
X123Y1427D02*
X125Y1427D01*
X1036Y1427D02*
X1048Y1427D01*
X1407Y1427D02*
X1414Y1427D01*
X0Y1426D02*
X7Y1426D01*
X16Y1426D02*
X23Y1426D01*
X37Y1426D02*
X46Y1426D01*
X60Y1426D02*
X67Y1426D01*
X1029Y1426D02*
X1047Y1426D01*
X1407Y1426D02*
X1414Y1426D01*
X0Y1425D02*
X7Y1425D01*
X16Y1425D02*
X24Y1425D01*
X36Y1425D02*
X47Y1425D01*
X59Y1425D02*
X67Y1425D01*
X1028Y1425D02*
X1047Y1425D01*
X1407Y1425D02*
X1414Y1425D01*
X0Y1424D02*
X7Y1424D01*
X17Y1424D02*
X26Y1424D01*
X34Y1424D02*
X49Y1424D01*
X58Y1424D02*
X67Y1424D01*
X1027Y1424D02*
X1046Y1424D01*
X1407Y1424D02*
X1414Y1424D01*
X0Y1423D02*
X7Y1423D01*
X17Y1423D02*
X66Y1423D01*
X1027Y1423D02*
X1046Y1423D01*
X1407Y1423D02*
X1414Y1423D01*
X0Y1422D02*
X7Y1422D01*
X18Y1422D02*
X65Y1422D01*
X1027Y1422D02*
X1045Y1422D01*
X1407Y1422D02*
X1414Y1422D01*
X0Y1421D02*
X7Y1421D01*
X19Y1421D02*
X64Y1421D01*
X1027Y1421D02*
X1044Y1421D01*
X1407Y1421D02*
X1414Y1421D01*
X0Y1420D02*
X7Y1420D01*
X20Y1420D02*
X40Y1420D01*
X44Y1420D02*
X63Y1420D01*
X1027Y1420D02*
X1043Y1420D01*
X1407Y1420D02*
X1414Y1420D01*
X0Y1419D02*
X7Y1419D01*
X21Y1419D02*
X39Y1419D01*
X45Y1419D02*
X62Y1419D01*
X1027Y1419D02*
X1042Y1419D01*
X1407Y1419D02*
X1414Y1419D01*
X0Y1418D02*
X7Y1418D01*
X23Y1418D02*
X37Y1418D01*
X46Y1418D02*
X60Y1418D01*
X1028Y1418D02*
X1040Y1418D01*
X1407Y1418D02*
X1414Y1418D01*
X0Y1417D02*
X7Y1417D01*
X25Y1417D02*
X34Y1417D01*
X49Y1417D02*
X58Y1417D01*
X1030Y1417D02*
X1037Y1417D01*
X1407Y1417D02*
X1414Y1417D01*
X0Y1416D02*
X7Y1416D01*
X1407Y1416D02*
X1414Y1416D01*
X0Y1415D02*
X7Y1415D01*
X1407Y1415D02*
X1414Y1415D01*
X0Y1414D02*
X7Y1414D01*
X1407Y1414D02*
X1414Y1414D01*
X0Y1413D02*
X7Y1413D01*
X1407Y1413D02*
X1414Y1413D01*
X0Y1412D02*
X7Y1412D01*
X1407Y1412D02*
X1414Y1412D01*
X0Y1411D02*
X7Y1411D01*
X1407Y1411D02*
X1414Y1411D01*
X0Y1410D02*
X7Y1410D01*
X85Y1410D02*
X104Y1410D01*
X1407Y1410D02*
X1414Y1410D01*
X0Y1409D02*
X7Y1409D01*
X84Y1409D02*
X106Y1409D01*
X1407Y1409D02*
X1414Y1409D01*
X0Y1408D02*
X7Y1408D01*
X82Y1408D02*
X107Y1408D01*
X1407Y1408D02*
X1414Y1408D01*
X0Y1407D02*
X7Y1407D01*
X61Y1407D02*
X63Y1407D01*
X81Y1407D02*
X108Y1407D01*
X1407Y1407D02*
X1414Y1407D01*
X0Y1406D02*
X7Y1406D01*
X60Y1406D02*
X64Y1406D01*
X80Y1406D02*
X109Y1406D01*
X1407Y1406D02*
X1414Y1406D01*
X0Y1405D02*
X7Y1405D01*
X59Y1405D02*
X65Y1405D01*
X80Y1405D02*
X110Y1405D01*
X1407Y1405D02*
X1414Y1405D01*
X0Y1404D02*
X7Y1404D01*
X59Y1404D02*
X65Y1404D01*
X79Y1404D02*
X110Y1404D01*
X1407Y1404D02*
X1414Y1404D01*
X0Y1403D02*
X7Y1403D01*
X59Y1403D02*
X65Y1403D01*
X78Y1403D02*
X86Y1403D01*
X103Y1403D02*
X111Y1403D01*
X1407Y1403D02*
X1414Y1403D01*
X0Y1402D02*
X7Y1402D01*
X59Y1402D02*
X65Y1402D01*
X78Y1402D02*
X85Y1402D01*
X104Y1402D02*
X111Y1402D01*
X1407Y1402D02*
X1414Y1402D01*
X0Y1401D02*
X7Y1401D01*
X59Y1401D02*
X65Y1401D01*
X77Y1401D02*
X84Y1401D01*
X105Y1401D02*
X112Y1401D01*
X1407Y1401D02*
X1414Y1401D01*
X0Y1400D02*
X7Y1400D01*
X59Y1400D02*
X65Y1400D01*
X77Y1400D02*
X83Y1400D01*
X106Y1400D02*
X112Y1400D01*
X1407Y1400D02*
X1414Y1400D01*
X0Y1399D02*
X7Y1399D01*
X59Y1399D02*
X65Y1399D01*
X77Y1399D02*
X83Y1399D01*
X106Y1399D02*
X112Y1399D01*
X1407Y1399D02*
X1414Y1399D01*
X0Y1398D02*
X7Y1398D01*
X59Y1398D02*
X65Y1398D01*
X77Y1398D02*
X83Y1398D01*
X106Y1398D02*
X112Y1398D01*
X1407Y1398D02*
X1414Y1398D01*
X0Y1397D02*
X7Y1397D01*
X17Y1397D02*
X19Y1397D01*
X59Y1397D02*
X66Y1397D01*
X77Y1397D02*
X83Y1397D01*
X106Y1397D02*
X112Y1397D01*
X1407Y1397D02*
X1414Y1397D01*
X0Y1396D02*
X7Y1396D01*
X16Y1396D02*
X20Y1396D01*
X59Y1396D02*
X67Y1396D01*
X77Y1396D02*
X83Y1396D01*
X106Y1396D02*
X112Y1396D01*
X1407Y1396D02*
X1414Y1396D01*
X0Y1395D02*
X7Y1395D01*
X15Y1395D02*
X21Y1395D01*
X59Y1395D02*
X68Y1395D01*
X77Y1395D02*
X83Y1395D01*
X106Y1395D02*
X112Y1395D01*
X1407Y1395D02*
X1414Y1395D01*
X0Y1394D02*
X7Y1394D01*
X15Y1394D02*
X21Y1394D01*
X59Y1394D02*
X68Y1394D01*
X77Y1394D02*
X83Y1394D01*
X106Y1394D02*
X112Y1394D01*
X995Y1394D02*
X1046Y1394D01*
X1407Y1394D02*
X1414Y1394D01*
X0Y1393D02*
X7Y1393D01*
X15Y1393D02*
X21Y1393D01*
X59Y1393D02*
X68Y1393D01*
X77Y1393D02*
X83Y1393D01*
X106Y1393D02*
X112Y1393D01*
X994Y1393D02*
X1047Y1393D01*
X1407Y1393D02*
X1414Y1393D01*
X0Y1392D02*
X7Y1392D01*
X15Y1392D02*
X21Y1392D01*
X59Y1392D02*
X68Y1392D01*
X77Y1392D02*
X83Y1392D01*
X106Y1392D02*
X112Y1392D01*
X993Y1392D02*
X1048Y1392D01*
X1407Y1392D02*
X1414Y1392D01*
X0Y1391D02*
X7Y1391D01*
X15Y1391D02*
X21Y1391D01*
X59Y1391D02*
X68Y1391D01*
X77Y1391D02*
X83Y1391D01*
X106Y1391D02*
X112Y1391D01*
X993Y1391D02*
X1048Y1391D01*
X1407Y1391D02*
X1414Y1391D01*
X0Y1390D02*
X7Y1390D01*
X15Y1390D02*
X21Y1390D01*
X59Y1390D02*
X68Y1390D01*
X77Y1390D02*
X84Y1390D01*
X105Y1390D02*
X112Y1390D01*
X993Y1390D02*
X1048Y1390D01*
X1407Y1390D02*
X1414Y1390D01*
X0Y1389D02*
X7Y1389D01*
X15Y1389D02*
X21Y1389D01*
X59Y1389D02*
X68Y1389D01*
X78Y1389D02*
X85Y1389D01*
X104Y1389D02*
X112Y1389D01*
X993Y1389D02*
X1048Y1389D01*
X1407Y1389D02*
X1414Y1389D01*
X0Y1388D02*
X7Y1388D01*
X15Y1388D02*
X21Y1388D01*
X59Y1388D02*
X68Y1388D01*
X78Y1388D02*
X86Y1388D01*
X103Y1388D02*
X111Y1388D01*
X993Y1388D02*
X1048Y1388D01*
X1407Y1388D02*
X1414Y1388D01*
X0Y1387D02*
X7Y1387D01*
X15Y1387D02*
X68Y1387D01*
X79Y1387D02*
X87Y1387D01*
X102Y1387D02*
X111Y1387D01*
X994Y1387D02*
X1047Y1387D01*
X1407Y1387D02*
X1414Y1387D01*
X0Y1386D02*
X7Y1386D01*
X15Y1386D02*
X68Y1386D01*
X79Y1386D02*
X88Y1386D01*
X102Y1386D02*
X110Y1386D01*
X995Y1386D02*
X1046Y1386D01*
X1407Y1386D02*
X1414Y1386D01*
X0Y1385D02*
X7Y1385D01*
X15Y1385D02*
X68Y1385D01*
X80Y1385D02*
X88Y1385D01*
X101Y1385D02*
X109Y1385D01*
X997Y1385D02*
X1045Y1385D01*
X1407Y1385D02*
X1414Y1385D01*
X0Y1384D02*
X7Y1384D01*
X15Y1384D02*
X69Y1384D01*
X81Y1384D02*
X89Y1384D01*
X100Y1384D02*
X108Y1384D01*
X1034Y1384D02*
X1046Y1384D01*
X1407Y1384D02*
X1414Y1384D01*
X0Y1383D02*
X7Y1383D01*
X15Y1383D02*
X110Y1383D01*
X1034Y1383D02*
X1046Y1383D01*
X1407Y1383D02*
X1414Y1383D01*
X0Y1382D02*
X7Y1382D01*
X15Y1382D02*
X111Y1382D01*
X1035Y1382D02*
X1047Y1382D01*
X1407Y1382D02*
X1414Y1382D01*
X0Y1381D02*
X7Y1381D01*
X15Y1381D02*
X112Y1381D01*
X1036Y1381D02*
X1047Y1381D01*
X1407Y1381D02*
X1414Y1381D01*
X0Y1380D02*
X7Y1380D01*
X15Y1380D02*
X21Y1380D01*
X64Y1380D02*
X112Y1380D01*
X1037Y1380D02*
X1048Y1380D01*
X1407Y1380D02*
X1414Y1380D01*
X0Y1379D02*
X7Y1379D01*
X15Y1379D02*
X21Y1379D01*
X65Y1379D02*
X112Y1379D01*
X1038Y1379D02*
X1048Y1379D01*
X1407Y1379D02*
X1414Y1379D01*
X0Y1378D02*
X7Y1378D01*
X15Y1378D02*
X21Y1378D01*
X66Y1378D02*
X112Y1378D01*
X1039Y1378D02*
X1048Y1378D01*
X1407Y1378D02*
X1414Y1378D01*
X0Y1377D02*
X7Y1377D01*
X15Y1377D02*
X21Y1377D01*
X68Y1377D02*
X111Y1377D01*
X1039Y1377D02*
X1048Y1377D01*
X1407Y1377D02*
X1414Y1377D01*
X0Y1376D02*
X7Y1376D01*
X15Y1376D02*
X21Y1376D01*
X1039Y1376D02*
X1048Y1376D01*
X1407Y1376D02*
X1414Y1376D01*
X0Y1375D02*
X7Y1375D01*
X15Y1375D02*
X21Y1375D01*
X1039Y1375D02*
X1048Y1375D01*
X1407Y1375D02*
X1414Y1375D01*
X0Y1374D02*
X7Y1374D01*
X15Y1374D02*
X21Y1374D01*
X996Y1374D02*
X1048Y1374D01*
X1407Y1374D02*
X1414Y1374D01*
X0Y1373D02*
X7Y1373D01*
X15Y1373D02*
X21Y1373D01*
X994Y1373D02*
X1048Y1373D01*
X1407Y1373D02*
X1414Y1373D01*
X0Y1372D02*
X7Y1372D01*
X15Y1372D02*
X21Y1372D01*
X994Y1372D02*
X1048Y1372D01*
X1407Y1372D02*
X1414Y1372D01*
X0Y1371D02*
X7Y1371D01*
X16Y1371D02*
X20Y1371D01*
X993Y1371D02*
X1047Y1371D01*
X1407Y1371D02*
X1414Y1371D01*
X0Y1370D02*
X7Y1370D01*
X17Y1370D02*
X19Y1370D01*
X993Y1370D02*
X1047Y1370D01*
X1407Y1370D02*
X1414Y1370D01*
X0Y1369D02*
X7Y1369D01*
X993Y1369D02*
X1046Y1369D01*
X1407Y1369D02*
X1414Y1369D01*
X0Y1368D02*
X7Y1368D01*
X993Y1368D02*
X1045Y1368D01*
X1407Y1368D02*
X1414Y1368D01*
X0Y1367D02*
X7Y1367D01*
X993Y1367D02*
X1044Y1367D01*
X1407Y1367D02*
X1414Y1367D01*
X0Y1366D02*
X7Y1366D01*
X994Y1366D02*
X1044Y1366D01*
X1407Y1366D02*
X1414Y1366D01*
X0Y1365D02*
X7Y1365D01*
X995Y1365D02*
X1045Y1365D01*
X1407Y1365D02*
X1414Y1365D01*
X0Y1364D02*
X7Y1364D01*
X1034Y1364D02*
X1046Y1364D01*
X1407Y1364D02*
X1414Y1364D01*
X0Y1363D02*
X7Y1363D01*
X1035Y1363D02*
X1047Y1363D01*
X1407Y1363D02*
X1414Y1363D01*
X0Y1362D02*
X7Y1362D01*
X1035Y1362D02*
X1047Y1362D01*
X1407Y1362D02*
X1414Y1362D01*
X0Y1361D02*
X7Y1361D01*
X1036Y1361D02*
X1047Y1361D01*
X1407Y1361D02*
X1414Y1361D01*
X0Y1360D02*
X7Y1360D01*
X1037Y1360D02*
X1048Y1360D01*
X1407Y1360D02*
X1414Y1360D01*
X0Y1359D02*
X7Y1359D01*
X1038Y1359D02*
X1048Y1359D01*
X1407Y1359D02*
X1414Y1359D01*
X0Y1358D02*
X7Y1358D01*
X1039Y1358D02*
X1048Y1358D01*
X1407Y1358D02*
X1414Y1358D01*
X0Y1357D02*
X7Y1357D01*
X76Y1357D02*
X78Y1357D01*
X109Y1357D02*
X110Y1357D01*
X1039Y1357D02*
X1048Y1357D01*
X1407Y1357D02*
X1414Y1357D01*
X0Y1356D02*
X7Y1356D01*
X75Y1356D02*
X79Y1356D01*
X107Y1356D02*
X111Y1356D01*
X1039Y1356D02*
X1048Y1356D01*
X1407Y1356D02*
X1414Y1356D01*
X0Y1355D02*
X7Y1355D01*
X74Y1355D02*
X80Y1355D01*
X107Y1355D02*
X112Y1355D01*
X1035Y1355D02*
X1048Y1355D01*
X1407Y1355D02*
X1414Y1355D01*
X0Y1354D02*
X7Y1354D01*
X74Y1354D02*
X80Y1354D01*
X106Y1354D02*
X112Y1354D01*
X1006Y1354D02*
X1048Y1354D01*
X1407Y1354D02*
X1414Y1354D01*
X0Y1353D02*
X7Y1353D01*
X74Y1353D02*
X80Y1353D01*
X106Y1353D02*
X112Y1353D01*
X995Y1353D02*
X1047Y1353D01*
X1407Y1353D02*
X1414Y1353D01*
X0Y1352D02*
X7Y1352D01*
X74Y1352D02*
X80Y1352D01*
X106Y1352D02*
X112Y1352D01*
X994Y1352D02*
X1047Y1352D01*
X1407Y1352D02*
X1414Y1352D01*
X0Y1351D02*
X7Y1351D01*
X74Y1351D02*
X80Y1351D01*
X106Y1351D02*
X112Y1351D01*
X993Y1351D02*
X1046Y1351D01*
X1407Y1351D02*
X1414Y1351D01*
X0Y1350D02*
X7Y1350D01*
X30Y1350D02*
X52Y1350D01*
X74Y1350D02*
X80Y1350D01*
X106Y1350D02*
X112Y1350D01*
X123Y1350D02*
X128Y1350D01*
X993Y1350D02*
X1046Y1350D01*
X1407Y1350D02*
X1414Y1350D01*
X0Y1349D02*
X7Y1349D01*
X21Y1349D02*
X53Y1349D01*
X74Y1349D02*
X80Y1349D01*
X106Y1349D02*
X112Y1349D01*
X122Y1349D02*
X129Y1349D01*
X993Y1349D02*
X1045Y1349D01*
X1407Y1349D02*
X1414Y1349D01*
X0Y1348D02*
X7Y1348D01*
X20Y1348D02*
X53Y1348D01*
X74Y1348D02*
X80Y1348D01*
X106Y1348D02*
X112Y1348D01*
X121Y1348D02*
X130Y1348D01*
X993Y1348D02*
X1044Y1348D01*
X1407Y1348D02*
X1414Y1348D01*
X0Y1347D02*
X7Y1347D01*
X18Y1347D02*
X53Y1347D01*
X74Y1347D02*
X80Y1347D01*
X106Y1347D02*
X112Y1347D01*
X121Y1347D02*
X130Y1347D01*
X993Y1347D02*
X1043Y1347D01*
X1407Y1347D02*
X1414Y1347D01*
X0Y1346D02*
X7Y1346D01*
X18Y1346D02*
X53Y1346D01*
X74Y1346D02*
X112Y1346D01*
X121Y1346D02*
X130Y1346D01*
X993Y1346D02*
X1041Y1346D01*
X1407Y1346D02*
X1414Y1346D01*
X0Y1345D02*
X7Y1345D01*
X17Y1345D02*
X53Y1345D01*
X74Y1345D02*
X112Y1345D01*
X121Y1345D02*
X130Y1345D01*
X994Y1345D02*
X1034Y1345D01*
X1407Y1345D02*
X1414Y1345D01*
X0Y1344D02*
X7Y1344D01*
X16Y1344D02*
X51Y1344D01*
X74Y1344D02*
X112Y1344D01*
X121Y1344D02*
X130Y1344D01*
X996Y1344D02*
X1007Y1344D01*
X1407Y1344D02*
X1414Y1344D01*
X0Y1343D02*
X7Y1343D01*
X16Y1343D02*
X30Y1343D01*
X74Y1343D02*
X112Y1343D01*
X121Y1343D02*
X130Y1343D01*
X1407Y1343D02*
X1414Y1343D01*
X0Y1342D02*
X7Y1342D01*
X15Y1342D02*
X22Y1342D01*
X74Y1342D02*
X112Y1342D01*
X121Y1342D02*
X130Y1342D01*
X1407Y1342D02*
X1414Y1342D01*
X0Y1341D02*
X7Y1341D01*
X15Y1341D02*
X22Y1341D01*
X74Y1341D02*
X111Y1341D01*
X122Y1341D02*
X129Y1341D01*
X1407Y1341D02*
X1414Y1341D01*
X0Y1340D02*
X7Y1340D01*
X15Y1340D02*
X21Y1340D01*
X74Y1340D02*
X109Y1340D01*
X124Y1340D02*
X127Y1340D01*
X1407Y1340D02*
X1414Y1340D01*
X0Y1339D02*
X7Y1339D01*
X15Y1339D02*
X21Y1339D01*
X74Y1339D02*
X80Y1339D01*
X1407Y1339D02*
X1414Y1339D01*
X0Y1338D02*
X7Y1338D01*
X15Y1338D02*
X21Y1338D01*
X74Y1338D02*
X80Y1338D01*
X1407Y1338D02*
X1414Y1338D01*
X0Y1337D02*
X7Y1337D01*
X15Y1337D02*
X21Y1337D01*
X74Y1337D02*
X80Y1337D01*
X1407Y1337D02*
X1414Y1337D01*
X0Y1336D02*
X7Y1336D01*
X15Y1336D02*
X21Y1336D01*
X74Y1336D02*
X80Y1336D01*
X1407Y1336D02*
X1414Y1336D01*
X0Y1335D02*
X7Y1335D01*
X15Y1335D02*
X21Y1335D01*
X74Y1335D02*
X80Y1335D01*
X1407Y1335D02*
X1414Y1335D01*
X0Y1334D02*
X7Y1334D01*
X15Y1334D02*
X21Y1334D01*
X74Y1334D02*
X80Y1334D01*
X1407Y1334D02*
X1414Y1334D01*
X0Y1333D02*
X7Y1333D01*
X15Y1333D02*
X22Y1333D01*
X74Y1333D02*
X80Y1333D01*
X1407Y1333D02*
X1414Y1333D01*
X0Y1332D02*
X7Y1332D01*
X16Y1332D02*
X23Y1332D01*
X74Y1332D02*
X80Y1332D01*
X1407Y1332D02*
X1414Y1332D01*
X0Y1331D02*
X7Y1331D01*
X16Y1331D02*
X23Y1331D01*
X75Y1331D02*
X79Y1331D01*
X1407Y1331D02*
X1414Y1331D01*
X0Y1330D02*
X7Y1330D01*
X17Y1330D02*
X24Y1330D01*
X76Y1330D02*
X78Y1330D01*
X1407Y1330D02*
X1414Y1330D01*
X0Y1329D02*
X7Y1329D01*
X17Y1329D02*
X25Y1329D01*
X1407Y1329D02*
X1414Y1329D01*
X0Y1328D02*
X7Y1328D01*
X18Y1328D02*
X25Y1328D01*
X1407Y1328D02*
X1414Y1328D01*
X0Y1327D02*
X7Y1327D01*
X19Y1327D02*
X26Y1327D01*
X1407Y1327D02*
X1414Y1327D01*
X0Y1326D02*
X7Y1326D01*
X19Y1326D02*
X27Y1326D01*
X1407Y1326D02*
X1414Y1326D01*
X0Y1325D02*
X7Y1325D01*
X20Y1325D02*
X27Y1325D01*
X1407Y1325D02*
X1414Y1325D01*
X0Y1324D02*
X7Y1324D01*
X21Y1324D02*
X28Y1324D01*
X1407Y1324D02*
X1414Y1324D01*
X0Y1323D02*
X7Y1323D01*
X18Y1323D02*
X51Y1323D01*
X1407Y1323D02*
X1414Y1323D01*
X0Y1322D02*
X7Y1322D01*
X16Y1322D02*
X53Y1322D01*
X1407Y1322D02*
X1414Y1322D01*
X0Y1321D02*
X7Y1321D01*
X15Y1321D02*
X53Y1321D01*
X1407Y1321D02*
X1414Y1321D01*
X0Y1320D02*
X7Y1320D01*
X15Y1320D02*
X53Y1320D01*
X1407Y1320D02*
X1414Y1320D01*
X0Y1319D02*
X7Y1319D01*
X15Y1319D02*
X53Y1319D01*
X1407Y1319D02*
X1414Y1319D01*
X0Y1318D02*
X7Y1318D01*
X16Y1318D02*
X53Y1318D01*
X1407Y1318D02*
X1414Y1318D01*
X0Y1317D02*
X7Y1317D01*
X16Y1317D02*
X52Y1317D01*
X1407Y1317D02*
X1414Y1317D01*
X0Y1316D02*
X7Y1316D01*
X1407Y1316D02*
X1414Y1316D01*
X0Y1315D02*
X7Y1315D01*
X1407Y1315D02*
X1414Y1315D01*
X0Y1314D02*
X7Y1314D01*
X1407Y1314D02*
X1414Y1314D01*
X0Y1313D02*
X7Y1313D01*
X1407Y1313D02*
X1414Y1313D01*
X0Y1312D02*
X7Y1312D01*
X1407Y1312D02*
X1414Y1312D01*
X0Y1311D02*
X7Y1311D01*
X1407Y1311D02*
X1414Y1311D01*
X0Y1310D02*
X7Y1310D01*
X83Y1310D02*
X103Y1310D01*
X1407Y1310D02*
X1414Y1310D01*
X0Y1309D02*
X7Y1309D01*
X81Y1309D02*
X105Y1309D01*
X1407Y1309D02*
X1414Y1309D01*
X0Y1308D02*
X7Y1308D01*
X80Y1308D02*
X106Y1308D01*
X1407Y1308D02*
X1414Y1308D01*
X0Y1307D02*
X7Y1307D01*
X79Y1307D02*
X107Y1307D01*
X1407Y1307D02*
X1414Y1307D01*
X0Y1306D02*
X7Y1306D01*
X78Y1306D02*
X108Y1306D01*
X1407Y1306D02*
X1414Y1306D01*
X0Y1305D02*
X7Y1305D01*
X77Y1305D02*
X109Y1305D01*
X1407Y1305D02*
X1414Y1305D01*
X0Y1304D02*
X7Y1304D01*
X76Y1304D02*
X110Y1304D01*
X1407Y1304D02*
X1414Y1304D01*
X0Y1303D02*
X7Y1303D01*
X75Y1303D02*
X84Y1303D01*
X89Y1303D02*
X95Y1303D01*
X102Y1303D02*
X111Y1303D01*
X1407Y1303D02*
X1414Y1303D01*
X0Y1302D02*
X7Y1302D01*
X75Y1302D02*
X83Y1302D01*
X89Y1302D02*
X95Y1302D01*
X104Y1302D02*
X111Y1302D01*
X1407Y1302D02*
X1414Y1302D01*
X0Y1301D02*
X7Y1301D01*
X19Y1301D02*
X50Y1301D01*
X74Y1301D02*
X82Y1301D01*
X89Y1301D02*
X95Y1301D01*
X104Y1301D02*
X112Y1301D01*
X1407Y1301D02*
X1414Y1301D01*
X0Y1300D02*
X7Y1300D01*
X16Y1300D02*
X52Y1300D01*
X74Y1300D02*
X81Y1300D01*
X89Y1300D02*
X95Y1300D01*
X105Y1300D02*
X112Y1300D01*
X1407Y1300D02*
X1414Y1300D01*
X0Y1299D02*
X7Y1299D01*
X15Y1299D02*
X53Y1299D01*
X74Y1299D02*
X80Y1299D01*
X89Y1299D02*
X95Y1299D01*
X106Y1299D02*
X112Y1299D01*
X1407Y1299D02*
X1414Y1299D01*
X0Y1298D02*
X7Y1298D01*
X15Y1298D02*
X53Y1298D01*
X74Y1298D02*
X80Y1298D01*
X89Y1298D02*
X95Y1298D01*
X106Y1298D02*
X112Y1298D01*
X1407Y1298D02*
X1414Y1298D01*
X0Y1297D02*
X7Y1297D01*
X15Y1297D02*
X53Y1297D01*
X74Y1297D02*
X80Y1297D01*
X89Y1297D02*
X95Y1297D01*
X106Y1297D02*
X112Y1297D01*
X1407Y1297D02*
X1414Y1297D01*
X0Y1296D02*
X7Y1296D01*
X16Y1296D02*
X53Y1296D01*
X74Y1296D02*
X80Y1296D01*
X89Y1296D02*
X95Y1296D01*
X106Y1296D02*
X112Y1296D01*
X1407Y1296D02*
X1414Y1296D01*
X0Y1295D02*
X7Y1295D01*
X16Y1295D02*
X52Y1295D01*
X74Y1295D02*
X80Y1295D01*
X89Y1295D02*
X95Y1295D01*
X106Y1295D02*
X112Y1295D01*
X1407Y1295D02*
X1414Y1295D01*
X0Y1294D02*
X7Y1294D01*
X43Y1294D02*
X51Y1294D01*
X74Y1294D02*
X80Y1294D01*
X89Y1294D02*
X95Y1294D01*
X106Y1294D02*
X112Y1294D01*
X1407Y1294D02*
X1414Y1294D01*
X0Y1293D02*
X7Y1293D01*
X44Y1293D02*
X52Y1293D01*
X74Y1293D02*
X80Y1293D01*
X89Y1293D02*
X95Y1293D01*
X106Y1293D02*
X112Y1293D01*
X1407Y1293D02*
X1414Y1293D01*
X0Y1292D02*
X7Y1292D01*
X45Y1292D02*
X53Y1292D01*
X74Y1292D02*
X80Y1292D01*
X89Y1292D02*
X95Y1292D01*
X106Y1292D02*
X112Y1292D01*
X1407Y1292D02*
X1414Y1292D01*
X0Y1291D02*
X7Y1291D01*
X46Y1291D02*
X53Y1291D01*
X74Y1291D02*
X80Y1291D01*
X89Y1291D02*
X95Y1291D01*
X106Y1291D02*
X112Y1291D01*
X1407Y1291D02*
X1414Y1291D01*
X0Y1290D02*
X7Y1290D01*
X46Y1290D02*
X53Y1290D01*
X74Y1290D02*
X80Y1290D01*
X89Y1290D02*
X95Y1290D01*
X106Y1290D02*
X112Y1290D01*
X1407Y1290D02*
X1414Y1290D01*
X0Y1289D02*
X7Y1289D01*
X47Y1289D02*
X53Y1289D01*
X74Y1289D02*
X80Y1289D01*
X89Y1289D02*
X95Y1289D01*
X106Y1289D02*
X112Y1289D01*
X1407Y1289D02*
X1414Y1289D01*
X0Y1288D02*
X7Y1288D01*
X47Y1288D02*
X54Y1288D01*
X74Y1288D02*
X80Y1288D01*
X89Y1288D02*
X95Y1288D01*
X106Y1288D02*
X112Y1288D01*
X1407Y1288D02*
X1414Y1288D01*
X0Y1287D02*
X7Y1287D01*
X47Y1287D02*
X53Y1287D01*
X74Y1287D02*
X80Y1287D01*
X89Y1287D02*
X95Y1287D01*
X106Y1287D02*
X112Y1287D01*
X1407Y1287D02*
X1414Y1287D01*
X0Y1286D02*
X7Y1286D01*
X17Y1286D02*
X53Y1286D01*
X74Y1286D02*
X80Y1286D01*
X89Y1286D02*
X95Y1286D01*
X105Y1286D02*
X112Y1286D01*
X1407Y1286D02*
X1414Y1286D01*
X0Y1285D02*
X7Y1285D01*
X16Y1285D02*
X53Y1285D01*
X74Y1285D02*
X80Y1285D01*
X89Y1285D02*
X95Y1285D01*
X104Y1285D02*
X112Y1285D01*
X1407Y1285D02*
X1414Y1285D01*
X0Y1284D02*
X7Y1284D01*
X15Y1284D02*
X52Y1284D01*
X74Y1284D02*
X80Y1284D01*
X89Y1284D02*
X95Y1284D01*
X103Y1284D02*
X111Y1284D01*
X1407Y1284D02*
X1414Y1284D01*
X0Y1283D02*
X7Y1283D01*
X15Y1283D02*
X52Y1283D01*
X74Y1283D02*
X80Y1283D01*
X89Y1283D02*
X95Y1283D01*
X101Y1283D02*
X110Y1283D01*
X1407Y1283D02*
X1414Y1283D01*
X0Y1282D02*
X7Y1282D01*
X15Y1282D02*
X51Y1282D01*
X74Y1282D02*
X80Y1282D01*
X89Y1282D02*
X110Y1282D01*
X1407Y1282D02*
X1414Y1282D01*
X0Y1281D02*
X7Y1281D01*
X16Y1281D02*
X51Y1281D01*
X74Y1281D02*
X80Y1281D01*
X89Y1281D02*
X109Y1281D01*
X1407Y1281D02*
X1414Y1281D01*
X0Y1280D02*
X7Y1280D01*
X17Y1280D02*
X51Y1280D01*
X74Y1280D02*
X80Y1280D01*
X89Y1280D02*
X108Y1280D01*
X1407Y1280D02*
X1414Y1280D01*
X0Y1279D02*
X7Y1279D01*
X44Y1279D02*
X52Y1279D01*
X74Y1279D02*
X80Y1279D01*
X89Y1279D02*
X107Y1279D01*
X732Y1279D02*
X766Y1279D01*
X1407Y1279D02*
X1414Y1279D01*
X0Y1278D02*
X7Y1278D01*
X45Y1278D02*
X53Y1278D01*
X74Y1278D02*
X80Y1278D01*
X89Y1278D02*
X106Y1278D01*
X732Y1278D02*
X767Y1278D01*
X1407Y1278D02*
X1414Y1278D01*
X0Y1277D02*
X7Y1277D01*
X46Y1277D02*
X53Y1277D01*
X75Y1277D02*
X79Y1277D01*
X90Y1277D02*
X104Y1277D01*
X464Y1277D02*
X469Y1277D01*
X732Y1277D02*
X767Y1277D01*
X1012Y1277D02*
X1015Y1277D01*
X1059Y1277D02*
X1062Y1277D01*
X1407Y1277D02*
X1414Y1277D01*
X0Y1276D02*
X7Y1276D01*
X47Y1276D02*
X53Y1276D01*
X77Y1276D02*
X77Y1276D01*
X92Y1276D02*
X101Y1276D01*
X463Y1276D02*
X470Y1276D01*
X732Y1276D02*
X767Y1276D01*
X1011Y1276D02*
X1016Y1276D01*
X1058Y1276D02*
X1063Y1276D01*
X1407Y1276D02*
X1414Y1276D01*
X0Y1275D02*
X7Y1275D01*
X47Y1275D02*
X53Y1275D01*
X462Y1275D02*
X471Y1275D01*
X732Y1275D02*
X767Y1275D01*
X1010Y1275D02*
X1016Y1275D01*
X1057Y1275D02*
X1063Y1275D01*
X1407Y1275D02*
X1414Y1275D01*
X0Y1274D02*
X7Y1274D01*
X47Y1274D02*
X53Y1274D01*
X462Y1274D02*
X471Y1274D01*
X732Y1274D02*
X766Y1274D01*
X1010Y1274D02*
X1016Y1274D01*
X1057Y1274D02*
X1063Y1274D01*
X1407Y1274D02*
X1414Y1274D01*
X0Y1273D02*
X7Y1273D01*
X34Y1273D02*
X53Y1273D01*
X462Y1273D02*
X471Y1273D01*
X732Y1273D02*
X765Y1273D01*
X1010Y1273D02*
X1016Y1273D01*
X1057Y1273D02*
X1063Y1273D01*
X1407Y1273D02*
X1414Y1273D01*
X0Y1272D02*
X7Y1272D01*
X17Y1272D02*
X53Y1272D01*
X463Y1272D02*
X471Y1272D01*
X732Y1272D02*
X738Y1272D01*
X1010Y1272D02*
X1016Y1272D01*
X1057Y1272D02*
X1063Y1272D01*
X1407Y1272D02*
X1414Y1272D01*
X0Y1271D02*
X7Y1271D01*
X16Y1271D02*
X52Y1271D01*
X464Y1271D02*
X471Y1271D01*
X732Y1271D02*
X738Y1271D01*
X1010Y1271D02*
X1016Y1271D01*
X1057Y1271D02*
X1063Y1271D01*
X1407Y1271D02*
X1414Y1271D01*
X0Y1270D02*
X7Y1270D01*
X15Y1270D02*
X52Y1270D01*
X465Y1270D02*
X471Y1270D01*
X732Y1270D02*
X738Y1270D01*
X1010Y1270D02*
X1016Y1270D01*
X1057Y1270D02*
X1063Y1270D01*
X1407Y1270D02*
X1414Y1270D01*
X0Y1269D02*
X7Y1269D01*
X15Y1269D02*
X51Y1269D01*
X465Y1269D02*
X471Y1269D01*
X732Y1269D02*
X738Y1269D01*
X1010Y1269D02*
X1016Y1269D01*
X1057Y1269D02*
X1063Y1269D01*
X1407Y1269D02*
X1414Y1269D01*
X0Y1268D02*
X7Y1268D01*
X15Y1268D02*
X50Y1268D01*
X465Y1268D02*
X471Y1268D01*
X732Y1268D02*
X738Y1268D01*
X1010Y1268D02*
X1016Y1268D01*
X1057Y1268D02*
X1063Y1268D01*
X1407Y1268D02*
X1414Y1268D01*
X0Y1267D02*
X7Y1267D01*
X16Y1267D02*
X48Y1267D01*
X465Y1267D02*
X471Y1267D01*
X732Y1267D02*
X738Y1267D01*
X1010Y1267D02*
X1016Y1267D01*
X1057Y1267D02*
X1063Y1267D01*
X1407Y1267D02*
X1414Y1267D01*
X0Y1266D02*
X7Y1266D01*
X17Y1266D02*
X33Y1266D01*
X465Y1266D02*
X471Y1266D01*
X732Y1266D02*
X738Y1266D01*
X1010Y1266D02*
X1016Y1266D01*
X1057Y1266D02*
X1063Y1266D01*
X1407Y1266D02*
X1414Y1266D01*
X0Y1265D02*
X7Y1265D01*
X465Y1265D02*
X471Y1265D01*
X732Y1265D02*
X738Y1265D01*
X1010Y1265D02*
X1016Y1265D01*
X1057Y1265D02*
X1063Y1265D01*
X1407Y1265D02*
X1414Y1265D01*
X0Y1264D02*
X7Y1264D01*
X465Y1264D02*
X471Y1264D01*
X732Y1264D02*
X738Y1264D01*
X1010Y1264D02*
X1016Y1264D01*
X1057Y1264D02*
X1063Y1264D01*
X1407Y1264D02*
X1414Y1264D01*
X0Y1263D02*
X7Y1263D01*
X419Y1263D02*
X440Y1263D01*
X465Y1263D02*
X471Y1263D01*
X732Y1263D02*
X738Y1263D01*
X1010Y1263D02*
X1063Y1263D01*
X1407Y1263D02*
X1414Y1263D01*
X0Y1262D02*
X7Y1262D01*
X418Y1262D02*
X441Y1262D01*
X465Y1262D02*
X471Y1262D01*
X732Y1262D02*
X738Y1262D01*
X1010Y1262D02*
X1063Y1262D01*
X1407Y1262D02*
X1414Y1262D01*
X0Y1261D02*
X7Y1261D01*
X418Y1261D02*
X442Y1261D01*
X465Y1261D02*
X471Y1261D01*
X732Y1261D02*
X738Y1261D01*
X1010Y1261D02*
X1063Y1261D01*
X1407Y1261D02*
X1414Y1261D01*
X0Y1260D02*
X7Y1260D01*
X418Y1260D02*
X443Y1260D01*
X465Y1260D02*
X471Y1260D01*
X732Y1260D02*
X738Y1260D01*
X1010Y1260D02*
X1063Y1260D01*
X1407Y1260D02*
X1414Y1260D01*
X0Y1259D02*
X7Y1259D01*
X418Y1259D02*
X444Y1259D01*
X465Y1259D02*
X471Y1259D01*
X718Y1259D02*
X758Y1259D01*
X1010Y1259D02*
X1063Y1259D01*
X1407Y1259D02*
X1414Y1259D01*
X0Y1258D02*
X7Y1258D01*
X419Y1258D02*
X445Y1258D01*
X465Y1258D02*
X471Y1258D01*
X715Y1258D02*
X760Y1258D01*
X1010Y1258D02*
X1063Y1258D01*
X1407Y1258D02*
X1414Y1258D01*
X0Y1257D02*
X7Y1257D01*
X421Y1257D02*
X446Y1257D01*
X465Y1257D02*
X471Y1257D01*
X714Y1257D02*
X761Y1257D01*
X1010Y1257D02*
X1063Y1257D01*
X1407Y1257D02*
X1414Y1257D01*
X0Y1256D02*
X7Y1256D01*
X75Y1256D02*
X79Y1256D01*
X122Y1256D02*
X126Y1256D01*
X438Y1256D02*
X446Y1256D01*
X465Y1256D02*
X471Y1256D01*
X714Y1256D02*
X761Y1256D01*
X1010Y1256D02*
X1016Y1256D01*
X1407Y1256D02*
X1414Y1256D01*
X0Y1255D02*
X7Y1255D01*
X74Y1255D02*
X79Y1255D01*
X121Y1255D02*
X127Y1255D01*
X439Y1255D02*
X447Y1255D01*
X465Y1255D02*
X471Y1255D01*
X714Y1255D02*
X761Y1255D01*
X1010Y1255D02*
X1016Y1255D01*
X1407Y1255D02*
X1414Y1255D01*
X0Y1254D02*
X7Y1254D01*
X74Y1254D02*
X80Y1254D01*
X121Y1254D02*
X127Y1254D01*
X440Y1254D02*
X448Y1254D01*
X465Y1254D02*
X471Y1254D01*
X714Y1254D02*
X761Y1254D01*
X1010Y1254D02*
X1016Y1254D01*
X1407Y1254D02*
X1414Y1254D01*
X0Y1253D02*
X7Y1253D01*
X74Y1253D02*
X80Y1253D01*
X121Y1253D02*
X127Y1253D01*
X441Y1253D02*
X449Y1253D01*
X465Y1253D02*
X471Y1253D01*
X715Y1253D02*
X760Y1253D01*
X1010Y1253D02*
X1016Y1253D01*
X1407Y1253D02*
X1414Y1253D01*
X0Y1252D02*
X7Y1252D01*
X74Y1252D02*
X80Y1252D01*
X121Y1252D02*
X127Y1252D01*
X442Y1252D02*
X450Y1252D01*
X465Y1252D02*
X471Y1252D01*
X718Y1252D02*
X757Y1252D01*
X1010Y1252D02*
X1016Y1252D01*
X1407Y1252D02*
X1414Y1252D01*
X0Y1251D02*
X7Y1251D01*
X74Y1251D02*
X80Y1251D01*
X121Y1251D02*
X127Y1251D01*
X442Y1251D02*
X451Y1251D01*
X465Y1251D02*
X471Y1251D01*
X732Y1251D02*
X737Y1251D01*
X1010Y1251D02*
X1016Y1251D01*
X1407Y1251D02*
X1414Y1251D01*
X0Y1250D02*
X7Y1250D01*
X25Y1250D02*
X43Y1250D01*
X74Y1250D02*
X80Y1250D01*
X121Y1250D02*
X127Y1250D01*
X443Y1250D02*
X471Y1250D01*
X732Y1250D02*
X737Y1250D01*
X1010Y1250D02*
X1031Y1250D01*
X1407Y1250D02*
X1414Y1250D01*
X0Y1249D02*
X7Y1249D01*
X23Y1249D02*
X46Y1249D01*
X74Y1249D02*
X80Y1249D01*
X121Y1249D02*
X127Y1249D01*
X444Y1249D02*
X471Y1249D01*
X733Y1249D02*
X736Y1249D01*
X1010Y1249D02*
X1033Y1249D01*
X1407Y1249D02*
X1414Y1249D01*
X0Y1248D02*
X7Y1248D01*
X21Y1248D02*
X47Y1248D01*
X74Y1248D02*
X80Y1248D01*
X121Y1248D02*
X127Y1248D01*
X445Y1248D02*
X471Y1248D01*
X1010Y1248D02*
X1033Y1248D01*
X1407Y1248D02*
X1414Y1248D01*
X0Y1247D02*
X7Y1247D01*
X20Y1247D02*
X49Y1247D01*
X74Y1247D02*
X80Y1247D01*
X121Y1247D02*
X127Y1247D01*
X446Y1247D02*
X471Y1247D01*
X1010Y1247D02*
X1034Y1247D01*
X1407Y1247D02*
X1414Y1247D01*
X0Y1246D02*
X7Y1246D01*
X19Y1246D02*
X49Y1246D01*
X74Y1246D02*
X127Y1246D01*
X447Y1246D02*
X471Y1246D01*
X1010Y1246D02*
X1034Y1246D01*
X1407Y1246D02*
X1414Y1246D01*
X0Y1245D02*
X7Y1245D01*
X18Y1245D02*
X50Y1245D01*
X74Y1245D02*
X127Y1245D01*
X448Y1245D02*
X471Y1245D01*
X1011Y1245D02*
X1033Y1245D01*
X1407Y1245D02*
X1414Y1245D01*
X0Y1244D02*
X7Y1244D01*
X17Y1244D02*
X51Y1244D01*
X74Y1244D02*
X127Y1244D01*
X449Y1244D02*
X471Y1244D01*
X1011Y1244D02*
X1033Y1244D01*
X1407Y1244D02*
X1414Y1244D01*
X0Y1243D02*
X7Y1243D01*
X17Y1243D02*
X26Y1243D01*
X30Y1243D02*
X36Y1243D01*
X43Y1243D02*
X52Y1243D01*
X74Y1243D02*
X127Y1243D01*
X1407Y1243D02*
X1414Y1243D01*
X0Y1242D02*
X7Y1242D01*
X16Y1242D02*
X24Y1242D01*
X30Y1242D02*
X36Y1242D01*
X45Y1242D02*
X52Y1242D01*
X74Y1242D02*
X127Y1242D01*
X1407Y1242D02*
X1414Y1242D01*
X0Y1241D02*
X7Y1241D01*
X16Y1241D02*
X23Y1241D01*
X30Y1241D02*
X36Y1241D01*
X46Y1241D02*
X53Y1241D01*
X74Y1241D02*
X126Y1241D01*
X1407Y1241D02*
X1414Y1241D01*
X0Y1240D02*
X7Y1240D01*
X15Y1240D02*
X22Y1240D01*
X30Y1240D02*
X36Y1240D01*
X46Y1240D02*
X53Y1240D01*
X74Y1240D02*
X125Y1240D01*
X1407Y1240D02*
X1414Y1240D01*
X0Y1239D02*
X7Y1239D01*
X15Y1239D02*
X22Y1239D01*
X30Y1239D02*
X36Y1239D01*
X47Y1239D02*
X53Y1239D01*
X74Y1239D02*
X80Y1239D01*
X1407Y1239D02*
X1414Y1239D01*
X0Y1238D02*
X7Y1238D01*
X15Y1238D02*
X21Y1238D01*
X30Y1238D02*
X36Y1238D01*
X47Y1238D02*
X53Y1238D01*
X74Y1238D02*
X80Y1238D01*
X1407Y1238D02*
X1414Y1238D01*
X0Y1237D02*
X7Y1237D01*
X15Y1237D02*
X21Y1237D01*
X30Y1237D02*
X36Y1237D01*
X48Y1237D02*
X54Y1237D01*
X74Y1237D02*
X80Y1237D01*
X1407Y1237D02*
X1414Y1237D01*
X0Y1236D02*
X7Y1236D01*
X15Y1236D02*
X21Y1236D01*
X30Y1236D02*
X36Y1236D01*
X48Y1236D02*
X54Y1236D01*
X74Y1236D02*
X80Y1236D01*
X1407Y1236D02*
X1414Y1236D01*
X0Y1235D02*
X7Y1235D01*
X15Y1235D02*
X21Y1235D01*
X30Y1235D02*
X36Y1235D01*
X48Y1235D02*
X54Y1235D01*
X74Y1235D02*
X80Y1235D01*
X1407Y1235D02*
X1414Y1235D01*
X0Y1234D02*
X7Y1234D01*
X15Y1234D02*
X21Y1234D01*
X30Y1234D02*
X36Y1234D01*
X48Y1234D02*
X54Y1234D01*
X74Y1234D02*
X80Y1234D01*
X1407Y1234D02*
X1414Y1234D01*
X0Y1233D02*
X7Y1233D01*
X15Y1233D02*
X21Y1233D01*
X30Y1233D02*
X36Y1233D01*
X48Y1233D02*
X54Y1233D01*
X74Y1233D02*
X80Y1233D01*
X1407Y1233D02*
X1414Y1233D01*
X0Y1232D02*
X7Y1232D01*
X15Y1232D02*
X21Y1232D01*
X30Y1232D02*
X36Y1232D01*
X48Y1232D02*
X54Y1232D01*
X74Y1232D02*
X80Y1232D01*
X1407Y1232D02*
X1414Y1232D01*
X0Y1231D02*
X7Y1231D01*
X15Y1231D02*
X21Y1231D01*
X30Y1231D02*
X36Y1231D01*
X48Y1231D02*
X54Y1231D01*
X74Y1231D02*
X79Y1231D01*
X1407Y1231D02*
X1414Y1231D01*
X0Y1230D02*
X7Y1230D01*
X15Y1230D02*
X21Y1230D01*
X30Y1230D02*
X36Y1230D01*
X48Y1230D02*
X54Y1230D01*
X75Y1230D02*
X79Y1230D01*
X1407Y1230D02*
X1414Y1230D01*
X0Y1229D02*
X7Y1229D01*
X15Y1229D02*
X21Y1229D01*
X30Y1229D02*
X36Y1229D01*
X48Y1229D02*
X54Y1229D01*
X1407Y1229D02*
X1414Y1229D01*
X0Y1228D02*
X7Y1228D01*
X15Y1228D02*
X21Y1228D01*
X30Y1228D02*
X36Y1228D01*
X47Y1228D02*
X54Y1228D01*
X1407Y1228D02*
X1414Y1228D01*
X0Y1227D02*
X7Y1227D01*
X15Y1227D02*
X21Y1227D01*
X30Y1227D02*
X36Y1227D01*
X47Y1227D02*
X53Y1227D01*
X1407Y1227D02*
X1414Y1227D01*
X0Y1226D02*
X7Y1226D01*
X15Y1226D02*
X21Y1226D01*
X30Y1226D02*
X36Y1226D01*
X46Y1226D02*
X53Y1226D01*
X1407Y1226D02*
X1414Y1226D01*
X0Y1225D02*
X7Y1225D01*
X15Y1225D02*
X21Y1225D01*
X30Y1225D02*
X36Y1225D01*
X46Y1225D02*
X53Y1225D01*
X1407Y1225D02*
X1414Y1225D01*
X0Y1224D02*
X7Y1224D01*
X15Y1224D02*
X21Y1224D01*
X30Y1224D02*
X36Y1224D01*
X45Y1224D02*
X52Y1224D01*
X1407Y1224D02*
X1414Y1224D01*
X0Y1223D02*
X7Y1223D01*
X15Y1223D02*
X21Y1223D01*
X30Y1223D02*
X36Y1223D01*
X43Y1223D02*
X52Y1223D01*
X1407Y1223D02*
X1414Y1223D01*
X0Y1222D02*
X7Y1222D01*
X15Y1222D02*
X21Y1222D01*
X30Y1222D02*
X51Y1222D01*
X1407Y1222D02*
X1414Y1222D01*
X0Y1221D02*
X7Y1221D01*
X15Y1221D02*
X21Y1221D01*
X30Y1221D02*
X50Y1221D01*
X1407Y1221D02*
X1414Y1221D01*
X0Y1220D02*
X7Y1220D01*
X15Y1220D02*
X21Y1220D01*
X30Y1220D02*
X49Y1220D01*
X1407Y1220D02*
X1414Y1220D01*
X0Y1219D02*
X7Y1219D01*
X15Y1219D02*
X21Y1219D01*
X30Y1219D02*
X48Y1219D01*
X1407Y1219D02*
X1414Y1219D01*
X0Y1218D02*
X7Y1218D01*
X15Y1218D02*
X21Y1218D01*
X30Y1218D02*
X47Y1218D01*
X1407Y1218D02*
X1414Y1218D01*
X0Y1217D02*
X7Y1217D01*
X16Y1217D02*
X20Y1217D01*
X31Y1217D02*
X46Y1217D01*
X1407Y1217D02*
X1414Y1217D01*
X0Y1216D02*
X7Y1216D01*
X17Y1216D02*
X19Y1216D01*
X32Y1216D02*
X43Y1216D01*
X1407Y1216D02*
X1414Y1216D01*
X0Y1215D02*
X7Y1215D01*
X1407Y1215D02*
X1414Y1215D01*
X0Y1214D02*
X7Y1214D01*
X1407Y1214D02*
X1414Y1214D01*
X0Y1213D02*
X7Y1213D01*
X1407Y1213D02*
X1414Y1213D01*
X0Y1212D02*
X7Y1212D01*
X1407Y1212D02*
X1414Y1212D01*
X0Y1211D02*
X7Y1211D01*
X1407Y1211D02*
X1414Y1211D01*
X0Y1210D02*
X7Y1210D01*
X75Y1210D02*
X111Y1210D01*
X1407Y1210D02*
X1414Y1210D01*
X0Y1209D02*
X7Y1209D01*
X74Y1209D02*
X112Y1209D01*
X1407Y1209D02*
X1414Y1209D01*
X0Y1208D02*
X7Y1208D01*
X74Y1208D02*
X112Y1208D01*
X1407Y1208D02*
X1414Y1208D01*
X0Y1207D02*
X7Y1207D01*
X74Y1207D02*
X112Y1207D01*
X1407Y1207D02*
X1414Y1207D01*
X0Y1206D02*
X7Y1206D01*
X74Y1206D02*
X112Y1206D01*
X1407Y1206D02*
X1414Y1206D01*
X0Y1205D02*
X7Y1205D01*
X75Y1205D02*
X111Y1205D01*
X1407Y1205D02*
X1414Y1205D01*
X0Y1204D02*
X7Y1204D01*
X76Y1204D02*
X110Y1204D01*
X1407Y1204D02*
X1414Y1204D01*
X0Y1203D02*
X7Y1203D01*
X102Y1203D02*
X111Y1203D01*
X1407Y1203D02*
X1414Y1203D01*
X0Y1202D02*
X7Y1202D01*
X103Y1202D02*
X111Y1202D01*
X1407Y1202D02*
X1414Y1202D01*
X0Y1201D02*
X7Y1201D01*
X104Y1201D02*
X112Y1201D01*
X1407Y1201D02*
X1414Y1201D01*
X0Y1200D02*
X7Y1200D01*
X18Y1200D02*
X51Y1200D01*
X105Y1200D02*
X112Y1200D01*
X1407Y1200D02*
X1414Y1200D01*
X0Y1199D02*
X7Y1199D01*
X16Y1199D02*
X53Y1199D01*
X106Y1199D02*
X112Y1199D01*
X1407Y1199D02*
X1414Y1199D01*
X0Y1198D02*
X7Y1198D01*
X15Y1198D02*
X53Y1198D01*
X106Y1198D02*
X112Y1198D01*
X1407Y1198D02*
X1414Y1198D01*
X0Y1197D02*
X7Y1197D01*
X15Y1197D02*
X53Y1197D01*
X106Y1197D02*
X112Y1197D01*
X1407Y1197D02*
X1414Y1197D01*
X0Y1196D02*
X7Y1196D01*
X15Y1196D02*
X53Y1196D01*
X76Y1196D02*
X112Y1196D01*
X1407Y1196D02*
X1414Y1196D01*
X0Y1195D02*
X7Y1195D01*
X16Y1195D02*
X53Y1195D01*
X75Y1195D02*
X112Y1195D01*
X1407Y1195D02*
X1414Y1195D01*
X0Y1194D02*
X7Y1194D01*
X16Y1194D02*
X52Y1194D01*
X74Y1194D02*
X111Y1194D01*
X1407Y1194D02*
X1414Y1194D01*
X0Y1193D02*
X7Y1193D01*
X40Y1193D02*
X48Y1193D01*
X74Y1193D02*
X111Y1193D01*
X1407Y1193D02*
X1414Y1193D01*
X0Y1192D02*
X7Y1192D01*
X41Y1192D02*
X48Y1192D01*
X74Y1192D02*
X110Y1192D01*
X1407Y1192D02*
X1414Y1192D01*
X0Y1191D02*
X7Y1191D01*
X42Y1191D02*
X49Y1191D01*
X74Y1191D02*
X109Y1191D01*
X1407Y1191D02*
X1414Y1191D01*
X0Y1190D02*
X7Y1190D01*
X42Y1190D02*
X50Y1190D01*
X75Y1190D02*
X110Y1190D01*
X1407Y1190D02*
X1414Y1190D01*
X0Y1189D02*
X7Y1189D01*
X43Y1189D02*
X50Y1189D01*
X103Y1189D02*
X111Y1189D01*
X1407Y1189D02*
X1414Y1189D01*
X0Y1188D02*
X7Y1188D01*
X44Y1188D02*
X51Y1188D01*
X103Y1188D02*
X111Y1188D01*
X1407Y1188D02*
X1414Y1188D01*
X0Y1187D02*
X7Y1187D01*
X44Y1187D02*
X52Y1187D01*
X104Y1187D02*
X112Y1187D01*
X1407Y1187D02*
X1414Y1187D01*
X0Y1186D02*
X7Y1186D01*
X45Y1186D02*
X52Y1186D01*
X105Y1186D02*
X112Y1186D01*
X1407Y1186D02*
X1414Y1186D01*
X0Y1185D02*
X7Y1185D01*
X45Y1185D02*
X53Y1185D01*
X106Y1185D02*
X112Y1185D01*
X1407Y1185D02*
X1414Y1185D01*
X0Y1184D02*
X7Y1184D01*
X46Y1184D02*
X53Y1184D01*
X106Y1184D02*
X112Y1184D01*
X1407Y1184D02*
X1414Y1184D01*
X0Y1183D02*
X7Y1183D01*
X47Y1183D02*
X53Y1183D01*
X104Y1183D02*
X112Y1183D01*
X1407Y1183D02*
X1414Y1183D01*
X0Y1182D02*
X7Y1182D01*
X47Y1182D02*
X53Y1182D01*
X77Y1182D02*
X112Y1182D01*
X1407Y1182D02*
X1414Y1182D01*
X0Y1181D02*
X7Y1181D01*
X48Y1181D02*
X54Y1181D01*
X75Y1181D02*
X111Y1181D01*
X1407Y1181D02*
X1414Y1181D01*
X0Y1180D02*
X7Y1180D01*
X48Y1180D02*
X54Y1180D01*
X74Y1180D02*
X111Y1180D01*
X1407Y1180D02*
X1414Y1180D01*
X0Y1179D02*
X7Y1179D01*
X48Y1179D02*
X54Y1179D01*
X74Y1179D02*
X110Y1179D01*
X1407Y1179D02*
X1414Y1179D01*
X0Y1178D02*
X7Y1178D01*
X48Y1178D02*
X54Y1178D01*
X74Y1178D02*
X109Y1178D01*
X1407Y1178D02*
X1414Y1178D01*
X0Y1177D02*
X7Y1177D01*
X48Y1177D02*
X54Y1177D01*
X74Y1177D02*
X108Y1177D01*
X1407Y1177D02*
X1414Y1177D01*
X0Y1176D02*
X7Y1176D01*
X47Y1176D02*
X53Y1176D01*
X75Y1176D02*
X102Y1176D01*
X1407Y1176D02*
X1414Y1176D01*
X0Y1175D02*
X7Y1175D01*
X47Y1175D02*
X53Y1175D01*
X1407Y1175D02*
X1414Y1175D01*
X0Y1174D02*
X7Y1174D01*
X46Y1174D02*
X53Y1174D01*
X1407Y1174D02*
X1414Y1174D01*
X0Y1173D02*
X7Y1173D01*
X31Y1173D02*
X53Y1173D01*
X261Y1173D02*
X286Y1173D01*
X1407Y1173D02*
X1414Y1173D01*
X0Y1172D02*
X7Y1172D01*
X17Y1172D02*
X52Y1172D01*
X259Y1172D02*
X289Y1172D01*
X1407Y1172D02*
X1414Y1172D01*
X0Y1171D02*
X7Y1171D01*
X16Y1171D02*
X52Y1171D01*
X257Y1171D02*
X290Y1171D01*
X1407Y1171D02*
X1414Y1171D01*
X0Y1170D02*
X7Y1170D01*
X15Y1170D02*
X51Y1170D01*
X256Y1170D02*
X291Y1170D01*
X1407Y1170D02*
X1414Y1170D01*
X0Y1169D02*
X7Y1169D01*
X15Y1169D02*
X50Y1169D01*
X255Y1169D02*
X293Y1169D01*
X1407Y1169D02*
X1414Y1169D01*
X0Y1168D02*
X7Y1168D01*
X15Y1168D02*
X49Y1168D01*
X255Y1168D02*
X294Y1168D01*
X1407Y1168D02*
X1414Y1168D01*
X0Y1167D02*
X7Y1167D01*
X16Y1167D02*
X46Y1167D01*
X254Y1167D02*
X295Y1167D01*
X1407Y1167D02*
X1414Y1167D01*
X0Y1166D02*
X7Y1166D01*
X17Y1166D02*
X30Y1166D01*
X254Y1166D02*
X261Y1166D01*
X286Y1166D02*
X297Y1166D01*
X1407Y1166D02*
X1414Y1166D01*
X0Y1165D02*
X7Y1165D01*
X254Y1165D02*
X260Y1165D01*
X287Y1165D02*
X298Y1165D01*
X1407Y1165D02*
X1414Y1165D01*
X0Y1164D02*
X7Y1164D01*
X254Y1164D02*
X260Y1164D01*
X289Y1164D02*
X299Y1164D01*
X1407Y1164D02*
X1414Y1164D01*
X0Y1163D02*
X7Y1163D01*
X254Y1163D02*
X260Y1163D01*
X290Y1163D02*
X301Y1163D01*
X1407Y1163D02*
X1414Y1163D01*
X0Y1162D02*
X7Y1162D01*
X254Y1162D02*
X260Y1162D01*
X291Y1162D02*
X302Y1162D01*
X1407Y1162D02*
X1414Y1162D01*
X0Y1161D02*
X7Y1161D01*
X254Y1161D02*
X260Y1161D01*
X293Y1161D02*
X303Y1161D01*
X1407Y1161D02*
X1414Y1161D01*
X0Y1160D02*
X7Y1160D01*
X254Y1160D02*
X260Y1160D01*
X294Y1160D02*
X304Y1160D01*
X1407Y1160D02*
X1414Y1160D01*
X0Y1159D02*
X7Y1159D01*
X80Y1159D02*
X91Y1159D01*
X254Y1159D02*
X260Y1159D01*
X295Y1159D02*
X305Y1159D01*
X1407Y1159D02*
X1414Y1159D01*
X0Y1158D02*
X7Y1158D01*
X78Y1158D02*
X93Y1158D01*
X254Y1158D02*
X260Y1158D01*
X296Y1158D02*
X306Y1158D01*
X1407Y1158D02*
X1414Y1158D01*
X0Y1157D02*
X7Y1157D01*
X77Y1157D02*
X94Y1157D01*
X254Y1157D02*
X260Y1157D01*
X298Y1157D02*
X306Y1157D01*
X1407Y1157D02*
X1414Y1157D01*
X0Y1156D02*
X7Y1156D01*
X76Y1156D02*
X95Y1156D01*
X254Y1156D02*
X260Y1156D01*
X273Y1156D02*
X275Y1156D01*
X299Y1156D02*
X306Y1156D01*
X1407Y1156D02*
X1414Y1156D01*
X0Y1155D02*
X7Y1155D01*
X75Y1155D02*
X96Y1155D01*
X254Y1155D02*
X260Y1155D01*
X272Y1155D02*
X277Y1155D01*
X300Y1155D02*
X307Y1155D01*
X1407Y1155D02*
X1414Y1155D01*
X0Y1154D02*
X7Y1154D01*
X75Y1154D02*
X97Y1154D01*
X254Y1154D02*
X260Y1154D01*
X272Y1154D02*
X277Y1154D01*
X301Y1154D02*
X307Y1154D01*
X1407Y1154D02*
X1414Y1154D01*
X0Y1153D02*
X7Y1153D01*
X74Y1153D02*
X97Y1153D01*
X254Y1153D02*
X260Y1153D01*
X271Y1153D02*
X277Y1153D01*
X301Y1153D02*
X307Y1153D01*
X1407Y1153D02*
X1414Y1153D01*
X0Y1152D02*
X7Y1152D01*
X74Y1152D02*
X81Y1152D01*
X90Y1152D02*
X97Y1152D01*
X107Y1152D02*
X111Y1152D01*
X254Y1152D02*
X260Y1152D01*
X271Y1152D02*
X277Y1152D01*
X301Y1152D02*
X307Y1152D01*
X1407Y1152D02*
X1414Y1152D01*
X0Y1151D02*
X7Y1151D01*
X74Y1151D02*
X80Y1151D01*
X91Y1151D02*
X97Y1151D01*
X107Y1151D02*
X112Y1151D01*
X254Y1151D02*
X260Y1151D01*
X271Y1151D02*
X277Y1151D01*
X301Y1151D02*
X307Y1151D01*
X1407Y1151D02*
X1414Y1151D01*
X0Y1150D02*
X7Y1150D01*
X74Y1150D02*
X80Y1150D01*
X91Y1150D02*
X98Y1150D01*
X106Y1150D02*
X112Y1150D01*
X254Y1150D02*
X260Y1150D01*
X271Y1150D02*
X277Y1150D01*
X301Y1150D02*
X307Y1150D01*
X1407Y1150D02*
X1414Y1150D01*
X0Y1149D02*
X7Y1149D01*
X23Y1149D02*
X45Y1149D01*
X74Y1149D02*
X80Y1149D01*
X92Y1149D02*
X98Y1149D01*
X106Y1149D02*
X112Y1149D01*
X254Y1149D02*
X260Y1149D01*
X271Y1149D02*
X277Y1149D01*
X301Y1149D02*
X307Y1149D01*
X1407Y1149D02*
X1414Y1149D01*
X0Y1148D02*
X7Y1148D01*
X22Y1148D02*
X47Y1148D01*
X74Y1148D02*
X80Y1148D01*
X92Y1148D02*
X98Y1148D01*
X106Y1148D02*
X112Y1148D01*
X254Y1148D02*
X260Y1148D01*
X271Y1148D02*
X277Y1148D01*
X301Y1148D02*
X307Y1148D01*
X1407Y1148D02*
X1414Y1148D01*
X0Y1147D02*
X7Y1147D01*
X20Y1147D02*
X48Y1147D01*
X74Y1147D02*
X80Y1147D01*
X92Y1147D02*
X98Y1147D01*
X106Y1147D02*
X112Y1147D01*
X254Y1147D02*
X261Y1147D01*
X271Y1147D02*
X277Y1147D01*
X301Y1147D02*
X307Y1147D01*
X1407Y1147D02*
X1414Y1147D01*
X0Y1146D02*
X7Y1146D01*
X20Y1146D02*
X49Y1146D01*
X74Y1146D02*
X80Y1146D01*
X92Y1146D02*
X98Y1146D01*
X106Y1146D02*
X112Y1146D01*
X254Y1146D02*
X277Y1146D01*
X301Y1146D02*
X307Y1146D01*
X1407Y1146D02*
X1414Y1146D01*
X0Y1145D02*
X7Y1145D01*
X19Y1145D02*
X50Y1145D01*
X74Y1145D02*
X80Y1145D01*
X92Y1145D02*
X98Y1145D01*
X106Y1145D02*
X112Y1145D01*
X255Y1145D02*
X277Y1145D01*
X301Y1145D02*
X307Y1145D01*
X1407Y1145D02*
X1414Y1145D01*
X0Y1144D02*
X7Y1144D01*
X18Y1144D02*
X51Y1144D01*
X74Y1144D02*
X80Y1144D01*
X92Y1144D02*
X98Y1144D01*
X106Y1144D02*
X112Y1144D01*
X255Y1144D02*
X277Y1144D01*
X301Y1144D02*
X307Y1144D01*
X1407Y1144D02*
X1414Y1144D01*
X0Y1143D02*
X7Y1143D01*
X17Y1143D02*
X52Y1143D01*
X74Y1143D02*
X80Y1143D01*
X92Y1143D02*
X98Y1143D01*
X106Y1143D02*
X112Y1143D01*
X256Y1143D02*
X277Y1143D01*
X301Y1143D02*
X307Y1143D01*
X1407Y1143D02*
X1414Y1143D01*
X0Y1142D02*
X7Y1142D01*
X16Y1142D02*
X24Y1142D01*
X44Y1142D02*
X52Y1142D01*
X74Y1142D02*
X80Y1142D01*
X92Y1142D02*
X98Y1142D01*
X106Y1142D02*
X112Y1142D01*
X257Y1142D02*
X277Y1142D01*
X301Y1142D02*
X307Y1142D01*
X1407Y1142D02*
X1414Y1142D01*
X0Y1141D02*
X7Y1141D01*
X16Y1141D02*
X23Y1141D01*
X45Y1141D02*
X53Y1141D01*
X74Y1141D02*
X80Y1141D01*
X92Y1141D02*
X98Y1141D01*
X106Y1141D02*
X112Y1141D01*
X258Y1141D02*
X277Y1141D01*
X301Y1141D02*
X306Y1141D01*
X1407Y1141D02*
X1414Y1141D01*
X0Y1140D02*
X7Y1140D01*
X16Y1140D02*
X23Y1140D01*
X46Y1140D02*
X53Y1140D01*
X74Y1140D02*
X80Y1140D01*
X92Y1140D02*
X98Y1140D01*
X106Y1140D02*
X112Y1140D01*
X260Y1140D02*
X277Y1140D01*
X302Y1140D02*
X306Y1140D01*
X1407Y1140D02*
X1414Y1140D01*
X0Y1139D02*
X7Y1139D01*
X15Y1139D02*
X22Y1139D01*
X47Y1139D02*
X53Y1139D01*
X74Y1139D02*
X81Y1139D01*
X92Y1139D02*
X98Y1139D01*
X106Y1139D02*
X112Y1139D01*
X1407Y1139D02*
X1414Y1139D01*
X0Y1138D02*
X7Y1138D01*
X15Y1138D02*
X21Y1138D01*
X47Y1138D02*
X53Y1138D01*
X74Y1138D02*
X81Y1138D01*
X92Y1138D02*
X98Y1138D01*
X106Y1138D02*
X112Y1138D01*
X1407Y1138D02*
X1414Y1138D01*
X0Y1137D02*
X7Y1137D01*
X15Y1137D02*
X21Y1137D01*
X48Y1137D02*
X54Y1137D01*
X75Y1137D02*
X82Y1137D01*
X92Y1137D02*
X98Y1137D01*
X106Y1137D02*
X112Y1137D01*
X1407Y1137D02*
X1414Y1137D01*
X0Y1136D02*
X7Y1136D01*
X15Y1136D02*
X21Y1136D01*
X48Y1136D02*
X54Y1136D01*
X75Y1136D02*
X82Y1136D01*
X92Y1136D02*
X98Y1136D01*
X106Y1136D02*
X112Y1136D01*
X1407Y1136D02*
X1414Y1136D01*
X0Y1135D02*
X7Y1135D01*
X15Y1135D02*
X21Y1135D01*
X48Y1135D02*
X54Y1135D01*
X76Y1135D02*
X83Y1135D01*
X91Y1135D02*
X98Y1135D01*
X106Y1135D02*
X112Y1135D01*
X1407Y1135D02*
X1414Y1135D01*
X0Y1134D02*
X7Y1134D01*
X15Y1134D02*
X21Y1134D01*
X48Y1134D02*
X54Y1134D01*
X76Y1134D02*
X84Y1134D01*
X91Y1134D02*
X97Y1134D01*
X105Y1134D02*
X112Y1134D01*
X1407Y1134D02*
X1414Y1134D01*
X0Y1133D02*
X7Y1133D01*
X15Y1133D02*
X21Y1133D01*
X48Y1133D02*
X54Y1133D01*
X77Y1133D02*
X84Y1133D01*
X89Y1133D02*
X112Y1133D01*
X1407Y1133D02*
X1414Y1133D01*
X0Y1132D02*
X7Y1132D01*
X15Y1132D02*
X21Y1132D01*
X48Y1132D02*
X54Y1132D01*
X76Y1132D02*
X111Y1132D01*
X1407Y1132D02*
X1414Y1132D01*
X0Y1131D02*
X7Y1131D01*
X15Y1131D02*
X21Y1131D01*
X48Y1131D02*
X54Y1131D01*
X75Y1131D02*
X111Y1131D01*
X1407Y1131D02*
X1414Y1131D01*
X0Y1130D02*
X7Y1130D01*
X15Y1130D02*
X21Y1130D01*
X48Y1130D02*
X54Y1130D01*
X74Y1130D02*
X110Y1130D01*
X1407Y1130D02*
X1414Y1130D01*
X0Y1129D02*
X7Y1129D01*
X15Y1129D02*
X21Y1129D01*
X48Y1129D02*
X54Y1129D01*
X74Y1129D02*
X109Y1129D01*
X1407Y1129D02*
X1414Y1129D01*
X0Y1128D02*
X7Y1128D01*
X15Y1128D02*
X21Y1128D01*
X47Y1128D02*
X54Y1128D01*
X74Y1128D02*
X108Y1128D01*
X1407Y1128D02*
X1414Y1128D01*
X0Y1127D02*
X7Y1127D01*
X15Y1127D02*
X21Y1127D01*
X47Y1127D02*
X53Y1127D01*
X75Y1127D02*
X106Y1127D01*
X1407Y1127D02*
X1414Y1127D01*
X0Y1126D02*
X7Y1126D01*
X15Y1126D02*
X22Y1126D01*
X47Y1126D02*
X53Y1126D01*
X75Y1126D02*
X95Y1126D01*
X1407Y1126D02*
X1414Y1126D01*
X0Y1125D02*
X7Y1125D01*
X16Y1125D02*
X23Y1125D01*
X46Y1125D02*
X53Y1125D01*
X1407Y1125D02*
X1414Y1125D01*
X0Y1124D02*
X7Y1124D01*
X16Y1124D02*
X24Y1124D01*
X45Y1124D02*
X53Y1124D01*
X1407Y1124D02*
X1414Y1124D01*
X0Y1123D02*
X7Y1123D01*
X17Y1123D02*
X25Y1123D01*
X44Y1123D02*
X52Y1123D01*
X1407Y1123D02*
X1414Y1123D01*
X0Y1122D02*
X7Y1122D01*
X17Y1122D02*
X51Y1122D01*
X1407Y1122D02*
X1414Y1122D01*
X0Y1121D02*
X7Y1121D01*
X18Y1121D02*
X51Y1121D01*
X1407Y1121D02*
X1414Y1121D01*
X0Y1120D02*
X7Y1120D01*
X19Y1120D02*
X50Y1120D01*
X1407Y1120D02*
X1414Y1120D01*
X0Y1119D02*
X7Y1119D01*
X20Y1119D02*
X49Y1119D01*
X1407Y1119D02*
X1414Y1119D01*
X0Y1118D02*
X7Y1118D01*
X21Y1118D02*
X48Y1118D01*
X1407Y1118D02*
X1414Y1118D01*
X0Y1117D02*
X7Y1117D01*
X22Y1117D02*
X47Y1117D01*
X1407Y1117D02*
X1414Y1117D01*
X0Y1116D02*
X7Y1116D01*
X24Y1116D02*
X45Y1116D01*
X1407Y1116D02*
X1414Y1116D01*
X0Y1115D02*
X7Y1115D01*
X1407Y1115D02*
X1414Y1115D01*
X0Y1114D02*
X7Y1114D01*
X1407Y1114D02*
X1414Y1114D01*
X0Y1113D02*
X7Y1113D01*
X1407Y1113D02*
X1414Y1113D01*
X0Y1112D02*
X7Y1112D01*
X1407Y1112D02*
X1414Y1112D01*
X0Y1111D02*
X7Y1111D01*
X1407Y1111D02*
X1414Y1111D01*
X0Y1110D02*
X7Y1110D01*
X1407Y1110D02*
X1414Y1110D01*
X0Y1109D02*
X7Y1109D01*
X75Y1109D02*
X111Y1109D01*
X1407Y1109D02*
X1414Y1109D01*
X0Y1108D02*
X7Y1108D01*
X74Y1108D02*
X112Y1108D01*
X1407Y1108D02*
X1414Y1108D01*
X0Y1107D02*
X7Y1107D01*
X74Y1107D02*
X112Y1107D01*
X1407Y1107D02*
X1414Y1107D01*
X0Y1106D02*
X7Y1106D01*
X74Y1106D02*
X112Y1106D01*
X1407Y1106D02*
X1414Y1106D01*
X0Y1105D02*
X7Y1105D01*
X74Y1105D02*
X112Y1105D01*
X1407Y1105D02*
X1414Y1105D01*
X0Y1104D02*
X7Y1104D01*
X75Y1104D02*
X111Y1104D01*
X1407Y1104D02*
X1414Y1104D01*
X0Y1103D02*
X7Y1103D01*
X76Y1103D02*
X110Y1103D01*
X1407Y1103D02*
X1414Y1103D01*
X0Y1102D02*
X7Y1102D01*
X99Y1102D02*
X107Y1102D01*
X1407Y1102D02*
X1414Y1102D01*
X0Y1101D02*
X7Y1101D01*
X100Y1101D02*
X107Y1101D01*
X1407Y1101D02*
X1414Y1101D01*
X0Y1100D02*
X7Y1100D01*
X36Y1100D02*
X52Y1100D01*
X101Y1100D02*
X108Y1100D01*
X1407Y1100D02*
X1414Y1100D01*
X0Y1099D02*
X7Y1099D01*
X27Y1099D02*
X53Y1099D01*
X101Y1099D02*
X109Y1099D01*
X1407Y1099D02*
X1414Y1099D01*
X0Y1098D02*
X7Y1098D01*
X24Y1098D02*
X53Y1098D01*
X102Y1098D02*
X109Y1098D01*
X1407Y1098D02*
X1414Y1098D01*
X0Y1097D02*
X7Y1097D01*
X20Y1097D02*
X54Y1097D01*
X103Y1097D02*
X110Y1097D01*
X1407Y1097D02*
X1414Y1097D01*
X0Y1096D02*
X7Y1096D01*
X17Y1096D02*
X53Y1096D01*
X103Y1096D02*
X111Y1096D01*
X1407Y1096D02*
X1414Y1096D01*
X0Y1095D02*
X7Y1095D01*
X16Y1095D02*
X53Y1095D01*
X104Y1095D02*
X111Y1095D01*
X1407Y1095D02*
X1414Y1095D01*
X0Y1094D02*
X7Y1094D01*
X15Y1094D02*
X52Y1094D01*
X105Y1094D02*
X112Y1094D01*
X1407Y1094D02*
X1414Y1094D01*
X0Y1093D02*
X7Y1093D01*
X15Y1093D02*
X36Y1093D01*
X105Y1093D02*
X112Y1093D01*
X1407Y1093D02*
X1414Y1093D01*
X0Y1092D02*
X7Y1092D01*
X15Y1092D02*
X27Y1092D01*
X106Y1092D02*
X112Y1092D01*
X1407Y1092D02*
X1414Y1092D01*
X0Y1091D02*
X7Y1091D01*
X15Y1091D02*
X24Y1091D01*
X106Y1091D02*
X112Y1091D01*
X1407Y1091D02*
X1414Y1091D01*
X0Y1090D02*
X7Y1090D01*
X15Y1090D02*
X23Y1090D01*
X106Y1090D02*
X112Y1090D01*
X1407Y1090D02*
X1414Y1090D01*
X0Y1089D02*
X7Y1089D01*
X15Y1089D02*
X25Y1089D01*
X106Y1089D02*
X112Y1089D01*
X1407Y1089D02*
X1414Y1089D01*
X0Y1088D02*
X7Y1088D01*
X15Y1088D02*
X27Y1088D01*
X106Y1088D02*
X112Y1088D01*
X1407Y1088D02*
X1414Y1088D01*
X0Y1087D02*
X7Y1087D01*
X16Y1087D02*
X29Y1087D01*
X106Y1087D02*
X112Y1087D01*
X1407Y1087D02*
X1414Y1087D01*
X0Y1086D02*
X7Y1086D01*
X17Y1086D02*
X38Y1086D01*
X106Y1086D02*
X112Y1086D01*
X1407Y1086D02*
X1414Y1086D01*
X0Y1085D02*
X7Y1085D01*
X19Y1085D02*
X41Y1085D01*
X106Y1085D02*
X112Y1085D01*
X1407Y1085D02*
X1414Y1085D01*
X0Y1084D02*
X7Y1084D01*
X21Y1084D02*
X41Y1084D01*
X105Y1084D02*
X112Y1084D01*
X1407Y1084D02*
X1414Y1084D01*
X0Y1083D02*
X7Y1083D01*
X23Y1083D02*
X42Y1083D01*
X101Y1083D02*
X112Y1083D01*
X1407Y1083D02*
X1414Y1083D01*
X0Y1082D02*
X7Y1082D01*
X23Y1082D02*
X42Y1082D01*
X76Y1082D02*
X111Y1082D01*
X1407Y1082D02*
X1414Y1082D01*
X0Y1081D02*
X7Y1081D01*
X21Y1081D02*
X41Y1081D01*
X75Y1081D02*
X111Y1081D01*
X1407Y1081D02*
X1414Y1081D01*
X0Y1080D02*
X7Y1080D01*
X19Y1080D02*
X41Y1080D01*
X74Y1080D02*
X110Y1080D01*
X1407Y1080D02*
X1414Y1080D01*
X0Y1079D02*
X7Y1079D01*
X17Y1079D02*
X38Y1079D01*
X74Y1079D02*
X109Y1079D01*
X1407Y1079D02*
X1414Y1079D01*
X0Y1078D02*
X7Y1078D01*
X16Y1078D02*
X29Y1078D01*
X74Y1078D02*
X108Y1078D01*
X1407Y1078D02*
X1414Y1078D01*
X0Y1077D02*
X7Y1077D01*
X15Y1077D02*
X27Y1077D01*
X74Y1077D02*
X106Y1077D01*
X1407Y1077D02*
X1414Y1077D01*
X0Y1076D02*
X7Y1076D01*
X15Y1076D02*
X25Y1076D01*
X75Y1076D02*
X100Y1076D01*
X1407Y1076D02*
X1414Y1076D01*
X0Y1075D02*
X7Y1075D01*
X15Y1075D02*
X23Y1075D01*
X1407Y1075D02*
X1414Y1075D01*
X0Y1074D02*
X7Y1074D01*
X15Y1074D02*
X24Y1074D01*
X1407Y1074D02*
X1414Y1074D01*
X0Y1073D02*
X7Y1073D01*
X15Y1073D02*
X27Y1073D01*
X278Y1073D02*
X282Y1073D01*
X1407Y1073D02*
X1414Y1073D01*
X0Y1072D02*
X7Y1072D01*
X15Y1072D02*
X35Y1072D01*
X275Y1072D02*
X286Y1072D01*
X1407Y1072D02*
X1414Y1072D01*
X0Y1071D02*
X7Y1071D01*
X15Y1071D02*
X52Y1071D01*
X272Y1071D02*
X288Y1071D01*
X1407Y1071D02*
X1414Y1071D01*
X0Y1070D02*
X7Y1070D01*
X16Y1070D02*
X53Y1070D01*
X270Y1070D02*
X290Y1070D01*
X1407Y1070D02*
X1414Y1070D01*
X0Y1069D02*
X7Y1069D01*
X17Y1069D02*
X53Y1069D01*
X268Y1069D02*
X292Y1069D01*
X1407Y1069D02*
X1414Y1069D01*
X0Y1068D02*
X7Y1068D01*
X20Y1068D02*
X54Y1068D01*
X266Y1068D02*
X294Y1068D01*
X1407Y1068D02*
X1414Y1068D01*
X0Y1067D02*
X7Y1067D01*
X24Y1067D02*
X53Y1067D01*
X264Y1067D02*
X296Y1067D01*
X1407Y1067D02*
X1414Y1067D01*
X0Y1066D02*
X7Y1066D01*
X27Y1066D02*
X53Y1066D01*
X262Y1066D02*
X278Y1066D01*
X283Y1066D02*
X298Y1066D01*
X1407Y1066D02*
X1414Y1066D01*
X0Y1065D02*
X7Y1065D01*
X36Y1065D02*
X52Y1065D01*
X260Y1065D02*
X275Y1065D01*
X285Y1065D02*
X300Y1065D01*
X1407Y1065D02*
X1414Y1065D01*
X0Y1064D02*
X7Y1064D01*
X258Y1064D02*
X273Y1064D01*
X287Y1064D02*
X302Y1064D01*
X1407Y1064D02*
X1414Y1064D01*
X0Y1063D02*
X7Y1063D01*
X257Y1063D02*
X271Y1063D01*
X289Y1063D02*
X303Y1063D01*
X1407Y1063D02*
X1414Y1063D01*
X0Y1062D02*
X7Y1062D01*
X256Y1062D02*
X269Y1062D01*
X291Y1062D02*
X304Y1062D01*
X1407Y1062D02*
X1414Y1062D01*
X0Y1061D02*
X7Y1061D01*
X255Y1061D02*
X267Y1061D01*
X293Y1061D02*
X305Y1061D01*
X1407Y1061D02*
X1414Y1061D01*
X0Y1060D02*
X7Y1060D01*
X255Y1060D02*
X265Y1060D01*
X295Y1060D02*
X306Y1060D01*
X1407Y1060D02*
X1414Y1060D01*
X0Y1059D02*
X7Y1059D01*
X254Y1059D02*
X263Y1059D01*
X297Y1059D02*
X306Y1059D01*
X1407Y1059D02*
X1414Y1059D01*
X0Y1058D02*
X7Y1058D01*
X254Y1058D02*
X261Y1058D01*
X299Y1058D02*
X307Y1058D01*
X1407Y1058D02*
X1414Y1058D01*
X0Y1057D02*
X7Y1057D01*
X254Y1057D02*
X260Y1057D01*
X300Y1057D02*
X307Y1057D01*
X1407Y1057D02*
X1414Y1057D01*
X0Y1056D02*
X7Y1056D01*
X254Y1056D02*
X260Y1056D01*
X301Y1056D02*
X307Y1056D01*
X1407Y1056D02*
X1414Y1056D01*
X0Y1055D02*
X7Y1055D01*
X254Y1055D02*
X260Y1055D01*
X300Y1055D02*
X307Y1055D01*
X1407Y1055D02*
X1414Y1055D01*
X0Y1054D02*
X7Y1054D01*
X254Y1054D02*
X261Y1054D01*
X299Y1054D02*
X307Y1054D01*
X1407Y1054D02*
X1414Y1054D01*
X0Y1053D02*
X7Y1053D01*
X254Y1053D02*
X263Y1053D01*
X297Y1053D02*
X306Y1053D01*
X1407Y1053D02*
X1414Y1053D01*
X0Y1052D02*
X7Y1052D01*
X255Y1052D02*
X265Y1052D01*
X295Y1052D02*
X306Y1052D01*
X1407Y1052D02*
X1414Y1052D01*
X0Y1051D02*
X7Y1051D01*
X255Y1051D02*
X267Y1051D01*
X293Y1051D02*
X305Y1051D01*
X1407Y1051D02*
X1414Y1051D01*
X0Y1050D02*
X7Y1050D01*
X256Y1050D02*
X269Y1050D01*
X291Y1050D02*
X304Y1050D01*
X1407Y1050D02*
X1414Y1050D01*
X0Y1049D02*
X7Y1049D01*
X257Y1049D02*
X271Y1049D01*
X289Y1049D02*
X303Y1049D01*
X1407Y1049D02*
X1414Y1049D01*
X0Y1048D02*
X7Y1048D01*
X258Y1048D02*
X273Y1048D01*
X287Y1048D02*
X302Y1048D01*
X1407Y1048D02*
X1414Y1048D01*
X0Y1047D02*
X7Y1047D01*
X260Y1047D02*
X275Y1047D01*
X285Y1047D02*
X300Y1047D01*
X1407Y1047D02*
X1414Y1047D01*
X0Y1046D02*
X7Y1046D01*
X262Y1046D02*
X278Y1046D01*
X283Y1046D02*
X298Y1046D01*
X1407Y1046D02*
X1414Y1046D01*
X0Y1045D02*
X7Y1045D01*
X264Y1045D02*
X296Y1045D01*
X1407Y1045D02*
X1414Y1045D01*
X0Y1044D02*
X7Y1044D01*
X266Y1044D02*
X294Y1044D01*
X1407Y1044D02*
X1414Y1044D01*
X0Y1043D02*
X7Y1043D01*
X268Y1043D02*
X292Y1043D01*
X1407Y1043D02*
X1414Y1043D01*
X0Y1042D02*
X7Y1042D01*
X270Y1042D02*
X290Y1042D01*
X1407Y1042D02*
X1414Y1042D01*
X0Y1041D02*
X7Y1041D01*
X272Y1041D02*
X288Y1041D01*
X1407Y1041D02*
X1414Y1041D01*
X0Y1040D02*
X7Y1040D01*
X275Y1040D02*
X286Y1040D01*
X1407Y1040D02*
X1414Y1040D01*
X0Y1039D02*
X7Y1039D01*
X278Y1039D02*
X283Y1039D01*
X1407Y1039D02*
X1414Y1039D01*
X0Y1038D02*
X7Y1038D01*
X1407Y1038D02*
X1414Y1038D01*
X0Y1037D02*
X7Y1037D01*
X1407Y1037D02*
X1414Y1037D01*
X0Y1036D02*
X7Y1036D01*
X1407Y1036D02*
X1414Y1036D01*
X0Y1035D02*
X7Y1035D01*
X1407Y1035D02*
X1414Y1035D01*
X0Y1034D02*
X7Y1034D01*
X1407Y1034D02*
X1414Y1034D01*
X0Y1033D02*
X7Y1033D01*
X1407Y1033D02*
X1414Y1033D01*
X0Y1032D02*
X7Y1032D01*
X1407Y1032D02*
X1414Y1032D01*
X0Y1031D02*
X7Y1031D01*
X1407Y1031D02*
X1414Y1031D01*
X0Y1030D02*
X7Y1030D01*
X1407Y1030D02*
X1414Y1030D01*
X0Y1029D02*
X7Y1029D01*
X1407Y1029D02*
X1414Y1029D01*
X0Y1028D02*
X7Y1028D01*
X1407Y1028D02*
X1414Y1028D01*
X0Y1027D02*
X7Y1027D01*
X1407Y1027D02*
X1414Y1027D01*
X0Y1026D02*
X7Y1026D01*
X1407Y1026D02*
X1414Y1026D01*
X0Y1025D02*
X7Y1025D01*
X1407Y1025D02*
X1414Y1025D01*
X0Y1024D02*
X7Y1024D01*
X1407Y1024D02*
X1414Y1024D01*
X0Y1023D02*
X7Y1023D01*
X1407Y1023D02*
X1414Y1023D01*
X0Y1022D02*
X7Y1022D01*
X1407Y1022D02*
X1414Y1022D01*
X0Y1021D02*
X7Y1021D01*
X1407Y1021D02*
X1414Y1021D01*
X0Y1020D02*
X7Y1020D01*
X1407Y1020D02*
X1414Y1020D01*
X0Y1019D02*
X7Y1019D01*
X1407Y1019D02*
X1414Y1019D01*
X0Y1018D02*
X7Y1018D01*
X1407Y1018D02*
X1414Y1018D01*
X0Y1017D02*
X7Y1017D01*
X1407Y1017D02*
X1414Y1017D01*
X0Y1016D02*
X7Y1016D01*
X1407Y1016D02*
X1414Y1016D01*
X0Y1015D02*
X7Y1015D01*
X1407Y1015D02*
X1414Y1015D01*
X0Y1014D02*
X7Y1014D01*
X1407Y1014D02*
X1414Y1014D01*
X0Y1013D02*
X7Y1013D01*
X1407Y1013D02*
X1414Y1013D01*
X0Y1012D02*
X7Y1012D01*
X1407Y1012D02*
X1414Y1012D01*
X0Y1011D02*
X7Y1011D01*
X1407Y1011D02*
X1414Y1011D01*
X0Y1010D02*
X7Y1010D01*
X1407Y1010D02*
X1414Y1010D01*
X0Y1009D02*
X7Y1009D01*
X82Y1009D02*
X90Y1009D01*
X105Y1009D02*
X113Y1009D01*
X1407Y1009D02*
X1414Y1009D01*
X0Y1008D02*
X7Y1008D01*
X79Y1008D02*
X91Y1008D01*
X104Y1008D02*
X116Y1008D01*
X1407Y1008D02*
X1414Y1008D01*
X0Y1007D02*
X7Y1007D01*
X78Y1007D02*
X92Y1007D01*
X103Y1007D02*
X117Y1007D01*
X1407Y1007D02*
X1414Y1007D01*
X0Y1006D02*
X7Y1006D01*
X77Y1006D02*
X93Y1006D01*
X102Y1006D02*
X118Y1006D01*
X1407Y1006D02*
X1414Y1006D01*
X0Y1005D02*
X7Y1005D01*
X76Y1005D02*
X94Y1005D01*
X101Y1005D02*
X119Y1005D01*
X1407Y1005D02*
X1414Y1005D01*
X0Y1004D02*
X7Y1004D01*
X75Y1004D02*
X94Y1004D01*
X100Y1004D02*
X120Y1004D01*
X1407Y1004D02*
X1414Y1004D01*
X0Y1003D02*
X7Y1003D01*
X75Y1003D02*
X95Y1003D01*
X99Y1003D02*
X120Y1003D01*
X1407Y1003D02*
X1414Y1003D01*
X0Y1002D02*
X7Y1002D01*
X74Y1002D02*
X82Y1002D01*
X88Y1002D02*
X107Y1002D01*
X113Y1002D02*
X121Y1002D01*
X1407Y1002D02*
X1414Y1002D01*
X0Y1001D02*
X7Y1001D01*
X74Y1001D02*
X81Y1001D01*
X89Y1001D02*
X106Y1001D01*
X114Y1001D02*
X121Y1001D01*
X1407Y1001D02*
X1414Y1001D01*
X0Y1000D02*
X7Y1000D01*
X74Y1000D02*
X80Y1000D01*
X90Y1000D02*
X105Y1000D01*
X115Y1000D02*
X121Y1000D01*
X1407Y1000D02*
X1414Y1000D01*
X0Y999D02*
X7Y999D01*
X74Y999D02*
X80Y999D01*
X90Y999D02*
X104Y999D01*
X115Y999D02*
X121Y999D01*
X1407Y999D02*
X1414Y999D01*
X0Y998D02*
X7Y998D01*
X74Y998D02*
X80Y998D01*
X91Y998D02*
X103Y998D01*
X115Y998D02*
X121Y998D01*
X1407Y998D02*
X1414Y998D01*
X0Y997D02*
X7Y997D01*
X74Y997D02*
X80Y997D01*
X92Y997D02*
X102Y997D01*
X115Y997D02*
X121Y997D01*
X1407Y997D02*
X1414Y997D01*
X0Y996D02*
X7Y996D01*
X74Y996D02*
X80Y996D01*
X91Y996D02*
X101Y996D01*
X115Y996D02*
X121Y996D01*
X1407Y996D02*
X1414Y996D01*
X0Y995D02*
X7Y995D01*
X74Y995D02*
X80Y995D01*
X90Y995D02*
X102Y995D01*
X115Y995D02*
X121Y995D01*
X1407Y995D02*
X1414Y995D01*
X0Y994D02*
X7Y994D01*
X74Y994D02*
X80Y994D01*
X89Y994D02*
X103Y994D01*
X115Y994D02*
X121Y994D01*
X1407Y994D02*
X1414Y994D01*
X0Y993D02*
X7Y993D01*
X74Y993D02*
X80Y993D01*
X88Y993D02*
X104Y993D01*
X115Y993D02*
X121Y993D01*
X1407Y993D02*
X1414Y993D01*
X0Y992D02*
X7Y992D01*
X74Y992D02*
X81Y992D01*
X87Y992D02*
X105Y992D01*
X115Y992D02*
X121Y992D01*
X1407Y992D02*
X1414Y992D01*
X0Y991D02*
X7Y991D01*
X74Y991D02*
X82Y991D01*
X86Y991D02*
X95Y991D01*
X97Y991D02*
X106Y991D01*
X115Y991D02*
X121Y991D01*
X1407Y991D02*
X1414Y991D01*
X0Y990D02*
X7Y990D01*
X75Y990D02*
X83Y990D01*
X85Y990D02*
X94Y990D01*
X98Y990D02*
X106Y990D01*
X114Y990D02*
X121Y990D01*
X1407Y990D02*
X1414Y990D01*
X0Y989D02*
X7Y989D01*
X75Y989D02*
X93Y989D01*
X99Y989D02*
X107Y989D01*
X113Y989D02*
X121Y989D01*
X1407Y989D02*
X1414Y989D01*
X0Y988D02*
X7Y988D01*
X76Y988D02*
X92Y988D01*
X100Y988D02*
X120Y988D01*
X1407Y988D02*
X1414Y988D01*
X0Y987D02*
X7Y987D01*
X77Y987D02*
X91Y987D01*
X101Y987D02*
X120Y987D01*
X1407Y987D02*
X1414Y987D01*
X0Y986D02*
X7Y986D01*
X78Y986D02*
X90Y986D01*
X101Y986D02*
X119Y986D01*
X1407Y986D02*
X1414Y986D01*
X0Y985D02*
X7Y985D01*
X79Y985D02*
X89Y985D01*
X102Y985D02*
X118Y985D01*
X1407Y985D02*
X1414Y985D01*
X0Y984D02*
X7Y984D01*
X78Y984D02*
X88Y984D01*
X103Y984D02*
X117Y984D01*
X1407Y984D02*
X1414Y984D01*
X0Y983D02*
X7Y983D01*
X77Y983D02*
X89Y983D01*
X104Y983D02*
X116Y983D01*
X1407Y983D02*
X1414Y983D01*
X0Y982D02*
X7Y982D01*
X76Y982D02*
X90Y982D01*
X105Y982D02*
X113Y982D01*
X1407Y982D02*
X1414Y982D01*
X0Y981D02*
X7Y981D01*
X75Y981D02*
X91Y981D01*
X1407Y981D02*
X1414Y981D01*
X0Y980D02*
X7Y980D01*
X74Y980D02*
X91Y980D01*
X1407Y980D02*
X1414Y980D01*
X0Y979D02*
X7Y979D01*
X74Y979D02*
X82Y979D01*
X84Y979D02*
X92Y979D01*
X1407Y979D02*
X1414Y979D01*
X0Y978D02*
X7Y978D01*
X74Y978D02*
X81Y978D01*
X85Y978D02*
X92Y978D01*
X1407Y978D02*
X1414Y978D01*
X0Y977D02*
X7Y977D01*
X74Y977D02*
X80Y977D01*
X85Y977D02*
X91Y977D01*
X1407Y977D02*
X1414Y977D01*
X0Y976D02*
X7Y976D01*
X75Y976D02*
X79Y976D01*
X86Y976D02*
X91Y976D01*
X1407Y976D02*
X1414Y976D01*
X0Y975D02*
X7Y975D01*
X76Y975D02*
X77Y975D01*
X88Y975D02*
X89Y975D01*
X1407Y975D02*
X1414Y975D01*
X0Y974D02*
X7Y974D01*
X1407Y974D02*
X1414Y974D01*
X0Y973D02*
X7Y973D01*
X1407Y973D02*
X1414Y973D01*
X0Y972D02*
X7Y972D01*
X290Y972D02*
X306Y972D01*
X1407Y972D02*
X1414Y972D01*
X0Y971D02*
X7Y971D01*
X287Y971D02*
X306Y971D01*
X1407Y971D02*
X1414Y971D01*
X0Y970D02*
X7Y970D01*
X284Y970D02*
X307Y970D01*
X1407Y970D02*
X1414Y970D01*
X0Y969D02*
X7Y969D01*
X282Y969D02*
X307Y969D01*
X1407Y969D02*
X1414Y969D01*
X0Y968D02*
X7Y968D01*
X279Y968D02*
X306Y968D01*
X1407Y968D02*
X1414Y968D01*
X0Y967D02*
X7Y967D01*
X277Y967D02*
X306Y967D01*
X1407Y967D02*
X1414Y967D01*
X0Y966D02*
X7Y966D01*
X274Y966D02*
X304Y966D01*
X1407Y966D02*
X1414Y966D01*
X0Y965D02*
X7Y965D01*
X272Y965D02*
X290Y965D01*
X1407Y965D02*
X1414Y965D01*
X0Y964D02*
X7Y964D01*
X269Y964D02*
X287Y964D01*
X1407Y964D02*
X1414Y964D01*
X0Y963D02*
X7Y963D01*
X266Y963D02*
X285Y963D01*
X1407Y963D02*
X1414Y963D01*
X0Y962D02*
X7Y962D01*
X264Y962D02*
X282Y962D01*
X1407Y962D02*
X1414Y962D01*
X0Y961D02*
X7Y961D01*
X261Y961D02*
X280Y961D01*
X1407Y961D02*
X1414Y961D01*
X0Y960D02*
X7Y960D01*
X259Y960D02*
X277Y960D01*
X1407Y960D02*
X1414Y960D01*
X0Y959D02*
X7Y959D01*
X256Y959D02*
X275Y959D01*
X1407Y959D02*
X1414Y959D01*
X0Y958D02*
X7Y958D01*
X255Y958D02*
X272Y958D01*
X1407Y958D02*
X1414Y958D01*
X0Y957D02*
X7Y957D01*
X254Y957D02*
X270Y957D01*
X1407Y957D02*
X1414Y957D01*
X0Y956D02*
X7Y956D01*
X254Y956D02*
X267Y956D01*
X1407Y956D02*
X1414Y956D01*
X0Y955D02*
X7Y955D01*
X254Y955D02*
X267Y955D01*
X1407Y955D02*
X1414Y955D01*
X0Y954D02*
X7Y954D01*
X254Y954D02*
X270Y954D01*
X1407Y954D02*
X1414Y954D01*
X0Y953D02*
X7Y953D01*
X255Y953D02*
X273Y953D01*
X1407Y953D02*
X1414Y953D01*
X0Y952D02*
X7Y952D01*
X257Y952D02*
X275Y952D01*
X1407Y952D02*
X1414Y952D01*
X0Y951D02*
X7Y951D01*
X259Y951D02*
X278Y951D01*
X1407Y951D02*
X1414Y951D01*
X0Y950D02*
X7Y950D01*
X262Y950D02*
X280Y950D01*
X1407Y950D02*
X1414Y950D01*
X0Y949D02*
X7Y949D01*
X264Y949D02*
X283Y949D01*
X1407Y949D02*
X1414Y949D01*
X0Y948D02*
X7Y948D01*
X267Y948D02*
X285Y948D01*
X1407Y948D02*
X1414Y948D01*
X0Y947D02*
X7Y947D01*
X270Y947D02*
X288Y947D01*
X1407Y947D02*
X1414Y947D01*
X0Y946D02*
X7Y946D01*
X272Y946D02*
X290Y946D01*
X1407Y946D02*
X1414Y946D01*
X0Y945D02*
X7Y945D01*
X275Y945D02*
X303Y945D01*
X1407Y945D02*
X1414Y945D01*
X0Y944D02*
X7Y944D01*
X277Y944D02*
X303Y944D01*
X1407Y944D02*
X1414Y944D01*
X0Y943D02*
X7Y943D01*
X280Y943D02*
X303Y943D01*
X1407Y943D02*
X1414Y943D01*
X0Y942D02*
X7Y942D01*
X282Y942D02*
X304Y942D01*
X1407Y942D02*
X1414Y942D01*
X0Y941D02*
X7Y941D01*
X285Y941D02*
X304Y941D01*
X1407Y941D02*
X1414Y941D01*
X0Y940D02*
X7Y940D01*
X287Y940D02*
X304Y940D01*
X1407Y940D02*
X1414Y940D01*
X0Y939D02*
X7Y939D01*
X290Y939D02*
X304Y939D01*
X1407Y939D02*
X1414Y939D01*
X0Y938D02*
X7Y938D01*
X1407Y938D02*
X1414Y938D01*
X0Y937D02*
X7Y937D01*
X1407Y937D02*
X1414Y937D01*
X0Y936D02*
X7Y936D01*
X1407Y936D02*
X1414Y936D01*
X0Y935D02*
X7Y935D01*
X1407Y935D02*
X1414Y935D01*
X0Y934D02*
X7Y934D01*
X1407Y934D02*
X1414Y934D01*
X0Y933D02*
X7Y933D01*
X1407Y933D02*
X1414Y933D01*
X0Y932D02*
X7Y932D01*
X1407Y932D02*
X1414Y932D01*
X0Y931D02*
X7Y931D01*
X1407Y931D02*
X1414Y931D01*
X0Y930D02*
X7Y930D01*
X1407Y930D02*
X1414Y930D01*
X0Y929D02*
X7Y929D01*
X1407Y929D02*
X1414Y929D01*
X0Y928D02*
X7Y928D01*
X1407Y928D02*
X1414Y928D01*
X0Y927D02*
X7Y927D01*
X1407Y927D02*
X1414Y927D01*
X0Y926D02*
X7Y926D01*
X1407Y926D02*
X1414Y926D01*
X0Y925D02*
X7Y925D01*
X1407Y925D02*
X1414Y925D01*
X0Y924D02*
X7Y924D01*
X1407Y924D02*
X1414Y924D01*
X0Y923D02*
X7Y923D01*
X1407Y923D02*
X1414Y923D01*
X0Y922D02*
X7Y922D01*
X279Y922D02*
X282Y922D01*
X1407Y922D02*
X1414Y922D01*
X0Y921D02*
X7Y921D01*
X278Y921D02*
X283Y921D01*
X1407Y921D02*
X1414Y921D01*
X0Y920D02*
X7Y920D01*
X277Y920D02*
X283Y920D01*
X1407Y920D02*
X1414Y920D01*
X0Y919D02*
X7Y919D01*
X277Y919D02*
X283Y919D01*
X1407Y919D02*
X1414Y919D01*
X0Y918D02*
X7Y918D01*
X277Y918D02*
X283Y918D01*
X1407Y918D02*
X1414Y918D01*
X0Y917D02*
X7Y917D01*
X277Y917D02*
X283Y917D01*
X1407Y917D02*
X1414Y917D01*
X0Y916D02*
X7Y916D01*
X277Y916D02*
X283Y916D01*
X1407Y916D02*
X1414Y916D01*
X0Y915D02*
X7Y915D01*
X277Y915D02*
X283Y915D01*
X1407Y915D02*
X1414Y915D01*
X0Y914D02*
X7Y914D01*
X277Y914D02*
X283Y914D01*
X1407Y914D02*
X1414Y914D01*
X0Y913D02*
X7Y913D01*
X277Y913D02*
X283Y913D01*
X1407Y913D02*
X1414Y913D01*
X0Y912D02*
X7Y912D01*
X277Y912D02*
X283Y912D01*
X1407Y912D02*
X1414Y912D01*
X0Y911D02*
X7Y911D01*
X277Y911D02*
X283Y911D01*
X1407Y911D02*
X1414Y911D01*
X0Y910D02*
X7Y910D01*
X277Y910D02*
X283Y910D01*
X1407Y910D02*
X1414Y910D01*
X0Y909D02*
X7Y909D01*
X277Y909D02*
X284Y909D01*
X1407Y909D02*
X1414Y909D01*
X0Y908D02*
X7Y908D01*
X265Y908D02*
X296Y908D01*
X1407Y908D02*
X1414Y908D01*
X0Y907D02*
X7Y907D01*
X264Y907D02*
X297Y907D01*
X1407Y907D02*
X1414Y907D01*
X0Y906D02*
X7Y906D01*
X264Y906D02*
X297Y906D01*
X1407Y906D02*
X1414Y906D01*
X0Y905D02*
X7Y905D01*
X264Y905D02*
X297Y905D01*
X1407Y905D02*
X1414Y905D01*
X0Y904D02*
X7Y904D01*
X264Y904D02*
X297Y904D01*
X1407Y904D02*
X1414Y904D01*
X0Y903D02*
X7Y903D01*
X265Y903D02*
X296Y903D01*
X1407Y903D02*
X1414Y903D01*
X0Y902D02*
X7Y902D01*
X267Y902D02*
X294Y902D01*
X1407Y902D02*
X1414Y902D01*
X0Y901D02*
X7Y901D01*
X277Y901D02*
X283Y901D01*
X1407Y901D02*
X1414Y901D01*
X0Y900D02*
X7Y900D01*
X277Y900D02*
X283Y900D01*
X1407Y900D02*
X1414Y900D01*
X0Y899D02*
X7Y899D01*
X277Y899D02*
X283Y899D01*
X1407Y899D02*
X1414Y899D01*
X0Y898D02*
X7Y898D01*
X277Y898D02*
X283Y898D01*
X1407Y898D02*
X1414Y898D01*
X0Y897D02*
X7Y897D01*
X277Y897D02*
X283Y897D01*
X1407Y897D02*
X1414Y897D01*
X0Y896D02*
X7Y896D01*
X277Y896D02*
X283Y896D01*
X1407Y896D02*
X1414Y896D01*
X0Y895D02*
X7Y895D01*
X277Y895D02*
X283Y895D01*
X1407Y895D02*
X1414Y895D01*
X0Y894D02*
X7Y894D01*
X277Y894D02*
X283Y894D01*
X1407Y894D02*
X1414Y894D01*
X0Y893D02*
X7Y893D01*
X277Y893D02*
X283Y893D01*
X1407Y893D02*
X1414Y893D01*
X0Y892D02*
X7Y892D01*
X277Y892D02*
X283Y892D01*
X1407Y892D02*
X1414Y892D01*
X0Y891D02*
X7Y891D01*
X277Y891D02*
X283Y891D01*
X1407Y891D02*
X1414Y891D01*
X0Y890D02*
X7Y890D01*
X278Y890D02*
X283Y890D01*
X1407Y890D02*
X1414Y890D01*
X0Y889D02*
X7Y889D01*
X279Y889D02*
X282Y889D01*
X1407Y889D02*
X1414Y889D01*
X0Y888D02*
X7Y888D01*
X1407Y888D02*
X1414Y888D01*
X0Y887D02*
X7Y887D01*
X1407Y887D02*
X1414Y887D01*
X0Y886D02*
X7Y886D01*
X1407Y886D02*
X1414Y886D01*
X0Y885D02*
X7Y885D01*
X1407Y885D02*
X1414Y885D01*
X0Y884D02*
X7Y884D01*
X1407Y884D02*
X1414Y884D01*
X0Y883D02*
X7Y883D01*
X1407Y883D02*
X1414Y883D01*
X0Y882D02*
X7Y882D01*
X1407Y882D02*
X1414Y882D01*
X0Y881D02*
X7Y881D01*
X1407Y881D02*
X1414Y881D01*
X0Y880D02*
X7Y880D01*
X1407Y880D02*
X1414Y880D01*
X0Y879D02*
X7Y879D01*
X1407Y879D02*
X1414Y879D01*
X0Y878D02*
X7Y878D01*
X1407Y878D02*
X1414Y878D01*
X0Y877D02*
X7Y877D01*
X1407Y877D02*
X1414Y877D01*
X0Y876D02*
X7Y876D01*
X1407Y876D02*
X1414Y876D01*
X0Y875D02*
X7Y875D01*
X1407Y875D02*
X1414Y875D01*
X0Y874D02*
X7Y874D01*
X1407Y874D02*
X1414Y874D01*
X0Y873D02*
X7Y873D01*
X1407Y873D02*
X1414Y873D01*
X0Y872D02*
X7Y872D01*
X1407Y872D02*
X1414Y872D01*
X0Y871D02*
X7Y871D01*
X1407Y871D02*
X1414Y871D01*
X0Y870D02*
X7Y870D01*
X1407Y870D02*
X1414Y870D01*
X0Y869D02*
X7Y869D01*
X1407Y869D02*
X1414Y869D01*
X0Y868D02*
X7Y868D01*
X1407Y868D02*
X1414Y868D01*
X0Y867D02*
X7Y867D01*
X1407Y867D02*
X1414Y867D01*
X0Y866D02*
X7Y866D01*
X1407Y866D02*
X1414Y866D01*
X0Y865D02*
X7Y865D01*
X1407Y865D02*
X1414Y865D01*
X0Y864D02*
X7Y864D01*
X1407Y864D02*
X1414Y864D01*
X0Y863D02*
X7Y863D01*
X1407Y863D02*
X1414Y863D01*
X0Y862D02*
X7Y862D01*
X1407Y862D02*
X1414Y862D01*
X0Y861D02*
X7Y861D01*
X1407Y861D02*
X1414Y861D01*
X0Y860D02*
X7Y860D01*
X1407Y860D02*
X1414Y860D01*
X0Y859D02*
X7Y859D01*
X1407Y859D02*
X1414Y859D01*
X0Y858D02*
X7Y858D01*
X1407Y858D02*
X1414Y858D01*
X0Y857D02*
X7Y857D01*
X119Y857D02*
X163Y857D01*
X1407Y857D02*
X1414Y857D01*
X0Y856D02*
X7Y856D01*
X117Y856D02*
X165Y856D01*
X1407Y856D02*
X1414Y856D01*
X0Y855D02*
X7Y855D01*
X116Y855D02*
X166Y855D01*
X1407Y855D02*
X1414Y855D01*
X0Y854D02*
X7Y854D01*
X115Y854D02*
X166Y854D01*
X1407Y854D02*
X1414Y854D01*
X0Y853D02*
X7Y853D01*
X115Y853D02*
X167Y853D01*
X1407Y853D02*
X1414Y853D01*
X0Y852D02*
X7Y852D01*
X114Y852D02*
X167Y852D01*
X1407Y852D02*
X1414Y852D01*
X0Y851D02*
X7Y851D01*
X114Y851D02*
X167Y851D01*
X1407Y851D02*
X1414Y851D01*
X0Y850D02*
X7Y850D01*
X114Y850D02*
X120Y850D01*
X161Y850D02*
X167Y850D01*
X1407Y850D02*
X1414Y850D01*
X0Y849D02*
X7Y849D01*
X114Y849D02*
X120Y849D01*
X161Y849D02*
X167Y849D01*
X1407Y849D02*
X1414Y849D01*
X0Y848D02*
X7Y848D01*
X114Y848D02*
X120Y848D01*
X161Y848D02*
X167Y848D01*
X1407Y848D02*
X1414Y848D01*
X0Y847D02*
X7Y847D01*
X114Y847D02*
X120Y847D01*
X161Y847D02*
X167Y847D01*
X1407Y847D02*
X1414Y847D01*
X0Y846D02*
X7Y846D01*
X114Y846D02*
X120Y846D01*
X161Y846D02*
X167Y846D01*
X1407Y846D02*
X1414Y846D01*
X0Y845D02*
X7Y845D01*
X114Y845D02*
X120Y845D01*
X161Y845D02*
X167Y845D01*
X1407Y845D02*
X1414Y845D01*
X0Y844D02*
X7Y844D01*
X114Y844D02*
X120Y844D01*
X161Y844D02*
X167Y844D01*
X1407Y844D02*
X1414Y844D01*
X0Y843D02*
X7Y843D01*
X114Y843D02*
X120Y843D01*
X161Y843D02*
X167Y843D01*
X1407Y843D02*
X1414Y843D01*
X0Y842D02*
X7Y842D01*
X114Y842D02*
X120Y842D01*
X161Y842D02*
X167Y842D01*
X1407Y842D02*
X1414Y842D01*
X0Y841D02*
X7Y841D01*
X114Y841D02*
X120Y841D01*
X161Y841D02*
X167Y841D01*
X1407Y841D02*
X1414Y841D01*
X0Y840D02*
X7Y840D01*
X114Y840D02*
X120Y840D01*
X161Y840D02*
X167Y840D01*
X1407Y840D02*
X1414Y840D01*
X0Y839D02*
X7Y839D01*
X114Y839D02*
X120Y839D01*
X161Y839D02*
X167Y839D01*
X1407Y839D02*
X1414Y839D01*
X0Y838D02*
X7Y838D01*
X114Y838D02*
X120Y838D01*
X161Y838D02*
X167Y838D01*
X1407Y838D02*
X1414Y838D01*
X0Y837D02*
X7Y837D01*
X114Y837D02*
X120Y837D01*
X161Y837D02*
X167Y837D01*
X1407Y837D02*
X1414Y837D01*
X0Y836D02*
X7Y836D01*
X114Y836D02*
X120Y836D01*
X161Y836D02*
X167Y836D01*
X1407Y836D02*
X1414Y836D01*
X0Y835D02*
X7Y835D01*
X114Y835D02*
X120Y835D01*
X161Y835D02*
X167Y835D01*
X1407Y835D02*
X1414Y835D01*
X0Y834D02*
X7Y834D01*
X114Y834D02*
X120Y834D01*
X161Y834D02*
X167Y834D01*
X1407Y834D02*
X1414Y834D01*
X0Y833D02*
X7Y833D01*
X114Y833D02*
X120Y833D01*
X161Y833D02*
X167Y833D01*
X1407Y833D02*
X1414Y833D01*
X0Y832D02*
X7Y832D01*
X114Y832D02*
X120Y832D01*
X161Y832D02*
X167Y832D01*
X1407Y832D02*
X1414Y832D01*
X0Y831D02*
X7Y831D01*
X114Y831D02*
X120Y831D01*
X161Y831D02*
X167Y831D01*
X1407Y831D02*
X1414Y831D01*
X0Y830D02*
X7Y830D01*
X114Y830D02*
X121Y830D01*
X161Y830D02*
X167Y830D01*
X1407Y830D02*
X1414Y830D01*
X0Y829D02*
X7Y829D01*
X114Y829D02*
X167Y829D01*
X1407Y829D02*
X1414Y829D01*
X0Y828D02*
X7Y828D01*
X115Y828D02*
X167Y828D01*
X1407Y828D02*
X1414Y828D01*
X0Y827D02*
X7Y827D01*
X115Y827D02*
X167Y827D01*
X1407Y827D02*
X1414Y827D01*
X0Y826D02*
X7Y826D01*
X116Y826D02*
X166Y826D01*
X1407Y826D02*
X1414Y826D01*
X0Y825D02*
X7Y825D01*
X116Y825D02*
X165Y825D01*
X711Y825D02*
X714Y825D01*
X1006Y825D02*
X1032Y825D01*
X1055Y825D02*
X1058Y825D01*
X1407Y825D02*
X1414Y825D01*
X0Y824D02*
X7Y824D01*
X118Y824D02*
X164Y824D01*
X710Y824D02*
X715Y824D01*
X1006Y824D02*
X1033Y824D01*
X1054Y824D02*
X1059Y824D01*
X1407Y824D02*
X1414Y824D01*
X0Y823D02*
X7Y823D01*
X120Y823D02*
X161Y823D01*
X709Y823D02*
X715Y823D01*
X1006Y823D02*
X1034Y823D01*
X1054Y823D02*
X1059Y823D01*
X1407Y823D02*
X1414Y823D01*
X0Y822D02*
X7Y822D01*
X709Y822D02*
X715Y822D01*
X1006Y822D02*
X1035Y822D01*
X1054Y822D02*
X1060Y822D01*
X1407Y822D02*
X1414Y822D01*
X0Y821D02*
X7Y821D01*
X709Y821D02*
X715Y821D01*
X1006Y821D02*
X1036Y821D01*
X1054Y821D02*
X1060Y821D01*
X1407Y821D02*
X1414Y821D01*
X0Y820D02*
X7Y820D01*
X708Y820D02*
X715Y820D01*
X1006Y820D02*
X1036Y820D01*
X1054Y820D02*
X1060Y820D01*
X1407Y820D02*
X1414Y820D01*
X0Y819D02*
X7Y819D01*
X708Y819D02*
X714Y819D01*
X1006Y819D02*
X1036Y819D01*
X1054Y819D02*
X1060Y819D01*
X1407Y819D02*
X1414Y819D01*
X0Y818D02*
X7Y818D01*
X707Y818D02*
X714Y818D01*
X730Y818D02*
X760Y818D01*
X1006Y818D02*
X1012Y818D01*
X1030Y818D02*
X1036Y818D01*
X1054Y818D02*
X1060Y818D01*
X1407Y818D02*
X1414Y818D01*
X0Y817D02*
X7Y817D01*
X707Y817D02*
X714Y817D01*
X730Y817D02*
X760Y817D01*
X1006Y817D02*
X1012Y817D01*
X1030Y817D02*
X1036Y817D01*
X1054Y817D02*
X1060Y817D01*
X1407Y817D02*
X1414Y817D01*
X0Y816D02*
X7Y816D01*
X407Y816D02*
X429Y816D01*
X707Y816D02*
X713Y816D01*
X730Y816D02*
X760Y816D01*
X1006Y816D02*
X1012Y816D01*
X1030Y816D02*
X1036Y816D01*
X1054Y816D02*
X1060Y816D01*
X1407Y816D02*
X1414Y816D01*
X0Y815D02*
X7Y815D01*
X405Y815D02*
X430Y815D01*
X707Y815D02*
X713Y815D01*
X730Y815D02*
X760Y815D01*
X1006Y815D02*
X1012Y815D01*
X1030Y815D02*
X1036Y815D01*
X1054Y815D02*
X1060Y815D01*
X1407Y815D02*
X1414Y815D01*
X0Y814D02*
X7Y814D01*
X405Y814D02*
X431Y814D01*
X707Y814D02*
X713Y814D01*
X730Y814D02*
X760Y814D01*
X1006Y814D02*
X1012Y814D01*
X1030Y814D02*
X1036Y814D01*
X1054Y814D02*
X1060Y814D01*
X1407Y814D02*
X1414Y814D01*
X0Y813D02*
X7Y813D01*
X404Y813D02*
X432Y813D01*
X707Y813D02*
X713Y813D01*
X730Y813D02*
X760Y813D01*
X1006Y813D02*
X1012Y813D01*
X1030Y813D02*
X1036Y813D01*
X1054Y813D02*
X1060Y813D01*
X1407Y813D02*
X1414Y813D01*
X0Y812D02*
X7Y812D01*
X403Y812D02*
X432Y812D01*
X707Y812D02*
X713Y812D01*
X730Y812D02*
X760Y812D01*
X1006Y812D02*
X1012Y812D01*
X1030Y812D02*
X1036Y812D01*
X1054Y812D02*
X1060Y812D01*
X1407Y812D02*
X1414Y812D01*
X0Y811D02*
X7Y811D01*
X403Y811D02*
X433Y811D01*
X707Y811D02*
X713Y811D01*
X730Y811D02*
X736Y811D01*
X754Y811D02*
X760Y811D01*
X1006Y811D02*
X1012Y811D01*
X1030Y811D02*
X1036Y811D01*
X1054Y811D02*
X1060Y811D01*
X1407Y811D02*
X1414Y811D01*
X0Y810D02*
X7Y810D01*
X403Y810D02*
X433Y810D01*
X707Y810D02*
X713Y810D01*
X730Y810D02*
X736Y810D01*
X754Y810D02*
X760Y810D01*
X1006Y810D02*
X1012Y810D01*
X1030Y810D02*
X1036Y810D01*
X1054Y810D02*
X1060Y810D01*
X1407Y810D02*
X1414Y810D01*
X0Y809D02*
X7Y809D01*
X403Y809D02*
X409Y809D01*
X427Y809D02*
X455Y809D01*
X707Y809D02*
X713Y809D01*
X730Y809D02*
X736Y809D01*
X754Y809D02*
X760Y809D01*
X1006Y809D02*
X1012Y809D01*
X1030Y809D02*
X1036Y809D01*
X1054Y809D02*
X1060Y809D01*
X1407Y809D02*
X1414Y809D01*
X0Y808D02*
X7Y808D01*
X403Y808D02*
X409Y808D01*
X427Y808D02*
X456Y808D01*
X707Y808D02*
X713Y808D01*
X730Y808D02*
X736Y808D01*
X754Y808D02*
X760Y808D01*
X1006Y808D02*
X1012Y808D01*
X1030Y808D02*
X1036Y808D01*
X1054Y808D02*
X1060Y808D01*
X1407Y808D02*
X1414Y808D01*
X0Y807D02*
X7Y807D01*
X403Y807D02*
X409Y807D01*
X427Y807D02*
X456Y807D01*
X707Y807D02*
X713Y807D01*
X730Y807D02*
X736Y807D01*
X754Y807D02*
X760Y807D01*
X1006Y807D02*
X1012Y807D01*
X1030Y807D02*
X1036Y807D01*
X1054Y807D02*
X1060Y807D01*
X1407Y807D02*
X1414Y807D01*
X0Y806D02*
X7Y806D01*
X403Y806D02*
X409Y806D01*
X427Y806D02*
X456Y806D01*
X707Y806D02*
X713Y806D01*
X730Y806D02*
X736Y806D01*
X754Y806D02*
X760Y806D01*
X1006Y806D02*
X1012Y806D01*
X1030Y806D02*
X1036Y806D01*
X1054Y806D02*
X1060Y806D01*
X1407Y806D02*
X1414Y806D01*
X0Y805D02*
X7Y805D01*
X403Y805D02*
X409Y805D01*
X427Y805D02*
X456Y805D01*
X707Y805D02*
X713Y805D01*
X730Y805D02*
X736Y805D01*
X754Y805D02*
X760Y805D01*
X1006Y805D02*
X1012Y805D01*
X1030Y805D02*
X1036Y805D01*
X1054Y805D02*
X1060Y805D01*
X1407Y805D02*
X1414Y805D01*
X0Y804D02*
X7Y804D01*
X403Y804D02*
X409Y804D01*
X427Y804D02*
X456Y804D01*
X707Y804D02*
X713Y804D01*
X730Y804D02*
X736Y804D01*
X754Y804D02*
X760Y804D01*
X1006Y804D02*
X1012Y804D01*
X1030Y804D02*
X1036Y804D01*
X1054Y804D02*
X1060Y804D01*
X1407Y804D02*
X1414Y804D01*
X0Y803D02*
X7Y803D01*
X403Y803D02*
X409Y803D01*
X427Y803D02*
X456Y803D01*
X707Y803D02*
X713Y803D01*
X730Y803D02*
X736Y803D01*
X754Y803D02*
X760Y803D01*
X1006Y803D02*
X1012Y803D01*
X1030Y803D02*
X1036Y803D01*
X1054Y803D02*
X1060Y803D01*
X1407Y803D02*
X1414Y803D01*
X0Y802D02*
X7Y802D01*
X403Y802D02*
X409Y802D01*
X427Y802D02*
X433Y802D01*
X450Y802D02*
X456Y802D01*
X707Y802D02*
X713Y802D01*
X730Y802D02*
X736Y802D01*
X754Y802D02*
X760Y802D01*
X1006Y802D02*
X1012Y802D01*
X1030Y802D02*
X1036Y802D01*
X1054Y802D02*
X1060Y802D01*
X1407Y802D02*
X1414Y802D01*
X0Y801D02*
X7Y801D01*
X403Y801D02*
X409Y801D01*
X427Y801D02*
X433Y801D01*
X450Y801D02*
X456Y801D01*
X707Y801D02*
X713Y801D01*
X730Y801D02*
X736Y801D01*
X754Y801D02*
X760Y801D01*
X1006Y801D02*
X1012Y801D01*
X1030Y801D02*
X1036Y801D01*
X1054Y801D02*
X1060Y801D01*
X1407Y801D02*
X1414Y801D01*
X0Y800D02*
X7Y800D01*
X403Y800D02*
X409Y800D01*
X427Y800D02*
X433Y800D01*
X450Y800D02*
X456Y800D01*
X707Y800D02*
X713Y800D01*
X730Y800D02*
X736Y800D01*
X754Y800D02*
X760Y800D01*
X1006Y800D02*
X1012Y800D01*
X1030Y800D02*
X1036Y800D01*
X1054Y800D02*
X1060Y800D01*
X1407Y800D02*
X1414Y800D01*
X0Y799D02*
X7Y799D01*
X403Y799D02*
X409Y799D01*
X427Y799D02*
X433Y799D01*
X450Y799D02*
X456Y799D01*
X707Y799D02*
X713Y799D01*
X730Y799D02*
X736Y799D01*
X754Y799D02*
X760Y799D01*
X1006Y799D02*
X1012Y799D01*
X1030Y799D02*
X1036Y799D01*
X1054Y799D02*
X1060Y799D01*
X1407Y799D02*
X1414Y799D01*
X0Y798D02*
X7Y798D01*
X403Y798D02*
X409Y798D01*
X427Y798D02*
X433Y798D01*
X450Y798D02*
X456Y798D01*
X707Y798D02*
X736Y798D01*
X754Y798D02*
X760Y798D01*
X1006Y798D02*
X1012Y798D01*
X1030Y798D02*
X1059Y798D01*
X1407Y798D02*
X1414Y798D01*
X0Y797D02*
X7Y797D01*
X403Y797D02*
X409Y797D01*
X427Y797D02*
X433Y797D01*
X450Y797D02*
X456Y797D01*
X707Y797D02*
X736Y797D01*
X754Y797D02*
X760Y797D01*
X1006Y797D02*
X1012Y797D01*
X1030Y797D02*
X1059Y797D01*
X1407Y797D02*
X1414Y797D01*
X0Y796D02*
X7Y796D01*
X403Y796D02*
X409Y796D01*
X427Y796D02*
X456Y796D01*
X707Y796D02*
X736Y796D01*
X754Y796D02*
X760Y796D01*
X1006Y796D02*
X1012Y796D01*
X1030Y796D02*
X1059Y796D01*
X1407Y796D02*
X1414Y796D01*
X0Y795D02*
X7Y795D01*
X403Y795D02*
X409Y795D01*
X427Y795D02*
X456Y795D01*
X707Y795D02*
X735Y795D01*
X754Y795D02*
X760Y795D01*
X1006Y795D02*
X1012Y795D01*
X1031Y795D02*
X1059Y795D01*
X1407Y795D02*
X1414Y795D01*
X0Y794D02*
X7Y794D01*
X403Y794D02*
X409Y794D01*
X427Y794D02*
X456Y794D01*
X708Y794D02*
X735Y794D01*
X754Y794D02*
X760Y794D01*
X1007Y794D02*
X1012Y794D01*
X1031Y794D02*
X1058Y794D01*
X1407Y794D02*
X1414Y794D01*
X0Y793D02*
X7Y793D01*
X403Y793D02*
X409Y793D01*
X427Y793D02*
X456Y793D01*
X709Y793D02*
X734Y793D01*
X754Y793D02*
X759Y793D01*
X1007Y793D02*
X1012Y793D01*
X1032Y793D02*
X1057Y793D01*
X1407Y793D02*
X1414Y793D01*
X0Y792D02*
X7Y792D01*
X403Y792D02*
X409Y792D01*
X427Y792D02*
X456Y792D01*
X710Y792D02*
X732Y792D01*
X755Y792D02*
X758Y792D01*
X1008Y792D02*
X1011Y792D01*
X1034Y792D02*
X1056Y792D01*
X1407Y792D02*
X1414Y792D01*
X0Y791D02*
X7Y791D01*
X403Y791D02*
X409Y791D01*
X427Y791D02*
X456Y791D01*
X1407Y791D02*
X1414Y791D01*
X0Y790D02*
X7Y790D01*
X403Y790D02*
X409Y790D01*
X427Y790D02*
X455Y790D01*
X1407Y790D02*
X1414Y790D01*
X0Y789D02*
X7Y789D01*
X403Y789D02*
X433Y789D01*
X1407Y789D02*
X1414Y789D01*
X0Y788D02*
X7Y788D01*
X403Y788D02*
X433Y788D01*
X1407Y788D02*
X1414Y788D01*
X0Y787D02*
X7Y787D01*
X403Y787D02*
X432Y787D01*
X1407Y787D02*
X1414Y787D01*
X0Y786D02*
X7Y786D01*
X404Y786D02*
X432Y786D01*
X1407Y786D02*
X1414Y786D01*
X0Y785D02*
X7Y785D01*
X405Y785D02*
X431Y785D01*
X1407Y785D02*
X1414Y785D01*
X0Y784D02*
X7Y784D01*
X405Y784D02*
X430Y784D01*
X1407Y784D02*
X1414Y784D01*
X0Y783D02*
X7Y783D01*
X407Y783D02*
X429Y783D01*
X1407Y783D02*
X1414Y783D01*
X0Y782D02*
X7Y782D01*
X1407Y782D02*
X1414Y782D01*
X0Y781D02*
X7Y781D01*
X1407Y781D02*
X1414Y781D01*
X0Y780D02*
X7Y780D01*
X1407Y780D02*
X1414Y780D01*
X0Y779D02*
X7Y779D01*
X1407Y779D02*
X1414Y779D01*
X0Y778D02*
X7Y778D01*
X1407Y778D02*
X1414Y778D01*
X0Y777D02*
X7Y777D01*
X1407Y777D02*
X1414Y777D01*
X0Y776D02*
X7Y776D01*
X1407Y776D02*
X1414Y776D01*
X0Y775D02*
X7Y775D01*
X1407Y775D02*
X1414Y775D01*
X0Y774D02*
X7Y774D01*
X1407Y774D02*
X1414Y774D01*
X0Y773D02*
X7Y773D01*
X1407Y773D02*
X1414Y773D01*
X0Y772D02*
X7Y772D01*
X1407Y772D02*
X1414Y772D01*
X0Y771D02*
X7Y771D01*
X1407Y771D02*
X1414Y771D01*
X0Y770D02*
X6Y770D01*
X1407Y770D02*
X1414Y770D01*
X0Y769D02*
X6Y769D01*
X1407Y769D02*
X1414Y769D01*
X0Y768D02*
X5Y768D01*
X1407Y768D02*
X1414Y768D01*
X0Y767D02*
X5Y767D01*
X1407Y767D02*
X1414Y767D01*
X0Y766D02*
X5Y766D01*
X1407Y766D02*
X1414Y766D01*
X0Y765D02*
X4Y765D01*
X1407Y765D02*
X1414Y765D01*
X0Y764D02*
X4Y764D01*
X1407Y764D02*
X1414Y764D01*
X0Y763D02*
X4Y763D01*
X1407Y763D02*
X1414Y763D01*
X0Y762D02*
X4Y762D01*
X1407Y762D02*
X1414Y762D01*
X0Y761D02*
X3Y761D01*
X1407Y761D02*
X1414Y761D01*
X0Y760D02*
X3Y760D01*
X1407Y760D02*
X1414Y760D01*
X0Y759D02*
X3Y759D01*
X1407Y759D02*
X1414Y759D01*
X0Y758D02*
X3Y758D01*
X1407Y758D02*
X1414Y758D01*
X0Y757D02*
X3Y757D01*
X1407Y757D02*
X1414Y757D01*
X0Y756D02*
X3Y756D01*
X1407Y756D02*
X1414Y756D01*
X0Y755D02*
X3Y755D01*
X1407Y755D02*
X1414Y755D01*
X0Y754D02*
X3Y754D01*
X1407Y754D02*
X1414Y754D01*
X0Y753D02*
X3Y753D01*
X1407Y753D02*
X1414Y753D01*
X0Y752D02*
X3Y752D01*
X1407Y752D02*
X1414Y752D01*
X0Y751D02*
X3Y751D01*
X1407Y751D02*
X1414Y751D01*
X0Y750D02*
X3Y750D01*
X1407Y750D02*
X1414Y750D01*
X0Y749D02*
X4Y749D01*
X1407Y749D02*
X1414Y749D01*
X0Y748D02*
X4Y748D01*
X1407Y748D02*
X1414Y748D01*
X0Y747D02*
X4Y747D01*
X1407Y747D02*
X1414Y747D01*
X0Y746D02*
X4Y746D01*
X1407Y746D02*
X1414Y746D01*
X0Y745D02*
X4Y745D01*
X1407Y745D02*
X1414Y745D01*
X0Y744D02*
X5Y744D01*
X1407Y744D02*
X1414Y744D01*
X0Y743D02*
X5Y743D01*
X1407Y743D02*
X1414Y743D01*
X0Y742D02*
X6Y742D01*
X1407Y742D02*
X1414Y742D01*
X0Y741D02*
X6Y741D01*
X1407Y741D02*
X1414Y741D01*
X0Y740D02*
X6Y740D01*
X1407Y740D02*
X1414Y740D01*
X0Y739D02*
X7Y739D01*
X1407Y739D02*
X1414Y739D01*
X0Y738D02*
X7Y738D01*
X1407Y738D02*
X1414Y738D01*
X0Y737D02*
X7Y737D01*
X1407Y737D02*
X1414Y737D01*
X0Y736D02*
X7Y736D01*
X1407Y736D02*
X1414Y736D01*
X0Y735D02*
X7Y735D01*
X1407Y735D02*
X1414Y735D01*
X0Y734D02*
X7Y734D01*
X1407Y734D02*
X1414Y734D01*
X0Y733D02*
X7Y733D01*
X1407Y733D02*
X1414Y733D01*
X0Y732D02*
X7Y732D01*
X1407Y732D02*
X1414Y732D01*
X0Y731D02*
X7Y731D01*
X1407Y731D02*
X1414Y731D01*
X0Y730D02*
X7Y730D01*
X1407Y730D02*
X1414Y730D01*
X0Y729D02*
X7Y729D01*
X1407Y729D02*
X1414Y729D01*
X0Y728D02*
X7Y728D01*
X1407Y728D02*
X1414Y728D01*
X0Y727D02*
X7Y727D01*
X1407Y727D02*
X1414Y727D01*
X0Y726D02*
X7Y726D01*
X1407Y726D02*
X1414Y726D01*
X0Y725D02*
X7Y725D01*
X1407Y725D02*
X1414Y725D01*
X0Y724D02*
X7Y724D01*
X1407Y724D02*
X1414Y724D01*
X0Y723D02*
X7Y723D01*
X1407Y723D02*
X1414Y723D01*
X0Y722D02*
X7Y722D01*
X1407Y722D02*
X1414Y722D01*
X0Y721D02*
X7Y721D01*
X1407Y721D02*
X1414Y721D01*
X0Y720D02*
X7Y720D01*
X1407Y720D02*
X1414Y720D01*
X0Y719D02*
X7Y719D01*
X1407Y719D02*
X1414Y719D01*
X0Y718D02*
X7Y718D01*
X1407Y718D02*
X1414Y718D01*
X0Y717D02*
X7Y717D01*
X1407Y717D02*
X1414Y717D01*
X0Y716D02*
X7Y716D01*
X1407Y716D02*
X1414Y716D01*
X0Y715D02*
X7Y715D01*
X1407Y715D02*
X1414Y715D01*
X0Y714D02*
X7Y714D01*
X1407Y714D02*
X1414Y714D01*
X0Y713D02*
X7Y713D01*
X1407Y713D02*
X1414Y713D01*
X0Y712D02*
X7Y712D01*
X1407Y712D02*
X1414Y712D01*
X0Y711D02*
X7Y711D01*
X1407Y711D02*
X1414Y711D01*
X0Y710D02*
X7Y710D01*
X1407Y710D02*
X1414Y710D01*
X0Y709D02*
X7Y709D01*
X1407Y709D02*
X1414Y709D01*
X0Y708D02*
X7Y708D01*
X1407Y708D02*
X1414Y708D01*
X0Y707D02*
X7Y707D01*
X1407Y707D02*
X1414Y707D01*
X0Y706D02*
X7Y706D01*
X1407Y706D02*
X1414Y706D01*
X0Y705D02*
X7Y705D01*
X1407Y705D02*
X1414Y705D01*
X0Y704D02*
X7Y704D01*
X1407Y704D02*
X1414Y704D01*
X0Y703D02*
X7Y703D01*
X1407Y703D02*
X1414Y703D01*
X0Y702D02*
X7Y702D01*
X1407Y702D02*
X1414Y702D01*
X0Y701D02*
X7Y701D01*
X1407Y701D02*
X1414Y701D01*
X0Y700D02*
X7Y700D01*
X1407Y700D02*
X1414Y700D01*
X0Y699D02*
X7Y699D01*
X1407Y699D02*
X1414Y699D01*
X0Y698D02*
X7Y698D01*
X1407Y698D02*
X1414Y698D01*
X0Y697D02*
X7Y697D01*
X1407Y697D02*
X1414Y697D01*
X0Y696D02*
X7Y696D01*
X1407Y696D02*
X1414Y696D01*
X0Y695D02*
X7Y695D01*
X1407Y695D02*
X1414Y695D01*
X0Y694D02*
X7Y694D01*
X1407Y694D02*
X1414Y694D01*
X0Y693D02*
X7Y693D01*
X1407Y693D02*
X1414Y693D01*
X0Y692D02*
X7Y692D01*
X1407Y692D02*
X1414Y692D01*
X0Y691D02*
X7Y691D01*
X1407Y691D02*
X1414Y691D01*
X0Y690D02*
X7Y690D01*
X1407Y690D02*
X1414Y690D01*
X0Y689D02*
X7Y689D01*
X1407Y689D02*
X1414Y689D01*
X0Y688D02*
X7Y688D01*
X1407Y688D02*
X1414Y688D01*
X0Y687D02*
X7Y687D01*
X1407Y687D02*
X1414Y687D01*
X0Y686D02*
X7Y686D01*
X1407Y686D02*
X1414Y686D01*
X0Y685D02*
X7Y685D01*
X1407Y685D02*
X1414Y685D01*
X0Y684D02*
X7Y684D01*
X1407Y684D02*
X1414Y684D01*
X0Y683D02*
X7Y683D01*
X1407Y683D02*
X1414Y683D01*
X0Y682D02*
X7Y682D01*
X1407Y682D02*
X1414Y682D01*
X0Y681D02*
X7Y681D01*
X1407Y681D02*
X1414Y681D01*
X0Y680D02*
X7Y680D01*
X1407Y680D02*
X1414Y680D01*
X0Y679D02*
X7Y679D01*
X1407Y679D02*
X1414Y679D01*
X0Y678D02*
X7Y678D01*
X1407Y678D02*
X1414Y678D01*
X0Y677D02*
X7Y677D01*
X1407Y677D02*
X1414Y677D01*
X0Y676D02*
X7Y676D01*
X1407Y676D02*
X1414Y676D01*
X0Y675D02*
X7Y675D01*
X1407Y675D02*
X1414Y675D01*
X0Y674D02*
X7Y674D01*
X1407Y674D02*
X1414Y674D01*
X0Y673D02*
X7Y673D01*
X1407Y673D02*
X1414Y673D01*
X0Y672D02*
X7Y672D01*
X1407Y672D02*
X1414Y672D01*
X0Y671D02*
X7Y671D01*
X1407Y671D02*
X1414Y671D01*
X0Y670D02*
X7Y670D01*
X1407Y670D02*
X1414Y670D01*
X0Y669D02*
X7Y669D01*
X1407Y669D02*
X1414Y669D01*
X0Y668D02*
X7Y668D01*
X1407Y668D02*
X1414Y668D01*
X0Y667D02*
X7Y667D01*
X1407Y667D02*
X1414Y667D01*
X0Y666D02*
X7Y666D01*
X1407Y666D02*
X1414Y666D01*
X0Y665D02*
X7Y665D01*
X1407Y665D02*
X1414Y665D01*
X0Y664D02*
X7Y664D01*
X1407Y664D02*
X1414Y664D01*
X0Y663D02*
X7Y663D01*
X1407Y663D02*
X1414Y663D01*
X0Y662D02*
X7Y662D01*
X1407Y662D02*
X1414Y662D01*
X0Y661D02*
X7Y661D01*
X1407Y661D02*
X1414Y661D01*
X0Y660D02*
X7Y660D01*
X1407Y660D02*
X1414Y660D01*
X0Y659D02*
X7Y659D01*
X1407Y659D02*
X1414Y659D01*
X0Y658D02*
X7Y658D01*
X1407Y658D02*
X1414Y658D01*
X0Y657D02*
X7Y657D01*
X1407Y657D02*
X1414Y657D01*
X0Y656D02*
X7Y656D01*
X1407Y656D02*
X1414Y656D01*
X0Y655D02*
X7Y655D01*
X1407Y655D02*
X1414Y655D01*
X0Y654D02*
X7Y654D01*
X1407Y654D02*
X1414Y654D01*
X0Y653D02*
X7Y653D01*
X1407Y653D02*
X1414Y653D01*
X0Y652D02*
X7Y652D01*
X1407Y652D02*
X1414Y652D01*
X0Y651D02*
X7Y651D01*
X1407Y651D02*
X1414Y651D01*
X0Y650D02*
X7Y650D01*
X1407Y650D02*
X1414Y650D01*
X0Y649D02*
X7Y649D01*
X1407Y649D02*
X1414Y649D01*
X0Y648D02*
X7Y648D01*
X1407Y648D02*
X1414Y648D01*
X0Y647D02*
X7Y647D01*
X1407Y647D02*
X1414Y647D01*
X0Y646D02*
X7Y646D01*
X1407Y646D02*
X1414Y646D01*
X0Y645D02*
X7Y645D01*
X1407Y645D02*
X1414Y645D01*
X0Y644D02*
X7Y644D01*
X1407Y644D02*
X1414Y644D01*
X0Y643D02*
X7Y643D01*
X1407Y643D02*
X1414Y643D01*
X0Y642D02*
X7Y642D01*
X1407Y642D02*
X1414Y642D01*
X0Y641D02*
X7Y641D01*
X1407Y641D02*
X1414Y641D01*
X0Y640D02*
X7Y640D01*
X1407Y640D02*
X1414Y640D01*
X0Y639D02*
X7Y639D01*
X1407Y639D02*
X1414Y639D01*
X0Y638D02*
X7Y638D01*
X1407Y638D02*
X1414Y638D01*
X0Y637D02*
X7Y637D01*
X1407Y637D02*
X1414Y637D01*
X0Y636D02*
X7Y636D01*
X1407Y636D02*
X1414Y636D01*
X0Y635D02*
X7Y635D01*
X1407Y635D02*
X1414Y635D01*
X0Y634D02*
X7Y634D01*
X1407Y634D02*
X1414Y634D01*
X0Y633D02*
X7Y633D01*
X1407Y633D02*
X1414Y633D01*
X0Y632D02*
X7Y632D01*
X1407Y632D02*
X1414Y632D01*
X0Y631D02*
X7Y631D01*
X1407Y631D02*
X1414Y631D01*
X0Y630D02*
X7Y630D01*
X1407Y630D02*
X1414Y630D01*
X0Y629D02*
X7Y629D01*
X1407Y629D02*
X1414Y629D01*
X0Y628D02*
X7Y628D01*
X1407Y628D02*
X1414Y628D01*
X0Y627D02*
X7Y627D01*
X1407Y627D02*
X1414Y627D01*
X0Y626D02*
X7Y626D01*
X1407Y626D02*
X1414Y626D01*
X0Y625D02*
X7Y625D01*
X1407Y625D02*
X1414Y625D01*
X0Y624D02*
X7Y624D01*
X1407Y624D02*
X1414Y624D01*
X0Y623D02*
X7Y623D01*
X1407Y623D02*
X1414Y623D01*
X0Y622D02*
X7Y622D01*
X1407Y622D02*
X1414Y622D01*
X0Y621D02*
X7Y621D01*
X1407Y621D02*
X1414Y621D01*
X0Y620D02*
X7Y620D01*
X1407Y620D02*
X1414Y620D01*
X0Y619D02*
X7Y619D01*
X1407Y619D02*
X1414Y619D01*
X0Y618D02*
X7Y618D01*
X1407Y618D02*
X1414Y618D01*
X0Y617D02*
X7Y617D01*
X1407Y617D02*
X1414Y617D01*
X0Y616D02*
X7Y616D01*
X1407Y616D02*
X1414Y616D01*
X0Y615D02*
X7Y615D01*
X1407Y615D02*
X1414Y615D01*
X0Y614D02*
X7Y614D01*
X1407Y614D02*
X1414Y614D01*
X0Y613D02*
X7Y613D01*
X1407Y613D02*
X1414Y613D01*
X0Y612D02*
X7Y612D01*
X1407Y612D02*
X1414Y612D01*
X0Y611D02*
X7Y611D01*
X1407Y611D02*
X1414Y611D01*
X0Y610D02*
X7Y610D01*
X1407Y610D02*
X1414Y610D01*
X0Y609D02*
X7Y609D01*
X1407Y609D02*
X1414Y609D01*
X0Y608D02*
X7Y608D01*
X1407Y608D02*
X1414Y608D01*
X0Y607D02*
X7Y607D01*
X1407Y607D02*
X1414Y607D01*
X0Y606D02*
X7Y606D01*
X1407Y606D02*
X1414Y606D01*
X0Y605D02*
X7Y605D01*
X1407Y605D02*
X1414Y605D01*
X0Y604D02*
X7Y604D01*
X1407Y604D02*
X1414Y604D01*
X0Y603D02*
X7Y603D01*
X1407Y603D02*
X1414Y603D01*
X0Y602D02*
X7Y602D01*
X1407Y602D02*
X1414Y602D01*
X0Y601D02*
X7Y601D01*
X1407Y601D02*
X1414Y601D01*
X0Y600D02*
X7Y600D01*
X1407Y600D02*
X1414Y600D01*
X0Y599D02*
X7Y599D01*
X1407Y599D02*
X1414Y599D01*
X0Y598D02*
X7Y598D01*
X1407Y598D02*
X1414Y598D01*
X0Y597D02*
X7Y597D01*
X1407Y597D02*
X1414Y597D01*
X0Y596D02*
X7Y596D01*
X1407Y596D02*
X1414Y596D01*
X0Y595D02*
X7Y595D01*
X1407Y595D02*
X1414Y595D01*
X0Y594D02*
X7Y594D01*
X1407Y594D02*
X1414Y594D01*
X0Y593D02*
X7Y593D01*
X1407Y593D02*
X1414Y593D01*
X0Y592D02*
X7Y592D01*
X1407Y592D02*
X1414Y592D01*
X0Y591D02*
X7Y591D01*
X1407Y591D02*
X1414Y591D01*
X0Y590D02*
X7Y590D01*
X1407Y590D02*
X1414Y590D01*
X0Y589D02*
X7Y589D01*
X1407Y589D02*
X1414Y589D01*
X0Y588D02*
X7Y588D01*
X1407Y588D02*
X1414Y588D01*
X0Y587D02*
X7Y587D01*
X1407Y587D02*
X1414Y587D01*
X0Y586D02*
X7Y586D01*
X1407Y586D02*
X1414Y586D01*
X0Y585D02*
X7Y585D01*
X1407Y585D02*
X1414Y585D01*
X0Y584D02*
X7Y584D01*
X1407Y584D02*
X1414Y584D01*
X0Y583D02*
X7Y583D01*
X1407Y583D02*
X1414Y583D01*
X0Y582D02*
X7Y582D01*
X1407Y582D02*
X1414Y582D01*
X0Y581D02*
X7Y581D01*
X1407Y581D02*
X1414Y581D01*
X0Y580D02*
X7Y580D01*
X1407Y580D02*
X1414Y580D01*
X0Y579D02*
X7Y579D01*
X1407Y579D02*
X1414Y579D01*
X0Y578D02*
X7Y578D01*
X1407Y578D02*
X1414Y578D01*
X0Y577D02*
X7Y577D01*
X1407Y577D02*
X1414Y577D01*
X0Y576D02*
X7Y576D01*
X1407Y576D02*
X1414Y576D01*
X0Y575D02*
X7Y575D01*
X1407Y575D02*
X1414Y575D01*
X0Y574D02*
X7Y574D01*
X1407Y574D02*
X1414Y574D01*
X0Y573D02*
X7Y573D01*
X1407Y573D02*
X1414Y573D01*
X0Y572D02*
X7Y572D01*
X1407Y572D02*
X1414Y572D01*
X0Y571D02*
X7Y571D01*
X1407Y571D02*
X1414Y571D01*
X0Y570D02*
X7Y570D01*
X1407Y570D02*
X1414Y570D01*
X0Y569D02*
X7Y569D01*
X1407Y569D02*
X1414Y569D01*
X0Y568D02*
X7Y568D01*
X1407Y568D02*
X1414Y568D01*
X0Y567D02*
X7Y567D01*
X1407Y567D02*
X1414Y567D01*
X0Y566D02*
X7Y566D01*
X1407Y566D02*
X1414Y566D01*
X0Y565D02*
X7Y565D01*
X1407Y565D02*
X1414Y565D01*
X0Y564D02*
X7Y564D01*
X1407Y564D02*
X1414Y564D01*
X0Y563D02*
X7Y563D01*
X1407Y563D02*
X1414Y563D01*
X0Y562D02*
X7Y562D01*
X1407Y562D02*
X1414Y562D01*
X0Y561D02*
X7Y561D01*
X1407Y561D02*
X1414Y561D01*
X0Y560D02*
X7Y560D01*
X1407Y560D02*
X1414Y560D01*
X0Y559D02*
X7Y559D01*
X1407Y559D02*
X1414Y559D01*
X0Y558D02*
X7Y558D01*
X1407Y558D02*
X1414Y558D01*
X0Y557D02*
X7Y557D01*
X1407Y557D02*
X1414Y557D01*
X0Y556D02*
X7Y556D01*
X1407Y556D02*
X1414Y556D01*
X0Y555D02*
X7Y555D01*
X1407Y555D02*
X1414Y555D01*
X0Y554D02*
X7Y554D01*
X1407Y554D02*
X1414Y554D01*
X0Y553D02*
X7Y553D01*
X1407Y553D02*
X1414Y553D01*
X0Y552D02*
X7Y552D01*
X1407Y552D02*
X1414Y552D01*
X0Y551D02*
X7Y551D01*
X1407Y551D02*
X1414Y551D01*
X0Y550D02*
X7Y550D01*
X1407Y550D02*
X1414Y550D01*
X0Y549D02*
X7Y549D01*
X1407Y549D02*
X1414Y549D01*
X0Y548D02*
X7Y548D01*
X1407Y548D02*
X1414Y548D01*
X0Y547D02*
X7Y547D01*
X1407Y547D02*
X1414Y547D01*
X0Y546D02*
X7Y546D01*
X1407Y546D02*
X1414Y546D01*
X0Y545D02*
X7Y545D01*
X1407Y545D02*
X1414Y545D01*
X0Y544D02*
X7Y544D01*
X1407Y544D02*
X1414Y544D01*
X0Y543D02*
X7Y543D01*
X1407Y543D02*
X1414Y543D01*
X0Y542D02*
X7Y542D01*
X1407Y542D02*
X1414Y542D01*
X0Y541D02*
X7Y541D01*
X1407Y541D02*
X1414Y541D01*
X0Y540D02*
X7Y540D01*
X1407Y540D02*
X1414Y540D01*
X0Y539D02*
X7Y539D01*
X1407Y539D02*
X1414Y539D01*
X0Y538D02*
X7Y538D01*
X1407Y538D02*
X1414Y538D01*
X0Y537D02*
X7Y537D01*
X1407Y537D02*
X1414Y537D01*
X0Y536D02*
X7Y536D01*
X1407Y536D02*
X1414Y536D01*
X0Y535D02*
X7Y535D01*
X1407Y535D02*
X1414Y535D01*
X0Y534D02*
X7Y534D01*
X1407Y534D02*
X1414Y534D01*
X0Y533D02*
X7Y533D01*
X1407Y533D02*
X1414Y533D01*
X0Y532D02*
X7Y532D01*
X1407Y532D02*
X1414Y532D01*
X0Y531D02*
X7Y531D01*
X1407Y531D02*
X1414Y531D01*
X0Y530D02*
X7Y530D01*
X1407Y530D02*
X1414Y530D01*
X0Y529D02*
X7Y529D01*
X1407Y529D02*
X1414Y529D01*
X0Y528D02*
X7Y528D01*
X1407Y528D02*
X1414Y528D01*
X0Y527D02*
X7Y527D01*
X1407Y527D02*
X1414Y527D01*
X0Y526D02*
X7Y526D01*
X1407Y526D02*
X1414Y526D01*
X0Y525D02*
X7Y525D01*
X1407Y525D02*
X1414Y525D01*
X0Y524D02*
X7Y524D01*
X1407Y524D02*
X1414Y524D01*
X0Y523D02*
X7Y523D01*
X1407Y523D02*
X1414Y523D01*
X0Y522D02*
X7Y522D01*
X1407Y522D02*
X1414Y522D01*
X0Y521D02*
X7Y521D01*
X1407Y521D02*
X1414Y521D01*
X0Y520D02*
X7Y520D01*
X1407Y520D02*
X1414Y520D01*
X0Y519D02*
X7Y519D01*
X1407Y519D02*
X1414Y519D01*
X0Y518D02*
X7Y518D01*
X1407Y518D02*
X1414Y518D01*
X0Y517D02*
X7Y517D01*
X1407Y517D02*
X1414Y517D01*
X0Y516D02*
X7Y516D01*
X1407Y516D02*
X1414Y516D01*
X0Y515D02*
X6Y515D01*
X1407Y515D02*
X1414Y515D01*
X0Y514D02*
X6Y514D01*
X1407Y514D02*
X1414Y514D01*
X0Y513D02*
X6Y513D01*
X1407Y513D02*
X1414Y513D01*
X0Y512D02*
X5Y512D01*
X1407Y512D02*
X1414Y512D01*
X0Y511D02*
X5Y511D01*
X1407Y511D02*
X1414Y511D01*
X0Y510D02*
X5Y510D01*
X1407Y510D02*
X1414Y510D01*
X0Y509D02*
X4Y509D01*
X1407Y509D02*
X1414Y509D01*
X0Y508D02*
X4Y508D01*
X1407Y508D02*
X1414Y508D01*
X0Y507D02*
X4Y507D01*
X1407Y507D02*
X1414Y507D01*
X0Y506D02*
X4Y506D01*
X1407Y506D02*
X1414Y506D01*
X0Y505D02*
X3Y505D01*
X1407Y505D02*
X1414Y505D01*
X0Y504D02*
X3Y504D01*
X1407Y504D02*
X1414Y504D01*
X0Y503D02*
X3Y503D01*
X1407Y503D02*
X1414Y503D01*
X0Y502D02*
X3Y502D01*
X1407Y502D02*
X1414Y502D01*
X0Y501D02*
X3Y501D01*
X1407Y501D02*
X1414Y501D01*
X0Y500D02*
X3Y500D01*
X1407Y500D02*
X1414Y500D01*
X0Y499D02*
X3Y499D01*
X1407Y499D02*
X1414Y499D01*
X0Y498D02*
X3Y498D01*
X1407Y498D02*
X1414Y498D01*
X0Y497D02*
X3Y497D01*
X1407Y497D02*
X1414Y497D01*
X0Y496D02*
X3Y496D01*
X1407Y496D02*
X1414Y496D01*
X0Y495D02*
X3Y495D01*
X1407Y495D02*
X1414Y495D01*
X0Y494D02*
X3Y494D01*
X1407Y494D02*
X1414Y494D01*
X0Y493D02*
X4Y493D01*
X1407Y493D02*
X1414Y493D01*
X0Y492D02*
X4Y492D01*
X1407Y492D02*
X1414Y492D01*
X0Y491D02*
X4Y491D01*
X1407Y491D02*
X1414Y491D01*
X0Y490D02*
X4Y490D01*
X1407Y490D02*
X1414Y490D01*
X0Y489D02*
X5Y489D01*
X1407Y489D02*
X1414Y489D01*
X0Y488D02*
X5Y488D01*
X1407Y488D02*
X1414Y488D01*
X0Y487D02*
X5Y487D01*
X1407Y487D02*
X1414Y487D01*
X0Y486D02*
X6Y486D01*
X1407Y486D02*
X1414Y486D01*
X0Y485D02*
X6Y485D01*
X1407Y485D02*
X1414Y485D01*
X0Y484D02*
X6Y484D01*
X1407Y484D02*
X1414Y484D01*
X0Y483D02*
X7Y483D01*
X1407Y483D02*
X1414Y483D01*
X0Y482D02*
X7Y482D01*
X1407Y482D02*
X1414Y482D01*
X0Y481D02*
X7Y481D01*
X1407Y481D02*
X1414Y481D01*
X0Y480D02*
X7Y480D01*
X1407Y480D02*
X1414Y480D01*
X0Y479D02*
X7Y479D01*
X1407Y479D02*
X1414Y479D01*
X0Y478D02*
X7Y478D01*
X1407Y478D02*
X1414Y478D01*
X0Y477D02*
X7Y477D01*
X1407Y477D02*
X1414Y477D01*
X0Y476D02*
X7Y476D01*
X1407Y476D02*
X1414Y476D01*
X0Y475D02*
X7Y475D01*
X1407Y475D02*
X1414Y475D01*
X0Y474D02*
X7Y474D01*
X1407Y474D02*
X1414Y474D01*
X0Y473D02*
X7Y473D01*
X1407Y473D02*
X1414Y473D01*
X0Y472D02*
X7Y472D01*
X1407Y472D02*
X1414Y472D01*
X0Y471D02*
X7Y471D01*
X1407Y471D02*
X1414Y471D01*
X0Y470D02*
X7Y470D01*
X1407Y470D02*
X1414Y470D01*
X0Y469D02*
X7Y469D01*
X1407Y469D02*
X1414Y469D01*
X0Y468D02*
X7Y468D01*
X1407Y468D02*
X1414Y468D01*
X0Y467D02*
X7Y467D01*
X1407Y467D02*
X1414Y467D01*
X0Y466D02*
X7Y466D01*
X1407Y466D02*
X1414Y466D01*
X0Y465D02*
X7Y465D01*
X1407Y465D02*
X1414Y465D01*
X0Y464D02*
X7Y464D01*
X1407Y464D02*
X1414Y464D01*
X0Y463D02*
X7Y463D01*
X1407Y463D02*
X1414Y463D01*
X0Y462D02*
X7Y462D01*
X1407Y462D02*
X1414Y462D01*
X0Y461D02*
X7Y461D01*
X1407Y461D02*
X1414Y461D01*
X0Y460D02*
X7Y460D01*
X1407Y460D02*
X1414Y460D01*
X0Y459D02*
X7Y459D01*
X1407Y459D02*
X1414Y459D01*
X0Y458D02*
X7Y458D01*
X1407Y458D02*
X1414Y458D01*
X0Y457D02*
X7Y457D01*
X1407Y457D02*
X1414Y457D01*
X0Y456D02*
X7Y456D01*
X1407Y456D02*
X1414Y456D01*
X0Y455D02*
X7Y455D01*
X1407Y455D02*
X1414Y455D01*
X0Y454D02*
X7Y454D01*
X1407Y454D02*
X1414Y454D01*
X0Y453D02*
X7Y453D01*
X1407Y453D02*
X1414Y453D01*
X0Y452D02*
X7Y452D01*
X1407Y452D02*
X1414Y452D01*
X0Y451D02*
X7Y451D01*
X1407Y451D02*
X1414Y451D01*
X0Y450D02*
X7Y450D01*
X1407Y450D02*
X1414Y450D01*
X0Y449D02*
X7Y449D01*
X1407Y449D02*
X1414Y449D01*
X0Y448D02*
X7Y448D01*
X1407Y448D02*
X1414Y448D01*
X0Y447D02*
X7Y447D01*
X1407Y447D02*
X1414Y447D01*
X0Y446D02*
X7Y446D01*
X1407Y446D02*
X1414Y446D01*
X0Y445D02*
X7Y445D01*
X1407Y445D02*
X1414Y445D01*
X0Y444D02*
X7Y444D01*
X116Y444D02*
X119Y444D01*
X163Y444D02*
X166Y444D01*
X1407Y444D02*
X1414Y444D01*
X0Y443D02*
X7Y443D01*
X115Y443D02*
X120Y443D01*
X162Y443D02*
X167Y443D01*
X1407Y443D02*
X1414Y443D01*
X0Y442D02*
X7Y442D01*
X114Y442D02*
X120Y442D01*
X162Y442D02*
X167Y442D01*
X1407Y442D02*
X1414Y442D01*
X0Y441D02*
X7Y441D01*
X114Y441D02*
X120Y441D01*
X161Y441D02*
X167Y441D01*
X1407Y441D02*
X1414Y441D01*
X0Y440D02*
X7Y440D01*
X114Y440D02*
X120Y440D01*
X161Y440D02*
X167Y440D01*
X1407Y440D02*
X1414Y440D01*
X0Y439D02*
X7Y439D01*
X114Y439D02*
X120Y439D01*
X161Y439D02*
X167Y439D01*
X1407Y439D02*
X1414Y439D01*
X0Y438D02*
X7Y438D01*
X114Y438D02*
X121Y438D01*
X161Y438D02*
X167Y438D01*
X1407Y438D02*
X1414Y438D01*
X0Y437D02*
X7Y437D01*
X114Y437D02*
X167Y437D01*
X1407Y437D02*
X1414Y437D01*
X0Y436D02*
X7Y436D01*
X114Y436D02*
X167Y436D01*
X1407Y436D02*
X1414Y436D01*
X0Y435D02*
X7Y435D01*
X114Y435D02*
X167Y435D01*
X1407Y435D02*
X1414Y435D01*
X0Y434D02*
X7Y434D01*
X114Y434D02*
X167Y434D01*
X1407Y434D02*
X1414Y434D01*
X0Y433D02*
X7Y433D01*
X114Y433D02*
X167Y433D01*
X1407Y433D02*
X1414Y433D01*
X0Y432D02*
X7Y432D01*
X114Y432D02*
X167Y432D01*
X1407Y432D02*
X1414Y432D01*
X0Y431D02*
X7Y431D01*
X114Y431D02*
X167Y431D01*
X1407Y431D02*
X1414Y431D01*
X0Y430D02*
X7Y430D01*
X114Y430D02*
X120Y430D01*
X161Y430D02*
X167Y430D01*
X1407Y430D02*
X1414Y430D01*
X0Y429D02*
X7Y429D01*
X114Y429D02*
X120Y429D01*
X161Y429D02*
X167Y429D01*
X1407Y429D02*
X1414Y429D01*
X0Y428D02*
X7Y428D01*
X114Y428D02*
X120Y428D01*
X161Y428D02*
X167Y428D01*
X1407Y428D02*
X1414Y428D01*
X0Y427D02*
X7Y427D01*
X114Y427D02*
X121Y427D01*
X161Y427D02*
X167Y427D01*
X1407Y427D02*
X1414Y427D01*
X0Y426D02*
X7Y426D01*
X115Y426D02*
X121Y426D01*
X161Y426D02*
X167Y426D01*
X1407Y426D02*
X1414Y426D01*
X0Y425D02*
X7Y425D01*
X115Y425D02*
X123Y425D01*
X159Y425D02*
X167Y425D01*
X1407Y425D02*
X1414Y425D01*
X0Y424D02*
X7Y424D01*
X115Y424D02*
X125Y424D01*
X157Y424D02*
X166Y424D01*
X1407Y424D02*
X1414Y424D01*
X0Y423D02*
X7Y423D01*
X116Y423D02*
X127Y423D01*
X155Y423D02*
X166Y423D01*
X1407Y423D02*
X1414Y423D01*
X0Y422D02*
X7Y422D01*
X116Y422D02*
X129Y422D01*
X153Y422D02*
X165Y422D01*
X1407Y422D02*
X1414Y422D01*
X0Y421D02*
X7Y421D01*
X117Y421D02*
X131Y421D01*
X151Y421D02*
X164Y421D01*
X1407Y421D02*
X1414Y421D01*
X0Y420D02*
X7Y420D01*
X118Y420D02*
X133Y420D01*
X149Y420D02*
X163Y420D01*
X1407Y420D02*
X1414Y420D01*
X0Y419D02*
X7Y419D01*
X120Y419D02*
X135Y419D01*
X147Y419D02*
X162Y419D01*
X1407Y419D02*
X1414Y419D01*
X0Y418D02*
X7Y418D01*
X122Y418D02*
X137Y418D01*
X145Y418D02*
X160Y418D01*
X1407Y418D02*
X1414Y418D01*
X0Y417D02*
X7Y417D01*
X124Y417D02*
X158Y417D01*
X1407Y417D02*
X1414Y417D01*
X0Y416D02*
X7Y416D01*
X126Y416D02*
X156Y416D01*
X1407Y416D02*
X1414Y416D01*
X0Y415D02*
X7Y415D01*
X128Y415D02*
X154Y415D01*
X1407Y415D02*
X1414Y415D01*
X0Y414D02*
X7Y414D01*
X130Y414D02*
X152Y414D01*
X1407Y414D02*
X1414Y414D01*
X0Y413D02*
X7Y413D01*
X132Y413D02*
X150Y413D01*
X1407Y413D02*
X1414Y413D01*
X0Y412D02*
X7Y412D01*
X134Y412D02*
X148Y412D01*
X1407Y412D02*
X1414Y412D01*
X0Y411D02*
X7Y411D01*
X137Y411D02*
X145Y411D01*
X1407Y411D02*
X1414Y411D01*
X0Y410D02*
X7Y410D01*
X1407Y410D02*
X1414Y410D01*
X0Y409D02*
X7Y409D01*
X1407Y409D02*
X1414Y409D01*
X0Y408D02*
X7Y408D01*
X1407Y408D02*
X1414Y408D01*
X0Y407D02*
X7Y407D01*
X1407Y407D02*
X1414Y407D01*
X0Y406D02*
X7Y406D01*
X1407Y406D02*
X1414Y406D01*
X0Y405D02*
X7Y405D01*
X1407Y405D02*
X1414Y405D01*
X0Y404D02*
X7Y404D01*
X1407Y404D02*
X1414Y404D01*
X0Y403D02*
X7Y403D01*
X1407Y403D02*
X1414Y403D01*
X0Y402D02*
X7Y402D01*
X1407Y402D02*
X1414Y402D01*
X0Y401D02*
X7Y401D01*
X1407Y401D02*
X1414Y401D01*
X0Y400D02*
X7Y400D01*
X1407Y400D02*
X1414Y400D01*
X0Y399D02*
X7Y399D01*
X1407Y399D02*
X1414Y399D01*
X0Y398D02*
X7Y398D01*
X1407Y398D02*
X1414Y398D01*
X0Y397D02*
X7Y397D01*
X1407Y397D02*
X1414Y397D01*
X0Y396D02*
X7Y396D01*
X1407Y396D02*
X1414Y396D01*
X0Y395D02*
X7Y395D01*
X1407Y395D02*
X1414Y395D01*
X0Y394D02*
X7Y394D01*
X114Y394D02*
X167Y394D01*
X1407Y394D02*
X1414Y394D01*
X0Y393D02*
X7Y393D01*
X114Y393D02*
X167Y393D01*
X1407Y393D02*
X1414Y393D01*
X0Y392D02*
X7Y392D01*
X114Y392D02*
X167Y392D01*
X1407Y392D02*
X1414Y392D01*
X0Y391D02*
X7Y391D01*
X114Y391D02*
X167Y391D01*
X1407Y391D02*
X1414Y391D01*
X0Y390D02*
X7Y390D01*
X114Y390D02*
X167Y390D01*
X1407Y390D02*
X1414Y390D01*
X0Y389D02*
X7Y389D01*
X114Y389D02*
X167Y389D01*
X1407Y389D02*
X1414Y389D01*
X0Y388D02*
X7Y388D01*
X114Y388D02*
X167Y388D01*
X1407Y388D02*
X1414Y388D01*
X0Y387D02*
X7Y387D01*
X114Y387D02*
X120Y387D01*
X138Y387D02*
X144Y387D01*
X161Y387D02*
X167Y387D01*
X1407Y387D02*
X1414Y387D01*
X0Y386D02*
X7Y386D01*
X114Y386D02*
X120Y386D01*
X138Y386D02*
X144Y386D01*
X161Y386D02*
X167Y386D01*
X1407Y386D02*
X1414Y386D01*
X0Y385D02*
X7Y385D01*
X114Y385D02*
X120Y385D01*
X138Y385D02*
X144Y385D01*
X161Y385D02*
X167Y385D01*
X1407Y385D02*
X1414Y385D01*
X0Y384D02*
X7Y384D01*
X114Y384D02*
X120Y384D01*
X138Y384D02*
X144Y384D01*
X161Y384D02*
X167Y384D01*
X1407Y384D02*
X1414Y384D01*
X0Y383D02*
X7Y383D01*
X114Y383D02*
X120Y383D01*
X138Y383D02*
X144Y383D01*
X161Y383D02*
X167Y383D01*
X1407Y383D02*
X1414Y383D01*
X0Y382D02*
X7Y382D01*
X114Y382D02*
X120Y382D01*
X138Y382D02*
X144Y382D01*
X161Y382D02*
X167Y382D01*
X1407Y382D02*
X1414Y382D01*
X0Y381D02*
X7Y381D01*
X114Y381D02*
X120Y381D01*
X138Y381D02*
X144Y381D01*
X161Y381D02*
X167Y381D01*
X1016Y381D02*
X1017Y381D01*
X1063Y381D02*
X1065Y381D01*
X1407Y381D02*
X1414Y381D01*
X0Y380D02*
X7Y380D01*
X114Y380D02*
X120Y380D01*
X138Y380D02*
X144Y380D01*
X161Y380D02*
X167Y380D01*
X1015Y380D02*
X1019Y380D01*
X1062Y380D02*
X1066Y380D01*
X1407Y380D02*
X1414Y380D01*
X0Y379D02*
X7Y379D01*
X114Y379D02*
X120Y379D01*
X138Y379D02*
X144Y379D01*
X161Y379D02*
X167Y379D01*
X1014Y379D02*
X1020Y379D01*
X1061Y379D02*
X1067Y379D01*
X1407Y379D02*
X1414Y379D01*
X0Y378D02*
X7Y378D01*
X114Y378D02*
X120Y378D01*
X138Y378D02*
X144Y378D01*
X161Y378D02*
X167Y378D01*
X447Y378D02*
X464Y378D01*
X1014Y378D02*
X1020Y378D01*
X1061Y378D02*
X1067Y378D01*
X1407Y378D02*
X1414Y378D01*
X0Y377D02*
X7Y377D01*
X114Y377D02*
X120Y377D01*
X138Y377D02*
X144Y377D01*
X161Y377D02*
X167Y377D01*
X445Y377D02*
X466Y377D01*
X716Y377D02*
X765Y377D01*
X1014Y377D02*
X1020Y377D01*
X1061Y377D02*
X1067Y377D01*
X1407Y377D02*
X1414Y377D01*
X0Y376D02*
X7Y376D01*
X114Y376D02*
X120Y376D01*
X138Y376D02*
X144Y376D01*
X161Y376D02*
X167Y376D01*
X444Y376D02*
X467Y376D01*
X715Y376D02*
X766Y376D01*
X1014Y376D02*
X1020Y376D01*
X1061Y376D02*
X1067Y376D01*
X1407Y376D02*
X1414Y376D01*
X0Y375D02*
X7Y375D01*
X114Y375D02*
X120Y375D01*
X139Y375D02*
X143Y375D01*
X161Y375D02*
X167Y375D01*
X444Y375D02*
X467Y375D01*
X714Y375D02*
X767Y375D01*
X1014Y375D02*
X1020Y375D01*
X1061Y375D02*
X1067Y375D01*
X1407Y375D02*
X1414Y375D01*
X0Y374D02*
X7Y374D01*
X114Y374D02*
X120Y374D01*
X140Y374D02*
X142Y374D01*
X161Y374D02*
X167Y374D01*
X444Y374D02*
X467Y374D01*
X714Y374D02*
X767Y374D01*
X1014Y374D02*
X1020Y374D01*
X1039Y374D02*
X1041Y374D01*
X1061Y374D02*
X1067Y374D01*
X1407Y374D02*
X1414Y374D01*
X0Y373D02*
X7Y373D01*
X114Y373D02*
X120Y373D01*
X161Y373D02*
X167Y373D01*
X444Y373D02*
X467Y373D01*
X714Y373D02*
X767Y373D01*
X1014Y373D02*
X1020Y373D01*
X1038Y373D02*
X1043Y373D01*
X1061Y373D02*
X1067Y373D01*
X1407Y373D02*
X1414Y373D01*
X0Y372D02*
X7Y372D01*
X114Y372D02*
X120Y372D01*
X161Y372D02*
X167Y372D01*
X444Y372D02*
X467Y372D01*
X714Y372D02*
X767Y372D01*
X1014Y372D02*
X1020Y372D01*
X1038Y372D02*
X1043Y372D01*
X1061Y372D02*
X1067Y372D01*
X1407Y372D02*
X1414Y372D01*
X0Y371D02*
X7Y371D01*
X114Y371D02*
X120Y371D01*
X161Y371D02*
X167Y371D01*
X444Y371D02*
X450Y371D01*
X461Y371D02*
X467Y371D01*
X714Y371D02*
X767Y371D01*
X1014Y371D02*
X1020Y371D01*
X1037Y371D02*
X1043Y371D01*
X1061Y371D02*
X1067Y371D01*
X1407Y371D02*
X1414Y371D01*
X0Y370D02*
X7Y370D01*
X114Y370D02*
X120Y370D01*
X161Y370D02*
X167Y370D01*
X444Y370D02*
X450Y370D01*
X461Y370D02*
X467Y370D01*
X714Y370D02*
X720Y370D01*
X732Y370D02*
X738Y370D01*
X761Y370D02*
X767Y370D01*
X1014Y370D02*
X1020Y370D01*
X1037Y370D02*
X1043Y370D01*
X1061Y370D02*
X1067Y370D01*
X1407Y370D02*
X1414Y370D01*
X0Y369D02*
X7Y369D01*
X114Y369D02*
X120Y369D01*
X161Y369D02*
X167Y369D01*
X444Y369D02*
X450Y369D01*
X461Y369D02*
X467Y369D01*
X714Y369D02*
X720Y369D01*
X732Y369D02*
X738Y369D01*
X762Y369D02*
X767Y369D01*
X1014Y369D02*
X1020Y369D01*
X1037Y369D02*
X1043Y369D01*
X1061Y369D02*
X1067Y369D01*
X1407Y369D02*
X1414Y369D01*
X0Y368D02*
X7Y368D01*
X114Y368D02*
X120Y368D01*
X161Y368D02*
X167Y368D01*
X444Y368D02*
X450Y368D01*
X461Y368D02*
X467Y368D01*
X714Y368D02*
X720Y368D01*
X732Y368D02*
X738Y368D01*
X762Y368D02*
X766Y368D01*
X1014Y368D02*
X1020Y368D01*
X1037Y368D02*
X1043Y368D01*
X1061Y368D02*
X1067Y368D01*
X1407Y368D02*
X1414Y368D01*
X0Y367D02*
X7Y367D01*
X114Y367D02*
X120Y367D01*
X161Y367D02*
X167Y367D01*
X444Y367D02*
X450Y367D01*
X461Y367D02*
X467Y367D01*
X714Y367D02*
X720Y367D01*
X732Y367D02*
X738Y367D01*
X1014Y367D02*
X1020Y367D01*
X1037Y367D02*
X1043Y367D01*
X1061Y367D02*
X1067Y367D01*
X1407Y367D02*
X1414Y367D01*
X0Y366D02*
X7Y366D01*
X114Y366D02*
X120Y366D01*
X161Y366D02*
X167Y366D01*
X444Y366D02*
X450Y366D01*
X461Y366D02*
X467Y366D01*
X714Y366D02*
X720Y366D01*
X732Y366D02*
X738Y366D01*
X1014Y366D02*
X1020Y366D01*
X1037Y366D02*
X1043Y366D01*
X1061Y366D02*
X1067Y366D01*
X1407Y366D02*
X1414Y366D01*
X0Y365D02*
X7Y365D01*
X114Y365D02*
X120Y365D01*
X161Y365D02*
X167Y365D01*
X444Y365D02*
X450Y365D01*
X461Y365D02*
X467Y365D01*
X714Y365D02*
X720Y365D01*
X732Y365D02*
X738Y365D01*
X1014Y365D02*
X1020Y365D01*
X1037Y365D02*
X1043Y365D01*
X1061Y365D02*
X1067Y365D01*
X1407Y365D02*
X1414Y365D01*
X0Y364D02*
X7Y364D01*
X114Y364D02*
X120Y364D01*
X161Y364D02*
X167Y364D01*
X444Y364D02*
X450Y364D01*
X461Y364D02*
X467Y364D01*
X714Y364D02*
X720Y364D01*
X732Y364D02*
X738Y364D01*
X1014Y364D02*
X1020Y364D01*
X1037Y364D02*
X1043Y364D01*
X1061Y364D02*
X1067Y364D01*
X1407Y364D02*
X1414Y364D01*
X0Y363D02*
X7Y363D01*
X114Y363D02*
X120Y363D01*
X162Y363D02*
X167Y363D01*
X444Y363D02*
X450Y363D01*
X461Y363D02*
X467Y363D01*
X714Y363D02*
X720Y363D01*
X732Y363D02*
X738Y363D01*
X1014Y363D02*
X1020Y363D01*
X1037Y363D02*
X1043Y363D01*
X1061Y363D02*
X1067Y363D01*
X1407Y363D02*
X1414Y363D01*
X0Y362D02*
X7Y362D01*
X115Y362D02*
X120Y362D01*
X162Y362D02*
X167Y362D01*
X444Y362D02*
X450Y362D01*
X461Y362D02*
X467Y362D01*
X714Y362D02*
X720Y362D01*
X732Y362D02*
X738Y362D01*
X1014Y362D02*
X1020Y362D01*
X1037Y362D02*
X1043Y362D01*
X1061Y362D02*
X1067Y362D01*
X1407Y362D02*
X1414Y362D01*
X0Y361D02*
X7Y361D01*
X115Y361D02*
X119Y361D01*
X163Y361D02*
X166Y361D01*
X444Y361D02*
X450Y361D01*
X461Y361D02*
X467Y361D01*
X714Y361D02*
X720Y361D01*
X732Y361D02*
X738Y361D01*
X1014Y361D02*
X1020Y361D01*
X1037Y361D02*
X1043Y361D01*
X1061Y361D02*
X1067Y361D01*
X1407Y361D02*
X1414Y361D01*
X0Y360D02*
X7Y360D01*
X117Y360D02*
X117Y360D01*
X444Y360D02*
X450Y360D01*
X461Y360D02*
X467Y360D01*
X714Y360D02*
X720Y360D01*
X732Y360D02*
X738Y360D01*
X1014Y360D02*
X1020Y360D01*
X1037Y360D02*
X1043Y360D01*
X1061Y360D02*
X1067Y360D01*
X1407Y360D02*
X1414Y360D01*
X0Y359D02*
X7Y359D01*
X444Y359D02*
X450Y359D01*
X461Y359D02*
X467Y359D01*
X714Y359D02*
X720Y359D01*
X732Y359D02*
X738Y359D01*
X1014Y359D02*
X1020Y359D01*
X1037Y359D02*
X1043Y359D01*
X1061Y359D02*
X1067Y359D01*
X1407Y359D02*
X1414Y359D01*
X0Y358D02*
X7Y358D01*
X444Y358D02*
X450Y358D01*
X461Y358D02*
X467Y358D01*
X714Y358D02*
X720Y358D01*
X732Y358D02*
X738Y358D01*
X1014Y358D02*
X1020Y358D01*
X1037Y358D02*
X1043Y358D01*
X1061Y358D02*
X1067Y358D01*
X1407Y358D02*
X1414Y358D01*
X0Y357D02*
X7Y357D01*
X444Y357D02*
X450Y357D01*
X461Y357D02*
X467Y357D01*
X714Y357D02*
X720Y357D01*
X732Y357D02*
X738Y357D01*
X1014Y357D02*
X1020Y357D01*
X1037Y357D02*
X1043Y357D01*
X1061Y357D02*
X1067Y357D01*
X1407Y357D02*
X1414Y357D01*
X0Y356D02*
X7Y356D01*
X444Y356D02*
X450Y356D01*
X461Y356D02*
X467Y356D01*
X714Y356D02*
X720Y356D01*
X732Y356D02*
X738Y356D01*
X1014Y356D02*
X1020Y356D01*
X1037Y356D02*
X1044Y356D01*
X1061Y356D02*
X1067Y356D01*
X1407Y356D02*
X1414Y356D01*
X0Y355D02*
X7Y355D01*
X444Y355D02*
X450Y355D01*
X461Y355D02*
X467Y355D01*
X714Y355D02*
X720Y355D01*
X732Y355D02*
X738Y355D01*
X1014Y355D02*
X1020Y355D01*
X1036Y355D02*
X1044Y355D01*
X1061Y355D02*
X1067Y355D01*
X1407Y355D02*
X1414Y355D01*
X0Y354D02*
X7Y354D01*
X444Y354D02*
X450Y354D01*
X461Y354D02*
X467Y354D01*
X714Y354D02*
X720Y354D01*
X732Y354D02*
X738Y354D01*
X1014Y354D02*
X1020Y354D01*
X1035Y354D02*
X1046Y354D01*
X1061Y354D02*
X1067Y354D01*
X1407Y354D02*
X1414Y354D01*
X0Y353D02*
X7Y353D01*
X415Y353D02*
X419Y353D01*
X444Y353D02*
X450Y353D01*
X461Y353D02*
X467Y353D01*
X714Y353D02*
X720Y353D01*
X732Y353D02*
X738Y353D01*
X1014Y353D02*
X1067Y353D01*
X1407Y353D02*
X1414Y353D01*
X0Y352D02*
X7Y352D01*
X415Y352D02*
X420Y352D01*
X444Y352D02*
X450Y352D01*
X461Y352D02*
X467Y352D01*
X714Y352D02*
X720Y352D01*
X732Y352D02*
X738Y352D01*
X1014Y352D02*
X1067Y352D01*
X1407Y352D02*
X1414Y352D01*
X0Y351D02*
X7Y351D01*
X414Y351D02*
X420Y351D01*
X444Y351D02*
X450Y351D01*
X461Y351D02*
X467Y351D01*
X714Y351D02*
X720Y351D01*
X732Y351D02*
X738Y351D01*
X1014Y351D02*
X1066Y351D01*
X1407Y351D02*
X1414Y351D01*
X0Y350D02*
X7Y350D01*
X414Y350D02*
X467Y350D01*
X714Y350D02*
X720Y350D01*
X731Y350D02*
X738Y350D01*
X1015Y350D02*
X1066Y350D01*
X1407Y350D02*
X1414Y350D01*
X0Y349D02*
X7Y349D01*
X414Y349D02*
X467Y349D01*
X714Y349D02*
X738Y349D01*
X1016Y349D02*
X1039Y349D01*
X1041Y349D02*
X1065Y349D01*
X1407Y349D02*
X1414Y349D01*
X0Y348D02*
X7Y348D01*
X414Y348D02*
X467Y348D01*
X714Y348D02*
X738Y348D01*
X1017Y348D02*
X1038Y348D01*
X1043Y348D02*
X1064Y348D01*
X1407Y348D02*
X1414Y348D01*
X0Y347D02*
X7Y347D01*
X414Y347D02*
X467Y347D01*
X714Y347D02*
X738Y347D01*
X1019Y347D02*
X1035Y347D01*
X1045Y347D02*
X1062Y347D01*
X1407Y347D02*
X1414Y347D01*
X0Y346D02*
X7Y346D01*
X414Y346D02*
X467Y346D01*
X714Y346D02*
X738Y346D01*
X1407Y346D02*
X1414Y346D01*
X0Y345D02*
X7Y345D01*
X415Y345D02*
X467Y345D01*
X714Y345D02*
X737Y345D01*
X1407Y345D02*
X1414Y345D01*
X0Y344D02*
X7Y344D01*
X114Y344D02*
X165Y344D01*
X416Y344D02*
X465Y344D01*
X715Y344D02*
X737Y344D01*
X1407Y344D02*
X1414Y344D01*
X0Y343D02*
X7Y343D01*
X114Y343D02*
X167Y343D01*
X717Y343D02*
X734Y343D01*
X1407Y343D02*
X1414Y343D01*
X0Y342D02*
X7Y342D01*
X114Y342D02*
X167Y342D01*
X1407Y342D02*
X1414Y342D01*
X0Y341D02*
X7Y341D01*
X114Y341D02*
X167Y341D01*
X1407Y341D02*
X1414Y341D01*
X0Y340D02*
X7Y340D01*
X114Y340D02*
X167Y340D01*
X1407Y340D02*
X1414Y340D01*
X0Y339D02*
X7Y339D01*
X114Y339D02*
X167Y339D01*
X1407Y339D02*
X1414Y339D01*
X0Y338D02*
X7Y338D01*
X114Y338D02*
X166Y338D01*
X1407Y338D02*
X1414Y338D01*
X0Y337D02*
X7Y337D01*
X114Y337D02*
X120Y337D01*
X1407Y337D02*
X1414Y337D01*
X0Y336D02*
X7Y336D01*
X114Y336D02*
X120Y336D01*
X1407Y336D02*
X1414Y336D01*
X0Y335D02*
X7Y335D01*
X114Y335D02*
X120Y335D01*
X1407Y335D02*
X1414Y335D01*
X0Y334D02*
X7Y334D01*
X114Y334D02*
X120Y334D01*
X1407Y334D02*
X1414Y334D01*
X0Y333D02*
X7Y333D01*
X114Y333D02*
X120Y333D01*
X1407Y333D02*
X1414Y333D01*
X0Y332D02*
X7Y332D01*
X114Y332D02*
X120Y332D01*
X1407Y332D02*
X1414Y332D01*
X0Y331D02*
X7Y331D01*
X114Y331D02*
X120Y331D01*
X1407Y331D02*
X1414Y331D01*
X0Y330D02*
X7Y330D01*
X114Y330D02*
X120Y330D01*
X1407Y330D02*
X1414Y330D01*
X0Y329D02*
X7Y329D01*
X114Y329D02*
X120Y329D01*
X1407Y329D02*
X1414Y329D01*
X0Y328D02*
X7Y328D01*
X114Y328D02*
X120Y328D01*
X1407Y328D02*
X1414Y328D01*
X0Y327D02*
X7Y327D01*
X114Y327D02*
X120Y327D01*
X1407Y327D02*
X1414Y327D01*
X0Y326D02*
X7Y326D01*
X114Y326D02*
X120Y326D01*
X1407Y326D02*
X1414Y326D01*
X0Y325D02*
X7Y325D01*
X114Y325D02*
X120Y325D01*
X1407Y325D02*
X1414Y325D01*
X0Y324D02*
X7Y324D01*
X114Y324D02*
X120Y324D01*
X1407Y324D02*
X1414Y324D01*
X0Y323D02*
X7Y323D01*
X114Y323D02*
X120Y323D01*
X1407Y323D02*
X1414Y323D01*
X0Y322D02*
X7Y322D01*
X114Y322D02*
X120Y322D01*
X1407Y322D02*
X1414Y322D01*
X0Y321D02*
X6Y321D01*
X114Y321D02*
X120Y321D01*
X1407Y321D02*
X1414Y321D01*
X0Y320D02*
X6Y320D01*
X114Y320D02*
X120Y320D01*
X1407Y320D02*
X1414Y320D01*
X0Y319D02*
X6Y319D01*
X114Y319D02*
X120Y319D01*
X1407Y319D02*
X1414Y319D01*
X0Y318D02*
X5Y318D01*
X114Y318D02*
X120Y318D01*
X1407Y318D02*
X1414Y318D01*
X0Y317D02*
X5Y317D01*
X114Y317D02*
X120Y317D01*
X1407Y317D02*
X1414Y317D01*
X0Y316D02*
X5Y316D01*
X114Y316D02*
X120Y316D01*
X1407Y316D02*
X1414Y316D01*
X0Y315D02*
X4Y315D01*
X114Y315D02*
X120Y315D01*
X1407Y315D02*
X1414Y315D01*
X0Y314D02*
X4Y314D01*
X114Y314D02*
X120Y314D01*
X1407Y314D02*
X1414Y314D01*
X0Y313D02*
X4Y313D01*
X114Y313D02*
X120Y313D01*
X1407Y313D02*
X1414Y313D01*
X0Y312D02*
X4Y312D01*
X115Y312D02*
X120Y312D01*
X1407Y312D02*
X1414Y312D01*
X0Y311D02*
X3Y311D01*
X115Y311D02*
X119Y311D01*
X1407Y311D02*
X1414Y311D01*
X0Y310D02*
X3Y310D01*
X117Y310D02*
X118Y310D01*
X1407Y310D02*
X1414Y310D01*
X0Y309D02*
X3Y309D01*
X1407Y309D02*
X1414Y309D01*
X0Y308D02*
X3Y308D01*
X1407Y308D02*
X1414Y308D01*
X0Y307D02*
X3Y307D01*
X1407Y307D02*
X1414Y307D01*
X0Y306D02*
X3Y306D01*
X1407Y306D02*
X1414Y306D01*
X0Y305D02*
X3Y305D01*
X1407Y305D02*
X1414Y305D01*
X0Y304D02*
X3Y304D01*
X1407Y304D02*
X1414Y304D01*
X0Y303D02*
X3Y303D01*
X1407Y303D02*
X1414Y303D01*
X0Y302D02*
X3Y302D01*
X1407Y302D02*
X1414Y302D01*
X0Y301D02*
X3Y301D01*
X1407Y301D02*
X1414Y301D01*
X0Y300D02*
X3Y300D01*
X1407Y300D02*
X1414Y300D01*
X0Y299D02*
X4Y299D01*
X1407Y299D02*
X1414Y299D01*
X0Y298D02*
X4Y298D01*
X1407Y298D02*
X1414Y298D01*
X0Y297D02*
X4Y297D01*
X1407Y297D02*
X1414Y297D01*
X0Y296D02*
X4Y296D01*
X1407Y296D02*
X1414Y296D01*
X0Y295D02*
X5Y295D01*
X1407Y295D02*
X1414Y295D01*
X0Y294D02*
X5Y294D01*
X1407Y294D02*
X1414Y294D01*
X0Y293D02*
X5Y293D01*
X1407Y293D02*
X1414Y293D01*
X0Y292D02*
X6Y292D01*
X1407Y292D02*
X1414Y292D01*
X0Y291D02*
X6Y291D01*
X1407Y291D02*
X1414Y291D01*
X0Y290D02*
X6Y290D01*
X1407Y290D02*
X1414Y290D01*
X0Y289D02*
X7Y289D01*
X1407Y289D02*
X1414Y289D01*
X0Y288D02*
X7Y288D01*
X1407Y288D02*
X1414Y288D01*
X0Y287D02*
X7Y287D01*
X1407Y287D02*
X1414Y287D01*
X0Y286D02*
X7Y286D01*
X1407Y286D02*
X1414Y286D01*
X0Y285D02*
X7Y285D01*
X1407Y285D02*
X1414Y285D01*
X0Y284D02*
X7Y284D01*
X1407Y284D02*
X1414Y284D01*
X0Y283D02*
X7Y283D01*
X1407Y283D02*
X1414Y283D01*
X0Y282D02*
X7Y282D01*
X1407Y282D02*
X1414Y282D01*
X0Y281D02*
X7Y281D01*
X1407Y281D02*
X1414Y281D01*
X0Y280D02*
X7Y280D01*
X1407Y280D02*
X1414Y280D01*
X0Y279D02*
X7Y279D01*
X1407Y279D02*
X1414Y279D01*
X0Y278D02*
X7Y278D01*
X1407Y278D02*
X1414Y278D01*
X0Y277D02*
X7Y277D01*
X1407Y277D02*
X1414Y277D01*
X0Y276D02*
X7Y276D01*
X1407Y276D02*
X1414Y276D01*
X0Y275D02*
X7Y275D01*
X1407Y275D02*
X1414Y275D01*
X0Y274D02*
X7Y274D01*
X1407Y274D02*
X1414Y274D01*
X0Y273D02*
X7Y273D01*
X1407Y273D02*
X1414Y273D01*
X0Y272D02*
X7Y272D01*
X1407Y272D02*
X1414Y272D01*
X0Y271D02*
X7Y271D01*
X1407Y271D02*
X1414Y271D01*
X0Y270D02*
X7Y270D01*
X1407Y270D02*
X1414Y270D01*
X0Y269D02*
X7Y269D01*
X1407Y269D02*
X1414Y269D01*
X0Y268D02*
X7Y268D01*
X1407Y268D02*
X1414Y268D01*
X0Y267D02*
X7Y267D01*
X1407Y267D02*
X1414Y267D01*
X0Y266D02*
X7Y266D01*
X1407Y266D02*
X1414Y266D01*
X0Y265D02*
X7Y265D01*
X1407Y265D02*
X1414Y265D01*
X0Y264D02*
X7Y264D01*
X1407Y264D02*
X1414Y264D01*
X0Y263D02*
X7Y263D01*
X1407Y263D02*
X1414Y263D01*
X0Y262D02*
X7Y262D01*
X1407Y262D02*
X1414Y262D01*
X0Y261D02*
X7Y261D01*
X1407Y261D02*
X1414Y261D01*
X0Y260D02*
X7Y260D01*
X1407Y260D02*
X1414Y260D01*
X0Y259D02*
X7Y259D01*
X1407Y259D02*
X1414Y259D01*
X0Y258D02*
X7Y258D01*
X1407Y258D02*
X1414Y258D01*
X0Y257D02*
X7Y257D01*
X1407Y257D02*
X1414Y257D01*
X0Y256D02*
X7Y256D01*
X1407Y256D02*
X1414Y256D01*
X0Y255D02*
X7Y255D01*
X1407Y255D02*
X1414Y255D01*
X0Y254D02*
X7Y254D01*
X1407Y254D02*
X1414Y254D01*
X0Y253D02*
X7Y253D01*
X1407Y253D02*
X1414Y253D01*
X0Y252D02*
X7Y252D01*
X1407Y252D02*
X1414Y252D01*
X0Y251D02*
X7Y251D01*
X1407Y251D02*
X1414Y251D01*
X0Y250D02*
X7Y250D01*
X1407Y250D02*
X1414Y250D01*
X0Y249D02*
X7Y249D01*
X1407Y249D02*
X1414Y249D01*
X0Y248D02*
X7Y248D01*
X1407Y248D02*
X1414Y248D01*
X0Y247D02*
X7Y247D01*
X1407Y247D02*
X1414Y247D01*
X0Y246D02*
X7Y246D01*
X1407Y246D02*
X1414Y246D01*
X0Y245D02*
X7Y245D01*
X1407Y245D02*
X1414Y245D01*
X0Y244D02*
X7Y244D01*
X1407Y244D02*
X1414Y244D01*
X0Y243D02*
X7Y243D01*
X1407Y243D02*
X1414Y243D01*
X0Y242D02*
X7Y242D01*
X1407Y242D02*
X1414Y242D01*
X0Y241D02*
X7Y241D01*
X1407Y241D02*
X1414Y241D01*
X0Y240D02*
X7Y240D01*
X1407Y240D02*
X1414Y240D01*
X0Y239D02*
X7Y239D01*
X1407Y239D02*
X1414Y239D01*
X0Y238D02*
X7Y238D01*
X1407Y238D02*
X1414Y238D01*
X0Y237D02*
X7Y237D01*
X1407Y237D02*
X1414Y237D01*
X0Y236D02*
X7Y236D01*
X1407Y236D02*
X1414Y236D01*
X0Y235D02*
X7Y235D01*
X1407Y235D02*
X1414Y235D01*
X0Y234D02*
X7Y234D01*
X1407Y234D02*
X1414Y234D01*
X0Y233D02*
X7Y233D01*
X1407Y233D02*
X1414Y233D01*
X0Y232D02*
X7Y232D01*
X1407Y232D02*
X1414Y232D01*
X0Y231D02*
X7Y231D01*
X1407Y231D02*
X1414Y231D01*
X0Y230D02*
X7Y230D01*
X1407Y230D02*
X1414Y230D01*
X0Y229D02*
X7Y229D01*
X1407Y229D02*
X1414Y229D01*
X0Y228D02*
X7Y228D01*
X1407Y228D02*
X1414Y228D01*
X0Y227D02*
X7Y227D01*
X1407Y227D02*
X1414Y227D01*
X0Y226D02*
X7Y226D01*
X1407Y226D02*
X1414Y226D01*
X0Y225D02*
X7Y225D01*
X1407Y225D02*
X1414Y225D01*
X0Y224D02*
X7Y224D01*
X1407Y224D02*
X1414Y224D01*
X0Y223D02*
X7Y223D01*
X1407Y223D02*
X1414Y223D01*
X0Y222D02*
X7Y222D01*
X1407Y222D02*
X1414Y222D01*
X0Y221D02*
X7Y221D01*
X1407Y221D02*
X1414Y221D01*
X0Y220D02*
X7Y220D01*
X1407Y220D02*
X1414Y220D01*
X0Y219D02*
X7Y219D01*
X1407Y219D02*
X1414Y219D01*
X0Y218D02*
X7Y218D01*
X1407Y218D02*
X1414Y218D01*
X0Y217D02*
X7Y217D01*
X1407Y217D02*
X1414Y217D01*
X0Y216D02*
X7Y216D01*
X1407Y216D02*
X1414Y216D01*
X0Y215D02*
X7Y215D01*
X1407Y215D02*
X1414Y215D01*
X0Y214D02*
X7Y214D01*
X1407Y214D02*
X1414Y214D01*
X0Y213D02*
X7Y213D01*
X1407Y213D02*
X1414Y213D01*
X0Y212D02*
X7Y212D01*
X1407Y212D02*
X1414Y212D01*
X0Y211D02*
X7Y211D01*
X1407Y211D02*
X1414Y211D01*
X0Y210D02*
X7Y210D01*
X1407Y210D02*
X1414Y210D01*
X0Y209D02*
X7Y209D01*
X1407Y209D02*
X1414Y209D01*
X0Y208D02*
X7Y208D01*
X1407Y208D02*
X1414Y208D01*
X0Y207D02*
X7Y207D01*
X1407Y207D02*
X1414Y207D01*
X0Y206D02*
X7Y206D01*
X1407Y206D02*
X1414Y206D01*
X0Y205D02*
X7Y205D01*
X1407Y205D02*
X1414Y205D01*
X0Y204D02*
X7Y204D01*
X1407Y204D02*
X1414Y204D01*
X0Y203D02*
X7Y203D01*
X1407Y203D02*
X1414Y203D01*
X0Y202D02*
X7Y202D01*
X1407Y202D02*
X1414Y202D01*
X0Y201D02*
X7Y201D01*
X1407Y201D02*
X1414Y201D01*
X0Y200D02*
X7Y200D01*
X1407Y200D02*
X1414Y200D01*
X0Y199D02*
X7Y199D01*
X1407Y199D02*
X1414Y199D01*
X0Y198D02*
X7Y198D01*
X1407Y198D02*
X1414Y198D01*
X0Y197D02*
X7Y197D01*
X1407Y197D02*
X1414Y197D01*
X0Y196D02*
X7Y196D01*
X1407Y196D02*
X1414Y196D01*
X0Y195D02*
X7Y195D01*
X1407Y195D02*
X1414Y195D01*
X0Y194D02*
X7Y194D01*
X1407Y194D02*
X1414Y194D01*
X0Y193D02*
X7Y193D01*
X1407Y193D02*
X1414Y193D01*
X0Y192D02*
X7Y192D01*
X1407Y192D02*
X1414Y192D01*
X0Y191D02*
X7Y191D01*
X1407Y191D02*
X1414Y191D01*
X0Y190D02*
X7Y190D01*
X1407Y190D02*
X1414Y190D01*
X0Y189D02*
X7Y189D01*
X1407Y189D02*
X1414Y189D01*
X0Y188D02*
X7Y188D01*
X1407Y188D02*
X1414Y188D01*
X0Y187D02*
X7Y187D01*
X1407Y187D02*
X1414Y187D01*
X0Y186D02*
X7Y186D01*
X1407Y186D02*
X1414Y186D01*
X0Y185D02*
X7Y185D01*
X1407Y185D02*
X1414Y185D01*
X0Y184D02*
X7Y184D01*
X1407Y184D02*
X1414Y184D01*
X0Y183D02*
X7Y183D01*
X1407Y183D02*
X1414Y183D01*
X0Y182D02*
X7Y182D01*
X1407Y182D02*
X1414Y182D01*
X0Y181D02*
X7Y181D01*
X1407Y181D02*
X1414Y181D01*
X0Y180D02*
X7Y180D01*
X1407Y180D02*
X1414Y180D01*
X0Y179D02*
X7Y179D01*
X1407Y179D02*
X1414Y179D01*
X0Y178D02*
X7Y178D01*
X1407Y178D02*
X1414Y178D01*
X0Y177D02*
X7Y177D01*
X1407Y177D02*
X1414Y177D01*
X0Y176D02*
X7Y176D01*
X1407Y176D02*
X1414Y176D01*
X0Y175D02*
X7Y175D01*
X1407Y175D02*
X1414Y175D01*
X0Y174D02*
X7Y174D01*
X1407Y174D02*
X1414Y174D01*
X0Y173D02*
X7Y173D01*
X1407Y173D02*
X1414Y173D01*
X0Y172D02*
X7Y172D01*
X1407Y172D02*
X1414Y172D01*
X0Y171D02*
X7Y171D01*
X1407Y171D02*
X1414Y171D01*
X0Y170D02*
X7Y170D01*
X1407Y170D02*
X1414Y170D01*
X0Y169D02*
X7Y169D01*
X1407Y169D02*
X1414Y169D01*
X0Y168D02*
X7Y168D01*
X1407Y168D02*
X1414Y168D01*
X0Y167D02*
X7Y167D01*
X1407Y167D02*
X1414Y167D01*
X0Y166D02*
X7Y166D01*
X1407Y166D02*
X1414Y166D01*
X0Y165D02*
X7Y165D01*
X1407Y165D02*
X1414Y165D01*
X0Y164D02*
X7Y164D01*
X1407Y164D02*
X1414Y164D01*
X0Y163D02*
X7Y163D01*
X1407Y163D02*
X1414Y163D01*
X0Y162D02*
X7Y162D01*
X1407Y162D02*
X1414Y162D01*
X0Y161D02*
X7Y161D01*
X1407Y161D02*
X1414Y161D01*
X0Y160D02*
X7Y160D01*
X1407Y160D02*
X1414Y160D01*
X0Y159D02*
X7Y159D01*
X1407Y159D02*
X1414Y159D01*
X0Y158D02*
X7Y158D01*
X1407Y158D02*
X1414Y158D01*
X0Y157D02*
X7Y157D01*
X1407Y157D02*
X1414Y157D01*
X0Y156D02*
X7Y156D01*
X1407Y156D02*
X1414Y156D01*
X0Y155D02*
X7Y155D01*
X1407Y155D02*
X1414Y155D01*
X0Y154D02*
X7Y154D01*
X1407Y154D02*
X1414Y154D01*
X0Y153D02*
X7Y153D01*
X1407Y153D02*
X1414Y153D01*
X0Y152D02*
X7Y152D01*
X1407Y152D02*
X1414Y152D01*
X0Y151D02*
X7Y151D01*
X1407Y151D02*
X1414Y151D01*
X0Y150D02*
X7Y150D01*
X1407Y150D02*
X1414Y150D01*
X0Y149D02*
X7Y149D01*
X1407Y149D02*
X1414Y149D01*
X0Y148D02*
X7Y148D01*
X1407Y148D02*
X1414Y148D01*
X0Y147D02*
X7Y147D01*
X1407Y147D02*
X1414Y147D01*
X0Y146D02*
X7Y146D01*
X1407Y146D02*
X1414Y146D01*
X0Y145D02*
X7Y145D01*
X1407Y145D02*
X1414Y145D01*
X0Y144D02*
X7Y144D01*
X1407Y144D02*
X1414Y144D01*
X0Y143D02*
X7Y143D01*
X1407Y143D02*
X1414Y143D01*
X0Y142D02*
X7Y142D01*
X1407Y142D02*
X1414Y142D01*
X0Y141D02*
X7Y141D01*
X1407Y141D02*
X1414Y141D01*
X0Y140D02*
X7Y140D01*
X1407Y140D02*
X1414Y140D01*
X0Y139D02*
X7Y139D01*
X1407Y139D02*
X1414Y139D01*
X0Y138D02*
X7Y138D01*
X1407Y138D02*
X1414Y138D01*
X0Y137D02*
X7Y137D01*
X1407Y137D02*
X1414Y137D01*
X0Y136D02*
X7Y136D01*
X1407Y136D02*
X1414Y136D01*
X0Y135D02*
X7Y135D01*
X1407Y135D02*
X1414Y135D01*
X0Y134D02*
X7Y134D01*
X1407Y134D02*
X1414Y134D01*
X0Y133D02*
X7Y133D01*
X1407Y133D02*
X1414Y133D01*
X0Y132D02*
X7Y132D01*
X1407Y132D02*
X1414Y132D01*
X0Y131D02*
X7Y131D01*
X1407Y131D02*
X1414Y131D01*
X0Y130D02*
X7Y130D01*
X1407Y130D02*
X1414Y130D01*
X0Y129D02*
X7Y129D01*
X1407Y129D02*
X1414Y129D01*
X0Y128D02*
X7Y128D01*
X1407Y128D02*
X1414Y128D01*
X0Y127D02*
X7Y127D01*
X1407Y127D02*
X1414Y127D01*
X0Y126D02*
X7Y126D01*
X1407Y126D02*
X1414Y126D01*
X0Y125D02*
X7Y125D01*
X1407Y125D02*
X1414Y125D01*
X0Y124D02*
X7Y124D01*
X1407Y124D02*
X1414Y124D01*
X0Y123D02*
X7Y123D01*
X1407Y123D02*
X1414Y123D01*
X0Y122D02*
X7Y122D01*
X1407Y122D02*
X1414Y122D01*
X0Y121D02*
X7Y121D01*
X1407Y121D02*
X1414Y121D01*
X0Y120D02*
X7Y120D01*
X1407Y120D02*
X1414Y120D01*
X0Y119D02*
X7Y119D01*
X1407Y119D02*
X1414Y119D01*
X0Y118D02*
X7Y118D01*
X1407Y118D02*
X1414Y118D01*
X0Y117D02*
X7Y117D01*
X1407Y117D02*
X1414Y117D01*
X0Y116D02*
X7Y116D01*
X1407Y116D02*
X1414Y116D01*
X0Y115D02*
X7Y115D01*
X1407Y115D02*
X1414Y115D01*
X0Y114D02*
X7Y114D01*
X1407Y114D02*
X1414Y114D01*
X0Y113D02*
X7Y113D01*
X1407Y113D02*
X1414Y113D01*
X0Y112D02*
X7Y112D01*
X1407Y112D02*
X1414Y112D01*
X0Y111D02*
X7Y111D01*
X1407Y111D02*
X1414Y111D01*
X0Y110D02*
X7Y110D01*
X1407Y110D02*
X1414Y110D01*
X0Y109D02*
X7Y109D01*
X1407Y109D02*
X1414Y109D01*
X0Y108D02*
X7Y108D01*
X1407Y108D02*
X1414Y108D01*
X0Y107D02*
X7Y107D01*
X1407Y107D02*
X1414Y107D01*
X0Y106D02*
X7Y106D01*
X1407Y106D02*
X1414Y106D01*
X0Y105D02*
X7Y105D01*
X1407Y105D02*
X1414Y105D01*
X0Y104D02*
X7Y104D01*
X1407Y104D02*
X1414Y104D01*
X0Y103D02*
X7Y103D01*
X1407Y103D02*
X1414Y103D01*
X0Y102D02*
X7Y102D01*
X1407Y102D02*
X1414Y102D01*
X0Y101D02*
X7Y101D01*
X1407Y101D02*
X1414Y101D01*
X0Y100D02*
X7Y100D01*
X1407Y100D02*
X1414Y100D01*
X0Y99D02*
X7Y99D01*
X1407Y99D02*
X1414Y99D01*
X0Y98D02*
X7Y98D01*
X1407Y98D02*
X1414Y98D01*
X0Y97D02*
X7Y97D01*
X1407Y97D02*
X1414Y97D01*
X0Y96D02*
X7Y96D01*
X1407Y96D02*
X1414Y96D01*
X0Y95D02*
X7Y95D01*
X1407Y95D02*
X1414Y95D01*
X0Y94D02*
X7Y94D01*
X1407Y94D02*
X1414Y94D01*
X0Y93D02*
X7Y93D01*
X1407Y93D02*
X1414Y93D01*
X0Y92D02*
X7Y92D01*
X1407Y92D02*
X1414Y92D01*
X0Y91D02*
X7Y91D01*
X1407Y91D02*
X1414Y91D01*
X0Y90D02*
X7Y90D01*
X1407Y90D02*
X1414Y90D01*
X0Y89D02*
X7Y89D01*
X1407Y89D02*
X1414Y89D01*
X0Y88D02*
X7Y88D01*
X1407Y88D02*
X1414Y88D01*
X0Y87D02*
X7Y87D01*
X1407Y87D02*
X1414Y87D01*
X0Y86D02*
X7Y86D01*
X1407Y86D02*
X1414Y86D01*
X0Y85D02*
X7Y85D01*
X1407Y85D02*
X1414Y85D01*
X0Y84D02*
X7Y84D01*
X1407Y84D02*
X1414Y84D01*
X0Y83D02*
X7Y83D01*
X1407Y83D02*
X1414Y83D01*
X0Y82D02*
X7Y82D01*
X1407Y82D02*
X1414Y82D01*
X0Y81D02*
X7Y81D01*
X1407Y81D02*
X1414Y81D01*
X0Y80D02*
X7Y80D01*
X1407Y80D02*
X1414Y80D01*
X0Y79D02*
X7Y79D01*
X1407Y79D02*
X1414Y79D01*
X0Y78D02*
X7Y78D01*
X1407Y78D02*
X1414Y78D01*
X0Y77D02*
X7Y77D01*
X1407Y77D02*
X1414Y77D01*
X0Y76D02*
X7Y76D01*
X1407Y76D02*
X1414Y76D01*
X0Y75D02*
X7Y75D01*
X1407Y75D02*
X1414Y75D01*
X0Y74D02*
X7Y74D01*
X1407Y74D02*
X1414Y74D01*
X0Y73D02*
X7Y73D01*
X1407Y73D02*
X1414Y73D01*
X0Y72D02*
X7Y72D01*
X1407Y72D02*
X1414Y72D01*
X0Y71D02*
X7Y71D01*
X1407Y71D02*
X1414Y71D01*
X0Y70D02*
X7Y70D01*
X1407Y70D02*
X1414Y70D01*
X0Y69D02*
X7Y69D01*
X1407Y69D02*
X1414Y69D01*
X0Y68D02*
X7Y68D01*
X1407Y68D02*
X1414Y68D01*
X0Y67D02*
X7Y67D01*
X1407Y67D02*
X1414Y67D01*
X0Y66D02*
X7Y66D01*
X1407Y66D02*
X1414Y66D01*
X0Y65D02*
X6Y65D01*
X1407Y65D02*
X1414Y65D01*
X0Y64D02*
X6Y64D01*
X1407Y64D02*
X1414Y64D01*
X0Y63D02*
X6Y63D01*
X1407Y63D02*
X1414Y63D01*
X0Y62D02*
X5Y62D01*
X1407Y62D02*
X1414Y62D01*
X0Y61D02*
X5Y61D01*
X1407Y61D02*
X1414Y61D01*
X0Y60D02*
X5Y60D01*
X1407Y60D02*
X1414Y60D01*
X0Y59D02*
X4Y59D01*
X1407Y59D02*
X1414Y59D01*
X0Y58D02*
X4Y58D01*
X1407Y58D02*
X1414Y58D01*
X0Y57D02*
X4Y57D01*
X1407Y57D02*
X1414Y57D01*
X0Y56D02*
X4Y56D01*
X1407Y56D02*
X1414Y56D01*
X0Y55D02*
X3Y55D01*
X1407Y55D02*
X1414Y55D01*
X0Y54D02*
X3Y54D01*
X1407Y54D02*
X1414Y54D01*
X0Y53D02*
X3Y53D01*
X1407Y53D02*
X1414Y53D01*
X0Y52D02*
X3Y52D01*
X1407Y52D02*
X1414Y52D01*
X0Y51D02*
X3Y51D01*
X1407Y51D02*
X1414Y51D01*
X0Y50D02*
X3Y50D01*
X1407Y50D02*
X1414Y50D01*
X0Y49D02*
X3Y49D01*
X1407Y49D02*
X1414Y49D01*
X0Y48D02*
X3Y48D01*
X1407Y48D02*
X1414Y48D01*
X0Y47D02*
X3Y47D01*
X1407Y47D02*
X1414Y47D01*
X0Y46D02*
X3Y46D01*
X1407Y46D02*
X1414Y46D01*
X0Y45D02*
X3Y45D01*
X1407Y45D02*
X1414Y45D01*
X0Y44D02*
X3Y44D01*
X1407Y44D02*
X1414Y44D01*
X0Y43D02*
X4Y43D01*
X1407Y43D02*
X1414Y43D01*
X0Y42D02*
X4Y42D01*
X1407Y42D02*
X1414Y42D01*
X0Y41D02*
X4Y41D01*
X1407Y41D02*
X1414Y41D01*
X0Y40D02*
X4Y40D01*
X1407Y40D02*
X1414Y40D01*
X0Y39D02*
X5Y39D01*
X1407Y39D02*
X1414Y39D01*
X0Y38D02*
X5Y38D01*
X1407Y38D02*
X1414Y38D01*
X0Y37D02*
X5Y37D01*
X1407Y37D02*
X1414Y37D01*
X0Y36D02*
X6Y36D01*
X1407Y36D02*
X1414Y36D01*
X0Y35D02*
X6Y35D01*
X1407Y35D02*
X1414Y35D01*
X0Y34D02*
X6Y34D01*
X1407Y34D02*
X1414Y34D01*
X0Y33D02*
X7Y33D01*
X1407Y33D02*
X1414Y33D01*
X0Y32D02*
X7Y32D01*
X1407Y32D02*
X1414Y32D01*
X0Y31D02*
X7Y31D01*
X1407Y31D02*
X1414Y31D01*
X0Y30D02*
X7Y30D01*
X1407Y30D02*
X1414Y30D01*
X0Y29D02*
X7Y29D01*
X1407Y29D02*
X1414Y29D01*
X0Y28D02*
X7Y28D01*
X1407Y28D02*
X1414Y28D01*
X0Y27D02*
X7Y27D01*
X1407Y27D02*
X1414Y27D01*
X0Y26D02*
X7Y26D01*
X1407Y26D02*
X1414Y26D01*
X0Y25D02*
X7Y25D01*
X1407Y25D02*
X1414Y25D01*
X0Y24D02*
X7Y24D01*
X1407Y24D02*
X1414Y24D01*
X0Y23D02*
X7Y23D01*
X1407Y23D02*
X1414Y23D01*
X0Y22D02*
X7Y22D01*
X1407Y22D02*
X1414Y22D01*
X0Y21D02*
X7Y21D01*
X1407Y21D02*
X1414Y21D01*
X0Y20D02*
X7Y20D01*
X1407Y20D02*
X1414Y20D01*
X0Y19D02*
X7Y19D01*
X1407Y19D02*
X1414Y19D01*
X0Y18D02*
X7Y18D01*
X1407Y18D02*
X1414Y18D01*
X0Y17D02*
X7Y17D01*
X1407Y17D02*
X1414Y17D01*
X0Y16D02*
X7Y16D01*
X1407Y16D02*
X1414Y16D01*
X0Y15D02*
X7Y15D01*
X1407Y15D02*
X1414Y15D01*
X0Y14D02*
X7Y14D01*
X1407Y14D02*
X1414Y14D01*
X0Y13D02*
X7Y13D01*
X1407Y13D02*
X1414Y13D01*
X0Y12D02*
X7Y12D01*
X1407Y12D02*
X1414Y12D01*
X0Y11D02*
X7Y11D01*
X1407Y11D02*
X1414Y11D01*
X0Y10D02*
X7Y10D01*
X1407Y10D02*
X1414Y10D01*
X0Y9D02*
X35Y9D01*
X55Y9D02*
X213Y9D01*
X233Y9D02*
X335Y9D01*
X355Y9D02*
X513Y9D01*
X533Y9D02*
X635Y9D01*
X655Y9D02*
X813Y9D01*
X833Y9D02*
X935Y9D01*
X955Y9D02*
X1113Y9D01*
X1133Y9D02*
X1414Y9D01*
X0Y8D02*
X40Y8D01*
X51Y8D02*
X218Y8D01*
X228Y8D02*
X340Y8D01*
X350Y8D02*
X518Y8D01*
X528Y8D02*
X640Y8D01*
X650Y8D02*
X818Y8D01*
X828Y8D02*
X940Y8D01*
X950Y8D02*
X1118Y8D01*
X1128Y8D02*
X1414Y8D01*
X0Y7D02*
X1414Y7D01*
X0Y6D02*
X1414Y6D01*
X0Y5D02*
X1414Y5D01*
X0Y4D02*
X1414Y4D01*
X0Y3D02*
X1414Y3D01*
X0Y2D02*
X1414Y2D01*
X1414Y1D02*
X1414Y1D01*
X1414Y0D02*
X1414Y0D01*
D02*
G04 End of Silk1*
M02*