G04 MADE WITH FRITZING*
G04 WWW.FRITZING.ORG*
G04 DOUBLE SIDED*
G04 HOLES PLATED*
G04 CONTOUR ON CENTER OF CONTOUR VECTOR*
%ASAXBY*%
%FSLAX23Y23*%
%MOIN*%
%OFA0B0*%
%SFA1.0B1.0*%
%ADD10R,0.001000X0.001000*%
%LNSILK0*%
G90*
G70*
G54D10*
X0Y1776D02*
X1414Y1776D01*
X0Y1775D02*
X1414Y1775D01*
X0Y1774D02*
X1414Y1774D01*
X0Y1773D02*
X1414Y1773D01*
X0Y1772D02*
X1414Y1772D01*
X0Y1771D02*
X1414Y1771D01*
X0Y1770D02*
X1414Y1770D01*
X0Y1769D02*
X1414Y1769D01*
X0Y1768D02*
X7Y1768D01*
X1407Y1768D02*
X1414Y1768D01*
X0Y1767D02*
X7Y1767D01*
X1407Y1767D02*
X1414Y1767D01*
X0Y1766D02*
X7Y1766D01*
X1407Y1766D02*
X1414Y1766D01*
X0Y1765D02*
X7Y1765D01*
X1407Y1765D02*
X1414Y1765D01*
X0Y1764D02*
X7Y1764D01*
X1407Y1764D02*
X1414Y1764D01*
X0Y1763D02*
X7Y1763D01*
X1407Y1763D02*
X1414Y1763D01*
X0Y1762D02*
X7Y1762D01*
X1407Y1762D02*
X1414Y1762D01*
X0Y1761D02*
X7Y1761D01*
X1407Y1761D02*
X1414Y1761D01*
X0Y1760D02*
X7Y1760D01*
X1407Y1760D02*
X1414Y1760D01*
X0Y1759D02*
X7Y1759D01*
X1407Y1759D02*
X1414Y1759D01*
X0Y1758D02*
X7Y1758D01*
X1407Y1758D02*
X1414Y1758D01*
X0Y1757D02*
X7Y1757D01*
X1407Y1757D02*
X1414Y1757D01*
X0Y1756D02*
X7Y1756D01*
X1407Y1756D02*
X1414Y1756D01*
X0Y1755D02*
X7Y1755D01*
X1407Y1755D02*
X1414Y1755D01*
X0Y1754D02*
X7Y1754D01*
X1407Y1754D02*
X1414Y1754D01*
X0Y1753D02*
X7Y1753D01*
X1407Y1753D02*
X1414Y1753D01*
X0Y1752D02*
X7Y1752D01*
X1407Y1752D02*
X1414Y1752D01*
X0Y1751D02*
X7Y1751D01*
X1407Y1751D02*
X1414Y1751D01*
X0Y1750D02*
X7Y1750D01*
X1407Y1750D02*
X1414Y1750D01*
X0Y1749D02*
X7Y1749D01*
X1407Y1749D02*
X1414Y1749D01*
X0Y1748D02*
X7Y1748D01*
X1407Y1748D02*
X1414Y1748D01*
X0Y1747D02*
X7Y1747D01*
X1407Y1747D02*
X1414Y1747D01*
X0Y1746D02*
X7Y1746D01*
X1407Y1746D02*
X1414Y1746D01*
X0Y1745D02*
X7Y1745D01*
X1407Y1745D02*
X1414Y1745D01*
X0Y1744D02*
X7Y1744D01*
X1407Y1744D02*
X1414Y1744D01*
X0Y1743D02*
X7Y1743D01*
X1407Y1743D02*
X1414Y1743D01*
X0Y1742D02*
X7Y1742D01*
X1407Y1742D02*
X1414Y1742D01*
X0Y1741D02*
X7Y1741D01*
X1407Y1741D02*
X1414Y1741D01*
X0Y1740D02*
X7Y1740D01*
X1407Y1740D02*
X1414Y1740D01*
X0Y1739D02*
X7Y1739D01*
X1407Y1739D02*
X1414Y1739D01*
X0Y1738D02*
X7Y1738D01*
X1407Y1738D02*
X1414Y1738D01*
X0Y1737D02*
X7Y1737D01*
X1407Y1737D02*
X1414Y1737D01*
X0Y1736D02*
X7Y1736D01*
X1407Y1736D02*
X1414Y1736D01*
X0Y1735D02*
X7Y1735D01*
X1407Y1735D02*
X1414Y1735D01*
X0Y1734D02*
X7Y1734D01*
X1407Y1734D02*
X1414Y1734D01*
X0Y1733D02*
X7Y1733D01*
X1407Y1733D02*
X1414Y1733D01*
X0Y1732D02*
X7Y1732D01*
X1407Y1732D02*
X1414Y1732D01*
X0Y1731D02*
X7Y1731D01*
X1407Y1731D02*
X1414Y1731D01*
X0Y1730D02*
X7Y1730D01*
X1407Y1730D02*
X1414Y1730D01*
X0Y1729D02*
X7Y1729D01*
X1407Y1729D02*
X1414Y1729D01*
X0Y1728D02*
X7Y1728D01*
X1407Y1728D02*
X1414Y1728D01*
X0Y1727D02*
X7Y1727D01*
X1407Y1727D02*
X1414Y1727D01*
X0Y1726D02*
X7Y1726D01*
X1407Y1726D02*
X1414Y1726D01*
X0Y1725D02*
X7Y1725D01*
X1407Y1725D02*
X1414Y1725D01*
X0Y1724D02*
X7Y1724D01*
X1407Y1724D02*
X1414Y1724D01*
X0Y1723D02*
X7Y1723D01*
X1407Y1723D02*
X1414Y1723D01*
X0Y1722D02*
X7Y1722D01*
X1407Y1722D02*
X1414Y1722D01*
X0Y1721D02*
X7Y1721D01*
X1407Y1721D02*
X1414Y1721D01*
X0Y1720D02*
X7Y1720D01*
X1407Y1720D02*
X1414Y1720D01*
X0Y1719D02*
X7Y1719D01*
X1407Y1719D02*
X1414Y1719D01*
X0Y1718D02*
X7Y1718D01*
X1407Y1718D02*
X1414Y1718D01*
X0Y1717D02*
X7Y1717D01*
X1407Y1717D02*
X1414Y1717D01*
X0Y1716D02*
X7Y1716D01*
X1407Y1716D02*
X1414Y1716D01*
X0Y1715D02*
X7Y1715D01*
X1407Y1715D02*
X1414Y1715D01*
X0Y1714D02*
X7Y1714D01*
X1407Y1714D02*
X1414Y1714D01*
X0Y1713D02*
X7Y1713D01*
X1407Y1713D02*
X1414Y1713D01*
X0Y1712D02*
X7Y1712D01*
X1407Y1712D02*
X1414Y1712D01*
X0Y1711D02*
X7Y1711D01*
X1407Y1711D02*
X1414Y1711D01*
X0Y1710D02*
X7Y1710D01*
X1407Y1710D02*
X1414Y1710D01*
X0Y1709D02*
X7Y1709D01*
X1407Y1709D02*
X1414Y1709D01*
X0Y1708D02*
X7Y1708D01*
X1407Y1708D02*
X1414Y1708D01*
X0Y1707D02*
X7Y1707D01*
X1407Y1707D02*
X1414Y1707D01*
X0Y1706D02*
X7Y1706D01*
X1407Y1706D02*
X1414Y1706D01*
X0Y1705D02*
X7Y1705D01*
X1407Y1705D02*
X1414Y1705D01*
X0Y1704D02*
X7Y1704D01*
X1407Y1704D02*
X1414Y1704D01*
X0Y1703D02*
X7Y1703D01*
X1407Y1703D02*
X1414Y1703D01*
X0Y1702D02*
X7Y1702D01*
X1407Y1702D02*
X1414Y1702D01*
X0Y1701D02*
X7Y1701D01*
X1407Y1701D02*
X1414Y1701D01*
X0Y1700D02*
X7Y1700D01*
X1407Y1700D02*
X1414Y1700D01*
X0Y1699D02*
X7Y1699D01*
X1407Y1699D02*
X1414Y1699D01*
X0Y1698D02*
X7Y1698D01*
X1407Y1698D02*
X1414Y1698D01*
X0Y1697D02*
X7Y1697D01*
X1407Y1697D02*
X1414Y1697D01*
X0Y1696D02*
X7Y1696D01*
X1407Y1696D02*
X1414Y1696D01*
X0Y1695D02*
X7Y1695D01*
X1407Y1695D02*
X1414Y1695D01*
X0Y1694D02*
X7Y1694D01*
X1407Y1694D02*
X1414Y1694D01*
X0Y1693D02*
X7Y1693D01*
X1407Y1693D02*
X1414Y1693D01*
X0Y1692D02*
X7Y1692D01*
X1407Y1692D02*
X1414Y1692D01*
X0Y1691D02*
X7Y1691D01*
X1407Y1691D02*
X1414Y1691D01*
X0Y1690D02*
X7Y1690D01*
X1407Y1690D02*
X1414Y1690D01*
X0Y1689D02*
X7Y1689D01*
X1407Y1689D02*
X1414Y1689D01*
X0Y1688D02*
X7Y1688D01*
X1407Y1688D02*
X1414Y1688D01*
X0Y1687D02*
X7Y1687D01*
X1407Y1687D02*
X1414Y1687D01*
X0Y1686D02*
X7Y1686D01*
X1407Y1686D02*
X1414Y1686D01*
X0Y1685D02*
X7Y1685D01*
X1407Y1685D02*
X1414Y1685D01*
X0Y1684D02*
X7Y1684D01*
X1407Y1684D02*
X1414Y1684D01*
X0Y1683D02*
X7Y1683D01*
X1407Y1683D02*
X1414Y1683D01*
X0Y1682D02*
X7Y1682D01*
X1407Y1682D02*
X1414Y1682D01*
X0Y1681D02*
X7Y1681D01*
X1407Y1681D02*
X1414Y1681D01*
X0Y1680D02*
X7Y1680D01*
X1407Y1680D02*
X1414Y1680D01*
X0Y1679D02*
X7Y1679D01*
X1407Y1679D02*
X1414Y1679D01*
X0Y1678D02*
X7Y1678D01*
X1407Y1678D02*
X1414Y1678D01*
X0Y1677D02*
X7Y1677D01*
X1407Y1677D02*
X1414Y1677D01*
X0Y1676D02*
X7Y1676D01*
X1407Y1676D02*
X1414Y1676D01*
X0Y1675D02*
X7Y1675D01*
X1407Y1675D02*
X1414Y1675D01*
X0Y1674D02*
X7Y1674D01*
X1407Y1674D02*
X1414Y1674D01*
X0Y1673D02*
X7Y1673D01*
X1407Y1673D02*
X1414Y1673D01*
X0Y1672D02*
X7Y1672D01*
X1407Y1672D02*
X1414Y1672D01*
X0Y1671D02*
X7Y1671D01*
X1407Y1671D02*
X1414Y1671D01*
X0Y1670D02*
X7Y1670D01*
X1407Y1670D02*
X1414Y1670D01*
X0Y1669D02*
X7Y1669D01*
X1407Y1669D02*
X1414Y1669D01*
X0Y1668D02*
X7Y1668D01*
X1407Y1668D02*
X1414Y1668D01*
X0Y1667D02*
X7Y1667D01*
X1407Y1667D02*
X1414Y1667D01*
X0Y1666D02*
X7Y1666D01*
X1407Y1666D02*
X1414Y1666D01*
X0Y1665D02*
X7Y1665D01*
X1407Y1665D02*
X1414Y1665D01*
X0Y1664D02*
X7Y1664D01*
X1407Y1664D02*
X1414Y1664D01*
X0Y1663D02*
X7Y1663D01*
X1407Y1663D02*
X1414Y1663D01*
X0Y1662D02*
X7Y1662D01*
X1407Y1662D02*
X1414Y1662D01*
X0Y1661D02*
X7Y1661D01*
X1407Y1661D02*
X1414Y1661D01*
X0Y1660D02*
X7Y1660D01*
X1407Y1660D02*
X1414Y1660D01*
X0Y1659D02*
X7Y1659D01*
X1407Y1659D02*
X1414Y1659D01*
X0Y1658D02*
X7Y1658D01*
X1407Y1658D02*
X1414Y1658D01*
X0Y1657D02*
X7Y1657D01*
X1407Y1657D02*
X1414Y1657D01*
X0Y1656D02*
X7Y1656D01*
X1407Y1656D02*
X1414Y1656D01*
X0Y1655D02*
X7Y1655D01*
X1407Y1655D02*
X1414Y1655D01*
X0Y1654D02*
X7Y1654D01*
X1407Y1654D02*
X1414Y1654D01*
X0Y1653D02*
X7Y1653D01*
X1407Y1653D02*
X1414Y1653D01*
X0Y1652D02*
X7Y1652D01*
X1407Y1652D02*
X1414Y1652D01*
X0Y1651D02*
X7Y1651D01*
X1407Y1651D02*
X1414Y1651D01*
X0Y1650D02*
X7Y1650D01*
X1407Y1650D02*
X1414Y1650D01*
X0Y1649D02*
X7Y1649D01*
X1407Y1649D02*
X1414Y1649D01*
X0Y1648D02*
X7Y1648D01*
X1407Y1648D02*
X1414Y1648D01*
X0Y1647D02*
X7Y1647D01*
X1407Y1647D02*
X1414Y1647D01*
X0Y1646D02*
X7Y1646D01*
X1407Y1646D02*
X1414Y1646D01*
X0Y1645D02*
X7Y1645D01*
X1407Y1645D02*
X1414Y1645D01*
X0Y1644D02*
X7Y1644D01*
X1407Y1644D02*
X1414Y1644D01*
X0Y1643D02*
X7Y1643D01*
X1407Y1643D02*
X1414Y1643D01*
X0Y1642D02*
X7Y1642D01*
X1407Y1642D02*
X1414Y1642D01*
X0Y1641D02*
X7Y1641D01*
X1407Y1641D02*
X1414Y1641D01*
X0Y1640D02*
X7Y1640D01*
X1407Y1640D02*
X1414Y1640D01*
X0Y1639D02*
X7Y1639D01*
X1407Y1639D02*
X1414Y1639D01*
X0Y1638D02*
X7Y1638D01*
X1407Y1638D02*
X1414Y1638D01*
X0Y1637D02*
X7Y1637D01*
X1407Y1637D02*
X1414Y1637D01*
X0Y1636D02*
X7Y1636D01*
X1407Y1636D02*
X1414Y1636D01*
X0Y1635D02*
X7Y1635D01*
X1407Y1635D02*
X1414Y1635D01*
X0Y1634D02*
X7Y1634D01*
X1407Y1634D02*
X1414Y1634D01*
X0Y1633D02*
X7Y1633D01*
X1407Y1633D02*
X1414Y1633D01*
X0Y1632D02*
X7Y1632D01*
X1407Y1632D02*
X1414Y1632D01*
X0Y1631D02*
X7Y1631D01*
X1407Y1631D02*
X1414Y1631D01*
X0Y1630D02*
X7Y1630D01*
X1407Y1630D02*
X1414Y1630D01*
X0Y1629D02*
X7Y1629D01*
X1407Y1629D02*
X1414Y1629D01*
X0Y1628D02*
X7Y1628D01*
X1407Y1628D02*
X1414Y1628D01*
X0Y1627D02*
X7Y1627D01*
X1407Y1627D02*
X1414Y1627D01*
X0Y1626D02*
X7Y1626D01*
X1407Y1626D02*
X1414Y1626D01*
X0Y1625D02*
X7Y1625D01*
X1407Y1625D02*
X1414Y1625D01*
X0Y1624D02*
X7Y1624D01*
X1407Y1624D02*
X1414Y1624D01*
X0Y1623D02*
X7Y1623D01*
X1407Y1623D02*
X1414Y1623D01*
X0Y1622D02*
X7Y1622D01*
X1407Y1622D02*
X1414Y1622D01*
X0Y1621D02*
X7Y1621D01*
X1407Y1621D02*
X1414Y1621D01*
X0Y1620D02*
X7Y1620D01*
X1407Y1620D02*
X1414Y1620D01*
X0Y1619D02*
X7Y1619D01*
X1407Y1619D02*
X1414Y1619D01*
X0Y1618D02*
X7Y1618D01*
X1407Y1618D02*
X1414Y1618D01*
X0Y1617D02*
X7Y1617D01*
X1407Y1617D02*
X1414Y1617D01*
X0Y1616D02*
X7Y1616D01*
X1407Y1616D02*
X1414Y1616D01*
X0Y1615D02*
X7Y1615D01*
X1407Y1615D02*
X1414Y1615D01*
X0Y1614D02*
X7Y1614D01*
X1407Y1614D02*
X1414Y1614D01*
X0Y1613D02*
X7Y1613D01*
X1407Y1613D02*
X1414Y1613D01*
X0Y1612D02*
X7Y1612D01*
X1407Y1612D02*
X1414Y1612D01*
X0Y1611D02*
X7Y1611D01*
X1407Y1611D02*
X1414Y1611D01*
X0Y1610D02*
X7Y1610D01*
X1407Y1610D02*
X1414Y1610D01*
X0Y1609D02*
X7Y1609D01*
X1407Y1609D02*
X1414Y1609D01*
X0Y1608D02*
X7Y1608D01*
X1407Y1608D02*
X1414Y1608D01*
X0Y1607D02*
X7Y1607D01*
X1407Y1607D02*
X1414Y1607D01*
X0Y1606D02*
X7Y1606D01*
X1407Y1606D02*
X1414Y1606D01*
X0Y1605D02*
X7Y1605D01*
X1407Y1605D02*
X1414Y1605D01*
X0Y1604D02*
X7Y1604D01*
X1407Y1604D02*
X1414Y1604D01*
X0Y1603D02*
X7Y1603D01*
X1407Y1603D02*
X1414Y1603D01*
X0Y1602D02*
X7Y1602D01*
X1407Y1602D02*
X1414Y1602D01*
X0Y1601D02*
X7Y1601D01*
X1407Y1601D02*
X1414Y1601D01*
X0Y1600D02*
X7Y1600D01*
X1407Y1600D02*
X1414Y1600D01*
X0Y1599D02*
X7Y1599D01*
X1407Y1599D02*
X1414Y1599D01*
X0Y1598D02*
X7Y1598D01*
X1407Y1598D02*
X1414Y1598D01*
X0Y1597D02*
X7Y1597D01*
X1407Y1597D02*
X1414Y1597D01*
X0Y1596D02*
X7Y1596D01*
X1407Y1596D02*
X1414Y1596D01*
X0Y1595D02*
X7Y1595D01*
X1407Y1595D02*
X1414Y1595D01*
X0Y1594D02*
X7Y1594D01*
X1407Y1594D02*
X1414Y1594D01*
X0Y1593D02*
X7Y1593D01*
X1407Y1593D02*
X1414Y1593D01*
X0Y1592D02*
X7Y1592D01*
X1407Y1592D02*
X1414Y1592D01*
X0Y1591D02*
X7Y1591D01*
X1407Y1591D02*
X1414Y1591D01*
X0Y1590D02*
X7Y1590D01*
X1407Y1590D02*
X1414Y1590D01*
X0Y1589D02*
X7Y1589D01*
X1407Y1589D02*
X1414Y1589D01*
X0Y1588D02*
X7Y1588D01*
X1407Y1588D02*
X1414Y1588D01*
X0Y1587D02*
X7Y1587D01*
X1407Y1587D02*
X1414Y1587D01*
X0Y1586D02*
X7Y1586D01*
X1407Y1586D02*
X1414Y1586D01*
X0Y1585D02*
X7Y1585D01*
X1407Y1585D02*
X1414Y1585D01*
X0Y1584D02*
X7Y1584D01*
X1407Y1584D02*
X1414Y1584D01*
X0Y1583D02*
X7Y1583D01*
X1407Y1583D02*
X1414Y1583D01*
X0Y1582D02*
X7Y1582D01*
X1407Y1582D02*
X1414Y1582D01*
X0Y1581D02*
X7Y1581D01*
X1407Y1581D02*
X1414Y1581D01*
X0Y1580D02*
X7Y1580D01*
X1407Y1580D02*
X1414Y1580D01*
X0Y1579D02*
X7Y1579D01*
X1407Y1579D02*
X1414Y1579D01*
X0Y1578D02*
X7Y1578D01*
X1407Y1578D02*
X1414Y1578D01*
X0Y1577D02*
X7Y1577D01*
X1407Y1577D02*
X1414Y1577D01*
X0Y1576D02*
X7Y1576D01*
X1407Y1576D02*
X1414Y1576D01*
X0Y1575D02*
X7Y1575D01*
X1407Y1575D02*
X1414Y1575D01*
X0Y1574D02*
X7Y1574D01*
X1407Y1574D02*
X1414Y1574D01*
X0Y1573D02*
X7Y1573D01*
X1407Y1573D02*
X1414Y1573D01*
X0Y1572D02*
X7Y1572D01*
X1407Y1572D02*
X1414Y1572D01*
X0Y1571D02*
X7Y1571D01*
X1407Y1571D02*
X1414Y1571D01*
X0Y1570D02*
X7Y1570D01*
X1407Y1570D02*
X1414Y1570D01*
X0Y1569D02*
X7Y1569D01*
X1407Y1569D02*
X1414Y1569D01*
X0Y1568D02*
X7Y1568D01*
X1407Y1568D02*
X1414Y1568D01*
X0Y1567D02*
X7Y1567D01*
X1407Y1567D02*
X1414Y1567D01*
X0Y1566D02*
X7Y1566D01*
X1407Y1566D02*
X1414Y1566D01*
X0Y1565D02*
X7Y1565D01*
X1407Y1565D02*
X1414Y1565D01*
X0Y1564D02*
X7Y1564D01*
X1407Y1564D02*
X1414Y1564D01*
X0Y1563D02*
X7Y1563D01*
X1407Y1563D02*
X1414Y1563D01*
X0Y1562D02*
X7Y1562D01*
X1407Y1562D02*
X1414Y1562D01*
X0Y1561D02*
X7Y1561D01*
X1407Y1561D02*
X1414Y1561D01*
X0Y1560D02*
X7Y1560D01*
X1407Y1560D02*
X1414Y1560D01*
X0Y1559D02*
X7Y1559D01*
X1407Y1559D02*
X1414Y1559D01*
X0Y1558D02*
X7Y1558D01*
X1407Y1558D02*
X1414Y1558D01*
X0Y1557D02*
X7Y1557D01*
X1407Y1557D02*
X1414Y1557D01*
X0Y1556D02*
X7Y1556D01*
X1407Y1556D02*
X1414Y1556D01*
X0Y1555D02*
X7Y1555D01*
X1407Y1555D02*
X1414Y1555D01*
X0Y1554D02*
X7Y1554D01*
X1407Y1554D02*
X1414Y1554D01*
X0Y1553D02*
X7Y1553D01*
X1407Y1553D02*
X1414Y1553D01*
X0Y1552D02*
X7Y1552D01*
X1407Y1552D02*
X1414Y1552D01*
X0Y1551D02*
X7Y1551D01*
X1407Y1551D02*
X1414Y1551D01*
X0Y1550D02*
X7Y1550D01*
X1407Y1550D02*
X1414Y1550D01*
X0Y1549D02*
X7Y1549D01*
X1407Y1549D02*
X1414Y1549D01*
X0Y1548D02*
X7Y1548D01*
X1407Y1548D02*
X1414Y1548D01*
X0Y1547D02*
X7Y1547D01*
X1407Y1547D02*
X1414Y1547D01*
X0Y1546D02*
X7Y1546D01*
X1407Y1546D02*
X1414Y1546D01*
X0Y1545D02*
X7Y1545D01*
X1407Y1545D02*
X1414Y1545D01*
X0Y1544D02*
X7Y1544D01*
X1407Y1544D02*
X1414Y1544D01*
X0Y1543D02*
X7Y1543D01*
X1407Y1543D02*
X1414Y1543D01*
X0Y1542D02*
X7Y1542D01*
X1407Y1542D02*
X1414Y1542D01*
X0Y1541D02*
X7Y1541D01*
X1407Y1541D02*
X1414Y1541D01*
X0Y1540D02*
X7Y1540D01*
X1407Y1540D02*
X1414Y1540D01*
X0Y1539D02*
X7Y1539D01*
X1407Y1539D02*
X1414Y1539D01*
X0Y1538D02*
X7Y1538D01*
X1407Y1538D02*
X1414Y1538D01*
X0Y1537D02*
X7Y1537D01*
X1407Y1537D02*
X1414Y1537D01*
X0Y1536D02*
X7Y1536D01*
X1407Y1536D02*
X1414Y1536D01*
X0Y1535D02*
X7Y1535D01*
X1407Y1535D02*
X1414Y1535D01*
X0Y1534D02*
X7Y1534D01*
X1407Y1534D02*
X1414Y1534D01*
X0Y1533D02*
X7Y1533D01*
X1407Y1533D02*
X1414Y1533D01*
X0Y1532D02*
X7Y1532D01*
X1407Y1532D02*
X1414Y1532D01*
X0Y1531D02*
X7Y1531D01*
X1407Y1531D02*
X1414Y1531D01*
X0Y1530D02*
X7Y1530D01*
X1407Y1530D02*
X1414Y1530D01*
X0Y1529D02*
X7Y1529D01*
X1407Y1529D02*
X1414Y1529D01*
X0Y1528D02*
X7Y1528D01*
X1407Y1528D02*
X1414Y1528D01*
X0Y1527D02*
X7Y1527D01*
X1407Y1527D02*
X1414Y1527D01*
X0Y1526D02*
X7Y1526D01*
X1407Y1526D02*
X1414Y1526D01*
X0Y1525D02*
X7Y1525D01*
X1407Y1525D02*
X1414Y1525D01*
X0Y1524D02*
X7Y1524D01*
X1407Y1524D02*
X1414Y1524D01*
X0Y1523D02*
X7Y1523D01*
X1407Y1523D02*
X1414Y1523D01*
X0Y1522D02*
X7Y1522D01*
X1407Y1522D02*
X1414Y1522D01*
X0Y1521D02*
X7Y1521D01*
X1407Y1521D02*
X1414Y1521D01*
X0Y1520D02*
X7Y1520D01*
X1407Y1520D02*
X1414Y1520D01*
X0Y1519D02*
X7Y1519D01*
X1407Y1519D02*
X1414Y1519D01*
X0Y1518D02*
X7Y1518D01*
X1407Y1518D02*
X1414Y1518D01*
X0Y1517D02*
X7Y1517D01*
X1407Y1517D02*
X1414Y1517D01*
X0Y1516D02*
X7Y1516D01*
X1407Y1516D02*
X1414Y1516D01*
X0Y1515D02*
X7Y1515D01*
X1407Y1515D02*
X1414Y1515D01*
X0Y1514D02*
X7Y1514D01*
X1407Y1514D02*
X1414Y1514D01*
X0Y1513D02*
X7Y1513D01*
X1407Y1513D02*
X1414Y1513D01*
X0Y1512D02*
X7Y1512D01*
X1407Y1512D02*
X1414Y1512D01*
X0Y1511D02*
X7Y1511D01*
X1407Y1511D02*
X1414Y1511D01*
X0Y1510D02*
X7Y1510D01*
X1407Y1510D02*
X1414Y1510D01*
X0Y1509D02*
X7Y1509D01*
X1407Y1509D02*
X1414Y1509D01*
X0Y1508D02*
X7Y1508D01*
X1407Y1508D02*
X1414Y1508D01*
X0Y1507D02*
X7Y1507D01*
X1407Y1507D02*
X1414Y1507D01*
X0Y1506D02*
X7Y1506D01*
X1407Y1506D02*
X1414Y1506D01*
X0Y1505D02*
X7Y1505D01*
X1407Y1505D02*
X1414Y1505D01*
X0Y1504D02*
X7Y1504D01*
X1407Y1504D02*
X1414Y1504D01*
X0Y1503D02*
X7Y1503D01*
X1407Y1503D02*
X1414Y1503D01*
X0Y1502D02*
X7Y1502D01*
X1407Y1502D02*
X1414Y1502D01*
X0Y1501D02*
X7Y1501D01*
X1407Y1501D02*
X1414Y1501D01*
X0Y1500D02*
X7Y1500D01*
X1407Y1500D02*
X1414Y1500D01*
X0Y1499D02*
X7Y1499D01*
X1407Y1499D02*
X1414Y1499D01*
X0Y1498D02*
X7Y1498D01*
X1407Y1498D02*
X1414Y1498D01*
X0Y1497D02*
X7Y1497D01*
X1407Y1497D02*
X1414Y1497D01*
X0Y1496D02*
X7Y1496D01*
X1407Y1496D02*
X1414Y1496D01*
X0Y1495D02*
X7Y1495D01*
X1407Y1495D02*
X1414Y1495D01*
X0Y1494D02*
X7Y1494D01*
X1407Y1494D02*
X1414Y1494D01*
X0Y1493D02*
X7Y1493D01*
X1407Y1493D02*
X1414Y1493D01*
X0Y1492D02*
X7Y1492D01*
X1407Y1492D02*
X1414Y1492D01*
X0Y1491D02*
X7Y1491D01*
X1407Y1491D02*
X1414Y1491D01*
X0Y1490D02*
X7Y1490D01*
X1407Y1490D02*
X1414Y1490D01*
X0Y1489D02*
X7Y1489D01*
X1407Y1489D02*
X1414Y1489D01*
X0Y1488D02*
X7Y1488D01*
X1407Y1488D02*
X1414Y1488D01*
X0Y1487D02*
X7Y1487D01*
X1407Y1487D02*
X1414Y1487D01*
X0Y1486D02*
X7Y1486D01*
X1407Y1486D02*
X1414Y1486D01*
X0Y1485D02*
X7Y1485D01*
X1407Y1485D02*
X1414Y1485D01*
X0Y1484D02*
X7Y1484D01*
X1407Y1484D02*
X1414Y1484D01*
X0Y1483D02*
X7Y1483D01*
X1407Y1483D02*
X1414Y1483D01*
X0Y1482D02*
X7Y1482D01*
X1407Y1482D02*
X1414Y1482D01*
X0Y1481D02*
X7Y1481D01*
X1407Y1481D02*
X1414Y1481D01*
X0Y1480D02*
X7Y1480D01*
X1407Y1480D02*
X1414Y1480D01*
X0Y1479D02*
X7Y1479D01*
X1407Y1479D02*
X1414Y1479D01*
X0Y1478D02*
X7Y1478D01*
X1407Y1478D02*
X1414Y1478D01*
X0Y1477D02*
X7Y1477D01*
X1407Y1477D02*
X1414Y1477D01*
X0Y1476D02*
X7Y1476D01*
X1407Y1476D02*
X1414Y1476D01*
X0Y1475D02*
X7Y1475D01*
X1407Y1475D02*
X1414Y1475D01*
X0Y1474D02*
X7Y1474D01*
X1407Y1474D02*
X1414Y1474D01*
X0Y1473D02*
X7Y1473D01*
X1407Y1473D02*
X1414Y1473D01*
X0Y1472D02*
X7Y1472D01*
X1407Y1472D02*
X1414Y1472D01*
X0Y1471D02*
X7Y1471D01*
X1407Y1471D02*
X1414Y1471D01*
X0Y1470D02*
X7Y1470D01*
X1407Y1470D02*
X1414Y1470D01*
X0Y1469D02*
X7Y1469D01*
X1407Y1469D02*
X1414Y1469D01*
X0Y1468D02*
X7Y1468D01*
X1407Y1468D02*
X1414Y1468D01*
X0Y1467D02*
X7Y1467D01*
X1407Y1467D02*
X1414Y1467D01*
X0Y1466D02*
X7Y1466D01*
X1407Y1466D02*
X1414Y1466D01*
X0Y1465D02*
X7Y1465D01*
X1407Y1465D02*
X1414Y1465D01*
X0Y1464D02*
X7Y1464D01*
X1407Y1464D02*
X1414Y1464D01*
X0Y1463D02*
X7Y1463D01*
X1407Y1463D02*
X1414Y1463D01*
X0Y1462D02*
X7Y1462D01*
X1407Y1462D02*
X1414Y1462D01*
X0Y1461D02*
X7Y1461D01*
X1407Y1461D02*
X1414Y1461D01*
X0Y1460D02*
X7Y1460D01*
X1407Y1460D02*
X1414Y1460D01*
X0Y1459D02*
X7Y1459D01*
X1407Y1459D02*
X1414Y1459D01*
X0Y1458D02*
X7Y1458D01*
X1407Y1458D02*
X1414Y1458D01*
X0Y1457D02*
X7Y1457D01*
X1407Y1457D02*
X1414Y1457D01*
X0Y1456D02*
X7Y1456D01*
X1407Y1456D02*
X1414Y1456D01*
X0Y1455D02*
X7Y1455D01*
X1407Y1455D02*
X1414Y1455D01*
X0Y1454D02*
X7Y1454D01*
X1407Y1454D02*
X1414Y1454D01*
X0Y1453D02*
X7Y1453D01*
X1407Y1453D02*
X1414Y1453D01*
X0Y1452D02*
X7Y1452D01*
X1407Y1452D02*
X1414Y1452D01*
X0Y1451D02*
X7Y1451D01*
X1407Y1451D02*
X1414Y1451D01*
X0Y1450D02*
X7Y1450D01*
X1407Y1450D02*
X1414Y1450D01*
X0Y1449D02*
X7Y1449D01*
X1407Y1449D02*
X1414Y1449D01*
X0Y1448D02*
X7Y1448D01*
X1407Y1448D02*
X1414Y1448D01*
X0Y1447D02*
X7Y1447D01*
X1407Y1447D02*
X1414Y1447D01*
X0Y1446D02*
X7Y1446D01*
X1407Y1446D02*
X1414Y1446D01*
X0Y1445D02*
X7Y1445D01*
X1407Y1445D02*
X1414Y1445D01*
X0Y1444D02*
X7Y1444D01*
X1407Y1444D02*
X1414Y1444D01*
X0Y1443D02*
X7Y1443D01*
X1407Y1443D02*
X1414Y1443D01*
X0Y1442D02*
X7Y1442D01*
X1407Y1442D02*
X1414Y1442D01*
X0Y1441D02*
X7Y1441D01*
X1407Y1441D02*
X1414Y1441D01*
X0Y1440D02*
X7Y1440D01*
X1407Y1440D02*
X1414Y1440D01*
X0Y1439D02*
X7Y1439D01*
X1407Y1439D02*
X1414Y1439D01*
X0Y1438D02*
X7Y1438D01*
X1407Y1438D02*
X1414Y1438D01*
X0Y1437D02*
X7Y1437D01*
X1407Y1437D02*
X1414Y1437D01*
X0Y1436D02*
X7Y1436D01*
X1407Y1436D02*
X1414Y1436D01*
X0Y1435D02*
X7Y1435D01*
X1407Y1435D02*
X1414Y1435D01*
X0Y1434D02*
X7Y1434D01*
X1407Y1434D02*
X1414Y1434D01*
X0Y1433D02*
X7Y1433D01*
X1407Y1433D02*
X1414Y1433D01*
X0Y1432D02*
X7Y1432D01*
X1407Y1432D02*
X1414Y1432D01*
X0Y1431D02*
X7Y1431D01*
X1407Y1431D02*
X1414Y1431D01*
X0Y1430D02*
X7Y1430D01*
X1407Y1430D02*
X1414Y1430D01*
X0Y1429D02*
X7Y1429D01*
X1407Y1429D02*
X1414Y1429D01*
X0Y1428D02*
X7Y1428D01*
X1407Y1428D02*
X1414Y1428D01*
X0Y1427D02*
X7Y1427D01*
X1407Y1427D02*
X1414Y1427D01*
X0Y1426D02*
X7Y1426D01*
X1407Y1426D02*
X1414Y1426D01*
X0Y1425D02*
X7Y1425D01*
X1407Y1425D02*
X1414Y1425D01*
X0Y1424D02*
X7Y1424D01*
X1407Y1424D02*
X1414Y1424D01*
X0Y1423D02*
X7Y1423D01*
X1407Y1423D02*
X1414Y1423D01*
X0Y1422D02*
X7Y1422D01*
X1407Y1422D02*
X1414Y1422D01*
X0Y1421D02*
X7Y1421D01*
X1407Y1421D02*
X1414Y1421D01*
X0Y1420D02*
X7Y1420D01*
X1407Y1420D02*
X1414Y1420D01*
X0Y1419D02*
X7Y1419D01*
X1407Y1419D02*
X1414Y1419D01*
X0Y1418D02*
X7Y1418D01*
X1407Y1418D02*
X1414Y1418D01*
X0Y1417D02*
X7Y1417D01*
X1407Y1417D02*
X1414Y1417D01*
X0Y1416D02*
X7Y1416D01*
X1407Y1416D02*
X1414Y1416D01*
X0Y1415D02*
X7Y1415D01*
X1407Y1415D02*
X1414Y1415D01*
X0Y1414D02*
X7Y1414D01*
X1407Y1414D02*
X1414Y1414D01*
X0Y1413D02*
X7Y1413D01*
X1407Y1413D02*
X1414Y1413D01*
X0Y1412D02*
X7Y1412D01*
X1407Y1412D02*
X1414Y1412D01*
X0Y1411D02*
X7Y1411D01*
X1407Y1411D02*
X1414Y1411D01*
X0Y1410D02*
X7Y1410D01*
X1407Y1410D02*
X1414Y1410D01*
X0Y1409D02*
X7Y1409D01*
X1407Y1409D02*
X1414Y1409D01*
X0Y1408D02*
X7Y1408D01*
X1407Y1408D02*
X1414Y1408D01*
X0Y1407D02*
X7Y1407D01*
X1407Y1407D02*
X1414Y1407D01*
X0Y1406D02*
X7Y1406D01*
X1407Y1406D02*
X1414Y1406D01*
X0Y1405D02*
X7Y1405D01*
X1407Y1405D02*
X1414Y1405D01*
X0Y1404D02*
X7Y1404D01*
X1407Y1404D02*
X1414Y1404D01*
X0Y1403D02*
X7Y1403D01*
X1407Y1403D02*
X1414Y1403D01*
X0Y1402D02*
X7Y1402D01*
X1407Y1402D02*
X1414Y1402D01*
X0Y1401D02*
X7Y1401D01*
X1407Y1401D02*
X1414Y1401D01*
X0Y1400D02*
X7Y1400D01*
X1407Y1400D02*
X1414Y1400D01*
X0Y1399D02*
X7Y1399D01*
X1407Y1399D02*
X1414Y1399D01*
X0Y1398D02*
X7Y1398D01*
X1407Y1398D02*
X1414Y1398D01*
X0Y1397D02*
X7Y1397D01*
X1407Y1397D02*
X1414Y1397D01*
X0Y1396D02*
X7Y1396D01*
X1407Y1396D02*
X1414Y1396D01*
X0Y1395D02*
X7Y1395D01*
X1407Y1395D02*
X1414Y1395D01*
X0Y1394D02*
X7Y1394D01*
X1407Y1394D02*
X1414Y1394D01*
X0Y1393D02*
X7Y1393D01*
X1407Y1393D02*
X1414Y1393D01*
X0Y1392D02*
X7Y1392D01*
X1407Y1392D02*
X1414Y1392D01*
X0Y1391D02*
X7Y1391D01*
X1407Y1391D02*
X1414Y1391D01*
X0Y1390D02*
X7Y1390D01*
X1407Y1390D02*
X1414Y1390D01*
X0Y1389D02*
X7Y1389D01*
X1407Y1389D02*
X1414Y1389D01*
X0Y1388D02*
X7Y1388D01*
X1407Y1388D02*
X1414Y1388D01*
X0Y1387D02*
X7Y1387D01*
X1407Y1387D02*
X1414Y1387D01*
X0Y1386D02*
X7Y1386D01*
X1407Y1386D02*
X1414Y1386D01*
X0Y1385D02*
X7Y1385D01*
X1407Y1385D02*
X1414Y1385D01*
X0Y1384D02*
X7Y1384D01*
X1407Y1384D02*
X1414Y1384D01*
X0Y1383D02*
X7Y1383D01*
X1407Y1383D02*
X1414Y1383D01*
X0Y1382D02*
X7Y1382D01*
X1407Y1382D02*
X1414Y1382D01*
X0Y1381D02*
X7Y1381D01*
X1407Y1381D02*
X1414Y1381D01*
X0Y1380D02*
X7Y1380D01*
X1407Y1380D02*
X1414Y1380D01*
X0Y1379D02*
X7Y1379D01*
X1407Y1379D02*
X1414Y1379D01*
X0Y1378D02*
X7Y1378D01*
X1407Y1378D02*
X1414Y1378D01*
X0Y1377D02*
X7Y1377D01*
X1407Y1377D02*
X1414Y1377D01*
X0Y1376D02*
X7Y1376D01*
X1407Y1376D02*
X1414Y1376D01*
X0Y1375D02*
X7Y1375D01*
X1407Y1375D02*
X1414Y1375D01*
X0Y1374D02*
X7Y1374D01*
X1407Y1374D02*
X1414Y1374D01*
X0Y1373D02*
X7Y1373D01*
X1407Y1373D02*
X1414Y1373D01*
X0Y1372D02*
X7Y1372D01*
X1407Y1372D02*
X1414Y1372D01*
X0Y1371D02*
X7Y1371D01*
X1407Y1371D02*
X1414Y1371D01*
X0Y1370D02*
X7Y1370D01*
X1407Y1370D02*
X1414Y1370D01*
X0Y1369D02*
X7Y1369D01*
X1407Y1369D02*
X1414Y1369D01*
X0Y1368D02*
X7Y1368D01*
X1407Y1368D02*
X1414Y1368D01*
X0Y1367D02*
X7Y1367D01*
X1407Y1367D02*
X1414Y1367D01*
X0Y1366D02*
X7Y1366D01*
X1407Y1366D02*
X1414Y1366D01*
X0Y1365D02*
X7Y1365D01*
X1407Y1365D02*
X1414Y1365D01*
X0Y1364D02*
X7Y1364D01*
X1407Y1364D02*
X1414Y1364D01*
X0Y1363D02*
X7Y1363D01*
X1407Y1363D02*
X1414Y1363D01*
X0Y1362D02*
X7Y1362D01*
X1407Y1362D02*
X1414Y1362D01*
X0Y1361D02*
X7Y1361D01*
X1407Y1361D02*
X1414Y1361D01*
X0Y1360D02*
X7Y1360D01*
X1407Y1360D02*
X1414Y1360D01*
X0Y1359D02*
X7Y1359D01*
X1407Y1359D02*
X1414Y1359D01*
X0Y1358D02*
X7Y1358D01*
X1407Y1358D02*
X1414Y1358D01*
X0Y1357D02*
X7Y1357D01*
X1407Y1357D02*
X1414Y1357D01*
X0Y1356D02*
X7Y1356D01*
X1407Y1356D02*
X1414Y1356D01*
X0Y1355D02*
X7Y1355D01*
X1407Y1355D02*
X1414Y1355D01*
X0Y1354D02*
X7Y1354D01*
X1407Y1354D02*
X1414Y1354D01*
X0Y1353D02*
X7Y1353D01*
X1407Y1353D02*
X1414Y1353D01*
X0Y1352D02*
X7Y1352D01*
X1407Y1352D02*
X1414Y1352D01*
X0Y1351D02*
X7Y1351D01*
X1407Y1351D02*
X1414Y1351D01*
X0Y1350D02*
X7Y1350D01*
X1407Y1350D02*
X1414Y1350D01*
X0Y1349D02*
X7Y1349D01*
X1407Y1349D02*
X1414Y1349D01*
X0Y1348D02*
X7Y1348D01*
X1407Y1348D02*
X1414Y1348D01*
X0Y1347D02*
X7Y1347D01*
X1407Y1347D02*
X1414Y1347D01*
X0Y1346D02*
X7Y1346D01*
X1407Y1346D02*
X1414Y1346D01*
X0Y1345D02*
X7Y1345D01*
X1407Y1345D02*
X1414Y1345D01*
X0Y1344D02*
X7Y1344D01*
X1407Y1344D02*
X1414Y1344D01*
X0Y1343D02*
X7Y1343D01*
X1407Y1343D02*
X1414Y1343D01*
X0Y1342D02*
X7Y1342D01*
X1407Y1342D02*
X1414Y1342D01*
X0Y1341D02*
X7Y1341D01*
X1407Y1341D02*
X1414Y1341D01*
X0Y1340D02*
X7Y1340D01*
X1407Y1340D02*
X1414Y1340D01*
X0Y1339D02*
X7Y1339D01*
X1407Y1339D02*
X1414Y1339D01*
X0Y1338D02*
X7Y1338D01*
X1407Y1338D02*
X1414Y1338D01*
X0Y1337D02*
X7Y1337D01*
X1407Y1337D02*
X1414Y1337D01*
X0Y1336D02*
X7Y1336D01*
X1407Y1336D02*
X1414Y1336D01*
X0Y1335D02*
X7Y1335D01*
X1407Y1335D02*
X1414Y1335D01*
X0Y1334D02*
X7Y1334D01*
X1407Y1334D02*
X1414Y1334D01*
X0Y1333D02*
X7Y1333D01*
X1407Y1333D02*
X1414Y1333D01*
X0Y1332D02*
X7Y1332D01*
X1407Y1332D02*
X1414Y1332D01*
X0Y1331D02*
X7Y1331D01*
X1407Y1331D02*
X1414Y1331D01*
X0Y1330D02*
X7Y1330D01*
X1407Y1330D02*
X1414Y1330D01*
X0Y1329D02*
X7Y1329D01*
X1407Y1329D02*
X1414Y1329D01*
X0Y1328D02*
X7Y1328D01*
X1407Y1328D02*
X1414Y1328D01*
X0Y1327D02*
X7Y1327D01*
X1407Y1327D02*
X1414Y1327D01*
X0Y1326D02*
X7Y1326D01*
X1407Y1326D02*
X1414Y1326D01*
X0Y1325D02*
X7Y1325D01*
X1407Y1325D02*
X1414Y1325D01*
X0Y1324D02*
X7Y1324D01*
X1407Y1324D02*
X1414Y1324D01*
X0Y1323D02*
X7Y1323D01*
X1407Y1323D02*
X1414Y1323D01*
X0Y1322D02*
X7Y1322D01*
X1407Y1322D02*
X1414Y1322D01*
X0Y1321D02*
X7Y1321D01*
X1407Y1321D02*
X1414Y1321D01*
X0Y1320D02*
X7Y1320D01*
X1407Y1320D02*
X1414Y1320D01*
X0Y1319D02*
X7Y1319D01*
X1407Y1319D02*
X1414Y1319D01*
X0Y1318D02*
X7Y1318D01*
X1407Y1318D02*
X1414Y1318D01*
X0Y1317D02*
X7Y1317D01*
X1407Y1317D02*
X1414Y1317D01*
X0Y1316D02*
X7Y1316D01*
X1407Y1316D02*
X1414Y1316D01*
X0Y1315D02*
X7Y1315D01*
X1407Y1315D02*
X1414Y1315D01*
X0Y1314D02*
X7Y1314D01*
X1407Y1314D02*
X1414Y1314D01*
X0Y1313D02*
X7Y1313D01*
X1407Y1313D02*
X1414Y1313D01*
X0Y1312D02*
X7Y1312D01*
X1407Y1312D02*
X1414Y1312D01*
X0Y1311D02*
X7Y1311D01*
X1407Y1311D02*
X1414Y1311D01*
X0Y1310D02*
X7Y1310D01*
X1407Y1310D02*
X1414Y1310D01*
X0Y1309D02*
X7Y1309D01*
X1407Y1309D02*
X1414Y1309D01*
X0Y1308D02*
X7Y1308D01*
X1407Y1308D02*
X1414Y1308D01*
X0Y1307D02*
X7Y1307D01*
X1407Y1307D02*
X1414Y1307D01*
X0Y1306D02*
X7Y1306D01*
X1407Y1306D02*
X1414Y1306D01*
X0Y1305D02*
X7Y1305D01*
X1407Y1305D02*
X1414Y1305D01*
X0Y1304D02*
X7Y1304D01*
X1407Y1304D02*
X1414Y1304D01*
X0Y1303D02*
X7Y1303D01*
X1407Y1303D02*
X1414Y1303D01*
X0Y1302D02*
X7Y1302D01*
X1407Y1302D02*
X1414Y1302D01*
X0Y1301D02*
X7Y1301D01*
X1407Y1301D02*
X1414Y1301D01*
X0Y1300D02*
X7Y1300D01*
X1407Y1300D02*
X1414Y1300D01*
X0Y1299D02*
X7Y1299D01*
X1407Y1299D02*
X1414Y1299D01*
X0Y1298D02*
X7Y1298D01*
X1407Y1298D02*
X1414Y1298D01*
X0Y1297D02*
X7Y1297D01*
X1407Y1297D02*
X1414Y1297D01*
X0Y1296D02*
X7Y1296D01*
X1407Y1296D02*
X1414Y1296D01*
X0Y1295D02*
X7Y1295D01*
X1407Y1295D02*
X1414Y1295D01*
X0Y1294D02*
X7Y1294D01*
X1407Y1294D02*
X1414Y1294D01*
X0Y1293D02*
X7Y1293D01*
X1407Y1293D02*
X1414Y1293D01*
X0Y1292D02*
X7Y1292D01*
X1407Y1292D02*
X1414Y1292D01*
X0Y1291D02*
X7Y1291D01*
X1407Y1291D02*
X1414Y1291D01*
X0Y1290D02*
X7Y1290D01*
X1407Y1290D02*
X1414Y1290D01*
X0Y1289D02*
X7Y1289D01*
X1407Y1289D02*
X1414Y1289D01*
X0Y1288D02*
X7Y1288D01*
X1407Y1288D02*
X1414Y1288D01*
X0Y1287D02*
X7Y1287D01*
X1407Y1287D02*
X1414Y1287D01*
X0Y1286D02*
X7Y1286D01*
X1407Y1286D02*
X1414Y1286D01*
X0Y1285D02*
X7Y1285D01*
X1407Y1285D02*
X1414Y1285D01*
X0Y1284D02*
X7Y1284D01*
X1407Y1284D02*
X1414Y1284D01*
X0Y1283D02*
X7Y1283D01*
X1407Y1283D02*
X1414Y1283D01*
X0Y1282D02*
X7Y1282D01*
X1407Y1282D02*
X1414Y1282D01*
X0Y1281D02*
X7Y1281D01*
X1407Y1281D02*
X1414Y1281D01*
X0Y1280D02*
X7Y1280D01*
X1407Y1280D02*
X1414Y1280D01*
X0Y1279D02*
X7Y1279D01*
X1407Y1279D02*
X1414Y1279D01*
X0Y1278D02*
X7Y1278D01*
X1407Y1278D02*
X1414Y1278D01*
X0Y1277D02*
X7Y1277D01*
X1407Y1277D02*
X1414Y1277D01*
X0Y1276D02*
X7Y1276D01*
X1407Y1276D02*
X1414Y1276D01*
X0Y1275D02*
X7Y1275D01*
X1407Y1275D02*
X1414Y1275D01*
X0Y1274D02*
X7Y1274D01*
X1407Y1274D02*
X1414Y1274D01*
X0Y1273D02*
X7Y1273D01*
X1407Y1273D02*
X1414Y1273D01*
X0Y1272D02*
X7Y1272D01*
X1407Y1272D02*
X1414Y1272D01*
X0Y1271D02*
X7Y1271D01*
X1407Y1271D02*
X1414Y1271D01*
X0Y1270D02*
X7Y1270D01*
X1407Y1270D02*
X1414Y1270D01*
X0Y1269D02*
X7Y1269D01*
X1407Y1269D02*
X1414Y1269D01*
X0Y1268D02*
X7Y1268D01*
X1407Y1268D02*
X1414Y1268D01*
X0Y1267D02*
X7Y1267D01*
X1407Y1267D02*
X1414Y1267D01*
X0Y1266D02*
X7Y1266D01*
X1407Y1266D02*
X1414Y1266D01*
X0Y1265D02*
X7Y1265D01*
X1407Y1265D02*
X1414Y1265D01*
X0Y1264D02*
X7Y1264D01*
X1407Y1264D02*
X1414Y1264D01*
X0Y1263D02*
X7Y1263D01*
X1407Y1263D02*
X1414Y1263D01*
X0Y1262D02*
X7Y1262D01*
X1407Y1262D02*
X1414Y1262D01*
X0Y1261D02*
X7Y1261D01*
X1407Y1261D02*
X1414Y1261D01*
X0Y1260D02*
X7Y1260D01*
X1407Y1260D02*
X1414Y1260D01*
X0Y1259D02*
X7Y1259D01*
X1407Y1259D02*
X1414Y1259D01*
X0Y1258D02*
X7Y1258D01*
X1407Y1258D02*
X1414Y1258D01*
X0Y1257D02*
X7Y1257D01*
X1407Y1257D02*
X1414Y1257D01*
X0Y1256D02*
X7Y1256D01*
X1407Y1256D02*
X1414Y1256D01*
X0Y1255D02*
X7Y1255D01*
X1407Y1255D02*
X1414Y1255D01*
X0Y1254D02*
X7Y1254D01*
X1407Y1254D02*
X1414Y1254D01*
X0Y1253D02*
X7Y1253D01*
X1407Y1253D02*
X1414Y1253D01*
X0Y1252D02*
X7Y1252D01*
X1407Y1252D02*
X1414Y1252D01*
X0Y1251D02*
X7Y1251D01*
X1407Y1251D02*
X1414Y1251D01*
X0Y1250D02*
X7Y1250D01*
X1407Y1250D02*
X1414Y1250D01*
X0Y1249D02*
X7Y1249D01*
X1407Y1249D02*
X1414Y1249D01*
X0Y1248D02*
X7Y1248D01*
X1407Y1248D02*
X1414Y1248D01*
X0Y1247D02*
X7Y1247D01*
X1407Y1247D02*
X1414Y1247D01*
X0Y1246D02*
X7Y1246D01*
X1407Y1246D02*
X1414Y1246D01*
X0Y1245D02*
X7Y1245D01*
X1407Y1245D02*
X1414Y1245D01*
X0Y1244D02*
X7Y1244D01*
X1407Y1244D02*
X1414Y1244D01*
X0Y1243D02*
X7Y1243D01*
X1407Y1243D02*
X1414Y1243D01*
X0Y1242D02*
X7Y1242D01*
X1407Y1242D02*
X1414Y1242D01*
X0Y1241D02*
X7Y1241D01*
X1407Y1241D02*
X1414Y1241D01*
X0Y1240D02*
X7Y1240D01*
X1407Y1240D02*
X1414Y1240D01*
X0Y1239D02*
X7Y1239D01*
X1407Y1239D02*
X1414Y1239D01*
X0Y1238D02*
X7Y1238D01*
X1407Y1238D02*
X1414Y1238D01*
X0Y1237D02*
X7Y1237D01*
X1407Y1237D02*
X1414Y1237D01*
X0Y1236D02*
X7Y1236D01*
X1407Y1236D02*
X1414Y1236D01*
X0Y1235D02*
X7Y1235D01*
X1407Y1235D02*
X1414Y1235D01*
X0Y1234D02*
X7Y1234D01*
X1407Y1234D02*
X1414Y1234D01*
X0Y1233D02*
X7Y1233D01*
X1407Y1233D02*
X1414Y1233D01*
X0Y1232D02*
X7Y1232D01*
X1407Y1232D02*
X1414Y1232D01*
X0Y1231D02*
X7Y1231D01*
X1407Y1231D02*
X1414Y1231D01*
X0Y1230D02*
X7Y1230D01*
X1407Y1230D02*
X1414Y1230D01*
X0Y1229D02*
X7Y1229D01*
X1407Y1229D02*
X1414Y1229D01*
X0Y1228D02*
X7Y1228D01*
X1407Y1228D02*
X1414Y1228D01*
X0Y1227D02*
X7Y1227D01*
X1407Y1227D02*
X1414Y1227D01*
X0Y1226D02*
X7Y1226D01*
X1407Y1226D02*
X1414Y1226D01*
X0Y1225D02*
X7Y1225D01*
X1407Y1225D02*
X1414Y1225D01*
X0Y1224D02*
X7Y1224D01*
X1407Y1224D02*
X1414Y1224D01*
X0Y1223D02*
X7Y1223D01*
X1407Y1223D02*
X1414Y1223D01*
X0Y1222D02*
X7Y1222D01*
X1407Y1222D02*
X1414Y1222D01*
X0Y1221D02*
X7Y1221D01*
X1407Y1221D02*
X1414Y1221D01*
X0Y1220D02*
X7Y1220D01*
X1407Y1220D02*
X1414Y1220D01*
X0Y1219D02*
X7Y1219D01*
X1407Y1219D02*
X1414Y1219D01*
X0Y1218D02*
X7Y1218D01*
X1407Y1218D02*
X1414Y1218D01*
X0Y1217D02*
X7Y1217D01*
X1407Y1217D02*
X1414Y1217D01*
X0Y1216D02*
X7Y1216D01*
X1407Y1216D02*
X1414Y1216D01*
X0Y1215D02*
X7Y1215D01*
X1407Y1215D02*
X1414Y1215D01*
X0Y1214D02*
X7Y1214D01*
X1407Y1214D02*
X1414Y1214D01*
X0Y1213D02*
X7Y1213D01*
X1407Y1213D02*
X1414Y1213D01*
X0Y1212D02*
X7Y1212D01*
X1407Y1212D02*
X1414Y1212D01*
X0Y1211D02*
X7Y1211D01*
X1407Y1211D02*
X1414Y1211D01*
X0Y1210D02*
X7Y1210D01*
X1407Y1210D02*
X1414Y1210D01*
X0Y1209D02*
X7Y1209D01*
X1407Y1209D02*
X1414Y1209D01*
X0Y1208D02*
X7Y1208D01*
X1407Y1208D02*
X1414Y1208D01*
X0Y1207D02*
X7Y1207D01*
X1407Y1207D02*
X1414Y1207D01*
X0Y1206D02*
X7Y1206D01*
X1407Y1206D02*
X1414Y1206D01*
X0Y1205D02*
X7Y1205D01*
X1407Y1205D02*
X1414Y1205D01*
X0Y1204D02*
X7Y1204D01*
X1407Y1204D02*
X1414Y1204D01*
X0Y1203D02*
X7Y1203D01*
X1407Y1203D02*
X1414Y1203D01*
X0Y1202D02*
X7Y1202D01*
X1407Y1202D02*
X1414Y1202D01*
X0Y1201D02*
X7Y1201D01*
X1407Y1201D02*
X1414Y1201D01*
X0Y1200D02*
X7Y1200D01*
X1407Y1200D02*
X1414Y1200D01*
X0Y1199D02*
X7Y1199D01*
X1407Y1199D02*
X1414Y1199D01*
X0Y1198D02*
X7Y1198D01*
X1407Y1198D02*
X1414Y1198D01*
X0Y1197D02*
X7Y1197D01*
X1407Y1197D02*
X1414Y1197D01*
X0Y1196D02*
X7Y1196D01*
X1407Y1196D02*
X1414Y1196D01*
X0Y1195D02*
X7Y1195D01*
X1407Y1195D02*
X1414Y1195D01*
X0Y1194D02*
X7Y1194D01*
X1407Y1194D02*
X1414Y1194D01*
X0Y1193D02*
X7Y1193D01*
X1407Y1193D02*
X1414Y1193D01*
X0Y1192D02*
X7Y1192D01*
X1407Y1192D02*
X1414Y1192D01*
X0Y1191D02*
X7Y1191D01*
X1407Y1191D02*
X1414Y1191D01*
X0Y1190D02*
X7Y1190D01*
X1407Y1190D02*
X1414Y1190D01*
X0Y1189D02*
X7Y1189D01*
X1407Y1189D02*
X1414Y1189D01*
X0Y1188D02*
X7Y1188D01*
X1407Y1188D02*
X1414Y1188D01*
X0Y1187D02*
X7Y1187D01*
X1407Y1187D02*
X1414Y1187D01*
X0Y1186D02*
X7Y1186D01*
X1407Y1186D02*
X1414Y1186D01*
X0Y1185D02*
X7Y1185D01*
X1407Y1185D02*
X1414Y1185D01*
X0Y1184D02*
X7Y1184D01*
X1407Y1184D02*
X1414Y1184D01*
X0Y1183D02*
X7Y1183D01*
X1407Y1183D02*
X1414Y1183D01*
X0Y1182D02*
X7Y1182D01*
X1407Y1182D02*
X1414Y1182D01*
X0Y1181D02*
X7Y1181D01*
X1407Y1181D02*
X1414Y1181D01*
X0Y1180D02*
X7Y1180D01*
X1407Y1180D02*
X1414Y1180D01*
X0Y1179D02*
X7Y1179D01*
X1407Y1179D02*
X1414Y1179D01*
X0Y1178D02*
X7Y1178D01*
X1407Y1178D02*
X1414Y1178D01*
X0Y1177D02*
X7Y1177D01*
X1407Y1177D02*
X1414Y1177D01*
X0Y1176D02*
X7Y1176D01*
X1407Y1176D02*
X1414Y1176D01*
X0Y1175D02*
X7Y1175D01*
X1407Y1175D02*
X1414Y1175D01*
X0Y1174D02*
X7Y1174D01*
X1407Y1174D02*
X1414Y1174D01*
X0Y1173D02*
X7Y1173D01*
X1407Y1173D02*
X1414Y1173D01*
X0Y1172D02*
X7Y1172D01*
X1407Y1172D02*
X1414Y1172D01*
X0Y1171D02*
X7Y1171D01*
X1407Y1171D02*
X1414Y1171D01*
X0Y1170D02*
X7Y1170D01*
X1407Y1170D02*
X1414Y1170D01*
X0Y1169D02*
X7Y1169D01*
X1407Y1169D02*
X1414Y1169D01*
X0Y1168D02*
X7Y1168D01*
X1407Y1168D02*
X1414Y1168D01*
X0Y1167D02*
X7Y1167D01*
X1407Y1167D02*
X1414Y1167D01*
X0Y1166D02*
X7Y1166D01*
X1407Y1166D02*
X1414Y1166D01*
X0Y1165D02*
X7Y1165D01*
X1407Y1165D02*
X1414Y1165D01*
X0Y1164D02*
X7Y1164D01*
X1407Y1164D02*
X1414Y1164D01*
X0Y1163D02*
X7Y1163D01*
X1407Y1163D02*
X1414Y1163D01*
X0Y1162D02*
X7Y1162D01*
X1407Y1162D02*
X1414Y1162D01*
X0Y1161D02*
X7Y1161D01*
X1407Y1161D02*
X1414Y1161D01*
X0Y1160D02*
X7Y1160D01*
X1407Y1160D02*
X1414Y1160D01*
X0Y1159D02*
X7Y1159D01*
X1407Y1159D02*
X1414Y1159D01*
X0Y1158D02*
X7Y1158D01*
X1407Y1158D02*
X1414Y1158D01*
X0Y1157D02*
X7Y1157D01*
X1407Y1157D02*
X1414Y1157D01*
X0Y1156D02*
X7Y1156D01*
X1407Y1156D02*
X1414Y1156D01*
X0Y1155D02*
X7Y1155D01*
X1407Y1155D02*
X1414Y1155D01*
X0Y1154D02*
X7Y1154D01*
X1407Y1154D02*
X1414Y1154D01*
X0Y1153D02*
X7Y1153D01*
X1407Y1153D02*
X1414Y1153D01*
X0Y1152D02*
X7Y1152D01*
X1407Y1152D02*
X1414Y1152D01*
X0Y1151D02*
X7Y1151D01*
X1407Y1151D02*
X1414Y1151D01*
X0Y1150D02*
X7Y1150D01*
X1407Y1150D02*
X1414Y1150D01*
X0Y1149D02*
X7Y1149D01*
X1407Y1149D02*
X1414Y1149D01*
X0Y1148D02*
X7Y1148D01*
X1407Y1148D02*
X1414Y1148D01*
X0Y1147D02*
X7Y1147D01*
X1407Y1147D02*
X1414Y1147D01*
X0Y1146D02*
X7Y1146D01*
X1407Y1146D02*
X1414Y1146D01*
X0Y1145D02*
X7Y1145D01*
X1407Y1145D02*
X1414Y1145D01*
X0Y1144D02*
X7Y1144D01*
X1407Y1144D02*
X1414Y1144D01*
X0Y1143D02*
X7Y1143D01*
X1407Y1143D02*
X1414Y1143D01*
X0Y1142D02*
X7Y1142D01*
X1407Y1142D02*
X1414Y1142D01*
X0Y1141D02*
X7Y1141D01*
X1407Y1141D02*
X1414Y1141D01*
X0Y1140D02*
X7Y1140D01*
X1407Y1140D02*
X1414Y1140D01*
X0Y1139D02*
X7Y1139D01*
X1407Y1139D02*
X1414Y1139D01*
X0Y1138D02*
X7Y1138D01*
X1407Y1138D02*
X1414Y1138D01*
X0Y1137D02*
X7Y1137D01*
X1407Y1137D02*
X1414Y1137D01*
X0Y1136D02*
X7Y1136D01*
X1407Y1136D02*
X1414Y1136D01*
X0Y1135D02*
X7Y1135D01*
X1407Y1135D02*
X1414Y1135D01*
X0Y1134D02*
X7Y1134D01*
X1407Y1134D02*
X1414Y1134D01*
X0Y1133D02*
X7Y1133D01*
X1407Y1133D02*
X1414Y1133D01*
X0Y1132D02*
X7Y1132D01*
X1407Y1132D02*
X1414Y1132D01*
X0Y1131D02*
X7Y1131D01*
X1407Y1131D02*
X1414Y1131D01*
X0Y1130D02*
X7Y1130D01*
X1407Y1130D02*
X1414Y1130D01*
X0Y1129D02*
X7Y1129D01*
X1407Y1129D02*
X1414Y1129D01*
X0Y1128D02*
X7Y1128D01*
X1407Y1128D02*
X1414Y1128D01*
X0Y1127D02*
X7Y1127D01*
X1407Y1127D02*
X1414Y1127D01*
X0Y1126D02*
X7Y1126D01*
X1407Y1126D02*
X1414Y1126D01*
X0Y1125D02*
X7Y1125D01*
X1407Y1125D02*
X1414Y1125D01*
X0Y1124D02*
X7Y1124D01*
X1407Y1124D02*
X1414Y1124D01*
X0Y1123D02*
X7Y1123D01*
X1407Y1123D02*
X1414Y1123D01*
X0Y1122D02*
X7Y1122D01*
X1407Y1122D02*
X1414Y1122D01*
X0Y1121D02*
X7Y1121D01*
X1407Y1121D02*
X1414Y1121D01*
X0Y1120D02*
X7Y1120D01*
X1407Y1120D02*
X1414Y1120D01*
X0Y1119D02*
X7Y1119D01*
X1407Y1119D02*
X1414Y1119D01*
X0Y1118D02*
X7Y1118D01*
X1407Y1118D02*
X1414Y1118D01*
X0Y1117D02*
X7Y1117D01*
X1407Y1117D02*
X1414Y1117D01*
X0Y1116D02*
X7Y1116D01*
X1407Y1116D02*
X1414Y1116D01*
X0Y1115D02*
X7Y1115D01*
X1407Y1115D02*
X1414Y1115D01*
X0Y1114D02*
X7Y1114D01*
X1407Y1114D02*
X1414Y1114D01*
X0Y1113D02*
X7Y1113D01*
X1407Y1113D02*
X1414Y1113D01*
X0Y1112D02*
X7Y1112D01*
X1407Y1112D02*
X1414Y1112D01*
X0Y1111D02*
X7Y1111D01*
X1407Y1111D02*
X1414Y1111D01*
X0Y1110D02*
X7Y1110D01*
X1407Y1110D02*
X1414Y1110D01*
X0Y1109D02*
X7Y1109D01*
X1407Y1109D02*
X1414Y1109D01*
X0Y1108D02*
X7Y1108D01*
X1407Y1108D02*
X1414Y1108D01*
X0Y1107D02*
X7Y1107D01*
X1407Y1107D02*
X1414Y1107D01*
X0Y1106D02*
X7Y1106D01*
X1407Y1106D02*
X1414Y1106D01*
X0Y1105D02*
X7Y1105D01*
X1407Y1105D02*
X1414Y1105D01*
X0Y1104D02*
X7Y1104D01*
X1407Y1104D02*
X1414Y1104D01*
X0Y1103D02*
X7Y1103D01*
X1407Y1103D02*
X1414Y1103D01*
X0Y1102D02*
X7Y1102D01*
X1407Y1102D02*
X1414Y1102D01*
X0Y1101D02*
X7Y1101D01*
X1407Y1101D02*
X1414Y1101D01*
X0Y1100D02*
X7Y1100D01*
X1407Y1100D02*
X1414Y1100D01*
X0Y1099D02*
X7Y1099D01*
X1407Y1099D02*
X1414Y1099D01*
X0Y1098D02*
X7Y1098D01*
X1407Y1098D02*
X1414Y1098D01*
X0Y1097D02*
X7Y1097D01*
X1407Y1097D02*
X1414Y1097D01*
X0Y1096D02*
X7Y1096D01*
X1407Y1096D02*
X1414Y1096D01*
X0Y1095D02*
X7Y1095D01*
X1407Y1095D02*
X1414Y1095D01*
X0Y1094D02*
X7Y1094D01*
X1407Y1094D02*
X1414Y1094D01*
X0Y1093D02*
X7Y1093D01*
X1407Y1093D02*
X1414Y1093D01*
X0Y1092D02*
X7Y1092D01*
X1407Y1092D02*
X1414Y1092D01*
X0Y1091D02*
X7Y1091D01*
X1407Y1091D02*
X1414Y1091D01*
X0Y1090D02*
X7Y1090D01*
X1407Y1090D02*
X1414Y1090D01*
X0Y1089D02*
X7Y1089D01*
X1407Y1089D02*
X1414Y1089D01*
X0Y1088D02*
X7Y1088D01*
X1407Y1088D02*
X1414Y1088D01*
X0Y1087D02*
X7Y1087D01*
X1407Y1087D02*
X1414Y1087D01*
X0Y1086D02*
X7Y1086D01*
X1407Y1086D02*
X1414Y1086D01*
X0Y1085D02*
X7Y1085D01*
X1407Y1085D02*
X1414Y1085D01*
X0Y1084D02*
X7Y1084D01*
X1407Y1084D02*
X1414Y1084D01*
X0Y1083D02*
X7Y1083D01*
X1407Y1083D02*
X1414Y1083D01*
X0Y1082D02*
X7Y1082D01*
X1407Y1082D02*
X1414Y1082D01*
X0Y1081D02*
X7Y1081D01*
X1407Y1081D02*
X1414Y1081D01*
X0Y1080D02*
X7Y1080D01*
X1407Y1080D02*
X1414Y1080D01*
X0Y1079D02*
X7Y1079D01*
X1407Y1079D02*
X1414Y1079D01*
X0Y1078D02*
X7Y1078D01*
X1407Y1078D02*
X1414Y1078D01*
X0Y1077D02*
X7Y1077D01*
X1407Y1077D02*
X1414Y1077D01*
X0Y1076D02*
X7Y1076D01*
X1407Y1076D02*
X1414Y1076D01*
X0Y1075D02*
X7Y1075D01*
X1407Y1075D02*
X1414Y1075D01*
X0Y1074D02*
X7Y1074D01*
X1407Y1074D02*
X1414Y1074D01*
X0Y1073D02*
X7Y1073D01*
X1407Y1073D02*
X1414Y1073D01*
X0Y1072D02*
X7Y1072D01*
X1407Y1072D02*
X1414Y1072D01*
X0Y1071D02*
X7Y1071D01*
X1407Y1071D02*
X1414Y1071D01*
X0Y1070D02*
X7Y1070D01*
X1407Y1070D02*
X1414Y1070D01*
X0Y1069D02*
X7Y1069D01*
X1407Y1069D02*
X1414Y1069D01*
X0Y1068D02*
X7Y1068D01*
X1407Y1068D02*
X1414Y1068D01*
X0Y1067D02*
X7Y1067D01*
X1407Y1067D02*
X1414Y1067D01*
X0Y1066D02*
X7Y1066D01*
X1407Y1066D02*
X1414Y1066D01*
X0Y1065D02*
X7Y1065D01*
X1407Y1065D02*
X1414Y1065D01*
X0Y1064D02*
X7Y1064D01*
X1407Y1064D02*
X1414Y1064D01*
X0Y1063D02*
X7Y1063D01*
X1407Y1063D02*
X1414Y1063D01*
X0Y1062D02*
X7Y1062D01*
X1407Y1062D02*
X1414Y1062D01*
X0Y1061D02*
X7Y1061D01*
X1407Y1061D02*
X1414Y1061D01*
X0Y1060D02*
X7Y1060D01*
X1407Y1060D02*
X1414Y1060D01*
X0Y1059D02*
X7Y1059D01*
X1407Y1059D02*
X1414Y1059D01*
X0Y1058D02*
X7Y1058D01*
X1407Y1058D02*
X1414Y1058D01*
X0Y1057D02*
X7Y1057D01*
X1407Y1057D02*
X1414Y1057D01*
X0Y1056D02*
X7Y1056D01*
X1407Y1056D02*
X1414Y1056D01*
X0Y1055D02*
X7Y1055D01*
X1407Y1055D02*
X1414Y1055D01*
X0Y1054D02*
X7Y1054D01*
X1407Y1054D02*
X1414Y1054D01*
X0Y1053D02*
X7Y1053D01*
X1407Y1053D02*
X1414Y1053D01*
X0Y1052D02*
X7Y1052D01*
X1407Y1052D02*
X1414Y1052D01*
X0Y1051D02*
X7Y1051D01*
X1407Y1051D02*
X1414Y1051D01*
X0Y1050D02*
X7Y1050D01*
X1407Y1050D02*
X1414Y1050D01*
X0Y1049D02*
X7Y1049D01*
X1407Y1049D02*
X1414Y1049D01*
X0Y1048D02*
X7Y1048D01*
X1407Y1048D02*
X1414Y1048D01*
X0Y1047D02*
X7Y1047D01*
X1407Y1047D02*
X1414Y1047D01*
X0Y1046D02*
X7Y1046D01*
X1407Y1046D02*
X1414Y1046D01*
X0Y1045D02*
X7Y1045D01*
X1407Y1045D02*
X1414Y1045D01*
X0Y1044D02*
X7Y1044D01*
X1407Y1044D02*
X1414Y1044D01*
X0Y1043D02*
X7Y1043D01*
X1407Y1043D02*
X1414Y1043D01*
X0Y1042D02*
X7Y1042D01*
X1407Y1042D02*
X1414Y1042D01*
X0Y1041D02*
X7Y1041D01*
X1407Y1041D02*
X1414Y1041D01*
X0Y1040D02*
X7Y1040D01*
X1407Y1040D02*
X1414Y1040D01*
X0Y1039D02*
X7Y1039D01*
X1407Y1039D02*
X1414Y1039D01*
X0Y1038D02*
X7Y1038D01*
X1407Y1038D02*
X1414Y1038D01*
X0Y1037D02*
X7Y1037D01*
X1407Y1037D02*
X1414Y1037D01*
X0Y1036D02*
X7Y1036D01*
X1407Y1036D02*
X1414Y1036D01*
X0Y1035D02*
X7Y1035D01*
X1407Y1035D02*
X1414Y1035D01*
X0Y1034D02*
X7Y1034D01*
X1407Y1034D02*
X1414Y1034D01*
X0Y1033D02*
X7Y1033D01*
X1407Y1033D02*
X1414Y1033D01*
X0Y1032D02*
X7Y1032D01*
X1407Y1032D02*
X1414Y1032D01*
X0Y1031D02*
X7Y1031D01*
X1407Y1031D02*
X1414Y1031D01*
X0Y1030D02*
X7Y1030D01*
X1407Y1030D02*
X1414Y1030D01*
X0Y1029D02*
X7Y1029D01*
X1407Y1029D02*
X1414Y1029D01*
X0Y1028D02*
X7Y1028D01*
X1407Y1028D02*
X1414Y1028D01*
X0Y1027D02*
X7Y1027D01*
X1407Y1027D02*
X1414Y1027D01*
X0Y1026D02*
X7Y1026D01*
X1407Y1026D02*
X1414Y1026D01*
X0Y1025D02*
X7Y1025D01*
X1407Y1025D02*
X1414Y1025D01*
X0Y1024D02*
X7Y1024D01*
X1407Y1024D02*
X1414Y1024D01*
X0Y1023D02*
X7Y1023D01*
X1407Y1023D02*
X1414Y1023D01*
X0Y1022D02*
X7Y1022D01*
X1407Y1022D02*
X1414Y1022D01*
X0Y1021D02*
X7Y1021D01*
X1407Y1021D02*
X1414Y1021D01*
X0Y1020D02*
X7Y1020D01*
X1407Y1020D02*
X1414Y1020D01*
X0Y1019D02*
X7Y1019D01*
X1407Y1019D02*
X1414Y1019D01*
X0Y1018D02*
X7Y1018D01*
X1407Y1018D02*
X1414Y1018D01*
X0Y1017D02*
X7Y1017D01*
X1407Y1017D02*
X1414Y1017D01*
X0Y1016D02*
X7Y1016D01*
X1407Y1016D02*
X1414Y1016D01*
X0Y1015D02*
X7Y1015D01*
X1407Y1015D02*
X1414Y1015D01*
X0Y1014D02*
X7Y1014D01*
X1407Y1014D02*
X1414Y1014D01*
X0Y1013D02*
X7Y1013D01*
X1407Y1013D02*
X1414Y1013D01*
X0Y1012D02*
X7Y1012D01*
X1407Y1012D02*
X1414Y1012D01*
X0Y1011D02*
X7Y1011D01*
X1407Y1011D02*
X1414Y1011D01*
X0Y1010D02*
X7Y1010D01*
X1407Y1010D02*
X1414Y1010D01*
X0Y1009D02*
X7Y1009D01*
X1407Y1009D02*
X1414Y1009D01*
X0Y1008D02*
X7Y1008D01*
X1407Y1008D02*
X1414Y1008D01*
X0Y1007D02*
X7Y1007D01*
X1407Y1007D02*
X1414Y1007D01*
X0Y1006D02*
X7Y1006D01*
X1407Y1006D02*
X1414Y1006D01*
X0Y1005D02*
X7Y1005D01*
X1407Y1005D02*
X1414Y1005D01*
X0Y1004D02*
X7Y1004D01*
X1407Y1004D02*
X1414Y1004D01*
X0Y1003D02*
X7Y1003D01*
X1407Y1003D02*
X1414Y1003D01*
X0Y1002D02*
X7Y1002D01*
X1407Y1002D02*
X1414Y1002D01*
X0Y1001D02*
X7Y1001D01*
X1407Y1001D02*
X1414Y1001D01*
X0Y1000D02*
X7Y1000D01*
X1407Y1000D02*
X1414Y1000D01*
X0Y999D02*
X7Y999D01*
X1407Y999D02*
X1414Y999D01*
X0Y998D02*
X7Y998D01*
X1407Y998D02*
X1414Y998D01*
X0Y997D02*
X7Y997D01*
X1407Y997D02*
X1414Y997D01*
X0Y996D02*
X7Y996D01*
X1407Y996D02*
X1414Y996D01*
X0Y995D02*
X7Y995D01*
X1407Y995D02*
X1414Y995D01*
X0Y994D02*
X7Y994D01*
X1407Y994D02*
X1414Y994D01*
X0Y993D02*
X7Y993D01*
X1407Y993D02*
X1414Y993D01*
X0Y992D02*
X7Y992D01*
X1407Y992D02*
X1414Y992D01*
X0Y991D02*
X7Y991D01*
X1407Y991D02*
X1414Y991D01*
X0Y990D02*
X7Y990D01*
X1407Y990D02*
X1414Y990D01*
X0Y989D02*
X7Y989D01*
X1407Y989D02*
X1414Y989D01*
X0Y988D02*
X7Y988D01*
X1407Y988D02*
X1414Y988D01*
X0Y987D02*
X7Y987D01*
X1407Y987D02*
X1414Y987D01*
X0Y986D02*
X7Y986D01*
X1407Y986D02*
X1414Y986D01*
X0Y985D02*
X7Y985D01*
X1407Y985D02*
X1414Y985D01*
X0Y984D02*
X7Y984D01*
X1407Y984D02*
X1414Y984D01*
X0Y983D02*
X7Y983D01*
X1407Y983D02*
X1414Y983D01*
X0Y982D02*
X7Y982D01*
X1407Y982D02*
X1414Y982D01*
X0Y981D02*
X7Y981D01*
X1407Y981D02*
X1414Y981D01*
X0Y980D02*
X7Y980D01*
X1407Y980D02*
X1414Y980D01*
X0Y979D02*
X7Y979D01*
X1407Y979D02*
X1414Y979D01*
X0Y978D02*
X7Y978D01*
X1407Y978D02*
X1414Y978D01*
X0Y977D02*
X7Y977D01*
X1407Y977D02*
X1414Y977D01*
X0Y976D02*
X7Y976D01*
X1407Y976D02*
X1414Y976D01*
X0Y975D02*
X7Y975D01*
X1407Y975D02*
X1414Y975D01*
X0Y974D02*
X7Y974D01*
X1407Y974D02*
X1414Y974D01*
X0Y973D02*
X7Y973D01*
X1407Y973D02*
X1414Y973D01*
X0Y972D02*
X7Y972D01*
X1407Y972D02*
X1414Y972D01*
X0Y971D02*
X7Y971D01*
X1407Y971D02*
X1414Y971D01*
X0Y970D02*
X7Y970D01*
X1407Y970D02*
X1414Y970D01*
X0Y969D02*
X7Y969D01*
X1407Y969D02*
X1414Y969D01*
X0Y968D02*
X7Y968D01*
X1407Y968D02*
X1414Y968D01*
X0Y967D02*
X7Y967D01*
X1407Y967D02*
X1414Y967D01*
X0Y966D02*
X7Y966D01*
X1407Y966D02*
X1414Y966D01*
X0Y965D02*
X7Y965D01*
X1407Y965D02*
X1414Y965D01*
X0Y964D02*
X7Y964D01*
X1407Y964D02*
X1414Y964D01*
X0Y963D02*
X7Y963D01*
X1407Y963D02*
X1414Y963D01*
X0Y962D02*
X7Y962D01*
X1407Y962D02*
X1414Y962D01*
X0Y961D02*
X7Y961D01*
X1407Y961D02*
X1414Y961D01*
X0Y960D02*
X7Y960D01*
X1407Y960D02*
X1414Y960D01*
X0Y959D02*
X7Y959D01*
X1407Y959D02*
X1414Y959D01*
X0Y958D02*
X7Y958D01*
X1407Y958D02*
X1414Y958D01*
X0Y957D02*
X7Y957D01*
X1407Y957D02*
X1414Y957D01*
X0Y956D02*
X7Y956D01*
X1407Y956D02*
X1414Y956D01*
X0Y955D02*
X7Y955D01*
X1407Y955D02*
X1414Y955D01*
X0Y954D02*
X7Y954D01*
X1407Y954D02*
X1414Y954D01*
X0Y953D02*
X7Y953D01*
X1407Y953D02*
X1414Y953D01*
X0Y952D02*
X7Y952D01*
X1407Y952D02*
X1414Y952D01*
X0Y951D02*
X7Y951D01*
X1407Y951D02*
X1414Y951D01*
X0Y950D02*
X7Y950D01*
X1407Y950D02*
X1414Y950D01*
X0Y949D02*
X7Y949D01*
X1407Y949D02*
X1414Y949D01*
X0Y948D02*
X7Y948D01*
X1407Y948D02*
X1414Y948D01*
X0Y947D02*
X7Y947D01*
X1407Y947D02*
X1414Y947D01*
X0Y946D02*
X7Y946D01*
X1407Y946D02*
X1414Y946D01*
X0Y945D02*
X7Y945D01*
X1407Y945D02*
X1414Y945D01*
X0Y944D02*
X7Y944D01*
X1407Y944D02*
X1414Y944D01*
X0Y943D02*
X7Y943D01*
X1407Y943D02*
X1414Y943D01*
X0Y942D02*
X7Y942D01*
X1407Y942D02*
X1414Y942D01*
X0Y941D02*
X7Y941D01*
X1407Y941D02*
X1414Y941D01*
X0Y940D02*
X7Y940D01*
X1407Y940D02*
X1414Y940D01*
X0Y939D02*
X7Y939D01*
X1407Y939D02*
X1414Y939D01*
X0Y938D02*
X7Y938D01*
X1407Y938D02*
X1414Y938D01*
X0Y937D02*
X7Y937D01*
X1407Y937D02*
X1414Y937D01*
X0Y936D02*
X7Y936D01*
X1407Y936D02*
X1414Y936D01*
X0Y935D02*
X7Y935D01*
X1407Y935D02*
X1414Y935D01*
X0Y934D02*
X7Y934D01*
X1407Y934D02*
X1414Y934D01*
X0Y933D02*
X7Y933D01*
X1407Y933D02*
X1414Y933D01*
X0Y932D02*
X7Y932D01*
X1407Y932D02*
X1414Y932D01*
X0Y931D02*
X7Y931D01*
X1407Y931D02*
X1414Y931D01*
X0Y930D02*
X7Y930D01*
X1407Y930D02*
X1414Y930D01*
X0Y929D02*
X7Y929D01*
X1407Y929D02*
X1414Y929D01*
X0Y928D02*
X7Y928D01*
X1407Y928D02*
X1414Y928D01*
X0Y927D02*
X7Y927D01*
X1407Y927D02*
X1414Y927D01*
X0Y926D02*
X7Y926D01*
X1407Y926D02*
X1414Y926D01*
X0Y925D02*
X7Y925D01*
X1407Y925D02*
X1414Y925D01*
X0Y924D02*
X7Y924D01*
X1407Y924D02*
X1414Y924D01*
X0Y923D02*
X7Y923D01*
X1407Y923D02*
X1414Y923D01*
X0Y922D02*
X7Y922D01*
X1407Y922D02*
X1414Y922D01*
X0Y921D02*
X7Y921D01*
X1407Y921D02*
X1414Y921D01*
X0Y920D02*
X7Y920D01*
X1407Y920D02*
X1414Y920D01*
X0Y919D02*
X7Y919D01*
X1407Y919D02*
X1414Y919D01*
X0Y918D02*
X7Y918D01*
X1407Y918D02*
X1414Y918D01*
X0Y917D02*
X7Y917D01*
X1407Y917D02*
X1414Y917D01*
X0Y916D02*
X7Y916D01*
X1407Y916D02*
X1414Y916D01*
X0Y915D02*
X7Y915D01*
X1407Y915D02*
X1414Y915D01*
X0Y914D02*
X7Y914D01*
X1407Y914D02*
X1414Y914D01*
X0Y913D02*
X7Y913D01*
X1407Y913D02*
X1414Y913D01*
X0Y912D02*
X7Y912D01*
X1407Y912D02*
X1414Y912D01*
X0Y911D02*
X7Y911D01*
X1407Y911D02*
X1414Y911D01*
X0Y910D02*
X7Y910D01*
X1407Y910D02*
X1414Y910D01*
X0Y909D02*
X7Y909D01*
X1407Y909D02*
X1414Y909D01*
X0Y908D02*
X7Y908D01*
X1407Y908D02*
X1414Y908D01*
X0Y907D02*
X7Y907D01*
X1407Y907D02*
X1414Y907D01*
X0Y906D02*
X7Y906D01*
X1407Y906D02*
X1414Y906D01*
X0Y905D02*
X7Y905D01*
X1407Y905D02*
X1414Y905D01*
X0Y904D02*
X7Y904D01*
X1407Y904D02*
X1414Y904D01*
X0Y903D02*
X7Y903D01*
X1407Y903D02*
X1414Y903D01*
X0Y902D02*
X7Y902D01*
X1407Y902D02*
X1414Y902D01*
X0Y901D02*
X7Y901D01*
X1407Y901D02*
X1414Y901D01*
X0Y900D02*
X7Y900D01*
X1407Y900D02*
X1414Y900D01*
X0Y899D02*
X7Y899D01*
X1407Y899D02*
X1414Y899D01*
X0Y898D02*
X7Y898D01*
X1407Y898D02*
X1414Y898D01*
X0Y897D02*
X7Y897D01*
X1407Y897D02*
X1414Y897D01*
X0Y896D02*
X7Y896D01*
X1407Y896D02*
X1414Y896D01*
X0Y895D02*
X7Y895D01*
X1407Y895D02*
X1414Y895D01*
X0Y894D02*
X7Y894D01*
X1407Y894D02*
X1414Y894D01*
X0Y893D02*
X7Y893D01*
X1407Y893D02*
X1414Y893D01*
X0Y892D02*
X7Y892D01*
X1407Y892D02*
X1414Y892D01*
X0Y891D02*
X7Y891D01*
X1407Y891D02*
X1414Y891D01*
X0Y890D02*
X7Y890D01*
X1407Y890D02*
X1414Y890D01*
X0Y889D02*
X7Y889D01*
X1407Y889D02*
X1414Y889D01*
X0Y888D02*
X7Y888D01*
X1407Y888D02*
X1414Y888D01*
X0Y887D02*
X7Y887D01*
X1407Y887D02*
X1414Y887D01*
X0Y886D02*
X7Y886D01*
X1407Y886D02*
X1414Y886D01*
X0Y885D02*
X7Y885D01*
X1407Y885D02*
X1414Y885D01*
X0Y884D02*
X7Y884D01*
X1407Y884D02*
X1414Y884D01*
X0Y883D02*
X7Y883D01*
X1407Y883D02*
X1414Y883D01*
X0Y882D02*
X7Y882D01*
X1407Y882D02*
X1414Y882D01*
X0Y881D02*
X7Y881D01*
X1407Y881D02*
X1414Y881D01*
X0Y880D02*
X7Y880D01*
X1407Y880D02*
X1414Y880D01*
X0Y879D02*
X7Y879D01*
X1407Y879D02*
X1414Y879D01*
X0Y878D02*
X7Y878D01*
X1407Y878D02*
X1414Y878D01*
X0Y877D02*
X7Y877D01*
X1407Y877D02*
X1414Y877D01*
X0Y876D02*
X7Y876D01*
X1407Y876D02*
X1414Y876D01*
X0Y875D02*
X7Y875D01*
X1407Y875D02*
X1414Y875D01*
X0Y874D02*
X7Y874D01*
X1407Y874D02*
X1414Y874D01*
X0Y873D02*
X7Y873D01*
X1407Y873D02*
X1414Y873D01*
X0Y872D02*
X7Y872D01*
X1407Y872D02*
X1414Y872D01*
X0Y871D02*
X7Y871D01*
X1407Y871D02*
X1414Y871D01*
X0Y870D02*
X7Y870D01*
X1407Y870D02*
X1414Y870D01*
X0Y869D02*
X7Y869D01*
X1407Y869D02*
X1414Y869D01*
X0Y868D02*
X7Y868D01*
X1407Y868D02*
X1414Y868D01*
X0Y867D02*
X7Y867D01*
X1407Y867D02*
X1414Y867D01*
X0Y866D02*
X7Y866D01*
X1407Y866D02*
X1414Y866D01*
X0Y865D02*
X7Y865D01*
X1407Y865D02*
X1414Y865D01*
X0Y864D02*
X7Y864D01*
X1407Y864D02*
X1414Y864D01*
X0Y863D02*
X7Y863D01*
X1407Y863D02*
X1414Y863D01*
X0Y862D02*
X7Y862D01*
X1407Y862D02*
X1414Y862D01*
X0Y861D02*
X7Y861D01*
X1407Y861D02*
X1414Y861D01*
X0Y860D02*
X7Y860D01*
X1407Y860D02*
X1414Y860D01*
X0Y859D02*
X7Y859D01*
X1407Y859D02*
X1414Y859D01*
X0Y858D02*
X7Y858D01*
X1407Y858D02*
X1414Y858D01*
X0Y857D02*
X7Y857D01*
X1407Y857D02*
X1414Y857D01*
X0Y856D02*
X7Y856D01*
X1407Y856D02*
X1414Y856D01*
X0Y855D02*
X7Y855D01*
X1407Y855D02*
X1414Y855D01*
X0Y854D02*
X7Y854D01*
X1407Y854D02*
X1414Y854D01*
X0Y853D02*
X7Y853D01*
X1407Y853D02*
X1414Y853D01*
X0Y852D02*
X7Y852D01*
X1407Y852D02*
X1414Y852D01*
X0Y851D02*
X7Y851D01*
X1407Y851D02*
X1414Y851D01*
X0Y850D02*
X7Y850D01*
X1407Y850D02*
X1414Y850D01*
X0Y849D02*
X7Y849D01*
X1407Y849D02*
X1414Y849D01*
X0Y848D02*
X7Y848D01*
X1407Y848D02*
X1414Y848D01*
X0Y847D02*
X7Y847D01*
X1407Y847D02*
X1414Y847D01*
X0Y846D02*
X7Y846D01*
X1407Y846D02*
X1414Y846D01*
X0Y845D02*
X7Y845D01*
X1407Y845D02*
X1414Y845D01*
X0Y844D02*
X7Y844D01*
X1407Y844D02*
X1414Y844D01*
X0Y843D02*
X7Y843D01*
X1407Y843D02*
X1414Y843D01*
X0Y842D02*
X7Y842D01*
X1407Y842D02*
X1414Y842D01*
X0Y841D02*
X7Y841D01*
X1407Y841D02*
X1414Y841D01*
X0Y840D02*
X7Y840D01*
X1407Y840D02*
X1414Y840D01*
X0Y839D02*
X7Y839D01*
X1407Y839D02*
X1414Y839D01*
X0Y838D02*
X7Y838D01*
X1407Y838D02*
X1414Y838D01*
X0Y837D02*
X7Y837D01*
X1407Y837D02*
X1414Y837D01*
X0Y836D02*
X7Y836D01*
X1407Y836D02*
X1414Y836D01*
X0Y835D02*
X7Y835D01*
X1407Y835D02*
X1414Y835D01*
X0Y834D02*
X7Y834D01*
X1407Y834D02*
X1414Y834D01*
X0Y833D02*
X7Y833D01*
X1407Y833D02*
X1414Y833D01*
X0Y832D02*
X7Y832D01*
X1407Y832D02*
X1414Y832D01*
X0Y831D02*
X7Y831D01*
X1407Y831D02*
X1414Y831D01*
X0Y830D02*
X7Y830D01*
X1407Y830D02*
X1414Y830D01*
X0Y829D02*
X7Y829D01*
X1407Y829D02*
X1414Y829D01*
X0Y828D02*
X7Y828D01*
X1407Y828D02*
X1414Y828D01*
X0Y827D02*
X7Y827D01*
X1407Y827D02*
X1414Y827D01*
X0Y826D02*
X7Y826D01*
X1407Y826D02*
X1414Y826D01*
X0Y825D02*
X7Y825D01*
X1407Y825D02*
X1414Y825D01*
X0Y824D02*
X7Y824D01*
X1407Y824D02*
X1414Y824D01*
X0Y823D02*
X7Y823D01*
X1407Y823D02*
X1414Y823D01*
X0Y822D02*
X7Y822D01*
X1407Y822D02*
X1414Y822D01*
X0Y821D02*
X7Y821D01*
X1407Y821D02*
X1414Y821D01*
X0Y820D02*
X7Y820D01*
X1407Y820D02*
X1414Y820D01*
X0Y819D02*
X7Y819D01*
X1407Y819D02*
X1414Y819D01*
X0Y818D02*
X7Y818D01*
X1407Y818D02*
X1414Y818D01*
X0Y817D02*
X7Y817D01*
X1407Y817D02*
X1414Y817D01*
X0Y816D02*
X7Y816D01*
X1407Y816D02*
X1414Y816D01*
X0Y815D02*
X7Y815D01*
X1407Y815D02*
X1414Y815D01*
X0Y814D02*
X7Y814D01*
X1407Y814D02*
X1414Y814D01*
X0Y813D02*
X7Y813D01*
X1407Y813D02*
X1414Y813D01*
X0Y812D02*
X7Y812D01*
X1407Y812D02*
X1414Y812D01*
X0Y811D02*
X7Y811D01*
X1407Y811D02*
X1414Y811D01*
X0Y810D02*
X7Y810D01*
X1407Y810D02*
X1414Y810D01*
X0Y809D02*
X7Y809D01*
X1407Y809D02*
X1414Y809D01*
X0Y808D02*
X7Y808D01*
X1407Y808D02*
X1414Y808D01*
X0Y807D02*
X7Y807D01*
X1407Y807D02*
X1414Y807D01*
X0Y806D02*
X7Y806D01*
X1407Y806D02*
X1414Y806D01*
X0Y805D02*
X7Y805D01*
X1407Y805D02*
X1414Y805D01*
X0Y804D02*
X7Y804D01*
X1407Y804D02*
X1414Y804D01*
X0Y803D02*
X7Y803D01*
X1407Y803D02*
X1414Y803D01*
X0Y802D02*
X7Y802D01*
X1407Y802D02*
X1414Y802D01*
X0Y801D02*
X7Y801D01*
X1407Y801D02*
X1414Y801D01*
X0Y800D02*
X7Y800D01*
X1407Y800D02*
X1414Y800D01*
X0Y799D02*
X7Y799D01*
X1407Y799D02*
X1414Y799D01*
X0Y798D02*
X7Y798D01*
X1407Y798D02*
X1414Y798D01*
X0Y797D02*
X7Y797D01*
X1407Y797D02*
X1414Y797D01*
X0Y796D02*
X7Y796D01*
X1407Y796D02*
X1414Y796D01*
X0Y795D02*
X7Y795D01*
X1407Y795D02*
X1414Y795D01*
X0Y794D02*
X7Y794D01*
X1407Y794D02*
X1414Y794D01*
X0Y793D02*
X7Y793D01*
X1407Y793D02*
X1414Y793D01*
X0Y792D02*
X7Y792D01*
X1407Y792D02*
X1414Y792D01*
X0Y791D02*
X7Y791D01*
X1407Y791D02*
X1414Y791D01*
X0Y790D02*
X7Y790D01*
X1407Y790D02*
X1414Y790D01*
X0Y789D02*
X7Y789D01*
X1407Y789D02*
X1414Y789D01*
X0Y788D02*
X7Y788D01*
X1407Y788D02*
X1414Y788D01*
X0Y787D02*
X7Y787D01*
X1407Y787D02*
X1414Y787D01*
X0Y786D02*
X7Y786D01*
X1407Y786D02*
X1414Y786D01*
X0Y785D02*
X7Y785D01*
X1407Y785D02*
X1414Y785D01*
X0Y784D02*
X7Y784D01*
X1407Y784D02*
X1414Y784D01*
X0Y783D02*
X7Y783D01*
X1407Y783D02*
X1414Y783D01*
X0Y782D02*
X7Y782D01*
X1407Y782D02*
X1414Y782D01*
X0Y781D02*
X7Y781D01*
X1407Y781D02*
X1414Y781D01*
X0Y780D02*
X7Y780D01*
X1407Y780D02*
X1414Y780D01*
X0Y779D02*
X7Y779D01*
X1407Y779D02*
X1414Y779D01*
X0Y778D02*
X7Y778D01*
X1407Y778D02*
X1414Y778D01*
X0Y777D02*
X7Y777D01*
X1407Y777D02*
X1414Y777D01*
X0Y776D02*
X7Y776D01*
X1407Y776D02*
X1414Y776D01*
X0Y775D02*
X7Y775D01*
X1407Y775D02*
X1414Y775D01*
X0Y774D02*
X7Y774D01*
X1407Y774D02*
X1414Y774D01*
X0Y773D02*
X7Y773D01*
X1407Y773D02*
X1414Y773D01*
X0Y772D02*
X7Y772D01*
X1407Y772D02*
X1414Y772D01*
X0Y771D02*
X7Y771D01*
X1407Y771D02*
X1414Y771D01*
X0Y770D02*
X6Y770D01*
X1407Y770D02*
X1414Y770D01*
X0Y769D02*
X6Y769D01*
X1407Y769D02*
X1414Y769D01*
X0Y768D02*
X5Y768D01*
X1407Y768D02*
X1414Y768D01*
X0Y767D02*
X5Y767D01*
X1407Y767D02*
X1414Y767D01*
X0Y766D02*
X5Y766D01*
X1407Y766D02*
X1414Y766D01*
X0Y765D02*
X4Y765D01*
X1407Y765D02*
X1414Y765D01*
X0Y764D02*
X4Y764D01*
X1407Y764D02*
X1414Y764D01*
X0Y763D02*
X4Y763D01*
X1407Y763D02*
X1414Y763D01*
X0Y762D02*
X4Y762D01*
X1407Y762D02*
X1414Y762D01*
X0Y761D02*
X3Y761D01*
X1407Y761D02*
X1414Y761D01*
X0Y760D02*
X3Y760D01*
X1407Y760D02*
X1414Y760D01*
X0Y759D02*
X3Y759D01*
X1407Y759D02*
X1414Y759D01*
X0Y758D02*
X3Y758D01*
X1407Y758D02*
X1414Y758D01*
X0Y757D02*
X3Y757D01*
X1407Y757D02*
X1414Y757D01*
X0Y756D02*
X3Y756D01*
X1407Y756D02*
X1414Y756D01*
X0Y755D02*
X3Y755D01*
X1407Y755D02*
X1414Y755D01*
X0Y754D02*
X3Y754D01*
X1407Y754D02*
X1414Y754D01*
X0Y753D02*
X3Y753D01*
X1407Y753D02*
X1414Y753D01*
X0Y752D02*
X3Y752D01*
X1407Y752D02*
X1414Y752D01*
X0Y751D02*
X3Y751D01*
X1407Y751D02*
X1414Y751D01*
X0Y750D02*
X3Y750D01*
X1407Y750D02*
X1414Y750D01*
X0Y749D02*
X4Y749D01*
X1407Y749D02*
X1414Y749D01*
X0Y748D02*
X4Y748D01*
X1407Y748D02*
X1414Y748D01*
X0Y747D02*
X4Y747D01*
X1407Y747D02*
X1414Y747D01*
X0Y746D02*
X4Y746D01*
X1407Y746D02*
X1414Y746D01*
X0Y745D02*
X4Y745D01*
X1407Y745D02*
X1414Y745D01*
X0Y744D02*
X5Y744D01*
X1407Y744D02*
X1414Y744D01*
X0Y743D02*
X5Y743D01*
X1407Y743D02*
X1414Y743D01*
X0Y742D02*
X6Y742D01*
X1407Y742D02*
X1414Y742D01*
X0Y741D02*
X6Y741D01*
X1407Y741D02*
X1414Y741D01*
X0Y740D02*
X6Y740D01*
X1407Y740D02*
X1414Y740D01*
X0Y739D02*
X7Y739D01*
X1407Y739D02*
X1414Y739D01*
X0Y738D02*
X7Y738D01*
X1407Y738D02*
X1414Y738D01*
X0Y737D02*
X7Y737D01*
X1407Y737D02*
X1414Y737D01*
X0Y736D02*
X7Y736D01*
X1407Y736D02*
X1414Y736D01*
X0Y735D02*
X7Y735D01*
X1407Y735D02*
X1414Y735D01*
X0Y734D02*
X7Y734D01*
X1407Y734D02*
X1414Y734D01*
X0Y733D02*
X7Y733D01*
X1407Y733D02*
X1414Y733D01*
X0Y732D02*
X7Y732D01*
X1407Y732D02*
X1414Y732D01*
X0Y731D02*
X7Y731D01*
X1407Y731D02*
X1414Y731D01*
X0Y730D02*
X7Y730D01*
X1407Y730D02*
X1414Y730D01*
X0Y729D02*
X7Y729D01*
X1407Y729D02*
X1414Y729D01*
X0Y728D02*
X7Y728D01*
X1407Y728D02*
X1414Y728D01*
X0Y727D02*
X7Y727D01*
X1407Y727D02*
X1414Y727D01*
X0Y726D02*
X7Y726D01*
X1407Y726D02*
X1414Y726D01*
X0Y725D02*
X7Y725D01*
X1407Y725D02*
X1414Y725D01*
X0Y724D02*
X7Y724D01*
X1407Y724D02*
X1414Y724D01*
X0Y723D02*
X7Y723D01*
X1407Y723D02*
X1414Y723D01*
X0Y722D02*
X7Y722D01*
X1407Y722D02*
X1414Y722D01*
X0Y721D02*
X7Y721D01*
X1407Y721D02*
X1414Y721D01*
X0Y720D02*
X7Y720D01*
X1407Y720D02*
X1414Y720D01*
X0Y719D02*
X7Y719D01*
X1407Y719D02*
X1414Y719D01*
X0Y718D02*
X7Y718D01*
X1407Y718D02*
X1414Y718D01*
X0Y717D02*
X7Y717D01*
X1407Y717D02*
X1414Y717D01*
X0Y716D02*
X7Y716D01*
X1407Y716D02*
X1414Y716D01*
X0Y715D02*
X7Y715D01*
X1407Y715D02*
X1414Y715D01*
X0Y714D02*
X7Y714D01*
X1407Y714D02*
X1414Y714D01*
X0Y713D02*
X7Y713D01*
X1407Y713D02*
X1414Y713D01*
X0Y712D02*
X7Y712D01*
X1407Y712D02*
X1414Y712D01*
X0Y711D02*
X7Y711D01*
X1407Y711D02*
X1414Y711D01*
X0Y710D02*
X7Y710D01*
X1407Y710D02*
X1414Y710D01*
X0Y709D02*
X7Y709D01*
X1407Y709D02*
X1414Y709D01*
X0Y708D02*
X7Y708D01*
X1407Y708D02*
X1414Y708D01*
X0Y707D02*
X7Y707D01*
X1407Y707D02*
X1414Y707D01*
X0Y706D02*
X7Y706D01*
X1407Y706D02*
X1414Y706D01*
X0Y705D02*
X7Y705D01*
X1407Y705D02*
X1414Y705D01*
X0Y704D02*
X7Y704D01*
X1407Y704D02*
X1414Y704D01*
X0Y703D02*
X7Y703D01*
X1407Y703D02*
X1414Y703D01*
X0Y702D02*
X7Y702D01*
X1407Y702D02*
X1414Y702D01*
X0Y701D02*
X7Y701D01*
X1407Y701D02*
X1414Y701D01*
X0Y700D02*
X7Y700D01*
X1407Y700D02*
X1414Y700D01*
X0Y699D02*
X7Y699D01*
X1407Y699D02*
X1414Y699D01*
X0Y698D02*
X7Y698D01*
X1407Y698D02*
X1414Y698D01*
X0Y697D02*
X7Y697D01*
X1407Y697D02*
X1414Y697D01*
X0Y696D02*
X7Y696D01*
X1407Y696D02*
X1414Y696D01*
X0Y695D02*
X7Y695D01*
X1407Y695D02*
X1414Y695D01*
X0Y694D02*
X7Y694D01*
X1407Y694D02*
X1414Y694D01*
X0Y693D02*
X7Y693D01*
X1407Y693D02*
X1414Y693D01*
X0Y692D02*
X7Y692D01*
X1407Y692D02*
X1414Y692D01*
X0Y691D02*
X7Y691D01*
X1407Y691D02*
X1414Y691D01*
X0Y690D02*
X7Y690D01*
X1407Y690D02*
X1414Y690D01*
X0Y689D02*
X7Y689D01*
X1407Y689D02*
X1414Y689D01*
X0Y688D02*
X7Y688D01*
X1407Y688D02*
X1414Y688D01*
X0Y687D02*
X7Y687D01*
X1407Y687D02*
X1414Y687D01*
X0Y686D02*
X7Y686D01*
X1407Y686D02*
X1414Y686D01*
X0Y685D02*
X7Y685D01*
X1407Y685D02*
X1414Y685D01*
X0Y684D02*
X7Y684D01*
X1407Y684D02*
X1414Y684D01*
X0Y683D02*
X7Y683D01*
X1407Y683D02*
X1414Y683D01*
X0Y682D02*
X7Y682D01*
X1407Y682D02*
X1414Y682D01*
X0Y681D02*
X7Y681D01*
X1407Y681D02*
X1414Y681D01*
X0Y680D02*
X7Y680D01*
X1407Y680D02*
X1414Y680D01*
X0Y679D02*
X7Y679D01*
X1407Y679D02*
X1414Y679D01*
X0Y678D02*
X7Y678D01*
X1407Y678D02*
X1414Y678D01*
X0Y677D02*
X7Y677D01*
X1407Y677D02*
X1414Y677D01*
X0Y676D02*
X7Y676D01*
X1407Y676D02*
X1414Y676D01*
X0Y675D02*
X7Y675D01*
X1407Y675D02*
X1414Y675D01*
X0Y674D02*
X7Y674D01*
X1407Y674D02*
X1414Y674D01*
X0Y673D02*
X7Y673D01*
X1407Y673D02*
X1414Y673D01*
X0Y672D02*
X7Y672D01*
X1407Y672D02*
X1414Y672D01*
X0Y671D02*
X7Y671D01*
X1407Y671D02*
X1414Y671D01*
X0Y670D02*
X7Y670D01*
X1407Y670D02*
X1414Y670D01*
X0Y669D02*
X7Y669D01*
X1407Y669D02*
X1414Y669D01*
X0Y668D02*
X7Y668D01*
X1407Y668D02*
X1414Y668D01*
X0Y667D02*
X7Y667D01*
X1407Y667D02*
X1414Y667D01*
X0Y666D02*
X7Y666D01*
X1407Y666D02*
X1414Y666D01*
X0Y665D02*
X7Y665D01*
X1407Y665D02*
X1414Y665D01*
X0Y664D02*
X7Y664D01*
X1407Y664D02*
X1414Y664D01*
X0Y663D02*
X7Y663D01*
X1407Y663D02*
X1414Y663D01*
X0Y662D02*
X7Y662D01*
X1407Y662D02*
X1414Y662D01*
X0Y661D02*
X7Y661D01*
X1407Y661D02*
X1414Y661D01*
X0Y660D02*
X7Y660D01*
X1407Y660D02*
X1414Y660D01*
X0Y659D02*
X7Y659D01*
X1407Y659D02*
X1414Y659D01*
X0Y658D02*
X7Y658D01*
X1407Y658D02*
X1414Y658D01*
X0Y657D02*
X7Y657D01*
X1407Y657D02*
X1414Y657D01*
X0Y656D02*
X7Y656D01*
X1407Y656D02*
X1414Y656D01*
X0Y655D02*
X7Y655D01*
X1407Y655D02*
X1414Y655D01*
X0Y654D02*
X7Y654D01*
X1407Y654D02*
X1414Y654D01*
X0Y653D02*
X7Y653D01*
X1407Y653D02*
X1414Y653D01*
X0Y652D02*
X7Y652D01*
X1407Y652D02*
X1414Y652D01*
X0Y651D02*
X7Y651D01*
X1407Y651D02*
X1414Y651D01*
X0Y650D02*
X7Y650D01*
X1407Y650D02*
X1414Y650D01*
X0Y649D02*
X7Y649D01*
X1407Y649D02*
X1414Y649D01*
X0Y648D02*
X7Y648D01*
X1407Y648D02*
X1414Y648D01*
X0Y647D02*
X7Y647D01*
X1407Y647D02*
X1414Y647D01*
X0Y646D02*
X7Y646D01*
X1407Y646D02*
X1414Y646D01*
X0Y645D02*
X7Y645D01*
X1407Y645D02*
X1414Y645D01*
X0Y644D02*
X7Y644D01*
X1407Y644D02*
X1414Y644D01*
X0Y643D02*
X7Y643D01*
X1407Y643D02*
X1414Y643D01*
X0Y642D02*
X7Y642D01*
X1407Y642D02*
X1414Y642D01*
X0Y641D02*
X7Y641D01*
X1407Y641D02*
X1414Y641D01*
X0Y640D02*
X7Y640D01*
X1407Y640D02*
X1414Y640D01*
X0Y639D02*
X7Y639D01*
X1407Y639D02*
X1414Y639D01*
X0Y638D02*
X7Y638D01*
X1407Y638D02*
X1414Y638D01*
X0Y637D02*
X7Y637D01*
X1407Y637D02*
X1414Y637D01*
X0Y636D02*
X7Y636D01*
X1407Y636D02*
X1414Y636D01*
X0Y635D02*
X7Y635D01*
X1407Y635D02*
X1414Y635D01*
X0Y634D02*
X7Y634D01*
X1407Y634D02*
X1414Y634D01*
X0Y633D02*
X7Y633D01*
X1407Y633D02*
X1414Y633D01*
X0Y632D02*
X7Y632D01*
X1407Y632D02*
X1414Y632D01*
X0Y631D02*
X7Y631D01*
X1407Y631D02*
X1414Y631D01*
X0Y630D02*
X7Y630D01*
X1407Y630D02*
X1414Y630D01*
X0Y629D02*
X7Y629D01*
X1407Y629D02*
X1414Y629D01*
X0Y628D02*
X7Y628D01*
X1407Y628D02*
X1414Y628D01*
X0Y627D02*
X7Y627D01*
X1407Y627D02*
X1414Y627D01*
X0Y626D02*
X7Y626D01*
X1407Y626D02*
X1414Y626D01*
X0Y625D02*
X7Y625D01*
X1407Y625D02*
X1414Y625D01*
X0Y624D02*
X7Y624D01*
X1407Y624D02*
X1414Y624D01*
X0Y623D02*
X7Y623D01*
X1407Y623D02*
X1414Y623D01*
X0Y622D02*
X7Y622D01*
X1407Y622D02*
X1414Y622D01*
X0Y621D02*
X7Y621D01*
X1407Y621D02*
X1414Y621D01*
X0Y620D02*
X7Y620D01*
X1407Y620D02*
X1414Y620D01*
X0Y619D02*
X7Y619D01*
X1407Y619D02*
X1414Y619D01*
X0Y618D02*
X7Y618D01*
X1407Y618D02*
X1414Y618D01*
X0Y617D02*
X7Y617D01*
X1407Y617D02*
X1414Y617D01*
X0Y616D02*
X7Y616D01*
X1407Y616D02*
X1414Y616D01*
X0Y615D02*
X7Y615D01*
X1407Y615D02*
X1414Y615D01*
X0Y614D02*
X7Y614D01*
X1407Y614D02*
X1414Y614D01*
X0Y613D02*
X7Y613D01*
X1407Y613D02*
X1414Y613D01*
X0Y612D02*
X7Y612D01*
X1407Y612D02*
X1414Y612D01*
X0Y611D02*
X7Y611D01*
X1407Y611D02*
X1414Y611D01*
X0Y610D02*
X7Y610D01*
X1407Y610D02*
X1414Y610D01*
X0Y609D02*
X7Y609D01*
X1407Y609D02*
X1414Y609D01*
X0Y608D02*
X7Y608D01*
X1407Y608D02*
X1414Y608D01*
X0Y607D02*
X7Y607D01*
X1407Y607D02*
X1414Y607D01*
X0Y606D02*
X7Y606D01*
X1407Y606D02*
X1414Y606D01*
X0Y605D02*
X7Y605D01*
X1407Y605D02*
X1414Y605D01*
X0Y604D02*
X7Y604D01*
X1407Y604D02*
X1414Y604D01*
X0Y603D02*
X7Y603D01*
X1407Y603D02*
X1414Y603D01*
X0Y602D02*
X7Y602D01*
X1407Y602D02*
X1414Y602D01*
X0Y601D02*
X7Y601D01*
X1407Y601D02*
X1414Y601D01*
X0Y600D02*
X7Y600D01*
X1407Y600D02*
X1414Y600D01*
X0Y599D02*
X7Y599D01*
X1407Y599D02*
X1414Y599D01*
X0Y598D02*
X7Y598D01*
X1407Y598D02*
X1414Y598D01*
X0Y597D02*
X7Y597D01*
X1407Y597D02*
X1414Y597D01*
X0Y596D02*
X7Y596D01*
X1407Y596D02*
X1414Y596D01*
X0Y595D02*
X7Y595D01*
X1407Y595D02*
X1414Y595D01*
X0Y594D02*
X7Y594D01*
X1407Y594D02*
X1414Y594D01*
X0Y593D02*
X7Y593D01*
X1407Y593D02*
X1414Y593D01*
X0Y592D02*
X7Y592D01*
X1407Y592D02*
X1414Y592D01*
X0Y591D02*
X7Y591D01*
X1407Y591D02*
X1414Y591D01*
X0Y590D02*
X7Y590D01*
X1407Y590D02*
X1414Y590D01*
X0Y589D02*
X7Y589D01*
X1407Y589D02*
X1414Y589D01*
X0Y588D02*
X7Y588D01*
X1407Y588D02*
X1414Y588D01*
X0Y587D02*
X7Y587D01*
X1407Y587D02*
X1414Y587D01*
X0Y586D02*
X7Y586D01*
X1407Y586D02*
X1414Y586D01*
X0Y585D02*
X7Y585D01*
X1407Y585D02*
X1414Y585D01*
X0Y584D02*
X7Y584D01*
X1407Y584D02*
X1414Y584D01*
X0Y583D02*
X7Y583D01*
X1407Y583D02*
X1414Y583D01*
X0Y582D02*
X7Y582D01*
X1407Y582D02*
X1414Y582D01*
X0Y581D02*
X7Y581D01*
X1407Y581D02*
X1414Y581D01*
X0Y580D02*
X7Y580D01*
X1407Y580D02*
X1414Y580D01*
X0Y579D02*
X7Y579D01*
X1407Y579D02*
X1414Y579D01*
X0Y578D02*
X7Y578D01*
X1407Y578D02*
X1414Y578D01*
X0Y577D02*
X7Y577D01*
X1407Y577D02*
X1414Y577D01*
X0Y576D02*
X7Y576D01*
X1407Y576D02*
X1414Y576D01*
X0Y575D02*
X7Y575D01*
X1407Y575D02*
X1414Y575D01*
X0Y574D02*
X7Y574D01*
X1407Y574D02*
X1414Y574D01*
X0Y573D02*
X7Y573D01*
X1407Y573D02*
X1414Y573D01*
X0Y572D02*
X7Y572D01*
X1407Y572D02*
X1414Y572D01*
X0Y571D02*
X7Y571D01*
X1407Y571D02*
X1414Y571D01*
X0Y570D02*
X7Y570D01*
X1407Y570D02*
X1414Y570D01*
X0Y569D02*
X7Y569D01*
X1407Y569D02*
X1414Y569D01*
X0Y568D02*
X7Y568D01*
X1407Y568D02*
X1414Y568D01*
X0Y567D02*
X7Y567D01*
X1407Y567D02*
X1414Y567D01*
X0Y566D02*
X7Y566D01*
X1407Y566D02*
X1414Y566D01*
X0Y565D02*
X7Y565D01*
X1407Y565D02*
X1414Y565D01*
X0Y564D02*
X7Y564D01*
X1407Y564D02*
X1414Y564D01*
X0Y563D02*
X7Y563D01*
X1407Y563D02*
X1414Y563D01*
X0Y562D02*
X7Y562D01*
X1407Y562D02*
X1414Y562D01*
X0Y561D02*
X7Y561D01*
X1407Y561D02*
X1414Y561D01*
X0Y560D02*
X7Y560D01*
X1407Y560D02*
X1414Y560D01*
X0Y559D02*
X7Y559D01*
X1407Y559D02*
X1414Y559D01*
X0Y558D02*
X7Y558D01*
X1407Y558D02*
X1414Y558D01*
X0Y557D02*
X7Y557D01*
X1407Y557D02*
X1414Y557D01*
X0Y556D02*
X7Y556D01*
X1407Y556D02*
X1414Y556D01*
X0Y555D02*
X7Y555D01*
X1407Y555D02*
X1414Y555D01*
X0Y554D02*
X7Y554D01*
X1407Y554D02*
X1414Y554D01*
X0Y553D02*
X7Y553D01*
X1407Y553D02*
X1414Y553D01*
X0Y552D02*
X7Y552D01*
X1407Y552D02*
X1414Y552D01*
X0Y551D02*
X7Y551D01*
X1407Y551D02*
X1414Y551D01*
X0Y550D02*
X7Y550D01*
X1407Y550D02*
X1414Y550D01*
X0Y549D02*
X7Y549D01*
X1407Y549D02*
X1414Y549D01*
X0Y548D02*
X7Y548D01*
X1407Y548D02*
X1414Y548D01*
X0Y547D02*
X7Y547D01*
X1407Y547D02*
X1414Y547D01*
X0Y546D02*
X7Y546D01*
X1407Y546D02*
X1414Y546D01*
X0Y545D02*
X7Y545D01*
X1407Y545D02*
X1414Y545D01*
X0Y544D02*
X7Y544D01*
X1407Y544D02*
X1414Y544D01*
X0Y543D02*
X7Y543D01*
X1407Y543D02*
X1414Y543D01*
X0Y542D02*
X7Y542D01*
X1407Y542D02*
X1414Y542D01*
X0Y541D02*
X7Y541D01*
X1407Y541D02*
X1414Y541D01*
X0Y540D02*
X7Y540D01*
X1407Y540D02*
X1414Y540D01*
X0Y539D02*
X7Y539D01*
X1407Y539D02*
X1414Y539D01*
X0Y538D02*
X7Y538D01*
X1407Y538D02*
X1414Y538D01*
X0Y537D02*
X7Y537D01*
X1407Y537D02*
X1414Y537D01*
X0Y536D02*
X7Y536D01*
X1407Y536D02*
X1414Y536D01*
X0Y535D02*
X7Y535D01*
X1407Y535D02*
X1414Y535D01*
X0Y534D02*
X7Y534D01*
X1407Y534D02*
X1414Y534D01*
X0Y533D02*
X7Y533D01*
X1407Y533D02*
X1414Y533D01*
X0Y532D02*
X7Y532D01*
X1407Y532D02*
X1414Y532D01*
X0Y531D02*
X7Y531D01*
X1407Y531D02*
X1414Y531D01*
X0Y530D02*
X7Y530D01*
X1407Y530D02*
X1414Y530D01*
X0Y529D02*
X7Y529D01*
X1407Y529D02*
X1414Y529D01*
X0Y528D02*
X7Y528D01*
X1407Y528D02*
X1414Y528D01*
X0Y527D02*
X7Y527D01*
X1407Y527D02*
X1414Y527D01*
X0Y526D02*
X7Y526D01*
X1407Y526D02*
X1414Y526D01*
X0Y525D02*
X7Y525D01*
X1407Y525D02*
X1414Y525D01*
X0Y524D02*
X7Y524D01*
X1407Y524D02*
X1414Y524D01*
X0Y523D02*
X7Y523D01*
X1407Y523D02*
X1414Y523D01*
X0Y522D02*
X7Y522D01*
X1407Y522D02*
X1414Y522D01*
X0Y521D02*
X7Y521D01*
X1407Y521D02*
X1414Y521D01*
X0Y520D02*
X7Y520D01*
X1407Y520D02*
X1414Y520D01*
X0Y519D02*
X7Y519D01*
X1407Y519D02*
X1414Y519D01*
X0Y518D02*
X7Y518D01*
X1407Y518D02*
X1414Y518D01*
X0Y517D02*
X7Y517D01*
X1407Y517D02*
X1414Y517D01*
X0Y516D02*
X7Y516D01*
X1407Y516D02*
X1414Y516D01*
X0Y515D02*
X6Y515D01*
X1407Y515D02*
X1414Y515D01*
X0Y514D02*
X6Y514D01*
X1407Y514D02*
X1414Y514D01*
X0Y513D02*
X6Y513D01*
X1407Y513D02*
X1414Y513D01*
X0Y512D02*
X5Y512D01*
X1407Y512D02*
X1414Y512D01*
X0Y511D02*
X5Y511D01*
X1407Y511D02*
X1414Y511D01*
X0Y510D02*
X5Y510D01*
X1407Y510D02*
X1414Y510D01*
X0Y509D02*
X4Y509D01*
X1407Y509D02*
X1414Y509D01*
X0Y508D02*
X4Y508D01*
X1407Y508D02*
X1414Y508D01*
X0Y507D02*
X4Y507D01*
X1407Y507D02*
X1414Y507D01*
X0Y506D02*
X4Y506D01*
X1407Y506D02*
X1414Y506D01*
X0Y505D02*
X3Y505D01*
X1407Y505D02*
X1414Y505D01*
X0Y504D02*
X3Y504D01*
X1407Y504D02*
X1414Y504D01*
X0Y503D02*
X3Y503D01*
X1407Y503D02*
X1414Y503D01*
X0Y502D02*
X3Y502D01*
X1407Y502D02*
X1414Y502D01*
X0Y501D02*
X3Y501D01*
X1407Y501D02*
X1414Y501D01*
X0Y500D02*
X3Y500D01*
X1407Y500D02*
X1414Y500D01*
X0Y499D02*
X3Y499D01*
X1407Y499D02*
X1414Y499D01*
X0Y498D02*
X3Y498D01*
X1407Y498D02*
X1414Y498D01*
X0Y497D02*
X3Y497D01*
X1407Y497D02*
X1414Y497D01*
X0Y496D02*
X3Y496D01*
X1407Y496D02*
X1414Y496D01*
X0Y495D02*
X3Y495D01*
X1407Y495D02*
X1414Y495D01*
X0Y494D02*
X3Y494D01*
X1407Y494D02*
X1414Y494D01*
X0Y493D02*
X4Y493D01*
X1407Y493D02*
X1414Y493D01*
X0Y492D02*
X4Y492D01*
X1407Y492D02*
X1414Y492D01*
X0Y491D02*
X4Y491D01*
X1407Y491D02*
X1414Y491D01*
X0Y490D02*
X4Y490D01*
X1407Y490D02*
X1414Y490D01*
X0Y489D02*
X5Y489D01*
X1407Y489D02*
X1414Y489D01*
X0Y488D02*
X5Y488D01*
X1407Y488D02*
X1414Y488D01*
X0Y487D02*
X5Y487D01*
X1407Y487D02*
X1414Y487D01*
X0Y486D02*
X6Y486D01*
X1407Y486D02*
X1414Y486D01*
X0Y485D02*
X6Y485D01*
X1407Y485D02*
X1414Y485D01*
X0Y484D02*
X6Y484D01*
X1407Y484D02*
X1414Y484D01*
X0Y483D02*
X7Y483D01*
X1407Y483D02*
X1414Y483D01*
X0Y482D02*
X7Y482D01*
X1407Y482D02*
X1414Y482D01*
X0Y481D02*
X7Y481D01*
X1407Y481D02*
X1414Y481D01*
X0Y480D02*
X7Y480D01*
X1407Y480D02*
X1414Y480D01*
X0Y479D02*
X7Y479D01*
X1407Y479D02*
X1414Y479D01*
X0Y478D02*
X7Y478D01*
X1407Y478D02*
X1414Y478D01*
X0Y477D02*
X7Y477D01*
X1407Y477D02*
X1414Y477D01*
X0Y476D02*
X7Y476D01*
X1407Y476D02*
X1414Y476D01*
X0Y475D02*
X7Y475D01*
X1407Y475D02*
X1414Y475D01*
X0Y474D02*
X7Y474D01*
X1407Y474D02*
X1414Y474D01*
X0Y473D02*
X7Y473D01*
X1407Y473D02*
X1414Y473D01*
X0Y472D02*
X7Y472D01*
X1407Y472D02*
X1414Y472D01*
X0Y471D02*
X7Y471D01*
X1407Y471D02*
X1414Y471D01*
X0Y470D02*
X7Y470D01*
X1407Y470D02*
X1414Y470D01*
X0Y469D02*
X7Y469D01*
X1407Y469D02*
X1414Y469D01*
X0Y468D02*
X7Y468D01*
X1407Y468D02*
X1414Y468D01*
X0Y467D02*
X7Y467D01*
X1407Y467D02*
X1414Y467D01*
X0Y466D02*
X7Y466D01*
X1407Y466D02*
X1414Y466D01*
X0Y465D02*
X7Y465D01*
X1407Y465D02*
X1414Y465D01*
X0Y464D02*
X7Y464D01*
X1407Y464D02*
X1414Y464D01*
X0Y463D02*
X7Y463D01*
X1407Y463D02*
X1414Y463D01*
X0Y462D02*
X7Y462D01*
X1407Y462D02*
X1414Y462D01*
X0Y461D02*
X7Y461D01*
X1407Y461D02*
X1414Y461D01*
X0Y460D02*
X7Y460D01*
X1407Y460D02*
X1414Y460D01*
X0Y459D02*
X7Y459D01*
X1407Y459D02*
X1414Y459D01*
X0Y458D02*
X7Y458D01*
X1407Y458D02*
X1414Y458D01*
X0Y457D02*
X7Y457D01*
X1407Y457D02*
X1414Y457D01*
X0Y456D02*
X7Y456D01*
X1407Y456D02*
X1414Y456D01*
X0Y455D02*
X7Y455D01*
X1407Y455D02*
X1414Y455D01*
X0Y454D02*
X7Y454D01*
X1407Y454D02*
X1414Y454D01*
X0Y453D02*
X7Y453D01*
X1407Y453D02*
X1414Y453D01*
X0Y452D02*
X7Y452D01*
X1407Y452D02*
X1414Y452D01*
X0Y451D02*
X7Y451D01*
X1407Y451D02*
X1414Y451D01*
X0Y450D02*
X7Y450D01*
X1407Y450D02*
X1414Y450D01*
X0Y449D02*
X7Y449D01*
X1407Y449D02*
X1414Y449D01*
X0Y448D02*
X7Y448D01*
X1407Y448D02*
X1414Y448D01*
X0Y447D02*
X7Y447D01*
X1407Y447D02*
X1414Y447D01*
X0Y446D02*
X7Y446D01*
X1407Y446D02*
X1414Y446D01*
X0Y445D02*
X7Y445D01*
X1407Y445D02*
X1414Y445D01*
X0Y444D02*
X7Y444D01*
X1407Y444D02*
X1414Y444D01*
X0Y443D02*
X7Y443D01*
X1407Y443D02*
X1414Y443D01*
X0Y442D02*
X7Y442D01*
X1407Y442D02*
X1414Y442D01*
X0Y441D02*
X7Y441D01*
X1407Y441D02*
X1414Y441D01*
X0Y440D02*
X7Y440D01*
X1407Y440D02*
X1414Y440D01*
X0Y439D02*
X7Y439D01*
X1407Y439D02*
X1414Y439D01*
X0Y438D02*
X7Y438D01*
X1407Y438D02*
X1414Y438D01*
X0Y437D02*
X7Y437D01*
X1407Y437D02*
X1414Y437D01*
X0Y436D02*
X7Y436D01*
X1407Y436D02*
X1414Y436D01*
X0Y435D02*
X7Y435D01*
X1407Y435D02*
X1414Y435D01*
X0Y434D02*
X7Y434D01*
X1407Y434D02*
X1414Y434D01*
X0Y433D02*
X7Y433D01*
X1407Y433D02*
X1414Y433D01*
X0Y432D02*
X7Y432D01*
X1407Y432D02*
X1414Y432D01*
X0Y431D02*
X7Y431D01*
X1407Y431D02*
X1414Y431D01*
X0Y430D02*
X7Y430D01*
X1407Y430D02*
X1414Y430D01*
X0Y429D02*
X7Y429D01*
X1407Y429D02*
X1414Y429D01*
X0Y428D02*
X7Y428D01*
X1407Y428D02*
X1414Y428D01*
X0Y427D02*
X7Y427D01*
X1407Y427D02*
X1414Y427D01*
X0Y426D02*
X7Y426D01*
X1407Y426D02*
X1414Y426D01*
X0Y425D02*
X7Y425D01*
X1407Y425D02*
X1414Y425D01*
X0Y424D02*
X7Y424D01*
X1407Y424D02*
X1414Y424D01*
X0Y423D02*
X7Y423D01*
X1407Y423D02*
X1414Y423D01*
X0Y422D02*
X7Y422D01*
X1407Y422D02*
X1414Y422D01*
X0Y421D02*
X7Y421D01*
X1407Y421D02*
X1414Y421D01*
X0Y420D02*
X7Y420D01*
X1407Y420D02*
X1414Y420D01*
X0Y419D02*
X7Y419D01*
X1407Y419D02*
X1414Y419D01*
X0Y418D02*
X7Y418D01*
X1407Y418D02*
X1414Y418D01*
X0Y417D02*
X7Y417D01*
X1407Y417D02*
X1414Y417D01*
X0Y416D02*
X7Y416D01*
X1407Y416D02*
X1414Y416D01*
X0Y415D02*
X7Y415D01*
X1407Y415D02*
X1414Y415D01*
X0Y414D02*
X7Y414D01*
X1407Y414D02*
X1414Y414D01*
X0Y413D02*
X7Y413D01*
X1407Y413D02*
X1414Y413D01*
X0Y412D02*
X7Y412D01*
X1407Y412D02*
X1414Y412D01*
X0Y411D02*
X7Y411D01*
X1407Y411D02*
X1414Y411D01*
X0Y410D02*
X7Y410D01*
X1407Y410D02*
X1414Y410D01*
X0Y409D02*
X7Y409D01*
X1407Y409D02*
X1414Y409D01*
X0Y408D02*
X7Y408D01*
X1407Y408D02*
X1414Y408D01*
X0Y407D02*
X7Y407D01*
X1407Y407D02*
X1414Y407D01*
X0Y406D02*
X7Y406D01*
X1407Y406D02*
X1414Y406D01*
X0Y405D02*
X7Y405D01*
X1407Y405D02*
X1414Y405D01*
X0Y404D02*
X7Y404D01*
X1407Y404D02*
X1414Y404D01*
X0Y403D02*
X7Y403D01*
X1407Y403D02*
X1414Y403D01*
X0Y402D02*
X7Y402D01*
X1407Y402D02*
X1414Y402D01*
X0Y401D02*
X7Y401D01*
X1407Y401D02*
X1414Y401D01*
X0Y400D02*
X7Y400D01*
X1407Y400D02*
X1414Y400D01*
X0Y399D02*
X7Y399D01*
X1407Y399D02*
X1414Y399D01*
X0Y398D02*
X7Y398D01*
X1407Y398D02*
X1414Y398D01*
X0Y397D02*
X7Y397D01*
X1407Y397D02*
X1414Y397D01*
X0Y396D02*
X7Y396D01*
X1407Y396D02*
X1414Y396D01*
X0Y395D02*
X7Y395D01*
X1407Y395D02*
X1414Y395D01*
X0Y394D02*
X7Y394D01*
X1407Y394D02*
X1414Y394D01*
X0Y393D02*
X7Y393D01*
X1407Y393D02*
X1414Y393D01*
X0Y392D02*
X7Y392D01*
X1407Y392D02*
X1414Y392D01*
X0Y391D02*
X7Y391D01*
X1407Y391D02*
X1414Y391D01*
X0Y390D02*
X7Y390D01*
X1407Y390D02*
X1414Y390D01*
X0Y389D02*
X7Y389D01*
X1407Y389D02*
X1414Y389D01*
X0Y388D02*
X7Y388D01*
X1407Y388D02*
X1414Y388D01*
X0Y387D02*
X7Y387D01*
X1407Y387D02*
X1414Y387D01*
X0Y386D02*
X7Y386D01*
X1407Y386D02*
X1414Y386D01*
X0Y385D02*
X7Y385D01*
X1407Y385D02*
X1414Y385D01*
X0Y384D02*
X7Y384D01*
X1407Y384D02*
X1414Y384D01*
X0Y383D02*
X7Y383D01*
X1407Y383D02*
X1414Y383D01*
X0Y382D02*
X7Y382D01*
X1407Y382D02*
X1414Y382D01*
X0Y381D02*
X7Y381D01*
X1407Y381D02*
X1414Y381D01*
X0Y380D02*
X7Y380D01*
X1407Y380D02*
X1414Y380D01*
X0Y379D02*
X7Y379D01*
X1407Y379D02*
X1414Y379D01*
X0Y378D02*
X7Y378D01*
X1407Y378D02*
X1414Y378D01*
X0Y377D02*
X7Y377D01*
X1407Y377D02*
X1414Y377D01*
X0Y376D02*
X7Y376D01*
X1407Y376D02*
X1414Y376D01*
X0Y375D02*
X7Y375D01*
X1407Y375D02*
X1414Y375D01*
X0Y374D02*
X7Y374D01*
X1407Y374D02*
X1414Y374D01*
X0Y373D02*
X7Y373D01*
X1407Y373D02*
X1414Y373D01*
X0Y372D02*
X7Y372D01*
X1407Y372D02*
X1414Y372D01*
X0Y371D02*
X7Y371D01*
X1407Y371D02*
X1414Y371D01*
X0Y370D02*
X7Y370D01*
X1407Y370D02*
X1414Y370D01*
X0Y369D02*
X7Y369D01*
X1407Y369D02*
X1414Y369D01*
X0Y368D02*
X7Y368D01*
X1407Y368D02*
X1414Y368D01*
X0Y367D02*
X7Y367D01*
X1407Y367D02*
X1414Y367D01*
X0Y366D02*
X7Y366D01*
X1407Y366D02*
X1414Y366D01*
X0Y365D02*
X7Y365D01*
X1407Y365D02*
X1414Y365D01*
X0Y364D02*
X7Y364D01*
X1407Y364D02*
X1414Y364D01*
X0Y363D02*
X7Y363D01*
X1407Y363D02*
X1414Y363D01*
X0Y362D02*
X7Y362D01*
X1407Y362D02*
X1414Y362D01*
X0Y361D02*
X7Y361D01*
X1407Y361D02*
X1414Y361D01*
X0Y360D02*
X7Y360D01*
X1407Y360D02*
X1414Y360D01*
X0Y359D02*
X7Y359D01*
X1407Y359D02*
X1414Y359D01*
X0Y358D02*
X7Y358D01*
X1407Y358D02*
X1414Y358D01*
X0Y357D02*
X7Y357D01*
X1407Y357D02*
X1414Y357D01*
X0Y356D02*
X7Y356D01*
X1407Y356D02*
X1414Y356D01*
X0Y355D02*
X7Y355D01*
X1407Y355D02*
X1414Y355D01*
X0Y354D02*
X7Y354D01*
X1407Y354D02*
X1414Y354D01*
X0Y353D02*
X7Y353D01*
X1407Y353D02*
X1414Y353D01*
X0Y352D02*
X7Y352D01*
X1407Y352D02*
X1414Y352D01*
X0Y351D02*
X7Y351D01*
X1407Y351D02*
X1414Y351D01*
X0Y350D02*
X7Y350D01*
X1407Y350D02*
X1414Y350D01*
X0Y349D02*
X7Y349D01*
X1407Y349D02*
X1414Y349D01*
X0Y348D02*
X7Y348D01*
X1407Y348D02*
X1414Y348D01*
X0Y347D02*
X7Y347D01*
X1407Y347D02*
X1414Y347D01*
X0Y346D02*
X7Y346D01*
X1407Y346D02*
X1414Y346D01*
X0Y345D02*
X7Y345D01*
X1407Y345D02*
X1414Y345D01*
X0Y344D02*
X7Y344D01*
X1407Y344D02*
X1414Y344D01*
X0Y343D02*
X7Y343D01*
X1407Y343D02*
X1414Y343D01*
X0Y342D02*
X7Y342D01*
X1407Y342D02*
X1414Y342D01*
X0Y341D02*
X7Y341D01*
X1407Y341D02*
X1414Y341D01*
X0Y340D02*
X7Y340D01*
X1407Y340D02*
X1414Y340D01*
X0Y339D02*
X7Y339D01*
X1407Y339D02*
X1414Y339D01*
X0Y338D02*
X7Y338D01*
X1407Y338D02*
X1414Y338D01*
X0Y337D02*
X7Y337D01*
X1407Y337D02*
X1414Y337D01*
X0Y336D02*
X7Y336D01*
X1407Y336D02*
X1414Y336D01*
X0Y335D02*
X7Y335D01*
X1407Y335D02*
X1414Y335D01*
X0Y334D02*
X7Y334D01*
X1407Y334D02*
X1414Y334D01*
X0Y333D02*
X7Y333D01*
X1407Y333D02*
X1414Y333D01*
X0Y332D02*
X7Y332D01*
X1407Y332D02*
X1414Y332D01*
X0Y331D02*
X7Y331D01*
X1407Y331D02*
X1414Y331D01*
X0Y330D02*
X7Y330D01*
X1407Y330D02*
X1414Y330D01*
X0Y329D02*
X7Y329D01*
X1407Y329D02*
X1414Y329D01*
X0Y328D02*
X7Y328D01*
X1407Y328D02*
X1414Y328D01*
X0Y327D02*
X7Y327D01*
X1407Y327D02*
X1414Y327D01*
X0Y326D02*
X7Y326D01*
X1407Y326D02*
X1414Y326D01*
X0Y325D02*
X7Y325D01*
X1407Y325D02*
X1414Y325D01*
X0Y324D02*
X7Y324D01*
X1407Y324D02*
X1414Y324D01*
X0Y323D02*
X7Y323D01*
X1407Y323D02*
X1414Y323D01*
X0Y322D02*
X7Y322D01*
X1407Y322D02*
X1414Y322D01*
X0Y321D02*
X6Y321D01*
X1407Y321D02*
X1414Y321D01*
X0Y320D02*
X6Y320D01*
X1407Y320D02*
X1414Y320D01*
X0Y319D02*
X6Y319D01*
X1407Y319D02*
X1414Y319D01*
X0Y318D02*
X5Y318D01*
X1407Y318D02*
X1414Y318D01*
X0Y317D02*
X5Y317D01*
X1407Y317D02*
X1414Y317D01*
X0Y316D02*
X5Y316D01*
X1407Y316D02*
X1414Y316D01*
X0Y315D02*
X4Y315D01*
X1407Y315D02*
X1414Y315D01*
X0Y314D02*
X4Y314D01*
X1407Y314D02*
X1414Y314D01*
X0Y313D02*
X4Y313D01*
X1407Y313D02*
X1414Y313D01*
X0Y312D02*
X4Y312D01*
X1407Y312D02*
X1414Y312D01*
X0Y311D02*
X3Y311D01*
X1407Y311D02*
X1414Y311D01*
X0Y310D02*
X3Y310D01*
X1407Y310D02*
X1414Y310D01*
X0Y309D02*
X3Y309D01*
X1407Y309D02*
X1414Y309D01*
X0Y308D02*
X3Y308D01*
X1407Y308D02*
X1414Y308D01*
X0Y307D02*
X3Y307D01*
X1407Y307D02*
X1414Y307D01*
X0Y306D02*
X3Y306D01*
X1407Y306D02*
X1414Y306D01*
X0Y305D02*
X3Y305D01*
X1407Y305D02*
X1414Y305D01*
X0Y304D02*
X3Y304D01*
X1407Y304D02*
X1414Y304D01*
X0Y303D02*
X3Y303D01*
X1407Y303D02*
X1414Y303D01*
X0Y302D02*
X3Y302D01*
X1407Y302D02*
X1414Y302D01*
X0Y301D02*
X3Y301D01*
X1407Y301D02*
X1414Y301D01*
X0Y300D02*
X3Y300D01*
X1407Y300D02*
X1414Y300D01*
X0Y299D02*
X4Y299D01*
X1407Y299D02*
X1414Y299D01*
X0Y298D02*
X4Y298D01*
X1407Y298D02*
X1414Y298D01*
X0Y297D02*
X4Y297D01*
X1407Y297D02*
X1414Y297D01*
X0Y296D02*
X4Y296D01*
X1407Y296D02*
X1414Y296D01*
X0Y295D02*
X5Y295D01*
X1407Y295D02*
X1414Y295D01*
X0Y294D02*
X5Y294D01*
X1407Y294D02*
X1414Y294D01*
X0Y293D02*
X5Y293D01*
X1407Y293D02*
X1414Y293D01*
X0Y292D02*
X6Y292D01*
X1407Y292D02*
X1414Y292D01*
X0Y291D02*
X6Y291D01*
X1407Y291D02*
X1414Y291D01*
X0Y290D02*
X6Y290D01*
X1407Y290D02*
X1414Y290D01*
X0Y289D02*
X7Y289D01*
X1407Y289D02*
X1414Y289D01*
X0Y288D02*
X7Y288D01*
X1407Y288D02*
X1414Y288D01*
X0Y287D02*
X7Y287D01*
X1407Y287D02*
X1414Y287D01*
X0Y286D02*
X7Y286D01*
X1407Y286D02*
X1414Y286D01*
X0Y285D02*
X7Y285D01*
X1407Y285D02*
X1414Y285D01*
X0Y284D02*
X7Y284D01*
X1407Y284D02*
X1414Y284D01*
X0Y283D02*
X7Y283D01*
X1407Y283D02*
X1414Y283D01*
X0Y282D02*
X7Y282D01*
X1407Y282D02*
X1414Y282D01*
X0Y281D02*
X7Y281D01*
X1407Y281D02*
X1414Y281D01*
X0Y280D02*
X7Y280D01*
X1407Y280D02*
X1414Y280D01*
X0Y279D02*
X7Y279D01*
X1407Y279D02*
X1414Y279D01*
X0Y278D02*
X7Y278D01*
X1407Y278D02*
X1414Y278D01*
X0Y277D02*
X7Y277D01*
X1407Y277D02*
X1414Y277D01*
X0Y276D02*
X7Y276D01*
X1407Y276D02*
X1414Y276D01*
X0Y275D02*
X7Y275D01*
X1407Y275D02*
X1414Y275D01*
X0Y274D02*
X7Y274D01*
X1407Y274D02*
X1414Y274D01*
X0Y273D02*
X7Y273D01*
X1407Y273D02*
X1414Y273D01*
X0Y272D02*
X7Y272D01*
X1407Y272D02*
X1414Y272D01*
X0Y271D02*
X7Y271D01*
X1407Y271D02*
X1414Y271D01*
X0Y270D02*
X7Y270D01*
X1407Y270D02*
X1414Y270D01*
X0Y269D02*
X7Y269D01*
X1407Y269D02*
X1414Y269D01*
X0Y268D02*
X7Y268D01*
X1407Y268D02*
X1414Y268D01*
X0Y267D02*
X7Y267D01*
X1407Y267D02*
X1414Y267D01*
X0Y266D02*
X7Y266D01*
X1407Y266D02*
X1414Y266D01*
X0Y265D02*
X7Y265D01*
X1407Y265D02*
X1414Y265D01*
X0Y264D02*
X7Y264D01*
X1407Y264D02*
X1414Y264D01*
X0Y263D02*
X7Y263D01*
X1407Y263D02*
X1414Y263D01*
X0Y262D02*
X7Y262D01*
X1407Y262D02*
X1414Y262D01*
X0Y261D02*
X7Y261D01*
X1407Y261D02*
X1414Y261D01*
X0Y260D02*
X7Y260D01*
X1407Y260D02*
X1414Y260D01*
X0Y259D02*
X7Y259D01*
X1407Y259D02*
X1414Y259D01*
X0Y258D02*
X7Y258D01*
X1407Y258D02*
X1414Y258D01*
X0Y257D02*
X7Y257D01*
X1407Y257D02*
X1414Y257D01*
X0Y256D02*
X7Y256D01*
X1407Y256D02*
X1414Y256D01*
X0Y255D02*
X7Y255D01*
X1407Y255D02*
X1414Y255D01*
X0Y254D02*
X7Y254D01*
X1407Y254D02*
X1414Y254D01*
X0Y253D02*
X7Y253D01*
X1407Y253D02*
X1414Y253D01*
X0Y252D02*
X7Y252D01*
X1407Y252D02*
X1414Y252D01*
X0Y251D02*
X7Y251D01*
X1407Y251D02*
X1414Y251D01*
X0Y250D02*
X7Y250D01*
X1407Y250D02*
X1414Y250D01*
X0Y249D02*
X7Y249D01*
X1407Y249D02*
X1414Y249D01*
X0Y248D02*
X7Y248D01*
X1407Y248D02*
X1414Y248D01*
X0Y247D02*
X7Y247D01*
X1407Y247D02*
X1414Y247D01*
X0Y246D02*
X7Y246D01*
X1407Y246D02*
X1414Y246D01*
X0Y245D02*
X7Y245D01*
X1407Y245D02*
X1414Y245D01*
X0Y244D02*
X7Y244D01*
X1407Y244D02*
X1414Y244D01*
X0Y243D02*
X7Y243D01*
X1407Y243D02*
X1414Y243D01*
X0Y242D02*
X7Y242D01*
X1407Y242D02*
X1414Y242D01*
X0Y241D02*
X7Y241D01*
X1407Y241D02*
X1414Y241D01*
X0Y240D02*
X7Y240D01*
X1407Y240D02*
X1414Y240D01*
X0Y239D02*
X7Y239D01*
X1407Y239D02*
X1414Y239D01*
X0Y238D02*
X7Y238D01*
X1407Y238D02*
X1414Y238D01*
X0Y237D02*
X7Y237D01*
X1407Y237D02*
X1414Y237D01*
X0Y236D02*
X7Y236D01*
X1407Y236D02*
X1414Y236D01*
X0Y235D02*
X7Y235D01*
X1407Y235D02*
X1414Y235D01*
X0Y234D02*
X7Y234D01*
X1407Y234D02*
X1414Y234D01*
X0Y233D02*
X7Y233D01*
X1407Y233D02*
X1414Y233D01*
X0Y232D02*
X7Y232D01*
X1407Y232D02*
X1414Y232D01*
X0Y231D02*
X7Y231D01*
X1407Y231D02*
X1414Y231D01*
X0Y230D02*
X7Y230D01*
X1407Y230D02*
X1414Y230D01*
X0Y229D02*
X7Y229D01*
X1407Y229D02*
X1414Y229D01*
X0Y228D02*
X7Y228D01*
X1407Y228D02*
X1414Y228D01*
X0Y227D02*
X7Y227D01*
X1407Y227D02*
X1414Y227D01*
X0Y226D02*
X7Y226D01*
X1407Y226D02*
X1414Y226D01*
X0Y225D02*
X7Y225D01*
X1407Y225D02*
X1414Y225D01*
X0Y224D02*
X7Y224D01*
X1407Y224D02*
X1414Y224D01*
X0Y223D02*
X7Y223D01*
X1407Y223D02*
X1414Y223D01*
X0Y222D02*
X7Y222D01*
X1407Y222D02*
X1414Y222D01*
X0Y221D02*
X7Y221D01*
X1407Y221D02*
X1414Y221D01*
X0Y220D02*
X7Y220D01*
X1407Y220D02*
X1414Y220D01*
X0Y219D02*
X7Y219D01*
X1407Y219D02*
X1414Y219D01*
X0Y218D02*
X7Y218D01*
X1407Y218D02*
X1414Y218D01*
X0Y217D02*
X7Y217D01*
X1407Y217D02*
X1414Y217D01*
X0Y216D02*
X7Y216D01*
X1407Y216D02*
X1414Y216D01*
X0Y215D02*
X7Y215D01*
X1407Y215D02*
X1414Y215D01*
X0Y214D02*
X7Y214D01*
X1407Y214D02*
X1414Y214D01*
X0Y213D02*
X7Y213D01*
X1407Y213D02*
X1414Y213D01*
X0Y212D02*
X7Y212D01*
X1407Y212D02*
X1414Y212D01*
X0Y211D02*
X7Y211D01*
X1407Y211D02*
X1414Y211D01*
X0Y210D02*
X7Y210D01*
X1407Y210D02*
X1414Y210D01*
X0Y209D02*
X7Y209D01*
X1407Y209D02*
X1414Y209D01*
X0Y208D02*
X7Y208D01*
X1407Y208D02*
X1414Y208D01*
X0Y207D02*
X7Y207D01*
X1407Y207D02*
X1414Y207D01*
X0Y206D02*
X7Y206D01*
X1407Y206D02*
X1414Y206D01*
X0Y205D02*
X7Y205D01*
X1407Y205D02*
X1414Y205D01*
X0Y204D02*
X7Y204D01*
X1407Y204D02*
X1414Y204D01*
X0Y203D02*
X7Y203D01*
X1407Y203D02*
X1414Y203D01*
X0Y202D02*
X7Y202D01*
X1407Y202D02*
X1414Y202D01*
X0Y201D02*
X7Y201D01*
X1407Y201D02*
X1414Y201D01*
X0Y200D02*
X7Y200D01*
X1407Y200D02*
X1414Y200D01*
X0Y199D02*
X7Y199D01*
X1407Y199D02*
X1414Y199D01*
X0Y198D02*
X7Y198D01*
X1407Y198D02*
X1414Y198D01*
X0Y197D02*
X7Y197D01*
X1407Y197D02*
X1414Y197D01*
X0Y196D02*
X7Y196D01*
X1407Y196D02*
X1414Y196D01*
X0Y195D02*
X7Y195D01*
X1407Y195D02*
X1414Y195D01*
X0Y194D02*
X7Y194D01*
X1407Y194D02*
X1414Y194D01*
X0Y193D02*
X7Y193D01*
X1407Y193D02*
X1414Y193D01*
X0Y192D02*
X7Y192D01*
X1407Y192D02*
X1414Y192D01*
X0Y191D02*
X7Y191D01*
X1407Y191D02*
X1414Y191D01*
X0Y190D02*
X7Y190D01*
X1407Y190D02*
X1414Y190D01*
X0Y189D02*
X7Y189D01*
X1407Y189D02*
X1414Y189D01*
X0Y188D02*
X7Y188D01*
X1407Y188D02*
X1414Y188D01*
X0Y187D02*
X7Y187D01*
X1407Y187D02*
X1414Y187D01*
X0Y186D02*
X7Y186D01*
X1407Y186D02*
X1414Y186D01*
X0Y185D02*
X7Y185D01*
X1407Y185D02*
X1414Y185D01*
X0Y184D02*
X7Y184D01*
X1407Y184D02*
X1414Y184D01*
X0Y183D02*
X7Y183D01*
X1407Y183D02*
X1414Y183D01*
X0Y182D02*
X7Y182D01*
X1407Y182D02*
X1414Y182D01*
X0Y181D02*
X7Y181D01*
X1407Y181D02*
X1414Y181D01*
X0Y180D02*
X7Y180D01*
X1407Y180D02*
X1414Y180D01*
X0Y179D02*
X7Y179D01*
X1407Y179D02*
X1414Y179D01*
X0Y178D02*
X7Y178D01*
X1407Y178D02*
X1414Y178D01*
X0Y177D02*
X7Y177D01*
X1407Y177D02*
X1414Y177D01*
X0Y176D02*
X7Y176D01*
X1407Y176D02*
X1414Y176D01*
X0Y175D02*
X7Y175D01*
X1407Y175D02*
X1414Y175D01*
X0Y174D02*
X7Y174D01*
X1407Y174D02*
X1414Y174D01*
X0Y173D02*
X7Y173D01*
X1407Y173D02*
X1414Y173D01*
X0Y172D02*
X7Y172D01*
X1407Y172D02*
X1414Y172D01*
X0Y171D02*
X7Y171D01*
X1407Y171D02*
X1414Y171D01*
X0Y170D02*
X7Y170D01*
X1407Y170D02*
X1414Y170D01*
X0Y169D02*
X7Y169D01*
X1407Y169D02*
X1414Y169D01*
X0Y168D02*
X7Y168D01*
X1407Y168D02*
X1414Y168D01*
X0Y167D02*
X7Y167D01*
X1407Y167D02*
X1414Y167D01*
X0Y166D02*
X7Y166D01*
X1407Y166D02*
X1414Y166D01*
X0Y165D02*
X7Y165D01*
X1407Y165D02*
X1414Y165D01*
X0Y164D02*
X7Y164D01*
X1407Y164D02*
X1414Y164D01*
X0Y163D02*
X7Y163D01*
X1407Y163D02*
X1414Y163D01*
X0Y162D02*
X7Y162D01*
X1407Y162D02*
X1414Y162D01*
X0Y161D02*
X7Y161D01*
X1407Y161D02*
X1414Y161D01*
X0Y160D02*
X7Y160D01*
X1407Y160D02*
X1414Y160D01*
X0Y159D02*
X7Y159D01*
X1407Y159D02*
X1414Y159D01*
X0Y158D02*
X7Y158D01*
X1407Y158D02*
X1414Y158D01*
X0Y157D02*
X7Y157D01*
X1407Y157D02*
X1414Y157D01*
X0Y156D02*
X7Y156D01*
X1407Y156D02*
X1414Y156D01*
X0Y155D02*
X7Y155D01*
X1407Y155D02*
X1414Y155D01*
X0Y154D02*
X7Y154D01*
X1407Y154D02*
X1414Y154D01*
X0Y153D02*
X7Y153D01*
X1407Y153D02*
X1414Y153D01*
X0Y152D02*
X7Y152D01*
X1407Y152D02*
X1414Y152D01*
X0Y151D02*
X7Y151D01*
X1407Y151D02*
X1414Y151D01*
X0Y150D02*
X7Y150D01*
X1407Y150D02*
X1414Y150D01*
X0Y149D02*
X7Y149D01*
X1407Y149D02*
X1414Y149D01*
X0Y148D02*
X7Y148D01*
X1407Y148D02*
X1414Y148D01*
X0Y147D02*
X7Y147D01*
X1407Y147D02*
X1414Y147D01*
X0Y146D02*
X7Y146D01*
X1407Y146D02*
X1414Y146D01*
X0Y145D02*
X7Y145D01*
X1407Y145D02*
X1414Y145D01*
X0Y144D02*
X7Y144D01*
X1407Y144D02*
X1414Y144D01*
X0Y143D02*
X7Y143D01*
X1407Y143D02*
X1414Y143D01*
X0Y142D02*
X7Y142D01*
X1407Y142D02*
X1414Y142D01*
X0Y141D02*
X7Y141D01*
X1407Y141D02*
X1414Y141D01*
X0Y140D02*
X7Y140D01*
X1407Y140D02*
X1414Y140D01*
X0Y139D02*
X7Y139D01*
X1407Y139D02*
X1414Y139D01*
X0Y138D02*
X7Y138D01*
X1407Y138D02*
X1414Y138D01*
X0Y137D02*
X7Y137D01*
X1407Y137D02*
X1414Y137D01*
X0Y136D02*
X7Y136D01*
X1407Y136D02*
X1414Y136D01*
X0Y135D02*
X7Y135D01*
X1407Y135D02*
X1414Y135D01*
X0Y134D02*
X7Y134D01*
X1407Y134D02*
X1414Y134D01*
X0Y133D02*
X7Y133D01*
X1407Y133D02*
X1414Y133D01*
X0Y132D02*
X7Y132D01*
X1407Y132D02*
X1414Y132D01*
X0Y131D02*
X7Y131D01*
X1407Y131D02*
X1414Y131D01*
X0Y130D02*
X7Y130D01*
X1407Y130D02*
X1414Y130D01*
X0Y129D02*
X7Y129D01*
X1407Y129D02*
X1414Y129D01*
X0Y128D02*
X7Y128D01*
X1407Y128D02*
X1414Y128D01*
X0Y127D02*
X7Y127D01*
X1407Y127D02*
X1414Y127D01*
X0Y126D02*
X7Y126D01*
X1407Y126D02*
X1414Y126D01*
X0Y125D02*
X7Y125D01*
X1407Y125D02*
X1414Y125D01*
X0Y124D02*
X7Y124D01*
X1407Y124D02*
X1414Y124D01*
X0Y123D02*
X7Y123D01*
X1407Y123D02*
X1414Y123D01*
X0Y122D02*
X7Y122D01*
X1407Y122D02*
X1414Y122D01*
X0Y121D02*
X7Y121D01*
X1407Y121D02*
X1414Y121D01*
X0Y120D02*
X7Y120D01*
X1407Y120D02*
X1414Y120D01*
X0Y119D02*
X7Y119D01*
X1407Y119D02*
X1414Y119D01*
X0Y118D02*
X7Y118D01*
X1407Y118D02*
X1414Y118D01*
X0Y117D02*
X7Y117D01*
X1407Y117D02*
X1414Y117D01*
X0Y116D02*
X7Y116D01*
X1407Y116D02*
X1414Y116D01*
X0Y115D02*
X7Y115D01*
X1407Y115D02*
X1414Y115D01*
X0Y114D02*
X7Y114D01*
X1407Y114D02*
X1414Y114D01*
X0Y113D02*
X7Y113D01*
X1407Y113D02*
X1414Y113D01*
X0Y112D02*
X7Y112D01*
X1407Y112D02*
X1414Y112D01*
X0Y111D02*
X7Y111D01*
X1407Y111D02*
X1414Y111D01*
X0Y110D02*
X7Y110D01*
X1407Y110D02*
X1414Y110D01*
X0Y109D02*
X7Y109D01*
X1407Y109D02*
X1414Y109D01*
X0Y108D02*
X7Y108D01*
X1407Y108D02*
X1414Y108D01*
X0Y107D02*
X7Y107D01*
X1407Y107D02*
X1414Y107D01*
X0Y106D02*
X7Y106D01*
X1407Y106D02*
X1414Y106D01*
X0Y105D02*
X7Y105D01*
X1407Y105D02*
X1414Y105D01*
X0Y104D02*
X7Y104D01*
X1407Y104D02*
X1414Y104D01*
X0Y103D02*
X7Y103D01*
X1407Y103D02*
X1414Y103D01*
X0Y102D02*
X7Y102D01*
X1407Y102D02*
X1414Y102D01*
X0Y101D02*
X7Y101D01*
X1407Y101D02*
X1414Y101D01*
X0Y100D02*
X7Y100D01*
X1407Y100D02*
X1414Y100D01*
X0Y99D02*
X7Y99D01*
X1407Y99D02*
X1414Y99D01*
X0Y98D02*
X7Y98D01*
X1407Y98D02*
X1414Y98D01*
X0Y97D02*
X7Y97D01*
X1407Y97D02*
X1414Y97D01*
X0Y96D02*
X7Y96D01*
X1407Y96D02*
X1414Y96D01*
X0Y95D02*
X7Y95D01*
X1407Y95D02*
X1414Y95D01*
X0Y94D02*
X7Y94D01*
X1407Y94D02*
X1414Y94D01*
X0Y93D02*
X7Y93D01*
X1407Y93D02*
X1414Y93D01*
X0Y92D02*
X7Y92D01*
X1407Y92D02*
X1414Y92D01*
X0Y91D02*
X7Y91D01*
X1407Y91D02*
X1414Y91D01*
X0Y90D02*
X7Y90D01*
X1407Y90D02*
X1414Y90D01*
X0Y89D02*
X7Y89D01*
X1407Y89D02*
X1414Y89D01*
X0Y88D02*
X7Y88D01*
X1407Y88D02*
X1414Y88D01*
X0Y87D02*
X7Y87D01*
X1407Y87D02*
X1414Y87D01*
X0Y86D02*
X7Y86D01*
X1407Y86D02*
X1414Y86D01*
X0Y85D02*
X7Y85D01*
X1407Y85D02*
X1414Y85D01*
X0Y84D02*
X7Y84D01*
X1407Y84D02*
X1414Y84D01*
X0Y83D02*
X7Y83D01*
X1407Y83D02*
X1414Y83D01*
X0Y82D02*
X7Y82D01*
X1407Y82D02*
X1414Y82D01*
X0Y81D02*
X7Y81D01*
X1407Y81D02*
X1414Y81D01*
X0Y80D02*
X7Y80D01*
X1407Y80D02*
X1414Y80D01*
X0Y79D02*
X7Y79D01*
X1407Y79D02*
X1414Y79D01*
X0Y78D02*
X7Y78D01*
X1407Y78D02*
X1414Y78D01*
X0Y77D02*
X7Y77D01*
X1407Y77D02*
X1414Y77D01*
X0Y76D02*
X7Y76D01*
X1407Y76D02*
X1414Y76D01*
X0Y75D02*
X7Y75D01*
X1407Y75D02*
X1414Y75D01*
X0Y74D02*
X7Y74D01*
X1407Y74D02*
X1414Y74D01*
X0Y73D02*
X7Y73D01*
X1407Y73D02*
X1414Y73D01*
X0Y72D02*
X7Y72D01*
X1407Y72D02*
X1414Y72D01*
X0Y71D02*
X7Y71D01*
X1407Y71D02*
X1414Y71D01*
X0Y70D02*
X7Y70D01*
X1407Y70D02*
X1414Y70D01*
X0Y69D02*
X7Y69D01*
X1407Y69D02*
X1414Y69D01*
X0Y68D02*
X7Y68D01*
X1407Y68D02*
X1414Y68D01*
X0Y67D02*
X7Y67D01*
X1407Y67D02*
X1414Y67D01*
X0Y66D02*
X7Y66D01*
X1407Y66D02*
X1414Y66D01*
X0Y65D02*
X6Y65D01*
X1407Y65D02*
X1414Y65D01*
X0Y64D02*
X6Y64D01*
X1407Y64D02*
X1414Y64D01*
X0Y63D02*
X6Y63D01*
X1407Y63D02*
X1414Y63D01*
X0Y62D02*
X5Y62D01*
X1407Y62D02*
X1414Y62D01*
X0Y61D02*
X5Y61D01*
X1407Y61D02*
X1414Y61D01*
X0Y60D02*
X5Y60D01*
X1407Y60D02*
X1414Y60D01*
X0Y59D02*
X4Y59D01*
X1407Y59D02*
X1414Y59D01*
X0Y58D02*
X4Y58D01*
X1407Y58D02*
X1414Y58D01*
X0Y57D02*
X4Y57D01*
X1407Y57D02*
X1414Y57D01*
X0Y56D02*
X4Y56D01*
X1407Y56D02*
X1414Y56D01*
X0Y55D02*
X3Y55D01*
X1407Y55D02*
X1414Y55D01*
X0Y54D02*
X3Y54D01*
X1407Y54D02*
X1414Y54D01*
X0Y53D02*
X3Y53D01*
X1407Y53D02*
X1414Y53D01*
X0Y52D02*
X3Y52D01*
X1407Y52D02*
X1414Y52D01*
X0Y51D02*
X3Y51D01*
X1407Y51D02*
X1414Y51D01*
X0Y50D02*
X3Y50D01*
X1407Y50D02*
X1414Y50D01*
X0Y49D02*
X3Y49D01*
X1407Y49D02*
X1414Y49D01*
X0Y48D02*
X3Y48D01*
X1407Y48D02*
X1414Y48D01*
X0Y47D02*
X3Y47D01*
X1407Y47D02*
X1414Y47D01*
X0Y46D02*
X3Y46D01*
X1407Y46D02*
X1414Y46D01*
X0Y45D02*
X3Y45D01*
X1407Y45D02*
X1414Y45D01*
X0Y44D02*
X3Y44D01*
X1407Y44D02*
X1414Y44D01*
X0Y43D02*
X4Y43D01*
X1407Y43D02*
X1414Y43D01*
X0Y42D02*
X4Y42D01*
X1407Y42D02*
X1414Y42D01*
X0Y41D02*
X4Y41D01*
X1407Y41D02*
X1414Y41D01*
X0Y40D02*
X4Y40D01*
X1407Y40D02*
X1414Y40D01*
X0Y39D02*
X5Y39D01*
X1407Y39D02*
X1414Y39D01*
X0Y38D02*
X5Y38D01*
X1407Y38D02*
X1414Y38D01*
X0Y37D02*
X5Y37D01*
X1407Y37D02*
X1414Y37D01*
X0Y36D02*
X6Y36D01*
X1407Y36D02*
X1414Y36D01*
X0Y35D02*
X6Y35D01*
X1407Y35D02*
X1414Y35D01*
X0Y34D02*
X6Y34D01*
X1407Y34D02*
X1414Y34D01*
X0Y33D02*
X7Y33D01*
X1407Y33D02*
X1414Y33D01*
X0Y32D02*
X7Y32D01*
X1407Y32D02*
X1414Y32D01*
X0Y31D02*
X7Y31D01*
X1407Y31D02*
X1414Y31D01*
X0Y30D02*
X7Y30D01*
X1407Y30D02*
X1414Y30D01*
X0Y29D02*
X7Y29D01*
X1407Y29D02*
X1414Y29D01*
X0Y28D02*
X7Y28D01*
X1407Y28D02*
X1414Y28D01*
X0Y27D02*
X7Y27D01*
X1407Y27D02*
X1414Y27D01*
X0Y26D02*
X7Y26D01*
X1407Y26D02*
X1414Y26D01*
X0Y25D02*
X7Y25D01*
X1407Y25D02*
X1414Y25D01*
X0Y24D02*
X7Y24D01*
X1407Y24D02*
X1414Y24D01*
X0Y23D02*
X7Y23D01*
X1407Y23D02*
X1414Y23D01*
X0Y22D02*
X7Y22D01*
X1407Y22D02*
X1414Y22D01*
X0Y21D02*
X7Y21D01*
X1407Y21D02*
X1414Y21D01*
X0Y20D02*
X7Y20D01*
X1407Y20D02*
X1414Y20D01*
X0Y19D02*
X7Y19D01*
X1407Y19D02*
X1414Y19D01*
X0Y18D02*
X7Y18D01*
X1407Y18D02*
X1414Y18D01*
X0Y17D02*
X7Y17D01*
X1407Y17D02*
X1414Y17D01*
X0Y16D02*
X7Y16D01*
X1407Y16D02*
X1414Y16D01*
X0Y15D02*
X7Y15D01*
X1407Y15D02*
X1414Y15D01*
X0Y14D02*
X7Y14D01*
X1407Y14D02*
X1414Y14D01*
X0Y13D02*
X7Y13D01*
X1407Y13D02*
X1414Y13D01*
X0Y12D02*
X7Y12D01*
X1407Y12D02*
X1414Y12D01*
X0Y11D02*
X7Y11D01*
X1407Y11D02*
X1414Y11D01*
X0Y10D02*
X7Y10D01*
X1407Y10D02*
X1414Y10D01*
X0Y9D02*
X35Y9D01*
X55Y9D02*
X213Y9D01*
X233Y9D02*
X335Y9D01*
X355Y9D02*
X513Y9D01*
X533Y9D02*
X635Y9D01*
X655Y9D02*
X813Y9D01*
X833Y9D02*
X935Y9D01*
X955Y9D02*
X1113Y9D01*
X1133Y9D02*
X1414Y9D01*
X0Y8D02*
X40Y8D01*
X51Y8D02*
X218Y8D01*
X228Y8D02*
X340Y8D01*
X350Y8D02*
X518Y8D01*
X528Y8D02*
X640Y8D01*
X650Y8D02*
X818Y8D01*
X828Y8D02*
X940Y8D01*
X950Y8D02*
X1118Y8D01*
X1128Y8D02*
X1414Y8D01*
X0Y7D02*
X1414Y7D01*
X0Y6D02*
X1414Y6D01*
X0Y5D02*
X1414Y5D01*
X0Y4D02*
X1414Y4D01*
X0Y3D02*
X1414Y3D01*
X0Y2D02*
X1414Y2D01*
D02*
G04 End of Silk0*
M02*