; NON-PLATED HOLES START AT T1
; THROUGH (PLATED) HOLES START AT T100
M48
INCH
T100C0.035433
T101C0.040972
T102C0.031497
T103C0.015748
T104C0.038000
T105C0.041000
T106C0.040000
T107C0.035000
%
T100
X002429Y015291
X004988Y015291
T101
X012239Y005290
X013239Y005290
X012244Y002290
X012239Y006290
X013244Y002290
X012239Y010290
X013239Y006290
X013239Y010290
X012239Y007290
X012239Y011290
X013239Y007290
X013239Y011290
X012244Y004290
X012239Y008290
X013244Y004290
X012239Y012290
X013239Y012290
X013239Y013290
T102
X012238Y015791
X013223Y015791
T103
X008849Y001541
T104
X001988Y011541
X001988Y009541
X001988Y010541
T105
X012238Y014291
X013244Y003290
X012244Y003290
X013239Y009290
X012239Y009290
X012238Y013301
X013239Y008290
X013238Y014291
T106
X008238Y003041
X008238Y004981
X003458Y007541
X002238Y007541
X006458Y007541
X011238Y007541
X003458Y012041
X005238Y007541
X009458Y007541
X000458Y000481
X006458Y012041
X011238Y012041
X008238Y007541
X003458Y000481
X005238Y012041
X009458Y012041
X002238Y000481
X006458Y000481
X011238Y000481
X008238Y012041
X005238Y000481
X009458Y000481
X000458Y003041
X003458Y009481
X000458Y004981
X008238Y000481
X003458Y003041
X006458Y009481
X003458Y004981
X011238Y009481
X002238Y003041
X006458Y003041
X011238Y003041
X005238Y009481
X002238Y004981
X009458Y009481
X006458Y004981
X011238Y004981
X005238Y003041
X009458Y003041
X008238Y009481
X005238Y004981
X009458Y004981
X000458Y007541
T107
X009238Y017041
X013488Y017041
X007238Y017041
X011488Y017041
T00
M30
