G04 MADE WITH FRITZING*
G04 WWW.FRITZING.ORG*
G04 DOUBLE SIDED*
G04 HOLES PLATED*
G04 CONTOUR ON CENTER OF CONTOUR VECTOR*
%ASAXBY*%
%FSLAX23Y23*%
%MOIN*%
%OFA0B0*%
%SFA1.0B1.0*%
%ADD10C,0.472568X0.456568*%
%ADD11C,0.108000X0.092*%
%ADD12C,0.148000X0.132*%
%ADD13C,0.010000*%
%ADD14C,0.005000*%
%ADD15C,0.008000*%
%ADD16R,0.001000X0.001000*%
%LNSILK1*%
G90*
G70*
G54D10*
X371Y1529D03*
G54D11*
X371Y1529D03*
G54D12*
X135Y626D03*
X135Y176D03*
X435Y176D03*
X435Y626D03*
X435Y1076D03*
X735Y176D03*
X735Y626D03*
X735Y1076D03*
X1035Y176D03*
X1035Y626D03*
X1035Y1076D03*
G54D13*
X849Y1680D02*
X799Y1680D01*
D02*
X799Y1680D02*
X799Y1730D01*
D02*
X799Y1730D02*
X849Y1730D01*
D02*
X849Y1730D02*
X849Y1680D01*
D02*
X1274Y1680D02*
X1224Y1680D01*
D02*
X1224Y1680D02*
X1224Y1730D01*
D02*
X1224Y1730D02*
X1274Y1730D01*
D02*
X1274Y1730D02*
X1274Y1680D01*
D02*
X149Y1204D02*
X149Y904D01*
D02*
X149Y904D02*
X249Y904D01*
D02*
X249Y904D02*
X249Y1204D01*
D02*
X249Y1204D02*
X149Y1204D01*
G54D14*
D02*
X149Y1169D02*
X184Y1204D01*
G54D15*
D02*
X255Y541D02*
X255Y711D01*
D02*
X15Y711D02*
X15Y541D01*
D02*
X174Y506D02*
X95Y506D01*
D02*
X175Y746D02*
X95Y746D01*
D02*
X255Y91D02*
X255Y261D01*
D02*
X15Y261D02*
X15Y91D01*
D02*
X174Y56D02*
X95Y56D01*
D02*
X175Y296D02*
X95Y296D01*
D02*
X555Y91D02*
X555Y261D01*
D02*
X315Y261D02*
X315Y91D01*
D02*
X474Y56D02*
X395Y56D01*
D02*
X475Y296D02*
X395Y296D01*
D02*
X555Y541D02*
X555Y711D01*
D02*
X315Y711D02*
X315Y541D01*
D02*
X474Y506D02*
X395Y506D01*
D02*
X475Y746D02*
X395Y746D01*
D02*
X555Y991D02*
X555Y1161D01*
D02*
X315Y1161D02*
X315Y991D01*
D02*
X474Y956D02*
X395Y956D01*
D02*
X475Y1196D02*
X395Y1196D01*
D02*
X855Y91D02*
X855Y261D01*
D02*
X615Y261D02*
X615Y91D01*
D02*
X774Y56D02*
X695Y56D01*
D02*
X775Y296D02*
X695Y296D01*
D02*
X855Y541D02*
X855Y711D01*
D02*
X615Y711D02*
X615Y541D01*
D02*
X774Y506D02*
X695Y506D01*
D02*
X775Y746D02*
X695Y746D01*
D02*
X855Y991D02*
X855Y1161D01*
D02*
X615Y1161D02*
X615Y991D01*
D02*
X774Y956D02*
X695Y956D01*
D02*
X775Y1196D02*
X695Y1196D01*
D02*
X1155Y91D02*
X1155Y261D01*
D02*
X915Y261D02*
X915Y91D01*
D02*
X1074Y56D02*
X995Y56D01*
D02*
X1075Y296D02*
X995Y296D01*
D02*
X1155Y541D02*
X1155Y711D01*
D02*
X915Y711D02*
X915Y541D01*
D02*
X1074Y506D02*
X995Y506D01*
D02*
X1075Y746D02*
X995Y746D01*
D02*
X1155Y991D02*
X1155Y1161D01*
D02*
X915Y1161D02*
X915Y991D01*
D02*
X1074Y956D02*
X995Y956D01*
D02*
X1075Y1196D02*
X995Y1196D01*
G36*
X972Y1463D02*
X970Y1463D01*
X970Y1468D01*
X969Y1468D01*
X969Y1471D01*
X967Y1471D01*
X967Y1474D01*
X966Y1474D01*
X966Y1476D01*
X964Y1476D01*
X964Y1477D01*
X963Y1477D01*
X963Y1479D01*
X961Y1479D01*
X961Y1480D01*
X960Y1480D01*
X960Y1482D01*
X958Y1482D01*
X958Y1483D01*
X955Y1483D01*
X955Y1485D01*
X950Y1485D01*
X950Y1486D01*
X946Y1486D01*
X946Y1488D01*
X944Y1488D01*
X944Y1491D01*
X943Y1491D01*
X943Y1494D01*
X941Y1494D01*
X941Y1497D01*
X940Y1497D01*
X940Y1501D01*
X938Y1501D01*
X938Y1504D01*
X937Y1504D01*
X937Y1506D01*
X935Y1506D01*
X935Y1509D01*
X934Y1509D01*
X934Y1510D01*
X932Y1510D01*
X932Y1512D01*
X931Y1512D01*
X931Y1515D01*
X929Y1515D01*
X929Y1516D01*
X928Y1516D01*
X928Y1519D01*
X926Y1519D01*
X926Y1521D01*
X925Y1521D01*
X925Y1522D01*
X923Y1522D01*
X923Y1524D01*
X922Y1524D01*
X922Y1525D01*
X920Y1525D01*
X920Y1442D01*
X919Y1442D01*
X919Y1438D01*
X917Y1438D01*
X917Y1435D01*
X916Y1435D01*
X916Y1427D01*
X914Y1427D01*
X914Y1424D01*
X913Y1424D01*
X913Y1423D01*
X911Y1423D01*
X911Y1420D01*
X910Y1420D01*
X910Y1418D01*
X908Y1418D01*
X908Y1417D01*
X907Y1417D01*
X907Y1414D01*
X905Y1414D01*
X905Y1412D01*
X904Y1412D01*
X904Y1411D01*
X902Y1411D01*
X902Y1409D01*
X901Y1409D01*
X901Y1408D01*
X899Y1408D01*
X899Y1406D01*
X898Y1406D01*
X898Y1405D01*
X895Y1405D01*
X895Y1403D01*
X893Y1403D01*
X893Y1402D01*
X892Y1402D01*
X892Y1400D01*
X889Y1400D01*
X889Y1399D01*
X886Y1399D01*
X886Y1397D01*
X881Y1397D01*
X881Y1396D01*
X878Y1396D01*
X878Y1394D01*
X873Y1394D01*
X873Y1392D01*
X869Y1392D01*
X869Y1391D01*
X855Y1391D01*
X855Y1389D01*
X827Y1389D01*
X827Y1388D01*
X813Y1388D01*
X813Y1386D01*
X804Y1386D01*
X804Y1385D01*
X789Y1385D01*
X789Y1383D01*
X784Y1383D01*
X784Y1382D01*
X778Y1382D01*
X778Y1380D01*
X774Y1380D01*
X774Y1379D01*
X769Y1379D01*
X769Y1377D01*
X765Y1377D01*
X765Y1376D01*
X762Y1376D01*
X762Y1374D01*
X757Y1374D01*
X757Y1373D01*
X753Y1373D01*
X753Y1371D01*
X748Y1371D01*
X748Y1370D01*
X745Y1370D01*
X745Y1368D01*
X742Y1368D01*
X742Y1367D01*
X739Y1367D01*
X739Y1365D01*
X738Y1365D01*
X738Y1364D01*
X735Y1364D01*
X735Y1362D01*
X733Y1362D01*
X733Y1361D01*
X730Y1361D01*
X730Y1359D01*
X726Y1359D01*
X726Y1358D01*
X724Y1358D01*
X724Y1356D01*
X723Y1356D01*
X723Y1355D01*
X721Y1355D01*
X721Y1353D01*
X720Y1353D01*
X720Y1352D01*
X718Y1352D01*
X718Y1350D01*
X715Y1350D01*
X715Y1349D01*
X713Y1349D01*
X713Y1347D01*
X712Y1347D01*
X712Y1346D01*
X710Y1346D01*
X710Y1343D01*
X707Y1343D01*
X707Y1341D01*
X706Y1341D01*
X706Y1340D01*
X704Y1340D01*
X704Y1338D01*
X700Y1338D01*
X700Y1337D01*
X692Y1337D01*
X692Y1308D01*
X704Y1308D01*
X704Y1309D01*
X712Y1309D01*
X712Y1311D01*
X715Y1311D01*
X715Y1312D01*
X717Y1312D01*
X717Y1314D01*
X720Y1314D01*
X720Y1316D01*
X723Y1316D01*
X723Y1317D01*
X724Y1317D01*
X724Y1319D01*
X726Y1319D01*
X726Y1320D01*
X727Y1320D01*
X727Y1322D01*
X729Y1322D01*
X729Y1323D01*
X732Y1323D01*
X732Y1325D01*
X733Y1325D01*
X733Y1326D01*
X735Y1326D01*
X735Y1328D01*
X736Y1328D01*
X736Y1329D01*
X738Y1329D01*
X738Y1332D01*
X741Y1332D01*
X741Y1334D01*
X742Y1334D01*
X742Y1335D01*
X747Y1335D01*
X747Y1337D01*
X748Y1337D01*
X748Y1338D01*
X750Y1338D01*
X750Y1340D01*
X753Y1340D01*
X753Y1341D01*
X756Y1341D01*
X756Y1343D01*
X759Y1343D01*
X759Y1344D01*
X762Y1344D01*
X762Y1346D01*
X765Y1346D01*
X765Y1347D01*
X772Y1347D01*
X772Y1349D01*
X777Y1349D01*
X777Y1350D01*
X781Y1350D01*
X781Y1352D01*
X787Y1352D01*
X787Y1353D01*
X792Y1353D01*
X792Y1355D01*
X798Y1355D01*
X798Y1356D01*
X806Y1356D01*
X806Y1358D01*
X815Y1358D01*
X815Y1359D01*
X830Y1359D01*
X830Y1361D01*
X870Y1361D01*
X870Y1362D01*
X877Y1362D01*
X877Y1364D01*
X881Y1364D01*
X881Y1365D01*
X886Y1365D01*
X886Y1367D01*
X890Y1367D01*
X890Y1368D01*
X892Y1368D01*
X892Y1370D01*
X896Y1370D01*
X896Y1371D01*
X899Y1371D01*
X899Y1373D01*
X902Y1373D01*
X902Y1374D01*
X905Y1374D01*
X905Y1376D01*
X907Y1376D01*
X907Y1377D01*
X910Y1377D01*
X910Y1379D01*
X911Y1379D01*
X911Y1380D01*
X913Y1380D01*
X913Y1382D01*
X914Y1382D01*
X914Y1383D01*
X916Y1383D01*
X916Y1385D01*
X919Y1385D01*
X919Y1386D01*
X920Y1386D01*
X920Y1388D01*
X922Y1388D01*
X922Y1389D01*
X923Y1389D01*
X923Y1391D01*
X925Y1391D01*
X925Y1392D01*
X926Y1392D01*
X926Y1394D01*
X928Y1394D01*
X928Y1397D01*
X929Y1397D01*
X929Y1399D01*
X931Y1399D01*
X931Y1400D01*
X932Y1400D01*
X932Y1402D01*
X934Y1402D01*
X934Y1405D01*
X935Y1405D01*
X935Y1406D01*
X937Y1406D01*
X937Y1409D01*
X938Y1409D01*
X938Y1411D01*
X940Y1411D01*
X940Y1415D01*
X941Y1415D01*
X941Y1420D01*
X943Y1420D01*
X943Y1423D01*
X944Y1423D01*
X944Y1426D01*
X949Y1426D01*
X949Y1427D01*
X953Y1427D01*
X953Y1429D01*
X955Y1429D01*
X955Y1430D01*
X958Y1430D01*
X958Y1432D01*
X960Y1432D01*
X960Y1433D01*
X963Y1433D01*
X963Y1435D01*
X964Y1435D01*
X964Y1436D01*
X966Y1436D01*
X966Y1439D01*
X967Y1439D01*
X967Y1442D01*
X969Y1442D01*
X969Y1445D01*
X970Y1445D01*
X970Y1448D01*
X972Y1448D01*
X972Y1463D01*
G37*
D02*
G36*
X920Y1525D02*
X919Y1525D01*
X919Y1527D01*
X917Y1527D01*
X917Y1528D01*
X916Y1528D01*
X916Y1530D01*
X914Y1530D01*
X914Y1531D01*
X913Y1531D01*
X913Y1533D01*
X911Y1533D01*
X911Y1534D01*
X908Y1534D01*
X908Y1536D01*
X905Y1536D01*
X905Y1537D01*
X904Y1537D01*
X904Y1539D01*
X901Y1539D01*
X901Y1540D01*
X899Y1540D01*
X899Y1542D01*
X895Y1542D01*
X895Y1543D01*
X892Y1543D01*
X892Y1545D01*
X889Y1545D01*
X889Y1546D01*
X886Y1546D01*
X886Y1548D01*
X877Y1548D01*
X877Y1549D01*
X870Y1549D01*
X870Y1551D01*
X854Y1551D01*
X854Y1552D01*
X828Y1552D01*
X828Y1554D01*
X815Y1554D01*
X815Y1556D01*
X806Y1556D01*
X806Y1557D01*
X798Y1557D01*
X798Y1559D01*
X792Y1559D01*
X792Y1560D01*
X781Y1560D01*
X781Y1562D01*
X777Y1562D01*
X777Y1563D01*
X774Y1563D01*
X774Y1565D01*
X769Y1565D01*
X769Y1566D01*
X765Y1566D01*
X765Y1568D01*
X762Y1568D01*
X762Y1569D01*
X759Y1569D01*
X759Y1571D01*
X756Y1571D01*
X756Y1572D01*
X753Y1572D01*
X753Y1574D01*
X750Y1574D01*
X750Y1575D01*
X747Y1575D01*
X747Y1577D01*
X744Y1577D01*
X744Y1578D01*
X742Y1578D01*
X742Y1580D01*
X739Y1580D01*
X739Y1581D01*
X738Y1581D01*
X738Y1584D01*
X736Y1584D01*
X736Y1586D01*
X733Y1586D01*
X733Y1587D01*
X732Y1587D01*
X732Y1589D01*
X730Y1589D01*
X730Y1590D01*
X729Y1590D01*
X729Y1592D01*
X727Y1592D01*
X727Y1593D01*
X726Y1593D01*
X726Y1595D01*
X724Y1595D01*
X724Y1596D01*
X723Y1596D01*
X723Y1598D01*
X718Y1598D01*
X718Y1599D01*
X715Y1599D01*
X715Y1601D01*
X712Y1601D01*
X712Y1602D01*
X707Y1602D01*
X707Y1604D01*
X704Y1604D01*
X704Y1605D01*
X692Y1605D01*
X692Y1575D01*
X700Y1575D01*
X700Y1574D01*
X706Y1574D01*
X706Y1572D01*
X707Y1572D01*
X707Y1571D01*
X709Y1571D01*
X709Y1569D01*
X710Y1569D01*
X710Y1568D01*
X712Y1568D01*
X712Y1565D01*
X713Y1565D01*
X713Y1563D01*
X717Y1563D01*
X717Y1562D01*
X718Y1562D01*
X718Y1560D01*
X721Y1560D01*
X721Y1559D01*
X723Y1559D01*
X723Y1557D01*
X724Y1557D01*
X724Y1556D01*
X726Y1556D01*
X726Y1554D01*
X729Y1554D01*
X729Y1552D01*
X730Y1552D01*
X730Y1551D01*
X733Y1551D01*
X733Y1549D01*
X736Y1549D01*
X736Y1548D01*
X739Y1548D01*
X739Y1546D01*
X742Y1546D01*
X742Y1545D01*
X745Y1545D01*
X745Y1543D01*
X748Y1543D01*
X748Y1542D01*
X750Y1542D01*
X750Y1540D01*
X754Y1540D01*
X754Y1539D01*
X759Y1539D01*
X759Y1537D01*
X762Y1537D01*
X762Y1536D01*
X769Y1536D01*
X769Y1534D01*
X774Y1534D01*
X774Y1533D01*
X778Y1533D01*
X778Y1531D01*
X784Y1531D01*
X784Y1530D01*
X789Y1530D01*
X789Y1528D01*
X798Y1528D01*
X798Y1527D01*
X804Y1527D01*
X804Y1525D01*
X813Y1525D01*
X813Y1524D01*
X852Y1524D01*
X852Y1522D01*
X869Y1522D01*
X869Y1521D01*
X873Y1521D01*
X873Y1519D01*
X877Y1519D01*
X877Y1518D01*
X881Y1518D01*
X881Y1516D01*
X884Y1516D01*
X884Y1515D01*
X887Y1515D01*
X887Y1513D01*
X890Y1513D01*
X890Y1512D01*
X893Y1512D01*
X893Y1510D01*
X895Y1510D01*
X895Y1509D01*
X896Y1509D01*
X896Y1507D01*
X899Y1507D01*
X899Y1506D01*
X901Y1506D01*
X901Y1504D01*
X902Y1504D01*
X902Y1503D01*
X904Y1503D01*
X904Y1500D01*
X905Y1500D01*
X905Y1498D01*
X907Y1498D01*
X907Y1497D01*
X908Y1497D01*
X908Y1495D01*
X910Y1495D01*
X910Y1494D01*
X911Y1494D01*
X911Y1491D01*
X913Y1491D01*
X913Y1488D01*
X914Y1488D01*
X914Y1485D01*
X916Y1485D01*
X916Y1479D01*
X917Y1479D01*
X917Y1474D01*
X919Y1474D01*
X919Y1471D01*
X920Y1471D01*
X920Y1525D01*
G37*
D02*
G36*
X692Y1605D02*
X691Y1605D01*
X691Y1308D01*
X692Y1308D01*
X692Y1605D01*
G37*
D02*
G36*
X692Y1605D02*
X691Y1605D01*
X691Y1308D01*
X692Y1308D01*
X692Y1605D01*
G37*
D02*
G36*
X691Y1605D02*
X685Y1605D01*
X685Y1604D01*
X682Y1604D01*
X682Y1602D01*
X679Y1602D01*
X679Y1601D01*
X676Y1601D01*
X676Y1599D01*
X674Y1599D01*
X674Y1598D01*
X671Y1598D01*
X671Y1595D01*
X670Y1595D01*
X670Y1593D01*
X668Y1593D01*
X668Y1592D01*
X667Y1592D01*
X667Y1589D01*
X665Y1589D01*
X665Y1587D01*
X664Y1587D01*
X664Y1583D01*
X662Y1583D01*
X662Y1488D01*
X661Y1488D01*
X661Y1486D01*
X652Y1486D01*
X652Y1485D01*
X647Y1485D01*
X647Y1483D01*
X644Y1483D01*
X644Y1482D01*
X643Y1482D01*
X643Y1480D01*
X641Y1480D01*
X641Y1479D01*
X638Y1479D01*
X638Y1476D01*
X637Y1476D01*
X637Y1474D01*
X635Y1474D01*
X635Y1471D01*
X633Y1471D01*
X633Y1468D01*
X632Y1468D01*
X632Y1463D01*
X630Y1463D01*
X630Y1448D01*
X632Y1448D01*
X632Y1444D01*
X633Y1444D01*
X633Y1442D01*
X635Y1442D01*
X635Y1439D01*
X637Y1439D01*
X637Y1436D01*
X638Y1436D01*
X638Y1435D01*
X640Y1435D01*
X640Y1433D01*
X643Y1433D01*
X643Y1432D01*
X644Y1432D01*
X644Y1430D01*
X647Y1430D01*
X647Y1429D01*
X649Y1429D01*
X649Y1427D01*
X653Y1427D01*
X653Y1426D01*
X661Y1426D01*
X661Y1424D01*
X662Y1424D01*
X662Y1331D01*
X664Y1331D01*
X664Y1326D01*
X665Y1326D01*
X665Y1323D01*
X667Y1323D01*
X667Y1322D01*
X668Y1322D01*
X668Y1320D01*
X670Y1320D01*
X670Y1317D01*
X671Y1317D01*
X671Y1316D01*
X673Y1316D01*
X673Y1314D01*
X674Y1314D01*
X674Y1312D01*
X676Y1312D01*
X676Y1311D01*
X679Y1311D01*
X679Y1309D01*
X685Y1309D01*
X685Y1308D01*
X691Y1308D01*
X691Y1605D01*
G37*
D02*
G36*
X818Y1477D02*
X816Y1477D01*
X816Y1492D01*
X815Y1492D01*
X815Y1497D01*
X813Y1497D01*
X813Y1503D01*
X812Y1503D01*
X812Y1504D01*
X810Y1504D01*
X810Y1506D01*
X809Y1506D01*
X809Y1507D01*
X807Y1507D01*
X807Y1509D01*
X803Y1509D01*
X803Y1485D01*
X801Y1485D01*
X801Y1442D01*
X787Y1442D01*
X787Y1444D01*
X769Y1444D01*
X769Y1445D01*
X759Y1445D01*
X759Y1447D01*
X721Y1447D01*
X721Y1423D01*
X723Y1423D01*
X723Y1424D01*
X724Y1424D01*
X724Y1427D01*
X726Y1427D01*
X726Y1429D01*
X729Y1429D01*
X729Y1430D01*
X735Y1430D01*
X735Y1432D01*
X760Y1432D01*
X760Y1430D01*
X777Y1430D01*
X777Y1429D01*
X790Y1429D01*
X790Y1427D01*
X801Y1427D01*
X801Y1399D01*
X818Y1399D01*
X818Y1477D01*
G37*
D02*
G36*
X803Y1510D02*
X798Y1510D01*
X798Y1512D01*
X793Y1512D01*
X793Y1513D01*
X790Y1513D01*
X790Y1515D01*
X787Y1515D01*
X787Y1516D01*
X784Y1516D01*
X784Y1515D01*
X786Y1515D01*
X786Y1513D01*
X787Y1513D01*
X787Y1512D01*
X792Y1512D01*
X792Y1510D01*
X793Y1510D01*
X793Y1509D01*
X795Y1509D01*
X795Y1507D01*
X797Y1507D01*
X797Y1506D01*
X798Y1506D01*
X798Y1504D01*
X800Y1504D01*
X800Y1501D01*
X801Y1501D01*
X801Y1491D01*
X803Y1491D01*
X803Y1510D01*
G37*
D02*
G36*
X801Y1480D02*
X784Y1480D01*
X784Y1482D01*
X772Y1482D01*
X772Y1483D01*
X766Y1483D01*
X766Y1485D01*
X757Y1485D01*
X757Y1486D01*
X753Y1486D01*
X753Y1488D01*
X750Y1488D01*
X750Y1489D01*
X747Y1489D01*
X747Y1491D01*
X744Y1491D01*
X744Y1492D01*
X741Y1492D01*
X741Y1494D01*
X738Y1494D01*
X738Y1495D01*
X736Y1495D01*
X736Y1497D01*
X735Y1497D01*
X735Y1498D01*
X730Y1498D01*
X730Y1500D01*
X729Y1500D01*
X729Y1501D01*
X727Y1501D01*
X727Y1503D01*
X724Y1503D01*
X724Y1506D01*
X721Y1506D01*
X721Y1507D01*
X718Y1507D01*
X718Y1509D01*
X715Y1509D01*
X715Y1507D01*
X712Y1507D01*
X712Y1506D01*
X709Y1506D01*
X709Y1504D01*
X707Y1504D01*
X707Y1503D01*
X706Y1503D01*
X706Y1500D01*
X704Y1500D01*
X704Y1489D01*
X706Y1489D01*
X706Y1488D01*
X707Y1488D01*
X707Y1486D01*
X709Y1486D01*
X709Y1485D01*
X712Y1485D01*
X712Y1483D01*
X713Y1483D01*
X713Y1482D01*
X717Y1482D01*
X717Y1480D01*
X723Y1480D01*
X723Y1479D01*
X727Y1479D01*
X727Y1477D01*
X738Y1477D01*
X738Y1476D01*
X750Y1476D01*
X750Y1474D01*
X778Y1474D01*
X778Y1472D01*
X797Y1472D01*
X797Y1471D01*
X801Y1471D01*
X801Y1480D01*
G37*
D02*
G36*
X736Y1402D02*
X730Y1402D01*
X730Y1403D01*
X727Y1403D01*
X727Y1405D01*
X726Y1405D01*
X726Y1406D01*
X724Y1406D01*
X724Y1409D01*
X723Y1409D01*
X723Y1411D01*
X721Y1411D01*
X721Y1403D01*
X723Y1403D01*
X723Y1402D01*
X727Y1402D01*
X727Y1400D01*
X732Y1400D01*
X732Y1399D01*
X736Y1399D01*
X736Y1402D01*
G37*
D02*
G36*
X721Y1447D02*
X720Y1447D01*
X720Y1403D01*
X721Y1403D01*
X721Y1447D01*
G37*
D02*
G36*
X721Y1447D02*
X720Y1447D01*
X720Y1403D01*
X721Y1403D01*
X721Y1447D01*
G37*
D02*
G36*
X720Y1447D02*
X718Y1447D01*
X718Y1445D01*
X715Y1445D01*
X715Y1444D01*
X712Y1444D01*
X712Y1441D01*
X710Y1441D01*
X710Y1439D01*
X709Y1439D01*
X709Y1438D01*
X707Y1438D01*
X707Y1436D01*
X706Y1436D01*
X706Y1433D01*
X704Y1433D01*
X704Y1418D01*
X706Y1418D01*
X706Y1415D01*
X707Y1415D01*
X707Y1412D01*
X709Y1412D01*
X709Y1411D01*
X710Y1411D01*
X710Y1409D01*
X712Y1409D01*
X712Y1408D01*
X715Y1408D01*
X715Y1406D01*
X717Y1406D01*
X717Y1405D01*
X720Y1405D01*
X720Y1447D01*
G37*
D02*
G54D16*
X0Y1776D02*
X1422Y1776D01*
X0Y1775D02*
X1422Y1775D01*
X0Y1774D02*
X1422Y1774D01*
X0Y1773D02*
X1422Y1773D01*
X0Y1772D02*
X1422Y1772D01*
X0Y1771D02*
X1422Y1771D01*
X0Y1770D02*
X1422Y1770D01*
X0Y1769D02*
X1422Y1769D01*
X0Y1768D02*
X7Y1768D01*
X1415Y1768D02*
X1422Y1768D01*
X0Y1767D02*
X7Y1767D01*
X1415Y1767D02*
X1422Y1767D01*
X0Y1766D02*
X7Y1766D01*
X1415Y1766D02*
X1422Y1766D01*
X0Y1765D02*
X7Y1765D01*
X1415Y1765D02*
X1422Y1765D01*
X0Y1764D02*
X7Y1764D01*
X1415Y1764D02*
X1422Y1764D01*
X0Y1763D02*
X7Y1763D01*
X1415Y1763D02*
X1422Y1763D01*
X0Y1762D02*
X7Y1762D01*
X1415Y1762D02*
X1422Y1762D01*
X0Y1761D02*
X7Y1761D01*
X1415Y1761D02*
X1422Y1761D01*
X0Y1760D02*
X7Y1760D01*
X1415Y1760D02*
X1422Y1760D01*
X0Y1759D02*
X7Y1759D01*
X1415Y1759D02*
X1422Y1759D01*
X0Y1758D02*
X7Y1758D01*
X1415Y1758D02*
X1422Y1758D01*
X0Y1757D02*
X7Y1757D01*
X1415Y1757D02*
X1422Y1757D01*
X0Y1756D02*
X7Y1756D01*
X1415Y1756D02*
X1422Y1756D01*
X0Y1755D02*
X7Y1755D01*
X990Y1755D02*
X1064Y1755D01*
X1415Y1755D02*
X1422Y1755D01*
X0Y1754D02*
X7Y1754D01*
X989Y1754D02*
X1064Y1754D01*
X1415Y1754D02*
X1422Y1754D01*
X0Y1753D02*
X7Y1753D01*
X988Y1753D02*
X1064Y1753D01*
X1415Y1753D02*
X1422Y1753D01*
X0Y1752D02*
X7Y1752D01*
X988Y1752D02*
X1064Y1752D01*
X1415Y1752D02*
X1422Y1752D01*
X0Y1751D02*
X7Y1751D01*
X90Y1751D02*
X111Y1751D01*
X987Y1751D02*
X1064Y1751D01*
X1415Y1751D02*
X1422Y1751D01*
X0Y1750D02*
X7Y1750D01*
X87Y1750D02*
X114Y1750D01*
X988Y1750D02*
X1064Y1750D01*
X1415Y1750D02*
X1422Y1750D01*
X0Y1749D02*
X7Y1749D01*
X86Y1749D02*
X115Y1749D01*
X988Y1749D02*
X1064Y1749D01*
X1415Y1749D02*
X1422Y1749D01*
X0Y1748D02*
X7Y1748D01*
X85Y1748D02*
X116Y1748D01*
X989Y1748D02*
X1064Y1748D01*
X1415Y1748D02*
X1422Y1748D01*
X0Y1747D02*
X7Y1747D01*
X83Y1747D02*
X118Y1747D01*
X989Y1747D02*
X1064Y1747D01*
X1415Y1747D02*
X1422Y1747D01*
X0Y1746D02*
X7Y1746D01*
X82Y1746D02*
X119Y1746D01*
X992Y1746D02*
X1064Y1746D01*
X1415Y1746D02*
X1422Y1746D01*
X0Y1745D02*
X7Y1745D01*
X81Y1745D02*
X120Y1745D01*
X1030Y1745D02*
X1039Y1745D01*
X1055Y1745D02*
X1064Y1745D01*
X1415Y1745D02*
X1422Y1745D01*
X0Y1744D02*
X7Y1744D01*
X79Y1744D02*
X90Y1744D01*
X111Y1744D02*
X122Y1744D01*
X1030Y1744D02*
X1039Y1744D01*
X1055Y1744D02*
X1064Y1744D01*
X1415Y1744D02*
X1422Y1744D01*
X0Y1743D02*
X7Y1743D01*
X78Y1743D02*
X89Y1743D01*
X112Y1743D02*
X123Y1743D01*
X1030Y1743D02*
X1039Y1743D01*
X1055Y1743D02*
X1064Y1743D01*
X1415Y1743D02*
X1422Y1743D01*
X0Y1742D02*
X7Y1742D01*
X77Y1742D02*
X87Y1742D01*
X114Y1742D02*
X124Y1742D01*
X1030Y1742D02*
X1039Y1742D01*
X1055Y1742D02*
X1064Y1742D01*
X1415Y1742D02*
X1422Y1742D01*
X0Y1741D02*
X7Y1741D01*
X76Y1741D02*
X86Y1741D01*
X115Y1741D02*
X125Y1741D01*
X1030Y1741D02*
X1039Y1741D01*
X1055Y1741D02*
X1064Y1741D01*
X1415Y1741D02*
X1422Y1741D01*
X0Y1740D02*
X7Y1740D01*
X75Y1740D02*
X85Y1740D01*
X116Y1740D02*
X126Y1740D01*
X1030Y1740D02*
X1039Y1740D01*
X1055Y1740D02*
X1064Y1740D01*
X1415Y1740D02*
X1422Y1740D01*
X0Y1739D02*
X7Y1739D01*
X74Y1739D02*
X83Y1739D01*
X118Y1739D02*
X127Y1739D01*
X1030Y1739D02*
X1039Y1739D01*
X1055Y1739D02*
X1064Y1739D01*
X1415Y1739D02*
X1422Y1739D01*
X0Y1738D02*
X7Y1738D01*
X74Y1738D02*
X82Y1738D01*
X119Y1738D02*
X127Y1738D01*
X1028Y1738D02*
X1039Y1738D01*
X1055Y1738D02*
X1064Y1738D01*
X1415Y1738D02*
X1422Y1738D01*
X0Y1737D02*
X7Y1737D01*
X74Y1737D02*
X81Y1737D01*
X120Y1737D02*
X127Y1737D01*
X1026Y1737D02*
X1039Y1737D01*
X1055Y1737D02*
X1064Y1737D01*
X1415Y1737D02*
X1422Y1737D01*
X0Y1736D02*
X7Y1736D01*
X75Y1736D02*
X80Y1736D01*
X121Y1736D02*
X126Y1736D01*
X1025Y1736D02*
X1039Y1736D01*
X1055Y1736D02*
X1064Y1736D01*
X1415Y1736D02*
X1422Y1736D01*
X0Y1735D02*
X7Y1735D01*
X76Y1735D02*
X78Y1735D01*
X123Y1735D02*
X125Y1735D01*
X1023Y1735D02*
X1039Y1735D01*
X1055Y1735D02*
X1064Y1735D01*
X1415Y1735D02*
X1422Y1735D01*
X0Y1734D02*
X7Y1734D01*
X1021Y1734D02*
X1039Y1734D01*
X1055Y1734D02*
X1064Y1734D01*
X1415Y1734D02*
X1422Y1734D01*
X0Y1733D02*
X7Y1733D01*
X1020Y1733D02*
X1039Y1733D01*
X1055Y1733D02*
X1064Y1733D01*
X1415Y1733D02*
X1422Y1733D01*
X0Y1732D02*
X7Y1732D01*
X1018Y1732D02*
X1039Y1732D01*
X1055Y1732D02*
X1064Y1732D01*
X1415Y1732D02*
X1422Y1732D01*
X0Y1731D02*
X7Y1731D01*
X1016Y1731D02*
X1039Y1731D01*
X1055Y1731D02*
X1064Y1731D01*
X1415Y1731D02*
X1422Y1731D01*
X0Y1730D02*
X7Y1730D01*
X1014Y1730D02*
X1039Y1730D01*
X1055Y1730D02*
X1064Y1730D01*
X1415Y1730D02*
X1422Y1730D01*
X0Y1729D02*
X7Y1729D01*
X1013Y1729D02*
X1039Y1729D01*
X1055Y1729D02*
X1064Y1729D01*
X1415Y1729D02*
X1422Y1729D01*
X0Y1728D02*
X7Y1728D01*
X1011Y1728D02*
X1039Y1728D01*
X1055Y1728D02*
X1064Y1728D01*
X1415Y1728D02*
X1422Y1728D01*
X0Y1727D02*
X7Y1727D01*
X1009Y1727D02*
X1039Y1727D01*
X1055Y1727D02*
X1064Y1727D01*
X1415Y1727D02*
X1422Y1727D01*
X0Y1726D02*
X7Y1726D01*
X1008Y1726D02*
X1027Y1726D01*
X1030Y1726D02*
X1039Y1726D01*
X1055Y1726D02*
X1064Y1726D01*
X1415Y1726D02*
X1422Y1726D01*
X0Y1725D02*
X7Y1725D01*
X1006Y1725D02*
X1025Y1725D01*
X1030Y1725D02*
X1039Y1725D01*
X1055Y1725D02*
X1064Y1725D01*
X1415Y1725D02*
X1422Y1725D01*
X0Y1724D02*
X7Y1724D01*
X1004Y1724D02*
X1023Y1724D01*
X1030Y1724D02*
X1039Y1724D01*
X1055Y1724D02*
X1064Y1724D01*
X1415Y1724D02*
X1422Y1724D01*
X0Y1723D02*
X7Y1723D01*
X1002Y1723D02*
X1022Y1723D01*
X1030Y1723D02*
X1039Y1723D01*
X1055Y1723D02*
X1064Y1723D01*
X1415Y1723D02*
X1422Y1723D01*
X0Y1722D02*
X7Y1722D01*
X1001Y1722D02*
X1020Y1722D01*
X1030Y1722D02*
X1039Y1722D01*
X1055Y1722D02*
X1064Y1722D01*
X1415Y1722D02*
X1422Y1722D01*
X0Y1721D02*
X7Y1721D01*
X999Y1721D02*
X1018Y1721D01*
X1030Y1721D02*
X1039Y1721D01*
X1055Y1721D02*
X1064Y1721D01*
X1415Y1721D02*
X1422Y1721D01*
X0Y1720D02*
X7Y1720D01*
X997Y1720D02*
X1017Y1720D01*
X1030Y1720D02*
X1039Y1720D01*
X1055Y1720D02*
X1064Y1720D01*
X1415Y1720D02*
X1422Y1720D01*
X0Y1719D02*
X7Y1719D01*
X996Y1719D02*
X1015Y1719D01*
X1030Y1719D02*
X1040Y1719D01*
X1055Y1719D02*
X1064Y1719D01*
X1415Y1719D02*
X1422Y1719D01*
X0Y1718D02*
X7Y1718D01*
X994Y1718D02*
X1013Y1718D01*
X1030Y1718D02*
X1040Y1718D01*
X1054Y1718D02*
X1064Y1718D01*
X1415Y1718D02*
X1422Y1718D01*
X0Y1717D02*
X7Y1717D01*
X992Y1717D02*
X1011Y1717D01*
X1031Y1717D02*
X1042Y1717D01*
X1053Y1717D02*
X1064Y1717D01*
X1415Y1717D02*
X1422Y1717D01*
X0Y1716D02*
X7Y1716D01*
X990Y1716D02*
X1010Y1716D01*
X1031Y1716D02*
X1063Y1716D01*
X1415Y1716D02*
X1422Y1716D01*
X0Y1715D02*
X7Y1715D01*
X989Y1715D02*
X1008Y1715D01*
X1031Y1715D02*
X1063Y1715D01*
X1415Y1715D02*
X1422Y1715D01*
X0Y1714D02*
X7Y1714D01*
X988Y1714D02*
X1006Y1714D01*
X1032Y1714D02*
X1062Y1714D01*
X1415Y1714D02*
X1422Y1714D01*
X0Y1713D02*
X7Y1713D01*
X988Y1713D02*
X1005Y1713D01*
X1032Y1713D02*
X1062Y1713D01*
X1415Y1713D02*
X1422Y1713D01*
X0Y1712D02*
X7Y1712D01*
X988Y1712D02*
X1003Y1712D01*
X1033Y1712D02*
X1061Y1712D01*
X1415Y1712D02*
X1422Y1712D01*
X0Y1711D02*
X7Y1711D01*
X85Y1711D02*
X101Y1711D01*
X987Y1711D02*
X1001Y1711D01*
X1034Y1711D02*
X1060Y1711D01*
X1415Y1711D02*
X1422Y1711D01*
X0Y1710D02*
X7Y1710D01*
X83Y1710D02*
X103Y1710D01*
X766Y1710D02*
X798Y1710D01*
X849Y1710D02*
X881Y1710D01*
X988Y1710D02*
X999Y1710D01*
X1035Y1710D02*
X1059Y1710D01*
X1191Y1710D02*
X1223Y1710D01*
X1274Y1710D02*
X1306Y1710D01*
X1415Y1710D02*
X1422Y1710D01*
X0Y1709D02*
X7Y1709D01*
X82Y1709D02*
X104Y1709D01*
X766Y1709D02*
X798Y1709D01*
X849Y1709D02*
X881Y1709D01*
X988Y1709D02*
X998Y1709D01*
X1036Y1709D02*
X1058Y1709D01*
X1191Y1709D02*
X1223Y1709D01*
X1274Y1709D02*
X1306Y1709D01*
X1415Y1709D02*
X1422Y1709D01*
X0Y1708D02*
X7Y1708D01*
X81Y1708D02*
X105Y1708D01*
X766Y1708D02*
X798Y1708D01*
X849Y1708D02*
X881Y1708D01*
X989Y1708D02*
X996Y1708D01*
X1038Y1708D02*
X1056Y1708D01*
X1191Y1708D02*
X1223Y1708D01*
X1274Y1708D02*
X1306Y1708D01*
X1415Y1708D02*
X1422Y1708D01*
X0Y1707D02*
X7Y1707D01*
X80Y1707D02*
X106Y1707D01*
X766Y1707D02*
X798Y1707D01*
X849Y1707D02*
X880Y1707D01*
X990Y1707D02*
X994Y1707D01*
X1040Y1707D02*
X1054Y1707D01*
X1191Y1707D02*
X1223Y1707D01*
X1274Y1707D02*
X1305Y1707D01*
X1415Y1707D02*
X1422Y1707D01*
X0Y1706D02*
X7Y1706D01*
X80Y1706D02*
X107Y1706D01*
X766Y1706D02*
X798Y1706D01*
X849Y1706D02*
X880Y1706D01*
X1191Y1706D02*
X1223Y1706D01*
X1274Y1706D02*
X1305Y1706D01*
X1415Y1706D02*
X1422Y1706D01*
X0Y1705D02*
X7Y1705D01*
X79Y1705D02*
X108Y1705D01*
X766Y1705D02*
X798Y1705D01*
X849Y1705D02*
X880Y1705D01*
X1191Y1705D02*
X1223Y1705D01*
X1274Y1705D02*
X1305Y1705D01*
X1415Y1705D02*
X1422Y1705D01*
X0Y1704D02*
X7Y1704D01*
X78Y1704D02*
X86Y1704D01*
X100Y1704D02*
X109Y1704D01*
X766Y1704D02*
X798Y1704D01*
X849Y1704D02*
X880Y1704D01*
X1191Y1704D02*
X1223Y1704D01*
X1274Y1704D02*
X1305Y1704D01*
X1415Y1704D02*
X1422Y1704D01*
X0Y1703D02*
X7Y1703D01*
X77Y1703D02*
X85Y1703D01*
X101Y1703D02*
X110Y1703D01*
X766Y1703D02*
X798Y1703D01*
X849Y1703D02*
X880Y1703D01*
X1191Y1703D02*
X1223Y1703D01*
X1274Y1703D02*
X1305Y1703D01*
X1415Y1703D02*
X1422Y1703D01*
X0Y1702D02*
X7Y1702D01*
X76Y1702D02*
X84Y1702D01*
X102Y1702D02*
X110Y1702D01*
X766Y1702D02*
X798Y1702D01*
X849Y1702D02*
X881Y1702D01*
X1191Y1702D02*
X1223Y1702D01*
X1274Y1702D02*
X1306Y1702D01*
X1415Y1702D02*
X1422Y1702D01*
X0Y1701D02*
X7Y1701D01*
X75Y1701D02*
X83Y1701D01*
X103Y1701D02*
X111Y1701D01*
X766Y1701D02*
X798Y1701D01*
X849Y1701D02*
X881Y1701D01*
X1191Y1701D02*
X1223Y1701D01*
X1274Y1701D02*
X1306Y1701D01*
X1415Y1701D02*
X1422Y1701D01*
X0Y1700D02*
X7Y1700D01*
X75Y1700D02*
X83Y1700D01*
X104Y1700D02*
X111Y1700D01*
X1415Y1700D02*
X1422Y1700D01*
X0Y1699D02*
X7Y1699D01*
X74Y1699D02*
X82Y1699D01*
X104Y1699D02*
X112Y1699D01*
X1415Y1699D02*
X1422Y1699D01*
X0Y1698D02*
X7Y1698D01*
X74Y1698D02*
X81Y1698D01*
X105Y1698D02*
X112Y1698D01*
X1415Y1698D02*
X1422Y1698D01*
X0Y1697D02*
X7Y1697D01*
X74Y1697D02*
X80Y1697D01*
X106Y1697D02*
X112Y1697D01*
X1415Y1697D02*
X1422Y1697D01*
X0Y1696D02*
X7Y1696D01*
X74Y1696D02*
X80Y1696D01*
X106Y1696D02*
X112Y1696D01*
X1415Y1696D02*
X1422Y1696D01*
X0Y1695D02*
X7Y1695D01*
X74Y1695D02*
X80Y1695D01*
X106Y1695D02*
X112Y1695D01*
X1415Y1695D02*
X1422Y1695D01*
X0Y1694D02*
X7Y1694D01*
X74Y1694D02*
X80Y1694D01*
X106Y1694D02*
X112Y1694D01*
X1415Y1694D02*
X1422Y1694D01*
X0Y1693D02*
X7Y1693D01*
X74Y1693D02*
X80Y1693D01*
X106Y1693D02*
X112Y1693D01*
X1415Y1693D02*
X1422Y1693D01*
X0Y1692D02*
X7Y1692D01*
X74Y1692D02*
X80Y1692D01*
X106Y1692D02*
X112Y1692D01*
X1415Y1692D02*
X1422Y1692D01*
X0Y1691D02*
X7Y1691D01*
X74Y1691D02*
X80Y1691D01*
X106Y1691D02*
X112Y1691D01*
X1415Y1691D02*
X1422Y1691D01*
X0Y1690D02*
X7Y1690D01*
X74Y1690D02*
X80Y1690D01*
X106Y1690D02*
X112Y1690D01*
X1415Y1690D02*
X1422Y1690D01*
X0Y1689D02*
X7Y1689D01*
X74Y1689D02*
X80Y1689D01*
X106Y1689D02*
X112Y1689D01*
X1415Y1689D02*
X1422Y1689D01*
X0Y1688D02*
X7Y1688D01*
X74Y1688D02*
X80Y1688D01*
X106Y1688D02*
X112Y1688D01*
X1415Y1688D02*
X1422Y1688D01*
X0Y1687D02*
X7Y1687D01*
X74Y1687D02*
X80Y1687D01*
X106Y1687D02*
X112Y1687D01*
X1415Y1687D02*
X1422Y1687D01*
X0Y1686D02*
X7Y1686D01*
X74Y1686D02*
X80Y1686D01*
X106Y1686D02*
X112Y1686D01*
X1415Y1686D02*
X1422Y1686D01*
X0Y1685D02*
X7Y1685D01*
X74Y1685D02*
X80Y1685D01*
X106Y1685D02*
X112Y1685D01*
X1415Y1685D02*
X1422Y1685D01*
X0Y1684D02*
X7Y1684D01*
X74Y1684D02*
X80Y1684D01*
X106Y1684D02*
X112Y1684D01*
X1415Y1684D02*
X1422Y1684D01*
X0Y1683D02*
X7Y1683D01*
X74Y1683D02*
X80Y1683D01*
X106Y1683D02*
X112Y1683D01*
X990Y1683D02*
X1064Y1683D01*
X1415Y1683D02*
X1422Y1683D01*
X0Y1682D02*
X7Y1682D01*
X74Y1682D02*
X80Y1682D01*
X106Y1682D02*
X112Y1682D01*
X989Y1682D02*
X1064Y1682D01*
X1415Y1682D02*
X1422Y1682D01*
X0Y1681D02*
X7Y1681D01*
X74Y1681D02*
X80Y1681D01*
X106Y1681D02*
X112Y1681D01*
X988Y1681D02*
X1064Y1681D01*
X1415Y1681D02*
X1422Y1681D01*
X0Y1680D02*
X7Y1680D01*
X74Y1680D02*
X80Y1680D01*
X107Y1680D02*
X112Y1680D01*
X988Y1680D02*
X1064Y1680D01*
X1415Y1680D02*
X1422Y1680D01*
X0Y1679D02*
X7Y1679D01*
X75Y1679D02*
X79Y1679D01*
X107Y1679D02*
X112Y1679D01*
X987Y1679D02*
X1064Y1679D01*
X1415Y1679D02*
X1422Y1679D01*
X0Y1678D02*
X7Y1678D01*
X76Y1678D02*
X78Y1678D01*
X108Y1678D02*
X111Y1678D01*
X988Y1678D02*
X1064Y1678D01*
X1415Y1678D02*
X1422Y1678D01*
X0Y1677D02*
X7Y1677D01*
X988Y1677D02*
X1064Y1677D01*
X1415Y1677D02*
X1422Y1677D01*
X0Y1676D02*
X7Y1676D01*
X988Y1676D02*
X1064Y1676D01*
X1415Y1676D02*
X1422Y1676D01*
X0Y1675D02*
X7Y1675D01*
X989Y1675D02*
X1064Y1675D01*
X1415Y1675D02*
X1422Y1675D01*
X0Y1674D02*
X7Y1674D01*
X991Y1674D02*
X1064Y1674D01*
X1415Y1674D02*
X1422Y1674D01*
X0Y1673D02*
X7Y1673D01*
X1017Y1673D02*
X1026Y1673D01*
X1055Y1673D02*
X1064Y1673D01*
X1415Y1673D02*
X1422Y1673D01*
X0Y1672D02*
X7Y1672D01*
X1017Y1672D02*
X1026Y1672D01*
X1055Y1672D02*
X1064Y1672D01*
X1415Y1672D02*
X1422Y1672D01*
X0Y1671D02*
X7Y1671D01*
X1017Y1671D02*
X1026Y1671D01*
X1055Y1671D02*
X1064Y1671D01*
X1415Y1671D02*
X1422Y1671D01*
X0Y1670D02*
X7Y1670D01*
X1017Y1670D02*
X1026Y1670D01*
X1055Y1670D02*
X1064Y1670D01*
X1415Y1670D02*
X1422Y1670D01*
X0Y1669D02*
X7Y1669D01*
X1017Y1669D02*
X1026Y1669D01*
X1055Y1669D02*
X1064Y1669D01*
X1415Y1669D02*
X1422Y1669D01*
X0Y1668D02*
X7Y1668D01*
X1017Y1668D02*
X1026Y1668D01*
X1055Y1668D02*
X1064Y1668D01*
X1415Y1668D02*
X1422Y1668D01*
X0Y1667D02*
X7Y1667D01*
X1017Y1667D02*
X1026Y1667D01*
X1055Y1667D02*
X1064Y1667D01*
X1415Y1667D02*
X1422Y1667D01*
X0Y1666D02*
X7Y1666D01*
X1017Y1666D02*
X1026Y1666D01*
X1055Y1666D02*
X1064Y1666D01*
X1415Y1666D02*
X1422Y1666D01*
X0Y1665D02*
X7Y1665D01*
X1017Y1665D02*
X1026Y1665D01*
X1055Y1665D02*
X1064Y1665D01*
X1415Y1665D02*
X1422Y1665D01*
X0Y1664D02*
X7Y1664D01*
X1017Y1664D02*
X1026Y1664D01*
X1055Y1664D02*
X1064Y1664D01*
X1415Y1664D02*
X1422Y1664D01*
X0Y1663D02*
X7Y1663D01*
X1017Y1663D02*
X1026Y1663D01*
X1055Y1663D02*
X1064Y1663D01*
X1415Y1663D02*
X1422Y1663D01*
X0Y1662D02*
X7Y1662D01*
X1017Y1662D02*
X1026Y1662D01*
X1055Y1662D02*
X1064Y1662D01*
X1415Y1662D02*
X1422Y1662D01*
X0Y1661D02*
X7Y1661D01*
X1017Y1661D02*
X1026Y1661D01*
X1055Y1661D02*
X1064Y1661D01*
X1415Y1661D02*
X1422Y1661D01*
X0Y1660D02*
X7Y1660D01*
X1017Y1660D02*
X1026Y1660D01*
X1055Y1660D02*
X1064Y1660D01*
X1415Y1660D02*
X1422Y1660D01*
X0Y1659D02*
X7Y1659D01*
X1017Y1659D02*
X1026Y1659D01*
X1055Y1659D02*
X1064Y1659D01*
X1265Y1659D02*
X1273Y1659D01*
X1415Y1659D02*
X1422Y1659D01*
X0Y1658D02*
X7Y1658D01*
X1017Y1658D02*
X1026Y1658D01*
X1055Y1658D02*
X1064Y1658D01*
X1256Y1658D02*
X1282Y1658D01*
X1415Y1658D02*
X1422Y1658D01*
X0Y1657D02*
X7Y1657D01*
X1017Y1657D02*
X1026Y1657D01*
X1055Y1657D02*
X1064Y1657D01*
X1251Y1657D02*
X1287Y1657D01*
X1415Y1657D02*
X1422Y1657D01*
X0Y1656D02*
X7Y1656D01*
X1017Y1656D02*
X1026Y1656D01*
X1055Y1656D02*
X1064Y1656D01*
X1247Y1656D02*
X1290Y1656D01*
X1415Y1656D02*
X1422Y1656D01*
X0Y1655D02*
X7Y1655D01*
X1017Y1655D02*
X1026Y1655D01*
X1055Y1655D02*
X1064Y1655D01*
X1244Y1655D02*
X1294Y1655D01*
X1415Y1655D02*
X1422Y1655D01*
X0Y1654D02*
X7Y1654D01*
X75Y1654D02*
X79Y1654D01*
X122Y1654D02*
X126Y1654D01*
X1017Y1654D02*
X1026Y1654D01*
X1055Y1654D02*
X1064Y1654D01*
X1241Y1654D02*
X1262Y1654D01*
X1276Y1654D02*
X1296Y1654D01*
X1415Y1654D02*
X1422Y1654D01*
X0Y1653D02*
X7Y1653D01*
X74Y1653D02*
X80Y1653D01*
X121Y1653D02*
X127Y1653D01*
X1017Y1653D02*
X1026Y1653D01*
X1055Y1653D02*
X1064Y1653D01*
X1239Y1653D02*
X1254Y1653D01*
X1283Y1653D02*
X1299Y1653D01*
X1415Y1653D02*
X1422Y1653D01*
X0Y1652D02*
X7Y1652D01*
X74Y1652D02*
X81Y1652D01*
X120Y1652D02*
X127Y1652D01*
X1017Y1652D02*
X1026Y1652D01*
X1055Y1652D02*
X1064Y1652D01*
X1236Y1652D02*
X1250Y1652D01*
X1288Y1652D02*
X1301Y1652D01*
X1415Y1652D02*
X1422Y1652D01*
X0Y1651D02*
X7Y1651D01*
X74Y1651D02*
X83Y1651D01*
X118Y1651D02*
X127Y1651D01*
X1017Y1651D02*
X1026Y1651D01*
X1055Y1651D02*
X1064Y1651D01*
X1234Y1651D02*
X1246Y1651D01*
X1291Y1651D02*
X1303Y1651D01*
X1415Y1651D02*
X1422Y1651D01*
X0Y1650D02*
X7Y1650D01*
X74Y1650D02*
X84Y1650D01*
X117Y1650D02*
X127Y1650D01*
X1017Y1650D02*
X1026Y1650D01*
X1055Y1650D02*
X1064Y1650D01*
X1232Y1650D02*
X1243Y1650D01*
X1294Y1650D02*
X1305Y1650D01*
X1415Y1650D02*
X1422Y1650D01*
X0Y1649D02*
X7Y1649D01*
X75Y1649D02*
X85Y1649D01*
X116Y1649D02*
X126Y1649D01*
X1017Y1649D02*
X1026Y1649D01*
X1055Y1649D02*
X1064Y1649D01*
X1230Y1649D02*
X1241Y1649D01*
X1296Y1649D02*
X1307Y1649D01*
X1415Y1649D02*
X1422Y1649D01*
X0Y1648D02*
X7Y1648D01*
X76Y1648D02*
X86Y1648D01*
X115Y1648D02*
X125Y1648D01*
X1017Y1648D02*
X1026Y1648D01*
X1055Y1648D02*
X1064Y1648D01*
X1229Y1648D02*
X1238Y1648D01*
X1299Y1648D02*
X1309Y1648D01*
X1415Y1648D02*
X1422Y1648D01*
X0Y1647D02*
X7Y1647D01*
X77Y1647D02*
X88Y1647D01*
X113Y1647D02*
X124Y1647D01*
X1017Y1647D02*
X1027Y1647D01*
X1055Y1647D02*
X1064Y1647D01*
X1227Y1647D02*
X1236Y1647D01*
X1301Y1647D02*
X1311Y1647D01*
X1415Y1647D02*
X1422Y1647D01*
X0Y1646D02*
X7Y1646D01*
X79Y1646D02*
X89Y1646D01*
X112Y1646D02*
X122Y1646D01*
X1017Y1646D02*
X1027Y1646D01*
X1054Y1646D02*
X1064Y1646D01*
X1225Y1646D02*
X1234Y1646D01*
X1303Y1646D02*
X1312Y1646D01*
X1415Y1646D02*
X1422Y1646D01*
X0Y1645D02*
X7Y1645D01*
X80Y1645D02*
X91Y1645D01*
X110Y1645D02*
X121Y1645D01*
X1018Y1645D02*
X1029Y1645D01*
X1053Y1645D02*
X1064Y1645D01*
X1224Y1645D02*
X1232Y1645D01*
X1305Y1645D02*
X1314Y1645D01*
X1415Y1645D02*
X1422Y1645D01*
X0Y1644D02*
X7Y1644D01*
X81Y1644D02*
X120Y1644D01*
X1018Y1644D02*
X1064Y1644D01*
X1222Y1644D02*
X1230Y1644D01*
X1307Y1644D02*
X1315Y1644D01*
X1415Y1644D02*
X1422Y1644D01*
X0Y1643D02*
X7Y1643D01*
X82Y1643D02*
X119Y1643D01*
X1018Y1643D02*
X1063Y1643D01*
X1221Y1643D02*
X1229Y1643D01*
X1308Y1643D02*
X1316Y1643D01*
X1415Y1643D02*
X1422Y1643D01*
X0Y1642D02*
X7Y1642D01*
X84Y1642D02*
X117Y1642D01*
X1019Y1642D02*
X1063Y1642D01*
X1220Y1642D02*
X1227Y1642D01*
X1310Y1642D02*
X1318Y1642D01*
X1415Y1642D02*
X1422Y1642D01*
X0Y1641D02*
X7Y1641D01*
X85Y1641D02*
X116Y1641D01*
X1020Y1641D02*
X1062Y1641D01*
X1219Y1641D02*
X1226Y1641D01*
X1311Y1641D02*
X1319Y1641D01*
X1415Y1641D02*
X1422Y1641D01*
X0Y1640D02*
X7Y1640D01*
X86Y1640D02*
X115Y1640D01*
X1020Y1640D02*
X1061Y1640D01*
X1217Y1640D02*
X1224Y1640D01*
X1313Y1640D02*
X1320Y1640D01*
X1415Y1640D02*
X1422Y1640D01*
X0Y1639D02*
X7Y1639D01*
X88Y1639D02*
X113Y1639D01*
X1021Y1639D02*
X1060Y1639D01*
X1216Y1639D02*
X1223Y1639D01*
X1314Y1639D02*
X1321Y1639D01*
X1415Y1639D02*
X1422Y1639D01*
X0Y1638D02*
X7Y1638D01*
X91Y1638D02*
X110Y1638D01*
X1022Y1638D02*
X1060Y1638D01*
X1215Y1638D02*
X1222Y1638D01*
X1315Y1638D02*
X1322Y1638D01*
X1415Y1638D02*
X1422Y1638D01*
X0Y1637D02*
X7Y1637D01*
X1023Y1637D02*
X1058Y1637D01*
X1214Y1637D02*
X1221Y1637D01*
X1317Y1637D02*
X1323Y1637D01*
X1415Y1637D02*
X1422Y1637D01*
X0Y1636D02*
X7Y1636D01*
X1025Y1636D02*
X1057Y1636D01*
X1213Y1636D02*
X1219Y1636D01*
X1318Y1636D02*
X1324Y1636D01*
X1415Y1636D02*
X1422Y1636D01*
X0Y1635D02*
X7Y1635D01*
X1027Y1635D02*
X1055Y1635D01*
X1212Y1635D02*
X1218Y1635D01*
X1319Y1635D02*
X1325Y1635D01*
X1415Y1635D02*
X1422Y1635D01*
X0Y1634D02*
X7Y1634D01*
X1032Y1634D02*
X1050Y1634D01*
X1211Y1634D02*
X1217Y1634D01*
X1320Y1634D02*
X1326Y1634D01*
X1415Y1634D02*
X1422Y1634D01*
X0Y1633D02*
X7Y1633D01*
X508Y1633D02*
X509Y1633D01*
X1210Y1633D02*
X1216Y1633D01*
X1321Y1633D02*
X1327Y1633D01*
X1415Y1633D02*
X1422Y1633D01*
X0Y1632D02*
X7Y1632D01*
X506Y1632D02*
X511Y1632D01*
X1209Y1632D02*
X1215Y1632D01*
X1322Y1632D02*
X1328Y1632D01*
X1415Y1632D02*
X1422Y1632D01*
X0Y1631D02*
X7Y1631D01*
X505Y1631D02*
X512Y1631D01*
X1209Y1631D02*
X1214Y1631D01*
X1323Y1631D02*
X1329Y1631D01*
X1415Y1631D02*
X1422Y1631D01*
X0Y1630D02*
X7Y1630D01*
X505Y1630D02*
X512Y1630D01*
X1208Y1630D02*
X1213Y1630D01*
X1324Y1630D02*
X1330Y1630D01*
X1415Y1630D02*
X1422Y1630D01*
X0Y1629D02*
X7Y1629D01*
X504Y1629D02*
X512Y1629D01*
X1207Y1629D02*
X1213Y1629D01*
X1325Y1629D02*
X1331Y1629D01*
X1415Y1629D02*
X1422Y1629D01*
X0Y1628D02*
X7Y1628D01*
X504Y1628D02*
X512Y1628D01*
X1206Y1628D02*
X1212Y1628D01*
X1326Y1628D02*
X1331Y1628D01*
X1415Y1628D02*
X1422Y1628D01*
X0Y1627D02*
X7Y1627D01*
X504Y1627D02*
X512Y1627D01*
X1205Y1627D02*
X1211Y1627D01*
X1327Y1627D02*
X1332Y1627D01*
X1415Y1627D02*
X1422Y1627D01*
X0Y1626D02*
X7Y1626D01*
X504Y1626D02*
X512Y1626D01*
X1205Y1626D02*
X1210Y1626D01*
X1327Y1626D02*
X1333Y1626D01*
X1415Y1626D02*
X1422Y1626D01*
X0Y1625D02*
X7Y1625D01*
X504Y1625D02*
X512Y1625D01*
X1205Y1625D02*
X1209Y1625D01*
X1328Y1625D02*
X1333Y1625D01*
X1415Y1625D02*
X1422Y1625D01*
X0Y1624D02*
X7Y1624D01*
X504Y1624D02*
X512Y1624D01*
X1205Y1624D02*
X1209Y1624D01*
X1329Y1624D02*
X1334Y1624D01*
X1415Y1624D02*
X1422Y1624D01*
X0Y1623D02*
X7Y1623D01*
X504Y1623D02*
X512Y1623D01*
X1205Y1623D02*
X1209Y1623D01*
X1330Y1623D02*
X1335Y1623D01*
X1415Y1623D02*
X1422Y1623D01*
X0Y1622D02*
X7Y1622D01*
X504Y1622D02*
X512Y1622D01*
X1205Y1622D02*
X1209Y1622D01*
X1330Y1622D02*
X1335Y1622D01*
X1415Y1622D02*
X1422Y1622D01*
X0Y1621D02*
X7Y1621D01*
X504Y1621D02*
X512Y1621D01*
X1205Y1621D02*
X1209Y1621D01*
X1331Y1621D02*
X1336Y1621D01*
X1415Y1621D02*
X1422Y1621D01*
X0Y1620D02*
X7Y1620D01*
X504Y1620D02*
X512Y1620D01*
X1205Y1620D02*
X1209Y1620D01*
X1332Y1620D02*
X1337Y1620D01*
X1415Y1620D02*
X1422Y1620D01*
X0Y1619D02*
X7Y1619D01*
X504Y1619D02*
X512Y1619D01*
X1205Y1619D02*
X1209Y1619D01*
X1332Y1619D02*
X1337Y1619D01*
X1415Y1619D02*
X1422Y1619D01*
X0Y1618D02*
X7Y1618D01*
X504Y1618D02*
X512Y1618D01*
X1205Y1618D02*
X1209Y1618D01*
X1333Y1618D02*
X1336Y1618D01*
X1415Y1618D02*
X1422Y1618D01*
X0Y1617D02*
X7Y1617D01*
X504Y1617D02*
X512Y1617D01*
X1205Y1617D02*
X1209Y1617D01*
X1334Y1617D02*
X1335Y1617D01*
X1415Y1617D02*
X1422Y1617D01*
X0Y1616D02*
X7Y1616D01*
X504Y1616D02*
X512Y1616D01*
X1205Y1616D02*
X1209Y1616D01*
X1415Y1616D02*
X1422Y1616D01*
X0Y1615D02*
X7Y1615D01*
X490Y1615D02*
X527Y1615D01*
X1205Y1615D02*
X1209Y1615D01*
X1415Y1615D02*
X1422Y1615D01*
X0Y1614D02*
X7Y1614D01*
X488Y1614D02*
X529Y1614D01*
X1205Y1614D02*
X1209Y1614D01*
X1415Y1614D02*
X1422Y1614D01*
X0Y1613D02*
X7Y1613D01*
X487Y1613D02*
X530Y1613D01*
X1205Y1613D02*
X1209Y1613D01*
X1415Y1613D02*
X1422Y1613D01*
X0Y1612D02*
X7Y1612D01*
X487Y1612D02*
X530Y1612D01*
X1206Y1612D02*
X1207Y1612D01*
X1415Y1612D02*
X1422Y1612D01*
X0Y1611D02*
X7Y1611D01*
X74Y1611D02*
X78Y1611D01*
X123Y1611D02*
X125Y1611D01*
X487Y1611D02*
X530Y1611D01*
X1415Y1611D02*
X1422Y1611D01*
X0Y1610D02*
X7Y1610D01*
X74Y1610D02*
X80Y1610D01*
X122Y1610D02*
X126Y1610D01*
X487Y1610D02*
X530Y1610D01*
X1415Y1610D02*
X1422Y1610D01*
X0Y1609D02*
X7Y1609D01*
X74Y1609D02*
X82Y1609D01*
X121Y1609D02*
X127Y1609D01*
X487Y1609D02*
X530Y1609D01*
X1415Y1609D02*
X1422Y1609D01*
X0Y1608D02*
X7Y1608D01*
X74Y1608D02*
X84Y1608D01*
X121Y1608D02*
X127Y1608D01*
X487Y1608D02*
X530Y1608D01*
X1415Y1608D02*
X1422Y1608D01*
X0Y1607D02*
X7Y1607D01*
X74Y1607D02*
X85Y1607D01*
X121Y1607D02*
X127Y1607D01*
X488Y1607D02*
X529Y1607D01*
X1415Y1607D02*
X1422Y1607D01*
X0Y1606D02*
X7Y1606D01*
X74Y1606D02*
X87Y1606D01*
X121Y1606D02*
X127Y1606D01*
X490Y1606D02*
X526Y1606D01*
X990Y1606D02*
X994Y1606D01*
X1037Y1606D02*
X1040Y1606D01*
X1415Y1606D02*
X1422Y1606D01*
X0Y1605D02*
X7Y1605D01*
X74Y1605D02*
X89Y1605D01*
X121Y1605D02*
X127Y1605D01*
X504Y1605D02*
X512Y1605D01*
X989Y1605D02*
X995Y1605D01*
X1036Y1605D02*
X1042Y1605D01*
X1415Y1605D02*
X1422Y1605D01*
X0Y1604D02*
X7Y1604D01*
X74Y1604D02*
X90Y1604D01*
X121Y1604D02*
X127Y1604D01*
X504Y1604D02*
X512Y1604D01*
X988Y1604D02*
X996Y1604D01*
X1035Y1604D02*
X1042Y1604D01*
X1415Y1604D02*
X1422Y1604D01*
X0Y1603D02*
X7Y1603D01*
X74Y1603D02*
X92Y1603D01*
X121Y1603D02*
X127Y1603D01*
X504Y1603D02*
X512Y1603D01*
X988Y1603D02*
X996Y1603D01*
X1034Y1603D02*
X1043Y1603D01*
X1415Y1603D02*
X1422Y1603D01*
X0Y1602D02*
X7Y1602D01*
X74Y1602D02*
X94Y1602D01*
X121Y1602D02*
X127Y1602D01*
X504Y1602D02*
X512Y1602D01*
X988Y1602D02*
X996Y1602D01*
X1034Y1602D02*
X1043Y1602D01*
X1415Y1602D02*
X1422Y1602D01*
X0Y1601D02*
X7Y1601D01*
X74Y1601D02*
X80Y1601D01*
X83Y1601D02*
X96Y1601D01*
X121Y1601D02*
X127Y1601D01*
X504Y1601D02*
X512Y1601D01*
X987Y1601D02*
X997Y1601D01*
X1034Y1601D02*
X1043Y1601D01*
X1415Y1601D02*
X1422Y1601D01*
X0Y1600D02*
X7Y1600D01*
X74Y1600D02*
X80Y1600D01*
X84Y1600D02*
X97Y1600D01*
X121Y1600D02*
X127Y1600D01*
X504Y1600D02*
X512Y1600D01*
X987Y1600D02*
X997Y1600D01*
X1034Y1600D02*
X1043Y1600D01*
X1415Y1600D02*
X1422Y1600D01*
X0Y1599D02*
X7Y1599D01*
X74Y1599D02*
X80Y1599D01*
X86Y1599D02*
X99Y1599D01*
X121Y1599D02*
X127Y1599D01*
X504Y1599D02*
X512Y1599D01*
X987Y1599D02*
X997Y1599D01*
X1034Y1599D02*
X1043Y1599D01*
X1415Y1599D02*
X1422Y1599D01*
X0Y1598D02*
X7Y1598D01*
X24Y1598D02*
X36Y1598D01*
X74Y1598D02*
X80Y1598D01*
X88Y1598D02*
X101Y1598D01*
X121Y1598D02*
X127Y1598D01*
X504Y1598D02*
X512Y1598D01*
X987Y1598D02*
X997Y1598D01*
X1034Y1598D02*
X1043Y1598D01*
X1415Y1598D02*
X1422Y1598D01*
X0Y1597D02*
X7Y1597D01*
X21Y1597D02*
X38Y1597D01*
X74Y1597D02*
X80Y1597D01*
X89Y1597D02*
X102Y1597D01*
X121Y1597D02*
X127Y1597D01*
X504Y1597D02*
X512Y1597D01*
X987Y1597D02*
X997Y1597D01*
X1034Y1597D02*
X1043Y1597D01*
X1415Y1597D02*
X1422Y1597D01*
X0Y1596D02*
X7Y1596D01*
X19Y1596D02*
X39Y1596D01*
X74Y1596D02*
X80Y1596D01*
X91Y1596D02*
X104Y1596D01*
X121Y1596D02*
X127Y1596D01*
X504Y1596D02*
X512Y1596D01*
X987Y1596D02*
X997Y1596D01*
X1034Y1596D02*
X1043Y1596D01*
X1058Y1596D02*
X1066Y1596D01*
X1415Y1596D02*
X1422Y1596D01*
X0Y1595D02*
X7Y1595D01*
X18Y1595D02*
X39Y1595D01*
X74Y1595D02*
X80Y1595D01*
X93Y1595D02*
X106Y1595D01*
X121Y1595D02*
X127Y1595D01*
X504Y1595D02*
X512Y1595D01*
X987Y1595D02*
X997Y1595D01*
X1034Y1595D02*
X1043Y1595D01*
X1057Y1595D02*
X1067Y1595D01*
X1415Y1595D02*
X1422Y1595D01*
X0Y1594D02*
X7Y1594D01*
X17Y1594D02*
X39Y1594D01*
X74Y1594D02*
X80Y1594D01*
X95Y1594D02*
X108Y1594D01*
X121Y1594D02*
X127Y1594D01*
X504Y1594D02*
X512Y1594D01*
X987Y1594D02*
X997Y1594D01*
X1034Y1594D02*
X1043Y1594D01*
X1056Y1594D02*
X1068Y1594D01*
X1415Y1594D02*
X1422Y1594D01*
X0Y1593D02*
X7Y1593D01*
X17Y1593D02*
X38Y1593D01*
X74Y1593D02*
X80Y1593D01*
X96Y1593D02*
X109Y1593D01*
X121Y1593D02*
X127Y1593D01*
X504Y1593D02*
X512Y1593D01*
X987Y1593D02*
X997Y1593D01*
X1034Y1593D02*
X1043Y1593D01*
X1056Y1593D02*
X1068Y1593D01*
X1415Y1593D02*
X1422Y1593D01*
X0Y1592D02*
X7Y1592D01*
X16Y1592D02*
X38Y1592D01*
X74Y1592D02*
X80Y1592D01*
X98Y1592D02*
X111Y1592D01*
X121Y1592D02*
X127Y1592D01*
X504Y1592D02*
X512Y1592D01*
X987Y1592D02*
X997Y1592D01*
X1034Y1592D02*
X1043Y1592D01*
X1055Y1592D02*
X1069Y1592D01*
X1415Y1592D02*
X1422Y1592D01*
X0Y1591D02*
X7Y1591D01*
X16Y1591D02*
X24Y1591D01*
X74Y1591D02*
X80Y1591D01*
X100Y1591D02*
X113Y1591D01*
X121Y1591D02*
X127Y1591D01*
X505Y1591D02*
X512Y1591D01*
X987Y1591D02*
X1043Y1591D01*
X1055Y1591D02*
X1069Y1591D01*
X1415Y1591D02*
X1422Y1591D01*
X0Y1590D02*
X7Y1590D01*
X15Y1590D02*
X22Y1590D01*
X74Y1590D02*
X80Y1590D01*
X101Y1590D02*
X114Y1590D01*
X121Y1590D02*
X127Y1590D01*
X505Y1590D02*
X512Y1590D01*
X987Y1590D02*
X1043Y1590D01*
X1055Y1590D02*
X1069Y1590D01*
X1415Y1590D02*
X1422Y1590D01*
X0Y1589D02*
X7Y1589D01*
X15Y1589D02*
X21Y1589D01*
X74Y1589D02*
X80Y1589D01*
X103Y1589D02*
X116Y1589D01*
X121Y1589D02*
X127Y1589D01*
X506Y1589D02*
X511Y1589D01*
X987Y1589D02*
X1043Y1589D01*
X1055Y1589D02*
X1069Y1589D01*
X1415Y1589D02*
X1422Y1589D01*
X0Y1588D02*
X7Y1588D01*
X15Y1588D02*
X21Y1588D01*
X74Y1588D02*
X80Y1588D01*
X105Y1588D02*
X118Y1588D01*
X121Y1588D02*
X127Y1588D01*
X508Y1588D02*
X509Y1588D01*
X987Y1588D02*
X1043Y1588D01*
X1055Y1588D02*
X1069Y1588D01*
X1415Y1588D02*
X1422Y1588D01*
X0Y1587D02*
X7Y1587D01*
X15Y1587D02*
X21Y1587D01*
X74Y1587D02*
X80Y1587D01*
X107Y1587D02*
X119Y1587D01*
X121Y1587D02*
X127Y1587D01*
X987Y1587D02*
X1043Y1587D01*
X1055Y1587D02*
X1069Y1587D01*
X1415Y1587D02*
X1422Y1587D01*
X0Y1586D02*
X7Y1586D01*
X15Y1586D02*
X21Y1586D01*
X74Y1586D02*
X80Y1586D01*
X108Y1586D02*
X127Y1586D01*
X987Y1586D02*
X1043Y1586D01*
X1055Y1586D02*
X1069Y1586D01*
X1415Y1586D02*
X1422Y1586D01*
X0Y1585D02*
X7Y1585D01*
X15Y1585D02*
X21Y1585D01*
X74Y1585D02*
X80Y1585D01*
X110Y1585D02*
X127Y1585D01*
X987Y1585D02*
X1043Y1585D01*
X1056Y1585D02*
X1068Y1585D01*
X1415Y1585D02*
X1422Y1585D01*
X0Y1584D02*
X7Y1584D01*
X15Y1584D02*
X21Y1584D01*
X74Y1584D02*
X80Y1584D01*
X112Y1584D02*
X127Y1584D01*
X987Y1584D02*
X1042Y1584D01*
X1056Y1584D02*
X1068Y1584D01*
X1415Y1584D02*
X1422Y1584D01*
X0Y1583D02*
X7Y1583D01*
X15Y1583D02*
X21Y1583D01*
X74Y1583D02*
X80Y1583D01*
X113Y1583D02*
X127Y1583D01*
X987Y1583D02*
X1042Y1583D01*
X1057Y1583D02*
X1067Y1583D01*
X1415Y1583D02*
X1422Y1583D01*
X0Y1582D02*
X7Y1582D01*
X15Y1582D02*
X21Y1582D01*
X74Y1582D02*
X80Y1582D01*
X115Y1582D02*
X127Y1582D01*
X987Y1582D02*
X1040Y1582D01*
X1058Y1582D02*
X1066Y1582D01*
X1415Y1582D02*
X1422Y1582D01*
X0Y1581D02*
X7Y1581D01*
X15Y1581D02*
X21Y1581D01*
X74Y1581D02*
X80Y1581D01*
X117Y1581D02*
X127Y1581D01*
X987Y1581D02*
X997Y1581D01*
X1415Y1581D02*
X1422Y1581D01*
X0Y1580D02*
X7Y1580D01*
X15Y1580D02*
X21Y1580D01*
X74Y1580D02*
X80Y1580D01*
X119Y1580D02*
X127Y1580D01*
X987Y1580D02*
X997Y1580D01*
X1415Y1580D02*
X1422Y1580D01*
X0Y1579D02*
X7Y1579D01*
X15Y1579D02*
X22Y1579D01*
X74Y1579D02*
X80Y1579D01*
X120Y1579D02*
X127Y1579D01*
X987Y1579D02*
X997Y1579D01*
X1415Y1579D02*
X1422Y1579D01*
X0Y1578D02*
X7Y1578D01*
X16Y1578D02*
X23Y1578D01*
X75Y1578D02*
X79Y1578D01*
X122Y1578D02*
X127Y1578D01*
X987Y1578D02*
X997Y1578D01*
X1415Y1578D02*
X1422Y1578D01*
X0Y1577D02*
X7Y1577D01*
X16Y1577D02*
X67Y1577D01*
X124Y1577D02*
X127Y1577D01*
X987Y1577D02*
X997Y1577D01*
X1415Y1577D02*
X1422Y1577D01*
X0Y1576D02*
X7Y1576D01*
X16Y1576D02*
X68Y1576D01*
X987Y1576D02*
X997Y1576D01*
X1415Y1576D02*
X1422Y1576D01*
X0Y1575D02*
X7Y1575D01*
X17Y1575D02*
X68Y1575D01*
X987Y1575D02*
X997Y1575D01*
X1415Y1575D02*
X1422Y1575D01*
X0Y1574D02*
X7Y1574D01*
X18Y1574D02*
X68Y1574D01*
X987Y1574D02*
X997Y1574D01*
X1415Y1574D02*
X1422Y1574D01*
X0Y1573D02*
X7Y1573D01*
X19Y1573D02*
X68Y1573D01*
X987Y1573D02*
X997Y1573D01*
X1415Y1573D02*
X1422Y1573D01*
X0Y1572D02*
X7Y1572D01*
X20Y1572D02*
X68Y1572D01*
X987Y1572D02*
X997Y1572D01*
X1415Y1572D02*
X1422Y1572D01*
X0Y1571D02*
X7Y1571D01*
X22Y1571D02*
X66Y1571D01*
X988Y1571D02*
X996Y1571D01*
X1415Y1571D02*
X1422Y1571D01*
X0Y1570D02*
X7Y1570D01*
X988Y1570D02*
X996Y1570D01*
X1415Y1570D02*
X1422Y1570D01*
X0Y1569D02*
X7Y1569D01*
X988Y1569D02*
X996Y1569D01*
X1415Y1569D02*
X1422Y1569D01*
X0Y1568D02*
X7Y1568D01*
X989Y1568D02*
X995Y1568D01*
X1415Y1568D02*
X1422Y1568D01*
X0Y1567D02*
X7Y1567D01*
X991Y1567D02*
X993Y1567D01*
X1415Y1567D02*
X1422Y1567D01*
X0Y1566D02*
X7Y1566D01*
X1415Y1566D02*
X1422Y1566D01*
X0Y1565D02*
X7Y1565D01*
X1415Y1565D02*
X1422Y1565D01*
X0Y1564D02*
X7Y1564D01*
X1415Y1564D02*
X1422Y1564D01*
X0Y1563D02*
X7Y1563D01*
X1415Y1563D02*
X1422Y1563D01*
X0Y1562D02*
X7Y1562D01*
X1415Y1562D02*
X1422Y1562D01*
X0Y1561D02*
X7Y1561D01*
X1415Y1561D02*
X1422Y1561D01*
X0Y1560D02*
X7Y1560D01*
X1415Y1560D02*
X1422Y1560D01*
X0Y1559D02*
X7Y1559D01*
X1415Y1559D02*
X1422Y1559D01*
X0Y1558D02*
X7Y1558D01*
X1415Y1558D02*
X1422Y1558D01*
X0Y1557D02*
X7Y1557D01*
X1415Y1557D02*
X1422Y1557D01*
X0Y1556D02*
X7Y1556D01*
X1415Y1556D02*
X1422Y1556D01*
X0Y1555D02*
X7Y1555D01*
X1415Y1555D02*
X1422Y1555D01*
X0Y1554D02*
X7Y1554D01*
X1415Y1554D02*
X1422Y1554D01*
X0Y1553D02*
X7Y1553D01*
X1415Y1553D02*
X1422Y1553D01*
X0Y1552D02*
X7Y1552D01*
X1415Y1552D02*
X1422Y1552D01*
X0Y1551D02*
X7Y1551D01*
X86Y1551D02*
X92Y1551D01*
X1415Y1551D02*
X1422Y1551D01*
X0Y1550D02*
X7Y1550D01*
X84Y1550D02*
X94Y1550D01*
X1415Y1550D02*
X1422Y1550D01*
X0Y1549D02*
X7Y1549D01*
X83Y1549D02*
X94Y1549D01*
X1415Y1549D02*
X1422Y1549D01*
X0Y1548D02*
X7Y1548D01*
X83Y1548D02*
X95Y1548D01*
X1206Y1548D02*
X1207Y1548D01*
X1415Y1548D02*
X1422Y1548D01*
X0Y1547D02*
X7Y1547D01*
X83Y1547D02*
X95Y1547D01*
X1205Y1547D02*
X1209Y1547D01*
X1415Y1547D02*
X1422Y1547D01*
X0Y1546D02*
X7Y1546D01*
X83Y1546D02*
X95Y1546D01*
X1205Y1546D02*
X1209Y1546D01*
X1415Y1546D02*
X1422Y1546D01*
X0Y1545D02*
X7Y1545D01*
X83Y1545D02*
X95Y1545D01*
X1205Y1545D02*
X1209Y1545D01*
X1415Y1545D02*
X1422Y1545D01*
X0Y1544D02*
X7Y1544D01*
X83Y1544D02*
X95Y1544D01*
X1205Y1544D02*
X1209Y1544D01*
X1415Y1544D02*
X1422Y1544D01*
X0Y1543D02*
X7Y1543D01*
X83Y1543D02*
X95Y1543D01*
X1205Y1543D02*
X1209Y1543D01*
X1334Y1543D02*
X1337Y1543D01*
X1415Y1543D02*
X1422Y1543D01*
X0Y1542D02*
X7Y1542D01*
X83Y1542D02*
X95Y1542D01*
X1205Y1542D02*
X1209Y1542D01*
X1333Y1542D02*
X1337Y1542D01*
X1415Y1542D02*
X1422Y1542D01*
X0Y1541D02*
X7Y1541D01*
X27Y1541D02*
X33Y1541D01*
X83Y1541D02*
X95Y1541D01*
X1205Y1541D02*
X1209Y1541D01*
X1332Y1541D02*
X1337Y1541D01*
X1415Y1541D02*
X1422Y1541D01*
X0Y1540D02*
X7Y1540D01*
X25Y1540D02*
X35Y1540D01*
X83Y1540D02*
X95Y1540D01*
X1205Y1540D02*
X1209Y1540D01*
X1332Y1540D02*
X1337Y1540D01*
X1415Y1540D02*
X1422Y1540D01*
X0Y1539D02*
X7Y1539D01*
X24Y1539D02*
X36Y1539D01*
X83Y1539D02*
X94Y1539D01*
X988Y1539D02*
X1060Y1539D01*
X1205Y1539D02*
X1209Y1539D01*
X1331Y1539D02*
X1336Y1539D01*
X1415Y1539D02*
X1422Y1539D01*
X0Y1538D02*
X7Y1538D01*
X24Y1538D02*
X36Y1538D01*
X84Y1538D02*
X93Y1538D01*
X987Y1538D02*
X1063Y1538D01*
X1205Y1538D02*
X1209Y1538D01*
X1330Y1538D02*
X1336Y1538D01*
X1415Y1538D02*
X1422Y1538D01*
X0Y1537D02*
X7Y1537D01*
X24Y1537D02*
X36Y1537D01*
X987Y1537D02*
X1063Y1537D01*
X1205Y1537D02*
X1209Y1537D01*
X1330Y1537D02*
X1335Y1537D01*
X1415Y1537D02*
X1422Y1537D01*
X0Y1536D02*
X7Y1536D01*
X24Y1536D02*
X36Y1536D01*
X987Y1536D02*
X1064Y1536D01*
X1205Y1536D02*
X1209Y1536D01*
X1329Y1536D02*
X1334Y1536D01*
X1415Y1536D02*
X1422Y1536D01*
X0Y1535D02*
X7Y1535D01*
X24Y1535D02*
X36Y1535D01*
X987Y1535D02*
X1064Y1535D01*
X1205Y1535D02*
X1209Y1535D01*
X1328Y1535D02*
X1334Y1535D01*
X1415Y1535D02*
X1422Y1535D01*
X0Y1534D02*
X7Y1534D01*
X24Y1534D02*
X36Y1534D01*
X987Y1534D02*
X1064Y1534D01*
X1205Y1534D02*
X1210Y1534D01*
X1327Y1534D02*
X1333Y1534D01*
X1415Y1534D02*
X1422Y1534D01*
X0Y1533D02*
X7Y1533D01*
X24Y1533D02*
X36Y1533D01*
X987Y1533D02*
X1064Y1533D01*
X1205Y1533D02*
X1211Y1533D01*
X1327Y1533D02*
X1332Y1533D01*
X1415Y1533D02*
X1422Y1533D01*
X0Y1532D02*
X7Y1532D01*
X24Y1532D02*
X36Y1532D01*
X987Y1532D02*
X1064Y1532D01*
X1206Y1532D02*
X1212Y1532D01*
X1326Y1532D02*
X1331Y1532D01*
X1415Y1532D02*
X1422Y1532D01*
X0Y1531D02*
X7Y1531D01*
X24Y1531D02*
X36Y1531D01*
X987Y1531D02*
X1063Y1531D01*
X1207Y1531D02*
X1212Y1531D01*
X1325Y1531D02*
X1331Y1531D01*
X1415Y1531D02*
X1422Y1531D01*
X0Y1530D02*
X7Y1530D01*
X24Y1530D02*
X36Y1530D01*
X987Y1530D02*
X1062Y1530D01*
X1208Y1530D02*
X1213Y1530D01*
X1324Y1530D02*
X1330Y1530D01*
X1415Y1530D02*
X1422Y1530D01*
X0Y1529D02*
X7Y1529D01*
X24Y1529D02*
X35Y1529D01*
X987Y1529D02*
X997Y1529D01*
X1208Y1529D02*
X1214Y1529D01*
X1323Y1529D02*
X1329Y1529D01*
X1415Y1529D02*
X1422Y1529D01*
X0Y1528D02*
X7Y1528D01*
X25Y1528D02*
X35Y1528D01*
X987Y1528D02*
X997Y1528D01*
X1209Y1528D02*
X1215Y1528D01*
X1322Y1528D02*
X1328Y1528D01*
X1415Y1528D02*
X1422Y1528D01*
X0Y1527D02*
X7Y1527D01*
X987Y1527D02*
X997Y1527D01*
X1210Y1527D02*
X1216Y1527D01*
X1321Y1527D02*
X1327Y1527D01*
X1415Y1527D02*
X1422Y1527D01*
X0Y1526D02*
X7Y1526D01*
X987Y1526D02*
X997Y1526D01*
X1211Y1526D02*
X1217Y1526D01*
X1320Y1526D02*
X1326Y1526D01*
X1415Y1526D02*
X1422Y1526D01*
X0Y1525D02*
X7Y1525D01*
X987Y1525D02*
X997Y1525D01*
X1212Y1525D02*
X1218Y1525D01*
X1319Y1525D02*
X1325Y1525D01*
X1415Y1525D02*
X1422Y1525D01*
X0Y1524D02*
X7Y1524D01*
X987Y1524D02*
X997Y1524D01*
X1213Y1524D02*
X1219Y1524D01*
X1318Y1524D02*
X1324Y1524D01*
X1415Y1524D02*
X1422Y1524D01*
X0Y1523D02*
X7Y1523D01*
X987Y1523D02*
X997Y1523D01*
X1214Y1523D02*
X1221Y1523D01*
X1317Y1523D02*
X1323Y1523D01*
X1415Y1523D02*
X1422Y1523D01*
X0Y1522D02*
X7Y1522D01*
X987Y1522D02*
X997Y1522D01*
X1215Y1522D02*
X1222Y1522D01*
X1316Y1522D02*
X1322Y1522D01*
X1415Y1522D02*
X1422Y1522D01*
X0Y1521D02*
X7Y1521D01*
X987Y1521D02*
X997Y1521D01*
X1216Y1521D02*
X1223Y1521D01*
X1314Y1521D02*
X1321Y1521D01*
X1415Y1521D02*
X1422Y1521D01*
X0Y1520D02*
X7Y1520D01*
X987Y1520D02*
X997Y1520D01*
X1217Y1520D02*
X1225Y1520D01*
X1313Y1520D02*
X1320Y1520D01*
X1415Y1520D02*
X1422Y1520D01*
X0Y1519D02*
X7Y1519D01*
X987Y1519D02*
X997Y1519D01*
X1218Y1519D02*
X1226Y1519D01*
X1312Y1519D02*
X1319Y1519D01*
X1415Y1519D02*
X1422Y1519D01*
X0Y1518D02*
X7Y1518D01*
X987Y1518D02*
X997Y1518D01*
X1220Y1518D02*
X1228Y1518D01*
X1310Y1518D02*
X1318Y1518D01*
X1415Y1518D02*
X1422Y1518D01*
X0Y1517D02*
X7Y1517D01*
X987Y1517D02*
X997Y1517D01*
X1221Y1517D02*
X1229Y1517D01*
X1309Y1517D02*
X1316Y1517D01*
X1415Y1517D02*
X1422Y1517D01*
X0Y1516D02*
X7Y1516D01*
X987Y1516D02*
X997Y1516D01*
X1222Y1516D02*
X1231Y1516D01*
X1307Y1516D02*
X1315Y1516D01*
X1415Y1516D02*
X1422Y1516D01*
X0Y1515D02*
X7Y1515D01*
X987Y1515D02*
X997Y1515D01*
X1224Y1515D02*
X1232Y1515D01*
X1305Y1515D02*
X1314Y1515D01*
X1415Y1515D02*
X1422Y1515D01*
X0Y1514D02*
X7Y1514D01*
X987Y1514D02*
X997Y1514D01*
X1225Y1514D02*
X1234Y1514D01*
X1303Y1514D02*
X1312Y1514D01*
X1415Y1514D02*
X1422Y1514D01*
X0Y1513D02*
X7Y1513D01*
X987Y1513D02*
X997Y1513D01*
X1227Y1513D02*
X1236Y1513D01*
X1301Y1513D02*
X1310Y1513D01*
X1415Y1513D02*
X1422Y1513D01*
X0Y1512D02*
X7Y1512D01*
X987Y1512D02*
X997Y1512D01*
X1228Y1512D02*
X1238Y1512D01*
X1299Y1512D02*
X1309Y1512D01*
X1415Y1512D02*
X1422Y1512D01*
X0Y1511D02*
X7Y1511D01*
X987Y1511D02*
X997Y1511D01*
X1230Y1511D02*
X1241Y1511D01*
X1297Y1511D02*
X1307Y1511D01*
X1415Y1511D02*
X1422Y1511D01*
X0Y1510D02*
X7Y1510D01*
X987Y1510D02*
X997Y1510D01*
X1232Y1510D02*
X1243Y1510D01*
X1294Y1510D02*
X1305Y1510D01*
X1415Y1510D02*
X1422Y1510D01*
X0Y1509D02*
X7Y1509D01*
X987Y1509D02*
X997Y1509D01*
X1234Y1509D02*
X1246Y1509D01*
X1291Y1509D02*
X1303Y1509D01*
X1415Y1509D02*
X1422Y1509D01*
X0Y1508D02*
X7Y1508D01*
X987Y1508D02*
X997Y1508D01*
X1236Y1508D02*
X1250Y1508D01*
X1288Y1508D02*
X1301Y1508D01*
X1415Y1508D02*
X1422Y1508D01*
X0Y1507D02*
X7Y1507D01*
X987Y1507D02*
X997Y1507D01*
X1238Y1507D02*
X1254Y1507D01*
X1283Y1507D02*
X1299Y1507D01*
X1415Y1507D02*
X1422Y1507D01*
X0Y1506D02*
X7Y1506D01*
X987Y1506D02*
X997Y1506D01*
X1241Y1506D02*
X1261Y1506D01*
X1276Y1506D02*
X1296Y1506D01*
X1415Y1506D02*
X1422Y1506D01*
X0Y1505D02*
X7Y1505D01*
X987Y1505D02*
X997Y1505D01*
X1244Y1505D02*
X1294Y1505D01*
X1415Y1505D02*
X1422Y1505D01*
X0Y1504D02*
X7Y1504D01*
X987Y1504D02*
X997Y1504D01*
X1247Y1504D02*
X1290Y1504D01*
X1415Y1504D02*
X1422Y1504D01*
X0Y1503D02*
X7Y1503D01*
X987Y1503D02*
X997Y1503D01*
X1251Y1503D02*
X1287Y1503D01*
X1415Y1503D02*
X1422Y1503D01*
X0Y1502D02*
X7Y1502D01*
X987Y1502D02*
X997Y1502D01*
X1256Y1502D02*
X1281Y1502D01*
X1415Y1502D02*
X1422Y1502D01*
X0Y1501D02*
X7Y1501D01*
X987Y1501D02*
X997Y1501D01*
X1264Y1501D02*
X1273Y1501D01*
X1415Y1501D02*
X1422Y1501D01*
X0Y1500D02*
X7Y1500D01*
X987Y1500D02*
X997Y1500D01*
X1415Y1500D02*
X1422Y1500D01*
X0Y1499D02*
X7Y1499D01*
X987Y1499D02*
X997Y1499D01*
X1415Y1499D02*
X1422Y1499D01*
X0Y1498D02*
X7Y1498D01*
X987Y1498D02*
X997Y1498D01*
X1415Y1498D02*
X1422Y1498D01*
X0Y1497D02*
X7Y1497D01*
X987Y1497D02*
X997Y1497D01*
X1415Y1497D02*
X1422Y1497D01*
X0Y1496D02*
X7Y1496D01*
X987Y1496D02*
X997Y1496D01*
X1415Y1496D02*
X1422Y1496D01*
X0Y1495D02*
X7Y1495D01*
X987Y1495D02*
X997Y1495D01*
X1415Y1495D02*
X1422Y1495D01*
X0Y1494D02*
X7Y1494D01*
X988Y1494D02*
X996Y1494D01*
X1415Y1494D02*
X1422Y1494D01*
X0Y1493D02*
X7Y1493D01*
X988Y1493D02*
X996Y1493D01*
X1415Y1493D02*
X1422Y1493D01*
X0Y1492D02*
X7Y1492D01*
X988Y1492D02*
X996Y1492D01*
X1415Y1492D02*
X1422Y1492D01*
X0Y1491D02*
X7Y1491D01*
X989Y1491D02*
X995Y1491D01*
X1415Y1491D02*
X1422Y1491D01*
X0Y1490D02*
X7Y1490D01*
X990Y1490D02*
X994Y1490D01*
X1415Y1490D02*
X1422Y1490D01*
X0Y1489D02*
X7Y1489D01*
X1415Y1489D02*
X1422Y1489D01*
X0Y1488D02*
X7Y1488D01*
X1415Y1488D02*
X1422Y1488D01*
X0Y1487D02*
X7Y1487D01*
X1415Y1487D02*
X1422Y1487D01*
X0Y1486D02*
X7Y1486D01*
X1415Y1486D02*
X1422Y1486D01*
X0Y1485D02*
X7Y1485D01*
X1415Y1485D02*
X1422Y1485D01*
X0Y1484D02*
X7Y1484D01*
X1415Y1484D02*
X1422Y1484D01*
X0Y1483D02*
X7Y1483D01*
X1415Y1483D02*
X1422Y1483D01*
X0Y1482D02*
X7Y1482D01*
X1415Y1482D02*
X1422Y1482D01*
X0Y1481D02*
X7Y1481D01*
X1415Y1481D02*
X1422Y1481D01*
X0Y1480D02*
X7Y1480D01*
X1415Y1480D02*
X1422Y1480D01*
X0Y1479D02*
X7Y1479D01*
X1415Y1479D02*
X1422Y1479D01*
X0Y1478D02*
X7Y1478D01*
X1415Y1478D02*
X1422Y1478D01*
X0Y1477D02*
X7Y1477D01*
X1415Y1477D02*
X1422Y1477D01*
X0Y1476D02*
X7Y1476D01*
X1415Y1476D02*
X1422Y1476D01*
X0Y1475D02*
X7Y1475D01*
X1415Y1475D02*
X1422Y1475D01*
X0Y1474D02*
X7Y1474D01*
X1415Y1474D02*
X1422Y1474D01*
X0Y1473D02*
X7Y1473D01*
X1415Y1473D02*
X1422Y1473D01*
X0Y1472D02*
X7Y1472D01*
X1415Y1472D02*
X1422Y1472D01*
X0Y1471D02*
X7Y1471D01*
X1415Y1471D02*
X1422Y1471D01*
X0Y1470D02*
X7Y1470D01*
X1415Y1470D02*
X1422Y1470D01*
X0Y1469D02*
X7Y1469D01*
X1415Y1469D02*
X1422Y1469D01*
X0Y1468D02*
X7Y1468D01*
X1415Y1468D02*
X1422Y1468D01*
X0Y1467D02*
X7Y1467D01*
X1415Y1467D02*
X1422Y1467D01*
X0Y1466D02*
X7Y1466D01*
X997Y1466D02*
X1012Y1466D01*
X1415Y1466D02*
X1422Y1466D01*
X0Y1465D02*
X7Y1465D01*
X995Y1465D02*
X1014Y1465D01*
X1415Y1465D02*
X1422Y1465D01*
X0Y1464D02*
X7Y1464D01*
X994Y1464D02*
X1016Y1464D01*
X1415Y1464D02*
X1422Y1464D01*
X0Y1463D02*
X7Y1463D01*
X992Y1463D02*
X1017Y1463D01*
X1415Y1463D02*
X1422Y1463D01*
X0Y1462D02*
X7Y1462D01*
X991Y1462D02*
X1018Y1462D01*
X1415Y1462D02*
X1422Y1462D01*
X0Y1461D02*
X7Y1461D01*
X991Y1461D02*
X1019Y1461D01*
X1415Y1461D02*
X1422Y1461D01*
X0Y1460D02*
X7Y1460D01*
X75Y1460D02*
X79Y1460D01*
X122Y1460D02*
X126Y1460D01*
X990Y1460D02*
X1020Y1460D01*
X1415Y1460D02*
X1422Y1460D01*
X0Y1459D02*
X7Y1459D01*
X74Y1459D02*
X80Y1459D01*
X121Y1459D02*
X127Y1459D01*
X989Y1459D02*
X1020Y1459D01*
X1415Y1459D02*
X1422Y1459D01*
X0Y1458D02*
X7Y1458D01*
X74Y1458D02*
X80Y1458D01*
X121Y1458D02*
X127Y1458D01*
X989Y1458D02*
X1021Y1458D01*
X1415Y1458D02*
X1422Y1458D01*
X0Y1457D02*
X7Y1457D01*
X74Y1457D02*
X80Y1457D01*
X121Y1457D02*
X127Y1457D01*
X988Y1457D02*
X1021Y1457D01*
X1415Y1457D02*
X1422Y1457D01*
X0Y1456D02*
X7Y1456D01*
X74Y1456D02*
X80Y1456D01*
X121Y1456D02*
X127Y1456D01*
X988Y1456D02*
X999Y1456D01*
X1011Y1456D02*
X1021Y1456D01*
X1036Y1456D02*
X1041Y1456D01*
X1415Y1456D02*
X1422Y1456D01*
X0Y1455D02*
X7Y1455D01*
X74Y1455D02*
X80Y1455D01*
X121Y1455D02*
X127Y1455D01*
X988Y1455D02*
X998Y1455D01*
X1012Y1455D02*
X1022Y1455D01*
X1035Y1455D02*
X1042Y1455D01*
X1415Y1455D02*
X1422Y1455D01*
X0Y1454D02*
X7Y1454D01*
X74Y1454D02*
X80Y1454D01*
X121Y1454D02*
X127Y1454D01*
X988Y1454D02*
X997Y1454D01*
X1012Y1454D02*
X1022Y1454D01*
X1035Y1454D02*
X1043Y1454D01*
X1415Y1454D02*
X1422Y1454D01*
X0Y1453D02*
X7Y1453D01*
X74Y1453D02*
X80Y1453D01*
X121Y1453D02*
X127Y1453D01*
X988Y1453D02*
X997Y1453D01*
X1013Y1453D02*
X1022Y1453D01*
X1034Y1453D02*
X1043Y1453D01*
X1415Y1453D02*
X1422Y1453D01*
X0Y1452D02*
X7Y1452D01*
X74Y1452D02*
X80Y1452D01*
X121Y1452D02*
X127Y1452D01*
X987Y1452D02*
X997Y1452D01*
X1013Y1452D02*
X1022Y1452D01*
X1034Y1452D02*
X1043Y1452D01*
X1415Y1452D02*
X1422Y1452D01*
X0Y1451D02*
X7Y1451D01*
X16Y1451D02*
X68Y1451D01*
X74Y1451D02*
X80Y1451D01*
X121Y1451D02*
X127Y1451D01*
X987Y1451D02*
X997Y1451D01*
X1013Y1451D02*
X1022Y1451D01*
X1034Y1451D02*
X1043Y1451D01*
X1415Y1451D02*
X1422Y1451D01*
X0Y1450D02*
X7Y1450D01*
X15Y1450D02*
X68Y1450D01*
X74Y1450D02*
X80Y1450D01*
X121Y1450D02*
X127Y1450D01*
X987Y1450D02*
X997Y1450D01*
X1013Y1450D02*
X1022Y1450D01*
X1034Y1450D02*
X1043Y1450D01*
X1415Y1450D02*
X1422Y1450D01*
X0Y1449D02*
X7Y1449D01*
X15Y1449D02*
X68Y1449D01*
X74Y1449D02*
X80Y1449D01*
X121Y1449D02*
X127Y1449D01*
X987Y1449D02*
X997Y1449D01*
X1013Y1449D02*
X1022Y1449D01*
X1034Y1449D02*
X1043Y1449D01*
X1415Y1449D02*
X1422Y1449D01*
X0Y1448D02*
X7Y1448D01*
X15Y1448D02*
X68Y1448D01*
X74Y1448D02*
X80Y1448D01*
X121Y1448D02*
X127Y1448D01*
X987Y1448D02*
X997Y1448D01*
X1013Y1448D02*
X1022Y1448D01*
X1034Y1448D02*
X1043Y1448D01*
X1415Y1448D02*
X1422Y1448D01*
X0Y1447D02*
X7Y1447D01*
X15Y1447D02*
X68Y1447D01*
X74Y1447D02*
X127Y1447D01*
X987Y1447D02*
X997Y1447D01*
X1013Y1447D02*
X1022Y1447D01*
X1034Y1447D02*
X1043Y1447D01*
X1415Y1447D02*
X1422Y1447D01*
X0Y1446D02*
X7Y1446D01*
X15Y1446D02*
X68Y1446D01*
X74Y1446D02*
X127Y1446D01*
X987Y1446D02*
X997Y1446D01*
X1013Y1446D02*
X1022Y1446D01*
X1034Y1446D02*
X1043Y1446D01*
X1415Y1446D02*
X1422Y1446D01*
X0Y1445D02*
X7Y1445D01*
X15Y1445D02*
X68Y1445D01*
X74Y1445D02*
X127Y1445D01*
X987Y1445D02*
X997Y1445D01*
X1013Y1445D02*
X1022Y1445D01*
X1034Y1445D02*
X1043Y1445D01*
X1415Y1445D02*
X1422Y1445D01*
X0Y1444D02*
X7Y1444D01*
X15Y1444D02*
X22Y1444D01*
X38Y1444D02*
X45Y1444D01*
X62Y1444D02*
X68Y1444D01*
X74Y1444D02*
X127Y1444D01*
X987Y1444D02*
X997Y1444D01*
X1013Y1444D02*
X1022Y1444D01*
X1034Y1444D02*
X1043Y1444D01*
X1415Y1444D02*
X1422Y1444D01*
X0Y1443D02*
X7Y1443D01*
X15Y1443D02*
X21Y1443D01*
X39Y1443D02*
X45Y1443D01*
X62Y1443D02*
X68Y1443D01*
X74Y1443D02*
X127Y1443D01*
X987Y1443D02*
X997Y1443D01*
X1013Y1443D02*
X1022Y1443D01*
X1034Y1443D02*
X1043Y1443D01*
X1415Y1443D02*
X1422Y1443D01*
X0Y1442D02*
X7Y1442D01*
X15Y1442D02*
X21Y1442D01*
X39Y1442D02*
X45Y1442D01*
X62Y1442D02*
X68Y1442D01*
X74Y1442D02*
X127Y1442D01*
X987Y1442D02*
X997Y1442D01*
X1013Y1442D02*
X1022Y1442D01*
X1034Y1442D02*
X1043Y1442D01*
X1415Y1442D02*
X1422Y1442D01*
X0Y1441D02*
X7Y1441D01*
X15Y1441D02*
X21Y1441D01*
X39Y1441D02*
X45Y1441D01*
X62Y1441D02*
X68Y1441D01*
X74Y1441D02*
X127Y1441D01*
X987Y1441D02*
X997Y1441D01*
X1013Y1441D02*
X1022Y1441D01*
X1034Y1441D02*
X1043Y1441D01*
X1415Y1441D02*
X1422Y1441D01*
X0Y1440D02*
X7Y1440D01*
X15Y1440D02*
X21Y1440D01*
X39Y1440D02*
X45Y1440D01*
X62Y1440D02*
X68Y1440D01*
X74Y1440D02*
X80Y1440D01*
X121Y1440D02*
X127Y1440D01*
X987Y1440D02*
X997Y1440D01*
X1013Y1440D02*
X1022Y1440D01*
X1034Y1440D02*
X1043Y1440D01*
X1415Y1440D02*
X1422Y1440D01*
X0Y1439D02*
X7Y1439D01*
X15Y1439D02*
X21Y1439D01*
X39Y1439D02*
X45Y1439D01*
X62Y1439D02*
X68Y1439D01*
X74Y1439D02*
X80Y1439D01*
X121Y1439D02*
X127Y1439D01*
X987Y1439D02*
X997Y1439D01*
X1013Y1439D02*
X1022Y1439D01*
X1034Y1439D02*
X1043Y1439D01*
X1415Y1439D02*
X1422Y1439D01*
X0Y1438D02*
X7Y1438D01*
X15Y1438D02*
X21Y1438D01*
X39Y1438D02*
X45Y1438D01*
X62Y1438D02*
X68Y1438D01*
X74Y1438D02*
X80Y1438D01*
X121Y1438D02*
X127Y1438D01*
X987Y1438D02*
X997Y1438D01*
X1013Y1438D02*
X1022Y1438D01*
X1034Y1438D02*
X1043Y1438D01*
X1415Y1438D02*
X1422Y1438D01*
X0Y1437D02*
X7Y1437D01*
X15Y1437D02*
X21Y1437D01*
X39Y1437D02*
X45Y1437D01*
X62Y1437D02*
X68Y1437D01*
X74Y1437D02*
X80Y1437D01*
X121Y1437D02*
X127Y1437D01*
X987Y1437D02*
X997Y1437D01*
X1013Y1437D02*
X1022Y1437D01*
X1034Y1437D02*
X1043Y1437D01*
X1415Y1437D02*
X1422Y1437D01*
X0Y1436D02*
X7Y1436D01*
X15Y1436D02*
X21Y1436D01*
X39Y1436D02*
X45Y1436D01*
X62Y1436D02*
X68Y1436D01*
X74Y1436D02*
X80Y1436D01*
X121Y1436D02*
X127Y1436D01*
X988Y1436D02*
X998Y1436D01*
X1013Y1436D02*
X1022Y1436D01*
X1034Y1436D02*
X1043Y1436D01*
X1415Y1436D02*
X1422Y1436D01*
X0Y1435D02*
X7Y1435D01*
X15Y1435D02*
X21Y1435D01*
X39Y1435D02*
X45Y1435D01*
X62Y1435D02*
X68Y1435D01*
X74Y1435D02*
X80Y1435D01*
X121Y1435D02*
X127Y1435D01*
X988Y1435D02*
X999Y1435D01*
X1013Y1435D02*
X1022Y1435D01*
X1034Y1435D02*
X1043Y1435D01*
X1415Y1435D02*
X1422Y1435D01*
X0Y1434D02*
X7Y1434D01*
X15Y1434D02*
X21Y1434D01*
X39Y1434D02*
X45Y1434D01*
X62Y1434D02*
X68Y1434D01*
X74Y1434D02*
X80Y1434D01*
X121Y1434D02*
X127Y1434D01*
X988Y1434D02*
X999Y1434D01*
X1013Y1434D02*
X1022Y1434D01*
X1034Y1434D02*
X1043Y1434D01*
X1415Y1434D02*
X1422Y1434D01*
X0Y1433D02*
X7Y1433D01*
X15Y1433D02*
X21Y1433D01*
X39Y1433D02*
X45Y1433D01*
X62Y1433D02*
X68Y1433D01*
X74Y1433D02*
X80Y1433D01*
X121Y1433D02*
X127Y1433D01*
X989Y1433D02*
X1000Y1433D01*
X1013Y1433D02*
X1022Y1433D01*
X1034Y1433D02*
X1043Y1433D01*
X1415Y1433D02*
X1422Y1433D01*
X0Y1432D02*
X7Y1432D01*
X15Y1432D02*
X21Y1432D01*
X39Y1432D02*
X45Y1432D01*
X62Y1432D02*
X68Y1432D01*
X74Y1432D02*
X80Y1432D01*
X121Y1432D02*
X127Y1432D01*
X990Y1432D02*
X1000Y1432D01*
X1013Y1432D02*
X1022Y1432D01*
X1034Y1432D02*
X1043Y1432D01*
X1415Y1432D02*
X1422Y1432D01*
X0Y1431D02*
X7Y1431D01*
X15Y1431D02*
X21Y1431D01*
X39Y1431D02*
X45Y1431D01*
X62Y1431D02*
X68Y1431D01*
X74Y1431D02*
X80Y1431D01*
X121Y1431D02*
X127Y1431D01*
X990Y1431D02*
X1001Y1431D01*
X1013Y1431D02*
X1022Y1431D01*
X1034Y1431D02*
X1043Y1431D01*
X1415Y1431D02*
X1422Y1431D01*
X0Y1430D02*
X7Y1430D01*
X15Y1430D02*
X21Y1430D01*
X39Y1430D02*
X45Y1430D01*
X62Y1430D02*
X68Y1430D01*
X74Y1430D02*
X80Y1430D01*
X121Y1430D02*
X127Y1430D01*
X991Y1430D02*
X1002Y1430D01*
X1012Y1430D02*
X1022Y1430D01*
X1033Y1430D02*
X1043Y1430D01*
X1415Y1430D02*
X1422Y1430D01*
X0Y1429D02*
X7Y1429D01*
X15Y1429D02*
X21Y1429D01*
X39Y1429D02*
X45Y1429D01*
X62Y1429D02*
X68Y1429D01*
X74Y1429D02*
X80Y1429D01*
X121Y1429D02*
X127Y1429D01*
X991Y1429D02*
X1002Y1429D01*
X1011Y1429D02*
X1021Y1429D01*
X1031Y1429D02*
X1043Y1429D01*
X1415Y1429D02*
X1422Y1429D01*
X0Y1428D02*
X7Y1428D01*
X15Y1428D02*
X22Y1428D01*
X38Y1428D02*
X45Y1428D01*
X62Y1428D02*
X68Y1428D01*
X75Y1428D02*
X79Y1428D01*
X122Y1428D02*
X126Y1428D01*
X992Y1428D02*
X1003Y1428D01*
X1009Y1428D02*
X1042Y1428D01*
X1415Y1428D02*
X1422Y1428D01*
X0Y1427D02*
X7Y1427D01*
X16Y1427D02*
X22Y1427D01*
X38Y1427D02*
X46Y1427D01*
X61Y1427D02*
X68Y1427D01*
X76Y1427D02*
X78Y1427D01*
X123Y1427D02*
X125Y1427D01*
X991Y1427D02*
X1042Y1427D01*
X1415Y1427D02*
X1422Y1427D01*
X0Y1426D02*
X7Y1426D01*
X16Y1426D02*
X23Y1426D01*
X37Y1426D02*
X46Y1426D01*
X61Y1426D02*
X68Y1426D01*
X989Y1426D02*
X1042Y1426D01*
X1415Y1426D02*
X1422Y1426D01*
X0Y1425D02*
X7Y1425D01*
X16Y1425D02*
X24Y1425D01*
X36Y1425D02*
X48Y1425D01*
X59Y1425D02*
X67Y1425D01*
X988Y1425D02*
X1041Y1425D01*
X1415Y1425D02*
X1422Y1425D01*
X0Y1424D02*
X7Y1424D01*
X17Y1424D02*
X26Y1424D01*
X34Y1424D02*
X49Y1424D01*
X58Y1424D02*
X67Y1424D01*
X988Y1424D02*
X1040Y1424D01*
X1415Y1424D02*
X1422Y1424D01*
X0Y1423D02*
X7Y1423D01*
X17Y1423D02*
X66Y1423D01*
X988Y1423D02*
X1040Y1423D01*
X1415Y1423D02*
X1422Y1423D01*
X0Y1422D02*
X7Y1422D01*
X18Y1422D02*
X65Y1422D01*
X988Y1422D02*
X1039Y1422D01*
X1415Y1422D02*
X1422Y1422D01*
X0Y1421D02*
X7Y1421D01*
X19Y1421D02*
X64Y1421D01*
X988Y1421D02*
X1037Y1421D01*
X1415Y1421D02*
X1422Y1421D01*
X0Y1420D02*
X7Y1420D01*
X20Y1420D02*
X40Y1420D01*
X44Y1420D02*
X63Y1420D01*
X988Y1420D02*
X1036Y1420D01*
X1415Y1420D02*
X1422Y1420D01*
X0Y1419D02*
X7Y1419D01*
X21Y1419D02*
X39Y1419D01*
X45Y1419D02*
X62Y1419D01*
X989Y1419D02*
X1034Y1419D01*
X1415Y1419D02*
X1422Y1419D01*
X0Y1418D02*
X7Y1418D01*
X23Y1418D02*
X37Y1418D01*
X46Y1418D02*
X60Y1418D01*
X992Y1418D02*
X1030Y1418D01*
X1415Y1418D02*
X1422Y1418D01*
X0Y1417D02*
X7Y1417D01*
X25Y1417D02*
X34Y1417D01*
X49Y1417D02*
X58Y1417D01*
X1415Y1417D02*
X1422Y1417D01*
X0Y1416D02*
X7Y1416D01*
X1415Y1416D02*
X1422Y1416D01*
X0Y1415D02*
X7Y1415D01*
X1415Y1415D02*
X1422Y1415D01*
X0Y1414D02*
X7Y1414D01*
X1415Y1414D02*
X1422Y1414D01*
X0Y1413D02*
X7Y1413D01*
X1415Y1413D02*
X1422Y1413D01*
X0Y1412D02*
X7Y1412D01*
X1415Y1412D02*
X1422Y1412D01*
X0Y1411D02*
X7Y1411D01*
X1415Y1411D02*
X1422Y1411D01*
X0Y1410D02*
X7Y1410D01*
X85Y1410D02*
X104Y1410D01*
X1415Y1410D02*
X1422Y1410D01*
X0Y1409D02*
X7Y1409D01*
X84Y1409D02*
X106Y1409D01*
X1415Y1409D02*
X1422Y1409D01*
X0Y1408D02*
X7Y1408D01*
X82Y1408D02*
X107Y1408D01*
X1415Y1408D02*
X1422Y1408D01*
X0Y1407D02*
X7Y1407D01*
X61Y1407D02*
X63Y1407D01*
X81Y1407D02*
X108Y1407D01*
X1415Y1407D02*
X1422Y1407D01*
X0Y1406D02*
X7Y1406D01*
X60Y1406D02*
X64Y1406D01*
X81Y1406D02*
X109Y1406D01*
X1415Y1406D02*
X1422Y1406D01*
X0Y1405D02*
X7Y1405D01*
X59Y1405D02*
X65Y1405D01*
X80Y1405D02*
X110Y1405D01*
X1415Y1405D02*
X1422Y1405D01*
X0Y1404D02*
X7Y1404D01*
X59Y1404D02*
X65Y1404D01*
X79Y1404D02*
X110Y1404D01*
X1415Y1404D02*
X1422Y1404D01*
X0Y1403D02*
X7Y1403D01*
X59Y1403D02*
X65Y1403D01*
X78Y1403D02*
X86Y1403D01*
X103Y1403D02*
X111Y1403D01*
X1415Y1403D02*
X1422Y1403D01*
X0Y1402D02*
X7Y1402D01*
X59Y1402D02*
X65Y1402D01*
X78Y1402D02*
X85Y1402D01*
X104Y1402D02*
X112Y1402D01*
X1415Y1402D02*
X1422Y1402D01*
X0Y1401D02*
X7Y1401D01*
X59Y1401D02*
X65Y1401D01*
X77Y1401D02*
X84Y1401D01*
X105Y1401D02*
X112Y1401D01*
X1415Y1401D02*
X1422Y1401D01*
X0Y1400D02*
X7Y1400D01*
X59Y1400D02*
X65Y1400D01*
X77Y1400D02*
X83Y1400D01*
X106Y1400D02*
X112Y1400D01*
X1415Y1400D02*
X1422Y1400D01*
X0Y1399D02*
X7Y1399D01*
X59Y1399D02*
X65Y1399D01*
X77Y1399D02*
X83Y1399D01*
X106Y1399D02*
X112Y1399D01*
X1415Y1399D02*
X1422Y1399D01*
X0Y1398D02*
X7Y1398D01*
X59Y1398D02*
X65Y1398D01*
X77Y1398D02*
X83Y1398D01*
X106Y1398D02*
X112Y1398D01*
X1415Y1398D02*
X1422Y1398D01*
X0Y1397D02*
X7Y1397D01*
X17Y1397D02*
X19Y1397D01*
X59Y1397D02*
X66Y1397D01*
X77Y1397D02*
X83Y1397D01*
X106Y1397D02*
X112Y1397D01*
X1415Y1397D02*
X1422Y1397D01*
X0Y1396D02*
X7Y1396D01*
X16Y1396D02*
X20Y1396D01*
X59Y1396D02*
X68Y1396D01*
X77Y1396D02*
X83Y1396D01*
X106Y1396D02*
X112Y1396D01*
X1415Y1396D02*
X1422Y1396D01*
X0Y1395D02*
X7Y1395D01*
X15Y1395D02*
X21Y1395D01*
X59Y1395D02*
X68Y1395D01*
X77Y1395D02*
X83Y1395D01*
X106Y1395D02*
X112Y1395D01*
X1415Y1395D02*
X1422Y1395D01*
X0Y1394D02*
X7Y1394D01*
X15Y1394D02*
X21Y1394D01*
X59Y1394D02*
X68Y1394D01*
X77Y1394D02*
X83Y1394D01*
X106Y1394D02*
X112Y1394D01*
X990Y1394D02*
X1041Y1394D01*
X1415Y1394D02*
X1422Y1394D01*
X0Y1393D02*
X7Y1393D01*
X15Y1393D02*
X21Y1393D01*
X59Y1393D02*
X68Y1393D01*
X77Y1393D02*
X83Y1393D01*
X106Y1393D02*
X112Y1393D01*
X989Y1393D02*
X1042Y1393D01*
X1415Y1393D02*
X1422Y1393D01*
X0Y1392D02*
X7Y1392D01*
X15Y1392D02*
X21Y1392D01*
X59Y1392D02*
X68Y1392D01*
X77Y1392D02*
X83Y1392D01*
X106Y1392D02*
X112Y1392D01*
X988Y1392D02*
X1043Y1392D01*
X1415Y1392D02*
X1422Y1392D01*
X0Y1391D02*
X7Y1391D01*
X15Y1391D02*
X21Y1391D01*
X59Y1391D02*
X68Y1391D01*
X77Y1391D02*
X83Y1391D01*
X106Y1391D02*
X112Y1391D01*
X988Y1391D02*
X1043Y1391D01*
X1415Y1391D02*
X1422Y1391D01*
X0Y1390D02*
X7Y1390D01*
X15Y1390D02*
X21Y1390D01*
X59Y1390D02*
X68Y1390D01*
X77Y1390D02*
X84Y1390D01*
X105Y1390D02*
X112Y1390D01*
X988Y1390D02*
X1043Y1390D01*
X1415Y1390D02*
X1422Y1390D01*
X0Y1389D02*
X7Y1389D01*
X15Y1389D02*
X21Y1389D01*
X59Y1389D02*
X68Y1389D01*
X78Y1389D02*
X85Y1389D01*
X104Y1389D02*
X112Y1389D01*
X988Y1389D02*
X1043Y1389D01*
X1415Y1389D02*
X1422Y1389D01*
X0Y1388D02*
X7Y1388D01*
X15Y1388D02*
X21Y1388D01*
X59Y1388D02*
X68Y1388D01*
X78Y1388D02*
X86Y1388D01*
X103Y1388D02*
X111Y1388D01*
X988Y1388D02*
X1043Y1388D01*
X1415Y1388D02*
X1422Y1388D01*
X0Y1387D02*
X7Y1387D01*
X15Y1387D02*
X68Y1387D01*
X79Y1387D02*
X87Y1387D01*
X103Y1387D02*
X111Y1387D01*
X988Y1387D02*
X1042Y1387D01*
X1415Y1387D02*
X1422Y1387D01*
X0Y1386D02*
X7Y1386D01*
X15Y1386D02*
X68Y1386D01*
X79Y1386D02*
X88Y1386D01*
X102Y1386D02*
X110Y1386D01*
X989Y1386D02*
X1042Y1386D01*
X1415Y1386D02*
X1422Y1386D01*
X0Y1385D02*
X7Y1385D01*
X15Y1385D02*
X68Y1385D01*
X80Y1385D02*
X88Y1385D01*
X101Y1385D02*
X109Y1385D01*
X991Y1385D02*
X1040Y1385D01*
X1415Y1385D02*
X1422Y1385D01*
X0Y1384D02*
X7Y1384D01*
X15Y1384D02*
X69Y1384D01*
X81Y1384D02*
X89Y1384D01*
X100Y1384D02*
X108Y1384D01*
X1020Y1384D02*
X1033Y1384D01*
X1415Y1384D02*
X1422Y1384D01*
X0Y1383D02*
X7Y1383D01*
X15Y1383D02*
X110Y1383D01*
X1021Y1383D02*
X1034Y1383D01*
X1415Y1383D02*
X1422Y1383D01*
X0Y1382D02*
X7Y1382D01*
X15Y1382D02*
X111Y1382D01*
X1022Y1382D02*
X1034Y1382D01*
X1415Y1382D02*
X1422Y1382D01*
X0Y1381D02*
X7Y1381D01*
X15Y1381D02*
X112Y1381D01*
X1023Y1381D02*
X1035Y1381D01*
X1415Y1381D02*
X1422Y1381D01*
X0Y1380D02*
X7Y1380D01*
X15Y1380D02*
X21Y1380D01*
X64Y1380D02*
X112Y1380D01*
X1024Y1380D02*
X1036Y1380D01*
X1415Y1380D02*
X1422Y1380D01*
X0Y1379D02*
X7Y1379D01*
X15Y1379D02*
X21Y1379D01*
X65Y1379D02*
X112Y1379D01*
X1025Y1379D02*
X1037Y1379D01*
X1415Y1379D02*
X1422Y1379D01*
X0Y1378D02*
X7Y1378D01*
X15Y1378D02*
X21Y1378D01*
X66Y1378D02*
X112Y1378D01*
X1025Y1378D02*
X1038Y1378D01*
X1415Y1378D02*
X1422Y1378D01*
X0Y1377D02*
X7Y1377D01*
X15Y1377D02*
X21Y1377D01*
X68Y1377D02*
X111Y1377D01*
X1026Y1377D02*
X1039Y1377D01*
X1415Y1377D02*
X1422Y1377D01*
X0Y1376D02*
X7Y1376D01*
X15Y1376D02*
X21Y1376D01*
X1027Y1376D02*
X1040Y1376D01*
X1415Y1376D02*
X1422Y1376D01*
X0Y1375D02*
X7Y1375D01*
X15Y1375D02*
X21Y1375D01*
X1028Y1375D02*
X1040Y1375D01*
X1415Y1375D02*
X1422Y1375D01*
X0Y1374D02*
X7Y1374D01*
X15Y1374D02*
X21Y1374D01*
X1029Y1374D02*
X1041Y1374D01*
X1415Y1374D02*
X1422Y1374D01*
X0Y1373D02*
X7Y1373D01*
X15Y1373D02*
X21Y1373D01*
X1030Y1373D02*
X1042Y1373D01*
X1415Y1373D02*
X1422Y1373D01*
X0Y1372D02*
X7Y1372D01*
X15Y1372D02*
X21Y1372D01*
X1031Y1372D02*
X1043Y1372D01*
X1415Y1372D02*
X1422Y1372D01*
X0Y1371D02*
X7Y1371D01*
X16Y1371D02*
X20Y1371D01*
X1032Y1371D02*
X1043Y1371D01*
X1415Y1371D02*
X1422Y1371D01*
X0Y1370D02*
X7Y1370D01*
X17Y1370D02*
X19Y1370D01*
X1032Y1370D02*
X1043Y1370D01*
X1415Y1370D02*
X1422Y1370D01*
X0Y1369D02*
X7Y1369D01*
X1033Y1369D02*
X1043Y1369D01*
X1415Y1369D02*
X1422Y1369D01*
X0Y1368D02*
X7Y1368D01*
X1034Y1368D02*
X1043Y1368D01*
X1415Y1368D02*
X1422Y1368D01*
X0Y1367D02*
X7Y1367D01*
X1034Y1367D02*
X1043Y1367D01*
X1415Y1367D02*
X1422Y1367D01*
X0Y1366D02*
X7Y1366D01*
X1034Y1366D02*
X1043Y1366D01*
X1415Y1366D02*
X1422Y1366D01*
X0Y1365D02*
X7Y1365D01*
X1034Y1365D02*
X1043Y1365D01*
X1415Y1365D02*
X1422Y1365D01*
X0Y1364D02*
X7Y1364D01*
X1034Y1364D02*
X1043Y1364D01*
X1415Y1364D02*
X1422Y1364D01*
X0Y1363D02*
X7Y1363D01*
X1034Y1363D02*
X1043Y1363D01*
X1415Y1363D02*
X1422Y1363D01*
X0Y1362D02*
X7Y1362D01*
X1034Y1362D02*
X1043Y1362D01*
X1415Y1362D02*
X1422Y1362D01*
X0Y1361D02*
X7Y1361D01*
X1034Y1361D02*
X1043Y1361D01*
X1415Y1361D02*
X1422Y1361D01*
X0Y1360D02*
X7Y1360D01*
X1034Y1360D02*
X1043Y1360D01*
X1415Y1360D02*
X1422Y1360D01*
X0Y1359D02*
X7Y1359D01*
X1034Y1359D02*
X1043Y1359D01*
X1415Y1359D02*
X1422Y1359D01*
X0Y1358D02*
X7Y1358D01*
X1034Y1358D02*
X1043Y1358D01*
X1415Y1358D02*
X1422Y1358D01*
X0Y1357D02*
X7Y1357D01*
X76Y1357D02*
X78Y1357D01*
X109Y1357D02*
X110Y1357D01*
X1033Y1357D02*
X1043Y1357D01*
X1415Y1357D02*
X1422Y1357D01*
X0Y1356D02*
X7Y1356D01*
X75Y1356D02*
X79Y1356D01*
X107Y1356D02*
X111Y1356D01*
X1032Y1356D02*
X1043Y1356D01*
X1415Y1356D02*
X1422Y1356D01*
X0Y1355D02*
X7Y1355D01*
X74Y1355D02*
X80Y1355D01*
X107Y1355D02*
X112Y1355D01*
X1029Y1355D02*
X1042Y1355D01*
X1415Y1355D02*
X1422Y1355D01*
X0Y1354D02*
X7Y1354D01*
X74Y1354D02*
X80Y1354D01*
X106Y1354D02*
X112Y1354D01*
X1024Y1354D02*
X1042Y1354D01*
X1415Y1354D02*
X1422Y1354D01*
X0Y1353D02*
X7Y1353D01*
X74Y1353D02*
X80Y1353D01*
X106Y1353D02*
X112Y1353D01*
X1023Y1353D02*
X1041Y1353D01*
X1415Y1353D02*
X1422Y1353D01*
X0Y1352D02*
X7Y1352D01*
X74Y1352D02*
X80Y1352D01*
X106Y1352D02*
X112Y1352D01*
X1022Y1352D02*
X1041Y1352D01*
X1415Y1352D02*
X1422Y1352D01*
X0Y1351D02*
X7Y1351D01*
X74Y1351D02*
X80Y1351D01*
X106Y1351D02*
X112Y1351D01*
X1022Y1351D02*
X1040Y1351D01*
X1415Y1351D02*
X1422Y1351D01*
X0Y1350D02*
X7Y1350D01*
X23Y1350D02*
X51Y1350D01*
X74Y1350D02*
X80Y1350D01*
X106Y1350D02*
X112Y1350D01*
X123Y1350D02*
X128Y1350D01*
X1021Y1350D02*
X1039Y1350D01*
X1415Y1350D02*
X1422Y1350D01*
X0Y1349D02*
X7Y1349D01*
X21Y1349D02*
X53Y1349D01*
X74Y1349D02*
X80Y1349D01*
X106Y1349D02*
X112Y1349D01*
X122Y1349D02*
X129Y1349D01*
X1022Y1349D02*
X1038Y1349D01*
X1415Y1349D02*
X1422Y1349D01*
X0Y1348D02*
X7Y1348D01*
X19Y1348D02*
X53Y1348D01*
X74Y1348D02*
X80Y1348D01*
X106Y1348D02*
X112Y1348D01*
X121Y1348D02*
X130Y1348D01*
X1022Y1348D02*
X1037Y1348D01*
X1415Y1348D02*
X1422Y1348D01*
X0Y1347D02*
X7Y1347D01*
X18Y1347D02*
X54Y1347D01*
X74Y1347D02*
X80Y1347D01*
X106Y1347D02*
X112Y1347D01*
X121Y1347D02*
X130Y1347D01*
X1022Y1347D02*
X1036Y1347D01*
X1415Y1347D02*
X1422Y1347D01*
X0Y1346D02*
X7Y1346D01*
X17Y1346D02*
X53Y1346D01*
X74Y1346D02*
X112Y1346D01*
X121Y1346D02*
X130Y1346D01*
X1023Y1346D02*
X1034Y1346D01*
X1415Y1346D02*
X1422Y1346D01*
X0Y1345D02*
X7Y1345D01*
X17Y1345D02*
X53Y1345D01*
X74Y1345D02*
X112Y1345D01*
X121Y1345D02*
X130Y1345D01*
X1026Y1345D02*
X1030Y1345D01*
X1415Y1345D02*
X1422Y1345D01*
X0Y1344D02*
X7Y1344D01*
X16Y1344D02*
X52Y1344D01*
X74Y1344D02*
X112Y1344D01*
X121Y1344D02*
X130Y1344D01*
X1415Y1344D02*
X1422Y1344D01*
X0Y1343D02*
X7Y1343D01*
X16Y1343D02*
X23Y1343D01*
X74Y1343D02*
X112Y1343D01*
X121Y1343D02*
X130Y1343D01*
X1415Y1343D02*
X1422Y1343D01*
X0Y1342D02*
X7Y1342D01*
X15Y1342D02*
X22Y1342D01*
X74Y1342D02*
X112Y1342D01*
X121Y1342D02*
X130Y1342D01*
X1415Y1342D02*
X1422Y1342D01*
X0Y1341D02*
X7Y1341D01*
X15Y1341D02*
X21Y1341D01*
X74Y1341D02*
X111Y1341D01*
X122Y1341D02*
X129Y1341D01*
X1415Y1341D02*
X1422Y1341D01*
X0Y1340D02*
X7Y1340D01*
X15Y1340D02*
X21Y1340D01*
X74Y1340D02*
X109Y1340D01*
X124Y1340D02*
X127Y1340D01*
X1415Y1340D02*
X1422Y1340D01*
X0Y1339D02*
X7Y1339D01*
X15Y1339D02*
X21Y1339D01*
X74Y1339D02*
X80Y1339D01*
X1415Y1339D02*
X1422Y1339D01*
X0Y1338D02*
X7Y1338D01*
X15Y1338D02*
X21Y1338D01*
X74Y1338D02*
X80Y1338D01*
X1415Y1338D02*
X1422Y1338D01*
X0Y1337D02*
X7Y1337D01*
X15Y1337D02*
X21Y1337D01*
X74Y1337D02*
X80Y1337D01*
X1415Y1337D02*
X1422Y1337D01*
X0Y1336D02*
X7Y1336D01*
X15Y1336D02*
X21Y1336D01*
X74Y1336D02*
X80Y1336D01*
X1415Y1336D02*
X1422Y1336D01*
X0Y1335D02*
X7Y1335D01*
X15Y1335D02*
X21Y1335D01*
X74Y1335D02*
X80Y1335D01*
X1415Y1335D02*
X1422Y1335D01*
X0Y1334D02*
X7Y1334D01*
X15Y1334D02*
X21Y1334D01*
X74Y1334D02*
X80Y1334D01*
X1415Y1334D02*
X1422Y1334D01*
X0Y1333D02*
X7Y1333D01*
X15Y1333D02*
X22Y1333D01*
X74Y1333D02*
X80Y1333D01*
X1415Y1333D02*
X1422Y1333D01*
X0Y1332D02*
X7Y1332D01*
X16Y1332D02*
X23Y1332D01*
X74Y1332D02*
X80Y1332D01*
X1415Y1332D02*
X1422Y1332D01*
X0Y1331D02*
X7Y1331D01*
X16Y1331D02*
X23Y1331D01*
X75Y1331D02*
X79Y1331D01*
X1415Y1331D02*
X1422Y1331D01*
X0Y1330D02*
X7Y1330D01*
X17Y1330D02*
X24Y1330D01*
X76Y1330D02*
X78Y1330D01*
X1415Y1330D02*
X1422Y1330D01*
X0Y1329D02*
X7Y1329D01*
X17Y1329D02*
X25Y1329D01*
X1415Y1329D02*
X1422Y1329D01*
X0Y1328D02*
X7Y1328D01*
X18Y1328D02*
X25Y1328D01*
X1415Y1328D02*
X1422Y1328D01*
X0Y1327D02*
X7Y1327D01*
X19Y1327D02*
X26Y1327D01*
X1415Y1327D02*
X1422Y1327D01*
X0Y1326D02*
X7Y1326D01*
X19Y1326D02*
X27Y1326D01*
X1415Y1326D02*
X1422Y1326D01*
X0Y1325D02*
X7Y1325D01*
X20Y1325D02*
X27Y1325D01*
X1415Y1325D02*
X1422Y1325D01*
X0Y1324D02*
X7Y1324D01*
X21Y1324D02*
X28Y1324D01*
X1415Y1324D02*
X1422Y1324D01*
X0Y1323D02*
X7Y1323D01*
X18Y1323D02*
X51Y1323D01*
X992Y1323D02*
X1039Y1323D01*
X1415Y1323D02*
X1422Y1323D01*
X0Y1322D02*
X7Y1322D01*
X16Y1322D02*
X53Y1322D01*
X989Y1322D02*
X1041Y1322D01*
X1415Y1322D02*
X1422Y1322D01*
X0Y1321D02*
X7Y1321D01*
X15Y1321D02*
X53Y1321D01*
X988Y1321D02*
X1042Y1321D01*
X1415Y1321D02*
X1422Y1321D01*
X0Y1320D02*
X7Y1320D01*
X15Y1320D02*
X54Y1320D01*
X988Y1320D02*
X1043Y1320D01*
X1415Y1320D02*
X1422Y1320D01*
X0Y1319D02*
X7Y1319D01*
X15Y1319D02*
X53Y1319D01*
X988Y1319D02*
X1043Y1319D01*
X1415Y1319D02*
X1422Y1319D01*
X0Y1318D02*
X7Y1318D01*
X16Y1318D02*
X53Y1318D01*
X987Y1318D02*
X1043Y1318D01*
X1415Y1318D02*
X1422Y1318D01*
X0Y1317D02*
X7Y1317D01*
X16Y1317D02*
X52Y1317D01*
X988Y1317D02*
X1043Y1317D01*
X1415Y1317D02*
X1422Y1317D01*
X0Y1316D02*
X7Y1316D01*
X988Y1316D02*
X1043Y1316D01*
X1415Y1316D02*
X1422Y1316D01*
X0Y1315D02*
X7Y1315D01*
X989Y1315D02*
X1042Y1315D01*
X1415Y1315D02*
X1422Y1315D01*
X0Y1314D02*
X7Y1314D01*
X990Y1314D02*
X1041Y1314D01*
X1415Y1314D02*
X1422Y1314D01*
X0Y1313D02*
X7Y1313D01*
X1027Y1313D02*
X1040Y1313D01*
X1415Y1313D02*
X1422Y1313D01*
X0Y1312D02*
X7Y1312D01*
X1029Y1312D02*
X1041Y1312D01*
X1415Y1312D02*
X1422Y1312D01*
X0Y1311D02*
X7Y1311D01*
X1029Y1311D02*
X1041Y1311D01*
X1415Y1311D02*
X1422Y1311D01*
X0Y1310D02*
X7Y1310D01*
X83Y1310D02*
X103Y1310D01*
X1030Y1310D02*
X1042Y1310D01*
X1415Y1310D02*
X1422Y1310D01*
X0Y1309D02*
X7Y1309D01*
X81Y1309D02*
X105Y1309D01*
X1031Y1309D02*
X1042Y1309D01*
X1415Y1309D02*
X1422Y1309D01*
X0Y1308D02*
X7Y1308D01*
X80Y1308D02*
X106Y1308D01*
X1032Y1308D02*
X1043Y1308D01*
X1415Y1308D02*
X1422Y1308D01*
X0Y1307D02*
X7Y1307D01*
X79Y1307D02*
X108Y1307D01*
X1033Y1307D02*
X1043Y1307D01*
X1415Y1307D02*
X1422Y1307D01*
X0Y1306D02*
X7Y1306D01*
X78Y1306D02*
X108Y1306D01*
X1034Y1306D02*
X1043Y1306D01*
X1415Y1306D02*
X1422Y1306D01*
X0Y1305D02*
X7Y1305D01*
X77Y1305D02*
X109Y1305D01*
X1034Y1305D02*
X1043Y1305D01*
X1415Y1305D02*
X1422Y1305D01*
X0Y1304D02*
X7Y1304D01*
X76Y1304D02*
X110Y1304D01*
X1034Y1304D02*
X1043Y1304D01*
X1415Y1304D02*
X1422Y1304D01*
X0Y1303D02*
X7Y1303D01*
X75Y1303D02*
X84Y1303D01*
X89Y1303D02*
X95Y1303D01*
X102Y1303D02*
X111Y1303D01*
X1033Y1303D02*
X1043Y1303D01*
X1415Y1303D02*
X1422Y1303D01*
X0Y1302D02*
X7Y1302D01*
X75Y1302D02*
X83Y1302D01*
X89Y1302D02*
X95Y1302D01*
X104Y1302D02*
X111Y1302D01*
X990Y1302D02*
X1043Y1302D01*
X1415Y1302D02*
X1422Y1302D01*
X0Y1301D02*
X7Y1301D01*
X19Y1301D02*
X50Y1301D01*
X74Y1301D02*
X82Y1301D01*
X89Y1301D02*
X95Y1301D01*
X105Y1301D02*
X112Y1301D01*
X989Y1301D02*
X1043Y1301D01*
X1415Y1301D02*
X1422Y1301D01*
X0Y1300D02*
X7Y1300D01*
X16Y1300D02*
X52Y1300D01*
X74Y1300D02*
X81Y1300D01*
X89Y1300D02*
X95Y1300D01*
X105Y1300D02*
X112Y1300D01*
X988Y1300D02*
X1042Y1300D01*
X1415Y1300D02*
X1422Y1300D01*
X0Y1299D02*
X7Y1299D01*
X15Y1299D02*
X53Y1299D01*
X74Y1299D02*
X80Y1299D01*
X89Y1299D02*
X95Y1299D01*
X106Y1299D02*
X112Y1299D01*
X988Y1299D02*
X1042Y1299D01*
X1415Y1299D02*
X1422Y1299D01*
X0Y1298D02*
X7Y1298D01*
X15Y1298D02*
X53Y1298D01*
X74Y1298D02*
X80Y1298D01*
X89Y1298D02*
X95Y1298D01*
X106Y1298D02*
X112Y1298D01*
X988Y1298D02*
X1041Y1298D01*
X1415Y1298D02*
X1422Y1298D01*
X0Y1297D02*
X7Y1297D01*
X15Y1297D02*
X53Y1297D01*
X74Y1297D02*
X80Y1297D01*
X89Y1297D02*
X95Y1297D01*
X106Y1297D02*
X112Y1297D01*
X988Y1297D02*
X1040Y1297D01*
X1415Y1297D02*
X1422Y1297D01*
X0Y1296D02*
X7Y1296D01*
X16Y1296D02*
X53Y1296D01*
X74Y1296D02*
X80Y1296D01*
X89Y1296D02*
X95Y1296D01*
X106Y1296D02*
X112Y1296D01*
X988Y1296D02*
X1039Y1296D01*
X1415Y1296D02*
X1422Y1296D01*
X0Y1295D02*
X7Y1295D01*
X16Y1295D02*
X52Y1295D01*
X74Y1295D02*
X80Y1295D01*
X89Y1295D02*
X95Y1295D01*
X106Y1295D02*
X112Y1295D01*
X988Y1295D02*
X1039Y1295D01*
X1415Y1295D02*
X1422Y1295D01*
X0Y1294D02*
X7Y1294D01*
X43Y1294D02*
X51Y1294D01*
X74Y1294D02*
X80Y1294D01*
X89Y1294D02*
X95Y1294D01*
X106Y1294D02*
X112Y1294D01*
X989Y1294D02*
X1039Y1294D01*
X1415Y1294D02*
X1422Y1294D01*
X0Y1293D02*
X7Y1293D01*
X44Y1293D02*
X52Y1293D01*
X74Y1293D02*
X80Y1293D01*
X89Y1293D02*
X95Y1293D01*
X106Y1293D02*
X112Y1293D01*
X990Y1293D02*
X1040Y1293D01*
X1415Y1293D02*
X1422Y1293D01*
X0Y1292D02*
X7Y1292D01*
X45Y1292D02*
X53Y1292D01*
X74Y1292D02*
X80Y1292D01*
X89Y1292D02*
X95Y1292D01*
X106Y1292D02*
X112Y1292D01*
X1029Y1292D02*
X1041Y1292D01*
X1415Y1292D02*
X1422Y1292D01*
X0Y1291D02*
X7Y1291D01*
X46Y1291D02*
X53Y1291D01*
X74Y1291D02*
X80Y1291D01*
X89Y1291D02*
X95Y1291D01*
X106Y1291D02*
X112Y1291D01*
X1030Y1291D02*
X1041Y1291D01*
X1415Y1291D02*
X1422Y1291D01*
X0Y1290D02*
X7Y1290D01*
X47Y1290D02*
X53Y1290D01*
X74Y1290D02*
X80Y1290D01*
X89Y1290D02*
X95Y1290D01*
X106Y1290D02*
X112Y1290D01*
X1030Y1290D02*
X1042Y1290D01*
X1415Y1290D02*
X1422Y1290D01*
X0Y1289D02*
X7Y1289D01*
X47Y1289D02*
X54Y1289D01*
X74Y1289D02*
X80Y1289D01*
X89Y1289D02*
X95Y1289D01*
X106Y1289D02*
X112Y1289D01*
X1031Y1289D02*
X1042Y1289D01*
X1415Y1289D02*
X1422Y1289D01*
X0Y1288D02*
X7Y1288D01*
X48Y1288D02*
X54Y1288D01*
X74Y1288D02*
X80Y1288D01*
X89Y1288D02*
X95Y1288D01*
X106Y1288D02*
X112Y1288D01*
X1032Y1288D02*
X1043Y1288D01*
X1415Y1288D02*
X1422Y1288D01*
X0Y1287D02*
X7Y1287D01*
X47Y1287D02*
X53Y1287D01*
X74Y1287D02*
X80Y1287D01*
X89Y1287D02*
X95Y1287D01*
X106Y1287D02*
X112Y1287D01*
X1033Y1287D02*
X1043Y1287D01*
X1415Y1287D02*
X1422Y1287D01*
X0Y1286D02*
X7Y1286D01*
X17Y1286D02*
X53Y1286D01*
X74Y1286D02*
X80Y1286D01*
X89Y1286D02*
X95Y1286D01*
X105Y1286D02*
X112Y1286D01*
X1034Y1286D02*
X1043Y1286D01*
X1415Y1286D02*
X1422Y1286D01*
X0Y1285D02*
X7Y1285D01*
X16Y1285D02*
X53Y1285D01*
X74Y1285D02*
X80Y1285D01*
X89Y1285D02*
X95Y1285D01*
X104Y1285D02*
X112Y1285D01*
X1034Y1285D02*
X1043Y1285D01*
X1415Y1285D02*
X1422Y1285D01*
X0Y1284D02*
X7Y1284D01*
X15Y1284D02*
X52Y1284D01*
X74Y1284D02*
X80Y1284D01*
X89Y1284D02*
X95Y1284D01*
X103Y1284D02*
X111Y1284D01*
X1034Y1284D02*
X1043Y1284D01*
X1415Y1284D02*
X1422Y1284D01*
X0Y1283D02*
X7Y1283D01*
X15Y1283D02*
X52Y1283D01*
X74Y1283D02*
X80Y1283D01*
X89Y1283D02*
X95Y1283D01*
X101Y1283D02*
X111Y1283D01*
X1033Y1283D02*
X1043Y1283D01*
X1415Y1283D02*
X1422Y1283D01*
X0Y1282D02*
X7Y1282D01*
X15Y1282D02*
X51Y1282D01*
X74Y1282D02*
X80Y1282D01*
X89Y1282D02*
X110Y1282D01*
X990Y1282D02*
X1043Y1282D01*
X1415Y1282D02*
X1422Y1282D01*
X0Y1281D02*
X7Y1281D01*
X16Y1281D02*
X51Y1281D01*
X74Y1281D02*
X80Y1281D01*
X89Y1281D02*
X109Y1281D01*
X989Y1281D02*
X1042Y1281D01*
X1415Y1281D02*
X1422Y1281D01*
X0Y1280D02*
X7Y1280D01*
X17Y1280D02*
X51Y1280D01*
X74Y1280D02*
X80Y1280D01*
X89Y1280D02*
X108Y1280D01*
X988Y1280D02*
X1042Y1280D01*
X1415Y1280D02*
X1422Y1280D01*
X0Y1279D02*
X7Y1279D01*
X44Y1279D02*
X52Y1279D01*
X74Y1279D02*
X80Y1279D01*
X89Y1279D02*
X107Y1279D01*
X988Y1279D02*
X1041Y1279D01*
X1415Y1279D02*
X1422Y1279D01*
X0Y1278D02*
X7Y1278D01*
X45Y1278D02*
X53Y1278D01*
X74Y1278D02*
X80Y1278D01*
X89Y1278D02*
X106Y1278D01*
X987Y1278D02*
X1041Y1278D01*
X1415Y1278D02*
X1422Y1278D01*
X0Y1277D02*
X7Y1277D01*
X46Y1277D02*
X53Y1277D01*
X75Y1277D02*
X79Y1277D01*
X90Y1277D02*
X104Y1277D01*
X988Y1277D02*
X1040Y1277D01*
X1415Y1277D02*
X1422Y1277D01*
X0Y1276D02*
X7Y1276D01*
X47Y1276D02*
X53Y1276D01*
X77Y1276D02*
X77Y1276D01*
X92Y1276D02*
X101Y1276D01*
X988Y1276D02*
X1039Y1276D01*
X1415Y1276D02*
X1422Y1276D01*
X0Y1275D02*
X7Y1275D01*
X47Y1275D02*
X53Y1275D01*
X988Y1275D02*
X1038Y1275D01*
X1415Y1275D02*
X1422Y1275D01*
X0Y1274D02*
X7Y1274D01*
X47Y1274D02*
X53Y1274D01*
X989Y1274D02*
X1037Y1274D01*
X1415Y1274D02*
X1422Y1274D01*
X0Y1273D02*
X7Y1273D01*
X46Y1273D02*
X53Y1273D01*
X991Y1273D02*
X1034Y1273D01*
X1415Y1273D02*
X1422Y1273D01*
X0Y1272D02*
X7Y1272D01*
X16Y1272D02*
X53Y1272D01*
X1415Y1272D02*
X1422Y1272D01*
X0Y1271D02*
X7Y1271D01*
X16Y1271D02*
X53Y1271D01*
X1415Y1271D02*
X1422Y1271D01*
X0Y1270D02*
X7Y1270D01*
X15Y1270D02*
X52Y1270D01*
X1415Y1270D02*
X1422Y1270D01*
X0Y1269D02*
X7Y1269D01*
X15Y1269D02*
X51Y1269D01*
X466Y1269D02*
X468Y1269D01*
X1415Y1269D02*
X1422Y1269D01*
X0Y1268D02*
X7Y1268D01*
X15Y1268D02*
X50Y1268D01*
X463Y1268D02*
X470Y1268D01*
X1415Y1268D02*
X1422Y1268D01*
X0Y1267D02*
X7Y1267D01*
X16Y1267D02*
X49Y1267D01*
X463Y1267D02*
X471Y1267D01*
X1415Y1267D02*
X1422Y1267D01*
X0Y1266D02*
X7Y1266D01*
X19Y1266D02*
X46Y1266D01*
X462Y1266D02*
X471Y1266D01*
X1415Y1266D02*
X1422Y1266D01*
X0Y1265D02*
X7Y1265D01*
X462Y1265D02*
X471Y1265D01*
X732Y1265D02*
X765Y1265D01*
X1415Y1265D02*
X1422Y1265D01*
X0Y1264D02*
X7Y1264D01*
X463Y1264D02*
X471Y1264D01*
X732Y1264D02*
X767Y1264D01*
X1415Y1264D02*
X1422Y1264D01*
X0Y1263D02*
X7Y1263D01*
X463Y1263D02*
X471Y1263D01*
X732Y1263D02*
X767Y1263D01*
X1013Y1263D02*
X1014Y1263D01*
X1060Y1263D02*
X1061Y1263D01*
X1415Y1263D02*
X1422Y1263D01*
X0Y1262D02*
X7Y1262D01*
X465Y1262D02*
X471Y1262D01*
X732Y1262D02*
X767Y1262D01*
X1012Y1262D02*
X1016Y1262D01*
X1059Y1262D02*
X1063Y1262D01*
X1415Y1262D02*
X1422Y1262D01*
X0Y1261D02*
X7Y1261D01*
X465Y1261D02*
X471Y1261D01*
X732Y1261D02*
X767Y1261D01*
X1011Y1261D02*
X1016Y1261D01*
X1058Y1261D02*
X1064Y1261D01*
X1415Y1261D02*
X1422Y1261D01*
X0Y1260D02*
X7Y1260D01*
X465Y1260D02*
X471Y1260D01*
X732Y1260D02*
X767Y1260D01*
X1011Y1260D02*
X1017Y1260D01*
X1058Y1260D02*
X1064Y1260D01*
X1415Y1260D02*
X1422Y1260D01*
X0Y1259D02*
X7Y1259D01*
X465Y1259D02*
X471Y1259D01*
X732Y1259D02*
X766Y1259D01*
X1011Y1259D02*
X1017Y1259D01*
X1058Y1259D02*
X1064Y1259D01*
X1415Y1259D02*
X1422Y1259D01*
X0Y1258D02*
X7Y1258D01*
X465Y1258D02*
X471Y1258D01*
X732Y1258D02*
X738Y1258D01*
X1011Y1258D02*
X1017Y1258D01*
X1058Y1258D02*
X1064Y1258D01*
X1415Y1258D02*
X1422Y1258D01*
X0Y1257D02*
X7Y1257D01*
X465Y1257D02*
X471Y1257D01*
X732Y1257D02*
X738Y1257D01*
X1011Y1257D02*
X1017Y1257D01*
X1058Y1257D02*
X1064Y1257D01*
X1415Y1257D02*
X1422Y1257D01*
X0Y1256D02*
X7Y1256D01*
X75Y1256D02*
X79Y1256D01*
X122Y1256D02*
X126Y1256D01*
X465Y1256D02*
X471Y1256D01*
X732Y1256D02*
X738Y1256D01*
X1011Y1256D02*
X1017Y1256D01*
X1058Y1256D02*
X1064Y1256D01*
X1415Y1256D02*
X1422Y1256D01*
X0Y1255D02*
X7Y1255D01*
X74Y1255D02*
X79Y1255D01*
X122Y1255D02*
X127Y1255D01*
X420Y1255D02*
X439Y1255D01*
X465Y1255D02*
X471Y1255D01*
X732Y1255D02*
X738Y1255D01*
X1011Y1255D02*
X1017Y1255D01*
X1058Y1255D02*
X1064Y1255D01*
X1415Y1255D02*
X1422Y1255D01*
X0Y1254D02*
X7Y1254D01*
X74Y1254D02*
X80Y1254D01*
X121Y1254D02*
X127Y1254D01*
X419Y1254D02*
X441Y1254D01*
X465Y1254D02*
X471Y1254D01*
X732Y1254D02*
X738Y1254D01*
X1011Y1254D02*
X1017Y1254D01*
X1058Y1254D02*
X1064Y1254D01*
X1415Y1254D02*
X1422Y1254D01*
X0Y1253D02*
X7Y1253D01*
X74Y1253D02*
X80Y1253D01*
X121Y1253D02*
X127Y1253D01*
X418Y1253D02*
X442Y1253D01*
X465Y1253D02*
X471Y1253D01*
X732Y1253D02*
X738Y1253D01*
X1011Y1253D02*
X1017Y1253D01*
X1058Y1253D02*
X1064Y1253D01*
X1415Y1253D02*
X1422Y1253D01*
X0Y1252D02*
X7Y1252D01*
X74Y1252D02*
X80Y1252D01*
X121Y1252D02*
X127Y1252D01*
X418Y1252D02*
X443Y1252D01*
X465Y1252D02*
X471Y1252D01*
X732Y1252D02*
X738Y1252D01*
X1011Y1252D02*
X1017Y1252D01*
X1058Y1252D02*
X1064Y1252D01*
X1415Y1252D02*
X1422Y1252D01*
X0Y1251D02*
X7Y1251D01*
X74Y1251D02*
X80Y1251D01*
X121Y1251D02*
X127Y1251D01*
X418Y1251D02*
X444Y1251D01*
X465Y1251D02*
X471Y1251D01*
X732Y1251D02*
X738Y1251D01*
X1011Y1251D02*
X1017Y1251D01*
X1058Y1251D02*
X1064Y1251D01*
X1415Y1251D02*
X1422Y1251D01*
X0Y1250D02*
X7Y1250D01*
X25Y1250D02*
X43Y1250D01*
X74Y1250D02*
X80Y1250D01*
X121Y1250D02*
X127Y1250D01*
X419Y1250D02*
X444Y1250D01*
X465Y1250D02*
X471Y1250D01*
X732Y1250D02*
X738Y1250D01*
X1011Y1250D02*
X1017Y1250D01*
X1058Y1250D02*
X1064Y1250D01*
X1415Y1250D02*
X1422Y1250D01*
X0Y1249D02*
X7Y1249D01*
X23Y1249D02*
X46Y1249D01*
X74Y1249D02*
X80Y1249D01*
X121Y1249D02*
X127Y1249D01*
X420Y1249D02*
X445Y1249D01*
X465Y1249D02*
X471Y1249D01*
X732Y1249D02*
X738Y1249D01*
X1011Y1249D02*
X1064Y1249D01*
X1415Y1249D02*
X1422Y1249D01*
X0Y1248D02*
X7Y1248D01*
X21Y1248D02*
X47Y1248D01*
X74Y1248D02*
X80Y1248D01*
X121Y1248D02*
X127Y1248D01*
X438Y1248D02*
X446Y1248D01*
X465Y1248D02*
X471Y1248D01*
X732Y1248D02*
X738Y1248D01*
X1011Y1248D02*
X1064Y1248D01*
X1415Y1248D02*
X1422Y1248D01*
X0Y1247D02*
X7Y1247D01*
X20Y1247D02*
X49Y1247D01*
X74Y1247D02*
X80Y1247D01*
X121Y1247D02*
X127Y1247D01*
X439Y1247D02*
X447Y1247D01*
X465Y1247D02*
X471Y1247D01*
X732Y1247D02*
X738Y1247D01*
X1011Y1247D02*
X1064Y1247D01*
X1415Y1247D02*
X1422Y1247D01*
X0Y1246D02*
X7Y1246D01*
X19Y1246D02*
X49Y1246D01*
X74Y1246D02*
X127Y1246D01*
X440Y1246D02*
X448Y1246D01*
X465Y1246D02*
X471Y1246D01*
X732Y1246D02*
X738Y1246D01*
X1011Y1246D02*
X1064Y1246D01*
X1415Y1246D02*
X1422Y1246D01*
X0Y1245D02*
X7Y1245D01*
X18Y1245D02*
X50Y1245D01*
X74Y1245D02*
X127Y1245D01*
X440Y1245D02*
X449Y1245D01*
X465Y1245D02*
X471Y1245D01*
X732Y1245D02*
X738Y1245D01*
X1011Y1245D02*
X1064Y1245D01*
X1415Y1245D02*
X1422Y1245D01*
X0Y1244D02*
X7Y1244D01*
X17Y1244D02*
X51Y1244D01*
X74Y1244D02*
X127Y1244D01*
X441Y1244D02*
X449Y1244D01*
X465Y1244D02*
X471Y1244D01*
X716Y1244D02*
X760Y1244D01*
X1011Y1244D02*
X1064Y1244D01*
X1415Y1244D02*
X1422Y1244D01*
X0Y1243D02*
X7Y1243D01*
X17Y1243D02*
X26Y1243D01*
X30Y1243D02*
X36Y1243D01*
X43Y1243D02*
X52Y1243D01*
X74Y1243D02*
X127Y1243D01*
X442Y1243D02*
X450Y1243D01*
X465Y1243D02*
X471Y1243D01*
X715Y1243D02*
X761Y1243D01*
X1011Y1243D02*
X1064Y1243D01*
X1415Y1243D02*
X1422Y1243D01*
X0Y1242D02*
X7Y1242D01*
X16Y1242D02*
X24Y1242D01*
X30Y1242D02*
X36Y1242D01*
X45Y1242D02*
X52Y1242D01*
X74Y1242D02*
X127Y1242D01*
X443Y1242D02*
X451Y1242D01*
X465Y1242D02*
X471Y1242D01*
X715Y1242D02*
X761Y1242D01*
X1011Y1242D02*
X1017Y1242D01*
X1415Y1242D02*
X1422Y1242D01*
X0Y1241D02*
X7Y1241D01*
X16Y1241D02*
X23Y1241D01*
X30Y1241D02*
X36Y1241D01*
X46Y1241D02*
X53Y1241D01*
X74Y1241D02*
X126Y1241D01*
X444Y1241D02*
X471Y1241D01*
X714Y1241D02*
X762Y1241D01*
X1011Y1241D02*
X1017Y1241D01*
X1415Y1241D02*
X1422Y1241D01*
X0Y1240D02*
X7Y1240D01*
X15Y1240D02*
X22Y1240D01*
X30Y1240D02*
X36Y1240D01*
X46Y1240D02*
X53Y1240D01*
X74Y1240D02*
X125Y1240D01*
X445Y1240D02*
X471Y1240D01*
X715Y1240D02*
X761Y1240D01*
X1011Y1240D02*
X1017Y1240D01*
X1415Y1240D02*
X1422Y1240D01*
X0Y1239D02*
X7Y1239D01*
X15Y1239D02*
X22Y1239D01*
X30Y1239D02*
X36Y1239D01*
X47Y1239D02*
X53Y1239D01*
X74Y1239D02*
X80Y1239D01*
X446Y1239D02*
X471Y1239D01*
X715Y1239D02*
X761Y1239D01*
X1011Y1239D02*
X1017Y1239D01*
X1415Y1239D02*
X1422Y1239D01*
X0Y1238D02*
X7Y1238D01*
X15Y1238D02*
X21Y1238D01*
X30Y1238D02*
X36Y1238D01*
X47Y1238D02*
X54Y1238D01*
X74Y1238D02*
X80Y1238D01*
X446Y1238D02*
X471Y1238D01*
X716Y1238D02*
X760Y1238D01*
X1011Y1238D02*
X1017Y1238D01*
X1415Y1238D02*
X1422Y1238D01*
X0Y1237D02*
X7Y1237D01*
X15Y1237D02*
X21Y1237D01*
X30Y1237D02*
X36Y1237D01*
X48Y1237D02*
X54Y1237D01*
X74Y1237D02*
X80Y1237D01*
X447Y1237D02*
X471Y1237D01*
X732Y1237D02*
X738Y1237D01*
X1011Y1237D02*
X1017Y1237D01*
X1415Y1237D02*
X1422Y1237D01*
X0Y1236D02*
X7Y1236D01*
X15Y1236D02*
X21Y1236D01*
X30Y1236D02*
X36Y1236D01*
X48Y1236D02*
X54Y1236D01*
X74Y1236D02*
X80Y1236D01*
X448Y1236D02*
X471Y1236D01*
X732Y1236D02*
X738Y1236D01*
X1011Y1236D02*
X1017Y1236D01*
X1415Y1236D02*
X1422Y1236D01*
X0Y1235D02*
X7Y1235D01*
X15Y1235D02*
X21Y1235D01*
X30Y1235D02*
X36Y1235D01*
X48Y1235D02*
X54Y1235D01*
X74Y1235D02*
X80Y1235D01*
X449Y1235D02*
X471Y1235D01*
X733Y1235D02*
X737Y1235D01*
X1011Y1235D02*
X1033Y1235D01*
X1415Y1235D02*
X1422Y1235D01*
X0Y1234D02*
X7Y1234D01*
X15Y1234D02*
X21Y1234D01*
X30Y1234D02*
X36Y1234D01*
X48Y1234D02*
X54Y1234D01*
X74Y1234D02*
X80Y1234D01*
X1011Y1234D02*
X1034Y1234D01*
X1415Y1234D02*
X1422Y1234D01*
X0Y1233D02*
X7Y1233D01*
X15Y1233D02*
X21Y1233D01*
X30Y1233D02*
X36Y1233D01*
X48Y1233D02*
X54Y1233D01*
X74Y1233D02*
X80Y1233D01*
X1011Y1233D02*
X1034Y1233D01*
X1415Y1233D02*
X1422Y1233D01*
X0Y1232D02*
X7Y1232D01*
X15Y1232D02*
X21Y1232D01*
X30Y1232D02*
X36Y1232D01*
X48Y1232D02*
X54Y1232D01*
X74Y1232D02*
X80Y1232D01*
X1011Y1232D02*
X1034Y1232D01*
X1415Y1232D02*
X1422Y1232D01*
X0Y1231D02*
X7Y1231D01*
X15Y1231D02*
X21Y1231D01*
X30Y1231D02*
X36Y1231D01*
X48Y1231D02*
X54Y1231D01*
X74Y1231D02*
X79Y1231D01*
X1011Y1231D02*
X1034Y1231D01*
X1415Y1231D02*
X1422Y1231D01*
X0Y1230D02*
X7Y1230D01*
X15Y1230D02*
X21Y1230D01*
X30Y1230D02*
X36Y1230D01*
X48Y1230D02*
X54Y1230D01*
X75Y1230D02*
X79Y1230D01*
X1011Y1230D02*
X1033Y1230D01*
X1415Y1230D02*
X1422Y1230D01*
X0Y1229D02*
X7Y1229D01*
X15Y1229D02*
X21Y1229D01*
X30Y1229D02*
X36Y1229D01*
X48Y1229D02*
X54Y1229D01*
X1013Y1229D02*
X1032Y1229D01*
X1415Y1229D02*
X1422Y1229D01*
X0Y1228D02*
X7Y1228D01*
X15Y1228D02*
X21Y1228D01*
X30Y1228D02*
X36Y1228D01*
X47Y1228D02*
X54Y1228D01*
X1415Y1228D02*
X1422Y1228D01*
X0Y1227D02*
X7Y1227D01*
X15Y1227D02*
X21Y1227D01*
X30Y1227D02*
X36Y1227D01*
X47Y1227D02*
X53Y1227D01*
X1415Y1227D02*
X1422Y1227D01*
X0Y1226D02*
X7Y1226D01*
X15Y1226D02*
X21Y1226D01*
X30Y1226D02*
X36Y1226D01*
X47Y1226D02*
X53Y1226D01*
X1415Y1226D02*
X1422Y1226D01*
X0Y1225D02*
X7Y1225D01*
X15Y1225D02*
X21Y1225D01*
X30Y1225D02*
X36Y1225D01*
X46Y1225D02*
X53Y1225D01*
X1415Y1225D02*
X1422Y1225D01*
X0Y1224D02*
X7Y1224D01*
X15Y1224D02*
X21Y1224D01*
X30Y1224D02*
X36Y1224D01*
X45Y1224D02*
X52Y1224D01*
X1415Y1224D02*
X1422Y1224D01*
X0Y1223D02*
X7Y1223D01*
X15Y1223D02*
X21Y1223D01*
X30Y1223D02*
X36Y1223D01*
X43Y1223D02*
X52Y1223D01*
X1415Y1223D02*
X1422Y1223D01*
X0Y1222D02*
X7Y1222D01*
X15Y1222D02*
X21Y1222D01*
X30Y1222D02*
X51Y1222D01*
X1415Y1222D02*
X1422Y1222D01*
X0Y1221D02*
X7Y1221D01*
X15Y1221D02*
X21Y1221D01*
X30Y1221D02*
X50Y1221D01*
X1415Y1221D02*
X1422Y1221D01*
X0Y1220D02*
X7Y1220D01*
X15Y1220D02*
X21Y1220D01*
X30Y1220D02*
X49Y1220D01*
X1415Y1220D02*
X1422Y1220D01*
X0Y1219D02*
X7Y1219D01*
X15Y1219D02*
X21Y1219D01*
X30Y1219D02*
X48Y1219D01*
X1415Y1219D02*
X1422Y1219D01*
X0Y1218D02*
X7Y1218D01*
X15Y1218D02*
X21Y1218D01*
X30Y1218D02*
X47Y1218D01*
X1415Y1218D02*
X1422Y1218D01*
X0Y1217D02*
X7Y1217D01*
X16Y1217D02*
X20Y1217D01*
X31Y1217D02*
X46Y1217D01*
X1415Y1217D02*
X1422Y1217D01*
X0Y1216D02*
X7Y1216D01*
X17Y1216D02*
X19Y1216D01*
X32Y1216D02*
X43Y1216D01*
X1415Y1216D02*
X1422Y1216D01*
X0Y1215D02*
X7Y1215D01*
X1415Y1215D02*
X1422Y1215D01*
X0Y1214D02*
X7Y1214D01*
X1415Y1214D02*
X1422Y1214D01*
X0Y1213D02*
X7Y1213D01*
X1415Y1213D02*
X1422Y1213D01*
X0Y1212D02*
X7Y1212D01*
X1415Y1212D02*
X1422Y1212D01*
X0Y1211D02*
X7Y1211D01*
X1415Y1211D02*
X1422Y1211D01*
X0Y1210D02*
X7Y1210D01*
X76Y1210D02*
X111Y1210D01*
X1415Y1210D02*
X1422Y1210D01*
X0Y1209D02*
X7Y1209D01*
X75Y1209D02*
X112Y1209D01*
X1415Y1209D02*
X1422Y1209D01*
X0Y1208D02*
X7Y1208D01*
X74Y1208D02*
X112Y1208D01*
X1415Y1208D02*
X1422Y1208D01*
X0Y1207D02*
X7Y1207D01*
X74Y1207D02*
X112Y1207D01*
X1415Y1207D02*
X1422Y1207D01*
X0Y1206D02*
X7Y1206D01*
X74Y1206D02*
X112Y1206D01*
X1415Y1206D02*
X1422Y1206D01*
X0Y1205D02*
X7Y1205D01*
X75Y1205D02*
X112Y1205D01*
X1415Y1205D02*
X1422Y1205D01*
X0Y1204D02*
X7Y1204D01*
X76Y1204D02*
X110Y1204D01*
X1415Y1204D02*
X1422Y1204D01*
X0Y1203D02*
X7Y1203D01*
X102Y1203D02*
X111Y1203D01*
X1415Y1203D02*
X1422Y1203D01*
X0Y1202D02*
X7Y1202D01*
X103Y1202D02*
X111Y1202D01*
X1415Y1202D02*
X1422Y1202D01*
X0Y1201D02*
X7Y1201D01*
X104Y1201D02*
X112Y1201D01*
X1415Y1201D02*
X1422Y1201D01*
X0Y1200D02*
X7Y1200D01*
X18Y1200D02*
X51Y1200D01*
X105Y1200D02*
X112Y1200D01*
X1415Y1200D02*
X1422Y1200D01*
X0Y1199D02*
X7Y1199D01*
X16Y1199D02*
X53Y1199D01*
X106Y1199D02*
X112Y1199D01*
X1415Y1199D02*
X1422Y1199D01*
X0Y1198D02*
X7Y1198D01*
X15Y1198D02*
X53Y1198D01*
X106Y1198D02*
X112Y1198D01*
X1415Y1198D02*
X1422Y1198D01*
X0Y1197D02*
X7Y1197D01*
X15Y1197D02*
X54Y1197D01*
X106Y1197D02*
X112Y1197D01*
X1415Y1197D02*
X1422Y1197D01*
X0Y1196D02*
X7Y1196D01*
X15Y1196D02*
X53Y1196D01*
X76Y1196D02*
X112Y1196D01*
X1415Y1196D02*
X1422Y1196D01*
X0Y1195D02*
X7Y1195D01*
X16Y1195D02*
X53Y1195D01*
X75Y1195D02*
X112Y1195D01*
X1415Y1195D02*
X1422Y1195D01*
X0Y1194D02*
X7Y1194D01*
X16Y1194D02*
X52Y1194D01*
X74Y1194D02*
X111Y1194D01*
X1415Y1194D02*
X1422Y1194D01*
X0Y1193D02*
X7Y1193D01*
X40Y1193D02*
X48Y1193D01*
X74Y1193D02*
X111Y1193D01*
X1415Y1193D02*
X1422Y1193D01*
X0Y1192D02*
X7Y1192D01*
X41Y1192D02*
X48Y1192D01*
X74Y1192D02*
X110Y1192D01*
X1415Y1192D02*
X1422Y1192D01*
X0Y1191D02*
X7Y1191D01*
X42Y1191D02*
X49Y1191D01*
X75Y1191D02*
X109Y1191D01*
X1415Y1191D02*
X1422Y1191D01*
X0Y1190D02*
X7Y1190D01*
X42Y1190D02*
X50Y1190D01*
X76Y1190D02*
X110Y1190D01*
X1415Y1190D02*
X1422Y1190D01*
X0Y1189D02*
X7Y1189D01*
X43Y1189D02*
X50Y1189D01*
X103Y1189D02*
X111Y1189D01*
X1415Y1189D02*
X1422Y1189D01*
X0Y1188D02*
X7Y1188D01*
X44Y1188D02*
X51Y1188D01*
X103Y1188D02*
X111Y1188D01*
X1415Y1188D02*
X1422Y1188D01*
X0Y1187D02*
X7Y1187D01*
X44Y1187D02*
X51Y1187D01*
X104Y1187D02*
X112Y1187D01*
X1415Y1187D02*
X1422Y1187D01*
X0Y1186D02*
X7Y1186D01*
X45Y1186D02*
X52Y1186D01*
X105Y1186D02*
X112Y1186D01*
X1415Y1186D02*
X1422Y1186D01*
X0Y1185D02*
X7Y1185D01*
X45Y1185D02*
X52Y1185D01*
X106Y1185D02*
X112Y1185D01*
X1415Y1185D02*
X1422Y1185D01*
X0Y1184D02*
X7Y1184D01*
X46Y1184D02*
X53Y1184D01*
X106Y1184D02*
X112Y1184D01*
X1415Y1184D02*
X1422Y1184D01*
X0Y1183D02*
X7Y1183D01*
X47Y1183D02*
X53Y1183D01*
X106Y1183D02*
X112Y1183D01*
X1415Y1183D02*
X1422Y1183D01*
X0Y1182D02*
X7Y1182D01*
X47Y1182D02*
X53Y1182D01*
X76Y1182D02*
X112Y1182D01*
X1415Y1182D02*
X1422Y1182D01*
X0Y1181D02*
X7Y1181D01*
X48Y1181D02*
X54Y1181D01*
X75Y1181D02*
X112Y1181D01*
X1415Y1181D02*
X1422Y1181D01*
X0Y1180D02*
X7Y1180D01*
X48Y1180D02*
X54Y1180D01*
X74Y1180D02*
X111Y1180D01*
X1415Y1180D02*
X1422Y1180D01*
X0Y1179D02*
X7Y1179D01*
X48Y1179D02*
X54Y1179D01*
X74Y1179D02*
X110Y1179D01*
X1415Y1179D02*
X1422Y1179D01*
X0Y1178D02*
X7Y1178D01*
X48Y1178D02*
X54Y1178D01*
X74Y1178D02*
X110Y1178D01*
X1415Y1178D02*
X1422Y1178D01*
X0Y1177D02*
X7Y1177D01*
X48Y1177D02*
X54Y1177D01*
X75Y1177D02*
X109Y1177D01*
X1415Y1177D02*
X1422Y1177D01*
X0Y1176D02*
X7Y1176D01*
X47Y1176D02*
X54Y1176D01*
X76Y1176D02*
X107Y1176D01*
X1415Y1176D02*
X1422Y1176D01*
X0Y1175D02*
X7Y1175D01*
X47Y1175D02*
X53Y1175D01*
X1415Y1175D02*
X1422Y1175D01*
X0Y1174D02*
X7Y1174D01*
X46Y1174D02*
X53Y1174D01*
X1415Y1174D02*
X1422Y1174D01*
X0Y1173D02*
X7Y1173D01*
X18Y1173D02*
X53Y1173D01*
X261Y1173D02*
X286Y1173D01*
X1415Y1173D02*
X1422Y1173D01*
X0Y1172D02*
X7Y1172D01*
X16Y1172D02*
X53Y1172D01*
X259Y1172D02*
X289Y1172D01*
X1415Y1172D02*
X1422Y1172D01*
X0Y1171D02*
X7Y1171D01*
X16Y1171D02*
X52Y1171D01*
X257Y1171D02*
X290Y1171D01*
X1415Y1171D02*
X1422Y1171D01*
X0Y1170D02*
X7Y1170D01*
X15Y1170D02*
X51Y1170D01*
X256Y1170D02*
X292Y1170D01*
X1415Y1170D02*
X1422Y1170D01*
X0Y1169D02*
X7Y1169D01*
X15Y1169D02*
X50Y1169D01*
X256Y1169D02*
X293Y1169D01*
X1415Y1169D02*
X1422Y1169D01*
X0Y1168D02*
X7Y1168D01*
X16Y1168D02*
X49Y1168D01*
X255Y1168D02*
X294Y1168D01*
X1415Y1168D02*
X1422Y1168D01*
X0Y1167D02*
X7Y1167D01*
X16Y1167D02*
X48Y1167D01*
X255Y1167D02*
X296Y1167D01*
X1415Y1167D02*
X1422Y1167D01*
X0Y1166D02*
X7Y1166D01*
X254Y1166D02*
X262Y1166D01*
X286Y1166D02*
X297Y1166D01*
X1415Y1166D02*
X1422Y1166D01*
X0Y1165D02*
X7Y1165D01*
X254Y1165D02*
X260Y1165D01*
X288Y1165D02*
X298Y1165D01*
X1415Y1165D02*
X1422Y1165D01*
X0Y1164D02*
X7Y1164D01*
X254Y1164D02*
X260Y1164D01*
X289Y1164D02*
X299Y1164D01*
X1415Y1164D02*
X1422Y1164D01*
X0Y1163D02*
X7Y1163D01*
X254Y1163D02*
X260Y1163D01*
X290Y1163D02*
X301Y1163D01*
X1415Y1163D02*
X1422Y1163D01*
X0Y1162D02*
X7Y1162D01*
X254Y1162D02*
X260Y1162D01*
X292Y1162D02*
X302Y1162D01*
X1415Y1162D02*
X1422Y1162D01*
X0Y1161D02*
X7Y1161D01*
X254Y1161D02*
X260Y1161D01*
X293Y1161D02*
X303Y1161D01*
X1415Y1161D02*
X1422Y1161D01*
X0Y1160D02*
X7Y1160D01*
X254Y1160D02*
X260Y1160D01*
X294Y1160D02*
X304Y1160D01*
X1415Y1160D02*
X1422Y1160D01*
X0Y1159D02*
X7Y1159D01*
X80Y1159D02*
X92Y1159D01*
X254Y1159D02*
X260Y1159D01*
X295Y1159D02*
X305Y1159D01*
X1415Y1159D02*
X1422Y1159D01*
X0Y1158D02*
X7Y1158D01*
X78Y1158D02*
X93Y1158D01*
X254Y1158D02*
X260Y1158D01*
X297Y1158D02*
X306Y1158D01*
X1415Y1158D02*
X1422Y1158D01*
X0Y1157D02*
X7Y1157D01*
X77Y1157D02*
X94Y1157D01*
X254Y1157D02*
X260Y1157D01*
X298Y1157D02*
X306Y1157D01*
X1415Y1157D02*
X1422Y1157D01*
X0Y1156D02*
X7Y1156D01*
X76Y1156D02*
X95Y1156D01*
X254Y1156D02*
X260Y1156D01*
X274Y1156D02*
X276Y1156D01*
X299Y1156D02*
X307Y1156D01*
X1415Y1156D02*
X1422Y1156D01*
X0Y1155D02*
X7Y1155D01*
X76Y1155D02*
X96Y1155D01*
X254Y1155D02*
X260Y1155D01*
X272Y1155D02*
X277Y1155D01*
X300Y1155D02*
X307Y1155D01*
X1415Y1155D02*
X1422Y1155D01*
X0Y1154D02*
X7Y1154D01*
X75Y1154D02*
X97Y1154D01*
X254Y1154D02*
X260Y1154D01*
X272Y1154D02*
X277Y1154D01*
X301Y1154D02*
X307Y1154D01*
X1415Y1154D02*
X1422Y1154D01*
X0Y1153D02*
X7Y1153D01*
X75Y1153D02*
X97Y1153D01*
X254Y1153D02*
X260Y1153D01*
X272Y1153D02*
X278Y1153D01*
X301Y1153D02*
X307Y1153D01*
X1415Y1153D02*
X1422Y1153D01*
X0Y1152D02*
X7Y1152D01*
X74Y1152D02*
X81Y1152D01*
X90Y1152D02*
X97Y1152D01*
X107Y1152D02*
X111Y1152D01*
X254Y1152D02*
X260Y1152D01*
X272Y1152D02*
X278Y1152D01*
X301Y1152D02*
X307Y1152D01*
X1415Y1152D02*
X1422Y1152D01*
X0Y1151D02*
X7Y1151D01*
X74Y1151D02*
X80Y1151D01*
X91Y1151D02*
X98Y1151D01*
X107Y1151D02*
X112Y1151D01*
X254Y1151D02*
X260Y1151D01*
X272Y1151D02*
X278Y1151D01*
X301Y1151D02*
X307Y1151D01*
X1415Y1151D02*
X1422Y1151D01*
X0Y1150D02*
X7Y1150D01*
X74Y1150D02*
X80Y1150D01*
X92Y1150D02*
X98Y1150D01*
X106Y1150D02*
X112Y1150D01*
X254Y1150D02*
X260Y1150D01*
X272Y1150D02*
X278Y1150D01*
X301Y1150D02*
X307Y1150D01*
X1415Y1150D02*
X1422Y1150D01*
X0Y1149D02*
X7Y1149D01*
X23Y1149D02*
X45Y1149D01*
X74Y1149D02*
X80Y1149D01*
X92Y1149D02*
X98Y1149D01*
X106Y1149D02*
X112Y1149D01*
X254Y1149D02*
X260Y1149D01*
X272Y1149D02*
X278Y1149D01*
X301Y1149D02*
X307Y1149D01*
X1415Y1149D02*
X1422Y1149D01*
X0Y1148D02*
X7Y1148D01*
X22Y1148D02*
X47Y1148D01*
X74Y1148D02*
X80Y1148D01*
X92Y1148D02*
X98Y1148D01*
X106Y1148D02*
X112Y1148D01*
X254Y1148D02*
X260Y1148D01*
X272Y1148D02*
X278Y1148D01*
X301Y1148D02*
X307Y1148D01*
X1415Y1148D02*
X1422Y1148D01*
X0Y1147D02*
X7Y1147D01*
X20Y1147D02*
X48Y1147D01*
X74Y1147D02*
X80Y1147D01*
X92Y1147D02*
X98Y1147D01*
X106Y1147D02*
X112Y1147D01*
X254Y1147D02*
X261Y1147D01*
X272Y1147D02*
X278Y1147D01*
X301Y1147D02*
X307Y1147D01*
X1415Y1147D02*
X1422Y1147D01*
X0Y1146D02*
X7Y1146D01*
X20Y1146D02*
X49Y1146D01*
X74Y1146D02*
X80Y1146D01*
X92Y1146D02*
X98Y1146D01*
X106Y1146D02*
X112Y1146D01*
X254Y1146D02*
X278Y1146D01*
X301Y1146D02*
X307Y1146D01*
X1415Y1146D02*
X1422Y1146D01*
X0Y1145D02*
X7Y1145D01*
X19Y1145D02*
X50Y1145D01*
X74Y1145D02*
X80Y1145D01*
X92Y1145D02*
X98Y1145D01*
X106Y1145D02*
X112Y1145D01*
X255Y1145D02*
X278Y1145D01*
X301Y1145D02*
X307Y1145D01*
X1415Y1145D02*
X1422Y1145D01*
X0Y1144D02*
X7Y1144D01*
X18Y1144D02*
X51Y1144D01*
X74Y1144D02*
X80Y1144D01*
X92Y1144D02*
X98Y1144D01*
X106Y1144D02*
X112Y1144D01*
X255Y1144D02*
X278Y1144D01*
X301Y1144D02*
X307Y1144D01*
X1415Y1144D02*
X1422Y1144D01*
X0Y1143D02*
X7Y1143D01*
X17Y1143D02*
X52Y1143D01*
X74Y1143D02*
X80Y1143D01*
X92Y1143D02*
X98Y1143D01*
X106Y1143D02*
X112Y1143D01*
X256Y1143D02*
X278Y1143D01*
X301Y1143D02*
X307Y1143D01*
X1415Y1143D02*
X1422Y1143D01*
X0Y1142D02*
X7Y1142D01*
X16Y1142D02*
X24Y1142D01*
X44Y1142D02*
X52Y1142D01*
X74Y1142D02*
X80Y1142D01*
X92Y1142D02*
X98Y1142D01*
X106Y1142D02*
X112Y1142D01*
X257Y1142D02*
X278Y1142D01*
X301Y1142D02*
X307Y1142D01*
X1415Y1142D02*
X1422Y1142D01*
X0Y1141D02*
X7Y1141D01*
X16Y1141D02*
X23Y1141D01*
X45Y1141D02*
X53Y1141D01*
X74Y1141D02*
X80Y1141D01*
X92Y1141D02*
X98Y1141D01*
X106Y1141D02*
X112Y1141D01*
X258Y1141D02*
X278Y1141D01*
X301Y1141D02*
X307Y1141D01*
X1415Y1141D02*
X1422Y1141D01*
X0Y1140D02*
X7Y1140D01*
X16Y1140D02*
X23Y1140D01*
X46Y1140D02*
X53Y1140D01*
X74Y1140D02*
X80Y1140D01*
X92Y1140D02*
X98Y1140D01*
X106Y1140D02*
X112Y1140D01*
X260Y1140D02*
X278Y1140D01*
X302Y1140D02*
X306Y1140D01*
X1415Y1140D02*
X1422Y1140D01*
X0Y1139D02*
X7Y1139D01*
X15Y1139D02*
X22Y1139D01*
X47Y1139D02*
X53Y1139D01*
X74Y1139D02*
X81Y1139D01*
X92Y1139D02*
X98Y1139D01*
X106Y1139D02*
X112Y1139D01*
X1415Y1139D02*
X1422Y1139D01*
X0Y1138D02*
X7Y1138D01*
X15Y1138D02*
X21Y1138D01*
X47Y1138D02*
X53Y1138D01*
X74Y1138D02*
X81Y1138D01*
X92Y1138D02*
X98Y1138D01*
X106Y1138D02*
X112Y1138D01*
X1415Y1138D02*
X1422Y1138D01*
X0Y1137D02*
X7Y1137D01*
X15Y1137D02*
X21Y1137D01*
X48Y1137D02*
X54Y1137D01*
X75Y1137D02*
X82Y1137D01*
X92Y1137D02*
X98Y1137D01*
X106Y1137D02*
X112Y1137D01*
X1415Y1137D02*
X1422Y1137D01*
X0Y1136D02*
X7Y1136D01*
X15Y1136D02*
X21Y1136D01*
X48Y1136D02*
X54Y1136D01*
X75Y1136D02*
X82Y1136D01*
X92Y1136D02*
X98Y1136D01*
X106Y1136D02*
X112Y1136D01*
X1415Y1136D02*
X1422Y1136D01*
X0Y1135D02*
X7Y1135D01*
X15Y1135D02*
X21Y1135D01*
X48Y1135D02*
X54Y1135D01*
X76Y1135D02*
X83Y1135D01*
X91Y1135D02*
X98Y1135D01*
X106Y1135D02*
X112Y1135D01*
X1415Y1135D02*
X1422Y1135D01*
X0Y1134D02*
X7Y1134D01*
X15Y1134D02*
X21Y1134D01*
X48Y1134D02*
X54Y1134D01*
X76Y1134D02*
X84Y1134D01*
X91Y1134D02*
X97Y1134D01*
X105Y1134D02*
X112Y1134D01*
X1415Y1134D02*
X1422Y1134D01*
X0Y1133D02*
X7Y1133D01*
X15Y1133D02*
X21Y1133D01*
X48Y1133D02*
X54Y1133D01*
X77Y1133D02*
X84Y1133D01*
X89Y1133D02*
X112Y1133D01*
X1415Y1133D02*
X1422Y1133D01*
X0Y1132D02*
X7Y1132D01*
X15Y1132D02*
X21Y1132D01*
X48Y1132D02*
X54Y1132D01*
X76Y1132D02*
X111Y1132D01*
X1415Y1132D02*
X1422Y1132D01*
X0Y1131D02*
X7Y1131D01*
X15Y1131D02*
X21Y1131D01*
X48Y1131D02*
X54Y1131D01*
X75Y1131D02*
X111Y1131D01*
X1415Y1131D02*
X1422Y1131D01*
X0Y1130D02*
X7Y1130D01*
X15Y1130D02*
X21Y1130D01*
X48Y1130D02*
X54Y1130D01*
X74Y1130D02*
X110Y1130D01*
X1415Y1130D02*
X1422Y1130D01*
X0Y1129D02*
X7Y1129D01*
X15Y1129D02*
X21Y1129D01*
X48Y1129D02*
X54Y1129D01*
X74Y1129D02*
X109Y1129D01*
X1415Y1129D02*
X1422Y1129D01*
X0Y1128D02*
X7Y1128D01*
X15Y1128D02*
X21Y1128D01*
X47Y1128D02*
X54Y1128D01*
X74Y1128D02*
X108Y1128D01*
X1415Y1128D02*
X1422Y1128D01*
X0Y1127D02*
X7Y1127D01*
X15Y1127D02*
X21Y1127D01*
X47Y1127D02*
X53Y1127D01*
X75Y1127D02*
X107Y1127D01*
X1415Y1127D02*
X1422Y1127D01*
X0Y1126D02*
X7Y1126D01*
X15Y1126D02*
X22Y1126D01*
X47Y1126D02*
X53Y1126D01*
X77Y1126D02*
X103Y1126D01*
X1415Y1126D02*
X1422Y1126D01*
X0Y1125D02*
X7Y1125D01*
X16Y1125D02*
X23Y1125D01*
X46Y1125D02*
X53Y1125D01*
X1415Y1125D02*
X1422Y1125D01*
X0Y1124D02*
X7Y1124D01*
X16Y1124D02*
X24Y1124D01*
X45Y1124D02*
X53Y1124D01*
X1415Y1124D02*
X1422Y1124D01*
X0Y1123D02*
X7Y1123D01*
X17Y1123D02*
X25Y1123D01*
X44Y1123D02*
X52Y1123D01*
X1415Y1123D02*
X1422Y1123D01*
X0Y1122D02*
X7Y1122D01*
X17Y1122D02*
X51Y1122D01*
X1415Y1122D02*
X1422Y1122D01*
X0Y1121D02*
X7Y1121D01*
X18Y1121D02*
X51Y1121D01*
X1415Y1121D02*
X1422Y1121D01*
X0Y1120D02*
X7Y1120D01*
X19Y1120D02*
X50Y1120D01*
X1415Y1120D02*
X1422Y1120D01*
X0Y1119D02*
X7Y1119D01*
X20Y1119D02*
X49Y1119D01*
X1415Y1119D02*
X1422Y1119D01*
X0Y1118D02*
X7Y1118D01*
X21Y1118D02*
X48Y1118D01*
X1415Y1118D02*
X1422Y1118D01*
X0Y1117D02*
X7Y1117D01*
X22Y1117D02*
X47Y1117D01*
X1415Y1117D02*
X1422Y1117D01*
X0Y1116D02*
X7Y1116D01*
X24Y1116D02*
X45Y1116D01*
X1415Y1116D02*
X1422Y1116D01*
X0Y1115D02*
X7Y1115D01*
X1415Y1115D02*
X1422Y1115D01*
X0Y1114D02*
X7Y1114D01*
X1415Y1114D02*
X1422Y1114D01*
X0Y1113D02*
X7Y1113D01*
X1415Y1113D02*
X1422Y1113D01*
X0Y1112D02*
X7Y1112D01*
X1415Y1112D02*
X1422Y1112D01*
X0Y1111D02*
X7Y1111D01*
X1415Y1111D02*
X1422Y1111D01*
X0Y1110D02*
X7Y1110D01*
X1415Y1110D02*
X1422Y1110D01*
X0Y1109D02*
X7Y1109D01*
X75Y1109D02*
X111Y1109D01*
X1415Y1109D02*
X1422Y1109D01*
X0Y1108D02*
X7Y1108D01*
X74Y1108D02*
X112Y1108D01*
X1415Y1108D02*
X1422Y1108D01*
X0Y1107D02*
X7Y1107D01*
X74Y1107D02*
X112Y1107D01*
X1415Y1107D02*
X1422Y1107D01*
X0Y1106D02*
X7Y1106D01*
X74Y1106D02*
X112Y1106D01*
X1415Y1106D02*
X1422Y1106D01*
X0Y1105D02*
X7Y1105D01*
X74Y1105D02*
X112Y1105D01*
X1415Y1105D02*
X1422Y1105D01*
X0Y1104D02*
X7Y1104D01*
X75Y1104D02*
X111Y1104D01*
X1415Y1104D02*
X1422Y1104D01*
X0Y1103D02*
X7Y1103D01*
X76Y1103D02*
X110Y1103D01*
X1415Y1103D02*
X1422Y1103D01*
X0Y1102D02*
X7Y1102D01*
X100Y1102D02*
X107Y1102D01*
X1415Y1102D02*
X1422Y1102D01*
X0Y1101D02*
X7Y1101D01*
X100Y1101D02*
X108Y1101D01*
X1415Y1101D02*
X1422Y1101D01*
X0Y1100D02*
X7Y1100D01*
X30Y1100D02*
X51Y1100D01*
X101Y1100D02*
X108Y1100D01*
X1415Y1100D02*
X1422Y1100D01*
X0Y1099D02*
X7Y1099D01*
X26Y1099D02*
X53Y1099D01*
X101Y1099D02*
X109Y1099D01*
X1415Y1099D02*
X1422Y1099D01*
X0Y1098D02*
X7Y1098D01*
X23Y1098D02*
X53Y1098D01*
X102Y1098D02*
X109Y1098D01*
X1415Y1098D02*
X1422Y1098D01*
X0Y1097D02*
X7Y1097D01*
X19Y1097D02*
X53Y1097D01*
X103Y1097D02*
X110Y1097D01*
X1415Y1097D02*
X1422Y1097D01*
X0Y1096D02*
X7Y1096D01*
X17Y1096D02*
X53Y1096D01*
X103Y1096D02*
X111Y1096D01*
X1415Y1096D02*
X1422Y1096D01*
X0Y1095D02*
X7Y1095D01*
X16Y1095D02*
X53Y1095D01*
X104Y1095D02*
X111Y1095D01*
X1415Y1095D02*
X1422Y1095D01*
X0Y1094D02*
X7Y1094D01*
X15Y1094D02*
X52Y1094D01*
X105Y1094D02*
X112Y1094D01*
X1415Y1094D02*
X1422Y1094D01*
X0Y1093D02*
X7Y1093D01*
X15Y1093D02*
X29Y1093D01*
X105Y1093D02*
X112Y1093D01*
X1415Y1093D02*
X1422Y1093D01*
X0Y1092D02*
X7Y1092D01*
X15Y1092D02*
X27Y1092D01*
X106Y1092D02*
X112Y1092D01*
X1415Y1092D02*
X1422Y1092D01*
X0Y1091D02*
X7Y1091D01*
X15Y1091D02*
X24Y1091D01*
X106Y1091D02*
X112Y1091D01*
X1415Y1091D02*
X1422Y1091D01*
X0Y1090D02*
X7Y1090D01*
X15Y1090D02*
X23Y1090D01*
X106Y1090D02*
X112Y1090D01*
X1415Y1090D02*
X1422Y1090D01*
X0Y1089D02*
X7Y1089D01*
X15Y1089D02*
X25Y1089D01*
X106Y1089D02*
X112Y1089D01*
X1415Y1089D02*
X1422Y1089D01*
X0Y1088D02*
X7Y1088D01*
X15Y1088D02*
X27Y1088D01*
X106Y1088D02*
X112Y1088D01*
X1415Y1088D02*
X1422Y1088D01*
X0Y1087D02*
X7Y1087D01*
X16Y1087D02*
X29Y1087D01*
X106Y1087D02*
X112Y1087D01*
X1415Y1087D02*
X1422Y1087D01*
X0Y1086D02*
X7Y1086D01*
X18Y1086D02*
X31Y1086D01*
X106Y1086D02*
X112Y1086D01*
X1415Y1086D02*
X1422Y1086D01*
X0Y1085D02*
X7Y1085D01*
X19Y1085D02*
X41Y1085D01*
X106Y1085D02*
X112Y1085D01*
X1415Y1085D02*
X1422Y1085D01*
X0Y1084D02*
X7Y1084D01*
X21Y1084D02*
X41Y1084D01*
X105Y1084D02*
X112Y1084D01*
X1415Y1084D02*
X1422Y1084D01*
X0Y1083D02*
X7Y1083D01*
X23Y1083D02*
X42Y1083D01*
X104Y1083D02*
X112Y1083D01*
X1415Y1083D02*
X1422Y1083D01*
X0Y1082D02*
X7Y1082D01*
X23Y1082D02*
X42Y1082D01*
X75Y1082D02*
X112Y1082D01*
X1415Y1082D02*
X1422Y1082D01*
X0Y1081D02*
X7Y1081D01*
X21Y1081D02*
X41Y1081D01*
X75Y1081D02*
X111Y1081D01*
X1415Y1081D02*
X1422Y1081D01*
X0Y1080D02*
X7Y1080D01*
X19Y1080D02*
X41Y1080D01*
X74Y1080D02*
X110Y1080D01*
X1415Y1080D02*
X1422Y1080D01*
X0Y1079D02*
X7Y1079D01*
X18Y1079D02*
X38Y1079D01*
X74Y1079D02*
X110Y1079D01*
X1415Y1079D02*
X1422Y1079D01*
X0Y1078D02*
X7Y1078D01*
X16Y1078D02*
X29Y1078D01*
X74Y1078D02*
X109Y1078D01*
X1415Y1078D02*
X1422Y1078D01*
X0Y1077D02*
X7Y1077D01*
X15Y1077D02*
X27Y1077D01*
X75Y1077D02*
X107Y1077D01*
X1415Y1077D02*
X1422Y1077D01*
X0Y1076D02*
X7Y1076D01*
X15Y1076D02*
X25Y1076D01*
X76Y1076D02*
X105Y1076D01*
X1415Y1076D02*
X1422Y1076D01*
X0Y1075D02*
X7Y1075D01*
X15Y1075D02*
X23Y1075D01*
X1415Y1075D02*
X1422Y1075D01*
X0Y1074D02*
X7Y1074D01*
X15Y1074D02*
X24Y1074D01*
X1415Y1074D02*
X1422Y1074D01*
X0Y1073D02*
X7Y1073D01*
X15Y1073D02*
X27Y1073D01*
X278Y1073D02*
X282Y1073D01*
X1415Y1073D02*
X1422Y1073D01*
X0Y1072D02*
X7Y1072D01*
X15Y1072D02*
X29Y1072D01*
X275Y1072D02*
X286Y1072D01*
X1415Y1072D02*
X1422Y1072D01*
X0Y1071D02*
X7Y1071D01*
X15Y1071D02*
X52Y1071D01*
X273Y1071D02*
X288Y1071D01*
X1415Y1071D02*
X1422Y1071D01*
X0Y1070D02*
X7Y1070D01*
X16Y1070D02*
X53Y1070D01*
X271Y1070D02*
X290Y1070D01*
X1415Y1070D02*
X1422Y1070D01*
X0Y1069D02*
X7Y1069D01*
X17Y1069D02*
X53Y1069D01*
X269Y1069D02*
X292Y1069D01*
X1415Y1069D02*
X1422Y1069D01*
X0Y1068D02*
X7Y1068D01*
X19Y1068D02*
X53Y1068D01*
X267Y1068D02*
X294Y1068D01*
X1415Y1068D02*
X1422Y1068D01*
X0Y1067D02*
X7Y1067D01*
X23Y1067D02*
X53Y1067D01*
X265Y1067D02*
X296Y1067D01*
X1415Y1067D02*
X1422Y1067D01*
X0Y1066D02*
X7Y1066D01*
X26Y1066D02*
X52Y1066D01*
X263Y1066D02*
X298Y1066D01*
X1415Y1066D02*
X1422Y1066D01*
X0Y1065D02*
X7Y1065D01*
X29Y1065D02*
X51Y1065D01*
X261Y1065D02*
X275Y1065D01*
X286Y1065D02*
X300Y1065D01*
X1415Y1065D02*
X1422Y1065D01*
X0Y1064D02*
X7Y1064D01*
X259Y1064D02*
X273Y1064D01*
X288Y1064D02*
X302Y1064D01*
X1415Y1064D02*
X1422Y1064D01*
X0Y1063D02*
X7Y1063D01*
X257Y1063D02*
X271Y1063D01*
X289Y1063D02*
X304Y1063D01*
X1415Y1063D02*
X1422Y1063D01*
X0Y1062D02*
X7Y1062D01*
X256Y1062D02*
X269Y1062D01*
X291Y1062D02*
X305Y1062D01*
X1415Y1062D02*
X1422Y1062D01*
X0Y1061D02*
X7Y1061D01*
X255Y1061D02*
X267Y1061D01*
X293Y1061D02*
X305Y1061D01*
X1415Y1061D02*
X1422Y1061D01*
X0Y1060D02*
X7Y1060D01*
X255Y1060D02*
X265Y1060D01*
X295Y1060D02*
X306Y1060D01*
X1415Y1060D02*
X1422Y1060D01*
X0Y1059D02*
X7Y1059D01*
X254Y1059D02*
X263Y1059D01*
X297Y1059D02*
X306Y1059D01*
X1415Y1059D02*
X1422Y1059D01*
X0Y1058D02*
X7Y1058D01*
X254Y1058D02*
X261Y1058D01*
X299Y1058D02*
X307Y1058D01*
X1415Y1058D02*
X1422Y1058D01*
X0Y1057D02*
X7Y1057D01*
X254Y1057D02*
X260Y1057D01*
X301Y1057D02*
X307Y1057D01*
X1415Y1057D02*
X1422Y1057D01*
X0Y1056D02*
X7Y1056D01*
X254Y1056D02*
X260Y1056D01*
X301Y1056D02*
X307Y1056D01*
X1415Y1056D02*
X1422Y1056D01*
X0Y1055D02*
X7Y1055D01*
X254Y1055D02*
X260Y1055D01*
X301Y1055D02*
X307Y1055D01*
X1415Y1055D02*
X1422Y1055D01*
X0Y1054D02*
X7Y1054D01*
X254Y1054D02*
X261Y1054D01*
X299Y1054D02*
X307Y1054D01*
X1415Y1054D02*
X1422Y1054D01*
X0Y1053D02*
X7Y1053D01*
X254Y1053D02*
X263Y1053D01*
X297Y1053D02*
X306Y1053D01*
X1415Y1053D02*
X1422Y1053D01*
X0Y1052D02*
X7Y1052D01*
X255Y1052D02*
X265Y1052D01*
X296Y1052D02*
X306Y1052D01*
X1415Y1052D02*
X1422Y1052D01*
X0Y1051D02*
X7Y1051D01*
X255Y1051D02*
X267Y1051D01*
X294Y1051D02*
X305Y1051D01*
X1415Y1051D02*
X1422Y1051D01*
X0Y1050D02*
X7Y1050D01*
X256Y1050D02*
X269Y1050D01*
X292Y1050D02*
X305Y1050D01*
X1415Y1050D02*
X1422Y1050D01*
X0Y1049D02*
X7Y1049D01*
X257Y1049D02*
X271Y1049D01*
X290Y1049D02*
X304Y1049D01*
X1415Y1049D02*
X1422Y1049D01*
X0Y1048D02*
X7Y1048D01*
X259Y1048D02*
X273Y1048D01*
X288Y1048D02*
X302Y1048D01*
X1415Y1048D02*
X1422Y1048D01*
X0Y1047D02*
X7Y1047D01*
X260Y1047D02*
X275Y1047D01*
X286Y1047D02*
X300Y1047D01*
X1415Y1047D02*
X1422Y1047D01*
X0Y1046D02*
X7Y1046D01*
X262Y1046D02*
X278Y1046D01*
X283Y1046D02*
X298Y1046D01*
X1415Y1046D02*
X1422Y1046D01*
X0Y1045D02*
X7Y1045D01*
X264Y1045D02*
X296Y1045D01*
X1415Y1045D02*
X1422Y1045D01*
X0Y1044D02*
X7Y1044D01*
X266Y1044D02*
X294Y1044D01*
X1415Y1044D02*
X1422Y1044D01*
X0Y1043D02*
X7Y1043D01*
X269Y1043D02*
X292Y1043D01*
X1415Y1043D02*
X1422Y1043D01*
X0Y1042D02*
X7Y1042D01*
X271Y1042D02*
X290Y1042D01*
X1415Y1042D02*
X1422Y1042D01*
X0Y1041D02*
X7Y1041D01*
X273Y1041D02*
X288Y1041D01*
X1415Y1041D02*
X1422Y1041D01*
X0Y1040D02*
X7Y1040D01*
X275Y1040D02*
X286Y1040D01*
X1415Y1040D02*
X1422Y1040D01*
X0Y1039D02*
X7Y1039D01*
X278Y1039D02*
X283Y1039D01*
X1415Y1039D02*
X1422Y1039D01*
X0Y1038D02*
X7Y1038D01*
X1415Y1038D02*
X1422Y1038D01*
X0Y1037D02*
X7Y1037D01*
X1415Y1037D02*
X1422Y1037D01*
X0Y1036D02*
X7Y1036D01*
X1415Y1036D02*
X1422Y1036D01*
X0Y1035D02*
X7Y1035D01*
X1415Y1035D02*
X1422Y1035D01*
X0Y1034D02*
X7Y1034D01*
X1415Y1034D02*
X1422Y1034D01*
X0Y1033D02*
X7Y1033D01*
X1415Y1033D02*
X1422Y1033D01*
X0Y1032D02*
X7Y1032D01*
X1415Y1032D02*
X1422Y1032D01*
X0Y1031D02*
X7Y1031D01*
X1415Y1031D02*
X1422Y1031D01*
X0Y1030D02*
X7Y1030D01*
X1415Y1030D02*
X1422Y1030D01*
X0Y1029D02*
X7Y1029D01*
X1415Y1029D02*
X1422Y1029D01*
X0Y1028D02*
X7Y1028D01*
X1415Y1028D02*
X1422Y1028D01*
X0Y1027D02*
X7Y1027D01*
X1415Y1027D02*
X1422Y1027D01*
X0Y1026D02*
X7Y1026D01*
X1415Y1026D02*
X1422Y1026D01*
X0Y1025D02*
X7Y1025D01*
X1415Y1025D02*
X1422Y1025D01*
X0Y1024D02*
X7Y1024D01*
X1415Y1024D02*
X1422Y1024D01*
X0Y1023D02*
X7Y1023D01*
X1415Y1023D02*
X1422Y1023D01*
X0Y1022D02*
X7Y1022D01*
X1415Y1022D02*
X1422Y1022D01*
X0Y1021D02*
X7Y1021D01*
X1415Y1021D02*
X1422Y1021D01*
X0Y1020D02*
X7Y1020D01*
X1415Y1020D02*
X1422Y1020D01*
X0Y1019D02*
X7Y1019D01*
X1415Y1019D02*
X1422Y1019D01*
X0Y1018D02*
X7Y1018D01*
X1415Y1018D02*
X1422Y1018D01*
X0Y1017D02*
X7Y1017D01*
X1415Y1017D02*
X1422Y1017D01*
X0Y1016D02*
X7Y1016D01*
X1415Y1016D02*
X1422Y1016D01*
X0Y1015D02*
X7Y1015D01*
X1415Y1015D02*
X1422Y1015D01*
X0Y1014D02*
X7Y1014D01*
X1415Y1014D02*
X1422Y1014D01*
X0Y1013D02*
X7Y1013D01*
X1415Y1013D02*
X1422Y1013D01*
X0Y1012D02*
X7Y1012D01*
X1415Y1012D02*
X1422Y1012D01*
X0Y1011D02*
X7Y1011D01*
X1415Y1011D02*
X1422Y1011D01*
X0Y1010D02*
X7Y1010D01*
X1415Y1010D02*
X1422Y1010D01*
X0Y1009D02*
X7Y1009D01*
X82Y1009D02*
X90Y1009D01*
X105Y1009D02*
X113Y1009D01*
X1415Y1009D02*
X1422Y1009D01*
X0Y1008D02*
X7Y1008D01*
X79Y1008D02*
X91Y1008D01*
X104Y1008D02*
X116Y1008D01*
X1415Y1008D02*
X1422Y1008D01*
X0Y1007D02*
X7Y1007D01*
X78Y1007D02*
X92Y1007D01*
X103Y1007D02*
X117Y1007D01*
X1415Y1007D02*
X1422Y1007D01*
X0Y1006D02*
X7Y1006D01*
X77Y1006D02*
X93Y1006D01*
X102Y1006D02*
X118Y1006D01*
X1415Y1006D02*
X1422Y1006D01*
X0Y1005D02*
X7Y1005D01*
X76Y1005D02*
X94Y1005D01*
X101Y1005D02*
X119Y1005D01*
X1415Y1005D02*
X1422Y1005D01*
X0Y1004D02*
X7Y1004D01*
X75Y1004D02*
X94Y1004D01*
X100Y1004D02*
X120Y1004D01*
X1415Y1004D02*
X1422Y1004D01*
X0Y1003D02*
X7Y1003D01*
X75Y1003D02*
X95Y1003D01*
X99Y1003D02*
X120Y1003D01*
X1415Y1003D02*
X1422Y1003D01*
X0Y1002D02*
X7Y1002D01*
X74Y1002D02*
X82Y1002D01*
X88Y1002D02*
X107Y1002D01*
X113Y1002D02*
X121Y1002D01*
X1415Y1002D02*
X1422Y1002D01*
X0Y1001D02*
X7Y1001D01*
X74Y1001D02*
X81Y1001D01*
X89Y1001D02*
X106Y1001D01*
X114Y1001D02*
X121Y1001D01*
X1415Y1001D02*
X1422Y1001D01*
X0Y1000D02*
X7Y1000D01*
X74Y1000D02*
X80Y1000D01*
X90Y1000D02*
X105Y1000D01*
X115Y1000D02*
X121Y1000D01*
X1415Y1000D02*
X1422Y1000D01*
X0Y999D02*
X7Y999D01*
X74Y999D02*
X80Y999D01*
X90Y999D02*
X104Y999D01*
X115Y999D02*
X121Y999D01*
X1415Y999D02*
X1422Y999D01*
X0Y998D02*
X7Y998D01*
X74Y998D02*
X80Y998D01*
X91Y998D02*
X103Y998D01*
X115Y998D02*
X121Y998D01*
X1415Y998D02*
X1422Y998D01*
X0Y997D02*
X7Y997D01*
X74Y997D02*
X80Y997D01*
X92Y997D02*
X102Y997D01*
X115Y997D02*
X121Y997D01*
X1415Y997D02*
X1422Y997D01*
X0Y996D02*
X7Y996D01*
X74Y996D02*
X80Y996D01*
X91Y996D02*
X101Y996D01*
X115Y996D02*
X121Y996D01*
X1415Y996D02*
X1422Y996D01*
X0Y995D02*
X7Y995D01*
X74Y995D02*
X80Y995D01*
X90Y995D02*
X102Y995D01*
X115Y995D02*
X121Y995D01*
X1415Y995D02*
X1422Y995D01*
X0Y994D02*
X7Y994D01*
X74Y994D02*
X80Y994D01*
X89Y994D02*
X103Y994D01*
X115Y994D02*
X121Y994D01*
X1415Y994D02*
X1422Y994D01*
X0Y993D02*
X7Y993D01*
X74Y993D02*
X80Y993D01*
X88Y993D02*
X104Y993D01*
X115Y993D02*
X121Y993D01*
X1415Y993D02*
X1422Y993D01*
X0Y992D02*
X7Y992D01*
X74Y992D02*
X81Y992D01*
X87Y992D02*
X105Y992D01*
X115Y992D02*
X121Y992D01*
X1415Y992D02*
X1422Y992D01*
X0Y991D02*
X7Y991D01*
X74Y991D02*
X82Y991D01*
X86Y991D02*
X95Y991D01*
X97Y991D02*
X106Y991D01*
X115Y991D02*
X121Y991D01*
X1415Y991D02*
X1422Y991D01*
X0Y990D02*
X7Y990D01*
X75Y990D02*
X83Y990D01*
X85Y990D02*
X94Y990D01*
X98Y990D02*
X106Y990D01*
X114Y990D02*
X121Y990D01*
X1415Y990D02*
X1422Y990D01*
X0Y989D02*
X7Y989D01*
X75Y989D02*
X93Y989D01*
X99Y989D02*
X107Y989D01*
X113Y989D02*
X121Y989D01*
X1415Y989D02*
X1422Y989D01*
X0Y988D02*
X7Y988D01*
X76Y988D02*
X92Y988D01*
X100Y988D02*
X120Y988D01*
X1415Y988D02*
X1422Y988D01*
X0Y987D02*
X7Y987D01*
X77Y987D02*
X91Y987D01*
X101Y987D02*
X120Y987D01*
X1415Y987D02*
X1422Y987D01*
X0Y986D02*
X7Y986D01*
X78Y986D02*
X90Y986D01*
X102Y986D02*
X119Y986D01*
X1415Y986D02*
X1422Y986D01*
X0Y985D02*
X7Y985D01*
X79Y985D02*
X89Y985D01*
X102Y985D02*
X118Y985D01*
X1415Y985D02*
X1422Y985D01*
X0Y984D02*
X7Y984D01*
X78Y984D02*
X88Y984D01*
X103Y984D02*
X117Y984D01*
X1415Y984D02*
X1422Y984D01*
X0Y983D02*
X7Y983D01*
X77Y983D02*
X89Y983D01*
X104Y983D02*
X116Y983D01*
X1415Y983D02*
X1422Y983D01*
X0Y982D02*
X7Y982D01*
X76Y982D02*
X90Y982D01*
X106Y982D02*
X113Y982D01*
X1415Y982D02*
X1422Y982D01*
X0Y981D02*
X7Y981D01*
X75Y981D02*
X91Y981D01*
X1415Y981D02*
X1422Y981D01*
X0Y980D02*
X7Y980D01*
X74Y980D02*
X91Y980D01*
X1415Y980D02*
X1422Y980D01*
X0Y979D02*
X7Y979D01*
X74Y979D02*
X82Y979D01*
X84Y979D02*
X92Y979D01*
X1415Y979D02*
X1422Y979D01*
X0Y978D02*
X7Y978D01*
X74Y978D02*
X81Y978D01*
X85Y978D02*
X92Y978D01*
X1415Y978D02*
X1422Y978D01*
X0Y977D02*
X7Y977D01*
X74Y977D02*
X80Y977D01*
X86Y977D02*
X91Y977D01*
X1415Y977D02*
X1422Y977D01*
X0Y976D02*
X7Y976D01*
X75Y976D02*
X79Y976D01*
X87Y976D02*
X91Y976D01*
X1415Y976D02*
X1422Y976D01*
X0Y975D02*
X7Y975D01*
X76Y975D02*
X77Y975D01*
X88Y975D02*
X89Y975D01*
X1415Y975D02*
X1422Y975D01*
X0Y974D02*
X7Y974D01*
X1415Y974D02*
X1422Y974D01*
X0Y973D02*
X7Y973D01*
X1415Y973D02*
X1422Y973D01*
X0Y972D02*
X7Y972D01*
X290Y972D02*
X306Y972D01*
X1415Y972D02*
X1422Y972D01*
X0Y971D02*
X7Y971D01*
X287Y971D02*
X307Y971D01*
X1415Y971D02*
X1422Y971D01*
X0Y970D02*
X7Y970D01*
X285Y970D02*
X307Y970D01*
X1415Y970D02*
X1422Y970D01*
X0Y969D02*
X7Y969D01*
X282Y969D02*
X307Y969D01*
X1415Y969D02*
X1422Y969D01*
X0Y968D02*
X7Y968D01*
X279Y968D02*
X307Y968D01*
X1415Y968D02*
X1422Y968D01*
X0Y967D02*
X7Y967D01*
X277Y967D02*
X306Y967D01*
X1415Y967D02*
X1422Y967D01*
X0Y966D02*
X7Y966D01*
X274Y966D02*
X304Y966D01*
X1415Y966D02*
X1422Y966D01*
X0Y965D02*
X7Y965D01*
X272Y965D02*
X290Y965D01*
X1415Y965D02*
X1422Y965D01*
X0Y964D02*
X7Y964D01*
X269Y964D02*
X288Y964D01*
X1415Y964D02*
X1422Y964D01*
X0Y963D02*
X7Y963D01*
X267Y963D02*
X285Y963D01*
X1415Y963D02*
X1422Y963D01*
X0Y962D02*
X7Y962D01*
X264Y962D02*
X283Y962D01*
X1415Y962D02*
X1422Y962D01*
X0Y961D02*
X7Y961D01*
X261Y961D02*
X280Y961D01*
X1415Y961D02*
X1422Y961D01*
X0Y960D02*
X7Y960D01*
X259Y960D02*
X277Y960D01*
X1415Y960D02*
X1422Y960D01*
X0Y959D02*
X7Y959D01*
X256Y959D02*
X275Y959D01*
X1415Y959D02*
X1422Y959D01*
X0Y958D02*
X7Y958D01*
X255Y958D02*
X272Y958D01*
X1415Y958D02*
X1422Y958D01*
X0Y957D02*
X7Y957D01*
X254Y957D02*
X270Y957D01*
X1415Y957D02*
X1422Y957D01*
X0Y956D02*
X7Y956D01*
X254Y956D02*
X267Y956D01*
X1415Y956D02*
X1422Y956D01*
X0Y955D02*
X7Y955D01*
X254Y955D02*
X268Y955D01*
X1415Y955D02*
X1422Y955D01*
X0Y954D02*
X7Y954D01*
X254Y954D02*
X270Y954D01*
X1415Y954D02*
X1422Y954D01*
X0Y953D02*
X7Y953D01*
X255Y953D02*
X273Y953D01*
X1415Y953D02*
X1422Y953D01*
X0Y952D02*
X7Y952D01*
X257Y952D02*
X275Y952D01*
X1415Y952D02*
X1422Y952D01*
X0Y951D02*
X7Y951D01*
X259Y951D02*
X278Y951D01*
X1415Y951D02*
X1422Y951D01*
X0Y950D02*
X7Y950D01*
X262Y950D02*
X280Y950D01*
X1415Y950D02*
X1422Y950D01*
X0Y949D02*
X7Y949D01*
X265Y949D02*
X283Y949D01*
X1415Y949D02*
X1422Y949D01*
X0Y948D02*
X7Y948D01*
X267Y948D02*
X285Y948D01*
X1415Y948D02*
X1422Y948D01*
X0Y947D02*
X7Y947D01*
X270Y947D02*
X288Y947D01*
X1415Y947D02*
X1422Y947D01*
X0Y946D02*
X7Y946D01*
X272Y946D02*
X291Y946D01*
X1415Y946D02*
X1422Y946D01*
X0Y945D02*
X7Y945D01*
X275Y945D02*
X303Y945D01*
X1415Y945D02*
X1422Y945D01*
X0Y944D02*
X7Y944D01*
X277Y944D02*
X303Y944D01*
X1415Y944D02*
X1422Y944D01*
X0Y943D02*
X7Y943D01*
X280Y943D02*
X303Y943D01*
X1415Y943D02*
X1422Y943D01*
X0Y942D02*
X7Y942D01*
X282Y942D02*
X304Y942D01*
X1415Y942D02*
X1422Y942D01*
X0Y941D02*
X7Y941D01*
X285Y941D02*
X304Y941D01*
X1415Y941D02*
X1422Y941D01*
X0Y940D02*
X7Y940D01*
X288Y940D02*
X304Y940D01*
X1415Y940D02*
X1422Y940D01*
X0Y939D02*
X7Y939D01*
X290Y939D02*
X304Y939D01*
X1415Y939D02*
X1422Y939D01*
X0Y938D02*
X7Y938D01*
X1415Y938D02*
X1422Y938D01*
X0Y937D02*
X7Y937D01*
X1415Y937D02*
X1422Y937D01*
X0Y936D02*
X7Y936D01*
X1415Y936D02*
X1422Y936D01*
X0Y935D02*
X7Y935D01*
X1415Y935D02*
X1422Y935D01*
X0Y934D02*
X7Y934D01*
X1415Y934D02*
X1422Y934D01*
X0Y933D02*
X7Y933D01*
X1415Y933D02*
X1422Y933D01*
X0Y932D02*
X7Y932D01*
X1415Y932D02*
X1422Y932D01*
X0Y931D02*
X7Y931D01*
X1415Y931D02*
X1422Y931D01*
X0Y930D02*
X7Y930D01*
X1415Y930D02*
X1422Y930D01*
X0Y929D02*
X7Y929D01*
X1415Y929D02*
X1422Y929D01*
X0Y928D02*
X7Y928D01*
X1415Y928D02*
X1422Y928D01*
X0Y927D02*
X7Y927D01*
X1415Y927D02*
X1422Y927D01*
X0Y926D02*
X7Y926D01*
X1415Y926D02*
X1422Y926D01*
X0Y925D02*
X7Y925D01*
X1415Y925D02*
X1422Y925D01*
X0Y924D02*
X7Y924D01*
X1415Y924D02*
X1422Y924D01*
X0Y923D02*
X7Y923D01*
X1415Y923D02*
X1422Y923D01*
X0Y922D02*
X7Y922D01*
X281Y922D02*
X282Y922D01*
X1415Y922D02*
X1422Y922D01*
X0Y921D02*
X7Y921D01*
X278Y921D02*
X283Y921D01*
X1415Y921D02*
X1422Y921D01*
X0Y920D02*
X7Y920D01*
X278Y920D02*
X283Y920D01*
X1415Y920D02*
X1422Y920D01*
X0Y919D02*
X7Y919D01*
X277Y919D02*
X283Y919D01*
X1415Y919D02*
X1422Y919D01*
X0Y918D02*
X7Y918D01*
X277Y918D02*
X283Y918D01*
X1415Y918D02*
X1422Y918D01*
X0Y917D02*
X7Y917D01*
X277Y917D02*
X283Y917D01*
X1415Y917D02*
X1422Y917D01*
X0Y916D02*
X7Y916D01*
X277Y916D02*
X283Y916D01*
X1415Y916D02*
X1422Y916D01*
X0Y915D02*
X7Y915D01*
X277Y915D02*
X283Y915D01*
X1415Y915D02*
X1422Y915D01*
X0Y914D02*
X7Y914D01*
X277Y914D02*
X283Y914D01*
X1415Y914D02*
X1422Y914D01*
X0Y913D02*
X7Y913D01*
X277Y913D02*
X283Y913D01*
X1415Y913D02*
X1422Y913D01*
X0Y912D02*
X7Y912D01*
X277Y912D02*
X283Y912D01*
X1415Y912D02*
X1422Y912D01*
X0Y911D02*
X7Y911D01*
X277Y911D02*
X283Y911D01*
X1415Y911D02*
X1422Y911D01*
X0Y910D02*
X7Y910D01*
X277Y910D02*
X283Y910D01*
X1415Y910D02*
X1422Y910D01*
X0Y909D02*
X7Y909D01*
X277Y909D02*
X284Y909D01*
X1415Y909D02*
X1422Y909D01*
X0Y908D02*
X7Y908D01*
X265Y908D02*
X296Y908D01*
X1415Y908D02*
X1422Y908D01*
X0Y907D02*
X7Y907D01*
X264Y907D02*
X297Y907D01*
X1415Y907D02*
X1422Y907D01*
X0Y906D02*
X7Y906D01*
X264Y906D02*
X297Y906D01*
X1415Y906D02*
X1422Y906D01*
X0Y905D02*
X7Y905D01*
X264Y905D02*
X297Y905D01*
X1415Y905D02*
X1422Y905D01*
X0Y904D02*
X7Y904D01*
X264Y904D02*
X297Y904D01*
X1415Y904D02*
X1422Y904D01*
X0Y903D02*
X7Y903D01*
X265Y903D02*
X296Y903D01*
X1415Y903D02*
X1422Y903D01*
X0Y902D02*
X7Y902D01*
X267Y902D02*
X294Y902D01*
X1415Y902D02*
X1422Y902D01*
X0Y901D02*
X7Y901D01*
X277Y901D02*
X283Y901D01*
X1415Y901D02*
X1422Y901D01*
X0Y900D02*
X7Y900D01*
X277Y900D02*
X283Y900D01*
X1415Y900D02*
X1422Y900D01*
X0Y899D02*
X7Y899D01*
X277Y899D02*
X283Y899D01*
X1415Y899D02*
X1422Y899D01*
X0Y898D02*
X7Y898D01*
X277Y898D02*
X283Y898D01*
X1415Y898D02*
X1422Y898D01*
X0Y897D02*
X7Y897D01*
X277Y897D02*
X283Y897D01*
X1415Y897D02*
X1422Y897D01*
X0Y896D02*
X7Y896D01*
X277Y896D02*
X283Y896D01*
X1415Y896D02*
X1422Y896D01*
X0Y895D02*
X7Y895D01*
X277Y895D02*
X283Y895D01*
X1415Y895D02*
X1422Y895D01*
X0Y894D02*
X7Y894D01*
X277Y894D02*
X283Y894D01*
X1415Y894D02*
X1422Y894D01*
X0Y893D02*
X7Y893D01*
X277Y893D02*
X283Y893D01*
X1415Y893D02*
X1422Y893D01*
X0Y892D02*
X7Y892D01*
X277Y892D02*
X283Y892D01*
X1415Y892D02*
X1422Y892D01*
X0Y891D02*
X7Y891D01*
X278Y891D02*
X283Y891D01*
X1415Y891D02*
X1422Y891D01*
X0Y890D02*
X7Y890D01*
X278Y890D02*
X283Y890D01*
X1415Y890D02*
X1422Y890D01*
X0Y889D02*
X7Y889D01*
X279Y889D02*
X282Y889D01*
X1415Y889D02*
X1422Y889D01*
X0Y888D02*
X7Y888D01*
X1415Y888D02*
X1422Y888D01*
X0Y887D02*
X7Y887D01*
X1415Y887D02*
X1422Y887D01*
X0Y886D02*
X7Y886D01*
X1415Y886D02*
X1422Y886D01*
X0Y885D02*
X7Y885D01*
X1415Y885D02*
X1422Y885D01*
X0Y884D02*
X7Y884D01*
X1415Y884D02*
X1422Y884D01*
X0Y883D02*
X7Y883D01*
X1415Y883D02*
X1422Y883D01*
X0Y882D02*
X7Y882D01*
X1415Y882D02*
X1422Y882D01*
X0Y881D02*
X7Y881D01*
X1415Y881D02*
X1422Y881D01*
X0Y880D02*
X7Y880D01*
X1415Y880D02*
X1422Y880D01*
X0Y879D02*
X7Y879D01*
X1415Y879D02*
X1422Y879D01*
X0Y878D02*
X7Y878D01*
X1415Y878D02*
X1422Y878D01*
X0Y877D02*
X7Y877D01*
X1415Y877D02*
X1422Y877D01*
X0Y876D02*
X7Y876D01*
X1415Y876D02*
X1422Y876D01*
X0Y875D02*
X7Y875D01*
X1415Y875D02*
X1422Y875D01*
X0Y874D02*
X7Y874D01*
X1415Y874D02*
X1422Y874D01*
X0Y873D02*
X7Y873D01*
X1415Y873D02*
X1422Y873D01*
X0Y872D02*
X7Y872D01*
X1415Y872D02*
X1422Y872D01*
X0Y871D02*
X7Y871D01*
X1415Y871D02*
X1422Y871D01*
X0Y870D02*
X7Y870D01*
X1415Y870D02*
X1422Y870D01*
X0Y869D02*
X7Y869D01*
X1415Y869D02*
X1422Y869D01*
X0Y868D02*
X7Y868D01*
X1415Y868D02*
X1422Y868D01*
X0Y867D02*
X7Y867D01*
X1415Y867D02*
X1422Y867D01*
X0Y866D02*
X7Y866D01*
X1415Y866D02*
X1422Y866D01*
X0Y865D02*
X7Y865D01*
X1415Y865D02*
X1422Y865D01*
X0Y864D02*
X7Y864D01*
X1415Y864D02*
X1422Y864D01*
X0Y863D02*
X7Y863D01*
X1415Y863D02*
X1422Y863D01*
X0Y862D02*
X7Y862D01*
X1415Y862D02*
X1422Y862D01*
X0Y861D02*
X7Y861D01*
X1415Y861D02*
X1422Y861D01*
X0Y860D02*
X7Y860D01*
X1415Y860D02*
X1422Y860D01*
X0Y859D02*
X7Y859D01*
X1415Y859D02*
X1422Y859D01*
X0Y858D02*
X7Y858D01*
X1415Y858D02*
X1422Y858D01*
X0Y857D02*
X7Y857D01*
X119Y857D02*
X163Y857D01*
X1415Y857D02*
X1422Y857D01*
X0Y856D02*
X7Y856D01*
X117Y856D02*
X165Y856D01*
X1415Y856D02*
X1422Y856D01*
X0Y855D02*
X7Y855D01*
X116Y855D02*
X166Y855D01*
X1415Y855D02*
X1422Y855D01*
X0Y854D02*
X7Y854D01*
X115Y854D02*
X167Y854D01*
X1415Y854D02*
X1422Y854D01*
X0Y853D02*
X7Y853D01*
X115Y853D02*
X167Y853D01*
X1415Y853D02*
X1422Y853D01*
X0Y852D02*
X7Y852D01*
X115Y852D02*
X167Y852D01*
X1415Y852D02*
X1422Y852D01*
X0Y851D02*
X7Y851D01*
X114Y851D02*
X167Y851D01*
X1415Y851D02*
X1422Y851D01*
X0Y850D02*
X7Y850D01*
X114Y850D02*
X120Y850D01*
X161Y850D02*
X168Y850D01*
X1415Y850D02*
X1422Y850D01*
X0Y849D02*
X7Y849D01*
X114Y849D02*
X120Y849D01*
X161Y849D02*
X168Y849D01*
X1415Y849D02*
X1422Y849D01*
X0Y848D02*
X7Y848D01*
X114Y848D02*
X120Y848D01*
X161Y848D02*
X168Y848D01*
X1415Y848D02*
X1422Y848D01*
X0Y847D02*
X7Y847D01*
X114Y847D02*
X120Y847D01*
X161Y847D02*
X168Y847D01*
X1415Y847D02*
X1422Y847D01*
X0Y846D02*
X7Y846D01*
X114Y846D02*
X120Y846D01*
X161Y846D02*
X168Y846D01*
X1415Y846D02*
X1422Y846D01*
X0Y845D02*
X7Y845D01*
X114Y845D02*
X120Y845D01*
X161Y845D02*
X168Y845D01*
X1415Y845D02*
X1422Y845D01*
X0Y844D02*
X7Y844D01*
X114Y844D02*
X120Y844D01*
X161Y844D02*
X168Y844D01*
X1415Y844D02*
X1422Y844D01*
X0Y843D02*
X7Y843D01*
X114Y843D02*
X120Y843D01*
X161Y843D02*
X168Y843D01*
X1415Y843D02*
X1422Y843D01*
X0Y842D02*
X7Y842D01*
X114Y842D02*
X120Y842D01*
X161Y842D02*
X168Y842D01*
X1415Y842D02*
X1422Y842D01*
X0Y841D02*
X7Y841D01*
X114Y841D02*
X120Y841D01*
X161Y841D02*
X168Y841D01*
X1415Y841D02*
X1422Y841D01*
X0Y840D02*
X7Y840D01*
X114Y840D02*
X120Y840D01*
X161Y840D02*
X168Y840D01*
X1415Y840D02*
X1422Y840D01*
X0Y839D02*
X7Y839D01*
X114Y839D02*
X120Y839D01*
X161Y839D02*
X168Y839D01*
X1415Y839D02*
X1422Y839D01*
X0Y838D02*
X7Y838D01*
X114Y838D02*
X120Y838D01*
X161Y838D02*
X168Y838D01*
X1415Y838D02*
X1422Y838D01*
X0Y837D02*
X7Y837D01*
X114Y837D02*
X120Y837D01*
X161Y837D02*
X168Y837D01*
X1415Y837D02*
X1422Y837D01*
X0Y836D02*
X7Y836D01*
X114Y836D02*
X120Y836D01*
X161Y836D02*
X168Y836D01*
X1415Y836D02*
X1422Y836D01*
X0Y835D02*
X7Y835D01*
X114Y835D02*
X120Y835D01*
X161Y835D02*
X168Y835D01*
X1415Y835D02*
X1422Y835D01*
X0Y834D02*
X7Y834D01*
X114Y834D02*
X120Y834D01*
X161Y834D02*
X168Y834D01*
X1415Y834D02*
X1422Y834D01*
X0Y833D02*
X7Y833D01*
X114Y833D02*
X120Y833D01*
X161Y833D02*
X168Y833D01*
X1415Y833D02*
X1422Y833D01*
X0Y832D02*
X7Y832D01*
X114Y832D02*
X120Y832D01*
X161Y832D02*
X168Y832D01*
X1415Y832D02*
X1422Y832D01*
X0Y831D02*
X7Y831D01*
X114Y831D02*
X120Y831D01*
X161Y831D02*
X168Y831D01*
X1415Y831D02*
X1422Y831D01*
X0Y830D02*
X7Y830D01*
X114Y830D02*
X121Y830D01*
X161Y830D02*
X168Y830D01*
X1415Y830D02*
X1422Y830D01*
X0Y829D02*
X7Y829D01*
X114Y829D02*
X167Y829D01*
X1415Y829D02*
X1422Y829D01*
X0Y828D02*
X7Y828D01*
X115Y828D02*
X167Y828D01*
X1415Y828D02*
X1422Y828D01*
X0Y827D02*
X7Y827D01*
X115Y827D02*
X167Y827D01*
X1415Y827D02*
X1422Y827D01*
X0Y826D02*
X7Y826D01*
X116Y826D02*
X166Y826D01*
X1415Y826D02*
X1422Y826D01*
X0Y825D02*
X7Y825D01*
X116Y825D02*
X165Y825D01*
X711Y825D02*
X714Y825D01*
X1007Y825D02*
X1033Y825D01*
X1056Y825D02*
X1059Y825D01*
X1415Y825D02*
X1422Y825D01*
X0Y824D02*
X7Y824D01*
X118Y824D02*
X164Y824D01*
X710Y824D02*
X715Y824D01*
X1007Y824D02*
X1034Y824D01*
X1055Y824D02*
X1060Y824D01*
X1415Y824D02*
X1422Y824D01*
X0Y823D02*
X7Y823D01*
X120Y823D02*
X162Y823D01*
X710Y823D02*
X716Y823D01*
X1007Y823D02*
X1035Y823D01*
X1054Y823D02*
X1060Y823D01*
X1415Y823D02*
X1422Y823D01*
X0Y822D02*
X7Y822D01*
X709Y822D02*
X716Y822D01*
X1007Y822D02*
X1036Y822D01*
X1054Y822D02*
X1060Y822D01*
X1415Y822D02*
X1422Y822D01*
X0Y821D02*
X7Y821D01*
X709Y821D02*
X716Y821D01*
X1007Y821D02*
X1036Y821D01*
X1054Y821D02*
X1060Y821D01*
X1415Y821D02*
X1422Y821D01*
X0Y820D02*
X7Y820D01*
X708Y820D02*
X715Y820D01*
X1007Y820D02*
X1036Y820D01*
X1054Y820D02*
X1060Y820D01*
X1415Y820D02*
X1422Y820D01*
X0Y819D02*
X7Y819D01*
X708Y819D02*
X715Y819D01*
X1007Y819D02*
X1036Y819D01*
X1054Y819D02*
X1060Y819D01*
X1415Y819D02*
X1422Y819D01*
X0Y818D02*
X7Y818D01*
X708Y818D02*
X714Y818D01*
X731Y818D02*
X760Y818D01*
X1007Y818D02*
X1013Y818D01*
X1031Y818D02*
X1036Y818D01*
X1054Y818D02*
X1060Y818D01*
X1415Y818D02*
X1422Y818D01*
X0Y817D02*
X7Y817D01*
X707Y817D02*
X714Y817D01*
X731Y817D02*
X760Y817D01*
X1007Y817D02*
X1013Y817D01*
X1031Y817D02*
X1036Y817D01*
X1054Y817D02*
X1060Y817D01*
X1415Y817D02*
X1422Y817D01*
X0Y816D02*
X7Y816D01*
X407Y816D02*
X429Y816D01*
X707Y816D02*
X714Y816D01*
X731Y816D02*
X760Y816D01*
X1007Y816D02*
X1013Y816D01*
X1031Y816D02*
X1036Y816D01*
X1054Y816D02*
X1060Y816D01*
X1415Y816D02*
X1422Y816D01*
X0Y815D02*
X7Y815D01*
X406Y815D02*
X430Y815D01*
X707Y815D02*
X713Y815D01*
X731Y815D02*
X760Y815D01*
X1007Y815D02*
X1013Y815D01*
X1031Y815D02*
X1036Y815D01*
X1054Y815D02*
X1060Y815D01*
X1415Y815D02*
X1422Y815D01*
X0Y814D02*
X7Y814D01*
X405Y814D02*
X431Y814D01*
X707Y814D02*
X713Y814D01*
X731Y814D02*
X760Y814D01*
X1007Y814D02*
X1013Y814D01*
X1031Y814D02*
X1036Y814D01*
X1054Y814D02*
X1060Y814D01*
X1415Y814D02*
X1422Y814D01*
X0Y813D02*
X7Y813D01*
X404Y813D02*
X432Y813D01*
X707Y813D02*
X713Y813D01*
X731Y813D02*
X760Y813D01*
X1007Y813D02*
X1013Y813D01*
X1031Y813D02*
X1036Y813D01*
X1054Y813D02*
X1060Y813D01*
X1415Y813D02*
X1422Y813D01*
X0Y812D02*
X7Y812D01*
X404Y812D02*
X432Y812D01*
X707Y812D02*
X713Y812D01*
X731Y812D02*
X760Y812D01*
X1007Y812D02*
X1013Y812D01*
X1031Y812D02*
X1036Y812D01*
X1054Y812D02*
X1060Y812D01*
X1415Y812D02*
X1422Y812D01*
X0Y811D02*
X7Y811D01*
X403Y811D02*
X433Y811D01*
X707Y811D02*
X713Y811D01*
X731Y811D02*
X737Y811D01*
X754Y811D02*
X760Y811D01*
X1007Y811D02*
X1013Y811D01*
X1031Y811D02*
X1036Y811D01*
X1054Y811D02*
X1060Y811D01*
X1415Y811D02*
X1422Y811D01*
X0Y810D02*
X7Y810D01*
X403Y810D02*
X433Y810D01*
X707Y810D02*
X713Y810D01*
X731Y810D02*
X737Y810D01*
X754Y810D02*
X760Y810D01*
X1007Y810D02*
X1013Y810D01*
X1031Y810D02*
X1036Y810D01*
X1054Y810D02*
X1060Y810D01*
X1415Y810D02*
X1422Y810D01*
X0Y809D02*
X7Y809D01*
X403Y809D02*
X409Y809D01*
X427Y809D02*
X455Y809D01*
X707Y809D02*
X713Y809D01*
X731Y809D02*
X737Y809D01*
X754Y809D02*
X760Y809D01*
X1007Y809D02*
X1013Y809D01*
X1031Y809D02*
X1036Y809D01*
X1054Y809D02*
X1060Y809D01*
X1415Y809D02*
X1422Y809D01*
X0Y808D02*
X7Y808D01*
X403Y808D02*
X409Y808D01*
X427Y808D02*
X456Y808D01*
X707Y808D02*
X713Y808D01*
X731Y808D02*
X737Y808D01*
X754Y808D02*
X760Y808D01*
X1007Y808D02*
X1013Y808D01*
X1031Y808D02*
X1036Y808D01*
X1054Y808D02*
X1060Y808D01*
X1415Y808D02*
X1422Y808D01*
X0Y807D02*
X7Y807D01*
X403Y807D02*
X409Y807D01*
X427Y807D02*
X456Y807D01*
X707Y807D02*
X713Y807D01*
X731Y807D02*
X737Y807D01*
X754Y807D02*
X760Y807D01*
X1007Y807D02*
X1013Y807D01*
X1031Y807D02*
X1036Y807D01*
X1054Y807D02*
X1060Y807D01*
X1415Y807D02*
X1422Y807D01*
X0Y806D02*
X7Y806D01*
X403Y806D02*
X409Y806D01*
X427Y806D02*
X456Y806D01*
X707Y806D02*
X713Y806D01*
X731Y806D02*
X737Y806D01*
X754Y806D02*
X760Y806D01*
X1007Y806D02*
X1013Y806D01*
X1031Y806D02*
X1036Y806D01*
X1054Y806D02*
X1060Y806D01*
X1415Y806D02*
X1422Y806D01*
X0Y805D02*
X7Y805D01*
X403Y805D02*
X409Y805D01*
X427Y805D02*
X456Y805D01*
X707Y805D02*
X713Y805D01*
X731Y805D02*
X737Y805D01*
X754Y805D02*
X760Y805D01*
X1007Y805D02*
X1013Y805D01*
X1031Y805D02*
X1036Y805D01*
X1054Y805D02*
X1060Y805D01*
X1415Y805D02*
X1422Y805D01*
X0Y804D02*
X7Y804D01*
X403Y804D02*
X409Y804D01*
X427Y804D02*
X456Y804D01*
X707Y804D02*
X713Y804D01*
X731Y804D02*
X737Y804D01*
X754Y804D02*
X760Y804D01*
X1007Y804D02*
X1013Y804D01*
X1031Y804D02*
X1036Y804D01*
X1054Y804D02*
X1060Y804D01*
X1415Y804D02*
X1422Y804D01*
X0Y803D02*
X7Y803D01*
X403Y803D02*
X409Y803D01*
X427Y803D02*
X456Y803D01*
X707Y803D02*
X713Y803D01*
X731Y803D02*
X737Y803D01*
X754Y803D02*
X760Y803D01*
X1007Y803D02*
X1013Y803D01*
X1031Y803D02*
X1036Y803D01*
X1054Y803D02*
X1060Y803D01*
X1415Y803D02*
X1422Y803D01*
X0Y802D02*
X7Y802D01*
X403Y802D02*
X409Y802D01*
X427Y802D02*
X433Y802D01*
X450Y802D02*
X456Y802D01*
X707Y802D02*
X713Y802D01*
X731Y802D02*
X737Y802D01*
X754Y802D02*
X760Y802D01*
X1007Y802D02*
X1013Y802D01*
X1031Y802D02*
X1036Y802D01*
X1054Y802D02*
X1060Y802D01*
X1415Y802D02*
X1422Y802D01*
X0Y801D02*
X7Y801D01*
X403Y801D02*
X409Y801D01*
X427Y801D02*
X433Y801D01*
X450Y801D02*
X456Y801D01*
X707Y801D02*
X713Y801D01*
X731Y801D02*
X737Y801D01*
X754Y801D02*
X760Y801D01*
X1007Y801D02*
X1013Y801D01*
X1031Y801D02*
X1036Y801D01*
X1054Y801D02*
X1060Y801D01*
X1415Y801D02*
X1422Y801D01*
X0Y800D02*
X7Y800D01*
X403Y800D02*
X409Y800D01*
X427Y800D02*
X433Y800D01*
X450Y800D02*
X456Y800D01*
X707Y800D02*
X713Y800D01*
X731Y800D02*
X737Y800D01*
X754Y800D02*
X760Y800D01*
X1007Y800D02*
X1013Y800D01*
X1031Y800D02*
X1036Y800D01*
X1054Y800D02*
X1060Y800D01*
X1415Y800D02*
X1422Y800D01*
X0Y799D02*
X7Y799D01*
X403Y799D02*
X409Y799D01*
X427Y799D02*
X433Y799D01*
X450Y799D02*
X456Y799D01*
X707Y799D02*
X713Y799D01*
X731Y799D02*
X737Y799D01*
X754Y799D02*
X760Y799D01*
X1007Y799D02*
X1013Y799D01*
X1031Y799D02*
X1036Y799D01*
X1054Y799D02*
X1060Y799D01*
X1415Y799D02*
X1422Y799D01*
X0Y798D02*
X7Y798D01*
X403Y798D02*
X409Y798D01*
X427Y798D02*
X433Y798D01*
X450Y798D02*
X456Y798D01*
X707Y798D02*
X737Y798D01*
X754Y798D02*
X760Y798D01*
X1007Y798D02*
X1013Y798D01*
X1031Y798D02*
X1060Y798D01*
X1415Y798D02*
X1422Y798D01*
X0Y797D02*
X7Y797D01*
X403Y797D02*
X409Y797D01*
X427Y797D02*
X433Y797D01*
X450Y797D02*
X456Y797D01*
X707Y797D02*
X736Y797D01*
X754Y797D02*
X760Y797D01*
X1007Y797D02*
X1013Y797D01*
X1031Y797D02*
X1060Y797D01*
X1415Y797D02*
X1422Y797D01*
X0Y796D02*
X7Y796D01*
X403Y796D02*
X409Y796D01*
X427Y796D02*
X456Y796D01*
X707Y796D02*
X736Y796D01*
X754Y796D02*
X760Y796D01*
X1007Y796D02*
X1013Y796D01*
X1031Y796D02*
X1060Y796D01*
X1415Y796D02*
X1422Y796D01*
X0Y795D02*
X7Y795D01*
X403Y795D02*
X409Y795D01*
X427Y795D02*
X456Y795D01*
X708Y795D02*
X736Y795D01*
X754Y795D02*
X760Y795D01*
X1007Y795D02*
X1013Y795D01*
X1031Y795D02*
X1059Y795D01*
X1415Y795D02*
X1422Y795D01*
X0Y794D02*
X7Y794D01*
X403Y794D02*
X409Y794D01*
X427Y794D02*
X456Y794D01*
X708Y794D02*
X735Y794D01*
X754Y794D02*
X760Y794D01*
X1007Y794D02*
X1013Y794D01*
X1032Y794D02*
X1059Y794D01*
X1415Y794D02*
X1422Y794D01*
X0Y793D02*
X7Y793D01*
X403Y793D02*
X409Y793D01*
X427Y793D02*
X456Y793D01*
X709Y793D02*
X734Y793D01*
X755Y793D02*
X760Y793D01*
X1007Y793D02*
X1012Y793D01*
X1033Y793D02*
X1058Y793D01*
X1415Y793D02*
X1422Y793D01*
X0Y792D02*
X7Y792D01*
X403Y792D02*
X409Y792D01*
X427Y792D02*
X456Y792D01*
X711Y792D02*
X733Y792D01*
X755Y792D02*
X759Y792D01*
X1008Y792D02*
X1012Y792D01*
X1034Y792D02*
X1056Y792D01*
X1415Y792D02*
X1422Y792D01*
X0Y791D02*
X7Y791D01*
X403Y791D02*
X409Y791D01*
X427Y791D02*
X456Y791D01*
X1415Y791D02*
X1422Y791D01*
X0Y790D02*
X7Y790D01*
X403Y790D02*
X409Y790D01*
X427Y790D02*
X455Y790D01*
X1415Y790D02*
X1422Y790D01*
X0Y789D02*
X7Y789D01*
X403Y789D02*
X433Y789D01*
X1415Y789D02*
X1422Y789D01*
X0Y788D02*
X7Y788D01*
X403Y788D02*
X433Y788D01*
X1415Y788D02*
X1422Y788D01*
X0Y787D02*
X7Y787D01*
X404Y787D02*
X432Y787D01*
X1415Y787D02*
X1422Y787D01*
X0Y786D02*
X7Y786D01*
X404Y786D02*
X432Y786D01*
X1415Y786D02*
X1422Y786D01*
X0Y785D02*
X7Y785D01*
X405Y785D02*
X431Y785D01*
X1415Y785D02*
X1422Y785D01*
X0Y784D02*
X7Y784D01*
X406Y784D02*
X430Y784D01*
X1415Y784D02*
X1422Y784D01*
X0Y783D02*
X7Y783D01*
X407Y783D02*
X429Y783D01*
X1415Y783D02*
X1422Y783D01*
X0Y782D02*
X7Y782D01*
X1415Y782D02*
X1422Y782D01*
X0Y781D02*
X7Y781D01*
X1415Y781D02*
X1422Y781D01*
X0Y780D02*
X7Y780D01*
X1415Y780D02*
X1422Y780D01*
X0Y779D02*
X7Y779D01*
X1415Y779D02*
X1422Y779D01*
X0Y778D02*
X7Y778D01*
X1415Y778D02*
X1422Y778D01*
X0Y777D02*
X7Y777D01*
X1415Y777D02*
X1422Y777D01*
X0Y776D02*
X7Y776D01*
X1415Y776D02*
X1422Y776D01*
X0Y775D02*
X7Y775D01*
X1415Y775D02*
X1422Y775D01*
X0Y774D02*
X7Y774D01*
X1415Y774D02*
X1422Y774D01*
X0Y773D02*
X7Y773D01*
X1415Y773D02*
X1422Y773D01*
X0Y772D02*
X7Y772D01*
X1415Y772D02*
X1422Y772D01*
X0Y771D02*
X7Y771D01*
X1415Y771D02*
X1422Y771D01*
X0Y770D02*
X6Y770D01*
X1415Y770D02*
X1422Y770D01*
X0Y769D02*
X6Y769D01*
X1415Y769D02*
X1422Y769D01*
X0Y768D02*
X5Y768D01*
X1415Y768D02*
X1422Y768D01*
X0Y767D02*
X5Y767D01*
X1415Y767D02*
X1422Y767D01*
X0Y766D02*
X5Y766D01*
X1415Y766D02*
X1422Y766D01*
X0Y765D02*
X4Y765D01*
X1415Y765D02*
X1422Y765D01*
X0Y764D02*
X4Y764D01*
X1415Y764D02*
X1422Y764D01*
X0Y763D02*
X4Y763D01*
X1415Y763D02*
X1422Y763D01*
X0Y762D02*
X4Y762D01*
X1415Y762D02*
X1422Y762D01*
X0Y761D02*
X3Y761D01*
X1415Y761D02*
X1422Y761D01*
X0Y760D02*
X3Y760D01*
X1415Y760D02*
X1422Y760D01*
X0Y759D02*
X3Y759D01*
X1415Y759D02*
X1422Y759D01*
X0Y758D02*
X3Y758D01*
X1415Y758D02*
X1422Y758D01*
X0Y757D02*
X3Y757D01*
X1415Y757D02*
X1422Y757D01*
X0Y756D02*
X3Y756D01*
X1415Y756D02*
X1422Y756D01*
X0Y755D02*
X3Y755D01*
X1415Y755D02*
X1422Y755D01*
X0Y754D02*
X3Y754D01*
X1415Y754D02*
X1422Y754D01*
X0Y753D02*
X3Y753D01*
X1415Y753D02*
X1422Y753D01*
X0Y752D02*
X3Y752D01*
X1415Y752D02*
X1422Y752D01*
X0Y751D02*
X3Y751D01*
X1415Y751D02*
X1422Y751D01*
X0Y750D02*
X3Y750D01*
X1415Y750D02*
X1422Y750D01*
X0Y749D02*
X4Y749D01*
X1415Y749D02*
X1422Y749D01*
X0Y748D02*
X4Y748D01*
X1415Y748D02*
X1422Y748D01*
X0Y747D02*
X4Y747D01*
X1415Y747D02*
X1422Y747D01*
X0Y746D02*
X4Y746D01*
X1415Y746D02*
X1422Y746D01*
X0Y745D02*
X4Y745D01*
X1415Y745D02*
X1422Y745D01*
X0Y744D02*
X5Y744D01*
X1415Y744D02*
X1422Y744D01*
X0Y743D02*
X5Y743D01*
X1415Y743D02*
X1422Y743D01*
X0Y742D02*
X6Y742D01*
X1415Y742D02*
X1422Y742D01*
X0Y741D02*
X6Y741D01*
X1415Y741D02*
X1422Y741D01*
X0Y740D02*
X6Y740D01*
X1415Y740D02*
X1422Y740D01*
X0Y739D02*
X7Y739D01*
X1415Y739D02*
X1422Y739D01*
X0Y738D02*
X7Y738D01*
X1415Y738D02*
X1422Y738D01*
X0Y737D02*
X7Y737D01*
X1415Y737D02*
X1422Y737D01*
X0Y736D02*
X7Y736D01*
X1415Y736D02*
X1422Y736D01*
X0Y735D02*
X7Y735D01*
X1415Y735D02*
X1422Y735D01*
X0Y734D02*
X7Y734D01*
X1415Y734D02*
X1422Y734D01*
X0Y733D02*
X7Y733D01*
X1415Y733D02*
X1422Y733D01*
X0Y732D02*
X7Y732D01*
X1415Y732D02*
X1422Y732D01*
X0Y731D02*
X7Y731D01*
X1415Y731D02*
X1422Y731D01*
X0Y730D02*
X7Y730D01*
X1415Y730D02*
X1422Y730D01*
X0Y729D02*
X7Y729D01*
X1415Y729D02*
X1422Y729D01*
X0Y728D02*
X7Y728D01*
X1415Y728D02*
X1422Y728D01*
X0Y727D02*
X7Y727D01*
X1415Y727D02*
X1422Y727D01*
X0Y726D02*
X7Y726D01*
X1415Y726D02*
X1422Y726D01*
X0Y725D02*
X7Y725D01*
X1415Y725D02*
X1422Y725D01*
X0Y724D02*
X7Y724D01*
X1415Y724D02*
X1422Y724D01*
X0Y723D02*
X7Y723D01*
X1415Y723D02*
X1422Y723D01*
X0Y722D02*
X7Y722D01*
X1415Y722D02*
X1422Y722D01*
X0Y721D02*
X7Y721D01*
X1415Y721D02*
X1422Y721D01*
X0Y720D02*
X7Y720D01*
X1415Y720D02*
X1422Y720D01*
X0Y719D02*
X7Y719D01*
X1415Y719D02*
X1422Y719D01*
X0Y718D02*
X7Y718D01*
X1415Y718D02*
X1422Y718D01*
X0Y717D02*
X7Y717D01*
X1415Y717D02*
X1422Y717D01*
X0Y716D02*
X7Y716D01*
X1415Y716D02*
X1422Y716D01*
X0Y715D02*
X7Y715D01*
X1415Y715D02*
X1422Y715D01*
X0Y714D02*
X7Y714D01*
X1415Y714D02*
X1422Y714D01*
X0Y713D02*
X7Y713D01*
X1415Y713D02*
X1422Y713D01*
X0Y712D02*
X7Y712D01*
X1415Y712D02*
X1422Y712D01*
X0Y711D02*
X7Y711D01*
X1415Y711D02*
X1422Y711D01*
X0Y710D02*
X7Y710D01*
X1415Y710D02*
X1422Y710D01*
X0Y709D02*
X7Y709D01*
X1415Y709D02*
X1422Y709D01*
X0Y708D02*
X7Y708D01*
X1415Y708D02*
X1422Y708D01*
X0Y707D02*
X7Y707D01*
X1415Y707D02*
X1422Y707D01*
X0Y706D02*
X7Y706D01*
X1415Y706D02*
X1422Y706D01*
X0Y705D02*
X7Y705D01*
X1415Y705D02*
X1422Y705D01*
X0Y704D02*
X7Y704D01*
X1415Y704D02*
X1422Y704D01*
X0Y703D02*
X7Y703D01*
X1415Y703D02*
X1422Y703D01*
X0Y702D02*
X7Y702D01*
X1415Y702D02*
X1422Y702D01*
X0Y701D02*
X7Y701D01*
X1415Y701D02*
X1422Y701D01*
X0Y700D02*
X7Y700D01*
X1415Y700D02*
X1422Y700D01*
X0Y699D02*
X7Y699D01*
X1415Y699D02*
X1422Y699D01*
X0Y698D02*
X7Y698D01*
X1415Y698D02*
X1422Y698D01*
X0Y697D02*
X7Y697D01*
X1415Y697D02*
X1422Y697D01*
X0Y696D02*
X7Y696D01*
X1415Y696D02*
X1422Y696D01*
X0Y695D02*
X7Y695D01*
X1415Y695D02*
X1422Y695D01*
X0Y694D02*
X7Y694D01*
X1415Y694D02*
X1422Y694D01*
X0Y693D02*
X7Y693D01*
X1415Y693D02*
X1422Y693D01*
X0Y692D02*
X7Y692D01*
X1415Y692D02*
X1422Y692D01*
X0Y691D02*
X7Y691D01*
X1415Y691D02*
X1422Y691D01*
X0Y690D02*
X7Y690D01*
X1415Y690D02*
X1422Y690D01*
X0Y689D02*
X7Y689D01*
X1415Y689D02*
X1422Y689D01*
X0Y688D02*
X7Y688D01*
X1415Y688D02*
X1422Y688D01*
X0Y687D02*
X7Y687D01*
X1415Y687D02*
X1422Y687D01*
X0Y686D02*
X7Y686D01*
X1415Y686D02*
X1422Y686D01*
X0Y685D02*
X7Y685D01*
X1415Y685D02*
X1422Y685D01*
X0Y684D02*
X7Y684D01*
X1415Y684D02*
X1422Y684D01*
X0Y683D02*
X7Y683D01*
X1415Y683D02*
X1422Y683D01*
X0Y682D02*
X7Y682D01*
X1415Y682D02*
X1422Y682D01*
X0Y681D02*
X7Y681D01*
X1415Y681D02*
X1422Y681D01*
X0Y680D02*
X7Y680D01*
X1415Y680D02*
X1422Y680D01*
X0Y679D02*
X7Y679D01*
X1415Y679D02*
X1422Y679D01*
X0Y678D02*
X7Y678D01*
X1415Y678D02*
X1422Y678D01*
X0Y677D02*
X7Y677D01*
X1415Y677D02*
X1422Y677D01*
X0Y676D02*
X7Y676D01*
X1415Y676D02*
X1422Y676D01*
X0Y675D02*
X7Y675D01*
X1415Y675D02*
X1422Y675D01*
X0Y674D02*
X7Y674D01*
X1415Y674D02*
X1422Y674D01*
X0Y673D02*
X7Y673D01*
X1415Y673D02*
X1422Y673D01*
X0Y672D02*
X7Y672D01*
X1415Y672D02*
X1422Y672D01*
X0Y671D02*
X7Y671D01*
X1415Y671D02*
X1422Y671D01*
X0Y670D02*
X7Y670D01*
X1415Y670D02*
X1422Y670D01*
X0Y669D02*
X7Y669D01*
X1415Y669D02*
X1422Y669D01*
X0Y668D02*
X7Y668D01*
X1415Y668D02*
X1422Y668D01*
X0Y667D02*
X7Y667D01*
X1415Y667D02*
X1422Y667D01*
X0Y666D02*
X7Y666D01*
X1415Y666D02*
X1422Y666D01*
X0Y665D02*
X7Y665D01*
X1415Y665D02*
X1422Y665D01*
X0Y664D02*
X7Y664D01*
X1415Y664D02*
X1422Y664D01*
X0Y663D02*
X7Y663D01*
X1415Y663D02*
X1422Y663D01*
X0Y662D02*
X7Y662D01*
X1415Y662D02*
X1422Y662D01*
X0Y661D02*
X7Y661D01*
X1415Y661D02*
X1422Y661D01*
X0Y660D02*
X7Y660D01*
X1415Y660D02*
X1422Y660D01*
X0Y659D02*
X7Y659D01*
X1415Y659D02*
X1422Y659D01*
X0Y658D02*
X7Y658D01*
X1415Y658D02*
X1422Y658D01*
X0Y657D02*
X7Y657D01*
X1415Y657D02*
X1422Y657D01*
X0Y656D02*
X7Y656D01*
X1415Y656D02*
X1422Y656D01*
X0Y655D02*
X7Y655D01*
X1415Y655D02*
X1422Y655D01*
X0Y654D02*
X7Y654D01*
X1415Y654D02*
X1422Y654D01*
X0Y653D02*
X7Y653D01*
X1415Y653D02*
X1422Y653D01*
X0Y652D02*
X7Y652D01*
X1415Y652D02*
X1422Y652D01*
X0Y651D02*
X7Y651D01*
X1415Y651D02*
X1422Y651D01*
X0Y650D02*
X7Y650D01*
X1415Y650D02*
X1422Y650D01*
X0Y649D02*
X7Y649D01*
X1415Y649D02*
X1422Y649D01*
X0Y648D02*
X7Y648D01*
X1415Y648D02*
X1422Y648D01*
X0Y647D02*
X7Y647D01*
X1415Y647D02*
X1422Y647D01*
X0Y646D02*
X7Y646D01*
X1415Y646D02*
X1422Y646D01*
X0Y645D02*
X7Y645D01*
X1415Y645D02*
X1422Y645D01*
X0Y644D02*
X7Y644D01*
X1415Y644D02*
X1422Y644D01*
X0Y643D02*
X7Y643D01*
X1415Y643D02*
X1422Y643D01*
X0Y642D02*
X7Y642D01*
X1415Y642D02*
X1422Y642D01*
X0Y641D02*
X7Y641D01*
X1415Y641D02*
X1422Y641D01*
X0Y640D02*
X7Y640D01*
X1415Y640D02*
X1422Y640D01*
X0Y639D02*
X7Y639D01*
X1415Y639D02*
X1422Y639D01*
X0Y638D02*
X7Y638D01*
X1415Y638D02*
X1422Y638D01*
X0Y637D02*
X7Y637D01*
X1415Y637D02*
X1422Y637D01*
X0Y636D02*
X7Y636D01*
X1415Y636D02*
X1422Y636D01*
X0Y635D02*
X7Y635D01*
X1415Y635D02*
X1422Y635D01*
X0Y634D02*
X7Y634D01*
X1415Y634D02*
X1422Y634D01*
X0Y633D02*
X7Y633D01*
X1415Y633D02*
X1422Y633D01*
X0Y632D02*
X7Y632D01*
X1415Y632D02*
X1422Y632D01*
X0Y631D02*
X7Y631D01*
X1415Y631D02*
X1422Y631D01*
X0Y630D02*
X7Y630D01*
X1415Y630D02*
X1422Y630D01*
X0Y629D02*
X7Y629D01*
X1415Y629D02*
X1422Y629D01*
X0Y628D02*
X7Y628D01*
X1415Y628D02*
X1422Y628D01*
X0Y627D02*
X7Y627D01*
X1415Y627D02*
X1422Y627D01*
X0Y626D02*
X7Y626D01*
X1415Y626D02*
X1422Y626D01*
X0Y625D02*
X7Y625D01*
X1415Y625D02*
X1422Y625D01*
X0Y624D02*
X7Y624D01*
X1415Y624D02*
X1422Y624D01*
X0Y623D02*
X7Y623D01*
X1415Y623D02*
X1422Y623D01*
X0Y622D02*
X7Y622D01*
X1415Y622D02*
X1422Y622D01*
X0Y621D02*
X7Y621D01*
X1415Y621D02*
X1422Y621D01*
X0Y620D02*
X7Y620D01*
X1415Y620D02*
X1422Y620D01*
X0Y619D02*
X7Y619D01*
X1415Y619D02*
X1422Y619D01*
X0Y618D02*
X7Y618D01*
X1415Y618D02*
X1422Y618D01*
X0Y617D02*
X7Y617D01*
X1415Y617D02*
X1422Y617D01*
X0Y616D02*
X7Y616D01*
X1415Y616D02*
X1422Y616D01*
X0Y615D02*
X7Y615D01*
X1415Y615D02*
X1422Y615D01*
X0Y614D02*
X7Y614D01*
X1415Y614D02*
X1422Y614D01*
X0Y613D02*
X7Y613D01*
X1415Y613D02*
X1422Y613D01*
X0Y612D02*
X7Y612D01*
X1415Y612D02*
X1422Y612D01*
X0Y611D02*
X7Y611D01*
X1415Y611D02*
X1422Y611D01*
X0Y610D02*
X7Y610D01*
X1415Y610D02*
X1422Y610D01*
X0Y609D02*
X7Y609D01*
X1415Y609D02*
X1422Y609D01*
X0Y608D02*
X7Y608D01*
X1415Y608D02*
X1422Y608D01*
X0Y607D02*
X7Y607D01*
X1415Y607D02*
X1422Y607D01*
X0Y606D02*
X7Y606D01*
X1415Y606D02*
X1422Y606D01*
X0Y605D02*
X7Y605D01*
X1415Y605D02*
X1422Y605D01*
X0Y604D02*
X7Y604D01*
X1415Y604D02*
X1422Y604D01*
X0Y603D02*
X7Y603D01*
X1415Y603D02*
X1422Y603D01*
X0Y602D02*
X7Y602D01*
X1415Y602D02*
X1422Y602D01*
X0Y601D02*
X7Y601D01*
X1415Y601D02*
X1422Y601D01*
X0Y600D02*
X7Y600D01*
X1415Y600D02*
X1422Y600D01*
X0Y599D02*
X7Y599D01*
X1415Y599D02*
X1422Y599D01*
X0Y598D02*
X7Y598D01*
X1415Y598D02*
X1422Y598D01*
X0Y597D02*
X7Y597D01*
X1415Y597D02*
X1422Y597D01*
X0Y596D02*
X7Y596D01*
X1415Y596D02*
X1422Y596D01*
X0Y595D02*
X7Y595D01*
X1415Y595D02*
X1422Y595D01*
X0Y594D02*
X7Y594D01*
X1415Y594D02*
X1422Y594D01*
X0Y593D02*
X7Y593D01*
X1415Y593D02*
X1422Y593D01*
X0Y592D02*
X7Y592D01*
X1415Y592D02*
X1422Y592D01*
X0Y591D02*
X7Y591D01*
X1415Y591D02*
X1422Y591D01*
X0Y590D02*
X7Y590D01*
X1415Y590D02*
X1422Y590D01*
X0Y589D02*
X7Y589D01*
X1415Y589D02*
X1422Y589D01*
X0Y588D02*
X7Y588D01*
X1415Y588D02*
X1422Y588D01*
X0Y587D02*
X7Y587D01*
X1415Y587D02*
X1422Y587D01*
X0Y586D02*
X7Y586D01*
X1415Y586D02*
X1422Y586D01*
X0Y585D02*
X7Y585D01*
X1415Y585D02*
X1422Y585D01*
X0Y584D02*
X7Y584D01*
X1415Y584D02*
X1422Y584D01*
X0Y583D02*
X7Y583D01*
X1415Y583D02*
X1422Y583D01*
X0Y582D02*
X7Y582D01*
X1415Y582D02*
X1422Y582D01*
X0Y581D02*
X7Y581D01*
X1415Y581D02*
X1422Y581D01*
X0Y580D02*
X7Y580D01*
X1415Y580D02*
X1422Y580D01*
X0Y579D02*
X7Y579D01*
X1415Y579D02*
X1422Y579D01*
X0Y578D02*
X7Y578D01*
X1415Y578D02*
X1422Y578D01*
X0Y577D02*
X7Y577D01*
X1415Y577D02*
X1422Y577D01*
X0Y576D02*
X7Y576D01*
X1415Y576D02*
X1422Y576D01*
X0Y575D02*
X7Y575D01*
X1415Y575D02*
X1422Y575D01*
X0Y574D02*
X7Y574D01*
X1415Y574D02*
X1422Y574D01*
X0Y573D02*
X7Y573D01*
X1415Y573D02*
X1422Y573D01*
X0Y572D02*
X7Y572D01*
X1415Y572D02*
X1422Y572D01*
X0Y571D02*
X7Y571D01*
X1415Y571D02*
X1422Y571D01*
X0Y570D02*
X7Y570D01*
X1415Y570D02*
X1422Y570D01*
X0Y569D02*
X7Y569D01*
X1415Y569D02*
X1422Y569D01*
X0Y568D02*
X7Y568D01*
X1415Y568D02*
X1422Y568D01*
X0Y567D02*
X7Y567D01*
X1415Y567D02*
X1422Y567D01*
X0Y566D02*
X7Y566D01*
X1415Y566D02*
X1422Y566D01*
X0Y565D02*
X7Y565D01*
X1415Y565D02*
X1422Y565D01*
X0Y564D02*
X7Y564D01*
X1415Y564D02*
X1422Y564D01*
X0Y563D02*
X7Y563D01*
X1415Y563D02*
X1422Y563D01*
X0Y562D02*
X7Y562D01*
X1415Y562D02*
X1422Y562D01*
X0Y561D02*
X7Y561D01*
X1415Y561D02*
X1422Y561D01*
X0Y560D02*
X7Y560D01*
X1415Y560D02*
X1422Y560D01*
X0Y559D02*
X7Y559D01*
X1415Y559D02*
X1422Y559D01*
X0Y558D02*
X7Y558D01*
X1415Y558D02*
X1422Y558D01*
X0Y557D02*
X7Y557D01*
X1415Y557D02*
X1422Y557D01*
X0Y556D02*
X7Y556D01*
X1415Y556D02*
X1422Y556D01*
X0Y555D02*
X7Y555D01*
X1415Y555D02*
X1422Y555D01*
X0Y554D02*
X7Y554D01*
X1415Y554D02*
X1422Y554D01*
X0Y553D02*
X7Y553D01*
X1415Y553D02*
X1422Y553D01*
X0Y552D02*
X7Y552D01*
X1415Y552D02*
X1422Y552D01*
X0Y551D02*
X7Y551D01*
X1415Y551D02*
X1422Y551D01*
X0Y550D02*
X7Y550D01*
X1415Y550D02*
X1422Y550D01*
X0Y549D02*
X7Y549D01*
X1415Y549D02*
X1422Y549D01*
X0Y548D02*
X7Y548D01*
X1415Y548D02*
X1422Y548D01*
X0Y547D02*
X7Y547D01*
X1415Y547D02*
X1422Y547D01*
X0Y546D02*
X7Y546D01*
X1415Y546D02*
X1422Y546D01*
X0Y545D02*
X7Y545D01*
X1415Y545D02*
X1422Y545D01*
X0Y544D02*
X7Y544D01*
X1415Y544D02*
X1422Y544D01*
X0Y543D02*
X7Y543D01*
X1415Y543D02*
X1422Y543D01*
X0Y542D02*
X7Y542D01*
X1415Y542D02*
X1422Y542D01*
X0Y541D02*
X7Y541D01*
X1415Y541D02*
X1422Y541D01*
X0Y540D02*
X7Y540D01*
X1415Y540D02*
X1422Y540D01*
X0Y539D02*
X7Y539D01*
X1415Y539D02*
X1422Y539D01*
X0Y538D02*
X7Y538D01*
X1415Y538D02*
X1422Y538D01*
X0Y537D02*
X7Y537D01*
X1415Y537D02*
X1422Y537D01*
X0Y536D02*
X7Y536D01*
X1415Y536D02*
X1422Y536D01*
X0Y535D02*
X7Y535D01*
X1415Y535D02*
X1422Y535D01*
X0Y534D02*
X7Y534D01*
X1415Y534D02*
X1422Y534D01*
X0Y533D02*
X7Y533D01*
X1415Y533D02*
X1422Y533D01*
X0Y532D02*
X7Y532D01*
X1415Y532D02*
X1422Y532D01*
X0Y531D02*
X7Y531D01*
X1415Y531D02*
X1422Y531D01*
X0Y530D02*
X7Y530D01*
X1415Y530D02*
X1422Y530D01*
X0Y529D02*
X7Y529D01*
X1415Y529D02*
X1422Y529D01*
X0Y528D02*
X7Y528D01*
X1415Y528D02*
X1422Y528D01*
X0Y527D02*
X7Y527D01*
X1415Y527D02*
X1422Y527D01*
X0Y526D02*
X7Y526D01*
X1415Y526D02*
X1422Y526D01*
X0Y525D02*
X7Y525D01*
X1415Y525D02*
X1422Y525D01*
X0Y524D02*
X7Y524D01*
X1415Y524D02*
X1422Y524D01*
X0Y523D02*
X7Y523D01*
X1415Y523D02*
X1422Y523D01*
X0Y522D02*
X7Y522D01*
X1415Y522D02*
X1422Y522D01*
X0Y521D02*
X7Y521D01*
X1415Y521D02*
X1422Y521D01*
X0Y520D02*
X7Y520D01*
X1415Y520D02*
X1422Y520D01*
X0Y519D02*
X7Y519D01*
X1415Y519D02*
X1422Y519D01*
X0Y518D02*
X7Y518D01*
X1415Y518D02*
X1422Y518D01*
X0Y517D02*
X7Y517D01*
X1415Y517D02*
X1422Y517D01*
X0Y516D02*
X7Y516D01*
X1415Y516D02*
X1422Y516D01*
X0Y515D02*
X6Y515D01*
X1415Y515D02*
X1422Y515D01*
X0Y514D02*
X6Y514D01*
X1415Y514D02*
X1422Y514D01*
X0Y513D02*
X6Y513D01*
X1415Y513D02*
X1422Y513D01*
X0Y512D02*
X5Y512D01*
X1415Y512D02*
X1422Y512D01*
X0Y511D02*
X5Y511D01*
X1415Y511D02*
X1422Y511D01*
X0Y510D02*
X5Y510D01*
X1415Y510D02*
X1422Y510D01*
X0Y509D02*
X4Y509D01*
X1415Y509D02*
X1422Y509D01*
X0Y508D02*
X4Y508D01*
X1415Y508D02*
X1422Y508D01*
X0Y507D02*
X4Y507D01*
X1415Y507D02*
X1422Y507D01*
X0Y506D02*
X4Y506D01*
X1415Y506D02*
X1422Y506D01*
X0Y505D02*
X3Y505D01*
X1415Y505D02*
X1422Y505D01*
X0Y504D02*
X3Y504D01*
X1415Y504D02*
X1422Y504D01*
X0Y503D02*
X3Y503D01*
X1415Y503D02*
X1422Y503D01*
X0Y502D02*
X3Y502D01*
X1415Y502D02*
X1422Y502D01*
X0Y501D02*
X3Y501D01*
X1415Y501D02*
X1422Y501D01*
X0Y500D02*
X3Y500D01*
X1415Y500D02*
X1422Y500D01*
X0Y499D02*
X3Y499D01*
X1415Y499D02*
X1422Y499D01*
X0Y498D02*
X3Y498D01*
X1415Y498D02*
X1422Y498D01*
X0Y497D02*
X3Y497D01*
X1415Y497D02*
X1422Y497D01*
X0Y496D02*
X3Y496D01*
X1415Y496D02*
X1422Y496D01*
X0Y495D02*
X3Y495D01*
X1415Y495D02*
X1422Y495D01*
X0Y494D02*
X3Y494D01*
X1415Y494D02*
X1422Y494D01*
X0Y493D02*
X4Y493D01*
X1415Y493D02*
X1422Y493D01*
X0Y492D02*
X4Y492D01*
X1415Y492D02*
X1422Y492D01*
X0Y491D02*
X4Y491D01*
X1415Y491D02*
X1422Y491D01*
X0Y490D02*
X4Y490D01*
X1415Y490D02*
X1422Y490D01*
X0Y489D02*
X5Y489D01*
X1415Y489D02*
X1422Y489D01*
X0Y488D02*
X5Y488D01*
X1415Y488D02*
X1422Y488D01*
X0Y487D02*
X5Y487D01*
X1415Y487D02*
X1422Y487D01*
X0Y486D02*
X6Y486D01*
X1415Y486D02*
X1422Y486D01*
X0Y485D02*
X6Y485D01*
X1415Y485D02*
X1422Y485D01*
X0Y484D02*
X6Y484D01*
X1415Y484D02*
X1422Y484D01*
X0Y483D02*
X7Y483D01*
X1415Y483D02*
X1422Y483D01*
X0Y482D02*
X7Y482D01*
X1415Y482D02*
X1422Y482D01*
X0Y481D02*
X7Y481D01*
X1415Y481D02*
X1422Y481D01*
X0Y480D02*
X7Y480D01*
X1415Y480D02*
X1422Y480D01*
X0Y479D02*
X7Y479D01*
X1415Y479D02*
X1422Y479D01*
X0Y478D02*
X7Y478D01*
X1415Y478D02*
X1422Y478D01*
X0Y477D02*
X7Y477D01*
X1415Y477D02*
X1422Y477D01*
X0Y476D02*
X7Y476D01*
X1415Y476D02*
X1422Y476D01*
X0Y475D02*
X7Y475D01*
X1415Y475D02*
X1422Y475D01*
X0Y474D02*
X7Y474D01*
X1415Y474D02*
X1422Y474D01*
X0Y473D02*
X7Y473D01*
X1415Y473D02*
X1422Y473D01*
X0Y472D02*
X7Y472D01*
X1415Y472D02*
X1422Y472D01*
X0Y471D02*
X7Y471D01*
X1415Y471D02*
X1422Y471D01*
X0Y470D02*
X7Y470D01*
X1415Y470D02*
X1422Y470D01*
X0Y469D02*
X7Y469D01*
X1415Y469D02*
X1422Y469D01*
X0Y468D02*
X7Y468D01*
X1415Y468D02*
X1422Y468D01*
X0Y467D02*
X7Y467D01*
X1415Y467D02*
X1422Y467D01*
X0Y466D02*
X7Y466D01*
X1415Y466D02*
X1422Y466D01*
X0Y465D02*
X7Y465D01*
X1415Y465D02*
X1422Y465D01*
X0Y464D02*
X7Y464D01*
X1415Y464D02*
X1422Y464D01*
X0Y463D02*
X7Y463D01*
X1415Y463D02*
X1422Y463D01*
X0Y462D02*
X7Y462D01*
X1415Y462D02*
X1422Y462D01*
X0Y461D02*
X7Y461D01*
X1415Y461D02*
X1422Y461D01*
X0Y460D02*
X7Y460D01*
X1415Y460D02*
X1422Y460D01*
X0Y459D02*
X7Y459D01*
X1415Y459D02*
X1422Y459D01*
X0Y458D02*
X7Y458D01*
X1415Y458D02*
X1422Y458D01*
X0Y457D02*
X7Y457D01*
X1415Y457D02*
X1422Y457D01*
X0Y456D02*
X7Y456D01*
X1415Y456D02*
X1422Y456D01*
X0Y455D02*
X7Y455D01*
X1415Y455D02*
X1422Y455D01*
X0Y454D02*
X7Y454D01*
X1415Y454D02*
X1422Y454D01*
X0Y453D02*
X7Y453D01*
X1415Y453D02*
X1422Y453D01*
X0Y452D02*
X7Y452D01*
X1415Y452D02*
X1422Y452D01*
X0Y451D02*
X7Y451D01*
X1415Y451D02*
X1422Y451D01*
X0Y450D02*
X7Y450D01*
X1415Y450D02*
X1422Y450D01*
X0Y449D02*
X7Y449D01*
X1415Y449D02*
X1422Y449D01*
X0Y448D02*
X7Y448D01*
X1415Y448D02*
X1422Y448D01*
X0Y447D02*
X7Y447D01*
X1415Y447D02*
X1422Y447D01*
X0Y446D02*
X7Y446D01*
X1415Y446D02*
X1422Y446D01*
X0Y445D02*
X7Y445D01*
X1415Y445D02*
X1422Y445D01*
X0Y444D02*
X7Y444D01*
X116Y444D02*
X119Y444D01*
X163Y444D02*
X166Y444D01*
X1415Y444D02*
X1422Y444D01*
X0Y443D02*
X7Y443D01*
X115Y443D02*
X120Y443D01*
X162Y443D02*
X167Y443D01*
X1415Y443D02*
X1422Y443D01*
X0Y442D02*
X7Y442D01*
X114Y442D02*
X120Y442D01*
X162Y442D02*
X167Y442D01*
X1415Y442D02*
X1422Y442D01*
X0Y441D02*
X7Y441D01*
X114Y441D02*
X120Y441D01*
X162Y441D02*
X168Y441D01*
X1415Y441D02*
X1422Y441D01*
X0Y440D02*
X7Y440D01*
X114Y440D02*
X120Y440D01*
X161Y440D02*
X168Y440D01*
X1415Y440D02*
X1422Y440D01*
X0Y439D02*
X7Y439D01*
X114Y439D02*
X120Y439D01*
X161Y439D02*
X168Y439D01*
X1415Y439D02*
X1422Y439D01*
X0Y438D02*
X7Y438D01*
X114Y438D02*
X121Y438D01*
X161Y438D02*
X168Y438D01*
X1415Y438D02*
X1422Y438D01*
X0Y437D02*
X7Y437D01*
X114Y437D02*
X168Y437D01*
X1415Y437D02*
X1422Y437D01*
X0Y436D02*
X7Y436D01*
X114Y436D02*
X168Y436D01*
X1415Y436D02*
X1422Y436D01*
X0Y435D02*
X7Y435D01*
X114Y435D02*
X168Y435D01*
X1415Y435D02*
X1422Y435D01*
X0Y434D02*
X7Y434D01*
X114Y434D02*
X168Y434D01*
X1415Y434D02*
X1422Y434D01*
X0Y433D02*
X7Y433D01*
X114Y433D02*
X168Y433D01*
X1415Y433D02*
X1422Y433D01*
X0Y432D02*
X7Y432D01*
X114Y432D02*
X168Y432D01*
X1415Y432D02*
X1422Y432D01*
X0Y431D02*
X7Y431D01*
X114Y431D02*
X168Y431D01*
X1415Y431D02*
X1422Y431D01*
X0Y430D02*
X7Y430D01*
X114Y430D02*
X120Y430D01*
X161Y430D02*
X168Y430D01*
X1415Y430D02*
X1422Y430D01*
X0Y429D02*
X7Y429D01*
X114Y429D02*
X120Y429D01*
X161Y429D02*
X168Y429D01*
X1415Y429D02*
X1422Y429D01*
X0Y428D02*
X7Y428D01*
X114Y428D02*
X120Y428D01*
X161Y428D02*
X167Y428D01*
X1415Y428D02*
X1422Y428D01*
X0Y427D02*
X7Y427D01*
X115Y427D02*
X121Y427D01*
X161Y427D02*
X167Y427D01*
X1415Y427D02*
X1422Y427D01*
X0Y426D02*
X7Y426D01*
X115Y426D02*
X121Y426D01*
X161Y426D02*
X167Y426D01*
X1415Y426D02*
X1422Y426D01*
X0Y425D02*
X7Y425D01*
X115Y425D02*
X123Y425D01*
X159Y425D02*
X167Y425D01*
X1415Y425D02*
X1422Y425D01*
X0Y424D02*
X7Y424D01*
X115Y424D02*
X125Y424D01*
X157Y424D02*
X166Y424D01*
X1415Y424D02*
X1422Y424D01*
X0Y423D02*
X7Y423D01*
X116Y423D02*
X127Y423D01*
X155Y423D02*
X166Y423D01*
X1415Y423D02*
X1422Y423D01*
X0Y422D02*
X7Y422D01*
X116Y422D02*
X129Y422D01*
X153Y422D02*
X165Y422D01*
X1415Y422D02*
X1422Y422D01*
X0Y421D02*
X7Y421D01*
X117Y421D02*
X131Y421D01*
X151Y421D02*
X164Y421D01*
X1415Y421D02*
X1422Y421D01*
X0Y420D02*
X7Y420D01*
X118Y420D02*
X133Y420D01*
X149Y420D02*
X163Y420D01*
X1415Y420D02*
X1422Y420D01*
X0Y419D02*
X7Y419D01*
X120Y419D02*
X135Y419D01*
X147Y419D02*
X162Y419D01*
X1415Y419D02*
X1422Y419D01*
X0Y418D02*
X7Y418D01*
X122Y418D02*
X137Y418D01*
X145Y418D02*
X160Y418D01*
X1415Y418D02*
X1422Y418D01*
X0Y417D02*
X7Y417D01*
X124Y417D02*
X158Y417D01*
X1415Y417D02*
X1422Y417D01*
X0Y416D02*
X7Y416D01*
X126Y416D02*
X156Y416D01*
X1415Y416D02*
X1422Y416D01*
X0Y415D02*
X7Y415D01*
X128Y415D02*
X154Y415D01*
X1415Y415D02*
X1422Y415D01*
X0Y414D02*
X7Y414D01*
X130Y414D02*
X152Y414D01*
X1415Y414D02*
X1422Y414D01*
X0Y413D02*
X7Y413D01*
X132Y413D02*
X150Y413D01*
X1415Y413D02*
X1422Y413D01*
X0Y412D02*
X7Y412D01*
X134Y412D02*
X148Y412D01*
X1415Y412D02*
X1422Y412D01*
X0Y411D02*
X7Y411D01*
X137Y411D02*
X145Y411D01*
X1415Y411D02*
X1422Y411D01*
X0Y410D02*
X7Y410D01*
X1415Y410D02*
X1422Y410D01*
X0Y409D02*
X7Y409D01*
X1415Y409D02*
X1422Y409D01*
X0Y408D02*
X7Y408D01*
X1415Y408D02*
X1422Y408D01*
X0Y407D02*
X7Y407D01*
X1415Y407D02*
X1422Y407D01*
X0Y406D02*
X7Y406D01*
X1415Y406D02*
X1422Y406D01*
X0Y405D02*
X7Y405D01*
X1415Y405D02*
X1422Y405D01*
X0Y404D02*
X7Y404D01*
X1415Y404D02*
X1422Y404D01*
X0Y403D02*
X7Y403D01*
X1415Y403D02*
X1422Y403D01*
X0Y402D02*
X7Y402D01*
X1415Y402D02*
X1422Y402D01*
X0Y401D02*
X7Y401D01*
X1415Y401D02*
X1422Y401D01*
X0Y400D02*
X7Y400D01*
X1415Y400D02*
X1422Y400D01*
X0Y399D02*
X7Y399D01*
X1415Y399D02*
X1422Y399D01*
X0Y398D02*
X7Y398D01*
X1415Y398D02*
X1422Y398D01*
X0Y397D02*
X7Y397D01*
X1415Y397D02*
X1422Y397D01*
X0Y396D02*
X7Y396D01*
X1415Y396D02*
X1422Y396D01*
X0Y395D02*
X7Y395D01*
X1415Y395D02*
X1422Y395D01*
X0Y394D02*
X7Y394D01*
X114Y394D02*
X168Y394D01*
X1415Y394D02*
X1422Y394D01*
X0Y393D02*
X7Y393D01*
X114Y393D02*
X168Y393D01*
X1415Y393D02*
X1422Y393D01*
X0Y392D02*
X7Y392D01*
X114Y392D02*
X168Y392D01*
X1415Y392D02*
X1422Y392D01*
X0Y391D02*
X7Y391D01*
X114Y391D02*
X168Y391D01*
X1415Y391D02*
X1422Y391D01*
X0Y390D02*
X7Y390D01*
X114Y390D02*
X168Y390D01*
X1415Y390D02*
X1422Y390D01*
X0Y389D02*
X7Y389D01*
X114Y389D02*
X168Y389D01*
X1415Y389D02*
X1422Y389D01*
X0Y388D02*
X7Y388D01*
X114Y388D02*
X168Y388D01*
X1415Y388D02*
X1422Y388D01*
X0Y387D02*
X7Y387D01*
X114Y387D02*
X120Y387D01*
X138Y387D02*
X144Y387D01*
X161Y387D02*
X168Y387D01*
X1415Y387D02*
X1422Y387D01*
X0Y386D02*
X7Y386D01*
X114Y386D02*
X120Y386D01*
X138Y386D02*
X144Y386D01*
X161Y386D02*
X168Y386D01*
X1415Y386D02*
X1422Y386D01*
X0Y385D02*
X7Y385D01*
X114Y385D02*
X120Y385D01*
X138Y385D02*
X144Y385D01*
X161Y385D02*
X168Y385D01*
X1415Y385D02*
X1422Y385D01*
X0Y384D02*
X7Y384D01*
X114Y384D02*
X120Y384D01*
X138Y384D02*
X144Y384D01*
X161Y384D02*
X168Y384D01*
X1415Y384D02*
X1422Y384D01*
X0Y383D02*
X7Y383D01*
X114Y383D02*
X120Y383D01*
X138Y383D02*
X144Y383D01*
X161Y383D02*
X168Y383D01*
X1415Y383D02*
X1422Y383D01*
X0Y382D02*
X7Y382D01*
X114Y382D02*
X120Y382D01*
X138Y382D02*
X144Y382D01*
X161Y382D02*
X168Y382D01*
X1415Y382D02*
X1422Y382D01*
X0Y381D02*
X7Y381D01*
X114Y381D02*
X120Y381D01*
X138Y381D02*
X144Y381D01*
X161Y381D02*
X168Y381D01*
X1017Y381D02*
X1018Y381D01*
X1064Y381D02*
X1065Y381D01*
X1415Y381D02*
X1422Y381D01*
X0Y380D02*
X7Y380D01*
X114Y380D02*
X120Y380D01*
X138Y380D02*
X144Y380D01*
X161Y380D02*
X168Y380D01*
X1015Y380D02*
X1019Y380D01*
X1062Y380D02*
X1067Y380D01*
X1415Y380D02*
X1422Y380D01*
X0Y379D02*
X7Y379D01*
X114Y379D02*
X120Y379D01*
X138Y379D02*
X144Y379D01*
X161Y379D02*
X168Y379D01*
X1015Y379D02*
X1020Y379D01*
X1062Y379D02*
X1067Y379D01*
X1415Y379D02*
X1422Y379D01*
X0Y378D02*
X7Y378D01*
X114Y378D02*
X120Y378D01*
X138Y378D02*
X144Y378D01*
X161Y378D02*
X168Y378D01*
X447Y378D02*
X464Y378D01*
X1014Y378D02*
X1020Y378D01*
X1062Y378D02*
X1067Y378D01*
X1415Y378D02*
X1422Y378D01*
X0Y377D02*
X7Y377D01*
X114Y377D02*
X120Y377D01*
X138Y377D02*
X144Y377D01*
X161Y377D02*
X168Y377D01*
X445Y377D02*
X466Y377D01*
X716Y377D02*
X766Y377D01*
X1014Y377D02*
X1020Y377D01*
X1061Y377D02*
X1068Y377D01*
X1415Y377D02*
X1422Y377D01*
X0Y376D02*
X7Y376D01*
X114Y376D02*
X120Y376D01*
X138Y376D02*
X144Y376D01*
X161Y376D02*
X168Y376D01*
X444Y376D02*
X467Y376D01*
X715Y376D02*
X767Y376D01*
X1014Y376D02*
X1020Y376D01*
X1061Y376D02*
X1068Y376D01*
X1415Y376D02*
X1422Y376D01*
X0Y375D02*
X7Y375D01*
X114Y375D02*
X120Y375D01*
X139Y375D02*
X143Y375D01*
X161Y375D02*
X168Y375D01*
X444Y375D02*
X467Y375D01*
X715Y375D02*
X767Y375D01*
X1014Y375D02*
X1020Y375D01*
X1061Y375D02*
X1068Y375D01*
X1415Y375D02*
X1422Y375D01*
X0Y374D02*
X7Y374D01*
X114Y374D02*
X120Y374D01*
X140Y374D02*
X142Y374D01*
X161Y374D02*
X168Y374D01*
X444Y374D02*
X468Y374D01*
X714Y374D02*
X767Y374D01*
X1014Y374D02*
X1020Y374D01*
X1040Y374D02*
X1042Y374D01*
X1061Y374D02*
X1068Y374D01*
X1415Y374D02*
X1422Y374D01*
X0Y373D02*
X7Y373D01*
X114Y373D02*
X120Y373D01*
X161Y373D02*
X168Y373D01*
X444Y373D02*
X468Y373D01*
X714Y373D02*
X768Y373D01*
X1014Y373D02*
X1020Y373D01*
X1039Y373D02*
X1043Y373D01*
X1061Y373D02*
X1068Y373D01*
X1415Y373D02*
X1422Y373D01*
X0Y372D02*
X7Y372D01*
X114Y372D02*
X120Y372D01*
X161Y372D02*
X168Y372D01*
X444Y372D02*
X468Y372D01*
X714Y372D02*
X768Y372D01*
X1014Y372D02*
X1020Y372D01*
X1038Y372D02*
X1044Y372D01*
X1061Y372D02*
X1068Y372D01*
X1415Y372D02*
X1422Y372D01*
X0Y371D02*
X7Y371D01*
X114Y371D02*
X120Y371D01*
X161Y371D02*
X168Y371D01*
X444Y371D02*
X450Y371D01*
X461Y371D02*
X468Y371D01*
X714Y371D02*
X768Y371D01*
X1014Y371D02*
X1020Y371D01*
X1038Y371D02*
X1044Y371D01*
X1061Y371D02*
X1068Y371D01*
X1415Y371D02*
X1422Y371D01*
X0Y370D02*
X7Y370D01*
X114Y370D02*
X120Y370D01*
X161Y370D02*
X168Y370D01*
X444Y370D02*
X450Y370D01*
X461Y370D02*
X468Y370D01*
X714Y370D02*
X720Y370D01*
X732Y370D02*
X738Y370D01*
X762Y370D02*
X767Y370D01*
X1014Y370D02*
X1020Y370D01*
X1038Y370D02*
X1044Y370D01*
X1061Y370D02*
X1068Y370D01*
X1415Y370D02*
X1422Y370D01*
X0Y369D02*
X7Y369D01*
X114Y369D02*
X120Y369D01*
X161Y369D02*
X168Y369D01*
X444Y369D02*
X450Y369D01*
X461Y369D02*
X468Y369D01*
X714Y369D02*
X720Y369D01*
X732Y369D02*
X738Y369D01*
X762Y369D02*
X767Y369D01*
X1014Y369D02*
X1020Y369D01*
X1038Y369D02*
X1044Y369D01*
X1061Y369D02*
X1068Y369D01*
X1415Y369D02*
X1422Y369D01*
X0Y368D02*
X7Y368D01*
X114Y368D02*
X120Y368D01*
X161Y368D02*
X168Y368D01*
X444Y368D02*
X450Y368D01*
X461Y368D02*
X468Y368D01*
X714Y368D02*
X720Y368D01*
X732Y368D02*
X738Y368D01*
X763Y368D02*
X766Y368D01*
X1014Y368D02*
X1020Y368D01*
X1038Y368D02*
X1044Y368D01*
X1061Y368D02*
X1068Y368D01*
X1415Y368D02*
X1422Y368D01*
X0Y367D02*
X7Y367D01*
X114Y367D02*
X120Y367D01*
X161Y367D02*
X168Y367D01*
X444Y367D02*
X450Y367D01*
X461Y367D02*
X468Y367D01*
X714Y367D02*
X720Y367D01*
X732Y367D02*
X738Y367D01*
X1014Y367D02*
X1020Y367D01*
X1038Y367D02*
X1044Y367D01*
X1061Y367D02*
X1068Y367D01*
X1415Y367D02*
X1422Y367D01*
X0Y366D02*
X7Y366D01*
X114Y366D02*
X120Y366D01*
X161Y366D02*
X168Y366D01*
X444Y366D02*
X450Y366D01*
X461Y366D02*
X468Y366D01*
X714Y366D02*
X720Y366D01*
X732Y366D02*
X738Y366D01*
X1014Y366D02*
X1020Y366D01*
X1038Y366D02*
X1044Y366D01*
X1061Y366D02*
X1068Y366D01*
X1415Y366D02*
X1422Y366D01*
X0Y365D02*
X7Y365D01*
X114Y365D02*
X120Y365D01*
X161Y365D02*
X168Y365D01*
X444Y365D02*
X450Y365D01*
X461Y365D02*
X468Y365D01*
X714Y365D02*
X720Y365D01*
X732Y365D02*
X738Y365D01*
X1014Y365D02*
X1020Y365D01*
X1038Y365D02*
X1044Y365D01*
X1061Y365D02*
X1068Y365D01*
X1415Y365D02*
X1422Y365D01*
X0Y364D02*
X7Y364D01*
X114Y364D02*
X120Y364D01*
X161Y364D02*
X168Y364D01*
X444Y364D02*
X450Y364D01*
X461Y364D02*
X468Y364D01*
X714Y364D02*
X720Y364D01*
X732Y364D02*
X738Y364D01*
X1014Y364D02*
X1020Y364D01*
X1038Y364D02*
X1044Y364D01*
X1061Y364D02*
X1068Y364D01*
X1415Y364D02*
X1422Y364D01*
X0Y363D02*
X7Y363D01*
X114Y363D02*
X120Y363D01*
X162Y363D02*
X167Y363D01*
X444Y363D02*
X450Y363D01*
X461Y363D02*
X468Y363D01*
X714Y363D02*
X720Y363D01*
X732Y363D02*
X738Y363D01*
X1014Y363D02*
X1020Y363D01*
X1038Y363D02*
X1044Y363D01*
X1061Y363D02*
X1068Y363D01*
X1415Y363D02*
X1422Y363D01*
X0Y362D02*
X7Y362D01*
X115Y362D02*
X120Y362D01*
X162Y362D02*
X167Y362D01*
X444Y362D02*
X450Y362D01*
X461Y362D02*
X468Y362D01*
X714Y362D02*
X720Y362D01*
X732Y362D02*
X738Y362D01*
X1014Y362D02*
X1020Y362D01*
X1038Y362D02*
X1044Y362D01*
X1061Y362D02*
X1068Y362D01*
X1415Y362D02*
X1422Y362D01*
X0Y361D02*
X7Y361D01*
X115Y361D02*
X119Y361D01*
X163Y361D02*
X166Y361D01*
X444Y361D02*
X450Y361D01*
X461Y361D02*
X468Y361D01*
X714Y361D02*
X720Y361D01*
X732Y361D02*
X738Y361D01*
X1014Y361D02*
X1020Y361D01*
X1038Y361D02*
X1044Y361D01*
X1061Y361D02*
X1068Y361D01*
X1415Y361D02*
X1422Y361D01*
X0Y360D02*
X7Y360D01*
X117Y360D02*
X117Y360D01*
X444Y360D02*
X450Y360D01*
X461Y360D02*
X468Y360D01*
X714Y360D02*
X720Y360D01*
X732Y360D02*
X738Y360D01*
X1014Y360D02*
X1020Y360D01*
X1038Y360D02*
X1044Y360D01*
X1061Y360D02*
X1068Y360D01*
X1415Y360D02*
X1422Y360D01*
X0Y359D02*
X7Y359D01*
X444Y359D02*
X450Y359D01*
X461Y359D02*
X468Y359D01*
X714Y359D02*
X720Y359D01*
X732Y359D02*
X738Y359D01*
X1014Y359D02*
X1020Y359D01*
X1038Y359D02*
X1044Y359D01*
X1061Y359D02*
X1068Y359D01*
X1415Y359D02*
X1422Y359D01*
X0Y358D02*
X7Y358D01*
X444Y358D02*
X450Y358D01*
X461Y358D02*
X468Y358D01*
X714Y358D02*
X720Y358D01*
X732Y358D02*
X738Y358D01*
X1014Y358D02*
X1020Y358D01*
X1038Y358D02*
X1044Y358D01*
X1061Y358D02*
X1068Y358D01*
X1415Y358D02*
X1422Y358D01*
X0Y357D02*
X7Y357D01*
X444Y357D02*
X450Y357D01*
X461Y357D02*
X468Y357D01*
X714Y357D02*
X720Y357D01*
X732Y357D02*
X738Y357D01*
X1014Y357D02*
X1020Y357D01*
X1038Y357D02*
X1044Y357D01*
X1061Y357D02*
X1068Y357D01*
X1415Y357D02*
X1422Y357D01*
X0Y356D02*
X7Y356D01*
X444Y356D02*
X450Y356D01*
X461Y356D02*
X468Y356D01*
X714Y356D02*
X720Y356D01*
X732Y356D02*
X738Y356D01*
X1014Y356D02*
X1020Y356D01*
X1038Y356D02*
X1044Y356D01*
X1061Y356D02*
X1068Y356D01*
X1415Y356D02*
X1422Y356D01*
X0Y355D02*
X7Y355D01*
X444Y355D02*
X450Y355D01*
X461Y355D02*
X468Y355D01*
X714Y355D02*
X720Y355D01*
X732Y355D02*
X738Y355D01*
X1014Y355D02*
X1020Y355D01*
X1037Y355D02*
X1045Y355D01*
X1061Y355D02*
X1068Y355D01*
X1415Y355D02*
X1422Y355D01*
X0Y354D02*
X7Y354D01*
X444Y354D02*
X450Y354D01*
X461Y354D02*
X468Y354D01*
X714Y354D02*
X720Y354D01*
X732Y354D02*
X738Y354D01*
X1014Y354D02*
X1020Y354D01*
X1036Y354D02*
X1046Y354D01*
X1061Y354D02*
X1068Y354D01*
X1415Y354D02*
X1422Y354D01*
X0Y353D02*
X7Y353D01*
X416Y353D02*
X419Y353D01*
X444Y353D02*
X450Y353D01*
X461Y353D02*
X468Y353D01*
X714Y353D02*
X720Y353D01*
X732Y353D02*
X738Y353D01*
X1014Y353D02*
X1067Y353D01*
X1415Y353D02*
X1422Y353D01*
X0Y352D02*
X7Y352D01*
X415Y352D02*
X420Y352D01*
X444Y352D02*
X450Y352D01*
X461Y352D02*
X468Y352D01*
X714Y352D02*
X720Y352D01*
X732Y352D02*
X738Y352D01*
X1015Y352D02*
X1067Y352D01*
X1415Y352D02*
X1422Y352D01*
X0Y351D02*
X7Y351D01*
X414Y351D02*
X420Y351D01*
X444Y351D02*
X450Y351D01*
X461Y351D02*
X468Y351D01*
X714Y351D02*
X720Y351D01*
X732Y351D02*
X738Y351D01*
X1015Y351D02*
X1067Y351D01*
X1415Y351D02*
X1422Y351D01*
X0Y350D02*
X7Y350D01*
X414Y350D02*
X468Y350D01*
X714Y350D02*
X721Y350D01*
X732Y350D02*
X738Y350D01*
X1015Y350D02*
X1066Y350D01*
X1415Y350D02*
X1422Y350D01*
X0Y349D02*
X7Y349D01*
X414Y349D02*
X468Y349D01*
X714Y349D02*
X738Y349D01*
X1016Y349D02*
X1040Y349D01*
X1042Y349D02*
X1066Y349D01*
X1415Y349D02*
X1422Y349D01*
X0Y348D02*
X7Y348D01*
X414Y348D02*
X468Y348D01*
X714Y348D02*
X738Y348D01*
X1017Y348D02*
X1038Y348D01*
X1043Y348D02*
X1064Y348D01*
X1415Y348D02*
X1422Y348D01*
X0Y347D02*
X7Y347D01*
X414Y347D02*
X467Y347D01*
X714Y347D02*
X738Y347D01*
X1019Y347D02*
X1036Y347D01*
X1046Y347D02*
X1063Y347D01*
X1415Y347D02*
X1422Y347D01*
X0Y346D02*
X7Y346D01*
X415Y346D02*
X467Y346D01*
X714Y346D02*
X738Y346D01*
X1415Y346D02*
X1422Y346D01*
X0Y345D02*
X7Y345D01*
X415Y345D02*
X467Y345D01*
X715Y345D02*
X738Y345D01*
X1415Y345D02*
X1422Y345D01*
X0Y344D02*
X7Y344D01*
X114Y344D02*
X165Y344D01*
X416Y344D02*
X466Y344D01*
X715Y344D02*
X737Y344D01*
X1415Y344D02*
X1422Y344D01*
X0Y343D02*
X7Y343D01*
X114Y343D02*
X167Y343D01*
X718Y343D02*
X735Y343D01*
X1415Y343D02*
X1422Y343D01*
X0Y342D02*
X7Y342D01*
X114Y342D02*
X167Y342D01*
X1415Y342D02*
X1422Y342D01*
X0Y341D02*
X7Y341D01*
X114Y341D02*
X167Y341D01*
X1415Y341D02*
X1422Y341D01*
X0Y340D02*
X7Y340D01*
X114Y340D02*
X167Y340D01*
X1415Y340D02*
X1422Y340D01*
X0Y339D02*
X7Y339D01*
X114Y339D02*
X167Y339D01*
X1415Y339D02*
X1422Y339D01*
X0Y338D02*
X7Y338D01*
X114Y338D02*
X166Y338D01*
X1415Y338D02*
X1422Y338D01*
X0Y337D02*
X7Y337D01*
X114Y337D02*
X120Y337D01*
X1415Y337D02*
X1422Y337D01*
X0Y336D02*
X7Y336D01*
X114Y336D02*
X120Y336D01*
X1415Y336D02*
X1422Y336D01*
X0Y335D02*
X7Y335D01*
X114Y335D02*
X120Y335D01*
X1415Y335D02*
X1422Y335D01*
X0Y334D02*
X7Y334D01*
X114Y334D02*
X120Y334D01*
X1415Y334D02*
X1422Y334D01*
X0Y333D02*
X7Y333D01*
X114Y333D02*
X120Y333D01*
X1415Y333D02*
X1422Y333D01*
X0Y332D02*
X7Y332D01*
X114Y332D02*
X120Y332D01*
X1415Y332D02*
X1422Y332D01*
X0Y331D02*
X7Y331D01*
X114Y331D02*
X120Y331D01*
X1415Y331D02*
X1422Y331D01*
X0Y330D02*
X7Y330D01*
X114Y330D02*
X120Y330D01*
X1415Y330D02*
X1422Y330D01*
X0Y329D02*
X7Y329D01*
X114Y329D02*
X120Y329D01*
X1415Y329D02*
X1422Y329D01*
X0Y328D02*
X7Y328D01*
X114Y328D02*
X120Y328D01*
X1415Y328D02*
X1422Y328D01*
X0Y327D02*
X7Y327D01*
X114Y327D02*
X120Y327D01*
X1415Y327D02*
X1422Y327D01*
X0Y326D02*
X7Y326D01*
X114Y326D02*
X120Y326D01*
X1415Y326D02*
X1422Y326D01*
X0Y325D02*
X7Y325D01*
X114Y325D02*
X120Y325D01*
X1415Y325D02*
X1422Y325D01*
X0Y324D02*
X7Y324D01*
X114Y324D02*
X120Y324D01*
X1415Y324D02*
X1422Y324D01*
X0Y323D02*
X7Y323D01*
X114Y323D02*
X120Y323D01*
X1415Y323D02*
X1422Y323D01*
X0Y322D02*
X7Y322D01*
X114Y322D02*
X120Y322D01*
X1415Y322D02*
X1422Y322D01*
X0Y321D02*
X6Y321D01*
X114Y321D02*
X120Y321D01*
X1415Y321D02*
X1422Y321D01*
X0Y320D02*
X6Y320D01*
X114Y320D02*
X120Y320D01*
X1415Y320D02*
X1422Y320D01*
X0Y319D02*
X6Y319D01*
X114Y319D02*
X120Y319D01*
X1415Y319D02*
X1422Y319D01*
X0Y318D02*
X5Y318D01*
X114Y318D02*
X120Y318D01*
X1415Y318D02*
X1422Y318D01*
X0Y317D02*
X5Y317D01*
X114Y317D02*
X120Y317D01*
X1415Y317D02*
X1422Y317D01*
X0Y316D02*
X5Y316D01*
X114Y316D02*
X120Y316D01*
X1415Y316D02*
X1422Y316D01*
X0Y315D02*
X4Y315D01*
X114Y315D02*
X120Y315D01*
X1415Y315D02*
X1422Y315D01*
X0Y314D02*
X4Y314D01*
X114Y314D02*
X120Y314D01*
X1415Y314D02*
X1422Y314D01*
X0Y313D02*
X4Y313D01*
X114Y313D02*
X120Y313D01*
X1415Y313D02*
X1422Y313D01*
X0Y312D02*
X4Y312D01*
X115Y312D02*
X120Y312D01*
X1415Y312D02*
X1422Y312D01*
X0Y311D02*
X3Y311D01*
X115Y311D02*
X119Y311D01*
X1415Y311D02*
X1422Y311D01*
X0Y310D02*
X3Y310D01*
X117Y310D02*
X118Y310D01*
X1415Y310D02*
X1422Y310D01*
X0Y309D02*
X3Y309D01*
X1415Y309D02*
X1422Y309D01*
X0Y308D02*
X3Y308D01*
X1415Y308D02*
X1422Y308D01*
X0Y307D02*
X3Y307D01*
X1415Y307D02*
X1422Y307D01*
X0Y306D02*
X3Y306D01*
X1415Y306D02*
X1422Y306D01*
X0Y305D02*
X3Y305D01*
X1415Y305D02*
X1422Y305D01*
X0Y304D02*
X3Y304D01*
X1415Y304D02*
X1422Y304D01*
X0Y303D02*
X3Y303D01*
X1415Y303D02*
X1422Y303D01*
X0Y302D02*
X3Y302D01*
X1415Y302D02*
X1422Y302D01*
X0Y301D02*
X3Y301D01*
X1415Y301D02*
X1422Y301D01*
X0Y300D02*
X3Y300D01*
X1415Y300D02*
X1422Y300D01*
X0Y299D02*
X4Y299D01*
X1415Y299D02*
X1422Y299D01*
X0Y298D02*
X4Y298D01*
X1415Y298D02*
X1422Y298D01*
X0Y297D02*
X4Y297D01*
X1415Y297D02*
X1422Y297D01*
X0Y296D02*
X4Y296D01*
X1415Y296D02*
X1422Y296D01*
X0Y295D02*
X5Y295D01*
X1415Y295D02*
X1422Y295D01*
X0Y294D02*
X5Y294D01*
X1415Y294D02*
X1422Y294D01*
X0Y293D02*
X5Y293D01*
X1415Y293D02*
X1422Y293D01*
X0Y292D02*
X6Y292D01*
X1415Y292D02*
X1422Y292D01*
X0Y291D02*
X6Y291D01*
X1415Y291D02*
X1422Y291D01*
X0Y290D02*
X6Y290D01*
X1415Y290D02*
X1422Y290D01*
X0Y289D02*
X7Y289D01*
X1415Y289D02*
X1422Y289D01*
X0Y288D02*
X7Y288D01*
X1415Y288D02*
X1422Y288D01*
X0Y287D02*
X7Y287D01*
X1415Y287D02*
X1422Y287D01*
X0Y286D02*
X7Y286D01*
X1415Y286D02*
X1422Y286D01*
X0Y285D02*
X7Y285D01*
X1415Y285D02*
X1422Y285D01*
X0Y284D02*
X7Y284D01*
X1415Y284D02*
X1422Y284D01*
X0Y283D02*
X7Y283D01*
X1415Y283D02*
X1422Y283D01*
X0Y282D02*
X7Y282D01*
X1415Y282D02*
X1422Y282D01*
X0Y281D02*
X7Y281D01*
X1415Y281D02*
X1422Y281D01*
X0Y280D02*
X7Y280D01*
X1415Y280D02*
X1422Y280D01*
X0Y279D02*
X7Y279D01*
X1415Y279D02*
X1422Y279D01*
X0Y278D02*
X7Y278D01*
X1415Y278D02*
X1422Y278D01*
X0Y277D02*
X7Y277D01*
X1415Y277D02*
X1422Y277D01*
X0Y276D02*
X7Y276D01*
X1415Y276D02*
X1422Y276D01*
X0Y275D02*
X7Y275D01*
X1415Y275D02*
X1422Y275D01*
X0Y274D02*
X7Y274D01*
X1415Y274D02*
X1422Y274D01*
X0Y273D02*
X7Y273D01*
X1415Y273D02*
X1422Y273D01*
X0Y272D02*
X7Y272D01*
X1415Y272D02*
X1422Y272D01*
X0Y271D02*
X7Y271D01*
X1415Y271D02*
X1422Y271D01*
X0Y270D02*
X7Y270D01*
X1415Y270D02*
X1422Y270D01*
X0Y269D02*
X7Y269D01*
X1415Y269D02*
X1422Y269D01*
X0Y268D02*
X7Y268D01*
X1415Y268D02*
X1422Y268D01*
X0Y267D02*
X7Y267D01*
X1415Y267D02*
X1422Y267D01*
X0Y266D02*
X7Y266D01*
X1415Y266D02*
X1422Y266D01*
X0Y265D02*
X7Y265D01*
X1415Y265D02*
X1422Y265D01*
X0Y264D02*
X7Y264D01*
X1415Y264D02*
X1422Y264D01*
X0Y263D02*
X7Y263D01*
X1415Y263D02*
X1422Y263D01*
X0Y262D02*
X7Y262D01*
X1415Y262D02*
X1422Y262D01*
X0Y261D02*
X7Y261D01*
X1415Y261D02*
X1422Y261D01*
X0Y260D02*
X7Y260D01*
X1415Y260D02*
X1422Y260D01*
X0Y259D02*
X7Y259D01*
X1415Y259D02*
X1422Y259D01*
X0Y258D02*
X7Y258D01*
X1415Y258D02*
X1422Y258D01*
X0Y257D02*
X7Y257D01*
X1415Y257D02*
X1422Y257D01*
X0Y256D02*
X7Y256D01*
X1415Y256D02*
X1422Y256D01*
X0Y255D02*
X7Y255D01*
X1415Y255D02*
X1422Y255D01*
X0Y254D02*
X7Y254D01*
X1415Y254D02*
X1422Y254D01*
X0Y253D02*
X7Y253D01*
X1415Y253D02*
X1422Y253D01*
X0Y252D02*
X7Y252D01*
X1415Y252D02*
X1422Y252D01*
X0Y251D02*
X7Y251D01*
X1415Y251D02*
X1422Y251D01*
X0Y250D02*
X7Y250D01*
X1415Y250D02*
X1422Y250D01*
X0Y249D02*
X7Y249D01*
X1415Y249D02*
X1422Y249D01*
X0Y248D02*
X7Y248D01*
X1415Y248D02*
X1422Y248D01*
X0Y247D02*
X7Y247D01*
X1415Y247D02*
X1422Y247D01*
X0Y246D02*
X7Y246D01*
X1415Y246D02*
X1422Y246D01*
X0Y245D02*
X7Y245D01*
X1415Y245D02*
X1422Y245D01*
X0Y244D02*
X7Y244D01*
X1415Y244D02*
X1422Y244D01*
X0Y243D02*
X7Y243D01*
X1415Y243D02*
X1422Y243D01*
X0Y242D02*
X7Y242D01*
X1415Y242D02*
X1422Y242D01*
X0Y241D02*
X7Y241D01*
X1415Y241D02*
X1422Y241D01*
X0Y240D02*
X7Y240D01*
X1415Y240D02*
X1422Y240D01*
X0Y239D02*
X7Y239D01*
X1415Y239D02*
X1422Y239D01*
X0Y238D02*
X7Y238D01*
X1415Y238D02*
X1422Y238D01*
X0Y237D02*
X7Y237D01*
X1415Y237D02*
X1422Y237D01*
X0Y236D02*
X7Y236D01*
X1415Y236D02*
X1422Y236D01*
X0Y235D02*
X7Y235D01*
X1415Y235D02*
X1422Y235D01*
X0Y234D02*
X7Y234D01*
X1415Y234D02*
X1422Y234D01*
X0Y233D02*
X7Y233D01*
X1415Y233D02*
X1422Y233D01*
X0Y232D02*
X7Y232D01*
X1415Y232D02*
X1422Y232D01*
X0Y231D02*
X7Y231D01*
X1415Y231D02*
X1422Y231D01*
X0Y230D02*
X7Y230D01*
X1415Y230D02*
X1422Y230D01*
X0Y229D02*
X7Y229D01*
X1415Y229D02*
X1422Y229D01*
X0Y228D02*
X7Y228D01*
X1415Y228D02*
X1422Y228D01*
X0Y227D02*
X7Y227D01*
X1415Y227D02*
X1422Y227D01*
X0Y226D02*
X7Y226D01*
X1415Y226D02*
X1422Y226D01*
X0Y225D02*
X7Y225D01*
X1415Y225D02*
X1422Y225D01*
X0Y224D02*
X7Y224D01*
X1415Y224D02*
X1422Y224D01*
X0Y223D02*
X7Y223D01*
X1415Y223D02*
X1422Y223D01*
X0Y222D02*
X7Y222D01*
X1415Y222D02*
X1422Y222D01*
X0Y221D02*
X7Y221D01*
X1415Y221D02*
X1422Y221D01*
X0Y220D02*
X7Y220D01*
X1415Y220D02*
X1422Y220D01*
X0Y219D02*
X7Y219D01*
X1415Y219D02*
X1422Y219D01*
X0Y218D02*
X7Y218D01*
X1415Y218D02*
X1422Y218D01*
X0Y217D02*
X7Y217D01*
X1415Y217D02*
X1422Y217D01*
X0Y216D02*
X7Y216D01*
X1415Y216D02*
X1422Y216D01*
X0Y215D02*
X7Y215D01*
X1415Y215D02*
X1422Y215D01*
X0Y214D02*
X7Y214D01*
X1415Y214D02*
X1422Y214D01*
X0Y213D02*
X7Y213D01*
X1415Y213D02*
X1422Y213D01*
X0Y212D02*
X7Y212D01*
X1415Y212D02*
X1422Y212D01*
X0Y211D02*
X7Y211D01*
X1415Y211D02*
X1422Y211D01*
X0Y210D02*
X7Y210D01*
X1415Y210D02*
X1422Y210D01*
X0Y209D02*
X7Y209D01*
X1415Y209D02*
X1422Y209D01*
X0Y208D02*
X7Y208D01*
X1415Y208D02*
X1422Y208D01*
X0Y207D02*
X7Y207D01*
X1415Y207D02*
X1422Y207D01*
X0Y206D02*
X7Y206D01*
X1415Y206D02*
X1422Y206D01*
X0Y205D02*
X7Y205D01*
X1415Y205D02*
X1422Y205D01*
X0Y204D02*
X7Y204D01*
X1415Y204D02*
X1422Y204D01*
X0Y203D02*
X7Y203D01*
X1415Y203D02*
X1422Y203D01*
X0Y202D02*
X7Y202D01*
X1415Y202D02*
X1422Y202D01*
X0Y201D02*
X7Y201D01*
X1415Y201D02*
X1422Y201D01*
X0Y200D02*
X7Y200D01*
X1415Y200D02*
X1422Y200D01*
X0Y199D02*
X7Y199D01*
X1415Y199D02*
X1422Y199D01*
X0Y198D02*
X7Y198D01*
X1415Y198D02*
X1422Y198D01*
X0Y197D02*
X7Y197D01*
X1415Y197D02*
X1422Y197D01*
X0Y196D02*
X7Y196D01*
X1415Y196D02*
X1422Y196D01*
X0Y195D02*
X7Y195D01*
X1415Y195D02*
X1422Y195D01*
X0Y194D02*
X7Y194D01*
X1415Y194D02*
X1422Y194D01*
X0Y193D02*
X7Y193D01*
X1415Y193D02*
X1422Y193D01*
X0Y192D02*
X7Y192D01*
X1415Y192D02*
X1422Y192D01*
X0Y191D02*
X7Y191D01*
X1415Y191D02*
X1422Y191D01*
X0Y190D02*
X7Y190D01*
X1415Y190D02*
X1422Y190D01*
X0Y189D02*
X7Y189D01*
X1415Y189D02*
X1422Y189D01*
X0Y188D02*
X7Y188D01*
X1415Y188D02*
X1422Y188D01*
X0Y187D02*
X7Y187D01*
X1415Y187D02*
X1422Y187D01*
X0Y186D02*
X7Y186D01*
X1415Y186D02*
X1422Y186D01*
X0Y185D02*
X7Y185D01*
X1415Y185D02*
X1422Y185D01*
X0Y184D02*
X7Y184D01*
X1415Y184D02*
X1422Y184D01*
X0Y183D02*
X7Y183D01*
X1415Y183D02*
X1422Y183D01*
X0Y182D02*
X7Y182D01*
X1415Y182D02*
X1422Y182D01*
X0Y181D02*
X7Y181D01*
X1415Y181D02*
X1422Y181D01*
X0Y180D02*
X7Y180D01*
X1415Y180D02*
X1422Y180D01*
X0Y179D02*
X7Y179D01*
X1415Y179D02*
X1422Y179D01*
X0Y178D02*
X7Y178D01*
X1415Y178D02*
X1422Y178D01*
X0Y177D02*
X7Y177D01*
X1415Y177D02*
X1422Y177D01*
X0Y176D02*
X7Y176D01*
X1415Y176D02*
X1422Y176D01*
X0Y175D02*
X7Y175D01*
X1415Y175D02*
X1422Y175D01*
X0Y174D02*
X7Y174D01*
X1415Y174D02*
X1422Y174D01*
X0Y173D02*
X7Y173D01*
X1415Y173D02*
X1422Y173D01*
X0Y172D02*
X7Y172D01*
X1415Y172D02*
X1422Y172D01*
X0Y171D02*
X7Y171D01*
X1415Y171D02*
X1422Y171D01*
X0Y170D02*
X7Y170D01*
X1415Y170D02*
X1422Y170D01*
X0Y169D02*
X7Y169D01*
X1415Y169D02*
X1422Y169D01*
X0Y168D02*
X7Y168D01*
X1415Y168D02*
X1422Y168D01*
X0Y167D02*
X7Y167D01*
X1415Y167D02*
X1422Y167D01*
X0Y166D02*
X7Y166D01*
X1415Y166D02*
X1422Y166D01*
X0Y165D02*
X7Y165D01*
X1415Y165D02*
X1422Y165D01*
X0Y164D02*
X7Y164D01*
X1415Y164D02*
X1422Y164D01*
X0Y163D02*
X7Y163D01*
X1415Y163D02*
X1422Y163D01*
X0Y162D02*
X7Y162D01*
X1415Y162D02*
X1422Y162D01*
X0Y161D02*
X7Y161D01*
X1415Y161D02*
X1422Y161D01*
X0Y160D02*
X7Y160D01*
X1415Y160D02*
X1422Y160D01*
X0Y159D02*
X7Y159D01*
X1415Y159D02*
X1422Y159D01*
X0Y158D02*
X7Y158D01*
X1415Y158D02*
X1422Y158D01*
X0Y157D02*
X7Y157D01*
X1415Y157D02*
X1422Y157D01*
X0Y156D02*
X7Y156D01*
X1415Y156D02*
X1422Y156D01*
X0Y155D02*
X7Y155D01*
X1415Y155D02*
X1422Y155D01*
X0Y154D02*
X7Y154D01*
X1415Y154D02*
X1422Y154D01*
X0Y153D02*
X7Y153D01*
X1415Y153D02*
X1422Y153D01*
X0Y152D02*
X7Y152D01*
X1415Y152D02*
X1422Y152D01*
X0Y151D02*
X7Y151D01*
X1415Y151D02*
X1422Y151D01*
X0Y150D02*
X7Y150D01*
X1415Y150D02*
X1422Y150D01*
X0Y149D02*
X7Y149D01*
X1415Y149D02*
X1422Y149D01*
X0Y148D02*
X7Y148D01*
X1415Y148D02*
X1422Y148D01*
X0Y147D02*
X7Y147D01*
X1415Y147D02*
X1422Y147D01*
X0Y146D02*
X7Y146D01*
X1415Y146D02*
X1422Y146D01*
X0Y145D02*
X7Y145D01*
X1415Y145D02*
X1422Y145D01*
X0Y144D02*
X7Y144D01*
X1415Y144D02*
X1422Y144D01*
X0Y143D02*
X7Y143D01*
X1415Y143D02*
X1422Y143D01*
X0Y142D02*
X7Y142D01*
X1415Y142D02*
X1422Y142D01*
X0Y141D02*
X7Y141D01*
X1415Y141D02*
X1422Y141D01*
X0Y140D02*
X7Y140D01*
X1415Y140D02*
X1422Y140D01*
X0Y139D02*
X7Y139D01*
X1415Y139D02*
X1422Y139D01*
X0Y138D02*
X7Y138D01*
X1415Y138D02*
X1422Y138D01*
X0Y137D02*
X7Y137D01*
X1415Y137D02*
X1422Y137D01*
X0Y136D02*
X7Y136D01*
X1415Y136D02*
X1422Y136D01*
X0Y135D02*
X7Y135D01*
X1415Y135D02*
X1422Y135D01*
X0Y134D02*
X7Y134D01*
X1415Y134D02*
X1422Y134D01*
X0Y133D02*
X7Y133D01*
X1415Y133D02*
X1422Y133D01*
X0Y132D02*
X7Y132D01*
X1415Y132D02*
X1422Y132D01*
X0Y131D02*
X7Y131D01*
X1415Y131D02*
X1422Y131D01*
X0Y130D02*
X7Y130D01*
X1415Y130D02*
X1422Y130D01*
X0Y129D02*
X7Y129D01*
X1415Y129D02*
X1422Y129D01*
X0Y128D02*
X7Y128D01*
X1415Y128D02*
X1422Y128D01*
X0Y127D02*
X7Y127D01*
X1415Y127D02*
X1422Y127D01*
X0Y126D02*
X7Y126D01*
X1415Y126D02*
X1422Y126D01*
X0Y125D02*
X7Y125D01*
X1415Y125D02*
X1422Y125D01*
X0Y124D02*
X7Y124D01*
X1415Y124D02*
X1422Y124D01*
X0Y123D02*
X7Y123D01*
X1415Y123D02*
X1422Y123D01*
X0Y122D02*
X7Y122D01*
X1415Y122D02*
X1422Y122D01*
X0Y121D02*
X7Y121D01*
X1415Y121D02*
X1422Y121D01*
X0Y120D02*
X7Y120D01*
X1415Y120D02*
X1422Y120D01*
X0Y119D02*
X7Y119D01*
X1415Y119D02*
X1422Y119D01*
X0Y118D02*
X7Y118D01*
X1415Y118D02*
X1422Y118D01*
X0Y117D02*
X7Y117D01*
X1415Y117D02*
X1422Y117D01*
X0Y116D02*
X7Y116D01*
X1415Y116D02*
X1422Y116D01*
X0Y115D02*
X7Y115D01*
X1415Y115D02*
X1422Y115D01*
X0Y114D02*
X7Y114D01*
X1415Y114D02*
X1422Y114D01*
X0Y113D02*
X7Y113D01*
X1415Y113D02*
X1422Y113D01*
X0Y112D02*
X7Y112D01*
X1415Y112D02*
X1422Y112D01*
X0Y111D02*
X7Y111D01*
X1415Y111D02*
X1422Y111D01*
X0Y110D02*
X7Y110D01*
X1415Y110D02*
X1422Y110D01*
X0Y109D02*
X7Y109D01*
X1415Y109D02*
X1422Y109D01*
X0Y108D02*
X7Y108D01*
X1415Y108D02*
X1422Y108D01*
X0Y107D02*
X7Y107D01*
X1415Y107D02*
X1422Y107D01*
X0Y106D02*
X7Y106D01*
X1415Y106D02*
X1422Y106D01*
X0Y105D02*
X7Y105D01*
X1415Y105D02*
X1422Y105D01*
X0Y104D02*
X7Y104D01*
X1415Y104D02*
X1422Y104D01*
X0Y103D02*
X7Y103D01*
X1415Y103D02*
X1422Y103D01*
X0Y102D02*
X7Y102D01*
X1415Y102D02*
X1422Y102D01*
X0Y101D02*
X7Y101D01*
X1415Y101D02*
X1422Y101D01*
X0Y100D02*
X7Y100D01*
X1415Y100D02*
X1422Y100D01*
X0Y99D02*
X7Y99D01*
X1415Y99D02*
X1422Y99D01*
X0Y98D02*
X7Y98D01*
X1415Y98D02*
X1422Y98D01*
X0Y97D02*
X7Y97D01*
X1415Y97D02*
X1422Y97D01*
X0Y96D02*
X7Y96D01*
X1415Y96D02*
X1422Y96D01*
X0Y95D02*
X7Y95D01*
X1415Y95D02*
X1422Y95D01*
X0Y94D02*
X7Y94D01*
X1415Y94D02*
X1422Y94D01*
X0Y93D02*
X7Y93D01*
X1415Y93D02*
X1422Y93D01*
X0Y92D02*
X7Y92D01*
X1415Y92D02*
X1422Y92D01*
X0Y91D02*
X7Y91D01*
X1415Y91D02*
X1422Y91D01*
X0Y90D02*
X7Y90D01*
X1415Y90D02*
X1422Y90D01*
X0Y89D02*
X7Y89D01*
X1415Y89D02*
X1422Y89D01*
X0Y88D02*
X7Y88D01*
X1415Y88D02*
X1422Y88D01*
X0Y87D02*
X7Y87D01*
X1415Y87D02*
X1422Y87D01*
X0Y86D02*
X7Y86D01*
X1415Y86D02*
X1422Y86D01*
X0Y85D02*
X7Y85D01*
X1415Y85D02*
X1422Y85D01*
X0Y84D02*
X7Y84D01*
X1415Y84D02*
X1422Y84D01*
X0Y83D02*
X7Y83D01*
X1415Y83D02*
X1422Y83D01*
X0Y82D02*
X7Y82D01*
X1415Y82D02*
X1422Y82D01*
X0Y81D02*
X7Y81D01*
X1415Y81D02*
X1422Y81D01*
X0Y80D02*
X7Y80D01*
X1415Y80D02*
X1422Y80D01*
X0Y79D02*
X7Y79D01*
X1415Y79D02*
X1422Y79D01*
X0Y78D02*
X7Y78D01*
X1415Y78D02*
X1422Y78D01*
X0Y77D02*
X7Y77D01*
X1415Y77D02*
X1422Y77D01*
X0Y76D02*
X7Y76D01*
X1415Y76D02*
X1422Y76D01*
X0Y75D02*
X7Y75D01*
X1415Y75D02*
X1422Y75D01*
X0Y74D02*
X7Y74D01*
X1415Y74D02*
X1422Y74D01*
X0Y73D02*
X7Y73D01*
X1415Y73D02*
X1422Y73D01*
X0Y72D02*
X7Y72D01*
X1415Y72D02*
X1422Y72D01*
X0Y71D02*
X7Y71D01*
X1415Y71D02*
X1422Y71D01*
X0Y70D02*
X7Y70D01*
X1415Y70D02*
X1422Y70D01*
X0Y69D02*
X7Y69D01*
X1415Y69D02*
X1422Y69D01*
X0Y68D02*
X7Y68D01*
X1415Y68D02*
X1422Y68D01*
X0Y67D02*
X7Y67D01*
X1415Y67D02*
X1422Y67D01*
X0Y66D02*
X7Y66D01*
X1415Y66D02*
X1422Y66D01*
X0Y65D02*
X6Y65D01*
X1415Y65D02*
X1422Y65D01*
X0Y64D02*
X6Y64D01*
X1415Y64D02*
X1422Y64D01*
X0Y63D02*
X6Y63D01*
X1415Y63D02*
X1422Y63D01*
X0Y62D02*
X5Y62D01*
X1415Y62D02*
X1422Y62D01*
X0Y61D02*
X5Y61D01*
X1415Y61D02*
X1422Y61D01*
X0Y60D02*
X5Y60D01*
X1415Y60D02*
X1422Y60D01*
X0Y59D02*
X4Y59D01*
X1415Y59D02*
X1422Y59D01*
X0Y58D02*
X4Y58D01*
X1415Y58D02*
X1422Y58D01*
X0Y57D02*
X4Y57D01*
X1415Y57D02*
X1422Y57D01*
X0Y56D02*
X4Y56D01*
X1415Y56D02*
X1422Y56D01*
X0Y55D02*
X3Y55D01*
X1415Y55D02*
X1422Y55D01*
X0Y54D02*
X3Y54D01*
X1415Y54D02*
X1422Y54D01*
X0Y53D02*
X3Y53D01*
X1415Y53D02*
X1422Y53D01*
X0Y52D02*
X3Y52D01*
X1415Y52D02*
X1422Y52D01*
X0Y51D02*
X3Y51D01*
X1415Y51D02*
X1422Y51D01*
X0Y50D02*
X3Y50D01*
X1415Y50D02*
X1422Y50D01*
X0Y49D02*
X3Y49D01*
X1415Y49D02*
X1422Y49D01*
X0Y48D02*
X3Y48D01*
X1415Y48D02*
X1422Y48D01*
X0Y47D02*
X3Y47D01*
X1415Y47D02*
X1422Y47D01*
X0Y46D02*
X3Y46D01*
X1415Y46D02*
X1422Y46D01*
X0Y45D02*
X3Y45D01*
X1415Y45D02*
X1422Y45D01*
X0Y44D02*
X3Y44D01*
X1415Y44D02*
X1422Y44D01*
X0Y43D02*
X4Y43D01*
X1415Y43D02*
X1422Y43D01*
X0Y42D02*
X4Y42D01*
X1415Y42D02*
X1422Y42D01*
X0Y41D02*
X4Y41D01*
X1415Y41D02*
X1422Y41D01*
X0Y40D02*
X4Y40D01*
X1415Y40D02*
X1422Y40D01*
X0Y39D02*
X5Y39D01*
X1415Y39D02*
X1422Y39D01*
X0Y38D02*
X5Y38D01*
X1415Y38D02*
X1422Y38D01*
X0Y37D02*
X5Y37D01*
X1415Y37D02*
X1422Y37D01*
X0Y36D02*
X6Y36D01*
X1415Y36D02*
X1422Y36D01*
X0Y35D02*
X6Y35D01*
X1415Y35D02*
X1422Y35D01*
X0Y34D02*
X6Y34D01*
X1415Y34D02*
X1422Y34D01*
X0Y33D02*
X7Y33D01*
X1415Y33D02*
X1422Y33D01*
X0Y32D02*
X7Y32D01*
X1415Y32D02*
X1422Y32D01*
X0Y31D02*
X7Y31D01*
X1415Y31D02*
X1422Y31D01*
X0Y30D02*
X7Y30D01*
X1415Y30D02*
X1422Y30D01*
X0Y29D02*
X7Y29D01*
X1415Y29D02*
X1422Y29D01*
X0Y28D02*
X7Y28D01*
X1415Y28D02*
X1422Y28D01*
X0Y27D02*
X7Y27D01*
X1415Y27D02*
X1422Y27D01*
X0Y26D02*
X7Y26D01*
X1415Y26D02*
X1422Y26D01*
X0Y25D02*
X7Y25D01*
X1415Y25D02*
X1422Y25D01*
X0Y24D02*
X7Y24D01*
X1415Y24D02*
X1422Y24D01*
X0Y23D02*
X7Y23D01*
X1415Y23D02*
X1422Y23D01*
X0Y22D02*
X7Y22D01*
X1415Y22D02*
X1422Y22D01*
X0Y21D02*
X7Y21D01*
X1415Y21D02*
X1422Y21D01*
X0Y20D02*
X7Y20D01*
X1415Y20D02*
X1422Y20D01*
X0Y19D02*
X7Y19D01*
X1415Y19D02*
X1422Y19D01*
X0Y18D02*
X7Y18D01*
X1415Y18D02*
X1422Y18D01*
X0Y17D02*
X7Y17D01*
X1415Y17D02*
X1422Y17D01*
X0Y16D02*
X7Y16D01*
X1415Y16D02*
X1422Y16D01*
X0Y15D02*
X7Y15D01*
X1415Y15D02*
X1422Y15D01*
X0Y14D02*
X7Y14D01*
X1415Y14D02*
X1422Y14D01*
X0Y13D02*
X7Y13D01*
X1415Y13D02*
X1422Y13D01*
X0Y12D02*
X7Y12D01*
X1415Y12D02*
X1422Y12D01*
X0Y11D02*
X7Y11D01*
X1415Y11D02*
X1422Y11D01*
X0Y10D02*
X7Y10D01*
X1415Y10D02*
X1422Y10D01*
X0Y9D02*
X35Y9D01*
X55Y9D02*
X213Y9D01*
X233Y9D02*
X335Y9D01*
X355Y9D02*
X513Y9D01*
X533Y9D02*
X635Y9D01*
X655Y9D02*
X813Y9D01*
X833Y9D02*
X935Y9D01*
X955Y9D02*
X1113Y9D01*
X1133Y9D02*
X1422Y9D01*
X0Y8D02*
X40Y8D01*
X51Y8D02*
X218Y8D01*
X229Y8D02*
X340Y8D01*
X351Y8D02*
X518Y8D01*
X529Y8D02*
X640Y8D01*
X651Y8D02*
X818Y8D01*
X829Y8D02*
X940Y8D01*
X951Y8D02*
X1118Y8D01*
X1129Y8D02*
X1422Y8D01*
X0Y7D02*
X1422Y7D01*
X0Y6D02*
X1422Y6D01*
X0Y5D02*
X1422Y5D01*
X0Y4D02*
X1422Y4D01*
X0Y3D02*
X1422Y3D01*
X0Y2D02*
X1422Y2D01*
D02*
G04 End of Silk1*
M02*